<?xml version="1.0" encoding="UTF-8" standalone="no"?>
<svg
   xmlns:dc="http://purl.org/dc/elements/1.1/"
   xmlns:cc="http://creativecommons.org/ns#"
   xmlns:rdf="http://www.w3.org/1999/02/22-rdf-syntax-ns#"
   xmlns:svg="http://www.w3.org/2000/svg"
   xmlns="http://www.w3.org/2000/svg"
   xmlns:sodipodi="http://sodipodi.sourceforge.net/DTD/sodipodi-0.dtd"
   xmlns:inkscape="http://www.inkscape.org/namespaces/inkscape"
   width="512mm"
   height="512mm"
   viewBox="0 0 512 512"
   version="1.1"
   id="svg4095"
   inkscape:version="1.0.1 (1.0.1+r74)"
   sodipodi:docname="feature.svg">
  <defs
     id="defs4089">
    <clipPath
       clipPathUnits="userSpaceOnUse"
       id="clipPath4203">
      <rect
         style="fill:none;fill-opacity:1;stroke:#020003;stroke-width:15;stroke-miterlimit:4;stroke-dasharray:none;stroke-opacity:0.993002"
         id="rect4205"
         width="168.89925"
         height="168.89925"
         x="15.548746"
         y="62.787457"
         ry="13.412745"
         transform="rotate(33.662732)" />
    </clipPath>
    <clipPath
       clipPathUnits="userSpaceOnUse"
       id="clipPath4207">
      <rect
         style="fill:none;fill-opacity:1;stroke:#020003;stroke-width:15;stroke-miterlimit:4;stroke-dasharray:none;stroke-opacity:0.993002"
         id="rect4209"
         width="168.89925"
         height="168.89925"
         x="15.548746"
         y="62.787457"
         ry="13.412745" />
    </clipPath>
    <clipPath
       clipPathUnits="userSpaceOnUse"
       id="clipPath4211">
      <rect
         style="fill:none;fill-opacity:1;stroke:#020003;stroke-width:15;stroke-miterlimit:4;stroke-dasharray:none;stroke-opacity:0.993002"
         id="rect4213"
         width="168.89925"
         height="168.89925"
         x="15.548746"
         y="62.787457"
         ry="13.412745" />
    </clipPath>
    <clipPath
       clipPathUnits="userSpaceOnUse"
       id="clipPath4215">
      <rect
         style="fill:none;fill-opacity:1;stroke:#020003;stroke-width:15;stroke-miterlimit:4;stroke-dasharray:none;stroke-opacity:0.993002"
         id="rect4217"
         width="168.89925"
         height="168.89925"
         x="15.548746"
         y="62.787457"
         ry="13.412745"
         transform="rotate(33.662732)" />
    </clipPath>
  </defs>
  <sodipodi:namedview
     id="base"
     pagecolor="#ffffff"
     bordercolor="#666666"
     borderopacity="1.0"
     inkscape:pageopacity="0.0"
     inkscape:pageshadow="2"
     inkscape:zoom="0.24748737"
     inkscape:cx="523.85493"
     inkscape:cy="559.75554"
     inkscape:document-units="mm"
     inkscape:current-layer="layer6"
     inkscape:document-rotation="0"
     showgrid="false"
     inkscape:window-width="3820"
     inkscape:window-height="1032"
     inkscape:window-x="0"
     inkscape:window-y="28"
     inkscape:window-maximized="1" />
  <metadata
     id="metadata4092">
    <rdf:RDF>
      <cc:Work
         rdf:about="">
        <dc:format>image/svg+xml</dc:format>
        <dc:type
           rdf:resource="http://purl.org/dc/dcmitype/StillImage" />
        <dc:title></dc:title>
      </cc:Work>
    </rdf:RDF>
  </metadata>
  <g
     inkscape:label="ref"
     inkscape:groupmode="layer"
     id="layer1"
     style="opacity:1" />
  <g
     inkscape:groupmode="layer"
     id="layer6"
     inkscape:label="logo">
    <g
       id="g4234"
       transform="matrix(2.029303,0,0,2.029303,53.073009,-0.9559267)">
      <rect
         style="fill:#d1d1d1;fill-opacity:1;stroke:#020003;stroke-width:15;stroke-miterlimit:4;stroke-dasharray:none;stroke-opacity:0.993002"
         id="rect4112"
         width="168.89925"
         height="168.89925"
         x="15.548746"
         y="62.787453"
         ry="13.412745" />
      <path
         style="fill:#828282;fill-opacity:1;stroke:none;stroke-width:0.264583px;stroke-linecap:butt;stroke-linejoin:miter;stroke-opacity:1"
         d="m 136.23906,147.56579 c 0,0 41.29172,9.74921 49.32194,39.70323 l -1.113,44.41769 -63.04561,-1.35343 -13.8019,-16.06573 z"
         id="path4199" />
      <rect
         style="fill:none;fill-opacity:1;stroke:#020003;stroke-width:15;stroke-miterlimit:4;stroke-dasharray:none;stroke-opacity:0.993002"
         id="rect4165"
         width="168.89925"
         height="168.89925"
         x="15.548746"
         y="62.787453"
         ry="13.412745" />
      <rect
         style="fill:#294aba;fill-opacity:1;stroke:#020003;stroke-width:7.99999;stroke-miterlimit:4;stroke-dasharray:none;stroke-opacity:0.993002"
         id="rect4116"
         width="152.06651"
         height="81.3246"
         x="-121.83952"
         y="172.80269"
         ry="19.001265"
         transform="rotate(-33.662732)"
         clip-path="url(#clipPath4215)" />
      <path
         style="color:#000000;font-style:normal;font-variant:normal;font-weight:normal;font-stretch:normal;font-size:medium;line-height:normal;font-family:sans-serif;font-variant-ligatures:normal;font-variant-position:normal;font-variant-caps:normal;font-variant-numeric:normal;font-variant-alternates:normal;font-variant-east-asian:normal;font-feature-settings:normal;font-variation-settings:normal;text-indent:0;text-align:start;text-decoration:none;text-decoration-line:none;text-decoration-style:solid;text-decoration-color:#000000;letter-spacing:normal;word-spacing:normal;text-transform:none;writing-mode:lr-tb;direction:ltr;text-orientation:mixed;dominant-baseline:auto;baseline-shift:baseline;text-anchor:start;white-space:normal;shape-padding:0;shape-margin:0;inline-size:0;clip-rule:nonzero;display:inline;overflow:visible;visibility:visible;opacity:1;isolation:auto;mix-blend-mode:normal;color-interpolation:sRGB;color-interpolation-filters:linearRGB;solid-color:#000000;solid-opacity:1;vector-effect:none;fill:#5974cd;fill-opacity:1;fill-rule:nonzero;stroke:none;stroke-width:9.28165;stroke-linecap:round;stroke-linejoin:miter;stroke-miterlimit:4;stroke-dasharray:none;stroke-dashoffset:0;stroke-opacity:1;color-rendering:auto;image-rendering:auto;shape-rendering:auto;text-rendering:auto;enable-background:accumulate;stop-color:#000000;stop-opacity:1"
         d="m -14.936091,234.50218 a 4.1541795,5.184475 84.503945 0 0 -0.905079,5.87041 4.1541795,5.184475 84.503945 0 0 7.2637345,0.4789 L 103.39175,166.95076 a 4.1541795,5.184475 84.503945 0 0 0.90507,-5.87041 4.1541795,5.184475 84.503945 0 0 -7.26374,-0.4789 z"
         id="path4171"
         clip-path="url(#clipPath4211)" />
      <path
         id="rect4116-1"
         style="fill:#213c58;fill-opacity:1;stroke:none;stroke-width:7.99999;stroke-miterlimit:4;stroke-dasharray:none;stroke-opacity:0.993002"
         d="m 136.23906,147.56579 c -0.2129,0.0939 -0.42907,0.18621 -0.6165,0.29352 -0.26546,0.15199 -0.50411,0.31774 -0.71365,0.49816 -0.20954,0.18042 -0.38995,0.37587 -0.53795,0.58653 -0.148,0.21066 -0.26385,0.43682 -0.34468,0.67955 -0.0808,0.24272 -0.12632,0.50164 -0.13436,0.77824 -0.008,0.2766 0.0216,0.57085 0.092,0.88315 0.0704,0.3123 0.1815,0.64289 0.3359,0.99271 0.1544,0.34981 0.35177,0.71879 0.59583,1.10794 1.18106,1.84174 2.91143,3.49027 4.19819,5.05912 -0.72446,5.68575 3.43429,15.94878 7.30342,22.72368 5.65952,9.90991 -8.77832,18.66827 -14.96291,23.88743 l -97.107772,62.55225 c 6.29894,5.42319 15.62084,6.23934 22.89371,1.39578 l 94.937342,-63.22611 c 8.76153,-5.83498 11.11735,-17.5857 5.28237,-26.34723 z"
         sodipodi:nodetypes="csssssssccscccscc"
         clip-path="url(#clipPath4207)" />
      <rect
         style="fill:none;fill-opacity:1;stroke:#020003;stroke-width:7.99999;stroke-miterlimit:4;stroke-dasharray:none;stroke-opacity:0.993002"
         id="rect4175"
         width="152.06651"
         height="81.3246"
         x="-121.83952"
         y="172.80269"
         ry="19.001265"
         transform="rotate(-33.662732)"
         clip-path="url(#clipPath4203)" />
      <path
         id="path4163"
         style="fill:#828282;fill-opacity:1;stroke:none;stroke-width:7.99999;stroke-miterlimit:4;stroke-dasharray:none;stroke-opacity:0.993002"
         d="m 142.33602,62.044264 c 0,0 -22.01708,49.176126 -49.176328,49.176326 -11.062823,-7e-5 -21.802466,-3.73034 -30.48341,-10.58798 8.384143,16.5083 25.330046,26.9082 43.845388,26.90843 27.15945,8e-5 49.17664,-22.01687 49.17684,-49.176326 -0.15348,-26.692563 -13.36249,-16.32045 -13.36249,-16.32045 z"
         sodipodi:nodetypes="cccccc" />
      <rect
         style="fill:none;fill-opacity:1;stroke:#020003;stroke-width:15;stroke-miterlimit:4;stroke-dasharray:none;stroke-opacity:0.993002"
         id="rect4219"
         width="168.89925"
         height="168.89925"
         x="15.548746"
         y="62.787453"
         ry="13.412745" />
      <circle
         style="fill:#bf5900;fill-opacity:1;stroke:#020003;stroke-width:8;stroke-miterlimit:4;stroke-dasharray:none;stroke-opacity:0.993002"
         id="path4114"
         cx="91.251907"
         cy="63.033932"
         r="49.176689" />
      <circle
         style="fill:#de7f2c;fill-opacity:1;stroke:none;stroke-width:1.92704;stroke-miterlimit:4;stroke-dasharray:none;stroke-opacity:0.993002"
         id="circle4136"
         cx="79.195702"
         cy="43.679817"
         r="11.845693" />
      <path
         id="path4114-4"
         style="fill:#7d4617;fill-opacity:1;stroke:none;stroke-width:7.99999;stroke-miterlimit:4;stroke-dasharray:none;stroke-opacity:0.993002"
         d="M 120.46691,24.753103 A 49.176688,49.176688 0 0 1 125.79785,47.02151 49.176688,49.176688 0 0 1 76.621526,96.197836 49.176688,49.176688 0 0 1 46.138116,85.609851 49.176688,49.176688 0 0 0 89.9835,112.51829 49.176688,49.176688 0 0 0 139.16034,63.34196 49.176688,49.176688 0 0 0 120.46691,24.753103 Z" />
      <circle
         style="fill:none;fill-opacity:1;stroke:#020003;stroke-width:8;stroke-miterlimit:4;stroke-dasharray:none;stroke-opacity:0.993002"
         id="circle4161"
         cx="91.251907"
         cy="63.033932"
         r="49.176689" />
    </g>
  </g>
</svg>
