<?xml version="1.0" encoding="UTF-8" standalone="no"?>
<svg
   xmlns:ns="&amp;ns_sfw;"
   xmlns:dc="http://purl.org/dc/elements/1.1/"
   xmlns:cc="http://creativecommons.org/ns#"
   xmlns:rdf="http://www.w3.org/1999/02/22-rdf-syntax-ns#"
   xmlns:svg="http://www.w3.org/2000/svg"
   xmlns="http://www.w3.org/2000/svg"
   xmlns:xlink="http://www.w3.org/1999/xlink"
   xmlns:sodipodi="http://sodipodi.sourceforge.net/DTD/sodipodi-0.dtd"
   xmlns:inkscape="http://www.inkscape.org/namespaces/inkscape"
   version="1.1"
   id="Livello_1"
   x="0px"
   y="0px"
   viewBox="0 0 288 288"
   enable-background="new 0 0 287.5 250"
   xml:space="preserve"
   sodipodi:docname="feature.svg"
   width="288"
   height="288"
   inkscape:version="1.0.2 (1.0.2+r75+1)"><defs
   id="defs1879" /><sodipodi:namedview
   pagecolor="#ffffff"
   bordercolor="#666666"
   borderopacity="1"
   objecttolerance="10"
   gridtolerance="10"
   guidetolerance="10"
   inkscape:pageopacity="0"
   inkscape:pageshadow="2"
   inkscape:window-width="3820"
   inkscape:window-height="1032"
   id="namedview1877"
   showgrid="false"
   inkscape:zoom="1.744"
   inkscape:cx="-57.32162"
   inkscape:cy="135.65769"
   inkscape:window-x="0"
   inkscape:window-y="28"
   inkscape:window-maximized="1"
   inkscape:current-layer="Livello_1" />
<metadata
   id="metadata1808">
	<ns:sfw>
		<ns:slices />
		<ns:sliceSourceBounds
   bottomLeftOrigin="true"
   height="250"
   width="287.5"
   x="-131.8"
   y="-113" />
	</ns:sfw>
<rdf:RDF><cc:Work
     rdf:about=""><dc:format>image/svg+xml</dc:format><dc:type
       rdf:resource="http://purl.org/dc/dcmitype/StillImage" /><dc:title></dc:title></cc:Work></rdf:RDF></metadata>
<g
   id="g1874"
   transform="translate(0.25,19)">
	<g
   id="g1833">
		<defs
   id="defs1811">
			<path
   id="SVGID_1_"
   d="M 190.7,0 H 96.8 L 0,168.8 45.8,250 h 195.9 l 45.8,-81.2 C 287.5,168.8 190.7,0 190.7,0 Z M 92.9,168.8 143.8,81 l 50.9,87.8 z" />
		</defs>
		<clipPath
   id="SVGID_2_">
			<use
   xlink:href="#SVGID_1_"
   overflow="visible"
   id="use1813"
   x="0"
   y="0"
   width="100%"
   height="100%" />
		</clipPath>
		<g
   clip-path="url(#SVGID_2_)"
   id="g1831">
			<path
   fill="#4285f4"
   d="M 45.8,168.8 V 250 h 195.9 l 45.8,-81.2 z"
   id="path1816" />
			
				<linearGradient
   id="SVGID_3_"
   gradientUnits="userSpaceOnUse"
   x1="6263.6924"
   y1="-4322.291"
   x2="6831.4297"
   y2="-4630.3159"
   gradientTransform="matrix(0.125,0,0,-0.125,-713.3438,-330.75)">
				<stop
   offset="0"
   style="stop-color:#1A237E;stop-opacity:0.2"
   id="stop1818" />
				<stop
   offset="1"
   style="stop-color:#1A237E;stop-opacity:2.000000e-02"
   id="stop1820" />
			</linearGradient>
			<path
   fill="url(#SVGID_3_)"
   d="M 92.9,168.8 140,250 H 45.8 Z"
   id="path1823"
   style="fill:url(#SVGID_3_)" />
			<path
   fill="#ffffff"
   fill-opacity="0.2"
   d="m 92,170.3 h 192.9 l 2.7,-1.6 H 92.9 Z"
   id="path1825" />
			<path
   fill="#1a237e"
   fill-opacity="0.2"
   d="m 284.8,170.3 -44,78.1 H 46.7 l -0.9,1.6 h 195.9 l 45.8,-81.2 z"
   id="path1827" />
			<path
   fill="#1a237e"
   fill-opacity="0.05"
   d="M 93.8,170.3 92.9,168.7 45.8,250 h 1.8 z"
   id="path1829" />
		</g>
	</g>
	<g
   id="g1849">
		<defs
   id="defs1836">
			<path
   id="SVGID_4_"
   d="M 190.7,0 H 96.8 L 0,168.8 45.8,250 h 195.9 l 45.8,-81.2 C 287.5,168.8 190.7,0 190.7,0 Z M 92.9,168.8 143.8,81 l 50.9,87.8 z" />
		</defs>
		<clipPath
   id="SVGID_5_">
			<use
   xlink:href="#SVGID_4_"
   overflow="visible"
   id="use1838"
   x="0"
   y="0"
   width="100%"
   height="100%" />
		</clipPath>
		<g
   clip-path="url(#SVGID_5_)"
   id="g1847">
			<path
   fill="#0f9d58"
   d="M 96.8,0 0,168.8 45.8,250 156.2,59.4 Z"
   id="path1841" />
			<path
   fill="#263238"
   fill-opacity="0.1"
   d="m 96.8,0 0.9,4.6 44.2,76.3 -96.1,165.9 -44,-78.1 H 0 l 45.8,81.3 98,-169.1 z"
   id="path1843" />
			<path
   fill="#ffffff"
   fill-opacity="0.2"
   d="M 1.8,168.8 97.8,1.6 96.8,0 0,168.8 Z"
   id="path1845" />
		</g>
	</g>
	<g
   id="g1865">
		<defs
   id="defs1852">
			<path
   id="SVGID_6_"
   d="M 190.7,0 H 96.8 L 0,168.8 45.8,250 h 195.9 l 45.8,-81.2 C 287.5,168.8 190.7,0 190.7,0 Z M 92.9,168.8 143.8,81 l 50.9,87.8 z" />
		</defs>
		<clipPath
   id="SVGID_7_">
			<use
   xlink:href="#SVGID_6_"
   overflow="visible"
   id="use1854"
   x="0"
   y="0"
   width="100%"
   height="100%" />
		</clipPath>
		<g
   clip-path="url(#SVGID_7_)"
   id="g1863">
			<path
   fill="#ffcd40"
   d="M 190.7,0 H 96.8 l 97.8,168.8 h 92.9 z"
   id="path1857" />
			<path
   fill="#ffffff"
   fill-opacity="0.2"
   d="M 190.7,0 H 96.8 l 2.7,1.6 h 90.2 l 96,167.2 h 1.8 z"
   id="path1859" />
			<path
   fill="#bf360c"
   fill-opacity="0.1"
   d="M 195.5,167.2 99.5,1.6 96.8,0 194.6,168.8 Z"
   id="path1861" />
		</g>
	</g>
	
		<radialGradient
   id="SVGID_8_"
   cx="6486.3501"
   cy="-2666.2124"
   r="2290.675"
   gradientTransform="matrix(0.125,0,0,-0.125,-713.3438,-330.75)"
   gradientUnits="userSpaceOnUse">
		<stop
   offset="0"
   style="stop-color:#FFFFFF;stop-opacity:0.1"
   id="stop1867" />
		<stop
   offset="1"
   style="stop-color:#FFFFFF;stop-opacity:0"
   id="stop1869" />
	</radialGradient>
	<path
   fill="url(#SVGID_8_)"
   d="M 190.7,0 H 96.8 L 0,168.8 45.8,250 h 195.9 l 45.8,-81.2 C 287.5,168.8 190.7,0 190.7,0 Z M 92.9,168.8 143.8,81 l 50.9,87.8 z"
   id="path1872"
   style="fill:url(#SVGID_8_)" />
</g>
</svg>
