<?xml version="1.0" encoding="UTF-8"?>
<!DOCTYPE svg PUBLIC "-//W3C//DTD SVG 1.1//EN" "http://www.w3.org/Graphics/SVG/1.1/DTD/svg11.dtd">
<svg version="1.1" xmlns="http://www.w3.org/2000/svg" xmlns:xlink="http://www.w3.org/1999/xlink" x="0" y="0" width="20.5" height="20" viewBox="0, 0, 20.5, 20">
  <g id="Layer_1" transform="translate(-203.75, -306)">
    <path d="M209.25,311 L224.25,311 L224.25,326 L209.25,326 L209.25,311 z" fill="#5B00FF"/>
    <path d="M211.25,306 L215,306 L215,309.75 L218.75,309.75 L218.75,313.5 L215,313.5 L215,317.25 L218.75,317.25 L218.75,321 L215,321 L215,317.25 L211.25,317.25 L211.25,321 L207.5,321 L207.5,317.25 L203.75,317.25 L203.75,306 L207.5,306 L207.5,309.75 L211.25,309.75 L211.25,313.5 L215,313.5 L215,309.75 L211.25,309.75 L211.25,306 z M207.5,313.5 L207.5,317.25 L211.25,317.25 L211.25,313.5 L207.5,313.5 z M203.75,309.75 L203.75,313.5 L207.5,313.5 L207.5,309.75 L203.75,309.75 z" fill="#FF0000"/>
  </g>
</svg>
