<?xml version="1.0" encoding="UTF-8"?>
<!-- Created with Inkscape (http://www.inkscape.org/) -->
<svg width="315.91mm" height="67.009mm" version="1.1" viewBox="0 0 315.91 67.009" xmlns="http://www.w3.org/2000/svg">
 <defs>
  <marker id="Triangle" overflow="visible" markerHeight="1" markerWidth="1" orient="auto-start-reverse" preserveAspectRatio="xMidYMid" viewBox="0 0 1 1">
   <path transform="scale(.5)" d="m5.77 0-8.65 5v-10z" fill="context-stroke" fill-rule="evenodd" stroke="context-stroke" stroke-width="1pt"/>
  </marker>
 </defs>
 <g transform="translate(-256.45 -97.834)">
  <path d="m256.45 97.834h315.91v67.009h-315.91z" fill="#fff" stroke-width="16.013"/>
  <path d="m257.22 129.03h34.622v35.002h-34.622z" fill="#fff" stroke="#536c5d" stroke-width="1.136"/>
  <path d="m281.13 128.78h10.949v35.495h-10.949z" fill="#d5e5ff" stop-color="#000000" stroke="#536c5d" stroke-width="1.136"/>
  <g fill="#fca" stroke="#536c5d" stroke-width="1.136">
   <path d="m291.84 129.03h34.622v35.002h-34.622z"/>
   <path d="m326.46 129.03h34.622v35.002h-34.622z"/>
   <path d="m361.08 129.03h34.622v35.002h-34.622z"/>
   <path d="m395.7 129.03h34.622v35.002h-34.622z"/>
  </g>
  <g fill="#e5ffd5" stroke="#536c5d" stroke-width="1.136">
   <path d="m430.32 129.03h34.622v35.002h-34.622z"/>
   <path d="m464.95 129.03h34.622v35.002h-34.622z"/>
   <path d="m499.57 129.03h34.622v35.002h-34.622z"/>
   <path d="m534.19 129.03h34.622v35.002h-34.622z"/>
  </g>
  <path d="m343.4 137.85h30.424v16.863h-30.424z" fill="#fca" stroke-width="1.665"/>
  <path d="m343.08 142.27h2.6417q1.1782 0 1.8066 0.52503 0.63252 0.5209 0.63252 1.4883 0 0.97152-0.63252 1.4966-0.62839 0.5209-1.8066 0.5209h-1.0501v2.1415h-1.5916zm1.5916 1.1534v1.7239h0.88057q0.46302 0 0.7152-0.22324 0.25218-0.22737 0.25218-0.64079 0-0.41341-0.25218-0.63665t-0.7152-0.22324zm4.8286 3.9191h1.4056v-3.9894l-1.4428 0.29765v-1.0831l1.4345-0.29766h1.5131v5.0726h1.4056v1.0997h-4.316zm10.215-3.8695v3.7662h0.57051q0.97565 0 1.4883-0.48369 0.51677-0.4837 0.51677-1.4056 0-0.91778-0.51263-1.3973-0.51263-0.47955-1.4924-0.47955zm-1.5916-1.203h1.6784q1.4056 0 2.0919 0.20257 0.6904 0.19844 1.1824 0.678 0.43408 0.41754 0.64492 0.96324 0.21084 0.54571 0.21084 1.2361 0 0.69866-0.21084 1.2485-0.21084 0.5457-0.64492 0.96325-0.49609 0.47956-1.1906 0.68213-0.69453 0.19843-2.0836 0.19843h-1.6784zm9.0372 4.0886q-0.46303 0-0.69867 0.1571-0.23151 0.15709-0.23151 0.46302 0 0.28112 0.18603 0.44235 0.19017 0.15709 0.52504 0.15709 0.41754 0 0.7028-0.29765 0.28525-0.30179 0.28525-0.75241v-0.1695zm2.2614-0.55811v2.6417h-1.4924v-0.68626q-0.29766 0.42168-0.66973 0.61598-0.37207 0.19017-0.90537 0.19017-0.71933 0-1.17-0.41754-0.44649-0.42168-0.44649-1.0914 0-0.81442 0.55811-1.1948 0.56224-0.38034 1.7611-0.38034h0.8723v-0.11575q0-0.3514-0.27698-0.51263-0.27699-0.16537-0.86403-0.16537-0.47543 0-0.88471 0.0951-0.40927 0.0951-0.76067 0.28525v-1.1286q0.47542-0.11576 0.95498-0.17364 0.47956-0.062 0.95911-0.062 1.2526 0 1.8066 0.4961 0.55811 0.49196 0.55811 1.604zm2.9931-3.3032v1.3146h1.5255v1.0583h-1.5255v1.9637q0 0.32246 0.12815 0.43822 0.12816 0.11162 0.5085 0.11162h0.76068v1.0583h-1.2692q-0.87643 0-1.2444-0.3638-0.36381-0.36793-0.36381-1.2444v-1.9637h-0.73587v-1.0583h0.73587v-1.3146zm4.5062 3.8613q-0.46302 0-0.69866 0.1571-0.23151 0.15709-0.23151 0.46302 0 0.28112 0.18603 0.44235 0.19017 0.15709 0.52504 0.15709 0.41754 0 0.7028-0.29765 0.28525-0.30179 0.28525-0.75241v-0.1695zm2.2614-0.55811v2.6417h-1.4924v-0.68626q-0.29766 0.42168-0.66973 0.61598-0.37207 0.19017-0.90537 0.19017-0.71933 0-1.17-0.41754-0.44649-0.42168-0.44649-1.0914 0-0.81442 0.55811-1.1948 0.56224-0.38034 1.7611-0.38034h0.8723v-0.11575q0-0.3514-0.27699-0.51263-0.27698-0.16537-0.86403-0.16537-0.47542 0-0.8847 0.0951-0.40927 0.0951-0.76067 0.28525v-1.1286q0.47542-0.11576 0.95498-0.17364 0.47955-0.062 0.95911-0.062 1.2526 0 1.8066 0.4961 0.55811 0.49196 0.55811 1.604z" stroke-width=".26458" aria-label="P1 Data"/>
  <path transform="rotate(-90)" d="m-160.15 284.44v0.97978q-0.38137-0.17053-0.74414-0.25735-0.36277-0.0868-0.68523-0.0868-0.42788 0-0.63252 0.11782t-0.20464 0.36587q0 0.18603 0.13643 0.29145 0.13952 0.10232 0.50229 0.17674l0.5085 0.10232q0.77204 0.15503 1.0976 0.47129 0.32557 0.31626 0.32557 0.89917 0 0.76584-0.45579 1.141-0.45269 0.37207-1.386 0.37207-0.44028 0-0.88367-0.0837-0.44338-0.0837-0.88677-0.24805v-1.0077q0.44339 0.23564 0.85577 0.35657 0.41547 0.11782 0.79995 0.11782 0.39067 0 0.59841-0.13023 0.20774-0.13022 0.20774-0.37207 0-0.21704-0.14263-0.33486-0.13952-0.11782-0.5612-0.21084l-0.46199-0.10232q-0.69453-0.14883-1.017-0.47439-0.31936-0.32556-0.31936-0.87746 0-0.69144 0.44648-1.0635 0.44649-0.37207 1.2836-0.37207 0.38138 0 0.78445 0.0589 0.40308 0.0558 0.83406 0.17053zm1.3518-0.14573h1.5193l1.0542 2.4774 1.0604-2.4774h1.5162v4.6292h-1.1286v-3.3858l-1.0666 2.496h-0.75654l-1.0666-2.496v3.3858h-1.1317zm9.1281 3.7858h-1.8666l-0.29456 0.84335h-1.1999l1.7146-4.6292h1.4232l1.7146 4.6292h-1.1999zm-1.5689-0.85887h1.2681l-0.63252-1.8418zm7.0786-2.0247v2.8246h0.42788q0.73174 0 1.1162-0.36276 0.38758-0.36277 0.38758-1.0542 0-0.68833-0.38448-1.048-0.38447-0.35967-1.1193-0.35967zm-1.1937-0.90227h1.2588q1.0542 0 1.5689 0.15193 0.5178 0.14883 0.88677 0.50849 0.32556 0.31316 0.48369 0.72244t0.15813 0.92708q0 0.524-0.15813 0.93637-0.15813 0.40928-0.48369 0.72244-0.37207 0.35967-0.89297 0.5116-0.5209 0.14882-1.5627 0.14882h-1.2588zm6.7779 3.0665q-0.34727 0-0.524 0.11782-0.17364 0.11782-0.17364 0.34727 0 0.21084 0.13953 0.33176 0.14263 0.11782 0.39378 0.11782 0.31315 0 0.5271-0.22324 0.21394-0.22634 0.21394-0.56431v-0.12712zm1.696-0.41858v1.9813h-1.1193v-0.51469q-0.22325 0.31626-0.5023 0.46198-0.27905 0.14263-0.67903 0.14263-0.5395 0-0.87746-0.31316-0.33487-0.31626-0.33487-0.81855 0-0.61082 0.41858-0.89607 0.42168-0.28526 1.3208-0.28526h0.65423v-0.0868q0-0.26355-0.20774-0.38447-0.20774-0.12403-0.64803-0.12403-0.35656 0-0.66352 0.0713t-0.57051 0.21394v-0.84646q0.35657-0.0868 0.71624-0.13023 0.35966-0.0465 0.71933-0.0465 0.93948 0 1.355 0.37207 0.41858 0.36897 0.41858 1.203zm2.2448-2.4774v0.98599h1.1441v0.79375h-1.1441v1.4728q0 0.24184 0.0961 0.32866 0.0961 0.0837 0.38137 0.0837h0.57051v0.79375h-0.95188q-0.65732 0-0.93328-0.27285-0.27285-0.27595-0.27285-0.93327v-1.4728h-0.5519v-0.79375h0.5519v-0.98599zm3.3796 2.896q-0.34727 0-0.524 0.11782-0.17363 0.11782-0.17363 0.34727 0 0.21084 0.13952 0.33176 0.14263 0.11782 0.39378 0.11782 0.31316 0 0.5271-0.22324 0.21394-0.22634 0.21394-0.56431v-0.12712zm1.696-0.41858v1.9813h-1.1193v-0.51469q-0.22324 0.31626-0.5023 0.46198-0.27905 0.14263-0.67903 0.14263-0.5395 0-0.87746-0.31316-0.33486-0.31626-0.33486-0.81855 0-0.61082 0.41857-0.89607 0.42168-0.28526 1.3208-0.28526h0.65423v-0.0868q0-0.26355-0.20774-0.38447-0.20774-0.12403-0.64802-0.12403-0.35657 0-0.66353 0.0713t-0.57051 0.21394v-0.84646q0.35657-0.0868 0.71624-0.13023 0.35967-0.0465 0.71933-0.0465 0.93948 0 1.355 0.37207 0.41858 0.36897 0.41858 1.203z" stroke-width=".26458" aria-label="SMA Data"/>
  <path d="m483.28 137.32h30.424v16.863h-30.424z" fill="#e5ffd5" stroke-width="1.665"/>
  <path d="m500.99 130.33h21.618v32.642h-21.618z" fill="#e9dada" stop-color="#000000" stroke="#e9afaf" stroke-dasharray="6.12302, 1.53076" stroke-width="1.5308"/>
  <path d="m258.14 128.78h22.99v34.996h-22.99z" fill="#e9afaf" stop-color="#000000" stroke-width="1.6345"/>
  <g stroke-width=".26458">
   <path d="m482.96 141.75h2.6417q1.1782 0 1.8066 0.52503 0.63252 0.5209 0.63252 1.4883 0 0.97152-0.63252 1.4966-0.62838 0.5209-1.8066 0.5209h-1.0501v2.1415h-1.5916zm1.5916 1.1534v1.7239h0.88057q0.46302 0 0.7152-0.22324 0.25218-0.22738 0.25218-0.64079t-0.25218-0.63665-0.7152-0.22324zm6.2756 3.8489h2.7161v1.17h-4.4855v-1.17l2.2531-1.9885q0.30179-0.27285 0.44648-0.5333 0.1447-0.26045 0.1447-0.54157 0-0.43408-0.29353-0.69867-0.28938-0.26458-0.77307-0.26458-0.37208 0-0.81443 0.16123-0.44235 0.1571-0.94671 0.47129v-1.356q0.53744-0.17777 1.0625-0.26872 0.52503-0.0951 1.0294-0.0951 1.108 0 1.7198 0.48782 0.61598 0.48783 0.61598 1.3601 0 0.50436-0.26045 0.94258-0.26045 0.43408-1.0955 1.1658zm8.7685-3.7992v3.7662h0.57051q0.97565 0 1.4883-0.4837 0.51676-0.48369 0.51676-1.4056 0-0.91777-0.51263-1.3973-0.51263-0.47955-1.4924-0.47955zm-1.5916-1.203h1.6784q1.4056 0 2.0919 0.20257 0.69039 0.19844 1.1824 0.678 0.43409 0.41754 0.64493 0.96324 0.21084 0.54571 0.21084 1.2361 0 0.69867-0.21084 1.2485-0.21084 0.5457-0.64493 0.96325-0.49609 0.47955-1.1906 0.68213-0.69453 0.19843-2.0836 0.19843h-1.6784zm9.0372 4.0886q-0.46302 0-0.69867 0.1571-0.23151 0.15709-0.23151 0.46302 0 0.28112 0.18604 0.44235 0.19017 0.15709 0.52503 0.15709 0.41755 0 0.7028-0.29765 0.28526-0.30179 0.28526-0.75241v-0.1695zm2.2614-0.55811v2.6417h-1.4924v-0.68626q-0.29766 0.42168-0.66973 0.61598-0.37207 0.19017-0.90537 0.19017-0.71934 0-1.17-0.41754-0.44648-0.42168-0.44648-1.0914 0-0.81442 0.5581-1.1948 0.56224-0.38034 1.7611-0.38034h0.8723v-0.11575q0-0.3514-0.27699-0.51263-0.27699-0.16537-0.86403-0.16537-0.47542 0-0.8847 0.0951t-0.76068 0.28525v-1.1286q0.47543-0.11576 0.95498-0.17364 0.47956-0.062 0.95912-0.062 1.2526 0 1.8066 0.4961 0.5581 0.49196 0.5581 1.604zm2.9931-3.3032v1.3146h1.5255v1.0583h-1.5255v1.9637q0 0.32246 0.12816 0.43822 0.12816 0.11162 0.5085 0.11162h0.76067v1.0583h-1.2692q-0.87643 0-1.2444-0.3638-0.3638-0.36793-0.3638-1.2444v-1.9637h-0.73587v-1.0583h0.73587v-1.3146zm4.5062 3.8613q-0.46302 0-0.69867 0.1571-0.23151 0.15709-0.23151 0.46302 0 0.28112 0.18604 0.44235 0.19017 0.15709 0.52503 0.15709 0.41755 0 0.7028-0.29765 0.28525-0.30179 0.28525-0.75241v-0.1695zm2.2614-0.55811v2.6417h-1.4924v-0.68626q-0.29765 0.42168-0.66972 0.61598-0.37207 0.19017-0.90537 0.19017-0.71934 0-1.17-0.41754-0.44648-0.42168-0.44648-1.0914 0-0.81442 0.5581-1.1948 0.56224-0.38034 1.7611-0.38034h0.87229v-0.11575q0-0.3514-0.27698-0.51263-0.27699-0.16537-0.86403-0.16537-0.47542 0-0.8847 0.0951t-0.76068 0.28525v-1.1286q0.47542-0.11576 0.95498-0.17364 0.47956-0.062 0.95912-0.062 1.2526 0 1.8066 0.4961 0.5581 0.49196 0.5581 1.604z" aria-label="P2 Data"/>
   <path d="m257.34 124.69q-0.26872 0-0.4048 0.26527-0.13436 0.26355-0.13436 0.79409 0 0.52882 0.13436 0.79409 0.13608 0.26355 0.4048 0.26355 0.27044 0 0.4048-0.26355 0.13608-0.26527 0.13608-0.79409 0-0.53054-0.13608-0.79409-0.13436-0.26527-0.4048-0.26527zm0-0.27561q0.43236 0 0.65973 0.34279 0.2291 0.34106 0.2291 0.99218 0 0.6494-0.2291 0.99219-0.22737 0.34106-0.65973 0.34106t-0.66146-0.34106q-0.22738-0.34279-0.22738-0.99219 0-0.65112 0.22738-0.99218 0.2291-0.34279 0.66146-0.34279z" aria-label="0"/>
   <path d="m288.31 126.77h0.56844v-1.962l-0.61839 0.12402v-0.31694l0.61494-0.12403h0.34796v2.2789h0.56844v0.29283h-1.4814zm3.6415-1.2661q0.11885-0.2136 0.28422-0.31523 0.16536-0.10163 0.38929-0.10163 0.30145 0 0.46509 0.21188 0.16364 0.21015 0.16364 0.59944v1.1644h-0.31867v-1.1541q0-0.27733-0.0982-0.41169t-0.29973-0.13436q-0.24632 0-0.38929 0.16364t-0.14297 0.44614v1.0904h-0.31867v-1.1541q0-0.27906-0.0982-0.41169-0.0982-0.13436-0.30317-0.13436-0.24287 0-0.38585 0.16536-0.14297 0.16365-0.14297 0.44442v1.0904h-0.31867v-1.9292h0.31867v0.29972q0.10852-0.17742 0.26011-0.26182 0.15158-0.0844 0.36001-0.0844 0.21015 0 0.35657 0.1068 0.14813 0.1068 0.21876 0.31006zm3.3193 0.596q0-0.34968-0.14469-0.54777-0.14297-0.19982-0.39447-0.19982-0.25149 0-0.39618 0.19982-0.14297 0.19809-0.14297 0.54777t0.14297 0.54949q0.14469 0.19809 0.39618 0.19809 0.2515 0 0.39447-0.19809 0.14469-0.19981 0.14469-0.54949zm-1.0783-0.67352q0.0999-0.17225 0.25149-0.25493 0.15331-0.0844 0.36518-0.0844 0.3514 0 0.57016 0.27906 0.22049 0.27905 0.22049 0.7338t-0.22049 0.7338q-0.21876 0.27905-0.57016 0.27905-0.21187 0-0.36518-0.0827-0.15158-0.0844-0.25149-0.25666v0.28939h-0.31867v-2.6803h0.31867z" aria-label="1mb"/>
   <path d="m323.2 126.77h1.2144v0.29283h-1.633v-0.29283q0.19809-0.20498 0.53916-0.54949 0.34278-0.34623 0.43063-0.44614 0.16709-0.18776 0.23255-0.31695 0.0672-0.13091 0.0672-0.25666 0-0.20498-0.1447-0.33417-0.14297-0.12919-0.37379-0.12919-0.16364 0-0.34623 0.0568-0.18087 0.0568-0.38757 0.17225v-0.35139q0.21015-0.0844 0.39274-0.12747 0.18259-0.0431 0.33417-0.0431 0.39963 0 0.63734 0.19982 0.23771 0.19981 0.23771 0.53399 0 0.15847-0.0603 0.30144-0.0586 0.14125-0.21531 0.33418-0.0431 0.05-0.27389 0.28938-0.23082 0.23771-0.65112 0.66663zm3.402-1.2661q0.11886-0.2136 0.28422-0.31523 0.16537-0.10163 0.3893-0.10163 0.30144 0 0.46509 0.21188 0.16364 0.21015 0.16364 0.59944v1.1644h-0.31867v-1.1541q0-0.27733-0.0982-0.41169t-0.29972-0.13436q-0.24632 0-0.3893 0.16364-0.14297 0.16364-0.14297 0.44614v1.0904h-0.31867v-1.1541q0-0.27906-0.0982-0.41169-0.0982-0.13436-0.30317-0.13436-0.24288 0-0.38585 0.16536-0.14297 0.16365-0.14297 0.44442v1.0904h-0.31867v-1.9292h0.31867v0.29972q0.10852-0.17742 0.2601-0.26182 0.15159-0.0844 0.36001-0.0844 0.21015 0 0.35657 0.1068 0.14814 0.1068 0.21876 0.31006zm3.3194 0.596q0-0.34968-0.1447-0.54777-0.14297-0.19982-0.39446-0.19982t-0.39619 0.19982q-0.14297 0.19809-0.14297 0.54777t0.14297 0.54949q0.1447 0.19809 0.39619 0.19809t0.39446-0.19809q0.1447-0.19981 0.1447-0.54949zm-1.0783-0.67352q0.0999-0.17225 0.2515-0.25493 0.1533-0.0844 0.36517-0.0844 0.3514 0 0.57017 0.27906 0.22048 0.27905 0.22048 0.7338t-0.22048 0.7338q-0.21877 0.27905-0.57017 0.27905-0.21187 0-0.36517-0.0827-0.15159-0.0844-0.2515-0.25666v0.28939h-0.31867v-2.6803h0.31867z" aria-label="2mb"/>
   <path d="m358.53 125.68q0.24976 0.0534 0.38929 0.22221 0.14125 0.16881 0.14125 0.41686 0 0.38068-0.26183 0.58911-0.26182 0.20842-0.74414 0.20842-0.16192 0-0.33417-0.0327-0.17053-0.031-0.35312-0.0947v-0.3359q0.14469 0.0844 0.31695 0.12747 0.17225 0.0431 0.36001 0.0431 0.32728 0 0.49781-0.12919 0.17226-0.12919 0.17226-0.37551 0-0.22738-0.1602-0.35485-0.15847-0.12919-0.44269-0.12919h-0.29973v-0.28594h0.31351q0.25666 0 0.39274-0.10163 0.13608-0.10335 0.13608-0.29628 0-0.19809-0.14125-0.30317-0.13953-0.10679-0.40135-0.10679-0.14297 0-0.30662 0.031-0.16364 0.031-0.36001 0.0965v-0.31005q0.1981-0.0551 0.37035-0.0827 0.17398-0.0276 0.32728-0.0276 0.39619 0 0.62701 0.18087 0.23082 0.17915 0.23082 0.48576 0 0.21359-0.1223 0.36173-0.1223 0.14642-0.34795 0.20326zm2.6476-0.17225q0.11885-0.2136 0.28422-0.31523 0.16536-0.10163 0.38929-0.10163 0.30145 0 0.46509 0.21188 0.16364 0.21015 0.16364 0.59944v1.1644h-0.31867v-1.1541q0-0.27733-0.0982-0.41169t-0.29972-0.13436q-0.24632 0-0.38929 0.16364-0.14298 0.16364-0.14298 0.44614v1.0904h-0.31867v-1.1541q0-0.27906-0.0982-0.41169-0.0982-0.13436-0.30317-0.13436-0.24288 0-0.38585 0.16536-0.14297 0.16365-0.14297 0.44442v1.0904h-0.31867v-1.9292h0.31867v0.29972q0.10852-0.17742 0.2601-0.26182 0.15159-0.0844 0.36002-0.0844 0.21015 0 0.35656 0.1068 0.14814 0.1068 0.21877 0.31006zm3.3193 0.596q0-0.34968-0.1447-0.54777-0.14297-0.19982-0.39446-0.19982t-0.39618 0.19982q-0.14297 0.19809-0.14297 0.54777t0.14297 0.54949q0.14469 0.19809 0.39618 0.19809t0.39446-0.19809q0.1447-0.19981 0.1447-0.54949zm-1.0783-0.67352q0.0999-0.17225 0.25149-0.25493 0.1533-0.0844 0.36518-0.0844 0.3514 0 0.57016 0.27906 0.22048 0.27905 0.22048 0.7338t-0.22048 0.7338q-0.21876 0.27905-0.57016 0.27905-0.21188 0-0.36518-0.0827-0.15159-0.0844-0.25149-0.25666v0.28939h-0.31868v-2.6803h0.31868z" aria-label="3mb"/>
   <path d="m393.07 124.8-0.8785 1.3729h0.8785zm-0.0913-0.30317h0.43753v1.676h0.3669v0.28939h-0.3669v0.60633h-0.34623v-0.60633h-1.161v-0.3359zm2.837 1.0129q0.11886-0.2136 0.28422-0.31523 0.16537-0.10163 0.3893-0.10163 0.30144 0 0.46509 0.21188 0.16364 0.21015 0.16364 0.59944v1.1644h-0.31867v-1.1541q0-0.27733-0.0982-0.41169t-0.29972-0.13436q-0.24633 0-0.3893 0.16364t-0.14297 0.44614v1.0904h-0.31867v-1.1541q0-0.27906-0.0982-0.41169-0.0982-0.13436-0.30317-0.13436-0.24288 0-0.38585 0.16536-0.14297 0.16365-0.14297 0.44442v1.0904h-0.31867v-1.9292h0.31867v0.29972q0.10852-0.17742 0.2601-0.26182 0.15159-0.0844 0.36001-0.0844 0.21015 0 0.35657 0.1068 0.14814 0.1068 0.21876 0.31006zm3.3194 0.596q0-0.34968-0.1447-0.54777-0.14297-0.19982-0.39446-0.19982t-0.39619 0.19982q-0.14297 0.19809-0.14297 0.54777t0.14297 0.54949q0.1447 0.19809 0.39619 0.19809t0.39446-0.19809q0.1447-0.19981 0.1447-0.54949zm-1.0783-0.67352q0.0999-0.17225 0.25149-0.25493 0.15331-0.0844 0.36518-0.0844 0.3514 0 0.57017 0.27906 0.22048 0.27905 0.22048 0.7338t-0.22048 0.7338q-0.21877 0.27905-0.57017 0.27905-0.21187 0-0.36518-0.0827-0.15158-0.0844-0.25149-0.25666v0.28939h-0.31867v-2.6803h0.31867z" aria-label="4mb"/>
   <path d="m426.65 124.49h1.366v0.29284h-1.0473v0.63045q0.0758-0.0258 0.15159-0.0379 0.0758-0.0138 0.15158-0.0138 0.43064 0 0.68213 0.23599t0.25149 0.63906q0 0.41514-0.25838 0.64596-0.25838 0.22909-0.72864 0.22909-0.16192 0-0.33073-0.0276-0.16708-0.0276-0.34623-0.0827v-0.34967q0.15503 0.0844 0.3204 0.12574 0.16536 0.0413 0.34967 0.0413 0.298 0 0.47198-0.15675t0.17398-0.42547q0-0.26871-0.17398-0.42547-0.17398-0.15675-0.47198-0.15675-0.13952 0-0.27905 0.031-0.1378 0.031-0.2825 0.0965zm3.6983 1.0129q0.11885-0.2136 0.28422-0.31523 0.16536-0.10163 0.38929-0.10163 0.30145 0 0.46509 0.21188 0.16364 0.21015 0.16364 0.59944v1.1644h-0.31867v-1.1541q0-0.27733-0.0982-0.41169t-0.29972-0.13436q-0.24632 0-0.38929 0.16364-0.14298 0.16364-0.14298 0.44614v1.0904h-0.31867v-1.1541q0-0.27906-0.0982-0.41169-0.0982-0.13436-0.30317-0.13436-0.24288 0-0.38585 0.16536-0.14297 0.16365-0.14297 0.44442v1.0904h-0.31867v-1.9292h0.31867v0.29972q0.10852-0.17742 0.2601-0.26182 0.15159-0.0844 0.36002-0.0844 0.21015 0 0.35656 0.1068 0.14814 0.1068 0.21877 0.31006zm3.3193 0.596q0-0.34968-0.1447-0.54777-0.14297-0.19982-0.39446-0.19982t-0.39618 0.19982q-0.14297 0.19809-0.14297 0.54777t0.14297 0.54949q0.14469 0.19809 0.39618 0.19809t0.39446-0.19809q0.1447-0.19981 0.1447-0.54949zm-1.0783-0.67352q0.0999-0.17225 0.25149-0.25493 0.1533-0.0844 0.36518-0.0844 0.3514 0 0.57016 0.27906 0.22048 0.27905 0.22048 0.7338t-0.22048 0.7338q-0.21876 0.27905-0.57016 0.27905-0.21188 0-0.36518-0.0827-0.15159-0.0844-0.25149-0.25666v0.28939h-0.31868v-2.6803h0.31868z" aria-label="5mb"/>
   <path d="m462.03 125.64q-0.23427 0-0.37207 0.16019-0.13608 0.1602-0.13608 0.43925 0 0.27733 0.13608 0.43925 0.1378 0.1602 0.37207 0.1602t0.37035-0.1602q0.1378-0.16192 0.1378-0.43925 0-0.27905-0.1378-0.43925-0.13608-0.16019-0.37035-0.16019zm0.69074-1.0904v0.31694q-0.13091-0.062-0.26527-0.0947-0.13264-0.0327-0.26355-0.0327-0.34451 0-0.5271 0.23254-0.18087 0.23254-0.2067 0.7028 0.10163-0.14986 0.25493-0.2291 0.15331-0.081 0.33762-0.081 0.38757 0 0.6115 0.23599 0.22566 0.23426 0.22566 0.63906 0 0.39619-0.23427 0.63562-0.23426 0.23943-0.62356 0.23943-0.44614 0-0.68213-0.34106-0.23599-0.34279-0.23599-0.99218 0-0.60978 0.28939-0.97152 0.28939-0.36346 0.77687-0.36346 0.13091 0 0.26355 0.0258 0.13436 0.0258 0.27905 0.0775zm2.2238 0.95601q0.11886-0.2136 0.28422-0.31523 0.16537-0.10163 0.3893-0.10163 0.30144 0 0.46509 0.21188 0.16364 0.21015 0.16364 0.59944v1.1644h-0.31867v-1.1541q0-0.27733-0.0982-0.41169t-0.29972-0.13436q-0.24632 0-0.3893 0.16364-0.14297 0.16364-0.14297 0.44614v1.0904h-0.31867v-1.1541q0-0.27906-0.0982-0.41169-0.0982-0.13436-0.30317-0.13436-0.24288 0-0.38585 0.16536-0.14297 0.16365-0.14297 0.44442v1.0904h-0.31867v-1.9292h0.31867v0.29972q0.10852-0.17742 0.2601-0.26182 0.15159-0.0844 0.36002-0.0844 0.21015 0 0.35656 0.1068 0.14814 0.1068 0.21876 0.31006zm3.3194 0.596q0-0.34968-0.1447-0.54777-0.14297-0.19982-0.39446-0.19982t-0.39618 0.19982q-0.14298 0.19809-0.14298 0.54777t0.14298 0.54949q0.14469 0.19809 0.39618 0.19809t0.39446-0.19809q0.1447-0.19981 0.1447-0.54949zm-1.0783-0.67352q0.0999-0.17225 0.2515-0.25493 0.1533-0.0844 0.36518-0.0844 0.35139 0 0.57016 0.27906 0.22048 0.27905 0.22048 0.7338t-0.22048 0.7338q-0.21877 0.27905-0.57016 0.27905-0.21188 0-0.36518-0.0827-0.15159-0.0844-0.2515-0.25666v0.28939h-0.31867v-2.6803h0.31867z" aria-label="6mb"/>
   <path d="m495.72 124.49h1.6536v0.14814l-0.93361 2.4236h-0.36346l0.8785-2.2789h-1.2351zm3.7896 1.0129q0.11885-0.2136 0.28422-0.31523 0.16536-0.10163 0.38929-0.10163 0.30145 0 0.46509 0.21188 0.16364 0.21015 0.16364 0.59944v1.1644h-0.31867v-1.1541q0-0.27733-0.0982-0.41169t-0.29973-0.13436q-0.24632 0-0.38929 0.16364t-0.14297 0.44614v1.0904h-0.31867v-1.1541q0-0.27906-0.0982-0.41169-0.0982-0.13436-0.30317-0.13436-0.24287 0-0.38585 0.16536-0.14297 0.16365-0.14297 0.44442v1.0904h-0.31867v-1.9292h0.31867v0.29972q0.10852-0.17742 0.26011-0.26182 0.15158-0.0844 0.36001-0.0844 0.21015 0 0.35657 0.1068 0.14813 0.1068 0.21876 0.31006zm3.3193 0.596q0-0.34968-0.14469-0.54777-0.14297-0.19982-0.39446-0.19982-0.2515 0-0.39619 0.19982-0.14297 0.19809-0.14297 0.54777t0.14297 0.54949q0.14469 0.19809 0.39619 0.19809 0.25149 0 0.39446-0.19809 0.14469-0.19981 0.14469-0.54949zm-1.0783-0.67352q0.0999-0.17225 0.25149-0.25493 0.15331-0.0844 0.36518-0.0844 0.3514 0 0.57016 0.27906 0.22049 0.27905 0.22049 0.7338t-0.22049 0.7338q-0.21876 0.27905-0.57016 0.27905-0.21187 0-0.36518-0.0827-0.15158-0.0844-0.25149-0.25666v0.28939h-0.31867v-2.6803h0.31867z" aria-label="7mb"/>
   <path d="m531.16 125.84q-0.24804 0-0.39101 0.13263-0.14125 0.13264-0.14125 0.36518 0 0.23255 0.14125 0.36518 0.14297 0.13264 0.39101 0.13264 0.24805 0 0.39102-0.13264 0.14297-0.13436 0.14297-0.36518 0-0.23254-0.14297-0.36518-0.14125-0.13263-0.39102-0.13263zm-0.34795-0.14814q-0.22393-0.0551-0.34968-0.20843-0.12402-0.15331-0.12402-0.37379 0-0.30834 0.21876-0.48748 0.22049-0.17915 0.60289-0.17915 0.38413 0 0.6029 0.17915 0.21876 0.17914 0.21876 0.48748 0 0.22048-0.12575 0.37379-0.12402 0.15331-0.34623 0.20843 0.25149 0.0586 0.39102 0.2291 0.14125 0.17053 0.14125 0.41685 0 0.37379-0.2291 0.57361-0.22738 0.19981-0.65285 0.19981-0.42546 0-0.65456-0.19981-0.22738-0.19982-0.22738-0.57361 0-0.24632 0.14125-0.41685 0.14125-0.17054 0.39274-0.2291zm-0.12747-0.54949q0 0.19981 0.12403 0.31178 0.12574 0.11196 0.35139 0.11196 0.22394 0 0.34968-0.11196 0.12747-0.11197 0.12747-0.31178 0-0.19982-0.12747-0.31178-0.12574-0.11197-0.34968-0.11197-0.22565 0-0.35139 0.11197-0.12403 0.11196-0.12403 0.31178zm3.433 0.36001q0.11886-0.2136 0.28422-0.31523 0.16537-0.10163 0.3893-0.10163 0.30144 0 0.46508 0.21188 0.16365 0.21015 0.16365 0.59944v1.1644h-0.31867v-1.1541q0-0.27733-0.0982-0.41169t-0.29972-0.13436q-0.24633 0-0.3893 0.16364t-0.14297 0.44614v1.0904h-0.31867v-1.1541q0-0.27906-0.0982-0.41169-0.0982-0.13436-0.30317-0.13436-0.24288 0-0.38585 0.16536-0.14297 0.16365-0.14297 0.44442v1.0904h-0.31867v-1.9292h0.31867v0.29972q0.10852-0.17742 0.2601-0.26182 0.15159-0.0844 0.36001-0.0844 0.21015 0 0.35657 0.1068 0.14814 0.1068 0.21876 0.31006zm3.3194 0.596q0-0.34968-0.1447-0.54777-0.14297-0.19982-0.39446-0.19982t-0.39619 0.19982q-0.14297 0.19809-0.14297 0.54777t0.14297 0.54949q0.1447 0.19809 0.39619 0.19809t0.39446-0.19809q0.1447-0.19981 0.1447-0.54949zm-1.0783-0.67352q0.0999-0.17225 0.25149-0.25493 0.15331-0.0844 0.36518-0.0844 0.3514 0 0.57017 0.27906 0.22048 0.27905 0.22048 0.7338t-0.22048 0.7338q-0.21877 0.27905-0.57017 0.27905-0.21187 0-0.36518-0.0827-0.15158-0.0844-0.25149-0.25666v0.28939h-0.31867v-2.6803h0.31867z" aria-label="8mb"/>
   <path d="m565.02 127.01v-0.31695q0.13091 0.062 0.26527 0.0947t0.26355 0.0327q0.34451 0 0.52537-0.23082 0.18259-0.23254 0.20843-0.70452-0.0999 0.14814-0.25321 0.22738-0.15331 0.0792-0.33934 0.0792-0.38585 0-0.61151-0.23254-0.22393-0.23427-0.22393-0.63906 0-0.39619 0.23427-0.63562 0.23426-0.23944 0.62356-0.23944 0.44614 0 0.6804 0.34279 0.23599 0.34106 0.23599 0.99219 0 0.60805-0.28939 0.97151-0.28766 0.36173-0.77514 0.36173-0.13091 0-0.26527-0.0258t-0.27905-0.0775zm0.69246-1.0904q0.23426 0 0.37035-0.16019 0.1378-0.1602 0.1378-0.43925 0-0.27733-0.1378-0.43753-0.13609-0.16192-0.37035-0.16192-0.23427 0-0.37207 0.16192-0.13608 0.1602-0.13608 0.43753 0 0.27905 0.13608 0.43925 0.1378 0.16019 0.37207 0.16019zm2.999-0.41513q0.11885-0.2136 0.28422-0.31523 0.16536-0.10163 0.38929-0.10163 0.30145 0 0.46509 0.21188 0.16364 0.21015 0.16364 0.59944v1.1644h-0.31867v-1.1541q0-0.27733-0.0982-0.41169t-0.29973-0.13436q-0.24632 0-0.38929 0.16364t-0.14297 0.44614v1.0904h-0.31867v-1.1541q0-0.27906-0.0982-0.41169-0.0982-0.13436-0.30317-0.13436-0.24288 0-0.38585 0.16536-0.14297 0.16365-0.14297 0.44442v1.0904h-0.31867v-1.9292h0.31867v0.29972q0.10852-0.17742 0.26011-0.26182 0.15158-0.0844 0.36001-0.0844 0.21015 0 0.35656 0.1068 0.14814 0.1068 0.21877 0.31006zm3.3193 0.596q0-0.34968-0.14469-0.54777-0.14297-0.19982-0.39447-0.19982-0.25149 0-0.39618 0.19982-0.14297 0.19809-0.14297 0.54777t0.14297 0.54949q0.14469 0.19809 0.39618 0.19809 0.2515 0 0.39447-0.19809 0.14469-0.19981 0.14469-0.54949zm-1.0783-0.67352q0.0999-0.17225 0.25149-0.25493 0.15331-0.0844 0.36518-0.0844 0.3514 0 0.57016 0.27906 0.22049 0.27905 0.22049 0.7338t-0.22049 0.7338q-0.21876 0.27905-0.57016 0.27905-0.21187 0-0.36518-0.0827-0.15158-0.0844-0.25149-0.25666v0.28939h-0.31867v-2.6803h0.31867z" aria-label="9mb"/>
  </g>
  <path d="m511.06 129.03s-31.102-29.813-111.26-29.813-130.56 5.3162-130.56 25.2" fill="none" marker-end="url(#Triangle)" stroke="#000" stroke-width="2.765"/>
 </g>
</svg>
