<?xml version="1.0" encoding="UTF-8"?>
<!-- Created with Inkscape (http://www.inkscape.org/) -->
<svg width="529.44mm" height="294.8mm" version="1.1" viewBox="0 0 529.44 294.8" xmlns="http://www.w3.org/2000/svg">
 <rect x="9.1553e-7" y="-1.188" width="529.44" height="294.8" fill="#e9ddaf" stop-color="#000000" stroke-width="7.9375"/>
 <path d="m87.94 49.946h26.796v34.111h-26.796z" fill="#aad400" stop-color="#000000" stroke="#fff" stroke-width="2"/>
 <path d="m101.34 59.239q-2.0806 0-3.1342 2.0539-1.0403 2.0405-1.0403 6.1483 0 4.0944 1.0403 6.1483 1.0536 2.0405 3.1342 2.0405 2.0939 0 3.1342-2.0405 1.0536-2.0539 1.0536-6.1483 0-4.1078-1.0536-6.1483-1.0403-2.0539-3.1342-2.0539zm0-2.1339q3.3476 0 5.108 2.654 1.7738 2.6407 1.7738 7.6821 0 5.028-1.7738 7.6821-1.7605 2.6407-5.108 2.6407-3.3476 0-5.1214-2.6407-1.7605-2.654-1.7605-7.6821 0-5.0414 1.7605-7.6821 1.7738-2.654 5.1214-2.654z" stroke-width=".68284" aria-label="0"/>
 <path d="m61.143 49.946h26.796v34.111h-26.796z" fill="#aad400" stop-color="#000000" stroke="#fff" stroke-width="2"/>
 <path d="m74.541 59.239q-2.0806 0-3.1342 2.0539-1.0403 2.0405-1.0403 6.1483 0 4.0944 1.0403 6.1483 1.0536 2.0405 3.1342 2.0405 2.0939 0 3.1342-2.0405 1.0536-2.0539 1.0536-6.1483 0-4.1078-1.0536-6.1483-1.0403-2.0539-3.1342-2.0539zm0-2.1339q3.3476 0 5.108 2.654 1.7738 2.6407 1.7738 7.6821 0 5.028-1.7738 7.6821-1.7605 2.6407-5.108 2.6407-3.3476 0-5.1214-2.6407-1.7605-2.654-1.7605-7.6821 0-5.0414 1.7605-7.6821 1.7738-2.654 5.1214-2.654z" stroke-width=".68284" aria-label="0"/>
 <path d="m34.347 49.946h26.796v34.111h-26.796z" fill="#f60" stop-color="#000000" stroke="#fff" stroke-width="2"/>
 <path d="m42.203 75.11h4.4012v-15.191l-4.788 0.96026v-2.454l4.7613-0.96026h2.6941v17.645h4.4012v2.2673h-11.47z" stroke-width=".68284" aria-label="1"/>
 <path d="m7.5498 49.946h26.796v34.111h-26.796z" fill="#aad400" stop-color="#000000" stroke="#fff" stroke-width="2"/>
 <path d="m20.948 59.239q-2.0806 0-3.1342 2.0539-1.0403 2.0405-1.0403 6.1483 0 4.0944 1.0403 6.1483 1.0536 2.0405 3.1342 2.0405 2.0939 0 3.1342-2.0405 1.0536-2.0539 1.0536-6.1483 0-4.1078-1.0536-6.1483-1.0403-2.0539-3.1342-2.0539zm0-2.1339q3.3476 0 5.108 2.654 1.7738 2.6407 1.7738 7.6821 0 5.028-1.7738 7.6821-1.7605 2.6407-5.108 2.6407t-5.1214-2.6407q-1.7605-2.654-1.7605-7.6821 0-5.0414 1.7605-7.6821 1.7738-2.654 5.1214-2.654z" stroke-width=".68284" aria-label="0"/>
 <path d="m114.74 49.946h26.796v34.111h-26.796z" fill="#2ad4ff" stop-color="#000000" stroke="#fff" stroke-width="2"/>
 <path d="m123.34 74.917h4.4012v-15.191l-4.788 0.96026v-2.454l4.7613-0.96026h2.694v17.645h4.4012v2.2673h-11.47z" stroke-width=".68284" aria-label="1"/>
 <path d="m141.53 49.946h26.796v34.111h-26.796z" fill="#3737c8" stop-color="#000000" stroke="#fff" stroke-width="2"/>
 <path d="m150.14 74.917h4.4012v-15.191l-4.788 0.96026v-2.454l4.7613-0.96026h2.6941v17.645h4.4012v2.2673h-11.47z" fill="#fff" stroke-width=".68284" aria-label="1"/>
 <path d="m168.33 49.946h26.796v34.111h-26.796z" fill="#d4aa00" stop-color="#000000" stroke="#fff" stroke-width="2"/>
 <path d="m176.93 74.917h4.4012v-15.191l-4.788 0.96026v-2.454l4.7613-0.96026h2.6941v17.645h4.4012v2.2673h-11.47z" stroke-width=".68284" aria-label="1"/>
 <path d="m195.12 49.946h26.796v34.111h-26.796z" fill="#aad400" stop-color="#000000" stroke="#fff" stroke-width="2"/>
 <path d="m209.02 59.046q-2.0806 0-3.1342 2.0539-1.0403 2.0405-1.0403 6.1483 0 4.0944 1.0403 6.1483 1.0536 2.0405 3.1342 2.0405 2.0939 0 3.1342-2.0405 1.0536-2.0539 1.0536-6.1483 0-4.1078-1.0536-6.1483-1.0403-2.0539-3.1342-2.0539zm0-2.1339q3.3476 0 5.108 2.654 1.7738 2.6407 1.7738 7.6821 0 5.028-1.7738 7.6821-1.7605 2.6407-5.108 2.6407-3.3476 0-5.1214-2.6407-1.7605-2.654-1.7605-7.6821 0-5.0414 1.7605-7.6821 1.7738-2.654 5.1214-2.654z" stroke-width=".68284" aria-label="0"/>
 <path d="m221.92 49.946h26.796v34.111h-26.796z" fill="#aad400" stop-color="#000000" stroke="#fff" stroke-width="2"/>
 <path d="m235.82 59.046q-2.0806 0-3.1342 2.0539-1.0403 2.0405-1.0403 6.1483 0 4.0944 1.0403 6.1483 1.0536 2.0405 3.1342 2.0405 2.0939 0 3.1342-2.0405 1.0536-2.0539 1.0536-6.1483 0-4.1078-1.0536-6.1483-1.0403-2.0539-3.1342-2.0539zm0-2.1339q3.3476 0 5.108 2.654 1.7738 2.6407 1.7738 7.6821 0 5.028-1.7738 7.6821-1.7605 2.6407-5.108 2.6407-3.3476 0-5.1214-2.6407-1.7605-2.654-1.7605-7.6821 0-5.0414 1.7605-7.6821 1.7738-2.654 5.1214-2.654z" stroke-width=".68284" aria-label="0"/>
 <path d="m248.72 49.946h26.796v34.111h-26.796z" fill="#aad400" stop-color="#000000" stroke="#fff" stroke-width="2"/>
 <path d="m262.62 59.046q-2.0806 0-3.1342 2.0539-1.0403 2.0405-1.0403 6.1483 0 4.0944 1.0403 6.1483 1.0536 2.0405 3.1342 2.0405 2.0939 0 3.1342-2.0405 1.0536-2.0539 1.0536-6.1483 0-4.1078-1.0536-6.1483-1.0403-2.0539-3.1342-2.0539zm0-2.1339q3.3476 0 5.108 2.654 1.7738 2.6407 1.7738 7.6821 0 5.028-1.7738 7.6821-1.7605 2.6407-5.108 2.6407t-5.1214-2.6407q-1.7605-2.654-1.7605-7.6821 0-5.0414 1.7605-7.6821 1.7738-2.654 5.1214-2.654z" stroke-width=".68284" aria-label="0"/>
 <path d="m275.51 49.946h26.796v34.111h-26.796z" fill="#7c916f" stop-color="#000000" stroke="#fff" stroke-width="2"/>
 <path d="m284.12 74.917h4.4012v-15.191l-4.788 0.96026v-2.454l4.7613-0.96026h2.6941v17.645h4.4012v2.2673h-11.47z" stroke-width=".68284" aria-label="1"/>
 <path d="m302.31 49.946h26.796v34.111h-26.796z" fill="#aad400" stop-color="#000000" stroke="#fff" stroke-width="2"/>
 <path d="m316.21 59.046q-2.0806 0-3.1342 2.0539-1.0403 2.0405-1.0403 6.1483 0 4.0944 1.0403 6.1483 1.0536 2.0405 3.1342 2.0405 2.0939 0 3.1342-2.0405 1.0536-2.0539 1.0536-6.1483 0-4.1078-1.0536-6.1483-1.0403-2.0539-3.1342-2.0539zm0-2.1339q3.3476 0 5.108 2.654 1.7738 2.6407 1.7738 7.6821 0 5.028-1.7738 7.6821-1.7605 2.6407-5.108 2.6407-3.3476 0-5.1214-2.6407-1.7605-2.654-1.7605-7.6821 0-5.0414 1.7605-7.6821 1.7738-2.654 5.1214-2.654z" stroke-width=".68284" aria-label="0"/>
 <path d="m329.11 49.946h26.796v34.111h-26.796z" fill="#aad400" stop-color="#000000" stroke="#fff" stroke-width="2"/>
 <path d="m343 59.046q-2.0806 0-3.1342 2.0539-1.0403 2.0405-1.0403 6.1483 0 4.0944 1.0403 6.1483 1.0536 2.0405 3.1342 2.0405 2.0939 0 3.1342-2.0405 1.0536-2.0539 1.0536-6.1483 0-4.1078-1.0536-6.1483-1.0403-2.0539-3.1342-2.0539zm0-2.1339q3.3476 0 5.108 2.654 1.7738 2.6407 1.7738 7.6821 0 5.028-1.7738 7.6821-1.7605 2.6407-5.108 2.6407-3.3476 0-5.1214-2.6407-1.7605-2.654-1.7605-7.6821 0-5.0414 1.7605-7.6821 1.7738-2.654 5.1214-2.654z" stroke-width=".68284" aria-label="0"/>
 <path d="m355.9 49.946h26.796v34.111h-26.796z" fill="#aad400" stop-color="#000000" stroke="#fff" stroke-width="2"/>
 <path d="m369.8 59.046q-2.0806 0-3.1342 2.0539-1.0403 2.0405-1.0403 6.1483 0 4.0944 1.0403 6.1483 1.0536 2.0405 3.1342 2.0405 2.0939 0 3.1342-2.0405 1.0536-2.0539 1.0536-6.1483 0-4.1078-1.0536-6.1483-1.0403-2.0539-3.1342-2.0539zm0-2.1339q3.3476 0 5.108 2.654 1.7738 2.6407 1.7738 7.6821 0 5.028-1.7738 7.6821-1.7605 2.6407-5.108 2.6407-3.3476 0-5.1214-2.6407-1.7605-2.654-1.7605-7.6821 0-5.0414 1.7605-7.6821 1.7738-2.654 5.1214-2.654z" stroke-width=".68284" aria-label="0"/>
 <path d="m382.7 49.946h26.796v34.111h-26.796z" fill="#aad400" stop-color="#000000" stroke="#fff" stroke-width="2"/>
 <path d="m396.6 59.046q-2.0806 0-3.1342 2.0539-1.0403 2.0405-1.0403 6.1483 0 4.0944 1.0403 6.1483 1.0536 2.0405 3.1342 2.0405 2.0939 0 3.1342-2.0405 1.0536-2.0539 1.0536-6.1483 0-4.1078-1.0536-6.1483-1.0403-2.0539-3.1342-2.0539zm0-2.1339q3.3476 0 5.108 2.654 1.7738 2.6407 1.7738 7.6821 0 5.028-1.7738 7.6821-1.7605 2.6407-5.108 2.6407-3.3476 0-5.1214-2.6407-1.7605-2.654-1.7605-7.6821 0-5.0414 1.7605-7.6821 1.7738-2.654 5.1214-2.654z" stroke-width=".68284" aria-label="0"/>
 <path d="m409.49 49.946h26.796v34.111h-26.796z" fill="#aad400" stop-color="#000000" stroke="#fff" stroke-width="2"/>
 <path d="m423.39 59.046q-2.0806 0-3.1342 2.0539-1.0403 2.0405-1.0403 6.1483 0 4.0944 1.0403 6.1483 1.0536 2.0405 3.1342 2.0405 2.0939 0 3.1342-2.0405 1.0536-2.0539 1.0536-6.1483 0-4.1078-1.0536-6.1483-1.0403-2.0539-3.1342-2.0539zm0-2.1339q3.3476 0 5.108 2.654 1.7738 2.6407 1.7738 7.6821 0 5.028-1.7738 7.6821-1.7605 2.6407-5.108 2.6407t-5.1214-2.6407q-1.7605-2.654-1.7605-7.6821 0-5.0414 1.7605-7.6821 1.7738-2.654 5.1214-2.654z" stroke-width=".68284" aria-label="0"/>
 <path d="m87.94 181.84h26.796v34.111h-26.796z" fill="#aad400" stop-color="#000000" stroke="#fff" stroke-width="2"/>
 <path d="m101.34 191.13q-2.0806 0-3.1342 2.0539-1.0403 2.0406-1.0403 6.1483 0 4.0944 1.0403 6.1483 1.0536 2.0406 3.1342 2.0406 2.0939 0 3.1342-2.0406 1.0536-2.0539 1.0536-6.1483 0-4.1078-1.0536-6.1483-1.0403-2.0539-3.1342-2.0539zm0-2.1339q3.3476 0 5.108 2.654 1.7738 2.6407 1.7738 7.6821 0 5.028-1.7738 7.6821-1.7605 2.6407-5.108 2.6407-3.3476 0-5.1214-2.6407-1.7605-2.654-1.7605-7.6821 0-5.0414 1.7605-7.6821 1.7738-2.654 5.1214-2.654z" stroke-width=".68284" aria-label="0"/>
 <path d="m61.143 181.84h26.796v34.111h-26.796z" fill="#aad400" stop-color="#000000" stroke="#fff" stroke-width="2"/>
 <path d="m74.541 191.13q-2.0806 0-3.1342 2.0539-1.0403 2.0406-1.0403 6.1483 0 4.0944 1.0403 6.1483 1.0536 2.0406 3.1342 2.0406 2.0939 0 3.1342-2.0406 1.0536-2.0539 1.0536-6.1483 0-4.1078-1.0536-6.1483-1.0403-2.0539-3.1342-2.0539zm0-2.1339q3.3476 0 5.108 2.654 1.7738 2.6407 1.7738 7.6821 0 5.028-1.7738 7.6821-1.7605 2.6407-5.108 2.6407-3.3476 0-5.1214-2.6407-1.7605-2.654-1.7605-7.6821 0-5.0414 1.7605-7.6821 1.7738-2.654 5.1214-2.654z" stroke-width=".68284" aria-label="0"/>
 <path d="m34.347 181.84h26.796v34.111h-26.796z" fill="#aad400" stop-color="#000000" stroke="#fff" stroke-width="2"/>
 <path d="m47.498 191.13q-2.0806 0-3.1342 2.0539-1.0403 2.0406-1.0403 6.1483 0 4.0944 1.0403 6.1483 1.0536 2.0406 3.1342 2.0406 2.0939 0 3.1342-2.0406 1.0536-2.0539 1.0536-6.1483 0-4.1078-1.0536-6.1483-1.0403-2.0539-3.1342-2.0539zm0-2.1339q3.3476 0 5.108 2.654 1.7738 2.6407 1.7738 7.6821 0 5.028-1.7738 7.6821-1.7605 2.6407-5.108 2.6407-3.3476 0-5.1214-2.6407-1.7605-2.654-1.7605-7.6821 0-5.0414 1.7605-7.6821 1.7738-2.654 5.1214-2.654z" stroke-width=".68284" aria-label="0"/>
 <path d="m7.5498 181.84h26.796v34.111h-26.796z" fill="#aad400" stop-color="#000000" stroke="#fff" stroke-width="2"/>
 <path d="m20.948 191.13q-2.0806 0-3.1342 2.0539-1.0403 2.0406-1.0403 6.1483 0 4.0944 1.0403 6.1483 1.0536 2.0406 3.1342 2.0406 2.0939 0 3.1342-2.0406 1.0536-2.0539 1.0536-6.1483 0-4.1078-1.0536-6.1483-1.0403-2.0539-3.1342-2.0539zm0-2.1339q3.3476 0 5.108 2.654 1.7738 2.6407 1.7738 7.6821 0 5.028-1.7738 7.6821-1.7605 2.6407-5.108 2.6407t-5.1214-2.6407q-1.7605-2.654-1.7605-7.6821 0-5.0414 1.7605-7.6821 1.7738-2.654 5.1214-2.654z" stroke-width=".68284" aria-label="0"/>
 <path d="m114.74 181.84h26.796v34.111h-26.796z" fill="#d4aa00" stop-color="#000000" stroke="#fff" stroke-width="2"/>
 <path d="m123.34 206.81h4.4012v-15.191l-4.788 0.96026v-2.454l4.7613-0.96025h2.6941v17.645h4.4012v2.2673h-11.47z" stroke-width=".68284" aria-label="1"/>
 <path d="m141.53 181.84h26.796v34.111h-26.796z" fill="#aad400" stop-color="#000000" stroke="#fff" stroke-width="2"/>
 <path d="m155.43 190.93q-2.0806 0-3.1342 2.0539-1.0403 2.0406-1.0403 6.1483 0 4.0944 1.0403 6.1483 1.0536 2.0406 3.1342 2.0406 2.0939 0 3.1342-2.0406 1.0536-2.0539 1.0536-6.1483 0-4.1078-1.0536-6.1483-1.0403-2.0539-3.1342-2.0539zm0-2.1339q3.3476 0 5.108 2.654 1.7738 2.6407 1.7738 7.6821 0 5.028-1.7738 7.6821-1.7605 2.6407-5.108 2.6407-3.3476 0-5.1214-2.6407-1.7605-2.654-1.7605-7.6821 0-5.0414 1.7605-7.6821 1.7738-2.654 5.1214-2.654z" stroke-width=".68284" aria-label="0"/>
 <path d="m168.33 181.84h26.796v34.111h-26.796z" fill="#7c916f" stop-color="#000000" stroke="#fff" stroke-width="2"/>
 <path d="m176.93 206.81h4.4012v-15.191l-4.788 0.96026v-2.454l4.7613-0.96025h2.694v17.645h4.4012v2.2673h-11.47z" stroke-width=".68284" aria-label="1"/>
 <path d="m195.12 181.84h26.796v34.111h-26.796z" fill="#aad400" stop-color="#000000" stroke="#fff" stroke-width="2"/>
 <path d="m209.02 190.93q-2.0806 0-3.1342 2.0539-1.0403 2.0406-1.0403 6.1483 0 4.0944 1.0403 6.1483 1.0536 2.0406 3.1342 2.0406 2.0939 0 3.1342-2.0406 1.0536-2.0539 1.0536-6.1483 0-4.1078-1.0536-6.1483-1.0403-2.0539-3.1342-2.0539zm0-2.1339q3.3476 0 5.108 2.654 1.7738 2.6407 1.7738 7.6821 0 5.028-1.7738 7.6821-1.7605 2.6407-5.108 2.6407-3.3476 0-5.1214-2.6407-1.7605-2.654-1.7605-7.6821 0-5.0414 1.7605-7.6821 1.7738-2.654 5.1214-2.654z" stroke-width=".68284" aria-label="0"/>
 <path d="m221.92 181.84h26.796v34.111h-26.796z" fill="#aad400" stop-color="#000000" stroke="#fff" stroke-width="2"/>
 <path d="m235.82 190.93q-2.0806 0-3.1342 2.0539-1.0403 2.0406-1.0403 6.1483 0 4.0944 1.0403 6.1483 1.0536 2.0406 3.1342 2.0406 2.0939 0 3.1342-2.0406 1.0536-2.0539 1.0536-6.1483 0-4.1078-1.0536-6.1483-1.0403-2.0539-3.1342-2.0539zm0-2.1339q3.3476 0 5.108 2.654 1.7738 2.6407 1.7738 7.6821 0 5.028-1.7738 7.6821-1.7605 2.6407-5.108 2.6407-3.3476 0-5.1214-2.6407-1.7605-2.654-1.7605-7.6821 0-5.0414 1.7605-7.6821 1.7738-2.654 5.1214-2.654z" stroke-width=".68284" aria-label="0"/>
 <path d="m248.72 181.84h26.796v34.111h-26.796z" fill="#aad400" stop-color="#000000" stroke="#fff" stroke-width="2"/>
 <path d="m262.62 190.93q-2.0806 0-3.1342 2.0539-1.0403 2.0406-1.0403 6.1483 0 4.0944 1.0403 6.1483 1.0536 2.0406 3.1342 2.0406 2.0939 0 3.1342-2.0406 1.0536-2.0539 1.0536-6.1483 0-4.1078-1.0536-6.1483-1.0403-2.0539-3.1342-2.0539zm0-2.1339q3.3476 0 5.108 2.654 1.7738 2.6407 1.7738 7.6821 0 5.028-1.7738 7.6821-1.7605 2.6407-5.108 2.6407t-5.1214-2.6407q-1.7605-2.654-1.7605-7.6821 0-5.0414 1.7605-7.6821 1.7738-2.654 5.1214-2.654z" stroke-width=".68284" aria-label="0"/>
 <path d="m275.51 181.84h26.796v34.111h-26.796z" fill="#aad400" stop-color="#000000" stroke="#fff" stroke-width="2"/>
 <path d="m289.41 190.93q-2.0806 0-3.1342 2.0539-1.0403 2.0406-1.0403 6.1483 0 4.0944 1.0403 6.1483 1.0536 2.0406 3.1342 2.0406 2.0939 0 3.1342-2.0406 1.0536-2.0539 1.0536-6.1483 0-4.1078-1.0536-6.1483-1.0403-2.0539-3.1342-2.0539zm0-2.1339q3.3476 0 5.108 2.654 1.7738 2.6407 1.7738 7.6821 0 5.028-1.7738 7.6821-1.7605 2.6407-5.108 2.6407-3.3476 0-5.1214-2.6407-1.7605-2.654-1.7605-7.6821 0-5.0414 1.7605-7.6821 1.7738-2.654 5.1214-2.654z" stroke-width=".68284" aria-label="0"/>
 <path d="m302.31 181.84h26.796v34.111h-26.796z" fill="#f60" stop-color="#000000" stroke="#fff" stroke-width="2"/>
 <path d="m310.91 206.81h4.4012v-15.191l-4.788 0.96026v-2.454l4.7613-0.96025h2.694v17.645h4.4012v2.2673h-11.47z" stroke-width=".68284" aria-label="1"/>
 <path d="m329.11 181.84h26.796v34.111h-26.796z" fill="#3737c8" stop-color="#000000" stroke="#fff" stroke-width="2"/>
 <path d="m337.71 206.81h4.4012v-15.191l-4.788 0.96026v-2.454l4.7613-0.96025h2.6941v17.645h4.4012v2.2673h-11.47z" fill="#fff" stroke-width=".68284" aria-label="1"/>
 <path d="m355.9 181.84h26.796v34.111h-26.796z" fill="#2ad4ff" stop-color="#000000" stroke="#fff" stroke-width="2"/>
 <path d="m364.51 206.81h4.4012v-15.191l-4.788 0.96026v-2.454l4.7613-0.96025h2.694v17.645h4.4012v2.2673h-11.47z" stroke-width=".68284" aria-label="1"/>
 <path d="m382.7 181.84h26.796v34.111h-26.796z" fill="#aad400" stop-color="#000000" stroke="#fff" stroke-width="2"/>
 <path d="m396.6 190.93q-2.0806 0-3.1342 2.0539-1.0403 2.0406-1.0403 6.1483 0 4.0944 1.0403 6.1483 1.0536 2.0406 3.1342 2.0406 2.0939 0 3.1342-2.0406 1.0536-2.0539 1.0536-6.1483 0-4.1078-1.0536-6.1483-1.0403-2.0539-3.1342-2.0539zm0-2.1339q3.3476 0 5.108 2.654 1.7738 2.6407 1.7738 7.6821 0 5.028-1.7738 7.6821-1.7605 2.6407-5.108 2.6407-3.3476 0-5.1214-2.6407-1.7605-2.654-1.7605-7.6821 0-5.0414 1.7605-7.6821 1.7738-2.654 5.1214-2.654z" stroke-width=".68284" aria-label="0"/>
 <path d="m409.49 181.84h26.796v34.111h-26.796z" fill="#aad400" stop-color="#000000" stroke="#fff" stroke-width="2"/>
 <path d="m423.39 190.93q-2.0806 0-3.1342 2.0539-1.0403 2.0406-1.0403 6.1483 0 4.0944 1.0403 6.1483 1.0536 2.0406 3.1342 2.0406 2.0939 0 3.1342-2.0406 1.0536-2.0539 1.0536-6.1483 0-4.1078-1.0536-6.1483-1.0403-2.0539-3.1342-2.0539zm0-2.1339q3.3476 0 5.108 2.654 1.7738 2.6407 1.7738 7.6821 0 5.028-1.7738 7.6821-1.7605 2.6407-5.108 2.6407t-5.1214-2.6407q-1.7605-2.654-1.7605-7.6821 0-5.0414 1.7605-7.6821 1.7738-2.654 5.1214-2.654z" stroke-width=".68284" aria-label="0"/>
 <path d="m441.47 64.161h10.6v1.943h-10.6zm0 3.762h10.6v1.9596h-10.6zm23.168 2.0588h5.4322v2.3399h-8.971v-2.3399l4.5062-3.977q0.60358-0.5457 0.89297-1.0666t0.28939-1.0831q0-0.86816-0.58704-1.3973-0.57878-0.52917-1.5462-0.52917-0.74414 0-1.6288 0.32246-0.8847 0.31419-1.8934 0.94258v-2.712q1.0749-0.35553 2.1249-0.53743 1.0501-0.19017 2.0588-0.19017 2.2159 0 3.4396 0.97565 1.232 0.97565 1.232 2.7202 0 1.0087-0.5209 1.8852-0.5209 0.86816-2.1911 2.3316zm14.693-3.8447q0-2.3151-0.43822-3.2577-0.42994-0.95084-1.4552-0.95084t-1.4635 0.95084q-0.43821 0.94258-0.43821 3.2577 0 2.3399 0.43821 3.299 0.43822 0.95911 1.4635 0.95911 1.017 0 1.4552-0.95911 0.43822-0.95911 0.43822-3.299zm3.1833 0.02481q0 3.0675-1.3229 4.7377-1.3229 1.6619-3.7538 1.6619-2.4391 0-3.762-1.6619-1.3229-1.6702-1.3229-4.7377 0-3.0758 1.3229-4.7377 1.3229-1.6702 3.762-1.6702 2.4308 0 3.7538 1.6702 1.3229 1.6619 1.3229 4.7377zm2.5383 2.96h2.9766v2.5218l-2.0422 3.084h-1.7611l0.82682-3.084zm12.493-2.9848q0-2.3151-0.43821-3.2577-0.42995-0.95084-1.4552-0.95084t-1.4635 0.95084q-0.43822 0.94258-0.43822 3.2577 0 2.3399 0.43822 3.299 0.43821 0.95911 1.4635 0.95911 1.017 0 1.4552-0.95911 0.43821-0.95911 0.43821-3.299zm3.1833 0.02481q0 3.0675-1.3229 4.7377-1.3229 1.6619-3.7538 1.6619-2.4391 0-3.762-1.6619-1.3229-1.6702-1.3229-4.7377 0-3.0758 1.3229-4.7377 1.3229-1.6702 3.762-1.6702 2.4309 0 3.7538 1.6702 1.3229 1.6619 1.3229 4.7377zm8.599-0.02481q0-2.3151-0.43822-3.2577-0.42995-0.95084-1.4552-0.95084-1.0252 0-1.4635 0.95084-0.43821 0.94258-0.43821 3.2577 0 2.3399 0.43821 3.299 0.43822 0.95911 1.4635 0.95911 1.017 0 1.4552-0.95911t0.43822-3.299zm3.1833 0.02481q0 3.0675-1.3229 4.7377-1.3229 1.6619-3.7538 1.6619-2.4391 0-3.762-1.6619-1.3229-1.6702-1.3229-4.7377 0-3.0758 1.3229-4.7377 1.3229-1.6702 3.762-1.6702 2.4309 0 3.7538 1.6702 1.3229 1.6619 1.3229 4.7377zm8.5989-0.02481q0-2.3151-0.43822-3.2577-0.42994-0.95084-1.4552-0.95084t-1.4635 0.95084q-0.43821 0.94258-0.43821 3.2577 0 2.3399 0.43821 3.299 0.43822 0.95911 1.4635 0.95911 1.017 0 1.4552-0.95911 0.43822-0.95911 0.43822-3.299zm3.1833 0.02481q0 3.0675-1.3229 4.7377-1.3229 1.6619-3.7538 1.6619-2.4391 0-3.762-1.6619-1.3229-1.6702-1.3229-4.7377 0-3.0758 1.3229-4.7377 1.3229-1.6702 3.762-1.6702 2.4308 0 3.7538 1.6702 1.3229 1.6619 1.3229 4.7377z" stroke-width=".26458" aria-label="= 20,000"/>
 <path d="m441.47 197.13h10.6v1.943h-10.6zm0 3.762h10.6v1.9596h-10.6zm23.168 2.0588h5.4322v2.3399h-8.971v-2.3399l4.5062-3.977q0.60358-0.54571 0.89297-1.0666 0.28939-0.5209 0.28939-1.0831 0-0.86816-0.58705-1.3973-0.57877-0.52916-1.5462-0.52916-0.74414 0-1.6288 0.32246-0.8847 0.31419-1.8934 0.94257v-2.712q1.0749-0.35553 2.1249-0.53743 1.0501-0.19017 2.0588-0.19017 2.2159 0 3.4396 0.97565 1.232 0.97564 1.232 2.7202 0 1.0087-0.5209 1.8852-0.5209 0.86816-2.1911 2.3316zm8.632-0.8599h2.9766v2.5218l-2.0422 3.084h-1.7611l0.82683-3.084zm6.4988-9.1446h7.9127v2.3399h-5.3743v1.91q0.3638-0.0992 0.72761-0.14883 0.37207-0.0579 0.76894-0.0579 2.2572 0 3.514 1.1328 1.2568 1.1245 1.2568 3.1419 0 2.0009-1.3725 3.1336-1.3643 1.1328-3.7951 1.1328-1.0501 0-2.0836-0.20671-1.0253-0.19843-2.0422-0.61184v-2.5053q1.0087 0.57877 1.91 0.86816 0.90951 0.28939 1.7115 0.28939 1.1576 0 1.819-0.56224 0.66973-0.57051 0.66973-1.5379 0-0.97565-0.66973-1.5379-0.66146-0.56224-1.819-0.56224-0.68626 0-1.4635 0.18191-0.77721 0.17363-1.6702 0.5457zm15.883 6.8213q-0.89297 0-1.3725 0.48783-0.47956 0.48782-0.47956 1.3973 0 0.9095 0.47956 1.3973 0.47955 0.47956 1.3725 0.47956 0.8847 0 1.356-0.47956 0.47128-0.48782 0.47128-1.3973 0-0.91778-0.47128-1.3973-0.47129-0.48783-1.356-0.48783zm-2.3234-1.0501q-1.1245-0.339-1.695-1.0418-0.57051-0.7028-0.57051-1.7529 0-1.5627 1.1658-2.3812t3.423-0.81855q2.2407 0 3.4065 0.81855 1.1658 0.81028 1.1658 2.3812 0 1.0501-0.57877 1.7529-0.57051 0.70279-1.695 1.0418 1.2568 0.34727 1.8934 1.1328 0.64492 0.77721 0.64492 1.9678 0 1.8355-1.2237 2.7781-1.2154 0.93431-3.6132 0.93431-2.406 0-3.638-0.93431-1.2237-0.94258-1.2237-2.7781 0-1.1906 0.63665-1.9678 0.64492-0.78548 1.9017-1.1328zm0.74414-2.4722q0 0.73587 0.40514 1.1327 0.41341 0.39687 1.1741 0.39687 0.74414 0 1.1493-0.39687t0.40514-1.1327q0-0.73588-0.40514-1.1245-0.40514-0.39688-1.1493-0.39688-0.76068 0-1.1741 0.39688-0.40514 0.39687-0.40514 1.1245zm13.361 3.5222q-0.89296 0-1.3725 0.48783-0.47956 0.48782-0.47956 1.3973 0 0.9095 0.47956 1.3973 0.47956 0.47956 1.3725 0.47956 0.8847 0 1.356-0.47956 0.47129-0.48782 0.47129-1.3973 0-0.91778-0.47129-1.3973-0.47129-0.48783-1.356-0.48783zm-2.3234-1.0501q-1.1245-0.339-1.695-1.0418-0.57051-0.7028-0.57051-1.7529 0-1.5627 1.1658-2.3812t3.423-0.81855q2.2407 0 3.4065 0.81855 1.1658 0.81028 1.1658 2.3812 0 1.0501-0.57877 1.7529-0.57051 0.70279-1.695 1.0418 1.2568 0.34727 1.8934 1.1328 0.64492 0.77721 0.64492 1.9678 0 1.8355-1.2237 2.7781-1.2154 0.93431-3.6132 0.93431-2.406 0-3.638-0.93431-1.2237-0.94258-1.2237-2.7781 0-1.1906 0.63666-1.9678 0.64492-0.78548 1.9017-1.1328zm0.74413-2.4722q0 0.73587 0.40515 1.1327 0.41341 0.39687 1.1741 0.39687 0.74414 0 1.1493-0.39687 0.40515-0.39687 0.40515-1.1327 0-0.73588-0.40515-1.1245-0.40514-0.39688-1.1493-0.39688-0.76067 0-1.1741 0.39688-0.40515 0.39687-0.40515 1.1245z" stroke-width=".26458" aria-label="= 2,588"/>
 <g fill="none" stroke-width="1.665">
  <path d="m315.71 181.84v-44.821h-268.08v-52.958" stroke="#f60"/>
  <g>
   <path d="m128.13 84.057v42.259h243.22v55.52" stop-color="#000000" stroke="#2ad4ff" style="-inkscape-stroke:none;font-variation-settings:normal"/>
   <path d="m154.93 84.057v69.869h189.16v27.91" stop-color="#000000" stroke="#3737c8" style="-inkscape-stroke:none;font-variation-settings:normal"/>
   <path d="m128.13 181.84v-13.069h53.747v-84.709" stop-color="#000000" stroke="#d4aa00" style="-inkscape-stroke:none;font-variation-settings:normal"/>
   <path d="m181.73 181.84v-6.8587h107.46v-90.92" stop-color="#000000" stroke="#7c916f" style="-inkscape-stroke:none;font-variation-settings:normal"/>
  </g>
 </g>
</svg>
