<?xml version="1.0" encoding="UTF-8"?>
<!-- Created with Inkscape (http://www.inkscape.org/) -->
<svg width="256.67mm" height="111.59mm" version="1.1" viewBox="0 0 256.67 111.59" xmlns="http://www.w3.org/2000/svg">
 <rect transform="scale(1,-1)" y="-112.26" width="257.01" height="112.26" fill="#fff" stop-color="#000000" stroke-width="1.5875"/>
 <g stroke-width=".26458" aria-label="score = (baseChips+cardValue) * mult  s = (b+c) * m  s = (5+2) * 1  s = 7  ">
  <path d="m36.883 14.461v0.83922q-0.3762-0.19292-0.78135-0.28939-0.40514-0.09646-0.83923-0.09646-0.66077 0-0.99357 0.20257-0.32797 0.20257-0.32797 0.60772 0 0.30868 0.23633 0.48714 0.23633 0.17363 0.95016 0.3328l0.30386 0.06752q0.94533 0.20257 1.3408 0.57395 0.40032 0.36656 0.40032 1.0273 0 0.75241-0.59807 1.1913-0.59325 0.4389-1.635 0.4389-0.43408 0-0.90675-0.08682-0.46784-0.08199-0.98874-0.2508v-0.91639q0.49196 0.25563 0.96945 0.38585 0.47749 0.1254 0.94534 0.1254 0.62701 0 0.96463-0.21222 0.33762-0.21704 0.33762-0.60772 0-0.36174-0.24598-0.55466-0.24116-0.19293-1.0659-0.37138l-0.30868-0.07235q-0.82476-0.17363-1.1913-0.53054-0.36656-0.36174-0.36656-0.98874 0-0.76206 0.54019-1.1768t1.5338-0.41479q0.49196 0 0.92604 0.07235t0.80064 0.21704z"/>
  <path d="m42.473 14.509v0.82958q-0.3762-0.2074-0.75723-0.30868-0.3762-0.10611-0.76206-0.10611-0.86334 0-1.3408 0.54984-0.47749 0.54501-0.47749 1.5338 0 0.98874 0.47749 1.5386 0.47749 0.54501 1.3408 0.54501 0.38585 0 0.76206-0.10129 0.38103-0.10611 0.75723-0.3135v0.81993q-0.37138 0.17363-0.7717 0.26045-0.3955 0.08682-0.84405 0.08682-1.2203 0-1.9389-0.76688-0.71865-0.76688-0.71865-2.0691 0-1.3215 0.72347-2.0788 0.72829-0.75723 1.992-0.75723 0.40997 0 0.80064 0.08682 0.39067 0.08199 0.75723 0.2508z"/>
  <path d="m46.11 14.924q-0.71382 0-1.1286 0.55948-0.41479 0.55466-0.41479 1.5241t0.40997 1.5289q0.41479 0.55466 1.1334 0.55466 0.709 0 1.1238-0.55948 0.41479-0.55948 0.41479-1.5241 0-0.9598-0.41479-1.5193-0.41479-0.56431-1.1238-0.56431zm0-0.75241q1.1576 0 1.8183 0.75241 0.66077 0.75241 0.66077 2.0836 0 1.3264-0.66077 2.0836-0.66077 0.75241-1.8183 0.75241-1.1624 0-1.8231-0.75241-0.65595-0.75723-0.65595-2.0836 0-1.3312 0.65595-2.0836 0.66077-0.75241 1.8231-0.75241z"/>
  <path d="m53.19 15.131q-0.14952-0.08682-0.32797-0.1254-0.17363-0.04341-0.38585-0.04341-0.75241 0-1.1576 0.49196-0.40032 0.48714-0.40032 1.4035v2.8456h-0.89228v-5.4019h0.89228v0.83923q0.27974-0.49196 0.72829-0.72829 0.44855-0.24116 1.09-0.24116 0.09164 0 0.20257 0.01447 0.11093 0.0096 0.24598 0.03376z"/>
  <path d="m58.524 16.781v0.43408h-4.0804q0.05788 0.9164 0.54984 1.3987 0.49678 0.47749 1.3794 0.47749 0.51125 0 0.98874-0.1254 0.48231-0.1254 0.95498-0.3762v0.83922q-0.47749 0.20257-0.9791 0.30868t-1.0177 0.10611q-1.2926 0-2.0498-0.75241-0.75241-0.75241-0.75241-2.0354 0-1.3264 0.71382-2.1029 0.71865-0.78135 1.9341-0.78135 1.09 0 1.7219 0.70418 0.63665 0.69936 0.63665 1.9051zm-0.88746-0.26045q-0.0096-0.72829-0.40997-1.1624-0.3955-0.43408-1.0514-0.43408-0.74276 0-1.1913 0.41961-0.44373 0.41961-0.51125 1.1817z"/>
  <path d="m63.237 15.218h6.1833v0.81029h-6.1833zm0 1.9678h6.1833v0.81993h-6.1833z"/>
  <path d="m76.669 12.208q-0.6463 1.1093-0.9598 2.1945t-0.3135 2.1993 0.3135 2.209q0.31833 1.09 0.9598 2.1945h-0.7717q-0.72347-1.1334-1.0852-2.2283-0.35691-1.0949-0.35691-2.1752 0-1.0756 0.35691-2.1656 0.35691-1.09 1.0852-2.2283z"/>
  <path d="m82.269 17.007q0-0.9791-0.40514-1.5338-0.40032-0.55948-1.1045-0.55948-0.70418 0-1.1093 0.55948-0.40032 0.55466-0.40032 1.5338 0 0.9791 0.40032 1.5386 0.40514 0.55466 1.1093 0.55466 0.70418 0 1.1045-0.55466 0.40514-0.55948 0.40514-1.5386zm-3.0193-1.8858q0.27974-0.48231 0.70418-0.71382 0.42926-0.23633 1.0225-0.23633 0.98392 0 1.5965 0.78135 0.61736 0.78135 0.61736 2.0547 0 1.2733-0.61736 2.0547-0.61254 0.78135-1.5965 0.78135-0.59325 0-1.0225-0.23151-0.42444-0.23633-0.70418-0.71865v0.81029h-0.89228v-7.5048h0.89228z"/>
  <path d="m87.116 16.988q-1.0756 0-1.4903 0.24598-0.41479 0.24598-0.41479 0.83922 0 0.47267 0.30868 0.75241 0.3135 0.27492 0.84887 0.27492 0.73794 0 1.1817-0.5209 0.44855-0.52572 0.44855-1.3939v-0.19775zm1.7701-0.36656v3.082h-0.88746v-0.81993q-0.30386 0.49196-0.75723 0.72829-0.45337 0.23151-1.1093 0.23151-0.82958 0-1.3215-0.46302-0.48714-0.46784-0.48714-1.2492 0-0.91157 0.60772-1.3746 0.61254-0.46302 1.8231-0.46302h1.2444v-0.08682q0-0.61254-0.40514-0.94533-0.40032-0.33762-1.1286-0.33762-0.46302 0-0.90193 0.11093-0.43891 0.11093-0.84405 0.3328v-0.81993q0.48714-0.1881 0.94533-0.27974 0.4582-0.09646 0.89228-0.09646 1.172 0 1.7508 0.60772t0.57878 1.8424z"/>
  <path d="m94.158 14.461v0.83922q-0.3762-0.19292-0.78135-0.28939-0.40514-0.09646-0.83923-0.09646-0.66077 0-0.99357 0.20257-0.32797 0.20257-0.32797 0.60772 0 0.30868 0.23633 0.48714 0.23633 0.17363 0.95016 0.3328l0.30386 0.06752q0.94533 0.20257 1.3408 0.57395 0.40032 0.36656 0.40032 1.0273 0 0.75241-0.59807 1.1913-0.59325 0.4389-1.635 0.4389-0.43408 0-0.90675-0.08682-0.46784-0.08199-0.98874-0.2508v-0.91639q0.49196 0.25563 0.96945 0.38585 0.47749 0.1254 0.94534 0.1254 0.62701 0 0.96463-0.21222 0.33762-0.21704 0.33762-0.60772 0-0.36174-0.24598-0.55466-0.24116-0.19293-1.0659-0.37138l-0.30868-0.07235q-0.82476-0.17363-1.1913-0.53054-0.36656-0.36174-0.36656-0.98874 0-0.76206 0.54019-1.1768 0.54019-0.41479 1.5338-0.41479 0.49196 0 0.92604 0.07235t0.80064 0.21704z"/>
  <path d="m100.48 16.781v0.43408h-4.0804q0.05788 0.9164 0.54984 1.3987 0.49678 0.47749 1.3794 0.47749 0.51125 0 0.98874-0.1254 0.48231-0.1254 0.95498-0.3762v0.83922q-0.4775 0.20257-0.9791 0.30868t-1.0177 0.10611q-1.2926 0-2.0498-0.75241-0.75241-0.75241-0.75241-2.0354 0-1.3264 0.71382-2.1029 0.71865-0.78135 1.9341-0.78135 1.09 0 1.7219 0.70418 0.63665 0.69936 0.63665 1.9051zm-0.88746-0.26045q-0.0096-0.72829-0.40997-1.1624-0.3955-0.43408-1.0514-0.43408-0.74276 0-1.1913 0.41961-0.44373 0.41961-0.51125 1.1817z"/>
  <path d="m107.37 13.057v1.0273q-0.49196-0.4582-1.0514-0.68488-0.55466-0.22669-1.1817-0.22669-1.2347 0-1.8907 0.75723-0.65595 0.75241-0.65595 2.1801 0 1.4228 0.65595 2.1801 0.65595 0.75241 1.8907 0.75241 0.62701 0 1.1817-0.22669 0.55948-0.22669 1.0514-0.68488v1.0177q-0.51125 0.34727-1.0852 0.5209-0.56913 0.17363-1.2058 0.17363-1.635 0-2.5756-0.99839-0.94051-1.0032-0.94051-2.7347 0-1.7363 0.94051-2.7347 0.94051-1.0032 2.5756-1.0032 0.6463 0 1.2154 0.17363 0.57395 0.16881 1.0756 0.51125z"/>
  <path d="m113.32 16.443v3.2604h-0.88746v-3.2315q0-0.76688-0.29903-1.1479-0.29904-0.38103-0.89711-0.38103-0.71864 0-1.1334 0.4582t-0.41479 1.2492v3.053h-0.89228v-7.5048h0.89228v2.9421q0.31832-0.48714 0.74758-0.72829 0.43409-0.24116 0.99839-0.24116 0.93087 0 1.4084 0.57878 0.47749 0.57395 0.47749 1.6929z"/>
  <path d="m115.09 14.302h0.88746v5.4019h-0.88746zm0-2.1029h0.88746v1.1238h-0.88746z"/>
  <path d="m118.7 18.893v2.8649h-0.89228v-7.4566h0.89228v0.81993q0.27974-0.48231 0.70418-0.71382 0.42925-0.23633 1.0225-0.23633 0.98392 0 1.5965 0.78135 0.61736 0.78135 0.61736 2.0547 0 1.2733-0.61736 2.0547-0.61254 0.78135-1.5965 0.78135-0.59325 0-1.0225-0.23151-0.42444-0.23633-0.70418-0.71865zm3.0193-1.8858q0-0.9791-0.40514-1.5338-0.40032-0.55948-1.1045-0.55948t-1.1093 0.55948q-0.40032 0.55466-0.40032 1.5338 0 0.9791 0.40032 1.5386 0.40514 0.55466 1.1093 0.55466t1.1045-0.55466q0.40514-0.55948 0.40514-1.5386z"/>
  <path d="m127.55 14.461v0.83922q-0.37621-0.19292-0.78135-0.28939-0.40514-0.09646-0.83922-0.09646-0.66077 0-0.99357 0.20257-0.32797 0.20257-0.32797 0.60772 0 0.30868 0.23633 0.48714 0.23633 0.17363 0.95016 0.3328l0.30386 0.06752q0.94533 0.20257 1.3408 0.57395 0.40032 0.36656 0.40032 1.0273 0 0.75241-0.59807 1.1913-0.59325 0.4389-1.635 0.4389-0.43409 0-0.90675-0.08682-0.46785-0.08199-0.98875-0.2508v-0.91639q0.49196 0.25563 0.96945 0.38585 0.47749 0.1254 0.94534 0.1254 0.62701 0 0.96463-0.21222 0.33761-0.21704 0.33761-0.60772 0-0.36174-0.24598-0.55466-0.24115-0.19293-1.0659-0.37138l-0.30868-0.07235q-0.82475-0.17363-1.1913-0.53054-0.36656-0.36174-0.36656-0.98874 0-0.76206 0.54019-1.1768t1.5338-0.41479q0.49196 0 0.92604 0.07235t0.80064 0.21704z"/>
  <path d="m132.87 13.511v2.6865h2.6865v0.81993h-2.6865v2.6865h-0.81029v-2.6865h-2.6865v-0.81993h2.6865v-2.6865z"/>
  <path d="m141.42 14.509v0.82958q-0.3762-0.2074-0.75723-0.30868-0.37621-0.10611-0.76206-0.10611-0.86334 0-1.3408 0.54984-0.47749 0.54501-0.47749 1.5338 0 0.98874 0.47749 1.5386 0.47749 0.54501 1.3408 0.54501 0.38585 0 0.76206-0.10129 0.38103-0.10611 0.75723-0.3135v0.81993q-0.37138 0.17363-0.7717 0.26045-0.3955 0.08682-0.84405 0.08682-1.2202 0-1.9389-0.76688-0.71865-0.76688-0.71865-2.0691 0-1.3215 0.72347-2.0788 0.7283-0.75723 1.992-0.75723 0.40996 0 0.80064 0.08682 0.39067 0.08199 0.75723 0.2508z"/>
  <path d="m145.42 16.988q-1.0756 0-1.4904 0.24598t-0.41479 0.83922q0 0.47267 0.30868 0.75241 0.3135 0.27492 0.84887 0.27492 0.73794 0 1.1817-0.5209 0.44855-0.52572 0.44855-1.3939v-0.19775zm1.7701-0.36656v3.082h-0.88746v-0.81993q-0.30386 0.49196-0.75723 0.72829-0.45338 0.23151-1.1093 0.23151-0.82958 0-1.3215-0.46302-0.48714-0.46784-0.48714-1.2492 0-0.91157 0.60772-1.3746 0.61253-0.46302 1.8231-0.46302h1.2444v-0.08682q0-0.61254-0.40514-0.94533-0.40032-0.33762-1.1286-0.33762-0.46302 0-0.90192 0.11093-0.43891 0.11093-0.84405 0.3328v-0.81993q0.48714-0.1881 0.94533-0.27974 0.4582-0.09646 0.89228-0.09646 1.172 0 1.7508 0.60772t0.57878 1.8424z"/>
  <path d="m152.15 15.131q-0.14952-0.08682-0.32798-0.1254-0.17363-0.04341-0.38585-0.04341-0.75241 0-1.1576 0.49196-0.40032 0.48714-0.40032 1.4035v2.8456h-0.89228v-5.4019h0.89228v0.83923q0.27974-0.49196 0.72829-0.72829 0.44856-0.24116 1.09-0.24116 0.0916 0 0.20257 0.01447 0.11094 0.0096 0.24598 0.03376z"/>
  <path d="m156.46 15.121v-2.9228h0.88746v7.5048h-0.88746v-0.81029q-0.27974 0.48231-0.709 0.71865-0.42443 0.23151-1.0225 0.23151-0.9791 0-1.5965-0.78135-0.61254-0.78135-0.61254-2.0547 0-1.2733 0.61254-2.0547 0.61736-0.78135 1.5965-0.78135 0.59807 0 1.0225 0.23633 0.42926 0.23151 0.709 0.71382zm-3.0241 1.8858q0 0.9791 0.40032 1.5386 0.40514 0.55466 1.1093 0.55466t1.1093-0.55466q0.40514-0.55948 0.40514-1.5386 0-0.9791-0.40514-1.5338-0.40514-0.55948-1.1093-0.55948t-1.1093 0.55948q-0.40032 0.55466-0.40032 1.5338z"/>
  <path d="m161.07 19.703-2.7492-7.2009h1.0177l2.2814 6.0627 2.2862-6.0627h1.0129l-2.7444 7.2009z"/>
  <path d="m167.62 16.988q-1.0756 0-1.4903 0.24598-0.41479 0.24598-0.41479 0.83922 0 0.47267 0.30868 0.75241 0.3135 0.27492 0.84887 0.27492 0.73794 0 1.1817-0.5209 0.44855-0.52572 0.44855-1.3939v-0.19775zm1.7701-0.36656v3.082h-0.88745v-0.81993q-0.30386 0.49196-0.75723 0.72829-0.45338 0.23151-1.1093 0.23151-0.82957 0-1.3215-0.46302-0.48714-0.46784-0.48714-1.2492 0-0.91157 0.60771-1.3746 0.61254-0.46302 1.8232-0.46302h1.2444v-0.08682q0-0.61254-0.40515-0.94533-0.40032-0.33762-1.1286-0.33762-0.46302 0-0.90193 0.11093-0.4389 0.11093-0.84404 0.3328v-0.81993q0.48713-0.1881 0.94533-0.27974 0.4582-0.09646 0.89228-0.09646 1.172 0 1.7508 0.60772 0.57877 0.60772 0.57877 1.8424z"/>
  <path d="m171.22 12.199h0.88746v7.5048h-0.88746z"/>
  <path d="m173.87 17.572v-3.2701h0.88746v3.2363q0 0.76688 0.29903 1.1527 0.29904 0.38103 0.89711 0.38103 0.71864 0 1.1334-0.4582 0.41962-0.4582 0.41962-1.2492v-3.0627h0.88745v5.4019h-0.88745v-0.82958q-0.32315 0.49196-0.75241 0.73312-0.42444 0.23633-0.98875 0.23633-0.93086 0-1.4132-0.57878-0.48232-0.57878-0.48232-1.6929z"/>
  <path d="m184.84 16.781v0.43408h-4.0804q0.0579 0.9164 0.54984 1.3987 0.49679 0.47749 1.3794 0.47749 0.51125 0 0.98874-0.1254 0.48231-0.1254 0.95498-0.3762v0.83922q-0.47749 0.20257-0.97909 0.30868-0.50161 0.10611-1.0177 0.10611-1.2926 0-2.0498-0.75241-0.75241-0.75241-0.75241-2.0354 0-1.3264 0.71383-2.1029 0.71864-0.78135 1.9341-0.78135 1.09 0 1.7219 0.70418 0.63666 0.69936 0.63666 1.9051zm-0.88746-0.26045q-0.01-0.72829-0.40997-1.1624-0.39549-0.43408-1.0514-0.43408-0.74276 0-1.1913 0.41961-0.44373 0.41961-0.51126 1.1817z"/>
  <path d="m186.16 12.208h0.7717q0.72347 1.1383 1.0804 2.2283 0.36174 1.09 0.36174 2.1656 0 1.0804-0.36174 2.1752-0.35691 1.0949-1.0804 2.2283h-0.7717q0.64148-1.1045 0.95498-2.1945 0.31833-1.0949 0.31833-2.209t-0.31833-2.1993q-0.3135-1.0852-0.95498-2.1945z"/>
  <path d="m197.01 13.689-1.7315 0.93569 1.7315 0.94051-0.27974 0.47267-1.6206-0.9791v1.8183h-0.54984v-1.8183l-1.6206 0.9791-0.27975-0.47267 1.7315-0.94051-1.7315-0.93569 0.27975-0.47749 1.6206 0.9791v-1.8183h0.54984v1.8183l1.6206-0.9791z"/>
  <path d="m205.58 15.338q0.3328-0.59807 0.79582-0.88263t1.09-0.28456q0.84405 0 1.3022 0.59325 0.4582 0.58842 0.4582 1.6785v3.2604h-0.89228v-3.2315q0-0.77652-0.27492-1.1527-0.27492-0.3762-0.83922-0.3762-0.68971 0-1.09 0.4582t-0.40032 1.2492v3.053h-0.89228v-3.2315q0-0.78135-0.27492-1.1527-0.27492-0.3762-0.84887-0.3762-0.68006 0-1.0804 0.46302-0.40032 0.4582-0.40032 1.2444v3.053h-0.89228v-5.4019h0.89228v0.83923q0.30385-0.49678 0.72829-0.73312t1.008-0.23633q0.58843 0 0.99839 0.29904 0.41479 0.29903 0.61254 0.86816z"/>
  <path d="m210.9 17.572v-3.2701h0.88746v3.2363q0 0.76688 0.29903 1.1527 0.29904 0.38103 0.8971 0.38103 0.71865 0 1.1334-0.4582 0.41961-0.4582 0.41961-1.2492v-3.0627h0.88746v5.4019h-0.88746v-0.82958q-0.32315 0.49196-0.7524 0.73312-0.42444 0.23633-0.98875 0.23633-0.93086 0-1.4132-0.57878-0.48231-0.57878-0.48231-1.6929z"/>
  <path d="m217.25 12.199h0.88746v7.5048h-0.88746z"/>
  <path d="m220.88 12.768v1.5338h1.828v0.68971h-1.828v2.9325q0 0.66077 0.17846 0.84887 0.18328 0.1881 0.73794 0.1881h0.91157v0.74276h-0.91157q-1.0273 0-1.418-0.38103-0.39068-0.38585-0.39068-1.3987v-2.9325h-0.65112v-0.68971h0.65112v-1.5338z"/>
  <path d="m36.883 39.155v0.83923q-0.3762-0.19293-0.78135-0.28939-0.40514-0.09646-0.83923-0.09646-0.66077 0-0.99357 0.20257-0.32797 0.20257-0.32797 0.60772 0 0.30868 0.23633 0.48714 0.23633 0.17363 0.95016 0.3328l0.30386 0.06752q0.94533 0.20257 1.3408 0.57395 0.40032 0.36656 0.40032 1.0273 0 0.75241-0.59807 1.1913-0.59325 0.4389-1.635 0.4389-0.43408 0-0.90675-0.08682-0.46784-0.08199-0.98874-0.2508v-0.91639q0.49196 0.25563 0.96945 0.38585 0.47749 0.1254 0.94534 0.1254 0.62701 0 0.96463-0.21222 0.33762-0.21704 0.33762-0.60772 0-0.36174-0.24598-0.55466-0.24116-0.19293-1.0659-0.37138l-0.30868-0.07235q-0.82476-0.17363-1.1913-0.53054-0.36656-0.36174-0.36656-0.98874 0-0.76206 0.54019-1.1768t1.5338-0.41479q0.49196 0 0.92604 0.07235t0.80064 0.21704z"/>
  <path d="m41.841 39.912h6.1833v0.81029h-6.1833zm0 1.9678h6.1833v0.81993h-6.1833z"/>
  <path d="m55.274 36.903q-0.6463 1.1093-0.9598 2.1945-0.3135 1.0852-0.3135 2.1993t0.3135 2.209q0.31833 1.09 0.9598 2.1945h-0.7717q-0.72347-1.1334-1.0852-2.2283-0.35691-1.0949-0.35691-2.1752 0-1.0756 0.35691-2.1656 0.35691-1.09 1.0852-2.2283z"/>
  <path d="m60.873 41.702q0-0.9791-0.40514-1.5338-0.40032-0.55948-1.1045-0.55948t-1.1093 0.55948q-0.40032 0.55466-0.40032 1.5338 0 0.9791 0.40032 1.5386 0.40514 0.55466 1.1093 0.55466t1.1045-0.55466q0.40514-0.55948 0.40514-1.5386zm-3.0193-1.8858q0.27974-0.48231 0.70418-0.71382 0.42926-0.23633 1.0225-0.23633 0.98392 0 1.5965 0.78135 0.61736 0.78135 0.61736 2.0547 0 1.2733-0.61736 2.0547-0.61254 0.78135-1.5965 0.78135-0.59324 0-1.0225-0.23151-0.42444-0.23633-0.70418-0.71865v0.81029h-0.89228v-7.5048h0.89228z"/>
  <path d="m66.878 38.205v2.6865h2.6865v0.81993h-2.6865v2.6865h-0.81029v-2.6865h-2.6865v-0.81993h2.6865v-2.6865z"/>
  <path d="m75.429 39.203v0.82958q-0.3762-0.2074-0.75723-0.30868-0.3762-0.10611-0.76206-0.10611-0.86334 0-1.3408 0.54984-0.47749 0.54501-0.47749 1.5338 0 0.98874 0.47749 1.5386 0.47749 0.54501 1.3408 0.54501 0.38585 0 0.76206-0.10129 0.38103-0.10611 0.75723-0.3135v0.81993q-0.37138 0.17363-0.7717 0.26045-0.3955 0.08682-0.84405 0.08682-1.2203 0-1.9389-0.76688-0.71865-0.76688-0.71865-2.0691 0-1.3215 0.72347-2.0788 0.72829-0.75723 1.992-0.75723 0.40997 0 0.80064 0.08682 0.39067 0.08199 0.75723 0.2508z"/>
  <path d="m76.833 36.903h0.7717q0.72347 1.1383 1.0804 2.2283 0.36174 1.09 0.36174 2.1656 0 1.0804-0.36174 2.1752-0.35691 1.0949-1.0804 2.2283h-0.7717q0.64148-1.1045 0.95498-2.1945 0.31833-1.0949 0.31833-2.209t-0.31833-2.1993q-0.3135-1.0852-0.95498-2.1945z"/>
  <path d="m87.68 38.383-1.7315 0.93569 1.7315 0.94051-0.27974 0.47267-1.6206-0.9791v1.8183h-0.54984v-1.8183l-1.6206 0.9791-0.27974-0.47267 1.7315-0.94051-1.7315-0.93569 0.27974-0.47749 1.6206 0.9791v-1.8183h0.54984v1.8183l1.6206-0.9791z"/>
  <path d="m96.251 40.033q0.3328-0.59807 0.79582-0.88263 0.46302-0.28456 1.09-0.28456 0.84405 0 1.3022 0.59325 0.4582 0.58842 0.4582 1.6785v3.2604h-0.89228v-3.2315q0-0.77652-0.27492-1.1527-0.27492-0.3762-0.83922-0.3762-0.68971 0-1.09 0.4582-0.40032 0.4582-0.40032 1.2492v3.053h-0.89228v-3.2315q0-0.78135-0.27492-1.1527-0.27492-0.3762-0.84887-0.3762-0.68006 0-1.0804 0.46302-0.40032 0.4582-0.40032 1.2444v3.053h-0.89228v-5.4019h0.89228v0.83922q0.30386-0.49678 0.72829-0.73312t1.008-0.23633q0.58842 0 0.99839 0.29904 0.41479 0.29903 0.61254 0.86816z"/>
  <path d="m36.883 63.85v0.83923q-0.3762-0.19293-0.78135-0.28939-0.40514-0.09646-0.83923-0.09646-0.66077 0-0.99357 0.20257-0.32797 0.20257-0.32797 0.60772 0 0.30868 0.23633 0.48714 0.23633 0.17363 0.95016 0.3328l0.30386 0.06752q0.94533 0.20257 1.3408 0.57395 0.40032 0.36656 0.40032 1.0273 0 0.75241-0.59807 1.1913-0.59325 0.43891-1.635 0.43891-0.43408 0-0.90675-0.08682-0.46784-0.08199-0.98874-0.2508v-0.91639q0.49196 0.25563 0.96945 0.38585 0.47749 0.1254 0.94534 0.1254 0.62701 0 0.96463-0.21222 0.33762-0.21704 0.33762-0.60772 0-0.36174-0.24598-0.55466-0.24116-0.19293-1.0659-0.37138l-0.30868-0.07235q-0.82476-0.17363-1.1913-0.53054-0.36656-0.36174-0.36656-0.98874 0-0.76206 0.54019-1.1768 0.54019-0.41479 1.5338-0.41479 0.49196 0 0.92604 0.07235t0.80064 0.21704z"/>
  <path d="m41.841 64.607h6.1833v0.81029h-6.1833zm0 1.9678h6.1833v0.81993h-6.1833z"/>
  <path d="m55.274 61.597q-0.6463 1.1093-0.9598 2.1945-0.3135 1.0852-0.3135 2.1993t0.3135 2.209q0.31833 1.09 0.9598 2.1945h-0.7717q-0.72347-1.1334-1.0852-2.2283-0.35691-1.0949-0.35691-2.1752 0-1.0756 0.35691-2.1656 0.35691-1.09 1.0852-2.2283z"/>
  <path d="m57.13 61.891h3.8247v0.81993h-2.9325v1.7653q0.21222-0.07235 0.42444-0.10611 0.21222-0.03858 0.42444-0.03858 1.2058 0 1.91 0.66077 0.70418 0.66077 0.70418 1.7894 0 1.1624-0.72347 1.8087-0.72347 0.64148-2.0402 0.64148-0.45338 0-0.92604-0.07717-0.46784-0.07717-0.96945-0.23151v-0.9791q0.43408 0.23633 0.8971 0.35209 0.46302 0.11576 0.9791 0.11576 0.8344 0 1.3215-0.4389 0.48714-0.43891 0.48714-1.1913t-0.48714-1.1913q-0.48714-0.4389-1.3215-0.4389-0.39067 0-0.78135 0.08682-0.38585 0.08682-0.79099 0.2701z"/>
  <path d="m66.893 62.899v2.6865h2.6865v0.81993h-2.6865v2.6865h-0.81029v-2.6865h-2.6865v-0.81993h2.6865v-2.6865z"/>
  <path d="m72.521 68.272h3.4003v0.81993h-4.5723v-0.81993q0.55466-0.57395 1.5096-1.5386 0.9598-0.96945 1.2058-1.2492 0.46784-0.52572 0.65112-0.88746 0.1881-0.36656 0.1881-0.71865 0-0.57395-0.40514-0.93569-0.40032-0.36174-1.0466-0.36174-0.4582 0-0.96945 0.15916-0.50643 0.15916-1.0852 0.48231v-0.98392q0.58842-0.23633 1.0997-0.35691 0.51125-0.12058 0.93569-0.12058 1.119 0 1.7846 0.55948 0.66559 0.55948 0.66559 1.4952 0 0.44373-0.16881 0.84405-0.16399 0.3955-0.60289 0.93569-0.12058 0.13987-0.76688 0.81029-0.6463 0.66559-1.8231 1.8666z"/>
  <path d="m77.701 61.597h0.7717q0.72347 1.1383 1.0804 2.2283 0.36174 1.09 0.36174 2.1656 0 1.0804-0.36174 2.1752-0.35691 1.0949-1.0804 2.2283h-0.7717q0.64148-1.1045 0.95498-2.1945 0.31833-1.0949 0.31833-2.209t-0.31833-2.1993q-0.3135-1.0852-0.95498-2.1945z"/>
  <path d="m88.548 63.078-1.7315 0.93569 1.7315 0.94051-0.27974 0.47267-1.6206-0.9791v1.8183h-0.54984v-1.8183l-1.6206 0.9791-0.27974-0.47267 1.7315-0.94051-1.7315-0.93569 0.27974-0.47749 1.6206 0.9791v-1.8183h0.54984v1.8183l1.6206-0.9791z"/>
  <path d="m93.208 68.272h1.5916v-5.4936l-1.7315 0.34727v-0.88746l1.7219-0.34726h0.97427v6.381h1.5916v0.81993h-4.1479z"/>
  <path d="m36.883 88.544v0.83923q-0.3762-0.19293-0.78135-0.28939-0.40514-0.09646-0.83923-0.09646-0.66077 0-0.99357 0.20257-0.32797 0.20257-0.32797 0.60772 0 0.30868 0.23633 0.48714 0.23633 0.17363 0.95016 0.3328l0.30386 0.06752q0.94533 0.20257 1.3408 0.57395 0.40032 0.36656 0.40032 1.0273 0 0.75241-0.59807 1.1913-0.59325 0.43891-1.635 0.43891-0.43408 0-0.90675-0.08682-0.46784-0.08199-0.98874-0.2508v-0.91639q0.49196 0.25563 0.96945 0.38585 0.47749 0.1254 0.94534 0.1254 0.62701 0 0.96463-0.21222 0.33762-0.21704 0.33762-0.60772 0-0.36174-0.24598-0.55466-0.24116-0.19292-1.0659-0.37138l-0.30868-0.07235q-0.82476-0.17363-1.1913-0.53054-0.36656-0.36174-0.36656-0.98874 0-0.76206 0.54019-1.1768 0.54019-0.41479 1.5338-0.41479 0.49196 0 0.92604 0.07235t0.80064 0.21704z"/>
  <path d="m41.841 89.301h6.1833v0.81029h-6.1833zm0 1.9678h6.1833v0.81993h-6.1833z"/>
  <path d="m53.021 86.586h4.6302v0.41479l-2.6141 6.7862h-1.0177l2.4598-6.381h-3.4582z"/>
 </g>
</svg>
