<?xml version="1.0" encoding="UTF-8"?>
<!-- Created with Inkscape (http://www.inkscape.org/) -->
<svg width="256.67mm" height="111.59mm" version="1.1" viewBox="0 0 256.67 111.59" xmlns="http://www.w3.org/2000/svg">
 <rect transform="scale(1,-1)" x="-1.1114" y="-110.07" width="257.01" height="111.18" fill="#fff" stop-color="#000000" stroke-width="1.5875"/>
 <path d="m179.33 67.21-109.08 23.437" fill="none" stroke="#00c900" stroke-width="1.0583"/>
 <path d="m75.959 95.247-9.3367-3.8213 7.4092-7.0179z" fill="#00c900" stop-color="#000000" stroke-width="1.0583"/>
 <g stroke-width=".26458" aria-label="score = numCardsPlayed * (8 + cardValue) * (1+3))  s = n * ((8+c) * 4) s = (8+c)n * 4n s = (8n + cn) 4n s = 64n + cn s = (64 +c)n   ">
  <path d="m4.692 15.676v0.83922q-0.3762-0.19292-0.78135-0.28939-0.40514-0.09646-0.83923-0.09646-0.66077 0-0.99357 0.20257-0.32797 0.20257-0.32797 0.60772 0 0.30868 0.23633 0.48714 0.23633 0.17363 0.95016 0.3328l0.30386 0.06752q0.94533 0.20257 1.3408 0.57395 0.40032 0.36656 0.40032 1.0273 0 0.75241-0.59807 1.1913-0.59325 0.4389-1.635 0.4389-0.43408 0-0.90675-0.08682-0.46784-0.08199-0.98874-0.2508v-0.9164q0.49196 0.25563 0.96945 0.38585 0.47749 0.1254 0.94533 0.1254 0.62701 0 0.96463-0.21222 0.33762-0.21704 0.33762-0.60772 0-0.36174-0.24598-0.55466-0.24116-0.19292-1.0659-0.37138l-0.30868-0.072347q-0.82476-0.17363-1.1913-0.53054-0.36656-0.36174-0.36656-0.98874 0-0.76206 0.54019-1.1768 0.54019-0.41479 1.5338-0.41479 0.49196 0 0.92604 0.07235t0.80064 0.21704z"/>
  <path d="m10.282 15.724v0.82958q-0.3762-0.2074-0.75723-0.30868-0.3762-0.10611-0.76206-0.10611-0.86334 0-1.3408 0.54984-0.47749 0.54501-0.47749 1.5338 0 0.98874 0.47749 1.5386 0.47749 0.54501 1.3408 0.54501 0.38585 0 0.76206-0.10129 0.38103-0.10611 0.75723-0.3135v0.81993q-0.37138 0.17363-0.7717 0.26045-0.3955 0.08682-0.84405 0.08682-1.2203 0-1.9389-0.76688-0.71865-0.76688-0.71865-2.0691 0-1.3215 0.72347-2.0788 0.72829-0.75723 1.992-0.75723 0.40997 0 0.80064 0.08682 0.39067 0.08199 0.75723 0.2508z"/>
  <path d="m13.919 16.139q-0.71382 0-1.1286 0.55948-0.41479 0.55466-0.41479 1.5241t0.40997 1.5289q0.41479 0.55466 1.1334 0.55466 0.709 0 1.1238-0.55948 0.41479-0.55948 0.41479-1.5241 0-0.9598-0.41479-1.5193-0.41479-0.56431-1.1238-0.56431zm0-0.75241q1.1576 0 1.8183 0.75241 0.66077 0.75241 0.66077 2.0836 0 1.3264-0.66077 2.0836-0.66077 0.75241-1.8183 0.75241-1.1624 0-1.8231-0.75241-0.65595-0.75723-0.65595-2.0836 0-1.3312 0.65595-2.0836 0.66077-0.75241 1.8231-0.75241z"/>
  <path d="m20.999 16.346q-0.14952-0.08682-0.32797-0.1254-0.17363-0.04341-0.38585-0.04341-0.75241 0-1.1576 0.49196-0.40032 0.48714-0.40032 1.4035v2.8456h-0.89228v-5.4019h0.89228v0.83923q0.27974-0.49196 0.72829-0.72829 0.44855-0.24116 1.09-0.24116 0.09164 0 0.20257 0.01447 0.11093 0.0096 0.24598 0.03376z"/>
  <path d="m26.333 17.995v0.43408h-4.0804q0.05788 0.9164 0.54984 1.3987 0.49678 0.47749 1.3794 0.47749 0.51125 0 0.98874-0.1254 0.48231-0.1254 0.95498-0.3762v0.83922q-0.47749 0.20257-0.9791 0.30868t-1.0177 0.10611q-1.2926 0-2.0498-0.75241-0.75241-0.75241-0.75241-2.0354 0-1.3264 0.71382-2.1029 0.71865-0.78135 1.9341-0.78135 1.09 0 1.7219 0.70418 0.63665 0.69936 0.63665 1.9051zm-0.88746-0.26045q-0.0096-0.72829-0.40997-1.1624-0.3955-0.43408-1.0514-0.43408-0.74276 0-1.1913 0.41961-0.44373 0.41961-0.51125 1.1817z"/>
  <path d="m31.046 16.433h6.1833v0.81029h-6.1833zm0 1.9678h6.1833v0.81993h-6.1833z"/>
  <path d="m46.837 17.658v3.2604h-0.88746v-3.2315q0-0.76688-0.29903-1.1479-0.29903-0.38103-0.8971-0.38103-0.71865 0-1.1334 0.4582-0.41479 0.4582-0.41479 1.2492v3.053h-0.89228v-5.4019h0.89228v0.83923q0.31833-0.48714 0.74759-0.72829 0.43408-0.24116 0.99839-0.24116 0.93086 0 1.4084 0.57878 0.47749 0.57395 0.47749 1.6929z"/>
  <path d="m48.515 18.786v-3.2701h0.88746v3.2363q0 0.76688 0.29904 1.1527 0.29903 0.38103 0.8971 0.38103 0.71865 0 1.1334-0.4582 0.41961-0.4582 0.41961-1.2492v-3.0627h0.88746v5.4019h-0.88746v-0.82958q-0.32315 0.49196-0.75241 0.73312-0.42444 0.23633-0.98874 0.23633-0.93086 0-1.4132-0.57878-0.48231-0.57878-0.48231-1.6929z"/>
  <path d="m59.073 16.553q0.3328-0.59807 0.79582-0.88263 0.46302-0.28456 1.09-0.28456 0.84405 0 1.3022 0.59324 0.4582 0.58842 0.4582 1.6785v3.2604h-0.89228v-3.2315q0-0.77652-0.27492-1.1527-0.27492-0.3762-0.83922-0.3762-0.68971 0-1.09 0.4582t-0.40032 1.2492v3.053h-0.89228v-3.2315q0-0.78135-0.27492-1.1527-0.27492-0.3762-0.84887-0.3762-0.68006 0-1.0804 0.46302-0.40032 0.4582-0.40032 1.2444v3.053h-0.89228v-5.4019h0.89228v0.83923q0.30386-0.49678 0.72829-0.73312 0.42444-0.23633 1.008-0.23633 0.58842 0 0.99839 0.29903 0.41479 0.29903 0.61254 0.86816z"/>
  <path d="m69.92 14.272v1.0273q-0.49196-0.4582-1.0514-0.68488-0.55466-0.22669-1.1817-0.22669-1.2347 0-1.8907 0.75723-0.65595 0.75241-0.65595 2.1801 0 1.4228 0.65595 2.1801 0.65595 0.75241 1.8907 0.75241 0.62701 0 1.1817-0.22669 0.55948-0.22669 1.0514-0.68488v1.0177q-0.51125 0.34726-1.0852 0.5209-0.56913 0.17363-1.2058 0.17363-1.635 0-2.5756-0.99839-0.94051-1.0032-0.94051-2.7347 0-1.7363 0.94051-2.7347 0.94051-1.0032 2.5756-1.0032 0.6463 0 1.2154 0.17363 0.57395 0.16881 1.0756 0.51125z"/>
  <path d="m73.841 18.203q-1.0756 0-1.4903 0.24598t-0.41479 0.83923q0 0.47267 0.30868 0.75241 0.3135 0.27492 0.84887 0.27492 0.73794 0 1.1817-0.5209 0.44855-0.52572 0.44855-1.3939v-0.19775zm1.7701-0.36656v3.082h-0.88746v-0.81993q-0.30386 0.49196-0.75723 0.72829-0.45337 0.23151-1.1093 0.23151-0.82958 0-1.3215-0.46302-0.48714-0.46784-0.48714-1.2492 0-0.91157 0.60772-1.3746 0.61254-0.46302 1.8231-0.46302h1.2444v-0.08682q0-0.61254-0.40514-0.94533-0.40032-0.33762-1.1286-0.33762-0.46302 0-0.90193 0.11093-0.4389 0.11093-0.84405 0.3328v-0.81993q0.48714-0.1881 0.94533-0.27974 0.4582-0.09646 0.89228-0.09646 1.172 0 1.7508 0.60772 0.57878 0.60771 0.57878 1.8424z"/>
  <path d="m80.57 16.346q-0.14952-0.08682-0.32797-0.1254-0.17363-0.04341-0.38585-0.04341-0.75241 0-1.1576 0.49196-0.40032 0.48714-0.40032 1.4035v2.8456h-0.89228v-5.4019h0.89228v0.83923q0.27974-0.49196 0.72829-0.72829 0.44855-0.24116 1.09-0.24116 0.09164 0 0.20257 0.01447 0.11093 0.0096 0.24598 0.03376z"/>
  <path d="m84.881 16.336v-2.9228h0.88746v7.5048h-0.88746v-0.81029q-0.27974 0.48231-0.709 0.71865-0.42444 0.23151-1.0225 0.23151-0.9791 0-1.5965-0.78135-0.61254-0.78135-0.61254-2.0547 0-1.2733 0.61254-2.0547 0.61736-0.78135 1.5965-0.78135 0.59807 0 1.0225 0.23633 0.42926 0.23151 0.709 0.71382zm-3.0241 1.8858q0 0.9791 0.40032 1.5386 0.40514 0.55466 1.1093 0.55466 0.70418 0 1.1093-0.55466 0.40514-0.55948 0.40514-1.5386 0-0.9791-0.40514-1.5338-0.40514-0.55948-1.1093-0.55948-0.70418 0-1.1093 0.55948-0.40032 0.55466-0.40032 1.5338z"/>
  <path d="m91.041 15.676v0.83922q-0.3762-0.19292-0.78135-0.28939-0.40514-0.09646-0.83923-0.09646-0.66077 0-0.99357 0.20257-0.32797 0.20257-0.32797 0.60772 0 0.30868 0.23633 0.48714 0.23633 0.17363 0.95016 0.3328l0.30386 0.06752q0.94533 0.20257 1.3408 0.57395 0.40032 0.36656 0.40032 1.0273 0 0.75241-0.59807 1.1913-0.59325 0.4389-1.635 0.4389-0.43408 0-0.90675-0.08682-0.46784-0.08199-0.98874-0.2508v-0.9164q0.49196 0.25563 0.96945 0.38585 0.47749 0.1254 0.94534 0.1254 0.62701 0 0.96463-0.21222 0.33762-0.21704 0.33762-0.60772 0-0.36174-0.24598-0.55466-0.24116-0.19293-1.0659-0.37138l-0.30868-0.07235q-0.82476-0.17362-1.1913-0.53054-0.36656-0.36174-0.36656-0.98874 0-0.76206 0.54019-1.1768 0.54019-0.41479 1.5338-0.41479 0.49196 0 0.92604 0.07235t0.80064 0.21704z"/>
  <path d="m93.756 14.518v2.7058h1.2251q0.68006 0 1.0514-0.35209t0.37138-1.0032q0-0.6463-0.37138-0.99839t-1.0514-0.35209zm-0.97427-0.80064h2.1994q1.2106 0 1.828 0.54984 0.62218 0.54502 0.62218 1.6013 0 1.0659-0.62218 1.6109-0.61736 0.54501-1.828 0.54501h-1.2251v2.8939h-0.97427z"/>
  <path d="m98.7 13.413h0.88746v7.5048h-0.88746z"/>
  <path d="m103.9 18.203q-1.0756 0-1.4904 0.24598t-0.41479 0.83923q0 0.47267 0.30868 0.75241 0.31351 0.27492 0.84887 0.27492 0.73794 0 1.1817-0.5209 0.44855-0.52572 0.44855-1.3939v-0.19775zm1.7701-0.36656v3.082h-0.88746v-0.81993q-0.30385 0.49196-0.75723 0.72829-0.45337 0.23151-1.1093 0.23151-0.82958 0-1.3215-0.46302-0.48714-0.46784-0.48714-1.2492 0-0.91157 0.60772-1.3746 0.61254-0.46302 1.8231-0.46302h1.2444v-0.08682q0-0.61254-0.40514-0.94533-0.40032-0.33762-1.1286-0.33762-0.46303 0-0.90193 0.11093-0.43891 0.11093-0.84405 0.3328v-0.81993q0.48714-0.1881 0.94534-0.27974 0.45819-0.09646 0.89228-0.09646 1.172 0 1.7508 0.60772 0.57878 0.60771 0.57878 1.8424z"/>
  <path d="m109.74 21.42q-0.37621 0.96463-0.73312 1.2588t-0.95498 0.29421h-0.709v-0.74276h0.5209q0.36656 0 0.56913-0.17363t0.44855-0.81993l0.15916-0.40514-2.1849-5.3151h0.94051l1.6881 4.2251 1.6881-4.2251h0.94051z"/>
  <path d="m117.96 17.995v0.43408h-4.0804q0.0579 0.9164 0.54984 1.3987 0.49678 0.47749 1.3794 0.47749 0.51125 0 0.98875-0.1254 0.48231-0.1254 0.95498-0.3762v0.83922q-0.47749 0.20257-0.9791 0.30868t-1.0177 0.10611q-1.2926 0-2.0498-0.75241-0.75241-0.75241-0.75241-2.0354 0-1.3264 0.71382-2.1029 0.71865-0.78135 1.9341-0.78135 1.09 0 1.7219 0.70418 0.63665 0.69936 0.63665 1.9051zm-0.88746-0.26045q-0.01-0.72829-0.40996-1.1624-0.3955-0.43408-1.0514-0.43408-0.74276 0-1.1913 0.41961-0.44373 0.41961-0.51125 1.1817z"/>
  <path d="m122.97 16.336v-2.9228h0.88745v7.5048h-0.88745v-0.81029q-0.27975 0.48231-0.709 0.71865-0.42444 0.23151-1.0225 0.23151-0.9791 0-1.5965-0.78135-0.61253-0.78135-0.61253-2.0547 0-1.2733 0.61253-2.0547 0.61736-0.78135 1.5965-0.78135 0.59807 0 1.0225 0.23633 0.42925 0.23151 0.709 0.71382zm-3.0241 1.8858q0 0.9791 0.40032 1.5386 0.40514 0.55466 1.1093 0.55466t1.1093-0.55466q0.40515-0.55948 0.40515-1.5386 0-0.9791-0.40515-1.5338-0.40514-0.55948-1.1093-0.55948t-1.1093 0.55948q-0.40032 0.55466-0.40032 1.5338z"/>
  <path d="m132.54 14.904-1.7315 0.93569 1.7315 0.94051-0.27974 0.47267-1.6206-0.9791v1.8183h-0.54984v-1.8183l-1.6206 0.9791-0.27974-0.47267 1.7315-0.94051-1.7315-0.93569 0.27974-0.47749 1.6206 0.9791v-1.8183h0.54984v1.8183l1.6206-0.9791z"/>
  <path d="m139.04 13.423q-0.6463 1.1093-0.95981 2.1945-0.3135 1.0852-0.3135 2.1993 0 1.1141 0.3135 2.209 0.31833 1.09 0.95981 2.1945h-0.7717q-0.72347-1.1334-1.0852-2.2283-0.35691-1.0949-0.35691-2.1752 0-1.0756 0.35691-2.1656 0.35691-1.09 1.0852-2.2283z"/>
  <path d="m142.97 17.499q-0.69453 0-1.0948 0.37138-0.3955 0.37138-0.3955 1.0225 0 0.65112 0.3955 1.0225 0.40032 0.37138 1.0948 0.37138t1.0948-0.37138q0.40032-0.3762 0.40032-1.0225 0-0.65112-0.40032-1.0225-0.39549-0.37138-1.0948-0.37138zm-0.97427-0.41479q-0.62701-0.15434-0.9791-0.5836-0.34726-0.42926-0.34726-1.0466 0-0.86334 0.61253-1.3649 0.61736-0.50161 1.6881-0.50161 1.0756 0 1.6881 0.50161t0.61254 1.3649q0 0.61736-0.35209 1.0466-0.34727 0.42926-0.96945 0.5836 0.70417 0.16399 1.0948 0.64148 0.3955 0.47749 0.3955 1.1672 0 1.0466-0.64148 1.6061-0.63665 0.55948-1.828 0.55948-1.1913 0-1.8328-0.55948-0.63665-0.55948-0.63665-1.6061 0-0.68971 0.39549-1.1672 0.3955-0.47749 1.0997-0.64148zm-0.35691-1.5386q0 0.55948 0.34726 0.87299 0.35209 0.3135 0.98392 0.3135 0.62701 0 0.9791-0.3135 0.35691-0.3135 0.35691-0.87299t-0.35691-0.87299q-0.35209-0.3135-0.9791-0.3135-0.63183 0-0.98392 0.3135-0.34726 0.3135-0.34726 0.87299z"/>
  <path d="m153.8 14.725v2.6865h2.6865v0.81993h-2.6865v2.6865h-0.81029v-2.6865h-2.6865v-0.81993h2.6865v-2.6865z"/>
  <path d="m165.49 15.724v0.82958q-0.37621-0.2074-0.75724-0.30868-0.3762-0.10611-0.76205-0.10611-0.86334 0-1.3408 0.54984-0.47749 0.54501-0.47749 1.5338 0 0.98874 0.47749 1.5386 0.47749 0.54501 1.3408 0.54501 0.38585 0 0.76205-0.10129 0.38103-0.10611 0.75724-0.3135v0.81993q-0.37139 0.17363-0.77171 0.26045-0.39549 0.08682-0.84404 0.08682-1.2203 0-1.9389-0.76688-0.71865-0.76688-0.71865-2.0691 0-1.3215 0.72347-2.0788 0.72829-0.75723 1.992-0.75723 0.40997 0 0.80064 0.08682 0.39068 0.08199 0.75724 0.2508z"/>
  <path d="m169.49 18.203q-1.0756 0-1.4904 0.24598t-0.41479 0.83923q0 0.47267 0.30868 0.75241 0.31351 0.27492 0.84888 0.27492 0.73794 0 1.1817-0.5209 0.44856-0.52572 0.44856-1.3939v-0.19775zm1.7701-0.36656v3.082h-0.88745v-0.81993q-0.30386 0.49196-0.75724 0.72829-0.45337 0.23151-1.1093 0.23151-0.82958 0-1.3215-0.46302-0.48713-0.46784-0.48713-1.2492 0-0.91157 0.60771-1.3746 0.61254-0.46302 1.8232-0.46302h1.2444v-0.08682q0-0.61254-0.40515-0.94533-0.40032-0.33762-1.1286-0.33762-0.46302 0-0.90193 0.11093-0.4389 0.11093-0.84405 0.3328v-0.81993q0.48714-0.1881 0.94534-0.27974 0.4582-0.09646 0.89228-0.09646 1.172 0 1.7508 0.60772 0.57877 0.60771 0.57877 1.8424z"/>
  <path d="m176.22 16.346q-0.14952-0.08682-0.32798-0.1254-0.17363-0.04341-0.38585-0.04341-0.75241 0-1.1576 0.49196-0.40032 0.48714-0.40032 1.4035v2.8456h-0.89228v-5.4019h0.89228v0.83923q0.27974-0.49196 0.72829-0.72829 0.44855-0.24116 1.09-0.24116 0.0916 0 0.20257 0.01447 0.11093 0.0096 0.24598 0.03376z"/>
  <path d="m180.53 16.336v-2.9228h0.88746v7.5048h-0.88746v-0.81029q-0.27974 0.48231-0.709 0.71865-0.42443 0.23151-1.0225 0.23151-0.9791 0-1.5965-0.78135-0.61254-0.78135-0.61254-2.0547 0-1.2733 0.61254-2.0547 0.61736-0.78135 1.5965-0.78135 0.59807 0 1.0225 0.23633 0.42926 0.23151 0.709 0.71382zm-3.0241 1.8858q0 0.9791 0.40032 1.5386 0.40514 0.55466 1.1093 0.55466t1.1093-0.55466q0.40514-0.55948 0.40514-1.5386 0-0.9791-0.40514-1.5338-0.40514-0.55948-1.1093-0.55948t-1.1093 0.55948q-0.40032 0.55466-0.40032 1.5338z"/>
  <path d="m185.14 20.918-2.7492-7.2009h1.0177l2.2813 6.0627 2.2862-6.0627h1.0129l-2.7444 7.2009z"/>
  <path d="m191.69 18.203q-1.0756 0-1.4903 0.24598t-0.41479 0.83923q0 0.47267 0.30868 0.75241 0.3135 0.27492 0.84887 0.27492 0.73794 0 1.1817-0.5209 0.44855-0.52572 0.44855-1.3939v-0.19775zm1.7701-0.36656v3.082h-0.88745v-0.81993q-0.30386 0.49196-0.75723 0.72829-0.45338 0.23151-1.1093 0.23151-0.82957 0-1.3215-0.46302-0.48714-0.46784-0.48714-1.2492 0-0.91157 0.60771-1.3746 0.61254-0.46302 1.8232-0.46302h1.2444v-0.08682q0-0.61254-0.40515-0.94533-0.40032-0.33762-1.1286-0.33762-0.46302 0-0.90193 0.11093-0.4389 0.11093-0.84404 0.3328v-0.81993q0.48713-0.1881 0.94533-0.27974 0.4582-0.09646 0.89228-0.09646 1.172 0 1.7508 0.60772 0.57877 0.60771 0.57877 1.8424z"/>
  <path d="m195.29 13.413h0.88746v7.5048h-0.88746z"/>
  <path d="m197.94 18.786v-3.2701h0.88746v3.2363q0 0.76688 0.29903 1.1527 0.29903 0.38103 0.8971 0.38103 0.71865 0 1.1334-0.4582 0.41961-0.4582 0.41961-1.2492v-3.0627h0.88746v5.4019h-0.88746v-0.82958q-0.32315 0.49196-0.75241 0.73312-0.42443 0.23633-0.98874 0.23633-0.93086 0-1.4132-0.57878-0.48231-0.57878-0.48231-1.6929z"/>
  <path d="m208.91 17.995v0.43408h-4.0804q0.0579 0.9164 0.54984 1.3987 0.49678 0.47749 1.3794 0.47749 0.51126 0 0.98875-0.1254 0.48231-0.1254 0.95498-0.3762v0.83922q-0.47749 0.20257-0.9791 0.30868-0.5016 0.10611-1.0177 0.10611-1.2926 0-2.0498-0.75241-0.75241-0.75241-0.75241-2.0354 0-1.3264 0.71382-2.1029 0.71865-0.78135 1.9341-0.78135 1.09 0 1.7219 0.70418 0.63665 0.69936 0.63665 1.9051zm-0.88745-0.26045q-0.01-0.72829-0.40997-1.1624-0.3955-0.43408-1.0514-0.43408-0.74277 0-1.1913 0.41961-0.44373 0.41961-0.51125 1.1817z"/>
  <path d="m210.23 13.423h0.7717q0.72347 1.1383 1.0804 2.2283 0.36174 1.09 0.36174 2.1656 0 1.0804-0.36174 2.1752-0.35691 1.0949-1.0804 2.2283h-0.7717q0.64147-1.1045 0.95498-2.1945 0.31832-1.0949 0.31832-2.209 0-1.1141-0.31832-2.1993-0.31351-1.0852-0.95498-2.1945z"/>
  <path d="m221.08 14.904-1.7315 0.93569 1.7315 0.94051-0.27974 0.47267-1.6206-0.9791v1.8183h-0.54984v-1.8183l-1.6206 0.9791-0.27974-0.47267 1.7315-0.94051-1.7315-0.93569 0.27974-0.47749 1.6206 0.9791v-1.8183h0.54984v1.8183l1.6206-0.9791z"/>
  <path d="m227.57 13.423q-0.6463 1.1093-0.9598 2.1945-0.31351 1.0852-0.31351 2.1993 0 1.1141 0.31351 2.209 0.31832 1.09 0.9598 2.1945h-0.7717q-0.72347-1.1334-1.0852-2.2283-0.35691-1.0949-0.35691-2.1752 0-1.0756 0.35691-2.1656 0.35691-1.09 1.0852-2.2283z"/>
  <path d="m229.59 20.098h1.5916v-5.4936l-1.7315 0.34726v-0.88746l1.7219-0.34727h0.97427v6.381h1.5916v0.81993h-4.1479z"/>
  <path d="m239.19 14.725v2.6865h2.6865v0.81993h-2.6865v2.6865h-0.81029v-2.6865h-2.6865v-0.81993h2.6865v-2.6865z"/>
  <path d="m246.93 17.036q0.69935 0.14952 1.09 0.62218 0.39549 0.47267 0.39549 1.1672 0 1.0659-0.73311 1.6495-0.73312 0.5836-2.0836 0.5836-0.45337 0-0.93569-0.09164-0.47749-0.08682-0.98874-0.26527v-0.94051q0.40515 0.23633 0.88746 0.35691 0.48231 0.12058 1.008 0.12058 0.9164 0 1.3939-0.36174 0.48231-0.36174 0.48231-1.0514 0-0.63665-0.44855-0.99357-0.44373-0.36174-1.2395-0.36174h-0.83923v-0.80064h0.87781q0.71865 0 1.0997-0.28456 0.38102-0.28939 0.38102-0.82958 0-0.55466-0.39549-0.84887-0.39068-0.29904-1.1238-0.29904-0.40032 0-0.85852 0.08682t-1.008 0.2701v-0.86816q0.55466-0.15434 1.037-0.23151 0.48713-0.07717 0.91639-0.07717 1.1093 0 1.7556 0.50643 0.6463 0.50161 0.6463 1.3601 0 0.59807-0.34244 1.0129-0.34244 0.40997-0.97427 0.56913z"/>
  <path d="m250 13.423h0.7717q0.72347 1.1383 1.0804 2.2283 0.36173 1.09 0.36173 2.1656 0 1.0804-0.36173 2.1752-0.35692 1.0949-1.0804 2.2283h-0.7717q0.64148-1.1045 0.95498-2.1945 0.31833-1.0949 0.31833-2.209 0-1.1141-0.31833-2.1993-0.3135-1.0852-0.95498-2.1945z"/>
  <path d="m253.86 13.423h0.7717q0.72347 1.1383 1.0804 2.2283 0.36174 1.09 0.36174 2.1656 0 1.0804-0.36174 2.1752-0.35691 1.0949-1.0804 2.2283h-0.7717q0.64147-1.1045 0.95498-2.1945 0.31832-1.0949 0.31832-2.209 0-1.1141-0.31832-2.1993-0.31351-1.0852-0.95498-2.1945z"/>
  <path d="m4.692 40.37v0.83922q-0.3762-0.19292-0.78135-0.28939-0.40514-0.09646-0.83923-0.09646-0.66077 0-0.99357 0.20257-0.32797 0.20257-0.32797 0.60772 0 0.30868 0.23633 0.48714 0.23633 0.17363 0.95016 0.3328l0.30386 0.06752q0.94533 0.20257 1.3408 0.57395 0.40032 0.36656 0.40032 1.0273 0 0.75241-0.59807 1.1913-0.59325 0.4389-1.635 0.4389-0.43408 0-0.90675-0.08682-0.46784-0.08199-0.98874-0.2508v-0.9164q0.49196 0.25563 0.96945 0.38585 0.47749 0.1254 0.94533 0.1254 0.62701 0 0.96463-0.21222 0.33762-0.21704 0.33762-0.60772 0-0.36174-0.24598-0.55466-0.24116-0.19292-1.0659-0.37138l-0.30868-0.072347q-0.82476-0.17363-1.1913-0.53054-0.36656-0.36174-0.36656-0.98874 0-0.76206 0.54019-1.1768 0.54019-0.41479 1.5338-0.41479 0.49196 0 0.92604 0.07235t0.80064 0.21704z"/>
  <path d="m9.6502 41.127h6.1833v0.81029h-6.1833zm0 1.9678h6.1833v0.81993h-6.1833z"/>
  <path d="m25.441 42.352v3.2604h-0.88746v-3.2315q0-0.76688-0.29904-1.1479-0.29903-0.38103-0.8971-0.38103-0.71865 0-1.1334 0.4582-0.41479 0.4582-0.41479 1.2492v3.053h-0.89228v-5.4019h0.89228v0.83923q0.31833-0.48714 0.74759-0.72829 0.43408-0.24116 0.99839-0.24116 0.93086 0 1.4084 0.57878 0.47749 0.57395 0.47749 1.6929z"/>
  <path d="m34.065 39.598-1.7315 0.93569 1.7315 0.94051-0.27974 0.47267-1.6206-0.9791v1.8183h-0.54984v-1.8183l-1.6206 0.9791-0.27974-0.47267 1.7315-0.94051-1.7315-0.93569 0.27974-0.47749 1.6206 0.9791v-1.8183h0.54984v1.8183l1.6206-0.9791z"/>
  <path d="m40.562 38.118q-0.6463 1.1093-0.9598 2.1945t-0.3135 2.1993 0.3135 2.209q0.31833 1.09 0.9598 2.1945h-0.7717q-0.72347-1.1334-1.0852-2.2283-0.35691-1.0949-0.35691-2.1752 0-1.0756 0.35691-2.1656 0.35691-1.09 1.0852-2.2283z"/>
  <path d="m44.415 38.118q-0.6463 1.1093-0.9598 2.1945t-0.3135 2.1993 0.3135 2.209q0.31833 1.09 0.9598 2.1945h-0.7717q-0.72347-1.1334-1.0852-2.2283-0.35691-1.0949-0.35691-2.1752 0-1.0756 0.35691-2.1656 0.35691-1.09 1.0852-2.2283z"/>
  <path d="m48.346 42.193q-0.69453 0-1.0949 0.37138-0.3955 0.37138-0.3955 1.0225 0 0.65112 0.3955 1.0225 0.40032 0.37138 1.0949 0.37138 0.69453 0 1.0949-0.37138 0.40032-0.3762 0.40032-1.0225 0-0.65112-0.40032-1.0225-0.3955-0.37138-1.0949-0.37138zm-0.97427-0.41479q-0.62701-0.15434-0.9791-0.5836-0.34727-0.42926-0.34727-1.0466 0-0.86334 0.61254-1.3649 0.61736-0.50161 1.6881-0.50161 1.0756 0 1.6881 0.50161t0.61254 1.3649q0 0.61736-0.35209 1.0466-0.34727 0.42926-0.96945 0.5836 0.70418 0.16399 1.0949 0.64148 0.3955 0.47749 0.3955 1.1672 0 1.0466-0.64148 1.6061-0.63665 0.55948-1.828 0.55948-1.1913 0-1.8328-0.55948-0.63665-0.55948-0.63665-1.6061 0-0.68971 0.3955-1.1672 0.3955-0.47749 1.0997-0.64148zm-0.35691-1.5386q0 0.55948 0.34727 0.87299 0.35209 0.3135 0.98392 0.3135 0.62701 0 0.9791-0.3135 0.35691-0.3135 0.35691-0.87299t-0.35691-0.87299q-0.35209-0.3135-0.9791-0.3135-0.63183 0-0.98392 0.3135-0.34727 0.3135-0.34727 0.87299z"/>
  <path d="m56.034 39.42v2.6865h2.6865v0.81993h-2.6865v2.6865h-0.81029v-2.6865h-2.6865v-0.81993h2.6865v-2.6865z"/>
  <path d="m64.586 40.418v0.82958q-0.3762-0.2074-0.75723-0.30868-0.3762-0.10611-0.76206-0.10611-0.86334 0-1.3408 0.54984-0.47749 0.54501-0.47749 1.5338 0 0.98874 0.47749 1.5386 0.47749 0.54501 1.3408 0.54501 0.38585 0 0.76206-0.10129 0.38103-0.10611 0.75723-0.3135v0.81993q-0.37138 0.17363-0.7717 0.26045-0.3955 0.08682-0.84405 0.08682-1.2203 0-1.9389-0.76688-0.71865-0.76688-0.71865-2.0691 0-1.3215 0.72347-2.0788 0.72829-0.75723 1.992-0.75723 0.40997 0 0.80064 0.08682 0.39067 0.08199 0.75723 0.2508z"/>
  <path d="m65.989 38.118h0.7717q0.72347 1.1383 1.0804 2.2283 0.36174 1.09 0.36174 2.1656 0 1.0804-0.36174 2.1752-0.35691 1.0949-1.0804 2.2283h-0.7717q0.64148-1.1045 0.95498-2.1945 0.31833-1.0949 0.31833-2.209t-0.31833-2.1993q-0.3135-1.0852-0.95498-2.1945z"/>
  <path d="m76.836 39.598-1.7315 0.93569 1.7315 0.94051-0.27974 0.47267-1.6206-0.9791v1.8183h-0.54984v-1.8183l-1.6206 0.9791-0.27974-0.47267 1.7315-0.94051-1.7315-0.93569 0.27974-0.47749 1.6206 0.9791v-1.8183h0.54984v1.8183l1.6206-0.9791z"/>
  <path d="m84.004 39.261-2.4598 3.844h2.4598zm-0.25563-0.84887h1.2251v4.6929h1.0273v0.81029h-1.0273v1.6977h-0.96945v-1.6977h-3.2508v-0.94051z"/>
  <path d="m87.346 38.118h0.7717q0.72347 1.1383 1.0804 2.2283 0.36174 1.09 0.36174 2.1656 0 1.0804-0.36174 2.1752-0.35691 1.0949-1.0804 2.2283h-0.7717q0.64148-1.1045 0.95498-2.1945 0.31833-1.0949 0.31833-2.209t-0.31833-2.1993q-0.3135-1.0852-0.95498-2.1945z"/>
  <path d="m4.692 52.717v0.83923q-0.3762-0.19292-0.78135-0.28939-0.40514-0.09646-0.83923-0.09646-0.66077 0-0.99357 0.20257-0.32797 0.20257-0.32797 0.60772 0 0.30868 0.23633 0.48714 0.23633 0.17363 0.95016 0.3328l0.30386 0.06752q0.94533 0.20257 1.3408 0.57395 0.40032 0.36656 0.40032 1.0273 0 0.75241-0.59807 1.1913-0.59325 0.4389-1.635 0.4389-0.43408 0-0.90675-0.08682-0.46784-0.08199-0.98874-0.2508v-0.9164q0.49196 0.25563 0.96945 0.38585 0.47749 0.1254 0.94533 0.1254 0.62701 0 0.96463-0.21222 0.33762-0.21704 0.33762-0.60772 0-0.36174-0.24598-0.55466-0.24116-0.19292-1.0659-0.37138l-0.30868-0.072347q-0.82476-0.17363-1.1913-0.53054-0.36656-0.36174-0.36656-0.98874 0-0.76206 0.54019-1.1768 0.54019-0.41479 1.5338-0.41479 0.49196 0 0.92604 0.07235t0.80064 0.21704z"/>
  <path d="m9.6502 53.474h6.1833v0.81029h-6.1833zm0 1.9678h6.1833v0.81993h-6.1833z"/>
  <path d="m23.083 50.465q-0.6463 1.1093-0.9598 2.1945-0.3135 1.0852-0.3135 2.1993t0.3135 2.209q0.31833 1.09 0.9598 2.1945h-0.7717q-0.72347-1.1334-1.0852-2.2283-0.35691-1.0949-0.35691-2.1752 0-1.0756 0.35691-2.1656 0.35691-1.09 1.0852-2.2283z"/>
  <path d="m27.013 54.54q-0.69453 0-1.0949 0.37138-0.3955 0.37138-0.3955 1.0225 0 0.65112 0.3955 1.0225 0.40032 0.37138 1.0949 0.37138t1.0949-0.37138q0.40032-0.3762 0.40032-1.0225 0-0.65112-0.40032-1.0225-0.3955-0.37138-1.0949-0.37138zm-0.97427-0.41479q-0.62701-0.15434-0.9791-0.5836-0.34726-0.42926-0.34726-1.0466 0-0.86334 0.61254-1.3649 0.61736-0.50161 1.6881-0.50161 1.0756 0 1.6881 0.50161t0.61254 1.3649q0 0.61736-0.35209 1.0466-0.34726 0.42926-0.96945 0.5836 0.70418 0.16399 1.0949 0.64148 0.3955 0.47749 0.3955 1.1672 0 1.0466-0.64148 1.6061-0.63665 0.55948-1.828 0.55948t-1.8328-0.55948q-0.63665-0.55948-0.63665-1.6061 0-0.68971 0.3955-1.1672 0.3955-0.47749 1.0997-0.64148zm-0.35691-1.5386q0 0.55948 0.34727 0.87299 0.35209 0.3135 0.98392 0.3135 0.62701 0 0.9791-0.3135 0.35691-0.3135 0.35691-0.87299 0-0.55948-0.35691-0.87299-0.35209-0.3135-0.9791-0.3135-0.63183 0-0.98392 0.3135-0.34727 0.3135-0.34727 0.87299z"/>
  <path d="m34.702 51.767v2.6865h2.6865v0.81993h-2.6865v2.6865h-0.81029v-2.6865h-2.6865v-0.81993h2.6865v-2.6865z"/>
  <path d="m43.253 52.765v0.82958q-0.3762-0.2074-0.75723-0.30868-0.3762-0.10611-0.76206-0.10611-0.86334 0-1.3408 0.54984-0.47749 0.54501-0.47749 1.5338 0 0.98874 0.47749 1.5386 0.47749 0.54501 1.3408 0.54501 0.38585 0 0.76206-0.10129 0.38103-0.10611 0.75723-0.3135v0.81993q-0.37138 0.17363-0.7717 0.26045-0.3955 0.08682-0.84405 0.08682-1.2203 0-1.9389-0.76688-0.71865-0.76688-0.71865-2.0691 0-1.3215 0.72347-2.0788 0.72829-0.75723 1.992-0.75723 0.40997 0 0.80064 0.08682 0.39067 0.08199 0.75723 0.2508z"/>
  <path d="m44.657 50.465h0.7717q0.72347 1.1383 1.0804 2.2283 0.36174 1.09 0.36174 2.1656 0 1.0804-0.36174 2.1752-0.35691 1.0949-1.0804 2.2283h-0.7717q0.64148-1.1045 0.95498-2.1945 0.31833-1.0949 0.31833-2.209t-0.31833-2.1993q-0.3135-1.0852-0.95498-2.1945z"/>
  <path d="m53.14 54.7v3.2604h-0.88746v-3.2315q0-0.76688-0.29903-1.1479-0.29904-0.38103-0.8971-0.38103-0.71865 0-1.1334 0.4582t-0.41479 1.2492v3.053h-0.89228v-5.4019h0.89228v0.83922q0.31833-0.48714 0.74759-0.72829 0.43408-0.24116 0.99839-0.24116 0.93086 0 1.4084 0.57878 0.47749 0.57395 0.47749 1.6929z"/>
  <path d="m61.764 51.946-1.7315 0.93569 1.7315 0.94051-0.27974 0.47267-1.6206-0.9791v1.8183h-0.54984v-1.8183l-1.6206 0.9791-0.27974-0.47267 1.7315-0.94051-1.7315-0.93569 0.27974-0.47749 1.6206 0.9791v-1.8183h0.54984v1.8183l1.6206-0.9791z"/>
  <path d="m68.931 51.608-2.4598 3.844h2.4598zm-0.25563-0.84887h1.2251v4.6929h1.0273v0.81029h-1.0273v1.6977h-0.96945v-1.6977h-3.2508v-0.94051z"/>
  <path d="m76.904 54.7v3.2604h-0.88746v-3.2315q0-0.76688-0.29903-1.1479-0.29903-0.38103-0.8971-0.38103-0.71865 0-1.1334 0.4582-0.41479 0.4582-0.41479 1.2492v3.053h-0.89228v-5.4019h0.89228v0.83922q0.31833-0.48714 0.74758-0.72829 0.43408-0.24116 0.99839-0.24116 0.93086 0 1.4084 0.57878 0.47749 0.57395 0.47749 1.6929z"/>
  <path d="m4.692 65.064v0.83923q-0.3762-0.19293-0.78135-0.28939-0.40514-0.09646-0.83923-0.09646-0.66077 0-0.99357 0.20257-0.32797 0.20257-0.32797 0.60772 0 0.30868 0.23633 0.48714 0.23633 0.17363 0.95016 0.3328l0.30386 0.06752q0.94533 0.20257 1.3408 0.57395 0.40032 0.36656 0.40032 1.0273 0 0.75241-0.59807 1.1913-0.59325 0.4389-1.635 0.4389-0.43408 0-0.90675-0.08682-0.46784-0.08199-0.98874-0.2508v-0.9164q0.49196 0.25563 0.96945 0.38585 0.47749 0.1254 0.94533 0.1254 0.62701 0 0.96463-0.21222 0.33762-0.21704 0.33762-0.60772 0-0.36174-0.24598-0.55466-0.24116-0.19292-1.0659-0.37138l-0.30868-0.072347q-0.82476-0.17363-1.1913-0.53054-0.36656-0.36174-0.36656-0.98874 0-0.76206 0.54019-1.1768 0.54019-0.41479 1.5338-0.41479 0.49196 0 0.92604 0.07235t0.80064 0.21704z"/>
  <path d="m9.6502 65.822h6.1833v0.81029h-6.1833zm0 1.9678h6.1833v0.81993h-6.1833z"/>
  <path d="m23.083 62.812q-0.6463 1.1093-0.9598 2.1945-0.3135 1.0852-0.3135 2.1993t0.3135 2.209q0.31833 1.09 0.9598 2.1945h-0.7717q-0.72347-1.1334-1.0852-2.2283-0.35691-1.0949-0.35691-2.1752 0-1.0756 0.35691-2.1656 0.35691-1.09 1.0852-2.2283z"/>
  <path d="m27.013 66.888q-0.69453 0-1.0949 0.37138-0.3955 0.37138-0.3955 1.0225t0.3955 1.0225q0.40032 0.37138 1.0949 0.37138t1.0949-0.37138q0.40032-0.3762 0.40032-1.0225 0-0.65112-0.40032-1.0225-0.3955-0.37138-1.0949-0.37138zm-0.97427-0.41479q-0.62701-0.15434-0.9791-0.5836-0.34726-0.42926-0.34726-1.0466 0-0.86334 0.61254-1.3649 0.61736-0.50161 1.6881-0.50161 1.0756 0 1.6881 0.50161t0.61254 1.3649q0 0.61736-0.35209 1.0466-0.34726 0.42926-0.96945 0.5836 0.70418 0.16399 1.0949 0.64148 0.3955 0.47749 0.3955 1.1672 0 1.0466-0.64148 1.6061-0.63665 0.55948-1.828 0.55948t-1.8328-0.55948q-0.63665-0.55948-0.63665-1.6061 0-0.68971 0.3955-1.1672 0.3955-0.47749 1.0997-0.64148zm-0.35691-1.5386q0 0.55948 0.34727 0.87299 0.35209 0.3135 0.98392 0.3135 0.62701 0 0.9791-0.3135 0.35691-0.3135 0.35691-0.87299 0-0.55948-0.35691-0.87299-0.35209-0.3135-0.9791-0.3135-0.63183 0-0.98392 0.3135-0.34727 0.3135-0.34727 0.87299z"/>
  <path d="m35.579 67.047v3.2604h-0.88746v-3.2315q0-0.76688-0.29903-1.1479-0.29904-0.38103-0.8971-0.38103-0.71865 0-1.1334 0.4582-0.41479 0.4582-0.41479 1.2492v3.053h-0.89228v-5.4019h0.89228v0.83922q0.31833-0.48714 0.74759-0.72829 0.43408-0.24116 0.99839-0.24116 0.93086 0 1.4084 0.57878 0.47749 0.57395 0.47749 1.6929z"/>
  <path d="m44.102 64.114v2.6865h2.6865v0.81993h-2.6865v2.6865h-0.81029v-2.6865h-2.6865v-0.81993h2.6865v-2.6865z"/>
  <path d="m55.793 65.113v0.82958q-0.3762-0.2074-0.75723-0.30868-0.3762-0.10611-0.76206-0.10611-0.86334 0-1.3408 0.54984-0.47749 0.54501-0.47749 1.5338 0 0.98874 0.47749 1.5386 0.47749 0.54501 1.3408 0.54501 0.38585 0 0.76206-0.10129 0.38103-0.10611 0.75723-0.3135v0.81993q-0.37138 0.17363-0.7717 0.26045-0.3955 0.08682-0.84405 0.08682-1.2203 0-1.9389-0.76688-0.71865-0.76688-0.71865-2.0691 0-1.3215 0.72347-2.0788 0.72829-0.75723 1.992-0.75723 0.40997 0 0.80064 0.08682 0.39067 0.08199 0.75723 0.2508z"/>
  <path d="m61.827 67.047v3.2604h-0.88746v-3.2315q0-0.76688-0.29903-1.1479-0.29903-0.38103-0.8971-0.38103-0.71865 0-1.1334 0.4582-0.41479 0.4582-0.41479 1.2492v3.053h-0.89228v-5.4019h0.89228v0.83922q0.31833-0.48714 0.74759-0.72829 0.43408-0.24116 0.99839-0.24116 0.93086 0 1.4084 0.57878 0.47749 0.57395 0.47749 1.6929z"/>
  <path d="m63.457 62.812h0.7717q0.72347 1.1383 1.0804 2.2283 0.36174 1.09 0.36174 2.1656 0 1.0804-0.36174 2.1752-0.35691 1.0949-1.0804 2.2283h-0.7717q0.64148-1.1045 0.95498-2.1945 0.31833-1.0949 0.31833-2.209t-0.31833-2.1993q-0.3135-1.0852-0.95498-2.1945z"/>
  <path d="m73.393 63.955-2.4598 3.844h2.4598zm-0.25563-0.84887h1.2251v4.6929h1.0273v0.81029h-1.0273v1.6977h-0.96945v-1.6977h-3.2508v-0.94051z"/>
  <path d="m81.365 67.047v3.2604h-0.88746v-3.2315q0-0.76688-0.29903-1.1479-0.29904-0.38103-0.8971-0.38103-0.71865 0-1.1334 0.4582t-0.41479 1.2492v3.053h-0.89228v-5.4019h0.89228v0.83922q0.31833-0.48714 0.74759-0.72829 0.43408-0.24116 0.99839-0.24116 0.93086 0 1.4084 0.57878 0.47749 0.57395 0.47749 1.6929z"/>
  <path d="m4.692 77.412v0.83923q-0.3762-0.19293-0.78135-0.28939-0.40514-0.09646-0.83923-0.09646-0.66077 0-0.99357 0.20257-0.32797 0.20257-0.32797 0.60772 0 0.30868 0.23633 0.48714 0.23633 0.17363 0.95016 0.3328l0.30386 0.06752q0.94533 0.20257 1.3408 0.57395 0.40032 0.36656 0.40032 1.0273 0 0.75241-0.59807 1.1913-0.59325 0.43891-1.635 0.43891-0.43408 0-0.90675-0.08682-0.46784-0.08199-0.98874-0.2508v-0.9164q0.49196 0.25563 0.96945 0.38585 0.47749 0.1254 0.94533 0.1254 0.62701 0 0.96463-0.21222 0.33762-0.21704 0.33762-0.60772 0-0.36174-0.24598-0.55466-0.24116-0.19292-1.0659-0.37138l-0.30868-0.072347q-0.82476-0.17363-1.1913-0.53054-0.36656-0.36174-0.36656-0.98874 0-0.76206 0.54019-1.1768 0.54019-0.41479 1.5338-0.41479 0.49196 0 0.92604 0.07235t0.80064 0.21704z"/>
  <path d="m9.6502 78.169h6.1833v0.81029h-6.1833zm0 1.9678h6.1833v0.81993h-6.1833z"/>
  <path d="m23.28 78.666q-0.65595 0-1.0418 0.44855-0.38103 0.44855-0.38103 1.2299 0 0.77652 0.38103 1.2299 0.38585 0.44855 1.0418 0.44855t1.037-0.44855q0.38585-0.45338 0.38585-1.2299 0-0.78135-0.38585-1.2299-0.38103-0.44855-1.037-0.44855zm1.9341-3.053v0.88746q-0.36656-0.17363-0.74276-0.26527-0.37138-0.09164-0.73794-0.09164-0.96463 0-1.4759 0.65112-0.50643 0.65112-0.57878 1.9678 0.28456-0.41961 0.71382-0.64148 0.42926-0.22669 0.94534-0.22669 1.0852 0 1.7122 0.66077 0.63183 0.65595 0.63183 1.7894 0 1.1093-0.65595 1.7797-0.65595 0.67042-1.746 0.67042-1.2492 0-1.91-0.95498-0.66077-0.9598-0.66077-2.7781 0-1.7074 0.81029-2.7202 0.81029-1.0177 2.1752-1.0177 0.36656 0 0.73794 0.07235 0.3762 0.07235 0.78135 0.21704z"/>
  <path d="m30.038 76.302-2.4598 3.844h2.4598zm-0.25563-0.84887h1.2251v4.6929h1.0273v0.81029h-1.0273v1.6977h-0.96945v-1.6977h-3.2508v-0.94051z"/>
  <path d="m38.01 79.394v3.2604h-0.88746v-3.2315q0-0.76688-0.29903-1.1479-0.29903-0.38103-0.8971-0.38103-0.71865 0-1.1334 0.4582-0.41479 0.4582-0.41479 1.2492v3.053h-0.89228v-5.4019h0.89228v0.83922q0.31833-0.48714 0.74759-0.72829 0.43408-0.24116 0.99839-0.24116 0.93086 0 1.4084 0.57878 0.47749 0.57395 0.47749 1.6929z"/>
  <path d="m46.533 76.462v2.6865h2.6865v0.81993h-2.6865v2.6865h-0.81029v-2.6865h-2.6865v-0.81993h2.6865v-2.6865z"/>
  <path d="m58.224 77.46v0.82958q-0.3762-0.2074-0.75723-0.30868-0.3762-0.10611-0.76206-0.10611-0.86334 0-1.3408 0.54984-0.47749 0.54501-0.47749 1.5338 0 0.98874 0.47749 1.5386 0.47749 0.54501 1.3408 0.54501 0.38585 0 0.76206-0.10129 0.38103-0.10611 0.75723-0.3135v0.81993q-0.37138 0.17363-0.7717 0.26045-0.3955 0.08682-0.84405 0.08682-1.2203 0-1.9389-0.76688-0.71865-0.76688-0.71865-2.0691 0-1.3215 0.72347-2.0788 0.72829-0.75723 1.992-0.75723 0.40997 0 0.80064 0.08682 0.39067 0.08199 0.75723 0.2508z"/>
  <path d="m64.258 79.394v3.2604h-0.88746v-3.2315q0-0.76688-0.29903-1.1479-0.29904-0.38103-0.8971-0.38103-0.71865 0-1.1334 0.4582-0.41479 0.4582-0.41479 1.2492v3.053h-0.89228v-5.4019h0.89228v0.83922q0.31833-0.48714 0.74759-0.72829 0.43408-0.24116 0.99839-0.24116 0.93086 0 1.4084 0.57878 0.47749 0.57395 0.47749 1.6929z"/>
  <path d="m4.692 89.759v0.83923q-0.3762-0.19293-0.78135-0.28939-0.40514-0.09646-0.83923-0.09646-0.66077 0-0.99357 0.20257-0.32797 0.20257-0.32797 0.60772 0 0.30868 0.23633 0.48714 0.23633 0.17363 0.95016 0.3328l0.30386 0.06752q0.94533 0.20257 1.3408 0.57395 0.40032 0.36656 0.40032 1.0273 0 0.75241-0.59807 1.1913-0.59325 0.43891-1.635 0.43891-0.43408 0-0.90675-0.08682-0.46784-0.08199-0.98874-0.2508v-0.9164q0.49196 0.25563 0.96945 0.38585 0.47749 0.1254 0.94533 0.1254 0.62701 0 0.96463-0.21222 0.33762-0.21704 0.33762-0.60772 0-0.36174-0.24598-0.55466-0.24116-0.19292-1.0659-0.37138l-0.30868-0.072347q-0.82476-0.17363-1.1913-0.53054-0.36656-0.36174-0.36656-0.98874 0-0.76206 0.54019-1.1768 0.54019-0.41479 1.5338-0.41479 0.49196 0 0.92604 0.07235t0.80064 0.21704z"/>
  <path d="m9.6502 90.516h6.1833v0.81029h-6.1833zm0 1.9678h6.1833v0.81993h-6.1833z"/>
  <path d="m23.083 87.506q-0.6463 1.1093-0.9598 2.1945-0.3135 1.0852-0.3135 2.1993t0.3135 2.209q0.31833 1.09 0.9598 2.1945h-0.7717q-0.72347-1.1334-1.0852-2.2283-0.35691-1.0949-0.35691-2.1752 0-1.0756 0.35691-2.1656 0.35691-1.09 1.0852-2.2283z"/>
  <path d="m27.134 91.013q-0.65595 0-1.0418 0.44855-0.38103 0.44855-0.38103 1.2299 0 0.77652 0.38103 1.2299 0.38585 0.44855 1.0418 0.44855 0.65595 0 1.037-0.44855 0.38585-0.45338 0.38585-1.2299 0-0.78135-0.38585-1.2299-0.38103-0.44855-1.037-0.44855zm1.9341-3.053v0.88746q-0.36656-0.17363-0.74276-0.26527-0.37138-0.09164-0.73794-0.09164-0.96463 0-1.4759 0.65112-0.50643 0.65112-0.57878 1.9678 0.28456-0.41961 0.71382-0.64148 0.42926-0.22669 0.94533-0.22669 1.0852 0 1.7122 0.66077 0.63183 0.65595 0.63183 1.7894 0 1.1093-0.65595 1.7797-0.65595 0.67042-1.746 0.67042-1.2492 0-1.91-0.95498-0.66077-0.9598-0.66077-2.7781 0-1.7074 0.81029-2.7202 0.81029-1.0177 2.1752-1.0177 0.36656 0 0.73794 0.07235 0.3762 0.07235 0.78135 0.21704z"/>
  <path d="m33.891 88.65-2.4598 3.844h2.4598zm-0.25563-0.84887h1.2251v4.6929h1.0273v0.81029h-1.0273v1.6977h-0.96945v-1.6977h-3.2508v-0.94051z"/>
  <path d="m44.126 88.809v2.6865h2.6865v0.81993h-2.6865v2.6865h-0.81029v-2.6865h-2.6865v-0.81993h2.6865v-2.6865z"/>
  <path d="m52.677 89.807v0.82958q-0.3762-0.2074-0.75723-0.30868-0.3762-0.10611-0.76206-0.10611-0.86334 0-1.3408 0.54984-0.47749 0.54501-0.47749 1.5338 0 0.98874 0.47749 1.5386 0.47749 0.54502 1.3408 0.54502 0.38585 0 0.76206-0.10129 0.38103-0.10611 0.75723-0.3135v0.81993q-0.37138 0.17363-0.7717 0.26045-0.3955 0.08682-0.84405 0.08682-1.2203 0-1.9389-0.76688-0.71865-0.76688-0.71865-2.0691 0-1.3215 0.72347-2.0788 0.72829-0.75723 1.992-0.75723 0.40997 0 0.80064 0.08682 0.39067 0.08199 0.75723 0.2508z"/>
  <path d="m54.081 87.506h0.7717q0.72347 1.1383 1.0804 2.2283 0.36174 1.09 0.36174 2.1656 0 1.0804-0.36174 2.1752-0.35691 1.0949-1.0804 2.2283h-0.7717q0.64148-1.1045 0.95498-2.1945 0.31833-1.0949 0.31833-2.209t-0.31833-2.1993q-0.3135-1.0852-0.95498-2.1945z"/>
  <path d="m62.565 91.741v3.2604h-0.88746v-3.2315q0-0.76688-0.29903-1.1479-0.29903-0.38103-0.8971-0.38103-0.71865 0-1.1334 0.4582-0.41479 0.4582-0.41479 1.2492v3.053h-0.89228v-5.4019h0.89228v0.83922q0.31833-0.48714 0.74758-0.72829 0.43408-0.24116 0.99839-0.24116 0.93086 0 1.4084 0.57878 0.47749 0.57395 0.47749 1.6929z"/>
 </g>
 <rect x="132.8" y="42.522" width="79.387" height="49.465" fill="#fff" stop-color="#000000" stroke="#00c900" stroke-width="2.6458"/>
 <g stroke-width=".26458" aria-label="Still n squared, but multiplied by a larger constant">
  <path d="m144.71 47.377v0.84275q-0.49197-0.23529-0.92832-0.35079-0.43635-0.1155-0.84275-0.1155-0.70586 0-1.0909 0.27379-0.38074 0.27379-0.38074 0.77858 0 0.42352 0.2524 0.64169 0.25668 0.2139 0.96681 0.34651l0.52191 0.10695q0.96681 0.18395 1.4246 0.65025 0.46202 0.46202 0.46202 1.2406 0 0.92831-0.62458 1.4074-0.6203 0.47913-1.8224 0.47913-0.45346 0-0.96681-0.10267-0.50908-0.10267-1.0566-0.30373v-0.88981q0.52618 0.29518 1.031 0.4449t0.99248 0.14973q0.74008 0 1.1422-0.2909 0.40213-0.2909 0.40213-0.82992 0-0.47057-0.2909-0.7358-0.28663-0.26523-0.94543-0.39785l-0.52618-0.10267q-0.96682-0.19251-1.3989-0.60319t-0.43207-1.1422q0-0.84703 0.59463-1.3347 0.59891-0.48768 1.647-0.48768 0.44918 0 0.91548 0.08128 0.46629 0.08128 0.95398 0.24384z"/>
  <path d="m147.18 47.403v1.3604h1.6213v0.61174h-1.6213v2.601q0 0.58608 0.15828 0.75292 0.16256 0.16684 0.65453 0.16684h0.80853v0.6588h-0.80853q-0.9112 0-1.2577-0.33796-0.34651-0.34224-0.34651-1.2406v-2.601h-0.57752v-0.61174h0.57752v-1.3604z"/>
  <path d="m149.84 48.763h0.78714v4.7913h-0.78714zm0-1.8652h0.78714v0.99676h-0.78714z"/>
  <path d="m152.27 46.898h0.78714v6.6565h-0.78714z"/>
  <path d="m154.71 46.898h0.78714v6.6565h-0.78714z"/>
  <path d="m163.91 50.663v2.8919h-0.78714v-2.8662q0-0.68019-0.26523-1.0181t-0.79569-0.33796q-0.63742 0-1.0053 0.4064t-0.3679 1.108v2.7079h-0.79142v-4.7913h0.79142v0.74436q0.28234-0.43207 0.66308-0.64597 0.38501-0.2139 0.88553-0.2139 0.82564 0 1.2492 0.51335 0.42351 0.50907 0.42351 1.5016z"/>
  <path d="m171.32 48.905v0.74436q-0.33368-0.17112-0.69303-0.25668-0.35934-0.08556-0.74436-0.08556-0.58608 0-0.88125 0.17967-0.2909 0.17967-0.2909 0.53902 0 0.27379 0.20962 0.43207 0.20962 0.15401 0.84275 0.29518l0.26951 0.05989q0.83847 0.17967 1.1893 0.50907 0.35506 0.32512 0.35506 0.9112 0 0.66736-0.53046 1.0566-0.52619 0.38929-1.4502 0.38929-0.38501 0-0.80425-0.077-0.41496-0.07272-0.87698-0.22245v-0.81281q0.43635 0.22673 0.85987 0.34224 0.42351 0.11123 0.83847 0.11123 0.55613 0 0.85559-0.18823 0.29945-0.19251 0.29945-0.53902 0-0.32084-0.21817-0.49196-0.2139-0.17112-0.94542-0.3294l-0.27379-0.06417q-0.73153-0.15401-1.0566-0.47057-0.32512-0.32084-0.32512-0.87698 0-0.67591 0.47912-1.0438 0.47913-0.3679 1.3604-0.3679 0.43635 0 0.82136 0.06417t0.71014 0.19251z"/>
  <path d="m173.3 51.163q0 0.86842 0.35507 1.3647 0.35935 0.49196 0.98393 0.49196 0.62457 0 0.98392-0.49196 0.35935-0.49624 0.35935-1.3647 0-0.86842-0.35935-1.3604-0.35935-0.49624-0.98392-0.49624-0.62458 0-0.98393 0.49624-0.35507 0.49196-0.35507 1.3604zm2.6823 1.6727q-0.24812 0.42779-0.62886 0.63741-0.37646 0.20534-0.90692 0.20534-0.86842 0-1.416-0.69302-0.5433-0.69303-0.5433-1.8224 0-1.1294 0.5433-1.8224 0.54758-0.69302 1.416-0.69302 0.53046 0 0.90692 0.20962 0.38074 0.20534 0.62886 0.63313v-0.72725h0.78714v6.6137h-0.78714z"/>
  <path d="m178.31 51.664v-2.9004h0.78714v2.8705q0 0.68019 0.26523 1.0224 0.26524 0.33796 0.7957 0.33796 0.63741 0 1.0053-0.4064 0.37218-0.4064 0.37218-1.108v-2.7165h0.78714v4.7913h-0.78714v-0.7358q-0.28662 0.43635-0.66735 0.65025-0.37646 0.20962-0.87698 0.20962-0.82564 0-1.2534-0.51335-0.42779-0.51335-0.42779-1.5016z"/>
  <path d="m186.12 51.146q-0.95398 0-1.3219 0.21817-0.3679 0.21818-0.3679 0.74436 0 0.41924 0.27379 0.66736 0.27806 0.24384 0.75291 0.24384 0.65453 0 1.0481-0.46202 0.39784-0.4663 0.39784-1.2363v-0.1754zm1.57-0.32512v2.7336h-0.78714v-0.72725q-0.26951 0.43635-0.67163 0.64597-0.40213 0.20534-0.98393 0.20534-0.7358 0-1.1722-0.41068-0.43207-0.41496-0.43207-1.108 0-0.80853 0.53902-1.2192 0.5433-0.41068 1.6171-0.41068h1.1037v-0.077q0-0.5433-0.35934-0.83848-0.35507-0.29946-1.001-0.29946-0.41068 0-0.79997 0.09839t-0.74864 0.29518v-0.72725q0.43207-0.16684 0.83847-0.24812 0.40641-0.08556 0.79142-0.08556 1.0395 0 1.5529 0.53902 0.51335 0.53902 0.51335 1.6342z"/>
  <path d="m192.09 49.499q-0.13261-0.077-0.2909-0.11123-0.154-0.0385-0.34223-0.0385-0.66736 0-1.0267 0.43635-0.35507 0.43207-0.35507 1.2449v2.524h-0.79141v-4.7913h0.79141v0.74436q0.24812-0.43635 0.64597-0.64597 0.39785-0.2139 0.96682-0.2139 0.0813 0 0.17967 0.01283 0.0984 0.0086 0.21817 0.02995z"/>
  <path d="m196.82 50.962v0.38502h-3.6191q0.0513 0.81281 0.48769 1.2406 0.44062 0.42352 1.2235 0.42352 0.45346 0 0.87697-0.11123 0.4278-0.11123 0.84703-0.33368v0.74436q-0.42351 0.17967-0.86842 0.27379-0.4449 0.09411-0.90264 0.09411-1.1465 0-1.8181-0.66736-0.66736-0.66736-0.66736-1.8053 0-1.1764 0.63313-1.8652 0.63742-0.69302 1.7155-0.69302 0.96681 0 1.5272 0.62458 0.56469 0.6203 0.56469 1.6898zm-0.78714-0.23101q-9e-3 -0.64597-0.36363-1.031-0.35079-0.38501-0.93259-0.38501-0.6588 0-1.0566 0.37218-0.39357 0.37218-0.45346 1.0481z"/>
  <path d="m201.26 49.491v-2.5924h0.78714v6.6565h-0.78714v-0.71869q-0.24812 0.42779-0.62886 0.63741-0.37646 0.20534-0.90692 0.20534-0.86842 0-1.416-0.69302-0.54329-0.69303-0.54329-1.8224 0-1.1294 0.54329-1.8224 0.54758-0.69302 1.416-0.69302 0.53046 0 0.90692 0.20962 0.38074 0.20534 0.62886 0.63313zm-2.6823 1.6727q0 0.86842 0.35507 1.3647 0.35935 0.49196 0.98393 0.49196t0.98392-0.49196q0.35935-0.49624 0.35935-1.3647 0-0.86842-0.35935-1.3604-0.35934-0.49624-0.98392-0.49624t-0.98393 0.49624q-0.35507 0.49196-0.35507 1.3604z"/>
  <path d="m203.87 52.468h0.90265v0.7358l-0.70159 1.3689h-0.55185l0.35079-1.3689z"/>
  <path d="m144.28 62.115q0-0.86842-0.35935-1.3604-0.35507-0.49624-0.97964-0.49624-0.62458 0-0.98393 0.49624-0.35507 0.49196-0.35507 1.3604 0 0.86842 0.35507 1.3647 0.35935 0.49196 0.98393 0.49196 0.62457 0 0.97964-0.49196 0.35935-0.49624 0.35935-1.3647zm-2.678-1.6727q0.24812-0.42779 0.62458-0.63313 0.38074-0.20962 0.90692-0.20962 0.8727 0 1.416 0.69302 0.54758 0.69303 0.54758 1.8224 0 1.1294-0.54758 1.8224-0.5433 0.69302-1.416 0.69302-0.52618 0-0.90692-0.20534-0.37646-0.20962-0.62458-0.63741v0.71869h-0.79142v-6.6565h0.79142z"/>
  <path d="m146.32 62.615v-2.9004h0.78714v2.8705q0 0.68019 0.26524 1.0224 0.26523 0.33796 0.79569 0.33796 0.63741 0 1.0053-0.4064 0.37218-0.4064 0.37218-1.108v-2.7165h0.78714v4.7913h-0.78714v-0.7358q-0.28662 0.43635-0.66736 0.65025-0.37646 0.20962-0.87698 0.20962-0.82564 0-1.2534-0.51335-0.4278-0.51335-0.4278-1.5016z"/>
  <path d="m152.74 58.354v1.3604h1.6213v0.61174h-1.6213v2.601q0 0.58608 0.15828 0.75292 0.16256 0.16684 0.65453 0.16684h0.80853v0.6588h-0.80853q-0.9112 0-1.2577-0.33796-0.34651-0.34224-0.34651-1.2406v-2.601h-0.57752v-0.61174h0.57752v-1.3604z"/>
  <path d="m161.91 60.635q0.29518-0.53046 0.70586-0.78286t0.96681-0.2524q0.74864 0 1.155 0.52619 0.40641 0.52191 0.40641 1.4887v2.8919h-0.79142v-2.8662q0-0.68875-0.24384-1.0224t-0.74436-0.33368q-0.61175 0-0.96682 0.4064-0.35506 0.4064-0.35506 1.108v2.7079h-0.79142v-2.8662q0-0.69303-0.24384-1.0224-0.24385-0.33368-0.75292-0.33368-0.60319 0-0.95826 0.41068-0.35507 0.4064-0.35507 1.1037v2.7079h-0.79141v-4.7913h0.79141v0.74436q0.26951-0.44063 0.64597-0.65025 0.37646-0.20962 0.89409-0.20962 0.52191 0 0.88553 0.26523 0.3679 0.26523 0.5433 0.77003z"/>
  <path d="m166.63 62.615v-2.9004h0.78714v2.8705q0 0.68019 0.26523 1.0224 0.26523 0.33796 0.7957 0.33796 0.63741 0 1.0053-0.4064 0.37218-0.4064 0.37218-1.108v-2.7165h0.78714v4.7913h-0.78714v-0.7358q-0.28662 0.43635-0.66735 0.65025-0.37646 0.20962-0.87698 0.20962-0.82564 0-1.2534-0.51335-0.42779-0.51335-0.42779-1.5016z"/>
  <path d="m172.26 57.85h0.78714v6.6565h-0.78714z"/>
  <path d="m175.48 58.354v1.3604h1.6213v0.61174h-1.6213v2.601q0 0.58608 0.15828 0.75292 0.16257 0.16684 0.65453 0.16684h0.80853v0.6588h-0.80853q-0.9112 0-1.2577-0.33796-0.34651-0.34224-0.34651-1.2406v-2.601h-0.57752v-0.61174h0.57752v-1.3604z"/>
  <path d="m178.13 59.715h0.78714v4.7913h-0.78714zm0-1.8652h0.78714v0.99676h-0.78714z"/>
  <path d="m181.33 63.787v2.5411h-0.79142v-6.6137h0.79142v0.72725q0.24812-0.42779 0.62457-0.63313 0.38074-0.20962 0.90693-0.20962 0.8727 0 1.416 0.69302 0.54758 0.69303 0.54758 1.8224 0 1.1294-0.54758 1.8224-0.54329 0.69302-1.416 0.69302-0.52619 0-0.90693-0.20534-0.37645-0.20962-0.62457-0.63741zm2.678-1.6727q0-0.86842-0.35934-1.3604-0.35507-0.49624-0.97965-0.49624t-0.98393 0.49624q-0.35506 0.49196-0.35506 1.3604 0 0.86842 0.35506 1.3647 0.35935 0.49196 0.98393 0.49196t0.97965-0.49196q0.35934-0.49624 0.35934-1.3647z"/>
  <path d="m186.13 57.85h0.78714v6.6565h-0.78714z"/>
  <path d="m188.56 59.715h0.78714v4.7913h-0.78714zm0-1.8652h0.78714v0.99676h-0.78714z"/>
  <path d="m195.1 61.914v0.38502h-3.6191q0.0513 0.81281 0.48768 1.2406 0.44063 0.42352 1.2235 0.42352 0.45346 0 0.87698-0.11123 0.42779-0.11123 0.84703-0.33368v0.74436q-0.42352 0.17967-0.86842 0.27379-0.44491 0.09411-0.90265 0.09411-1.1465 0-1.8181-0.66736-0.66736-0.66736-0.66736-1.8053 0-1.1764 0.63314-1.8652 0.63741-0.69302 1.7154-0.69302 0.96681 0 1.5272 0.62458 0.56469 0.6203 0.56469 1.6898zm-0.78714-0.23101q-9e-3 -0.64597-0.36363-1.031-0.35079-0.38501-0.93259-0.38501-0.6588 0-1.0566 0.37218-0.39357 0.37218-0.45346 1.0481z"/>
  <path d="m199.54 60.442v-2.5924h0.78714v6.6565h-0.78714v-0.71869q-0.24812 0.42779-0.62885 0.63741-0.37646 0.20534-0.90693 0.20534-0.86842 0-1.416-0.69302-0.5433-0.69303-0.5433-1.8224 0-1.1294 0.5433-1.8224 0.54757-0.69302 1.416-0.69302 0.53047 0 0.90693 0.20962 0.38073 0.20534 0.62885 0.63313zm-2.6823 1.6727q0 0.86842 0.35507 1.3647 0.35934 0.49196 0.98392 0.49196t0.98393-0.49196q0.35934-0.49624 0.35934-1.3647 0-0.86842-0.35934-1.3604-0.35935-0.49624-0.98393-0.49624t-0.98392 0.49624q-0.35507 0.49196-0.35507 1.3604z"/>
  <path d="m144.28 73.066q0-0.86842-0.35935-1.3604-0.35507-0.49624-0.97964-0.49624-0.62458 0-0.98393 0.49624-0.35507 0.49196-0.35507 1.3604 0 0.86842 0.35507 1.3647 0.35935 0.49196 0.98393 0.49196 0.62457 0 0.97964-0.49196 0.35935-0.49624 0.35935-1.3647zm-2.678-1.6727q0.24812-0.42779 0.62458-0.63313 0.38074-0.20962 0.90692-0.20962 0.8727 0 1.416 0.69302 0.54758 0.69303 0.54758 1.8224 0 1.1294-0.54758 1.8224-0.5433 0.69302-1.416 0.69302-0.52618 0-0.90692-0.20534-0.37646-0.20962-0.62458-0.63741v0.71869h-0.79142v-6.6565h0.79142z"/>
  <path d="m148.4 75.903q-0.33368 0.85559-0.65024 1.1165-0.31657 0.26095-0.84703 0.26095h-0.62886v-0.6588h0.46202q0.32512 0 0.50479-0.154 0.17968-0.15401 0.39785-0.72725l0.14117-0.35935-1.9379-4.7143h0.8342l1.4973 3.7475 1.4973-3.7475h0.8342z"/>
  <path d="m156.55 73.049q-0.95398 0-1.3219 0.21817-0.3679 0.21818-0.3679 0.74436 0 0.41924 0.27379 0.66736 0.27807 0.24384 0.75292 0.24384 0.65452 0 1.0481-0.46202 0.39785-0.4663 0.39785-1.2363v-0.1754zm1.57-0.32512v2.7336h-0.78714v-0.72725q-0.26951 0.43635-0.67164 0.64597-0.40212 0.20534-0.98392 0.20534-0.73581 0-1.1722-0.41068-0.43207-0.41496-0.43207-1.108 0-0.80853 0.53902-1.2192 0.5433-0.41068 1.6171-0.41068h1.1037v-0.077q0-0.5433-0.35935-0.83848-0.35507-0.29946-1.001-0.29946-0.41068 0-0.79997 0.09839t-0.74864 0.29518v-0.72725q0.43207-0.16684 0.83848-0.24812 0.4064-0.08556 0.79142-0.08556 1.0395 0 1.5529 0.53902 0.51335 0.53902 0.51335 1.6342z"/>
  <path d="m162.53 68.801h0.78714v6.6565h-0.78714z"/>
  <path d="m167.14 73.049q-0.95397 0-1.3219 0.21817-0.3679 0.21818-0.3679 0.74436 0 0.41924 0.27379 0.66736 0.27806 0.24384 0.75291 0.24384 0.65453 0 1.0481-0.46202 0.39785-0.4663 0.39785-1.2363v-0.1754zm1.57-0.32512v2.7336h-0.78714v-0.72725q-0.26951 0.43635-0.67164 0.64597-0.40212 0.20534-0.98392 0.20534-0.73581 0-1.1722-0.41068-0.43207-0.41496-0.43207-1.108 0-0.80853 0.53902-1.2192 0.5433-0.41068 1.6171-0.41068h1.1037v-0.077q0-0.5433-0.35935-0.83848-0.35507-0.29946-1.001-0.29946-0.41068 0-0.79997 0.09839t-0.74864 0.29518v-0.72725q0.43207-0.16684 0.83848-0.24812 0.4064-0.08556 0.79141-0.08556 1.0395 0 1.5529 0.53902 0.51336 0.53902 0.51336 1.6342z"/>
  <path d="m173.11 71.402q-0.13261-0.077-0.2909-0.11123-0.154-0.0385-0.34223-0.0385-0.66736 0-1.0267 0.43635-0.35507 0.43207-0.35507 1.2449v2.524h-0.79142v-4.7913h0.79142v0.74436q0.24812-0.43635 0.64597-0.64597 0.39784-0.2139 0.96681-0.2139 0.0813 0 0.17967 0.01283 0.0984 0.0086 0.21818 0.02995z"/>
  <path d="m176.93 73.006q0-0.85559-0.35507-1.3262-0.35079-0.47057-0.9882-0.47057-0.63314 0-0.9882 0.47057-0.3508 0.47057-0.3508 1.3262 0 0.85131 0.3508 1.3219 0.35506 0.47057 0.9882 0.47057 0.63741 0 0.9882-0.47057 0.35507-0.47057 0.35507-1.3219zm0.78714 1.8566q0 1.2235-0.5433 1.8181-0.5433 0.59891-1.6641 0.59891-0.41496 0-0.78287-0.06417-0.3679-0.05989-0.71441-0.18823v-0.76575q0.34651 0.18823 0.68447 0.27807 0.33795 0.08984 0.68875 0.08984 0.7743 0 1.1593-0.4064 0.38501-0.40213 0.38501-1.2192v-0.38929q-0.24384 0.42352-0.62458 0.63313-0.38073 0.20962-0.9112 0.20962-0.88125 0-1.4203-0.67164t-0.53902-1.7796q0-1.1123 0.53902-1.7839 0.53902-0.67164 1.4203-0.67164 0.53047 0 0.9112 0.20962 0.38074 0.20962 0.62458 0.63313v-0.72725h0.78714z"/>
  <path d="m183.44 72.865v0.38501h-3.6191q0.0513 0.81281 0.48769 1.2406 0.44063 0.42352 1.2235 0.42352 0.45346 0 0.87697-0.11123 0.4278-0.11123 0.84704-0.33368v0.74436q-0.42352 0.17967-0.86842 0.27379-0.44491 0.09411-0.90265 0.09411-1.1465 0-1.8181-0.66736-0.66736-0.66736-0.66736-1.8053 0-1.1764 0.63314-1.8652 0.63741-0.69302 1.7154-0.69302 0.96681 0 1.5272 0.62458 0.56469 0.6203 0.56469 1.6898zm-0.78714-0.23101q-9e-3 -0.64597-0.36363-1.031-0.35079-0.38501-0.93259-0.38501-0.6588 0-1.0566 0.37218-0.39357 0.37218-0.45346 1.0481z"/>
  <path d="m187.51 71.402q-0.13261-0.077-0.2909-0.11123-0.154-0.0385-0.34223-0.0385-0.66736 0-1.0267 0.43635-0.35506 0.43207-0.35506 1.2449v2.524h-0.79142v-4.7913h0.79142v0.74436q0.24812-0.43635 0.64596-0.64597 0.39785-0.2139 0.96682-0.2139 0.0813 0 0.17967 0.01283 0.0984 0.0086 0.21817 0.02995z"/>
  <path d="m144.29 81.802v0.7358q-0.33368-0.18395-0.67164-0.27379-0.33368-0.09411-0.67591-0.09411-0.76575 0-1.1893 0.48768-0.42352 0.48341-0.42352 1.3604 0 0.87698 0.42352 1.3647 0.42352 0.48341 1.1893 0.48341 0.34223 0 0.67591-0.08984 0.33796-0.09412 0.67164-0.27807v0.72725q-0.32941 0.15401-0.68447 0.23101-0.35079 0.077-0.74864 0.077-1.0823 0-1.7197-0.68019-0.63741-0.68019-0.63741-1.8352 0-1.1722 0.64169-1.8438 0.64596-0.67164 1.7668-0.67164 0.36363 0 0.71014 0.077 0.34651 0.07272 0.67164 0.22245z"/>
  <path d="m147.52 82.17q-0.63314 0-1.001 0.49624-0.3679 0.49196-0.3679 1.3518 0 0.85986 0.36362 1.3561 0.36791 0.49196 1.0053 0.49196 0.62886 0 0.99676-0.49624 0.3679-0.49624 0.3679-1.3518 0-0.85131-0.3679-1.3476-0.3679-0.50052-0.99676-0.50052zm0-0.66736q1.0267 0 1.6128 0.66736t0.58608 1.8481q0 1.1764-0.58608 1.8481-0.58608 0.66736-1.6128 0.66736-1.031 0-1.6171-0.66736-0.5818-0.67164-0.5818-1.8481 0-1.1807 0.5818-1.8481 0.58608-0.66736 1.6171-0.66736z"/>
  <path d="m155 83.517v2.8919h-0.78714v-2.8662q0-0.68019-0.26523-1.0181t-0.79569-0.33796q-0.63742 0-1.0053 0.4064t-0.3679 1.108v2.7079h-0.79142v-4.7913h0.79142v0.74436q0.28234-0.43207 0.66308-0.64597 0.38501-0.2139 0.88553-0.2139 0.82564 0 1.2492 0.51335 0.42351 0.50907 0.42351 1.5016z"/>
  <path d="m159.63 81.759v0.74436q-0.33368-0.17112-0.69302-0.25668-0.35935-0.08556-0.74436-0.08556-0.58608 0-0.88126 0.17967-0.2909 0.17967-0.2909 0.53902 0 0.27379 0.20962 0.43207 0.20962 0.15401 0.84275 0.29518l0.26951 0.05989q0.83848 0.17967 1.1893 0.50907 0.35507 0.32512 0.35507 0.9112 0 0.66736-0.53047 1.0566-0.52618 0.38929-1.4502 0.38929-0.38501 0-0.80425-0.077-0.41496-0.07272-0.87697-0.22245v-0.81281q0.43635 0.22673 0.85986 0.34224 0.42352 0.11123 0.83848 0.11123 0.55613 0 0.85558-0.18823 0.29946-0.19251 0.29946-0.53902 0-0.32084-0.21818-0.49196-0.21389-0.17112-0.94542-0.3294l-0.27379-0.06417q-0.73152-0.15401-1.0566-0.47057-0.32512-0.32084-0.32512-0.87698 0-0.67591 0.47913-1.0438 0.47913-0.3679 1.3604-0.3679 0.43635 0 0.82136 0.06417 0.38502 0.06417 0.71014 0.19251z"/>
  <path d="m161.92 80.258v1.3604h1.6213v0.61174h-1.6213v2.601q0 0.58608 0.15828 0.75292 0.16256 0.16684 0.65453 0.16684h0.80852v0.6588h-0.80852q-0.9112 0-1.2577-0.33796-0.34651-0.34224-0.34651-1.2406v-2.601h-0.57752v-0.61174h0.57752v-1.3604z"/>
  <path d="m166.75 84.001q-0.95398 0-1.3219 0.21817-0.3679 0.21818-0.3679 0.74436 0 0.41924 0.27379 0.66736 0.27806 0.24384 0.75291 0.24384 0.65453 0 1.0481-0.46202 0.39785-0.4663 0.39785-1.2363v-0.1754zm1.57-0.32512v2.7336h-0.78714v-0.72725q-0.26951 0.43635-0.67164 0.64597-0.40213 0.20534-0.98393 0.20534-0.7358 0-1.1722-0.41068-0.43207-0.41496-0.43207-1.108 0-0.80853 0.53902-1.2192 0.5433-0.41068 1.6171-0.41068h1.1037v-0.077q0-0.5433-0.35935-0.83848-0.35507-0.29946-1.001-0.29946-0.41068 0-0.79997 0.09839t-0.74864 0.29518v-0.72725q0.43207-0.16684 0.83847-0.24812 0.40641-0.08556 0.79142-0.08556 1.0395 0 1.5529 0.53902 0.51336 0.53902 0.51336 1.6342z"/>
  <path d="m173.92 83.517v2.8919h-0.78714v-2.8662q0-0.68019-0.26523-1.0181t-0.7957-0.33796q-0.63741 0-1.0053 0.4064t-0.3679 1.108v2.7079h-0.79142v-4.7913h0.79142v0.74436q0.28234-0.43207 0.66308-0.64597 0.38501-0.2139 0.88553-0.2139 0.82564 0 1.2492 0.51335 0.42352 0.50907 0.42352 1.5016z"/>
  <path d="m176.27 80.258v1.3604h1.6213v0.61174h-1.6213v2.601q0 0.58608 0.15828 0.75292 0.16256 0.16684 0.65452 0.16684h0.80853v0.6588h-0.80853q-0.9112 0-1.2577-0.33796-0.34651-0.34224-0.34651-1.2406v-2.601h-0.57752v-0.61174h0.57752v-1.3604z"/>
 </g>
 <g stroke-width=".26458" aria-label="2">
  <path d="m38.984 76.76h1.4573v0.3514h-1.9596v-0.3514q0.23771-0.24598 0.64698-0.65939 0.41134-0.41548 0.51676-0.53536 0.2005-0.22531 0.27905-0.38034 0.08061-0.1571 0.08061-0.30799 0-0.24598-0.17363-0.40101-0.17156-0.15503-0.44855-0.15503-0.19637 0-0.41548 0.06821-0.21704 0.06821-0.46508 0.2067v-0.42168q0.25218-0.10128 0.47129-0.15296 0.21911-0.05168 0.40101-0.05168 0.47955 0 0.7648 0.23978 0.28525 0.23978 0.28525 0.64078 0 0.19017-0.07235 0.36173-0.07028 0.1695-0.25838 0.40101-0.05168 0.05995-0.32866 0.34726-0.27698 0.28525-0.78134 0.79994z"/>
  <path d="m65.659 76.797h1.4573v0.3514h-1.9596v-0.3514q0.23771-0.24598 0.64698-0.65939 0.41134-0.41548 0.51676-0.53536 0.2005-0.22531 0.27905-0.38034 0.08061-0.1571 0.08061-0.30799 0-0.24598-0.17363-0.40101-0.17156-0.15503-0.44855-0.15503-0.19637 0-0.41548 0.06821-0.21704 0.06821-0.46508 0.2067v-0.42168q0.25218-0.10128 0.47128-0.15296 0.21911-0.05168 0.40101-0.05168 0.47955 0 0.7648 0.23978 0.28525 0.23978 0.28525 0.64078 0 0.19017-0.07235 0.36173-0.07028 0.1695-0.25838 0.40101-0.05168 0.05994-0.32866 0.34726-0.27698 0.28525-0.78134 0.79994z"/>
  <path d="m63.736 89.444h1.4573v0.3514h-1.9596v-0.3514q0.23771-0.24598 0.64698-0.65939 0.41134-0.41548 0.51676-0.53536 0.2005-0.22531 0.27905-0.38034 0.08061-0.1571 0.08061-0.30799 0-0.24598-0.17363-0.40101-0.17156-0.15503-0.44855-0.15503-0.19637 0-0.41548 0.06821-0.21704 0.06821-0.46508 0.2067v-0.42168q0.25218-0.10128 0.47129-0.15296 0.21911-0.05168 0.40101-0.05168 0.47955 0 0.7648 0.23978 0.28525 0.23978 0.28525 0.64078 0 0.19017-0.07235 0.36173-0.07028 0.1695-0.25838 0.40101-0.05168 0.05994-0.32866 0.34726-0.27698 0.28525-0.78134 0.79994z"/>
 </g>
</svg>
