<?xml version="1.0" encoding="UTF-8"?>
<svg width="645.11" height="389.98" version="1.1" viewBox="0 0 170.69 103.18" xmlns="http://www.w3.org/2000/svg" xmlns:xlink="http://www.w3.org/1999/xlink">
 <defs>
  <linearGradient id="d" x1="45.353" x2="175.73" y1="76.584" y2="3.89" gradientTransform="translate(-.093635 -1.143)" gradientUnits="userSpaceOnUse">
   <stop stop-color="#ade2ec" stop-opacity=".479" offset="0"/>
   <stop stop-color="#f5f5f5" stop-opacity=".841" offset=".297"/>
   <stop stop-color="#fff" stop-opacity="0" offset="1"/>
  </linearGradient>
  <linearGradient id="c" x1="43.682" x2="44.677" y1="301.63" y2="146.1" gradientTransform="translate(-24.91 -134.7)" gradientUnits="userSpaceOnUse">
   <stop stop-color="#e3e3e3" offset="0"/>
   <stop stop-color="#e3e3e3" stop-opacity="0" offset="1"/>
  </linearGradient>
 </defs>
 <g>
  <path d="m10.043 71.376c-3.375-0.33-9.169 0.076-9.908 6.565-0.765 6.72 10.724 7.91 10.724 7.91l0.27-2.288c-1.73-0.253-8.121-1.455-7.674-5.386 0.533-4.678 5.436-4.624 7.855-4.304 0.372 0.05 0.677 0.103 0.906 0.149l0.245-2.235s-0.704-0.192-1.778-0.336a19.736 19.736 0 0 0-0.64-0.075z" fill="#5ac059" stroke="#000" stroke-width=".198"/>
  <path d="m20.606 64.666c-7.303 0-13.224 1.756-13.224 3.923v9e-3c-5e-3 6.906 0.818 13.814 0.809 20.72 0 2.166 5.112 3.923 12.415 3.923 7.304 0 12.187-1.759 12.285-3.923l0.94-20.729c0-2.167-5.921-3.923-13.225-3.923z" fill="#5ac059" stroke="#100701" stroke-opacity=".995" stroke-width=".158"/>
  <path d="m31.693 68.262a10.987 2.426 0 0 1-10.987 2.426 10.987 2.426 0 0 1-10.986-2.426 10.987 2.426 0 0 1 10.986-2.427 10.987 2.426 0 0 1 10.987 2.427z" fill="#1d5e0d"/>
 </g>
 <path d="m31.693 68.262c0 1.34-4.919 2.426-10.987 2.426-6.067 0-10.986-1.087-10.986-2.426" fill="none" stroke="#120000" stroke-width=".2"/>
 <path d="m22.829 45.375c4.234-11.113 19.05-12.12 9.922-25.4-10.081-14.667-3.953-19.77-3.953-19.77l-22.518-0.205c-5.689 6.613-1.324 15.079 2.645 19.842 3.97 4.763 0.926 17.595-6.614 28.708-7.54 11.112 7.408 19.711 7.408 19.711 0 1.34 4.92 2.426 10.987 2.426 6.068 0 10.987-1.086 10.987-2.426 0 0-13.097-11.774-8.864-22.886z" fill="url(#c)"/>
 <path d="m20.686 67.432a10.987 2.426 0 0 0-10.368 1.632 10.987 2.426 0 0 0 10.368 1.633 10.987 2.426 0 0 0 10.37-1.632 10.987 2.426 0 0 0-10.37-1.633z" fill="#1e0905"/>
 <g transform="translate(7.6424 -141.43)" stroke="#000">
  <rect x="29.892" y="150.85" width="113.17" height="80.029" ry="1.407" fill="#393939" stroke-width=".283"/>
  <path d="m12.148 243.64 2.94 0.796c47.611-0.159 95.172 0.158 142.78 0l2.935-0.816" fill="#0b0b0b" stroke-width=".265"/>
  <path d="m10.052 240.29 152.85 0.06-0.023 2.667s-0.752 0.618-1.576 0.618h-149.66c-0.824 0-1.584-0.96-1.584-0.96z" fill="#555" stroke-width=".28"/>
  <path d="m30.083 224.47s-14.534 11.353-19.765 15.453c-0.835 0.687 0.443 1.524 1.223 1.524 54.006 0.033 104.11-6e-3 149.87 0 0.779 0 2.057-0.837 1.222-1.524-5.23-4.1-19.764-15.453-19.764-15.453z" fill="#393939" stroke-width=".265"/>
 </g>
 <g transform="translate(-.093635 -1.143)">
  <path d="m43.507 85.398-8.788 8.126h118.99l-8.787-8.126h-56.791z" fill="#2a2a2a"/>
  <path d="m153.71 93.524-8.788-8.126h-101.41l-8.788 8.126" fill="none" stroke="#cbcbcb" stroke-opacity=".239" stroke-width=".5"/>
  <ellipse cx="94.212" cy="90.875" rx="1.284" ry=".627" fill="#e35858"/>
  <ellipse cx="148.95" cy="85.721" rx="1.702" ry=".627" fill="#2a2a2a"/>
  <ellipse cx="148.95" cy="85.721" rx=".357" ry=".176" fill="#a8ed94"/>
 </g>
 <path d="m79.066 92.824-2.61 5.61h35.326l-2.61-5.61h-16.859z" fill="#575757" stroke="#000" stroke-width=".12"/>
 <path d="m78.756 93.766h13.263m4.199 0h13.264" fill="#e35858" stroke="#e35858" stroke-width=".265"/>
 <path d="m40.765 15.899h106.71v63.12h-106.71z" fill="#fdf4db" stroke="#000" stroke-width=".267"/>
 <path d="m57.338 24.727h4.154v2.021h-4.154zm-10.165 0h9.544v2.021h-9.544zm14.951 0h16.112v2.021h-16.112zm-14.951 2.61h5.558v2.021h-5.558zm14.117 0h4.153v2.021h-4.153zm-7.917 0h7.242v2.021h-7.242zm12.788 0h15.27v2.021h-15.27zm-18.988 10.998h5.895v2.021h-5.895zm6.567 0h5.894v2.021h-5.894zm6.565 0h4.547v2.021h-4.547zm5.189 0h9.712v2.021h-9.712zm10.383 1e-3h4.595v2.02h-4.595zm5.245 0h9.712v2.02h-9.712zm-6.448 3.247h8.253v2.021h-8.253zm-14.789 0h13.698v2.021h-13.698zm-12.712 0h11.621v2.021h-11.62zm0 3.288h3.818v2.02h-3.818zm4.417 0h7.915v2.02h-7.915zm8.513 0h8.982v2.02h-8.982zm9.58 0h4.772v2.02h-4.772zm5.37 0h4.772v2.02h-4.772zm5.37 0h8.982v2.02h-8.982zm-33.249 3.094h4.772v2.02h-4.772zm5.445 0h3.818v2.02h-3.818zm4.491 0h11.172v2.02h-11.172z" fill="#6e6e6e"/>
 <g transform="translate(-10.16 -10.161)" fill="#356ae3">
  <path d="m60.188 29.475h4.997v2.021h-4.997zm5.614 0h11.733v2.021h-11.733zm12.35 0h4.481v2.021h-4.48zm5.099 0h5.851v2.021h-5.85z"/>
  <path d="m58.502 30.326h-0.383l-0.11 0.386h0.385zm-0.197-0.658-0.137 0.48h0.384l0.138-0.48h0.21l-0.135 0.48h0.41v0.178h-0.462l-0.107 0.386h0.418v0.177h-0.47l-0.136 0.478h-0.21l0.135-0.478h-0.385l-0.136 0.478h-0.211l0.136-0.478h-0.414v-0.177h0.463l0.11-0.386h-0.423v-0.178h0.475l0.134-0.48z" font-family="sans-serif" font-size="10.583px" font-weight="400" letter-spacing="0" word-spacing="0" aria-label="#"/>
 </g>
 <g transform="translate(-10.16 -10.161)" fill="#356ae3">
  <path d="m62.057 43.355h7.523v2.021h-7.523zm8.159 0h11.564v2.021h-11.564zm12.201 0h3.818v2.021h-3.818zm4.453 0h6.905v2.021h-6.905zm7.542 0h4.997v2.021h-4.997z"/>
  <path d="m58.502 44.146h-0.383l-0.11 0.385h0.385zm-0.197-0.658-0.137 0.48h0.384l0.138-0.48h0.21l-0.135 0.48h0.41v0.178h-0.462l-0.107 0.385h0.418v0.177h-0.47l-0.136 0.479h-0.21l0.135-0.479h-0.385l-0.136 0.479h-0.211l0.136-0.479h-0.414v-0.177h0.463l0.11-0.385h-0.423v-0.178h0.475l0.134-0.48zm2.311 0.627h-0.382l-0.11 0.386h0.384zm-0.197-0.657-0.137 0.48h0.384l0.138-0.48h0.21l-0.135 0.48h0.41v0.177h-0.461l-0.108 0.386h0.418v0.177h-0.47l-0.136 0.478h-0.21l0.135-0.478h-0.385l-0.135 0.478h-0.212l0.137-0.478h-0.414v-0.177h0.462l0.11-0.386h-0.422v-0.178h0.474l0.134-0.48z" font-family="sans-serif" font-size="10.583px" font-weight="400" letter-spacing="0" word-spacing="0" aria-label="#"/>
 </g>
 <path d="m47.173 53.025h41.517v18.564h-41.517z" fill="#e1c4c4"/>
 <g transform="translate(-10.16 -10.161)" fill="#356ae3">
  <path d="m62.469 85.147h6.456v2.02h-6.456zm7.13 0h3.818v2.02h-3.818zm4.491 0h5.67v2.02h-5.67z"/>
  <path d="m58.502 85.872h-0.383l-0.11 0.386h0.385zm-0.197-0.657-0.137 0.48h0.384l0.138-0.48h0.21l-0.135 0.48h0.41v0.177h-0.462l-0.107 0.386h0.418v0.177h-0.47l-0.136 0.478h-0.21l0.135-0.478h-0.385l-0.136 0.478h-0.211l0.136-0.478h-0.414v-0.177h0.463l0.11-0.386h-0.423v-0.178h0.475l0.134-0.48z" font-family="sans-serif" font-size="10.583px" font-weight="400" letter-spacing="0" word-spacing="0"/>
  <path d="m60.616 85.842h-0.382l-0.11 0.386h0.384zm-0.197-0.657-0.137 0.48h0.384l0.138-0.48h0.21l-0.135 0.48h0.41v0.177h-0.461l-0.108 0.386h0.418v0.177h-0.47l-0.136 0.478h-0.21l0.135-0.478h-0.385l-0.135 0.478h-0.212l0.137-0.478h-0.414v-0.177h0.462l0.11-0.386h-0.422v-0.178h0.474l0.134-0.48z" font-family="sans-serif" font-size="10.583px" font-weight="400" letter-spacing="0" word-spacing="0" aria-label="#"/>
 </g>
 <path d="m40.765 15.898h106.71v63.122h-106.71z" fill="url(#d)" stroke="#000" stroke-width=".267"/>
</svg>
