<?xml version="1.0" encoding="UTF-8"?>
<!DOCTYPE svg PUBLIC "-//W3C//DTD SVG 1.1//EN" "http://www.w3.org/Graphics/SVG/1.1/DTD/svg11.dtd">
<svg version="1.1" xmlns="http://www.w3.org/2000/svg" xmlns:xlink="http://www.w3.org/1999/xlink" x="0" y="0" width="554.448" height="192.757" viewBox="0, 0, 554.448, 192.757">
  <g id="Layer_1" transform="translate(-61.469, -302.205)">
    <path d="M134.666,302.205 L406.583,302.205 L406.583,409.872 L134.666,409.872 z" fill="#FFBB50" fill-opacity="0.75"/>
    <path d="M409.742,302.205 L611.742,302.205 L611.742,409.873 L409.742,409.873 z" fill="#A3D5A1" fill-opacity="0.75"/>
    <path d="M130.916,326.205 L614.917,326.205 L614.917,415.039 L130.916,415.039 z" fill-opacity="0" stroke="#000000" stroke-width="1"/>
    <g>
      <path d="M413.916,357.039 L605.917,357.039 L605.917,404.039 L413.916,404.039 z" fill="#FFFFFF"/>
      <path d="M413.916,357.039 L605.917,357.039 L605.917,404.039 L413.916,404.039 z" fill-opacity="0" stroke="#000000" stroke-width="3"/>
    </g>
    <g>
      <path d="M418.916,361.039 L457.916,361.039 L457.916,400.039 L418.916,400.039 z" fill="#A3D5A1" fill-opacity="0.75"/>
      <path d="M418.916,361.039 L457.916,361.039 L457.916,400.039 L418.916,400.039 z" fill-opacity="0" stroke="#000000" stroke-width="1"/>
    </g>
    <g>
      <path d="M464.916,361.039 L503.916,361.039 L503.916,400.039 L464.916,400.039 z" fill="#A3D5A1" fill-opacity="0.75"/>
      <path d="M464.916,361.039 L503.916,361.039 L503.916,400.039 L464.916,400.039 z" fill-opacity="0" stroke="#000000" stroke-width="1"/>
    </g>
    <g>
      <path d="M558.917,361.039 L597.917,361.039 L597.917,400.039 L558.917,400.039 z" fill="#A3D5A1" fill-opacity="0.75"/>
      <path d="M558.917,361.039 L597.917,361.039 L597.917,400.039 L558.917,400.039 z" fill-opacity="0" stroke="#000000" stroke-width="1"/>
    </g>
    <text transform="matrix(1, 0, 0, 1, 579.417, 381.039)">
      <tspan x="-12" y="6" font-family="monospace" font-size="20" fill="#000000">63</tspan>
    </text>
    <text transform="matrix(1, 0, 0, 1, 484.417, 380.039)">
      <tspan x="-12" y="6" font-family="monospace" font-size="20" fill="#000000">33</tspan>
    </text>
    <text transform="matrix(1, 0, 0, 1, 438.417, 381.039)">
      <tspan x="-12" y="6" font-family="monospace" font-size="20" fill="#000000">32</tspan>
    </text>
    <g>
      <path d="M138.917,331.039 L402.417,331.039 L402.417,404.039 L138.917,404.039 z" fill="#FFFFFF"/>
      <path d="M138.917,331.039 L402.417,331.039 L402.417,404.039 L138.917,404.039 z" fill-opacity="0" stroke="#000000" stroke-width="3"/>
    </g>
    <g>
      <path d="M145.916,361.039 L184.916,361.039 L184.916,400.039 L145.916,400.039 z" fill="#FFFFFF"/>
      <path d="M145.916,361.039 L184.916,361.039 L184.916,400.039 L145.916,400.039 z" fill-opacity="0" stroke="#000000" stroke-width="1"/>
    </g>
    <g>
      <path d="M190.917,361.039 L229.917,361.039 L229.917,400.039 L190.917,400.039 z" fill="#FFFFFF"/>
      <path d="M190.917,361.039 L229.917,361.039 L229.917,400.039 L190.917,400.039 z" fill-opacity="0" stroke="#000000" stroke-width="1"/>
    </g>
    <g>
      <path d="M235.917,361.039 L274.917,361.039 L274.917,400.039 L235.917,400.039 z" fill="#FFFFFF"/>
      <path d="M235.917,361.039 L274.917,361.039 L274.917,400.039 L235.917,400.039 z" fill-opacity="0" stroke="#000000" stroke-width="1"/>
    </g>
    <g>
      <path d="M358.583,361.039 L397.583,361.039 L397.583,400.039 L358.583,400.039 z" fill="#FFFFFF"/>
      <path d="M358.583,361.039 L397.583,361.039 L397.583,400.039 L358.583,400.039 z" fill-opacity="0" stroke="#000000" stroke-width="1"/>
    </g>
    <g>
      <path d="M316.583,361.039 L355.583,361.039 L355.583,400.039 L316.583,400.039 z" fill="#FFFFFF"/>
      <path d="M316.583,361.039 L355.583,361.039 L355.583,400.039 L316.583,400.039 z" fill-opacity="0" stroke="#000000" stroke-width="1"/>
    </g>
    <text transform="matrix(1, 0, 0, 1, 296.917, 385.039)">
      <tspan x="-18.5" y="6" font-family="monospace" font-size="20" fill="#000000">...</tspan>
    </text>
    <path d="M164.916,385.039 C162.707,385.039 160.916,383.248 160.916,381.039 C160.916,378.829 162.707,377.039 164.916,377.039 C167.125,377.039 168.916,378.829 168.916,381.039 C168.916,383.248 167.125,385.039 164.916,385.039 z" fill="#000000"/>
    <g>
      <path d="M66.469,440.372 L243.576,440.372 L243.576,489.963 L66.469,489.963 z" fill="#FFFFFF"/>
      <path d="M66.469,440.372 L243.576,440.372 L243.576,489.963 L66.469,489.963 z" fill-opacity="0" stroke="#000000" stroke-width="2.016"/>
    </g>
    <g>
      <path d="M71.174,461.061 L97.386,461.061 L97.386,487.274 L71.174,487.274 z" fill="#FFBB50" fill-opacity="0.75"/>
      <path d="M71.174,461.061 L97.386,461.061 L97.386,487.274 L71.174,487.274 z" fill-opacity="0" stroke="#000000" stroke-width="0.672"/>
    </g>
    <g>
      <path d="M101.42,461.061 L127.632,461.061 L127.632,487.274 L101.42,487.274 z" fill="#FFBB50" fill-opacity="0.75"/>
      <path d="M101.42,461.061 L127.632,461.061 L127.632,487.274 L101.42,487.274 z" fill-opacity="0" stroke="#000000" stroke-width="0.672"/>
    </g>
    <g>
      <path d="M131.665,461.061 L157.879,461.061 L157.879,487.274 L131.665,487.274 z" fill="#FFBB50" fill-opacity="0.75"/>
      <path d="M131.665,461.061 L157.879,461.061 L157.879,487.274 L131.665,487.274 z" fill-opacity="0" stroke="#000000" stroke-width="0.672"/>
    </g>
    <g>
      <path d="M214.113,461.061 L240.327,461.061 L240.327,487.274 L214.113,487.274 z" fill="#FFBB50" fill-opacity="0.75"/>
      <path d="M214.113,461.061 L240.327,461.061 L240.327,487.274 L214.113,487.274 z" fill-opacity="0" stroke="#000000" stroke-width="0.672"/>
    </g>
    <g>
      <path d="M185.884,461.061 L212.098,461.061 L212.098,487.274 L185.884,487.274 z" fill="#FFBB50" fill-opacity="0.75"/>
      <path d="M185.884,461.061 L212.098,461.061 L212.098,487.274 L185.884,487.274 z" fill-opacity="0" stroke="#000000" stroke-width="0.672"/>
    </g>
    <text transform="matrix(1, 0, 0, 1, 172.666, 476.961)">
      <tspan x="-12.599" y="4" font-family="monospace" font-size="13.443" fill="#000000">...</tspan>
    </text>
    <text transform="matrix(1, 0, 0, 1, 84.28, 474.273)">
      <tspan x="-4.533" y="4" font-family="monospace" font-size="13.443" fill="#000000">0</tspan>
    </text>
    <text transform="matrix(1, 0, 0, 1, 114.526, 474.273)">
      <tspan x="-4.533" y="4" font-family="monospace" font-size="13.443" fill="#000000">1</tspan>
    </text>
    <text transform="matrix(1, 0, 0, 1, 144.772, 473.601)">
      <tspan x="-4.533" y="4" font-family="monospace" font-size="13.443" fill="#000000">2</tspan>
    </text>
    <text transform="matrix(1, 0, 0, 1, 227.22, 474.273)">
      <tspan x="-8.566" y="4" font-family="monospace" font-size="13.443" fill="#000000">31</tspan>
    </text>
    <text transform="matrix(1, 0, 0, 1, 198.99, 474.273)">
      <tspan x="-8.566" y="4" font-family="monospace" font-size="13.443" fill="#000000">30</tspan>
    </text>
    <g>
      <path d="M164.917,381.039 L91.084,440.372" fill="#000000"/>
      <path d="M164.917,381.039 L91.084,440.372" fill-opacity="0" stroke="#000000" stroke-width="1"/>
    </g>
    <text transform="matrix(1, 0, 0, 1, 270.667, 314.205)">
      <tspan x="-24.5" y="6" font-family="monospace" font-size="20" fill="#000000">root</tspan>
    </text>
    <text transform="matrix(1, 0, 0, 1, 509.916, 314.205)">
      <tspan x="-24.5" y="6" font-family="monospace" font-size="20" fill="#000000">tail</tspan>
    </text>
    <text transform="matrix(1, 0, 0, 1, 155.491, 450.039)">
      <tspan x="-47.425" y="3.333" font-family="monospace" font-size="14" fill="#000000">vector node</tspan>
    </text>
    <text transform="matrix(1, 0, 0, 1, 272.666, 345.039)">
      <tspan x="-68.749" y="6" font-family="monospace" font-size="20" fill="#000000">vector node</tspan>
    </text>
    <text transform="matrix(1, 0, 0, 1, 210.417, 381.039)">
      <tspan x="-13.425" y="3.333" font-family="monospace" font-size="14" fill="#000000">nil</tspan>
    </text>
    <text transform="matrix(1, 0, 0, 1, 257.001, 381.039)">
      <tspan x="-13.425" y="3.333" font-family="monospace" font-size="14" fill="#000000">nil</tspan>
    </text>
    <text transform="matrix(1, 0, 0, 1, 336.083, 381.039)">
      <tspan x="-13.425" y="3.333" font-family="monospace" font-size="14" fill="#000000">nil</tspan>
    </text>
    <text transform="matrix(1, 0, 0, 1, 378.083, 381.039)">
      <tspan x="-13.425" y="3.333" font-family="monospace" font-size="14" fill="#000000">nil</tspan>
    </text>
    <text transform="matrix(1, 0, 0, 1, 530.5, 385)">
      <tspan x="-18.5" y="6" font-family="monospace" font-size="20" fill="#000000">...</tspan>
    </text>
  </g>
</svg>
