<?xml version="1.0" encoding="UTF-8"?>
<!DOCTYPE svg PUBLIC "-//W3C//DTD SVG 1.1//EN" "http://www.w3.org/Graphics/SVG/1.1/DTD/svg11.dtd">
<svg version="1.1" xmlns="http://www.w3.org/2000/svg" xmlns:xlink="http://www.w3.org/1999/xlink" x="0" y="0" width="581.255" height="171.757" viewBox="0, 0, 581.255, 171.757">
  <g id="Layer_1" transform="translate(-59.372, -324.205)">
    <path d="M134.666,324.205 L406.583,324.205 L406.583,409.872 L134.666,409.872 z" fill="#FFBB50" fill-opacity="0.75"/>
    <path d="M409.742,324.205 L611.742,324.205 L611.742,409.873 L409.742,409.873 z" fill="#A3D5A1" fill-opacity="0.75"/>
    <path d="M130.916,348.205 L614.917,348.205 L614.917,415.039 L130.916,415.039 z" fill-opacity="0" stroke="#000000" stroke-width="1"/>
    <g>
      <path d="M413.916,357.039 L605.917,357.039 L605.917,404.039 L413.916,404.039 z" fill="#FFFFFF"/>
      <path d="M413.916,357.039 L605.917,357.039 L605.917,404.039 L413.916,404.039 z" fill-opacity="0" stroke="#000000" stroke-width="3"/>
    </g>
    <g>
      <path d="M418.916,361.039 L457.916,361.039 L457.916,400.039 L418.916,400.039 z" fill="#A3D5A1" fill-opacity="0.75"/>
      <path d="M418.916,361.039 L457.916,361.039 L457.916,400.039 L418.916,400.039 z" fill-opacity="0" stroke="#000000" stroke-width="1"/>
    </g>
    <g>
      <path d="M464.916,361.039 L503.916,361.039 L503.916,400.039 L464.916,400.039 z" fill="#A3D5A1" fill-opacity="0.75"/>
      <path d="M464.916,361.039 L503.916,361.039 L503.916,400.039 L464.916,400.039 z" fill-opacity="0" stroke="#000000" stroke-width="1"/>
    </g>
    <g>
      <path d="M558.917,361.039 L597.917,361.039 L597.917,400.039 L558.917,400.039 z" fill="#A3D5A1" fill-opacity="0.75"/>
      <path d="M558.917,361.039 L597.917,361.039 L597.917,400.039 L558.917,400.039 z" fill-opacity="0" stroke="#000000" stroke-width="1"/>
    </g>
    <text transform="matrix(1, 0, 0, 1, 438.416, 380.872)">
      <tspan x="-19.5" y="4.167" font-family="monospace" font-size="16" fill="#000000">1024</tspan>
    </text>
    <g>
      <path d="M138.917,357.039 L402.417,357.039 L402.417,404.039 L138.917,404.039 z" fill="#FFFFFF"/>
      <path d="M138.917,357.039 L402.417,357.039 L402.417,404.039 L138.917,404.039 z" fill-opacity="0" stroke="#000000" stroke-width="3"/>
    </g>
    <g>
      <path d="M145.916,361.039 L184.916,361.039 L184.916,400.039 L145.916,400.039 z" fill="#FFFFFF"/>
      <path d="M145.916,361.039 L184.916,361.039 L184.916,400.039 L145.916,400.039 z" fill-opacity="0" stroke="#000000" stroke-width="1"/>
    </g>
    <g>
      <path d="M190.917,361.039 L229.917,361.039 L229.917,400.039 L190.917,400.039 z" fill="#FFFFFF"/>
      <path d="M190.917,361.039 L229.917,361.039 L229.917,400.039 L190.917,400.039 z" fill-opacity="0" stroke="#000000" stroke-width="1"/>
    </g>
    <g>
      <path d="M235.917,361.039 L274.917,361.039 L274.917,400.039 L235.917,400.039 z" fill="#FFFFFF"/>
      <path d="M235.917,361.039 L274.917,361.039 L274.917,400.039 L235.917,400.039 z" fill-opacity="0" stroke="#000000" stroke-width="1"/>
    </g>
    <g>
      <path d="M358.583,361.039 L397.583,361.039 L397.583,400.039 L358.583,400.039 z" fill="#FFFFFF"/>
      <path d="M358.583,361.039 L397.583,361.039 L397.583,400.039 L358.583,400.039 z" fill-opacity="0" stroke="#000000" stroke-width="1"/>
    </g>
    <g>
      <path d="M316.583,361.039 L355.583,361.039 L355.583,400.039 L316.583,400.039 z" fill="#FFFFFF"/>
      <path d="M316.583,361.039 L355.583,361.039 L355.583,400.039 L316.583,400.039 z" fill-opacity="0" stroke="#000000" stroke-width="1"/>
    </g>
    <text transform="matrix(1, 0, 0, 1, 296.917, 385.039)">
      <tspan x="-18.5" y="6" font-family="monospace" font-size="20" fill="#000000">...</tspan>
    </text>
    <path d="M164.916,385.039 C162.707,385.039 160.916,383.248 160.916,381.039 C160.916,378.829 162.707,377.039 164.916,377.039 C167.125,377.039 168.916,378.829 168.916,381.039 C168.916,383.248 167.125,385.039 164.916,385.039 z" fill="#000000"/>
    <path d="M209.916,384.039 C207.707,384.039 205.916,382.248 205.916,380.039 C205.916,377.829 207.707,376.039 209.916,376.039 C212.126,376.039 213.916,377.829 213.916,380.039 C213.916,382.248 212.126,384.039 209.916,384.039 z" fill="#000000"/>
    <path d="M254.916,384.039 C252.707,384.039 250.916,382.248 250.916,380.039 C250.916,377.829 252.707,376.039 254.916,376.039 C257.125,376.039 258.917,377.829 258.917,380.039 C258.917,382.248 257.125,384.039 254.916,384.039 z" fill="#000000"/>
    <path d="M335.583,384.039 C333.374,384.039 331.583,382.248 331.583,380.039 C331.583,377.829 333.374,376.039 335.583,376.039 C337.793,376.039 339.583,377.829 339.583,380.039 C339.583,382.248 337.793,384.039 335.583,384.039 z" fill="#000000"/>
    <path d="M377.583,384.039 C375.374,384.039 373.583,382.248 373.583,380.039 C373.583,377.829 375.374,376.039 377.583,376.039 C379.793,376.039 381.583,377.829 381.583,380.039 C381.583,382.248 379.793,384.039 377.583,384.039 z" fill="#000000"/>
    <g>
      <path d="M64.372,456.372 L241.479,456.372 L241.479,489.963 L64.372,489.963 z" fill="#FFFFFF"/>
      <path d="M64.372,456.372 L241.479,456.372 L241.479,489.963 L64.372,489.963 z" fill-opacity="0" stroke="#000000" stroke-width="2.016"/>
    </g>
    <g>
      <path d="M69.077,461.061 L95.29,461.061 L95.29,487.274 L69.077,487.274 z" fill="#FFBB50" fill-opacity="0.75"/>
      <path d="M69.077,461.061 L95.29,461.061 L95.29,487.274 L69.077,487.274 z" fill-opacity="0" stroke="#000000" stroke-width="0.672"/>
    </g>
    <g>
      <path d="M99.323,461.061 L125.536,461.061 L125.536,487.274 L99.323,487.274 z" fill="#FFBB50" fill-opacity="0.75"/>
      <path d="M99.323,461.061 L125.536,461.061 L125.536,487.274 L99.323,487.274 z" fill-opacity="0" stroke="#000000" stroke-width="0.672"/>
    </g>
    <g>
      <path d="M129.569,461.061 L155.782,461.061 L155.782,487.274 L129.569,487.274 z" fill="#FFBB50" fill-opacity="0.75"/>
      <path d="M129.569,461.061 L155.782,461.061 L155.782,487.274 L129.569,487.274 z" fill-opacity="0" stroke="#000000" stroke-width="0.672"/>
    </g>
    <g>
      <path d="M212.017,461.061 L238.23,461.061 L238.23,487.274 L212.017,487.274 z" fill="#FFBB50" fill-opacity="0.75"/>
      <path d="M212.017,461.061 L238.23,461.061 L238.23,487.274 L212.017,487.274 z" fill-opacity="0" stroke="#000000" stroke-width="0.672"/>
    </g>
    <g>
      <path d="M183.788,461.061 L210.001,461.061 L210.001,487.274 L183.788,487.274 z" fill="#FFBB50" fill-opacity="0.75"/>
      <path d="M183.788,461.061 L210.001,461.061 L210.001,487.274 L183.788,487.274 z" fill-opacity="0" stroke="#000000" stroke-width="0.672"/>
    </g>
    <text transform="matrix(1, 0, 0, 1, 170.57, 476.962)">
      <tspan x="-12.599" y="4" font-family="monospace" font-size="13.443" fill="#000000">...</tspan>
    </text>
    <text transform="matrix(1, 0, 0, 1, 82.184, 474.274)">
      <tspan x="-4.533" y="4" font-family="monospace" font-size="13.443" fill="#000000">0</tspan>
    </text>
    <text transform="matrix(1, 0, 0, 1, 112.43, 474.274)">
      <tspan x="-4.533" y="4" font-family="monospace" font-size="13.443" fill="#000000">1</tspan>
    </text>
    <text transform="matrix(1, 0, 0, 1, 142.676, 473.602)">
      <tspan x="-4.533" y="4" font-family="monospace" font-size="13.443" fill="#000000">2</tspan>
    </text>
    <text transform="matrix(1, 0, 0, 1, 225.124, 474.274)">
      <tspan x="-8.566" y="4" font-family="monospace" font-size="13.443" fill="#000000">31</tspan>
    </text>
    <text transform="matrix(1, 0, 0, 1, 196.894, 474.274)">
      <tspan x="-8.566" y="4" font-family="monospace" font-size="13.443" fill="#000000">30</tspan>
    </text>
    <g>
      <path d="M162.32,397.039 L88.487,456.372" fill="#000000"/>
      <path d="M162.32,397.039 L88.487,456.372" fill-opacity="0" stroke="#000000" stroke-width="1"/>
    </g>
    <g>
      <path d="M375.154,397.039 L465.154,456.372" fill="#000000"/>
      <path d="M375.154,397.039 L465.154,456.372" fill-opacity="0" stroke="#000000" stroke-width="1"/>
    </g>
    <text transform="matrix(1, 0, 0, 1, 274.414, 336.205)">
      <tspan x="-24.5" y="6" font-family="monospace" font-size="20" fill="#000000">root</tspan>
    </text>
    <text transform="matrix(1, 0, 0, 1, 513.664, 336.205)">
      <tspan x="-24.5" y="6" font-family="monospace" font-size="20" fill="#000000">tail</tspan>
    </text>
    <g>
      <path d="M207.82,397.039 L288.487,456.372" fill="#000000"/>
      <path d="M207.82,397.039 L288.487,456.372" fill-opacity="0" stroke="#000000" stroke-width="1"/>
    </g>
    <g>
      <path d="M262.017,456.372 L439.124,456.372 L439.124,490.963 L262.017,490.963 z" fill="#FFFFFF"/>
      <path d="M262.017,456.372 L439.124,456.372 L439.124,490.963 L262.017,490.963 z" fill-opacity="0" stroke="#000000" stroke-width="2.016"/>
    </g>
    <g>
      <path d="M266.722,462.06 L292.935,462.06 L292.935,488.273 L266.722,488.273 z" fill="#FFBB50" fill-opacity="0.75"/>
      <path d="M266.722,462.06 L292.935,462.06 L292.935,488.273 L266.722,488.273 z" fill-opacity="0" stroke="#000000" stroke-width="0.672"/>
    </g>
    <g>
      <path d="M296.968,462.06 L323.181,462.06 L323.181,488.273 L296.968,488.273 z" fill="#FFBB50" fill-opacity="0.75"/>
      <path d="M296.968,462.06 L323.181,462.06 L323.181,488.273 L296.968,488.273 z" fill-opacity="0" stroke="#000000" stroke-width="0.672"/>
    </g>
    <g>
      <path d="M327.214,462.06 L353.427,462.06 L353.427,488.273 L327.214,488.273 z" fill="#FFBB50" fill-opacity="0.75"/>
      <path d="M327.214,462.06 L353.427,462.06 L353.427,488.273 L327.214,488.273 z" fill-opacity="0" stroke="#000000" stroke-width="0.672"/>
    </g>
    <g>
      <path d="M409.662,462.06 L435.875,462.06 L435.875,488.273 L409.662,488.273 z" fill="#FFBB50" fill-opacity="0.75"/>
      <path d="M409.662,462.06 L435.875,462.06 L435.875,488.273 L409.662,488.273 z" fill-opacity="0" stroke="#000000" stroke-width="0.672"/>
    </g>
    <g>
      <path d="M381.433,462.06 L407.646,462.06 L407.646,488.273 L381.433,488.273 z" fill="#FFBB50" fill-opacity="0.75"/>
      <path d="M381.433,462.06 L407.646,462.06 L407.646,488.273 L381.433,488.273 z" fill-opacity="0" stroke="#000000" stroke-width="0.672"/>
    </g>
    <text transform="matrix(1, 0, 0, 1, 368.214, 477.961)">
      <tspan x="-12.599" y="4" font-family="monospace" font-size="13.443" fill="#000000">...</tspan>
    </text>
    <text transform="matrix(1, 0, 0, 1, 280.361, 475.273)">
      <tspan x="-8.066" y="4" font-family="monospace" font-size="13.443" fill="#000000">32</tspan>
    </text>
    <text transform="matrix(1, 0, 0, 1, 310.607, 475.273)">
      <tspan x="-8.066" y="4" font-family="monospace" font-size="13.443" fill="#000000">33</tspan>
    </text>
    <text transform="matrix(1, 0, 0, 1, 341.853, 474.601)">
      <tspan x="-8.066" y="4" font-family="monospace" font-size="13.443" fill="#000000">34</tspan>
    </text>
    <text transform="matrix(1, 0, 0, 1, 423.268, 475.273)">
      <tspan x="-8.066" y="4" font-family="monospace" font-size="13.443" fill="#000000">63</tspan>
    </text>
    <text transform="matrix(1, 0, 0, 1, 395.038, 475.273)">
      <tspan x="-8.066" y="4" font-family="monospace" font-size="13.443" fill="#000000">62</tspan>
    </text>
    <g>
      <path d="M458.521,456.372 L635.628,456.372 L635.628,490.963 L458.521,490.963 z" fill="#FFFFFF"/>
      <path d="M458.521,456.372 L635.628,456.372 L635.628,490.963 L458.521,490.963 z" fill-opacity="0" stroke="#000000" stroke-width="2.016"/>
    </g>
    <g>
      <path d="M464.226,462.06 L490.439,462.06 L490.439,488.273 L464.226,488.273 z" fill="#FFBB50" fill-opacity="0.75"/>
      <path d="M464.226,462.06 L490.439,462.06 L490.439,488.273 L464.226,488.273 z" fill-opacity="0" stroke="#000000" stroke-width="0.672"/>
    </g>
    <g>
      <path d="M494.472,462.06 L520.685,462.06 L520.685,488.273 L494.472,488.273 z" fill="#FFBB50" fill-opacity="0.75"/>
      <path d="M494.472,462.06 L520.685,462.06 L520.685,488.273 L494.472,488.273 z" fill-opacity="0" stroke="#000000" stroke-width="0.672"/>
    </g>
    <g>
      <path d="M524.718,462.06 L550.931,462.06 L550.931,488.273 L524.718,488.273 z" fill="#FFBB50" fill-opacity="0.75"/>
      <path d="M524.718,462.06 L550.931,462.06 L550.931,488.273 L524.718,488.273 z" fill-opacity="0" stroke="#000000" stroke-width="0.672"/>
    </g>
    <g>
      <path d="M607.166,462.06 L633.379,462.06 L633.379,488.273 L607.166,488.273 z" fill="#FFBB50" fill-opacity="0.75"/>
      <path d="M607.166,462.06 L633.379,462.06 L633.379,488.273 L607.166,488.273 z" fill-opacity="0" stroke="#000000" stroke-width="0.672"/>
    </g>
    <g>
      <path d="M577.937,462.06 L604.15,462.06 L604.15,488.273 L577.937,488.273 z" fill="#FFBB50" fill-opacity="0.75"/>
      <path d="M577.937,462.06 L604.15,462.06 L604.15,488.273 L577.937,488.273 z" fill-opacity="0" stroke="#000000" stroke-width="0.672"/>
    </g>
    <text transform="matrix(1, 0, 0, 1, 565.719, 477.96)">
      <tspan x="-12.599" y="4" font-family="monospace" font-size="13.443" fill="#000000">...</tspan>
    </text>
    <text transform="matrix(1, 0, 0, 1, 621.401, 474.601)">
      <tspan x="-14.227" y="2.999" font-family="monospace" font-size="11" fill="#000000">1023</tspan>
    </text>
    <text transform="matrix(1, 0, 0, 1, 592.043, 474.962)">
      <tspan x="-14.227" y="2.999" font-family="monospace" font-size="11" fill="#000000">1022</tspan>
    </text>
    <text transform="matrix(1, 0, 0, 1, 538.912, 474.962)">
      <tspan x="-9.9" y="2.999" font-family="monospace" font-size="11" fill="#000000">994</tspan>
    </text>
    <text transform="matrix(1, 0, 0, 1, 508.666, 474.962)">
      <tspan x="-9.9" y="2.999" font-family="monospace" font-size="11" fill="#000000">993</tspan>
    </text>
    <text transform="matrix(1, 0, 0, 1, 478.047, 474.962)">
      <tspan x="-9.9" y="2.999" font-family="monospace" font-size="11" fill="#000000">992</tspan>
    </text>
    <text transform="matrix(1, 0, 0, 1, 484.416, 381.038)">
      <tspan x="-19.5" y="4.167" font-family="monospace" font-size="16" fill="#000000">1025</tspan>
    </text>
    <text transform="matrix(1, 0, 0, 1, 578.565, 380.039)">
      <tspan x="-19.5" y="4.167" font-family="monospace" font-size="16" fill="#000000">1055</tspan>
    </text>
    <text transform="matrix(1, 0, 0, 1, 530.833, 381.039)">
      <tspan x="-18.5" y="6" font-family="monospace" font-size="20" fill="#000000">...</tspan>
    </text>
  </g>
</svg>
