<?xml version="1.0" encoding="UTF-8"?>
<!-- Created with Inkscape (http://www.inkscape.org/) -->
<svg width="252.91mm" height="168.87mm" version="1.1" viewBox="0 0 252.91 168.87" xmlns="http://www.w3.org/2000/svg">
 <g stroke-width=".26458">
  <g aria-label="cos(θ) =">
   <rect x="-.44501" y="-.1015" width="253.42" height="169.34" fill="#fff" stop-color="#000000"/>
   <path d="m59.381 28.439v2.0104q-0.91167-0.50259-1.835-0.74804-0.91167-0.25714-1.8467-0.25714-2.0922 0-3.2493 1.3324-1.1571 1.3208-1.1571 3.7168 0 2.3961 1.1571 3.7285 1.1571 1.3208 3.2493 1.3208 0.93505 0 1.8467-0.24545 0.92336-0.25714 1.835-0.75973v1.987q-0.89999 0.42077-1.8701 0.63116-0.95843 0.21039-2.0454 0.21039-2.9571 0-4.6986-1.8584-1.7415-1.8584-1.7415-5.0142 0-3.2025 1.7532-5.0376 1.7649-1.835 4.8272-1.835 0.99349 0 1.9402 0.21039 0.94674 0.1987 1.835 0.60778z"/>
   <path d="m68.194 29.444q-1.7298 0-2.735 1.3558-1.0052 1.3441-1.0052 3.6935t0.99349 3.7051q1.0052 1.3441 2.7467 1.3441 1.7182 0 2.7233-1.3558 1.0052-1.3558 1.0052-3.6934 0-2.3259-1.0052-3.6818-1.0052-1.3675-2.7233-1.3675zm0-1.8233q2.8052 0 4.4064 1.8233 1.6013 1.8233 1.6013 5.0493 0 3.2142-1.6013 5.0493-1.6013 1.8233-4.4064 1.8233-2.8168 0-4.4181-1.8233-1.5896-1.835-1.5896-5.0493 0-3.2259 1.5896-5.0493 1.6013-1.8233 4.4181-1.8233z"/>
   <path d="m86.112 28.322v2.0337q-0.91167-0.46752-1.8935-0.70129-0.9818-0.23376-2.0337-0.23376-1.6013 0-2.4078 0.4909-0.79479 0.4909-0.79479 1.4727 0 0.74804 0.57272 1.1805 0.57272 0.42077 2.3026 0.80648l0.73635 0.16363q2.2909 0.4909 3.2493 1.3909 0.97012 0.8883 0.97012 2.4896 0 1.8233-1.4493 2.887-1.4376 1.0636-3.9623 1.0636-1.0519 0-2.1974-0.21039-1.1337-0.1987-2.3961-0.60778v-2.2207q1.1922 0.61947 2.3493 0.93505 1.1571 0.30389 2.2909 0.30389 1.5195 0 2.3376-0.51428 0.81817-0.52597 0.81817-1.4727 0-0.87661-0.5961-1.3441-0.58441-0.46753-2.5831-0.89999l-0.74804-0.17532q-1.9987-0.42077-2.887-1.2857-0.8883-0.87661-0.8883-2.3961 0-1.8467 1.3091-2.8519t3.7168-1.0052q1.1922 0 2.2441 0.17532t1.9402 0.52597z"/>
   <path d="m95.404 22.863q-1.5662 2.6883-2.3259 5.3181t-0.75973 5.3298 0.75973 5.3532q0.77142 2.6415 2.3259 5.3181h-1.8701q-1.7532-2.7467-2.6298-5.3999-0.86492-2.6532-0.86492-5.2713 0-2.6065 0.86492-5.248 0.86492-2.6415 2.6298-5.3999z"/>
   <path d="m108.37 32.728h-7.4453q0.17532 3.4948 0.9818 4.9791 1.0052 1.8233 2.7467 1.8233 1.7532 0 2.7233-1.835 0.85323-1.613 0.99349-4.9675zm-0.0351-1.987q-0.32727-3.3194-0.95843-4.4882-1.0052-1.8467-2.7233-1.8467-1.7883 0-2.735 1.8233-0.74804 1.4727-0.97012 4.5116zm-3.6817-8.0882q2.8052 0 4.4064 2.4779 1.6013 2.4662 1.6013 6.8376 0 4.3597-1.6013 6.8376-1.6013 2.4896-4.4064 2.4896-2.8168 0-4.4064-2.4896-1.6013-2.4779-1.6013-6.8376 0-4.3714 1.6013-6.8376 1.5896-2.4779 4.4064-2.4779z"/>
   <path d="m113.88 22.863h1.8701q1.7532 2.7584 2.6181 5.3999 0.87661 2.6415 0.87661 5.248 0 2.6181-0.87661 5.2713-0.86492 2.6532-2.6181 5.3999h-1.8701q1.5545-2.6766 2.3142-5.3181 0.77142-2.6532 0.77142-5.3532t-0.77142-5.3298q-0.75973-2.6298-2.3142-5.3181z"/>
   <path d="m131.45 30.157h14.984v1.9636h-14.984zm0 4.7688h14.984v1.987h-14.984z"/>
  </g>
  <g aria-label="acos">
   <path d="m90.996 119.54q-2.6065 0-3.6116 0.59609-1.0052 0.5961-1.0052 2.0337 0 1.1454 0.74804 1.8234 0.75973 0.66622 2.0571 0.66622 1.7883 0 2.8636-1.2623 1.087-1.274 1.087-3.3779v-0.47921zm4.2895-0.8883v7.4687h-2.1506v-1.987q-0.73635 1.1922-1.835 1.7649-1.0987 0.56103-2.6883 0.56103-2.0104 0-3.2025-1.1221-1.1805-1.1338-1.1805-3.0272 0-2.2091 1.4727-3.3311 1.4844-1.1221 4.4181-1.1221h3.0155v-0.21039q0-1.4844-0.9818-2.2909-0.97012-0.81816-2.735-0.81816-1.1221 0-2.1857 0.26882-1.0636 0.26883-2.0454 0.80648v-1.987q1.1805-0.45584 2.2909-0.67791 1.1104-0.23376 2.1623-0.23376 2.8402 0 4.2428 1.4727 1.4026 1.4727 1.4026 4.4649z"/>
   <path d="m109.14 113.53v2.0104q-0.91168-0.50259-1.835-0.74805-0.91168-0.25713-1.8467-0.25713-2.0922 0-3.2493 1.3324-1.1571 1.3208-1.1571 3.7168t1.1571 3.7285q1.1571 1.3208 3.2493 1.3208 0.93505 0 1.8467-0.24545 0.92336-0.25714 1.835-0.75973v1.987q-0.89999 0.42077-1.8701 0.63116-0.95842 0.21038-2.0454 0.21038-2.9571 0-4.6986-1.8584-1.7415-1.8584-1.7415-5.0142 0-3.2026 1.7532-5.0376 1.7649-1.835 4.8272-1.835 0.99349 0 1.9402 0.21038 0.94674 0.1987 1.835 0.60779z"/>
   <path d="m117.95 114.54q-1.7298 0-2.735 1.3558-1.0052 1.3441-1.0052 3.6934 0 2.3493 0.99349 3.7051 1.0052 1.3441 2.7467 1.3441 1.7182 0 2.7233-1.3558t1.0052-3.6934q0-2.3259-1.0052-3.6818-1.0052-1.3675-2.7233-1.3675zm0-1.8234q2.8052 0 4.4064 1.8234 1.6013 1.8233 1.6013 5.0493 0 3.2142-1.6013 5.0493-1.6013 1.8234-4.4064 1.8234-2.8168 0-4.4181-1.8234-1.5896-1.835-1.5896-5.0493 0-3.2259 1.5896-5.0493 1.6013-1.8234 4.4181-1.8234z"/>
   <path d="m135.87 113.41v2.0337q-0.91167-0.46753-1.8935-0.70129-0.9818-0.23376-2.0337-0.23376-1.6013 0-2.4078 0.4909-0.79479 0.4909-0.79479 1.4727 0 0.74804 0.57272 1.1805 0.57272 0.42077 2.3026 0.80648l0.73635 0.16363q2.2909 0.4909 3.2493 1.3909 0.97012 0.8883 0.97012 2.4896 0 1.8234-1.4493 2.887-1.4376 1.0636-3.9623 1.0636-1.0519 0-2.1974-0.21038-1.1338-0.1987-2.3961-0.60779v-2.2207q1.1922 0.61947 2.3493 0.93505 1.1571 0.30389 2.2909 0.30389 1.5195 0 2.3376-0.51428 0.81817-0.52596 0.81817-1.4727 0-0.87661-0.59609-1.3441-0.58441-0.46752-2.5831-0.89998l-0.74804-0.17533q-1.9987-0.42077-2.887-1.2857-0.8883-0.87661-0.8883-2.3961 0-1.8467 1.3091-2.8519t3.7168-1.0052q1.1922 0 2.2441 0.17532t1.9402 0.52596z"/>
  </g>
  <g aria-label="a b">
   <path d="m169.11 21.565q-2.6064 0-3.6116 0.59609-1.0052 0.5961-1.0052 2.0337 0 1.1454 0.74804 1.8233 0.75973 0.66622 2.0571 0.66622 1.7883 0 2.8636-1.2623 1.087-1.274 1.087-3.3779v-0.47921zm4.2896-0.8883v7.4687h-2.1506v-1.987q-0.73635 1.1922-1.835 1.7649-1.0987 0.56103-2.6883 0.56103-2.0104 0-3.2025-1.1221-1.1805-1.1337-1.1805-3.0272 0-2.2091 1.4727-3.3311 1.4844-1.1221 4.4181-1.1221h3.0155v-0.21039q0-1.4844-0.9818-2.2909-0.97012-0.81817-2.735-0.81817-1.1221 0-2.1857 0.26883-1.0636 0.26883-2.0454 0.80648v-1.987q1.1805-0.45584 2.2909-0.67791 1.1104-0.23376 2.1623-0.23376 2.8402 0 4.2428 1.4727 1.4026 1.4727 1.4026 4.4649z"/>
   <path d="m194.84 21.612q0-2.3727-0.98181-3.7168-0.97011-1.3558-2.6766-1.3558t-2.6883 1.3558q-0.97011 1.3441-0.97011 3.7168t0.97011 3.7285q0.9818 1.3441 2.6883 1.3441t2.6766-1.3441q0.98181-1.3558 0.98181-3.7285zm-7.3168-4.5701q0.67791-1.1688 1.7065-1.7298 1.0402-0.57272 2.4779-0.57272 2.3844 0 3.8688 1.8935 1.4961 1.8935 1.4961 4.9791 0 3.0857-1.4961 4.9791-1.4844 1.8935-3.8688 1.8935-1.4376 0-2.4779-0.56103-1.0286-0.57272-1.7065-1.7415v1.9636h-2.1623v-18.187h2.1623z"/>
   <path d="m169.76 50.858q-2.6064 0-3.6116 0.5961t-1.0052 2.0337q0 1.1454 0.74804 1.8233 0.75973 0.66622 2.0571 0.66622 1.7883 0 2.8636-1.2623 1.087-1.274 1.087-3.3779v-0.47921zm4.2896-0.8883v7.4687h-2.1506v-1.987q-0.73635 1.1922-1.835 1.7649-1.0987 0.56103-2.6883 0.56103-2.0104 0-3.2025-1.1221-1.1805-1.1337-1.1805-3.0272 0-2.2091 1.4727-3.3311 1.4844-1.1221 4.4181-1.1221h3.0155v-0.21039q0-1.4844-0.9818-2.2909-0.97012-0.81817-2.735-0.81817-1.1221 0-2.1857 0.26883-1.0636 0.26883-2.0454 0.80648v-1.987q1.1805-0.45584 2.2909-0.67791 1.1104-0.23376 2.1623-0.23376 2.8402 0 4.2428 1.4727 1.4026 1.4727 1.4026 4.4649z"/>
   <path d="m195.48 50.904q0-2.3727-0.98181-3.7168-0.97011-1.3558-2.6766-1.3558t-2.6883 1.3558q-0.97012 1.3441-0.97012 3.7168 0 2.3727 0.97012 3.7285 0.9818 1.3441 2.6883 1.3441t2.6766-1.3441q0.98181-1.3558 0.98181-3.7285zm-7.3168-4.5701q0.67792-1.1688 1.7065-1.7298 1.0402-0.57272 2.4779-0.57272 2.3844 0 3.8688 1.8935 1.4961 1.8935 1.4961 4.9791 0 3.0857-1.4961 4.9791-1.4844 1.8935-3.8688 1.8935-1.4376 0-2.4779-0.56103-1.0286-0.57272-1.7065-1.7415v1.9636h-2.1623v-18.187h2.1623z"/>
  </g>
 </g>
 <path d="m182.03 20.804a2.8424 2.8424 0 0 1-2.8424 2.8424 2.8424 2.8424 0 0 1-2.8424-2.8424 2.8424 2.8424 0 0 1 2.8424-2.8424 2.8424 2.8424 0 0 1 2.8424 2.8424z" stop-color="#000000" stroke-width="1.55"/>
 <g fill="none" stroke="#000">
  <path d="m156.03 34.407h48.073" stroke-width="1.3229"/>
  <g stroke-width="1.5875">
   <path d="m158.5 38.426v21.266"/>
   <path d="m178.85 38.426v21.266"/>
   <path d="m182.44 38.426v21.266"/>
   <path d="m201.59 38.426v21.266"/>
  </g>
 </g>
 <g stroke-width=".26458" aria-label="θ =">
  <path d="m41.59 119.28h-7.4453q0.17532 3.4948 0.9818 4.9792 1.0052 1.8234 2.7467 1.8234 1.7532 0 2.7233-1.835 0.85323-1.613 0.99349-4.9675zm-0.03506-1.987q-0.32727-3.3194-0.95843-4.4882-1.0052-1.8467-2.7233-1.8467-1.7883 0-2.735 1.8234-0.74804 1.4727-0.97012 4.5116zm-3.6818-8.0882q2.8052 0 4.4064 2.4779 1.6013 2.4662 1.6013 6.8376 0 4.3597-1.6013 6.8376-1.6013 2.4896-4.4064 2.4896-2.8168 0-4.4064-2.4896-1.6013-2.4779-1.6013-6.8376 0-4.3714 1.6013-6.8376 1.5896-2.4779 4.4064-2.4779z"/>
  <path d="m55.335 116.71h14.984v1.9636h-14.984zm0 4.7688h14.984v1.987h-14.984z"/>
 </g>
 <g stroke-width=".26458" aria-label="a b">
  <path d="m170.47 108.12q-2.6064 0-3.6116 0.5961-1.0052 0.59609-1.0052 2.0337 0 1.1454 0.74804 1.8234 0.75973 0.66623 2.0571 0.66623 1.7883 0 2.8636-1.2623 1.087-1.274 1.087-3.3779v-0.47922zm4.2896-0.88829v7.4687h-2.1506v-1.987q-0.73635 1.1922-1.835 1.7649-1.0987 0.56103-2.6883 0.56103-2.0104 0-3.2026-1.1221-1.1805-1.1338-1.1805-3.0272 0-2.2091 1.4727-3.3311 1.4844-1.1221 4.4181-1.1221h3.0155v-0.21038q0-1.4844-0.98181-2.2909-0.97011-0.81817-2.735-0.81817-1.1221 0-2.1857 0.26883t-2.0454 0.80648v-1.987q1.1805-0.45584 2.2909-0.67791 1.1104-0.23377 2.1623-0.23377 2.8402 0 4.2428 1.4727 1.4026 1.4727 1.4026 4.4649z"/>
  <path d="m196.2 108.16q0-2.3727-0.9818-3.7168-0.97012-1.3558-2.6766-1.3558-1.7065 0-2.6883 1.3558-0.97012 1.3441-0.97012 3.7168 0 2.3727 0.97012 3.7285 0.9818 1.3441 2.6883 1.3441 1.7065 0 2.6766-1.3441 0.9818-1.3558 0.9818-3.7285zm-7.3168-4.5701q0.67791-1.1688 1.7065-1.7298 1.0402-0.57272 2.4779-0.57272 2.3844 0 3.8688 1.8935 1.4961 1.8935 1.4961 4.9792 0 3.0857-1.4961 4.9791-1.4844 1.8935-3.8688 1.8935-1.4376 0-2.4779-0.56103-1.0286-0.57272-1.7065-1.7415v1.9636h-2.1623v-18.187h2.1623z"/>
  <path d="m171.12 137.41q-2.6065 0-3.6116 0.59609-1.0052 0.5961-1.0052 2.0337 0 1.1454 0.74804 1.8234 0.75972 0.66622 2.0571 0.66622 1.7883 0 2.8636-1.2623 1.087-1.274 1.087-3.3779v-0.47921zm4.2895-0.8883v7.4687h-2.1506v-1.987q-0.73636 1.1922-1.835 1.7649-1.0987 0.56103-2.6883 0.56103-2.0104 0-3.2026-1.1221-1.1805-1.1338-1.1805-3.0272 0-2.2091 1.4727-3.3311 1.4844-1.1221 4.4181-1.1221h3.0155v-0.21039q0-1.4844-0.98181-2.2909-0.97011-0.81817-2.735-0.81817-1.1221 0-2.1857 0.26882-1.0636 0.26883-2.0454 0.80649v-1.987q1.1805-0.45583 2.2909-0.67791 1.1104-0.23376 2.1623-0.23376 2.8402 0 4.2428 1.4727 1.4026 1.4727 1.4026 4.4649z"/>
  <path d="m196.84 137.46q0-2.3727-0.9818-3.7168-0.97012-1.3558-2.6766-1.3558-1.7065 0-2.6883 1.3558-0.97012 1.3441-0.97012 3.7168t0.97012 3.7285q0.9818 1.3441 2.6883 1.3441 1.7065 0 2.6766-1.3441 0.9818-1.3558 0.9818-3.7285zm-7.3168-4.5701q0.67791-1.1688 1.7065-1.7298 1.0402-0.57272 2.4779-0.57272 2.3844 0 3.8688 1.8935 1.4961 1.8935 1.4961 4.9791t-1.4961 4.9792q-1.4844 1.8935-3.8688 1.8935-1.4376 0-2.4779-0.56103-1.0286-0.57271-1.7065-1.7415v1.9636h-2.1623v-18.187h2.1623z"/>
 </g>
 <path d="m183.39 107.36a2.8424 2.8424 0 0 1-2.8424 2.8424 2.8424 2.8424 0 0 1-2.8424-2.8424 2.8424 2.8424 0 0 1 2.8424-2.8424 2.8424 2.8424 0 0 1 2.8424 2.8424z" stop-color="#000000" stroke-width="1.55"/>
 <g fill="none" stroke="#000">
  <path d="m157.4 120.96h48.073" stroke-width="1.3229"/>
  <g stroke-width="1.5875">
   <path d="m159.86 124.98v21.266"/>
   <path d="m180.21 124.98v21.266"/>
   <path d="m183.8 124.98v21.266"/>
   <path d="m202.95 124.98v21.266"/>
  </g>
 </g>
 <g stroke-width=".26458" aria-label="(">
  <path d="m156.44 87.556q-4.9075 8.4234-7.2881 16.664-2.3805 8.2403-2.3805 16.7 0 8.46 2.3805 16.774 2.4172 8.2769 7.2881 16.664h-5.8598q-5.4935-8.6065-8.2403-16.92-2.7101-8.3135-2.7101-16.517 0-8.167 2.7101-16.444 2.7101-8.2769 8.2403-16.92z"/>
 </g>
 <g transform="scale(-1,1)" stroke-width=".26458" aria-label="(">
  <path d="m-207.78 86.504q-4.9075 8.4234-7.2881 16.664-2.3805 8.2403-2.3805 16.7 0 8.46 2.3805 16.774 2.4172 8.2769 7.2881 16.664h-5.8598q-5.4935-8.6065-8.2403-16.92-2.7101-8.3135-2.7101-16.517 0-8.167 2.7101-16.444 2.7101-8.2769 8.2403-16.92z"/>
 </g>
</svg>
