<?xml version="1.0" encoding="UTF-8" standalone="no"?>
<svg
   xmlns:dc="http://purl.org/dc/elements/1.1/"
   xmlns:cc="http://creativecommons.org/ns#"
   xmlns:rdf="http://www.w3.org/1999/02/22-rdf-syntax-ns#"
   xmlns:svg="http://www.w3.org/2000/svg"
   xmlns="http://www.w3.org/2000/svg"
   xmlns:sodipodi="http://sodipodi.sourceforge.net/DTD/sodipodi-0.dtd"
   xmlns:inkscape="http://www.inkscape.org/namespaces/inkscape"
   width="43.021481mm"
   height="35.273949mm"
   viewBox="0 0 43.02148 35.273948"
   version="1.1"
   id="svg8"
   inkscape:version="1.0.1 (1.0.1+r74)"
   sodipodi:docname="otterHeadLogo.svg"
   inkscape:export-filename="/home/matt/dev/mattgreer.org/components/index/otter.png"
   inkscape:export-xdpi="31.860001"
   inkscape:export-ydpi="31.860001">
  <defs
     id="defs2" />
  <sodipodi:namedview
     id="base"
     pagecolor="#ffffff"
     bordercolor="#666666"
     borderopacity="1.0"
     inkscape:pageopacity="0.0"
     inkscape:pageshadow="2"
     inkscape:zoom="3.959798"
     inkscape:cx="52.4604"
     inkscape:cy="59.76523"
     inkscape:document-units="mm"
     inkscape:current-layer="layer3"
     inkscape:document-rotation="0"
     showgrid="false"
     fit-margin-top="0"
     fit-margin-left="0"
     fit-margin-right="0"
     fit-margin-bottom="0"
     inkscape:window-width="2220"
     inkscape:window-height="1032"
     inkscape:window-x="0"
     inkscape:window-y="28"
     inkscape:window-maximized="1"
     inkscape:snap-global="false"
     showguides="false">
    <sodipodi:guide
       position="-20.841822,38.819209"
       orientation="0.70710678,-0.70710678"
       id="guide2071" />
  </sodipodi:namedview>
  <metadata
     id="metadata5">
    <rdf:RDF>
      <cc:Work
         rdf:about="">
        <dc:format>image/svg+xml</dc:format>
        <dc:type
           rdf:resource="http://purl.org/dc/dcmitype/StillImage" />
        <dc:title></dc:title>
      </cc:Work>
    </rdf:RDF>
  </metadata>
  <g
     inkscape:groupmode="layer"
     id="layer3"
     inkscape:label="face"
     style="display:inline"
     transform="translate(-0.79139973,-2.6645831)">
    <path
       id="path1174"
       style="display:inline;opacity:1;fill:#f2f2f0;fill-opacity:1;stroke:none;stroke-width:0.999999px;stroke-linecap:butt;stroke-linejoin:miter;stroke-opacity:1"
       d="m 85.294922,14.304688 c -1.196895,0.0043 -2.417623,0.02565 -3.66211,0.0625 -69.474319,10.252309 -95.061031,82.614891 -67.072265,119.634762 0,0 15.455628,-24.1733 2.304687,-23.39062 -4.420578,-9.73344 0.879917,-7.1318 10.06836,-3.08008 0,0 -0.392843,9.59774 7.595703,14.49805 0,0 -3.848564,-2.78933 -0.382813,-7.02735 0,0 10.125532,6.59931 7.476563,10.96485 0,0 4.505859,0.67869 4.505859,-3.19336 0,0 11.690095,8.58284 6.404297,14.58398 0,0 7.663366,0.45699 10.119141,-6.45508 0,0 4.686435,10.05226 10.726562,11.71094 0,0 -3.05371,-6.83475 -0.07227,-10.13281 0,0 6.870997,12.26825 17.175781,10.70508 0,0 -7.126638,-3.5923 -5.962891,-5.75196 0,0 25.030604,7.66229 51.982414,-19.37109 6.87208,-6.89285 10.98541,-14.47852 13.31641,-21.957031 0.74438,1.767705 1.70147,4.644621 1.33398,7.125001 1.19486,-2.94351 6.81509,-14.42655 9.10157,-24.283204 1.52946,2.568077 2.29101,4.724609 2.29101,4.724609 1.64935,-3.867801 0.71176,-7.513074 -1.35156,-10.701172 0.11064,-1.889959 -0.0118,-3.604204 -0.45313,-5.03125 0.0542,-1.16042 0.008,-2.257621 -0.10741,-3.306641 3.21851,2.649665 5.25781,5.675782 5.25781,5.675782 0.86291,-5.676178 -2.85123,-9.752492 -7.39257,-12.566406 C 154.29029,49.940779 145.6875,47.009766 145.6875,47.009766 136.9069,29.448546 122.39867,14.170375 85.294922,14.304688 Z m 65.857418,88.925782 c -0.7229,1.78084 -1.32031,2.82422 -1.32031,2.82422 0.77326,-0.77665 1.16303,-1.76271 1.32031,-2.82422 z"
       sodipodi:nodetypes="sccccccccccccccsccccccccccsccc"
       transform="matrix(0.26458333,0,0,0.26458333,-0.11217864,0.01701313)" />
    <ellipse
       style="fill:#000000;fill-opacity:0.811689;stroke:none;stroke-width:9.30856;stroke-miterlimit:4;stroke-dasharray:none;stroke-opacity:1"
       id="path1168"
       cx="19.478018"
       cy="16.758652"
       rx="2.0016582"
       ry="2.1311963" />
    <ellipse
       style="fill:#000000;fill-opacity:0.783265;stroke:none;stroke-width:5.84748;stroke-miterlimit:4;stroke-dasharray:none;stroke-opacity:1"
       id="ellipse1221"
       cx="26.870335"
       cy="20.994585"
       rx="1.1651444"
       ry="1.4447938"
       transform="rotate(-18.380099)" />
    <path
       style="fill:#000000;fill-opacity:0.740293;stroke:none;stroke-width:0.223509px;stroke-linecap:butt;stroke-linejoin:miter;stroke-opacity:0.437737"
       d="m 29.557171,20.553337 c 0,0 0.830465,-0.522605 1.728336,-0.459386 0.897869,0.06322 2.577491,1.348749 2.577491,1.348749 0,0 0.596253,-2.222169 0.184077,-2.812574 0,0 1.618374,-1.264178 1.390293,-2.183522 -0.228081,-0.919345 -3.852051,-3.962953 -6.324423,-3.059346 -2.472372,0.903609 0.444226,7.166079 0.444226,7.166079 z"
       id="path1166" />
    <path
       id="path1925"
       style="color:#000000;font-style:normal;font-variant:normal;font-weight:normal;font-stretch:normal;font-size:medium;line-height:normal;font-family:sans-serif;font-variant-ligatures:normal;font-variant-position:normal;font-variant-caps:normal;font-variant-numeric:normal;font-variant-alternates:normal;font-variant-east-asian:normal;font-feature-settings:normal;font-variation-settings:normal;text-indent:0;text-align:start;text-decoration:none;text-decoration-line:none;text-decoration-style:solid;text-decoration-color:#000000;letter-spacing:normal;word-spacing:normal;text-transform:none;writing-mode:lr-tb;direction:ltr;text-orientation:mixed;dominant-baseline:auto;baseline-shift:baseline;text-anchor:start;white-space:normal;shape-padding:0;shape-margin:0;inline-size:0;clip-rule:nonzero;display:inline;overflow:visible;visibility:visible;opacity:1;isolation:auto;mix-blend-mode:normal;color-interpolation:sRGB;color-interpolation-filters:linearRGB;solid-color:#000000;solid-opacity:1;vector-effect:none;fill:#32312e;fill-opacity:1;fill-rule:nonzero;stroke:none;stroke-width:0.600001;stroke-linecap:butt;stroke-linejoin:miter;stroke-miterlimit:4;stroke-dasharray:none;stroke-dashoffset:0;stroke-opacity:1;color-rendering:auto;image-rendering:auto;shape-rendering:auto;text-rendering:auto;enable-background:accumulate;stop-color:#000000;stop-opacity:1"
       d="m 33.862998,21.4427 0.06255,0.225491 c 0,0 0.777234,0.352576 0.470083,1.936164 -0.307156,1.583587 -1.943299,4.349624 -5.464979,6.726445 2.260113,-0.924182 4.666529,-3.373596 5.510806,-5.739136 0.249218,-0.309836 0.438253,-0.228847 0.792699,-0.424569 0.940926,0.253595 2.847078,0.250922 3.312436,-0.279263 0,0 -1.724561,0.465436 -3.354549,-0.61535 0.01059,-1.185324 -1.329046,-1.829782 -1.329046,-1.829782 z"
       sodipodi:nodetypes="ccscccccc" />
  </g>
  <g
     inkscape:groupmode="layer"
     id="layer2"
     inkscape:label="otter body"
     transform="translate(-10.967073,-125.11285)"
     style="display:inline;opacity:1">
    <path
       style="fill:#444031;fill-opacity:1;stroke:none;stroke-width:0.264583px;stroke-linecap:butt;stroke-linejoin:miter;stroke-opacity:1"
       d="m 13.878106,157.02372 0.06469,0.69098 c 0,0 6.080438,3.74096 17.956691,1.31839 l -2.497553,-2.50169 -4.088982,-0.49523 -11.349797,-10.17882 z"
       id="path2235"
       sodipodi:nodetypes="ccccccc" />
    <path
       style="fill:#c2c1bc;fill-opacity:1;stroke:none;stroke-width:0.264583px;stroke-linecap:butt;stroke-linejoin:miter;stroke-opacity:1"
       d="m 11.887593,141.78647 5.071216,-10.79191 1.511043,2.1892 0.723308,-0.35416 -0.506564,-3.1881 1.755107,2.39124 0.547346,-0.72792 -0.512341,-2.02561 1.532311,0.46159 -0.990291,2.97384 z"
       id="path2093"
       sodipodi:nodetypes="ccccccccccc" />
    <path
       id="path2090"
       style="display:inline;opacity:1;fill:#e6e5df;fill-opacity:1;stroke:none;stroke-width:0.272722px;stroke-linecap:butt;stroke-linejoin:miter;stroke-opacity:1"
       d="m 21.147573,130.28755 0.108661,0.0693 4.212817,-2.14289 2.649989,-0.9295 3.200226,-0.68127 4.606985,-0.21786 0.390441,-0.098 c -0.0681,-0.007 -0.14112,-0.0251 -0.208802,-0.0314 l -2.299497,-1.14308 0.209334,1.07491 c -0.322225,0.008 -0.634394,0.028 -0.943342,0.0516 l -1.013655,-0.48739 -0.03782,0.59393 c -0.299992,0.0388 -0.591911,0.0823 -0.876227,0.13049 l -1.286378,-0.97583 -0.110792,1.25282 c -0.460106,0.1036 -0.869945,0.20655 -1.270928,0.31001 l -2.20362,-1.25655 0.898067,1.61077 c -0.513127,0.15519 -1.024405,0.33141 -1.531934,0.52786 l -0.24023,-1.36042 -0.481527,1.65445 c -0.283855,0.12147 -0.566215,0.24956 -0.846928,0.38351 l -1.218197,-1.30874 0.32439,1.75831 c -0.385395,0.20474 -0.766476,0.42158 -1.143089,0.64932 l -0.563024,-1.01898 -0.261004,1.53886 c -0.02177,0.0144 -0.04219,0.0313 -0.06392,0.0458 z" />
    <path
       id="path2217"
       style="display:inline;opacity:1;fill:#c2c1bc;fill-opacity:1;stroke:none;stroke-width:0.264583px;stroke-linecap:butt;stroke-linejoin:miter;stroke-opacity:1"
       d="m 13.960416,157.84457 c 0.03486,-0.055 0.235966,-0.36921 0.54002,-0.92036 0.329004,-0.59637 0.731568,-1.38955 1.02526,-2.17609 0.146847,-0.39327 0.266187,-0.78464 0.335897,-1.14929 0.06971,-0.36464 0.08966,-0.70229 0.03669,-0.98753 -0.02648,-0.14263 -0.07125,-0.27226 -0.136941,-0.38551 -0.06569,-0.11325 -0.152442,-0.2103 -0.263035,-0.28784 -0.110591,-0.0775 -0.244991,-0.13558 -0.406175,-0.17105 -0.161185,-0.0355 -0.348904,-0.0486 -0.566375,-0.0357 -0.146201,-0.32191 -0.252588,-0.59249 -0.321427,-0.81804 -0.06884,-0.22555 -0.100161,-0.40579 -0.09767,-0.54622 0.0025,-0.14043 0.03917,-0.24142 0.106971,-0.30799 0.0678,-0.0666 0.166447,-0.0989 0.293521,-0.10284 0.254145,-0.008 0.620826,0.0983 1.075904,0.27337 0.455075,0.17505 0.998842,0.41878 1.606619,0.68678 0,0 -0.0067,0.1587 0.01654,0.41703 0.02328,0.25833 0.07623,0.61647 0.195337,1.01492 0.11911,0.39846 0.304728,0.83741 0.592214,1.25781 0.143743,0.2102 0.312674,0.41574 0.512112,0.60926 0.19944,0.19352 0.429294,0.37486 0.693499,0.53692 0,0 -0.06356,-0.0461 -0.144695,-0.13281 -0.08113,-0.0867 -0.180142,-0.21387 -0.250114,-0.3762 -0.06997,-0.16234 -0.111003,-0.35966 -0.07751,-0.58653 0.03349,-0.22687 0.141793,-0.48345 0.371036,-0.76378 0,0 0.669452,0.43661 1.251604,1.01751 0.291076,0.29045 0.560535,0.61698 0.713136,0.9431 0.0763,0.16306 0.123526,0.32592 0.129707,0.48421 0.0062,0.15828 -0.02866,0.31192 -0.116271,0.4563 0,0 0.297783,0.0449 0.595828,-0.0382 0.149022,-0.0416 0.298027,-0.11513 0.409795,-0.24236 0.111765,-0.12724 0.186552,-0.30819 0.186552,-0.56431 0,0 0.193353,0.14212 0.461471,0.37982 0.268115,0.2377 0.610804,0.57137 0.910021,0.95446 0.149609,0.19155 0.288584,0.39558 0.401526,0.60617 0.112943,0.21059 0.199845,0.42735 0.246497,0.64544 0.04665,0.21809 0.05289,0.43707 0.0036,0.65112 -0.04927,0.21405 -0.153845,0.42319 -0.328663,0.62167 0,0 0.126357,0.008 0.326596,-0.009 0.20024,-0.0172 0.474369,-0.0595 0.768427,-0.15865 0.29406,-0.0992 0.608409,-0.25542 0.88987,-0.50126 0.14073,-0.12292 0.273048,-0.26805 0.390674,-0.43977 0.117625,-0.17172 0.220569,-0.37033 0.301789,-0.59893 0,0 0.309837,0.66516 0.819589,1.38493 0.254876,0.35989 0.559739,0.73332 0.900721,1.04438 0.170489,0.15553 0.350067,0.29559 0.536916,0.41031 0.186852,0.11473 0.381079,0.20404 0.580845,0.2589 0,0 -0.202022,-0.45169 -0.305408,-1.01286 -0.05169,-0.28058 -0.07859,-0.58883 -0.04341,-0.88108 0.01759,-0.14612 0.05047,-0.2882 0.103868,-0.42116 0.0534,-0.13296 0.127222,-0.25679 0.225827,-0.36587 0,0 0.113562,0.20289 0.326593,0.50074 0.213035,0.29785 0.525294,0.69084 0.922944,1.07074 0.198824,0.18995 0.419224,0.37674 0.658873,0.54674 0.239649,0.16999 0.498742,0.3234 0.775663,0.44648 0.276921,0.12307 0.571476,0.21592 0.882118,0.2651 0.31064,0.0492 0.637424,0.0543 0.978234,0.003 0,0 -0.47143,-0.23718 -0.904338,-0.54622 -0.216453,-0.15452 -0.423598,-0.32715 -0.557072,-0.49661 -0.06674,-0.0847 -0.114851,-0.16892 -0.136941,-0.24959 -0.02209,-0.0807 -0.01782,-0.15802 0.02067,-0.22945 0,0 0.413884,0.12686 1.146182,0.20516 0.366149,0.0392 0.811589,0.0664 1.324983,0.0594 0.513398,-0.007 1.094918,-0.0479 1.73168,-0.1447 0.63676,-0.0968 1.328748,-0.24961 2.064989,-0.48007 0.736241,-0.23046 1.516703,-0.53883 2.32854,-0.94671 0.811837,-0.40789 1.655161,-0.91501 2.518709,-1.5441 0.431774,-0.31454 0.868741,-0.65961 1.308964,-1.03766 0.440224,-0.37805 0.883947,-0.78958 1.329635,-1.23662 0.454559,-0.45593 0.863576,-0.92334 1.230932,-1.39888 0.367357,-0.47554 0.69311,-0.95892 0.981336,-1.44745 0.288226,-0.48854 0.538857,-0.98201 0.756026,-1.47692 0.216946,-0.4944 0.4004,-0.99049 0.554488,-1.48466 -8.01e-4,0.002 -1.490045,3.46028 -3.613216,4.7811 -4.855876,3.02085 -7.577315,2.2748 -7.577315,2.2748 -1.775212,1.68467 -3.044974,1.67821 -2.817398,1.45624 0.906116,-0.88379 -0.247592,-1.11577 -0.736391,-1.11156 -2.266278,0.0195 -4.13974,-0.3173 -6.472473,-0.90434 -0.287901,-0.0725 -0.990814,0.11723 -0.781865,1.52394 -2.072058,-0.85464 -1.73601,-2.67134 -2.144053,-2.78174 -9.143511,-2.47379 -5.959499,-15.5601 -8.214487,-8.51576 -2.782279,-9.54533 11.265979,-17.46508 11.265979,-17.46508 0,0 -16.397782,3.99477 -17.561203,20.2184 0.0013,4.41096 2.382512,9.54477 2.783811,10.37921 0.0395,0.0324 0.08667,0.0623 0.126606,0.0946 z" />
  </g>
</svg>
