<?xml version="1.0" encoding="UTF-8" standalone="no"?>
<svg
   xmlns:dc="http://purl.org/dc/elements/1.1/"
   xmlns:cc="http://creativecommons.org/ns#"
   xmlns:rdf="http://www.w3.org/1999/02/22-rdf-syntax-ns#"
   xmlns:svg="http://www.w3.org/2000/svg"
   xmlns="http://www.w3.org/2000/svg"
   xmlns:sodipodi="http://sodipodi.sourceforge.net/DTD/sodipodi-0.dtd"
   xmlns:inkscape="http://www.inkscape.org/namespaces/inkscape"
   width="159.40991mm"
   height="62.046604mm"
   viewBox="0 0 159.40991 62.046603"
   version="1.1"
   id="svg8"
   inkscape:version="1.0.1 (1.0.1+r74)"
   sodipodi:docname="otter.svg"
   inkscape:export-filename="/home/matt/dev/mattgreer.org/components/index/otter.png"
   inkscape:export-xdpi="31.860001"
   inkscape:export-ydpi="31.860001">
  <defs
     id="defs2" />
  <sodipodi:namedview
     id="base"
     pagecolor="#ffffff"
     bordercolor="#666666"
     borderopacity="1.0"
     inkscape:pageopacity="0.0"
     inkscape:pageshadow="2"
     inkscape:zoom="5.6"
     inkscape:cx="172.03127"
     inkscape:cy="116.60196"
     inkscape:document-units="mm"
     inkscape:current-layer="layer3"
     inkscape:document-rotation="0"
     showgrid="false"
     fit-margin-top="0"
     fit-margin-left="0"
     fit-margin-right="0"
     fit-margin-bottom="0"
     inkscape:window-width="3820"
     inkscape:window-height="1032"
     inkscape:window-x="0"
     inkscape:window-y="28"
     inkscape:window-maximized="1"
     inkscape:snap-global="false" />
  <metadata
     id="metadata5">
    <rdf:RDF>
      <cc:Work
         rdf:about="">
        <dc:format>image/svg+xml</dc:format>
        <dc:type
           rdf:resource="http://purl.org/dc/dcmitype/StillImage" />
        <dc:title></dc:title>
      </cc:Work>
    </rdf:RDF>
  </metadata>
  <g
     inkscape:groupmode="layer"
     id="layer2"
     inkscape:label="otter body"
     transform="translate(-10.063495,-122.46528)"
     style="display:inline;opacity:1"
     sodipodi:insensitive="true">
    <path
       id="path1079"
       style="fill:#9c905e;fill-opacity:1;stroke:none;stroke-width:0.264583px;stroke-linecap:butt;stroke-linejoin:miter;stroke-opacity:1"
       d="m 27.516275,123.65127 c -0.671583,0.2021 -1.363576,0.43513 -2.07694,0.70112 -24.95062568,9.3032 -11.523223,33.56752 -11.523223,33.56752 -2.983865,3.21027 0.915808,8.96232 0.915808,8.96232 6.953815,5.88222 47.302238,11.25335 47.302238,11.25335 25.527731,8.03303 53.005002,0.38725 53.005002,0.38725 6.94205,5.66482 11.9441,7.33056 21.58984,4.91402 8.80691,-2.20641 12.55143,-9.20002 14.70894,-11.92378 2.62116,-4.44993 5.04816,-7.96435 6.41817,-8.45809 4.09158,-1.47459 8.98712,-8.30692 7.54765,-10.37531 0,0 10.15818,-2.71947 -1.6233,-8.47992 l -11.3666,-0.8445 -4.46831,2.46416 c -2.22813,2.80701 -5.79267,4.61478 -8.45194,5.65294 l -5e-4,1.4e-4 -19.23841,-0.83055 -0.4093,-0.0179 c -4.19736,-0.30391 -8.26633,-0.45935 -12.02605,-0.51917 0,0 -4.9e-4,1.4e-4 -4.9e-4,1.4e-4 l -23.157414,-0.99986 c -4.708959,-5.23439 -19.895399,-8.66537 -19.895399,-8.66537 -4.133183,-4.91327 -8.759559,1.80561 -8.759559,1.80561 -0.479183,-5.02026 -7.087898,-6.38582 -7.087898,-6.38582 0,0 -2.89649,-17.32675 -20.737489,-12.40012 -0.219357,0.0606 -0.440965,0.12447 -0.664826,0.19183 z" />
    <path
       id="path1079-3"
       style="display:inline;opacity:1;fill:#746b46;fill-opacity:1;stroke:none;stroke-width:0.999999px;stroke-linecap:butt;stroke-linejoin:miter;stroke-opacity:1"
       d="m 46.580078,12.607422 c 0,0 -45.63785494,16.834051 -45.62304675,69.453125 0.005291,18.187573 13.51953175,52.861333 13.51953075,52.861333 -11.2776222,12.1333 3.460938,33.87304 3.460938,33.87304 26.282109,22.23205 178.78125,42.53125 178.78125,42.53125 96.48276,30.36106 200.33398,1.46485 200.33398,1.46485 0.048,0.0389 0.0907,0.0685 0.13868,0.10742 -0.0113,-0.034 -0.0378,-0.0655 -0.0469,-0.0977 -0.27553,-0.88739 -0.39512,-1.76719 -0.36719,-2.63867 0.0265,-0.87145 0.20296,-1.73533 0.51368,-2.58984 0.31067,-0.85448 0.75755,-1.70063 1.33007,-2.53711 0.57253,-0.83649 1.27082,-1.66307 2.08399,-2.48047 0.81324,-0.81744 1.74252,-1.62459 2.77539,-2.42188 2.06574,-1.59458 4.54883,-3.1484 7.36719,-4.65625 2.81835,-1.5078 5.97022,-2.97014 9.37304,-4.38281 3.40279,-1.41267 7.05587,-2.77483 10.875,-4.08398 3.8191,-1.30916 7.80575,-2.56448 11.87305,-3.76172 8.13464,-2.39445 16.59631,-4.55664 24.71484,-6.45313 8.11858,-1.89645 15.89294,-3.52796 22.65039,-4.85937 13.51491,-2.66279 22.9629,-4.12891 22.9629,-4.12891 0,0 -1.83963,-0.70922 -4.88672,-1.74023 -3.04706,-1.03106 -7.3007,-2.38397 -12.13086,-3.66602 -2.41508,-0.64105 -4.9738,-1.26475 -7.59766,-1.82227 -2.62386,-0.55751 -5.31366,-1.04731 -7.98828,-1.42382 -2.67462,-0.37644 -5.33491,-0.63837 -7.90234,-0.73633 -2.5674,-0.0979 -5.04157,-0.034 -7.34375,0.24414 -2.30219,0.27817 -4.8878,0.9438 -7.66602,1.88672 -2.77822,0.94288 -5.7483,2.16396 -8.82227,3.55078 -6.14796,2.77372 -12.70769,6.21364 -18.95703,9.4375 -3.12465,1.61193 -6.17315,3.1694 -9.05273,4.5625 -2.87959,1.3931 -5.59069,2.6229 -8.04492,3.57617 -2.45424,0.95331 -4.6514,1.63126 -6.5,1.92383 -0.92429,0.14627 -1.76092,0.19486 -2.5,0.13477 -0.73913,-0.0605 -1.38075,-0.23093 -1.91211,-0.5254 -1.06269,-0.58911 -2.72096,-1.11793 -4.8418,-1.57812 -2.12088,-0.4602 -4.70347,-0.85116 -7.61719,-1.16406 -2.91367,-0.31295 -6.15842,-0.54818 -9.59961,-0.69532 -3.44118,-0.14702 -7.07987,-0.20696 -10.7832,-0.16992 -3.70333,0.0378 -7.46976,0.17234 -11.16992,0.41211 -3.70016,0.23962 -7.33397,0.5842 -10.76563,1.04492 -3.43162,0.46073 -6.66276,1.0361 -9.56054,1.73633 -2.89779,0.70023 -5.46197,1.52619 -7.56055,2.48438 -1.0493,0.47905 -2.35181,0.81734 -3.87305,1.02929 -1.52125,0.21204 -3.26093,0.29656 -5.18554,0.26368 -1.9246,-0.034 -4.03359,-0.18332 -6.29297,-0.43946 -2.25937,-0.25625 -4.66976,-0.61907 -7.19531,-1.07617 -5.05111,-0.91415 -10.56526,-2.20738 -16.26954,-3.79297 -5.70428,-1.58562 -11.59752,-3.46241 -17.40625,-5.54297 -5.80871,-2.08055 -11.53206,-4.36465 -16.89648,-6.76367 -5.36442,-2.39905 -10.3708,-4.91402 -14.74219,-7.45508 -2.1857,-1.27052 -4.21231,-2.5474 -6.04687,-3.82031 -1.83455,-1.27294 -3.47581,-2.54163 -4.89063,-3.79492 -1.41482,-1.25329 -2.6028,-2.49156 -3.5293,-3.70313 -0.92648,-1.21156 -1.59135,-2.39711 -1.96093,-3.54492 -0.36956,-1.1478 -0.87747,-2.15858 -1.50391,-3.04492 -0.62645,-0.8863 -1.37131,-1.64677 -2.21875,-2.29492 -0.84744,-0.64819 -1.79753,-1.18387 -2.83008,-1.61719 -1.03254,-0.43332 -2.1483,-0.76404 -3.33007,-1.00586 -1.18178,-0.24189 -2.4295,-0.39516 -3.72461,-0.46875 -1.29512,-0.0737 -2.63719,-0.0671 -4.00977,0.004 -2.74517,0.14249 -5.60949,0.55057 -8.44922,1.13281 -2.83973,0.5822 -5.6555,1.33855 -8.30273,2.17383 -2.64724,0.83531 -5.12723,1.75047 -7.29493,2.65234 -2.16769,0.90187 -4.02273,1.7904 -5.42382,2.57227 -1.40109,0.78187 -2.34788,1.45632 -2.69532,1.93164 -0.34745,0.47531 -1.78274,0.98813 -4.05664,1.51367 -2.27388,0.52554 -5.38583,1.06353 -9.08593,1.5918 -7.40019,1.05656 -17.15234,2.07104 -27.25586,2.85351 -10.10352,0.78244 -20.55841,1.33251 -29.36328,1.46094 -4.40243,0.0642 -8.39331,0.0228 -11.720708,-0.14648 -3.327401,-0.17046 -5.992019,-0.47101 -7.74414,-0.92383 -1.752121,-0.45283 -2.991885,-1.04574 -3.822266,-1.73633 -0.415188,-0.34545 -0.728773,-0.71453 -0.951172,-1.10352 -0.222387,-0.38902 -0.353502,-0.79657 -0.408203,-1.21875 -0.109417,-0.8443 0.09117,-1.74431 0.501953,-2.6582 0.326211,-1.61163 1.15019,-2.24082 3.53125,-1.79102 12.569655,1.94581 23.843706,-2.72507 32.908206,-9.09765 5.06863,0.9522 19.32677,1.72894 28.6582,-16.61524 11.51228,-22.631353 34.23242,-29.787105 34.23242,-29.787105 3.79011,-3.326891 20.36578,-3.534221 28.99024,-0.521484 8.62446,3.012699 4.15949,15.947379 -4.2793,28.527339 -8.43879,12.58001 3.99219,14.72657 3.99219,14.72657 -11.79839,-12.84934 19.0039,-16.70117 19.0039,-16.70117 3.67367,-13.05559 -25.48439,-47.151098 -36.67187,-49.132818 -11.18749,-1.981757 -10.51372,15.862114 -12.54688,17.619141 -2.03316,1.757027 -29.84179,3.945313 -29.84179,3.945313 L 138.25391,115.39844 C 128.1188,120.86158 93.181244,136.96606 61.826172,118.60742 -3.2851293,80.484234 46.580078,12.607422 46.580078,12.607422 Z"
       transform="matrix(0.26458333,0,0,0.26458333,10.063495,122.46528)" />
    <path
       id="path1079-0"
       style="display:inline;opacity:1;fill:#bab47e;fill-opacity:1;stroke:none;stroke-width:0.264583px;stroke-linecap:butt;stroke-linejoin:miter;stroke-opacity:1"
       d="m 72.861296,142.62026 c -0.01145,0.72853 -0.07632,1.43785 -0.123507,2.0469 -0.02549,0.32898 -0.04345,0.6325 -0.03979,0.90072 0.0037,0.26823 0.02885,0.5016 0.0894,0.69092 0.06056,0.18932 0.232487,0.42973 0.48731,0.7059 0.254823,0.27616 0.592497,0.58789 0.983919,0.91932 0.782844,0.66287 1.78145,1.40459 2.764689,2.0991 1.966474,1.38901 3.872114,2.58899 3.872114,2.58899 2.96952,-2.48373 8.124247,-1.85462 16.461679,-1.57024 4.42149,-0.0873 6.40725,-0.54653 13.81184,1.37412 7.10791,-1.89705 8.80364,4.94369 15.02448,2.10141 1.80552,-0.82655 8.41026,-0.59384 9.75963,-1.26657 2.23013,-1.11185 3.1295,-1.61836 3.58582,-1.86914 l -19.16834,-0.82734 -0.40927,-0.0176 c -11.81947,-0.60747 -24.406064,-1.05389 -35.183904,-1.51928 -2.396032,-2.66342 -7.475572,-4.84207 -11.916069,-6.35724 z"
       sodipodi:nodetypes="sscssssccccscccccs" />
    <path
       style="fill:#bab47e;fill-opacity:1;stroke:none;stroke-width:0.264583px;stroke-linecap:butt;stroke-linejoin:miter;stroke-opacity:1"
       d="m 159.04818,144.96149 c 0,0 -12.13555,10.88188 -8.11602,15.16223 4.01954,4.28035 15.82555,-3.13476 15.82555,-7.47064 0,-4.33589 -2.75117,-9.24915 -7.70953,-7.69159 z"
       id="path1919" />
    <path
       style="fill:#bab47e;fill-opacity:1;stroke:none;stroke-width:0.264583px;stroke-linecap:butt;stroke-linejoin:miter;stroke-opacity:1"
       d="m 126.21649,177.70616 c 1.10486,1.35992 7.31101,2.92297 9.71482,-0.10252 2.40382,-3.0255 -5.95138,-3.18615 -9.71482,0.10252 z"
       id="path1921" />
  </g>
  <g
     inkscape:groupmode="layer"
     id="layer3"
     inkscape:label="face"
     style="display:inline"
     transform="translate(0.11217864,-0.01701313)">
    <path
       id="path1174"
       style="display:inline;opacity:1;fill:#e2e5a9;fill-opacity:0.424944;stroke:none;stroke-width:0.999999px;stroke-linecap:butt;stroke-linejoin:miter;stroke-opacity:1"
       d="M 86.757812,0.07226562 C 32.705819,0.83359857 -8.1334819,52.503212 0.80859375,86.4375 c 0,0 24.68998225,-7.520668 25.70117225,21.1582 0,0 -0.392843,9.59774 7.595703,14.49805 0,0 -3.848564,-2.78932 -0.382813,-7.02734 0,0 10.125532,6.5993 7.476563,10.96484 0,0 4.505859,0.67869 4.505859,-3.19336 0,0 11.690095,8.58285 6.404297,14.58399 0,0 7.663366,0.45699 10.119141,-6.45508 0,0 4.686435,10.05225 10.726562,11.71093 0,0 -3.053715,-6.83475 -0.07227,-10.13281 0,0 6.870998,12.26825 17.175782,10.70508 0,0 -7.126638,-3.59229 -5.962891,-5.75195 0,0 25.030611,7.66228 51.982421,-19.3711 6.87207,-6.89285 10.98541,-14.47852 13.31641,-21.957028 0.74438,1.767705 1.70148,4.644618 1.33399,7.124998 1.70872,-4.2094 4.1438,-12.660036 1.23828,-22.054686 0.72665,-15.567364 -4.25,-27.851562 -4.25,-27.851562 0,0 -6.907,-54.07773935 -60.958992,-53.31640638 z M 150.72852,103.29492 c -0.7229,1.78084 -1.32032,2.82422 -1.32032,2.82422 0.77326,-0.77665 1.16304,-1.76271 1.32032,-2.82422 z"
       transform="scale(0.26458333)" />
    <path
       style="fill:#000000;fill-opacity:0.617151;stroke:none;stroke-width:0.264583px;stroke-linecap:butt;stroke-linejoin:miter;stroke-opacity:0.437737"
       d="m 25.746548,20.601712 c 0,0 1.04752,-0.458839 2.060528,-0.204621 1.013007,0.254218 2.685917,2.123827 2.685917,2.123827 0,0 1.103512,-2.535222 0.745295,-3.322376 0,0 2.08812,-1.187659 2.002658,-2.331017 -0.08546,-1.143358 -3.643592,-5.499627 -6.638057,-4.912575 -2.994465,0.587053 -0.856341,8.646762 -0.856341,8.646762 z"
       id="path1166" />
    <ellipse
       style="fill:#000000;fill-opacity:0.725967;stroke:none;stroke-width:8.69331;stroke-miterlimit:4;stroke-dasharray:none;stroke-opacity:1"
       id="path1168"
       cx="14.755914"
       cy="17.881243"
       rx="1.869356"
       ry="1.9903322" />
    <path
       id="path1925"
       style="color:#000000;font-style:normal;font-variant:normal;font-weight:normal;font-stretch:normal;font-size:medium;line-height:normal;font-family:sans-serif;font-variant-ligatures:normal;font-variant-position:normal;font-variant-caps:normal;font-variant-numeric:normal;font-variant-alternates:normal;font-variant-east-asian:normal;font-feature-settings:normal;font-variation-settings:normal;text-indent:0;text-align:start;text-decoration:none;text-decoration-line:none;text-decoration-style:solid;text-decoration-color:#000000;letter-spacing:normal;word-spacing:normal;text-transform:none;writing-mode:lr-tb;direction:ltr;text-orientation:mixed;dominant-baseline:auto;baseline-shift:baseline;text-anchor:start;white-space:normal;shape-padding:0;shape-margin:0;inline-size:0;clip-rule:nonzero;display:inline;overflow:visible;visibility:visible;opacity:1;isolation:auto;mix-blend-mode:normal;color-interpolation:sRGB;color-interpolation-filters:linearRGB;solid-color:#000000;solid-opacity:1;vector-effect:none;fill:#46361a;fill-opacity:0.773908;fill-rule:nonzero;stroke:none;stroke-width:2.26772;stroke-linecap:butt;stroke-linejoin:miter;stroke-miterlimit:4;stroke-dasharray:none;stroke-dashoffset:0;stroke-opacity:1;color-rendering:auto;image-rendering:auto;shape-rendering:auto;text-rendering:auto;enable-background:accumulate;stop-color:#000000;stop-opacity:1"
       d="m 115.48239,83.978066 0.17374,0.866828 c 0,0 0.86072,3.545534 -0.7323,9.430497 -1.59302,5.884959 -6.54833,13.859879 -20.476564,21.851559 14.769644,-3.42926 20.888494,-15.73638 22.662114,-21.259762 0.11396,-0.420994 0.21061,-0.833938 0.29492,-1.238282 2.7361,1.303516 10.53222,3.891089 12.97851,1.482422 0,0 -6.76602,0.500503 -12.61328,-4.021484 0.36565,-4.465197 -2.28714,-7.111778 -2.28714,-7.111778 z"
       transform="matrix(0.26458333,0,0,0.26458333,-0.11217864,0.01701313)"
       sodipodi:nodetypes="ccscccccc" />
    <ellipse
       style="fill:#000000;fill-opacity:0.725967;stroke:none;stroke-width:6.15823;stroke-miterlimit:4;stroke-dasharray:none;stroke-opacity:1"
       id="ellipse1221"
       cx="27.884474"
       cy="19.775808"
       rx="1.2270629"
       ry="1.5215734"
       transform="rotate(-18.380099)" />
  </g>
</svg>
