<svg xmlns="http://www.w3.org/2000/svg" viewBox="0 0 512 512"><path d="M114.458 10.507h22.056v21.864h20.33V10.507H178.9v66.168h-22.056V54.62h-20.138v22.056h-22.248m93.594-44.112h-19.467V10.507h61.086v22.056h-19.563v44.112h-22.056m51.304-66.168h23.111L296.66 33.81l14.192-23.303h23.111v66.168h-22.056V43.88l-15.44 23.782L281.03 43.88v32.796h-21.673m85.54-66.168h22.055v44.304h31.262v21.864h-53.318" fill="#fff"/><path fill="#e44d26" d="M113.69 462.176L82.046 106.978h347.91l-31.646 355.006-142.597 39.509"/><path fill="#f16529" d="M256 471.286V136.13h142.213l-27.138 303.03"/><path fill="#ebebeb" d="M146.679 179.571H256v43.537h-61.565l4.028 44.591H256v43.441h-97.43m1.918 21.864h43.728l3.069 34.81L256 380.856v45.455l-89.375-24.933"/><path fill="#fff" d="M364.937 179.571H255.808v43.537H360.91m-3.932 44.591h-101.17v43.537h53.702l-5.083 56.578-48.619 13.042v45.263l89.183-24.741"/></svg>