<svg xmlns="http://www.w3.org/2000/svg" xmlns:xlink="http://www.w3.org/1999/xlink" width="798.705" height="466.787" viewBox="0 0 211.324 123.504"><defs><linearGradient id="a"><stop offset="0" stop-color="#ade2ec" stop-opacity=".133"/><stop offset=".925" stop-color="#f5f5f5" stop-opacity=".841"/><stop offset="1" stop-color="#fff" stop-opacity="0"/></linearGradient><linearGradient xlink:href="#a" id="d" x1="45.353" y1="76.584" x2="274.087" y2="-20.431" gradientUnits="userSpaceOnUse"/><linearGradient gradientTransform="translate(-24.816 -133.558)" xlink:href="#b" id="c" x1="43.682" y1="301.628" x2="38.797" y2="135.473" gradientUnits="userSpaceOnUse"/><linearGradient id="b"><stop offset="0" stop-color="#e3e3e3" stop-opacity=".181"/><stop offset="1" stop-color="#e3e3e3" stop-opacity="0"/></linearGradient></defs><path d="M30.363 81.537c-3.375-.33-9.169.076-9.908 6.565-.765 6.72 10.724 7.91 10.724 7.91l.27-2.288c-1.73-.253-8.121-1.455-7.674-5.386.533-4.678 5.436-4.624 7.855-4.304.372.05.677.103.906.149l.245-2.235s-.704-.192-1.778-.336a19.736 19.736 0 00-.64-.075z" fill="#e76f51" stroke="#000" stroke-width=".198"/><path d="M40.926 74.827c-7.303 0-13.224 1.756-13.224 3.923v.009c-.005 6.906.818 13.814.809 20.72 0 2.166 5.112 3.923 12.415 3.923 7.304 0 12.187-1.759 12.285-3.923l.94-20.729c0-2.167-5.921-3.923-13.225-3.923z" fill="#e76f51" stroke="#100701" stroke-width=".158" stroke-opacity=".995"/><path d="M52.013 78.423a10.987 2.426 0 01-10.987 2.426 10.987 2.426 0 01-10.986-2.426 10.987 2.426 0 0110.986-2.427 10.987 2.426 0 0110.987 2.427z" fill="#af3618"/><path d="M52.013 78.423c0 1.34-4.919 2.426-10.987 2.426-6.067 0-10.986-1.087-10.986-2.426" fill="none" stroke="#120000" stroke-width=".2"/><path d="M41.153 77.6a10.987 2.426 0 00-10.369 1.632 10.987 2.426 0 0010.37 1.632 10.987 2.426 0 0010.368-1.632A10.987 2.426 0 0041.153 77.6z" fill="#695a11"/><path style="line-height:normal;font-variant-ligatures:normal;font-variant-position:normal;font-variant-caps:normal;font-variant-numeric:normal;font-variant-alternates:normal;font-feature-settings:normal;text-indent:0;text-align:start;text-decoration-line:none;text-decoration-style:solid;text-decoration-color:#000;text-transform:none;text-orientation:mixed;white-space:normal;shape-padding:0;isolation:auto;mix-blend-mode:normal;solid-color:#000;solid-opacity:1" d="M44.974 80.742s1.416.203 2.16.476c.374.136.738.325.991.568.254.244.399.53.367.91v.006l.106 10.157.324.886.248-.091-.309-.844-.103-10.104-.002.012c.038-.462-.153-.84-.447-1.123-.295-.283-.69-.48-1.082-.625-.377-.138-.766-.187-1.049-.28-1.203-.22-1.206-.046-1.204.052z" color="#000" font-weight="400" font-family="sans-serif" overflow="visible" fill="#ddd"/><path d="M46.318 93.138l.62-1.13 3.571-1.77.548.81-.205 2.945-.386.922-3.686 1.654-.54-.567z" fill="#378f38"/><path d="M22.923 46.518c4.234-11.113 19.05-12.12 9.922-25.4-10.081-14.667-3.953-19.77-3.953-19.77L6.374 1.143C.685 7.756 5.05 16.222 9.019 20.985c3.97 4.763.926 17.595-6.614 28.708-7.54 11.112 7.408 19.711 7.408 19.711 0 1.34 4.92 2.426 10.987 2.426 6.068 0 10.987-1.086 10.987-2.426 0 0-13.097-11.774-8.864-22.886z" fill="url(#c)" transform="translate(20.226 9.018)"/><g transform="translate(27.962 -131.265)" stroke="#000"><rect width="113.171" height="80.029" x="29.892" y="150.852" ry="1.407" fill="#424242" stroke-width=".283"/><path d="M12.148 243.635l2.94.796c47.611-.159 95.172.158 142.782 0l2.935-.816" fill="#0b0b0b" stroke-width=".265"/><path d="M10.052 240.291l152.85.06-.023 2.667s-.752.618-1.576.618H11.64c-.824 0-1.584-.96-1.584-.96z" fill="#555" stroke-width=".28"/><path d="M30.083 224.467S15.549 235.82 10.318 239.92c-.835.687.443 1.524 1.223 1.524 54.006.033 104.112-.006 149.873 0 .779 0 2.057-.837 1.222-1.524-5.23-4.1-19.764-15.453-19.764-15.453z" fill="#424242" stroke-width=".265"/></g><g transform="translate(20.226 9.018)"><path d="M43.507 85.398l-8.788 8.126H153.705l-8.787-8.126H88.127z" fill="#2a2a2a"/><path d="M153.706 93.524l-8.788-8.126H43.507l-8.788 8.126" fill="none" stroke="#cbcbcb" stroke-width=".5" stroke-opacity=".239"/><ellipse cx="94.212" cy="90.875" rx="1.284" ry=".627" fill="#e35858"/><ellipse cx="148.953" cy="85.721" rx="1.702" ry=".627" fill="#2a2a2a"/><ellipse cx="148.953" cy="85.721" rx=".357" ry=".176" fill="#a8ed94"/></g><g><path d="M99.386 102.985l-2.61 5.61H132.102l-2.61-5.61h-16.859z" fill="#575757" stroke="#000" stroke-width=".12"/><g fill="#e35858" stroke="#e35858" stroke-width=".265"><path d="M99.076 103.927h13.263M116.538 103.927h13.264"/></g></g><g><path fill="#2b2b2b" stroke="#000" stroke-width=".267" d="M61.085 26.06h106.706V89.18H61.085z"/><path fill="#c17531" d="M67.662 29.668h5.558v2.021h-5.558zM79.168 29.668h4.154v2.021h-4.154z"/><path fill="#6e6e6e" d="M73.862 29.668h4.604v2.021h-4.604z"/><path fill="#348f7a" d="M83.968 29.668h6.12v2.021h-6.12z"/><path fill="#c17531" d="M67.662 32.278h5.558V34.3h-5.558zM86.048 32.278h4.154V34.3h-4.154z"/><path fill="#6e6e6e" d="M73.862 32.278h11.51V34.3h-11.51z"/><path fill="#348f7a" d="M90.846 32.278h11.284V34.3H90.846z"/><path fill="#c17531" d="M67.662 34.888h5.558v2.021h-5.558zM84.027 34.888h4.154v2.021h-4.154z"/><path fill="#6e6e6e" d="M73.862 34.888h9.544v2.021h-9.544z"/><path fill="#348f7a" d="M88.813 34.888h16.112v2.021H88.813z"/><path fill="#c17531" d="M67.662 37.498h5.558v2.021h-5.558zM81.778 37.498h4.154v2.021h-4.154z"/><path fill="#6e6e6e" d="M73.862 37.498h7.242v2.021h-7.242z"/><path fill="#348f7a" d="M86.65 37.498h15.27v2.021H86.65z"/><path fill="#c17531" d="M67.662 54.82h7.523v2.02h-7.523z"/><path fill="#6e6e6e" d="M75.821 54.82h11.565v2.02H75.821z"/><path fill="#948d93" d="M88.022 54.82h3.818v2.02h-3.818zM92.475 54.82h6.905v2.02h-6.905zM100.017 54.82h4.997v2.02h-4.997z"/><path fill="#c17531" d="M69.231 62.37h5.895v2.021h-5.895zM70.714 64.972h5.895v2.021h-5.895z"/><path fill="#b5b9ba" d="M72.325 67.575h4.547v2.021h-4.547z"/><path fill="#348f7a" d="M77.514 67.575h9.712v2.021h-9.712z"/><path fill="#b5b9ba" d="M72.27 70.177h4.594v2.021H72.27z"/><path fill="#348f7a" d="M77.514 70.177h9.712v2.021h-9.712z"/><path fill="#b5b9ba" d="M72.322 72.78h8.253v2.02h-8.253z"/><path fill="#6e6e6e" d="M85.953 75.382h13.698v2.021H85.953z"/><path fill="#c17531" d="M73.828 75.382H85.45v2.021H73.83zM73.813 79.703h3.818v2.021h-3.818z"/><path fill="#b5b9ba" d="M78.23 79.703h7.915v2.021H78.23z"/><path fill="#348f7a" d="M86.743 79.703h8.982v2.021h-8.982zM96.323 79.703h4.772v2.021h-4.772zM101.693 79.703h4.772v2.021h-4.772zM107.063 79.703h8.982v2.021h-8.982z"/><path fill="#6e6e6e" d="M75.425 82.302h4.772v2.021h-4.772z"/><path fill="#948d93" d="M80.87 82.302h3.818v2.021H80.87z"/><path fill="#6e6e6e" d="M85.361 82.302h11.172v2.021H85.361z"/><path fill="#c17531" d="M77.046 84.902h6.456v2.021h-6.456z"/><path fill="#b5b9ba" d="M84.176 84.902h3.818v2.021h-3.818z"/><path fill="#b83aae" d="M88.667 84.902h5.67v2.021h-5.67z"/><path fill="#c17531" d="M69.175 57.386h4.997v2.021h-4.997z"/><path fill="#6e6e6e" d="M74.79 57.386h11.732v2.021H74.79z"/><path fill="#c17531" d="M87.14 57.386h4.48v2.021h-4.48z"/><path fill="#b5b9ba" d="M92.238 57.386h5.851v2.021h-5.85zM98.707 57.386h8.45v2.021h-8.45z"/></g><g><path fill="url(#d)" stroke="#000" stroke-width=".267" d="M40.859 17.041h106.706v63.122H40.859z" transform="translate(20.226 9.018)"/></g></svg>