<?xml version="1.0" encoding="UTF-8" standalone="no"?>
<!-- Created with Inkscape (http://www.inkscape.org/) -->

<svg
   xmlns:dc="http://purl.org/dc/elements/1.1/"
   xmlns:cc="http://creativecommons.org/ns#"
   xmlns:rdf="http://www.w3.org/1999/02/22-rdf-syntax-ns#"
   xmlns:svg="http://www.w3.org/2000/svg"
   xmlns="http://www.w3.org/2000/svg"
   xmlns:xlink="http://www.w3.org/1999/xlink"
   xmlns:sodipodi="http://sodipodi.sourceforge.net/DTD/sodipodi-0.dtd"
   xmlns:inkscape="http://www.inkscape.org/namespaces/inkscape"
   width="264.33035mm"
   height="258.96277mm"
   viewBox="0 0 264.33035 258.96277"
   version="1.1"
   id="svg8"
   inkscape:version="0.92.5 (2060ec1f9f, 2020-04-08)"
   sodipodi:docname="meIndex_dark.svg"
   inkscape:export-filename="/home/matt/dev/mattgreer.org/illustrations/meIndex_dark.png"
   inkscape:export-xdpi="96"
   inkscape:export-ydpi="96">
  <defs
     id="defs2">
    <linearGradient
       inkscape:collect="always"
       id="linearGradient5832">
      <stop
         style="stop-color:#e3e3e3;stop-opacity:1;"
         offset="0"
         id="stop5828" />
      <stop
         style="stop-color:#e3e3e3;stop-opacity:0;"
         offset="1"
         id="stop5830" />
    </linearGradient>
    <linearGradient
       inkscape:collect="always"
       id="linearGradient5745">
      <stop
         style="stop-color:#2d2d2d;stop-opacity:0.54022986"
         offset="0"
         id="stop5741" />
      <stop
         style="stop-color:#e9c46a;stop-opacity:0;"
         offset="1"
         id="stop5743" />
    </linearGradient>
    <radialGradient
       inkscape:collect="always"
       xlink:href="#linearGradient5745"
       id="radialGradient5749"
       cx="188.04315"
       cy="150.69788"
       fx="188.04315"
       fy="150.69788"
       r="124.16518"
       gradientTransform="matrix(1.0924059,0.12489425,-0.02311122,0.20214561,-13.893487,201.0141)"
       gradientUnits="userSpaceOnUse" />
    <linearGradient
       inkscape:collect="always"
       xlink:href="#linearGradient5832"
       id="linearGradient5834"
       x1="43.681694"
       y1="301.62817"
       x2="44.677052"
       y2="146.09676"
       gradientUnits="userSpaceOnUse" />
  </defs>
  <sodipodi:namedview
     id="base"
     pagecolor="#ffffff"
     bordercolor="#666666"
     borderopacity="1.0"
     inkscape:pageopacity="0.0"
     inkscape:pageshadow="2"
     inkscape:zoom="1.4142136"
     inkscape:cx="518.28478"
     inkscape:cy="220.14204"
     inkscape:document-units="mm"
     inkscape:current-layer="layer12"
     showgrid="false"
     fit-margin-top="8"
     fit-margin-left="8"
     fit-margin-right="8"
     fit-margin-bottom="8"
     inkscape:window-width="1900"
     inkscape:window-height="1032"
     inkscape:window-x="1920"
     inkscape:window-y="28"
     inkscape:window-maximized="0"
     inkscape:snap-global="false"
     showguides="true"
     inkscape:guide-bbox="true">
    <sodipodi:guide
       position="-27.314946,32.085708"
       orientation="1,0"
       id="guide5676"
       inkscape:locked="false" />
  </sodipodi:namedview>
  <metadata
     id="metadata5">
    <rdf:RDF>
      <cc:Work
         rdf:about="">
        <dc:format>image/svg+xml</dc:format>
        <dc:type
           rdf:resource="http://purl.org/dc/dcmitype/StillImage" />
        <dc:title />
      </cc:Work>
    </rdf:RDF>
  </metadata>
  <g
     inkscape:groupmode="layer"
     id="layer9"
     inkscape:label="desk"
     transform="translate(-55.877975,-44.18282)"
     sodipodi:insensitive="true">
    <path
       style="fill:url(#radialGradient5749);fill-opacity:1;stroke:none;stroke-width:0.26458332px;stroke-linecap:butt;stroke-linejoin:miter;stroke-opacity:1"
       d="M 63.877975,254.99612 H 312.20833 c 0,0 -113.77083,90.3363 -248.330355,0 z"
       id="path5261"
       inkscape:connector-curvature="0" />
  </g>
  <g
     inkscape:groupmode="layer"
     id="layer22"
     inkscape:label="left arm"
     sodipodi:insensitive="true">
    <path
       style="display:inline;fill:#d99e77;fill-opacity:1;stroke:none;stroke-width:0.26458332px;stroke-linecap:butt;stroke-linejoin:miter;stroke-opacity:1"
       d="m 115.82881,165.13196 8.73125,17.72709 40.78772,11.87774 c 0,0 15.97286,3.78651 2.77773,6.88337 0,0 3.6527,2.6785 -3.4502,3.26693 -16.06998,1.3313 -51.75692,-8.53429 -51.75692,-8.53429 z"
       id="path7300"
       inkscape:connector-curvature="0"
       sodipodi:nodetypes="ccccscc" />
  </g>
  <g
     inkscape:groupmode="layer"
     id="layer8"
     inkscape:label="neck"
     transform="translate(-55.877975,-44.18282)"
     sodipodi:insensitive="true">
    <path
       style="fill:#f6b285;fill-opacity:1;stroke:#000000;stroke-width:0.24905664px;stroke-linecap:butt;stroke-linejoin:miter;stroke-opacity:1"
       d="m 120.82071,121.18092 c 0,0 4.68629,26.47261 -2.34315,32.71259 l 20.80396,10.52556 11.53881,-1.40393 1.12429,-1.53763 c 0,0 -3.31371,-14.70775 -3.31371,-22.12849 z"
       id="path5134"
       inkscape:connector-curvature="0" />
  </g>
  <g
     inkscape:label="face"
     inkscape:groupmode="layer"
     id="layer1"
     transform="translate(29.369202,-28.476433)"
     style="display:inline"
     sodipodi:insensitive="true">
    <path
       style="fill:#ffccaa;stroke:#000000;stroke-width:0.26458332px;stroke-linecap:butt;stroke-linejoin:miter;stroke-opacity:1"
       d="m 34.733594,106.65352 c 0,0 2.834821,15.68601 10.205364,20.41071 7.37053,4.7247 23.24553,0.18899 23.24553,0.18899 0,0 4.72471,-12.09524 3.40179,-20.5997 0,0 6.80357,-21.92262 3.96875,-37.041668 -2.83482,-15.119047 -39.876494,-7.748511 -39.876494,-7.748511 l -10.39434,23.434524 z"
       id="path100"
       inkscape:connector-curvature="0" />
    <path
       style="fill:#f6b285;fill-opacity:1;stroke:none;stroke-width:0.26458332px;stroke-linecap:butt;stroke-linejoin:miter;stroke-opacity:1"
       d="m 77.684633,83.138306 -4.476766,-4.543581 -2.672694,1.202711 c 0,0 -6.852613,-7.163368 -7.824348,-3.378619 0,0 0.08413,1.513284 -1.565869,1.318746 -0.771014,-0.0909 -0.74628,-0.643545 -1.486732,-1.37815 -1.288385,-1.278212 -2.897674,-2.738926 -4.891953,-2.441905 -3.140416,0.467723 -1.603618,1.403165 -1.603618,1.403165 0,0 -4.142677,2.672693 -7.216278,2.138156 -3.073598,-0.534541 -7.632577,1.774426 -6.697135,10.727955 0.935443,8.953529 -0.554346,23.611436 15.591377,23.083606 11.887895,-0.38863 2.069374,-1.35255 2.069374,-1.35255 l -3.947789,6.0278 -13.296659,-2.47224 -3.274052,-7.88445 -2.071338,-12.762124 -2.739512,-11.024867 2.672694,-5.813113 10.69078,-3.073598 9.421252,-1.536801 5.545844,-0.06682 18.174326,1.536801 -1.135895,8.552624 v 0.668174"
       id="path5098"
       inkscape:connector-curvature="0"
       sodipodi:nodetypes="cccssssccssccccccccccccc" />
    <path
       style="fill:#f6b285;fill-opacity:1;stroke:none;stroke-width:0.26458332px;stroke-linecap:butt;stroke-linejoin:miter;stroke-opacity:1"
       d="m 63.987968,97.978073 c 0,0 2.611162,4.075897 1.403165,4.744047 -5.697685,3.1514 -1.895349,-3.667764 -1.403165,-4.744047 z"
       id="path5102"
       inkscape:connector-curvature="0"
       sodipodi:nodetypes="csc" />
    <path
       style="fill:#f6b285;fill-opacity:1;stroke:none;stroke-width:0.26458332px;stroke-linecap:butt;stroke-linejoin:miter;stroke-opacity:1"
       d="m 63.767242,112.29779 -7.9375,0.23616 -0.850593,6.66162 7.9375,2.03191 7.181474,-0.14211 1.039728,-3.82664 0.519348,-3.73259 z"
       id="path5106"
       inkscape:connector-curvature="0"
       sodipodi:nodetypes="cccccccc" />
  </g>
  <g
     inkscape:groupmode="layer"
     id="layer6"
     inkscape:label="beard/hair"
     sodipodi:insensitive="true"
     style="display:inline"
     transform="translate(-55.877975,-44.18282)">
    <path
       style="display:inline;fill:#784421;stroke:#000000;stroke-width:0.26458332px;stroke-linecap:butt;stroke-linejoin:miter;stroke-opacity:1"
       d="m 147.77872,52.31656 c -10.36404,-0.115623 -20.82508,6.77943 -20.82508,6.77943 -9.6384,-0.330722 -6.42545,4.96094 -6.42545,4.960937 -18.94605,1.511903 -16.01659,10.158037 -16.01659,10.158037 -15.780507,9.35491 -5.858561,16.914731 -5.858561,16.914731 -2.456846,0.708705 -1.22628,4.923213 -1.22628,4.923213 -2.646,2.933607 2.447851,4.996562 3.919141,5.514912 l 0.20826,0.293 c -3.70012,3.59386 9.19102,7.18627 9.19102,7.18627 l 7.506,1.56787 0.72399,0.12454 c -0.33382,4.6927 -1.15612,23.54715 6.51278,30.39142 8.78794,7.84302 23.81257,4.63014 27.87582,3.87419 4.06324,-0.75595 3.21272,-6.52002 3.21272,-6.52002 2.37937,-11.99047 0.46365,-15.98156 -8.83512,-16.11116 -9.0252,0.0138 -11.1032,6.3779 -11.1032,6.3779 0,0 -7.95602,0.0235 -10.51051,-2.51679 -4.94676,-14.841 -7.43811,-24.95742 -5.25014,-33.086863 0,0 5.70735,-3.584993 4.50464,-1.045932 0,0 1.64911,-3.864981 4.72271,-2.929536 3.0736,0.935443 8.68619,5.07822 10.95798,-0.935344 0,0 2.27171,0.400915 4.27623,2.672704 2.00452,2.271792 2.53938,1.20251 2.53938,1.20251 0,0 -0.1336,-5.479229 8.68629,0.534337 l 4.27623,-1.202513 0.37162,8.257231 c 11.2115,1.233196 14.90695,-10.053746 11.00391,-22.32097 -2.12612,-6.331101 -5.3387,-1.653646 -5.3387,-1.653646 -0.66145,-5.858632 -1.60655,-18.756847 -13.4183,-22.53661 -1.84559,-0.590587 -3.76153,-0.852438 -5.68079,-0.873848 z m 2.30979,75.65858 c 2.37357,1.96947 5.92987,1.42007 5.92987,1.42007 l -1.10233,4.27638 c 0,0 -3.57447,3.50749 -13.79753,-0.43473 l 0.96066,-4.59561 c 0,0 5.23603,1.90202 8.00933,-0.66611 z"
       id="path76"
       inkscape:connector-curvature="0"
       sodipodi:nodetypes="sccccccccccssccccccscscccccccscccccc" />
    <path
       style="display:inline;fill:#552f17;fill-opacity:1;stroke:none;stroke-width:0.26458332px;stroke-linecap:butt;stroke-linejoin:miter;stroke-opacity:1"
       d="m 120.52819,64.056927 c -18.94605,1.511903 -16.01659,10.158037 -16.01659,10.158037 -15.780512,9.35491 -5.858561,16.914731 -5.858561,16.914731 -2.456849,0.708705 -1.22628,4.923213 -1.22628,4.923213 -2.646,2.933605 2.447851,4.996552 3.919141,5.514912 l 0.20826,0.293 c -3.700115,3.59386 9.19102,7.18627 9.19102,7.18627 2.7498,0.52873 2.06244,0.4828 4.82244,0.95757 l -1.07797,-3.51555 c 2.74204,2.36733 5.59335,4.84689 4.7687,8.31371 -0.33381,4.6927 -1.4393,19.48384 6.2296,26.3281 8.78794,7.84302 25.04099,4.3939 29.10424,3.63795 4.06324,-0.75595 2.97649,-7.18147 2.97649,-7.18147 1.43294,-11.60827 1.90347,-15.09327 -9.82731,-15.21347 -9.0252,0.0138 -11.1032,6.3779 -11.1032,6.3779 0,0 -7.95598,0.0237 -10.51047,-2.51664 -1.6824,-6.97203 -9.46454,-19.29586 -13.26017,-25.03619 l -2.23331,-1.18716 c -9.89457,-3.999175 -5.31971,-15.886529 -0.13332,-23.319508 -1.73726,-4.677217 10.02729,-12.635405 10.02729,-12.635405 z m 29.56032,63.918213 c 2.37358,1.96947 5.92987,1.42007 5.92987,1.42007 0,0 -0.82488,6.06014 -2.84573,6.80635 -5.35834,1.97862 -11.40658,-1.79008 -12.15436,-2.86447 l 1.06089,-4.69584 c 0,0 5.23603,1.90203 8.00933,-0.66611 z"
       id="path76-6"
       inkscape:connector-curvature="0"
       sodipodi:nodetypes="cccccccccccsccccccccccsccc" />
    <path
       style="display:inline;fill:#552f17;fill-opacity:1;stroke:none;stroke-width:0.26458332px;stroke-linecap:butt;stroke-linejoin:miter;stroke-opacity:1"
       d="m 167.07366,85.962049 c 0,0 -0.0141,0.254905 -0.0248,0.652674 0.0318,-0.210661 0.0413,-0.428334 0.0248,-0.652674 z m -0.0248,0.652674 c -0.48437,3.208827 -6.20789,4.829678 -6.20789,4.829678 l 0.37156,8.257378 c 4.57279,0.502981 7.89513,-1.077256 9.96166,-3.956865 -0.009,0.0021 -0.0162,0.0041 -0.0248,0.0062 -4.07756,0.998003 -4.16275,-6.818961 -4.10052,-9.136391 z"
       id="path76-7"
       inkscape:connector-curvature="0"
       sodipodi:nodetypes="cccccccccc" />
    <path
       style="display:inline;fill:none;stroke:#000000;stroke-width:0.26458332px;stroke-linecap:butt;stroke-linejoin:miter;stroke-opacity:1"
       d="m 147.77872,52.316553 c -10.36404,-0.115623 -20.82508,6.77943 -20.82508,6.77943 -9.6384,-0.330722 -6.42545,4.960939 -6.42545,4.960936 -18.94605,1.511903 -16.01659,10.158038 -16.01659,10.158038 -15.780508,9.354909 -5.858562,16.91473 -5.858562,16.91473 -2.456847,0.708705 -1.22628,4.923213 -1.22628,4.923213 -2.645999,2.933607 2.447851,4.99656 3.919142,5.51491 l 0.20826,0.293 c -3.700121,3.59387 9.19102,7.18628 9.19102,7.18628 l 7.506,1.56786 0.72398,0.12454 c -0.33381,4.6927 -1.15611,23.54715 6.51279,30.39143 8.78794,7.84301 24.9465,4.44114 29.00974,3.68519 4.06325,-0.75595 3.07099,-7.22872 3.07099,-7.22872 1.5695,-14.75181 0.19836,-14.59232 -9.82731,-15.21347 -9.0252,0.0138 -11.1032,6.37791 -11.1032,6.37791 0,0 -7.95602,0.0235 -10.51051,-2.5168 -4.94676,-14.841 -7.43811,-24.95742 -5.25014,-33.086861 0,0 5.70735,-3.584993 4.50464,-1.045932 0,0 1.64911,-3.864981 4.72271,-2.929536 3.0736,0.935443 8.68619,5.07822 10.95798,-0.935344 0,0 2.27171,0.400915 4.27623,2.672704 2.00452,2.271792 2.53938,1.20251 2.53938,1.20251 0,0 -0.1336,-5.479229 8.68629,0.534337 l 4.27623,-1.202513 0.37163,8.257231 c 11.21149,1.233194 14.90694,-10.053746 11.0039,-22.320969 -2.12612,-6.331101 -5.3387,-1.653646 -5.3387,-1.653646 -0.66145,-5.858632 -1.60655,-18.756847 -13.4183,-22.53661 -1.84559,-0.590587 -3.76153,-0.852438 -5.68079,-0.873848 z m 2.30979,75.658577 c 2.37357,1.96947 5.92987,1.42007 5.92987,1.42007 l -1.10233,4.27639 c 0,0 -3.57448,3.50749 -13.79753,-0.43473 l 0.96066,-4.59562 c 0,0 5.23603,1.90202 8.00933,-0.66611 z"
       id="path76-3"
       inkscape:connector-curvature="0"
       sodipodi:nodetypes="sccccccccccssccccccscscccccccscccccc" />
    <path
       style="display:inline;fill:#552f17;fill-opacity:1;stroke:none;stroke-width:0.26458332px;stroke-linecap:butt;stroke-linejoin:miter;stroke-opacity:1"
       d="m 118.58486,84.756139 c -7.843,6.236605 2.29266,8.39203 2.29266,8.39203 0,0 5.70735,-3.584996 4.50464,-1.045929 0,0 1.6491,-3.864984 4.72271,-2.929539 3.07359,0.935443 8.68619,5.078222 10.95798,-0.935344 0,0 2.27172,0.400918 4.27623,2.672707 2.00453,2.271789 2.53939,1.20251 2.53939,1.20251 0,0 -0.0856,-3.586361 4.55578,-1.76785 -0.51594,-3.478462 1.01854,-6.816641 1.01854,-6.816641 -18.99329,4.819198 -13.60691,-6.047691 -13.60691,-6.047691 0,0 -1.51169,-2.551337 -10.29963,0.661458 -6.20455,3.23453 -8.40876,3.984166 -10.00766,-0.01063 -1.97231,1.260884 -0.57989,5.823679 -0.95373,6.624922 z"
       id="path76-5"
       inkscape:connector-curvature="0"
       sodipodi:nodetypes="cccccccccccccc" />
    <path
       style="display:inline;fill:#000000;fill-opacity:1;stroke:none;stroke-width:0.24346484px;stroke-linecap:butt;stroke-linejoin:miter;stroke-opacity:1"
       d="m 145.16062,130.49318 c 0,0 3.14762,1.12414 5.75046,0.3747 2.60284,-0.74942 0.34806,0.28104 0.34806,0.28104 0,0 -4.20692,1.15537 -5.44781,0.12492 -1.24089,-1.03045 -0.65071,-0.78065 -0.65071,-0.78065 z"
       id="path4936"
       inkscape:connector-curvature="0" />
  </g>
  <g
     inkscape:groupmode="layer"
     id="layer7"
     inkscape:label="nose/ear"
     transform="translate(-55.877975,-44.18282)"
     sodipodi:insensitive="true">
    <path
       style="display:inline;fill:#ffccaa;fill-opacity:1;stroke:#000000;stroke-width:0.23775001px;stroke-linecap:butt;stroke-linejoin:miter;stroke-opacity:1"
       d="m 110.59637,113.77449 c 0.68239,6.1704 5.10378,8.46314 6.90909,8.28354 2.98069,-0.29653 3.0481,-5.26291 2.38832,-8.53712 -2.12006,-10.52093 -9.86648,-6.7326 -9.29741,0.25358 z"
       id="path102"
       inkscape:connector-curvature="0"
       sodipodi:nodetypes="cssc" />
    <path
       style="color:#000000;font-style:normal;font-variant:normal;font-weight:normal;font-stretch:normal;font-size:medium;line-height:normal;font-family:sans-serif;font-variant-ligatures:normal;font-variant-position:normal;font-variant-caps:normal;font-variant-numeric:normal;font-variant-alternates:normal;font-feature-settings:normal;text-indent:0;text-align:start;text-decoration:none;text-decoration-line:none;text-decoration-style:solid;text-decoration-color:#000000;letter-spacing:normal;word-spacing:normal;text-transform:none;writing-mode:lr-tb;direction:ltr;text-orientation:mixed;dominant-baseline:auto;baseline-shift:baseline;text-anchor:start;white-space:normal;shape-padding:0;clip-rule:nonzero;display:inline;overflow:visible;visibility:visible;opacity:1;isolation:auto;mix-blend-mode:normal;color-interpolation:sRGB;color-interpolation-filters:linearRGB;solid-color:#000000;solid-opacity:1;vector-effect:none;fill:#000000;fill-opacity:1;fill-rule:nonzero;stroke:none;stroke-width:1;stroke-linecap:butt;stroke-linejoin:miter;stroke-miterlimit:4;stroke-dasharray:none;stroke-dashoffset:0;stroke-opacity:1;color-rendering:auto;image-rendering:auto;shape-rendering:auto;text-rendering:auto;enable-background:accumulate"
       d="m 153.0035,112.48048 c 1.95308,9.47895 0.34726,9.63472 -5.16532,9.22799 -2.02417,1.7904 3.78927,1.11112 4.44267,0.89317 3.00474,-0.34112 1.79145,-7.82141 0.22152,-12.59333 z"
       id="path138-3"
       inkscape:connector-curvature="0"
       sodipodi:nodetypes="ccccc" />
    <path
       style="fill:#f6b285;fill-opacity:1;stroke:none;stroke-width:0.26458332px;stroke-linecap:butt;stroke-linejoin:miter;stroke-opacity:1"
       d="m 112.24845,110.53299 c 0,0 3.06746,-6.23358 5.90089,4.85195 0,0 -1.73267,0.51594 -0.83498,1.79161 -1.04902,-8.68365 -5.06591,-6.64356 -5.06591,-6.64356 z"
       id="path5024-0"
       inkscape:connector-curvature="0"
       sodipodi:nodetypes="cc" />
    <path
       style="fill:none;stroke:#000000;stroke-width:0.26458332px;stroke-linecap:butt;stroke-linejoin:miter;stroke-opacity:1"
       d="m 112.24845,110.53299 c 0,0 3.06746,-6.23359 5.90089,4.85195 0,0 -1.73267,0.51594 -0.83498,1.79161"
       id="path5024"
       inkscape:connector-curvature="0"
       sodipodi:nodetypes="cc" />
    <path
       style="display:inline;fill:#f6b285;fill-opacity:1;stroke:none;stroke-width:0.23775001px;stroke-linecap:butt;stroke-linejoin:miter;stroke-opacity:1"
       d="m 112.31308,108.1968 c -1.42145,1.84533 -2.00692,2.77934 -1.77167,5.66733 0.68239,6.1704 5.10382,8.46333 6.90913,8.28373 0.61932,-0.0616 0.67692,0.27427 2.26702,-1.7705 -9.03597,0.42359 -9.44171,-8.29721 -7.40448,-12.18056 z"
       id="path102-6"
       inkscape:connector-curvature="0"
       sodipodi:nodetypes="ccccc" />
    <path
       style="display:inline;fill:none;fill-opacity:1;stroke:#000000;stroke-width:0.23775001px;stroke-linecap:butt;stroke-linejoin:miter;stroke-opacity:1"
       d="m 110.59637,113.77449 c 0.68239,6.1704 5.10378,8.46314 6.90909,8.28354 2.98069,-0.29653 3.0481,-5.26291 2.38832,-8.53712 -2.12006,-10.52093 -9.86648,-6.7326 -9.29741,0.25358 z"
       id="path102-2"
       inkscape:connector-curvature="0"
       sodipodi:nodetypes="cssc" />
  </g>
  <g
     inkscape:groupmode="layer"
     id="layer4"
     inkscape:label="eyes"
     sodipodi:insensitive="true"
     transform="translate(-55.877975,-44.18282)">
    <ellipse
       style="display:inline;fill:#000000;fill-opacity:1;stroke:none;stroke-width:1;stroke-miterlimit:4;stroke-dasharray:none"
       id="path4791"
       cx="140.89062"
       cy="110.60922"
       rx="1.3229166"
       ry="1.7953869" />
    <ellipse
       style="display:inline;fill:#000000;fill-opacity:1;stroke:none;stroke-width:1;stroke-miterlimit:4;stroke-dasharray:none"
       id="path4791-9"
       cx="156.29315"
       cy="110.51472"
       rx="1.3229166"
       ry="1.7953869" />
    <path
       style="display:inline;fill:#000000;fill-opacity:1;stroke:none;stroke-width:0.26458332px;stroke-linecap:butt;stroke-linejoin:miter;stroke-opacity:1"
       d="m 137.47306,109.11966 c 0,0 1.32005,-3.65186 4.95807,-2.70692 0,0 -1.22294,0.40665 -2.50571,1.08703 -1.50579,0.79866 -2.45236,1.61989 -2.45236,1.61989 z"
       id="path4808"
       inkscape:connector-curvature="0"
       sodipodi:nodetypes="ccsc" />
    <path
       style="display:inline;fill:#000000;fill-opacity:1;stroke:none;stroke-width:0.22466975px;stroke-linecap:butt;stroke-linejoin:miter;stroke-opacity:1"
       d="m 159.27673,109.60498 c 0,0 -0.22777,-3.22188 -3.48572,-3.30011 0,0 0.92213,0.60532 1.82874,1.44317 1.06423,0.98352 1.65698,1.85694 1.65698,1.85694 z"
       id="path4808-1"
       inkscape:connector-curvature="0"
       sodipodi:nodetypes="ccsc" />
  </g>
  <g
     inkscape:groupmode="layer"
     id="layer3"
     inkscape:label="glasses"
     style="display:inline"
     sodipodi:insensitive="true"
     transform="translate(-55.877975,-44.18282)">
    <path
       style="display:inline;fill:#000000;fill-opacity:1;stroke:#000000;stroke-width:0.24193241px;stroke-linecap:butt;stroke-linejoin:miter;stroke-opacity:1"
       d="m 147.45237,108.35806 c 0,0 2.63997,-1.52861 4.93118,0.26678 l -0.015,0.67489 c 0,0 -1.18717,-1.70384 -4.9861,-0.25056 z"
       id="path136"
       inkscape:connector-curvature="0"
       sodipodi:nodetypes="ccccc" />
    <path
       style="display:inline;fill:#000000;stroke:#000000;stroke-width:0.20245306px;stroke-linecap:butt;stroke-linejoin:miter;stroke-opacity:1"
       d="m 118.64453,107.99304 c -0.7276,-0.50841 0.17302,-0.46583 0.0448,-0.84082 -0.27149,-0.79351 6.52332,-1.00977 12.89371,-1.11652 l -0.45958,1.48642 c 0,0 -6.73237,-0.22949 -12.47885,0.47092 z"
       id="path134"
       inkscape:connector-curvature="0"
       sodipodi:nodetypes="cscccc" />
    <path
       style="fill:#b8fdfa;fill-opacity:0.43684214;stroke:none;stroke-width:0.26458332px;stroke-linecap:butt;stroke-linejoin:miter;stroke-opacity:1"
       d="m 146.47495,110.71061 c 0,0 -1.06306,4.84282 -2.92932,4.84282 -1.86625,0 -9.40215,0.21261 -10.72507,-1.13393 -1.32292,-1.34654 -0.92132,-7.44141 -0.92132,-7.44141 l 1.6064,-1.60639 3.80339,-0.37798 h 4.41759 c 0,0 2.38598,-0.0236 2.62221,0.14174 0.23624,0.16536 2.26786,1.41741 2.31511,1.51191 0.0472,0.0945 0.49609,2.38597 0.49609,2.38597 z"
       id="path4882"
       inkscape:connector-curvature="0"
       sodipodi:nodetypes="csscccccccc" />
    <path
       style="fill:#000000;fill-opacity:1;stroke:#000000;stroke-width:0.26458332px;stroke-linecap:butt;stroke-linejoin:miter;stroke-opacity:1"
       d="m 131.06324,109.43749 c 0,0 -0.56697,-4.6302 3.59078,-4.67745 2.91583,-0.0331 9.69572,-0.23733 11.36382,0.44962 2.31708,0.95422 1.1642,5.53798 1.1642,5.53798 0,0 -0.61208,0.006 -0.70431,-0.22248 -0.15338,-0.37959 0.79124,-3.78075 -1.05139,-4.6312 -1.84263,-0.85044 -7.79576,-0.61421 -10.86682,-0.47247 -3.07105,0.14174 -2.40959,2.88207 -2.74032,3.92151 -0.33073,1.03943 -0.75596,0.5489 -0.75596,0.0945 z"
       id="path4850"
       inkscape:connector-curvature="0"
       sodipodi:nodetypes="csscscscsc" />
    <path
       style="display:inline;fill:#000000;stroke:#000000;stroke-width:0.14981882px;stroke-linecap:butt;stroke-linejoin:miter;stroke-opacity:1"
       d="m 160.2527,107.25584 c 0,0 -0.75682,-0.1606 5.26999,-0.22239 l -0.0325,0.84673 -5.4139,-0.0419 z"
       id="path134-6"
       inkscape:connector-curvature="0"
       sodipodi:nodetypes="ccccc" />
    <path
       style="display:inline;fill:#b8fdfa;fill-opacity:0.43684214;stroke:none;stroke-width:0.22632526px;stroke-linecap:butt;stroke-linejoin:miter;stroke-opacity:1"
       d="m 152.96277,110.82301 c 0,0 0.92207,4.0854 2.54081,4.0854 1.61873,0 8.15515,0.17935 9.30261,-0.95658 1.14747,-1.13594 0.79913,-6.27756 0.79913,-6.27756 l -1.39335,-1.35515 -3.29895,-0.31887 h -3.83169 c 0,0 -2.06953,-0.0199 -2.27443,0.11957 -0.2049,0.13949 -1.96707,1.19572 -2.00806,1.27545 -0.0409,0.0797 -0.43029,2.0128 -0.43029,2.0128 z"
       id="path4882-0"
       inkscape:connector-curvature="0"
       sodipodi:nodetypes="csscccccccc" />
    <path
       style="display:inline;fill:#000000;fill-opacity:1;stroke:#000000;stroke-width:0.2407693px;stroke-linecap:butt;stroke-linejoin:miter;stroke-opacity:1"
       d="m 152.25654,110.04156 c 0,0 -0.48365,-4.49484 3.06303,-4.5407 2.48729,-0.0321 8.27073,-0.2304 9.69367,0.43647 1.97653,0.92632 1.00979,4.52415 1.00979,4.52415 0,0 -0.52212,0.006 -0.6008,-0.21597 -0.13083,-0.3685 0.65825,-2.8183 -0.91356,-3.64389 -1.57182,-0.82557 -6.65001,-0.59625 -9.26971,-0.45865 -2.61969,0.13759 -2.05545,2.79781 -2.33757,3.80686 -0.28212,1.00904 -0.64485,0.53285 -0.64485,0.0917 z"
       id="path4850-2"
       inkscape:connector-curvature="0"
       sodipodi:nodetypes="csscscscsc" />
  </g>
  <g
     inkscape:groupmode="layer"
     id="layer5"
     inkscape:label="shirt"
     transform="translate(-55.877975,-44.18282)"
     sodipodi:insensitive="true">
    <path
       style="fill:#6694a6;fill-opacity:1;stroke:#000000;stroke-width:0.26458332px;stroke-linecap:butt;stroke-linejoin:miter;stroke-opacity:1"
       d="m 95.061021,158.4232 c 7.123879,-9.65624 27.403259,-4.7247 27.403259,-4.7247 0,0 16.38365,8.46652 25.93862,6.99255 2.62672,-0.4052 3.63802,-1.27566 2.3151,-5.24441 0,0 5.41048,2.14421 7.94954,3.08006 12.1693,4.77249 14.69968,61.75927 18.24474,96.78425 -31.83405,-1.53435 -44.30006,0.69716 -67.11315,-0.74367 L 96.617941,210.51137"
       id="path4919-8"
       inkscape:connector-curvature="0"
       sodipodi:nodetypes="ccsccccc" />
  </g>
  <g
     inkscape:groupmode="layer"
     id="layer12"
     inkscape:label="laptop"
     transform="translate(-55.877975,-44.18282)">
    <path
       style="fill:#020202;fill-opacity:1;stroke:#000000;stroke-width:0.26458332px;stroke-linecap:butt;stroke-linejoin:miter;stroke-opacity:1"
       d="m 212.37905,258.3526 -61.87525,-4.76309 v 4.14268 l 61.84184,5.5649 5.9397,-1.44173 -3.03836,-3.6849 z"
       id="path5327"
       inkscape:connector-curvature="0"
       sodipodi:nodetypes="ccccccc" />
    <path
       style="fill:#262626;fill-opacity:1;stroke:#000000;stroke-width:0.26458332px;stroke-linecap:butt;stroke-linejoin:miter;stroke-opacity:1"
       d="m 150.3522,253.87315 70.61288,-2.33592 -1.06908,5.81311 -7.88445,1.20272 z"
       id="path5329"
       inkscape:connector-curvature="0"
       sodipodi:nodetypes="ccccc" />
    <path
       style="fill:#4c4c4c;fill-opacity:1;stroke:none;stroke-width:0.26458332px;stroke-linecap:butt;stroke-linejoin:miter;stroke-opacity:1"
       d="m 218.21121,252.24891 c 0,0 -42.28105,1.33774 -41.81333,1.33774 0.46772,0 35.36226,1.48956 35.36226,1.48956 l 5.69176,-0.75121 z"
       id="path5375"
       inkscape:connector-curvature="0"
       sodipodi:nodetypes="csccc" />
    <path
       style="fill:#020202;fill-opacity:1;stroke:#000000;stroke-width:0.26458332px;stroke-linecap:butt;stroke-linejoin:miter;stroke-opacity:1"
       d="m 213.2028,263.16508 21.7864,-71.34195 70.36623,-3.3615 1.57182,0.53965 -23.7552,65.74319 -68.48614,9.03131 z"
       id="path5325"
       inkscape:connector-curvature="0"
       sodipodi:nodetypes="ccccccc" />
    <path
       style="fill:#393939;fill-opacity:1;stroke:#000000;stroke-width:0.26458332px;stroke-linecap:butt;stroke-linejoin:miter;stroke-opacity:1"
       d="m 214.77825,263.76387 21.7864,-71.34195 70.36623,-3.3615 -22.18338,66.28284 z"
       id="path5325-7"
       inkscape:connector-curvature="0"
       sodipodi:nodetypes="ccccc" />
    <path
       style="fill:#6f6f6f;fill-opacity:1;stroke:none;stroke-width:0.99999994px;stroke-linecap:butt;stroke-linejoin:miter;stroke-opacity:1"
       d="m 721.12891,577.43164 -2.08203,1.45898 1.48828,3.88477 -9.28516,7.14258 -1.72461,-3.38281 -4.12695,3.31445 1.74414,3.55078 -10.26758,8.39258 -1.89062,-3.58008 -6.56446,5.27149 1.23828,2.58789 1.41211,-1.07227 4.18555,9.10547 30.41279,-25.01464 z"
       transform="matrix(0.26458333,0,0,0.26458333,55.877975,44.18282)"
       id="path5361"
       inkscape:connector-curvature="0"
       sodipodi:nodetypes="ccccccccccccccc" />
    <ellipse
       style="fill:#ff3333;fill-opacity:1;stroke:none;stroke-width:0.248192;stroke-miterlimit:4;stroke-dasharray:none;stroke-opacity:1"
       id="path5363"
       cx="240.6729"
       cy="202.19049"
       rx="0.50790548"
       ry="0.55515254" />
  </g>
  <g
     inkscape:groupmode="layer"
     id="layer10"
     inkscape:label="arm"
     transform="translate(-55.877975,-44.18282)"
     sodipodi:insensitive="true">
    <path
       style="fill:#f6b285;fill-opacity:1;stroke:#000000;stroke-width:0.26499999;stroke-linecap:butt;stroke-linejoin:miter;stroke-miterlimit:4;stroke-dasharray:none;stroke-opacity:1"
       d="m 119.7074,236.86458 c -6.98306,-26.59984 -12.09096,-45.99308 -12.09096,-45.99308 0,0 -14.136246,1.51799 -16.9105,7.12963 -8.332355,16.85432 14.19735,54.58848 14.19735,54.58848 0,0 1.73725,3.60814 6.68173,2.27179 1.96397,-0.5308 9.78373,1.69129 21.68731,0.80371 18.0648,-1.34699 42.08727,-5.79242 42.08727,-5.79242 0,0 7.29595,-11.97812 2.51106,-11.10234 -33.74945,6.17714 -60.87343,-10.90317 -61.94251,3.32892"
       id="path5264"
       inkscape:connector-curvature="0"
       sodipodi:nodetypes="ccscsscsc" />
    <path
       style="fill:#ffccaa;fill-opacity:1;stroke:none;stroke-width:0.26499999;stroke-linecap:butt;stroke-linejoin:miter;stroke-miterlimit:4;stroke-dasharray:none;stroke-opacity:1"
       d="m 178.23117,244.40419 c 1.33779,-3.02551 2.14544,-6.09251 -0.36052,-5.63384 -33.74944,6.17717 -60.87342,-10.90317 -61.9425,3.32892 0,0 4.47119,2.15277 31.4962,2.7685 15.73367,0.35847 30.80682,-0.46358 30.80682,-0.46358 z"
       id="path5264-8"
       inkscape:connector-curvature="0"
       sodipodi:nodetypes="cscsc" />
    <path
       style="fill:none;fill-opacity:1;stroke:#000000;stroke-width:0.26499999;stroke-linecap:butt;stroke-linejoin:miter;stroke-miterlimit:4;stroke-dasharray:none;stroke-opacity:1"
       d="m 119.7074,236.86458 c -6.98306,-26.59984 -12.09096,-45.99308 -12.09096,-45.99308 0,0 -14.136246,1.51799 -16.9105,7.12963 -8.332355,16.85432 14.19735,54.58847 14.19735,54.58847 0,0 1.73725,3.60815 6.68173,2.2718 1.96397,-0.53081 9.78373,1.69128 21.68731,0.80371 18.0648,-1.347 42.08727,-5.79242 42.08727,-5.79242 0,0 7.29595,-11.97812 2.51106,-11.10234 -33.74945,6.17714 -60.87343,-10.90317 -61.94251,3.32892"
       id="path5264-4"
       inkscape:connector-curvature="0"
       sodipodi:nodetypes="ccscsscsc" />
  </g>
  <g
     inkscape:groupmode="layer"
     id="layer14"
     inkscape:label="hand"
     sodipodi:insensitive="true">
    <path
       style="fill:#f6b285;fill-opacity:1;stroke:none;stroke-width:0.26458332px;stroke-linecap:butt;stroke-linejoin:miter;stroke-opacity:1"
       d="m 136.9892,185.98161 c -1.18384,-0.0523 -3.84686,1.43712 -5.26428,2.67736 -1.5119,1.32291 -11.33936,6.23683 -11.33936,6.23683 l -3.30729,10.48876 c 0,0 8.03206,5.10238 19.27686,-4.34702 l 1.70067,-0.85008 3.40186,0.47233 1.79524,2.17351 c 0,0 -0.56704,3.68504 1.22834,3.68504 0,0 1.28012,0.34998 2.17455,-2.88819 1.97687,3.28107 3.11872,1.84764 3.68453,1.37614 0.18468,-0.1539 0.25804,-0.83161 0.2744,-1.67225 1.13267,2.37826 2.76252,2.42437 3.97754,2.05052 1.22842,-0.37798 0,-1.60662 0,-1.60662 l -2.83497,-5.66942 c 0,0 -0.22544,-0.64854 -0.58033,-1.49758 -0.11664,-1.1185 -1.21775,-5.55865 -2.12545,-6.34535 -1.07651,-0.933 -2.67874,-1.24141 -4.34392,-1.85829 -3.01902,-1.11842 -6.83246,-2.21146 -7.50239,-2.39416 -0.065,-0.0177 -0.13708,-0.028 -0.216,-0.0315 z"
       id="path5542-2"
       inkscape:connector-curvature="0"
       sodipodi:nodetypes="cscccccccccccccccsccc" />
    <path
       style="fill:none;stroke:#000000;stroke-width:0.26458332px;stroke-linecap:butt;stroke-linejoin:miter;stroke-opacity:1"
       d="m 115.87332,204.91217 c 0,0 8.97694,6.00036 20.48159,-3.87426 l 1.70089,-0.85045 3.40179,0.47247 1.79539,2.17337 c 0,0 -0.56697,3.68527 1.22842,3.68527 0,0 1.70089,0.47247 2.55134,-4.63021 0,0 -1.41741,-3.68527 -3.2128,-5.66965 0,0 -6.14211,-1.13392 -7.37054,-1.79538"
       id="path5542"
       inkscape:connector-curvature="0"
       sodipodi:nodetypes="ccccccccc" />
    <path
       style="fill:none;stroke:#000000;stroke-width:0.26458332px;stroke-linecap:butt;stroke-linejoin:miter;stroke-opacity:1"
       d="m 138.06056,190.01453 c 0,0 7.64926,1.95195 8.68869,2.42442 1.03944,0.47247 1.32292,1.6064 1.32292,1.6064 l 2.36235,5.10268 c 0,0 0.47247,5.38616 -0.0945,5.85863 -0.56697,0.47247 -1.71187,1.91232 -3.69624,-1.39498"
       id="path5546"
       inkscape:connector-curvature="0"
       sodipodi:nodetypes="ccccsc" />
    <path
       style="fill:none;stroke:#000000;stroke-width:0.26458332px;stroke-linecap:butt;stroke-linejoin:miter;stroke-opacity:1"
       d="m 120.05133,194.96262 c 0,0 10.16147,-4.98052 11.67337,-6.30343 1.51191,-1.32292 4.44122,-2.92932 5.48066,-2.64584 0.66992,0.18271 4.48339,1.27554 7.50241,2.39396 1.66518,0.61688 3.26723,0.92528 4.34374,1.85828 0.95962,0.8317 2.13699,5.75267 2.13699,6.50862"
       id="path5550"
       inkscape:connector-curvature="0"
       sodipodi:nodetypes="cscssc" />
    <path
       style="fill:#ffccaa;fill-opacity:1;stroke:none;stroke-width:0.26458332px;stroke-linecap:butt;stroke-linejoin:miter;stroke-opacity:1"
       d="m 136.9892,185.98162 c -1.18386,-0.0523 -3.84686,1.43711 -5.26429,2.67735 -1.5119,1.32291 -11.33935,6.23683 -11.33935,6.23683 l -1.9322,5.54695 c 4.84495,-0.64119 15.9217,-4.81774 18.61677,-11.21436 0.63985,-1.51863 2.87444,-0.53066 2.87444,-0.53066 l 4.82443,1.43589 4.17373,2.45191 1.94175,2.95778 c -0.26691,-1.42119 -1.44584,-4.94219 -1.83298,-5.27772 -1.07651,-0.933 -2.67875,-1.2414 -4.34391,-1.85828 -3.01902,-1.11842 -6.83246,-2.21147 -7.50239,-2.39417 -0.065,-0.0177 -0.13708,-0.028 -0.216,-0.0315 z"
       id="path5542-2-5"
       inkscape:connector-curvature="0"
       sodipodi:nodetypes="ccccsccccscccc" />
    <path
       style="fill:none;fill-opacity:1;stroke:none;stroke-width:0.26458332px;stroke-linecap:butt;stroke-linejoin:miter;stroke-opacity:1"
       d="m 136.9892,185.98161 c -1.18384,-0.0523 -3.84686,1.43712 -5.26428,2.67736 -1.5119,1.32291 -11.33936,6.23683 -11.33936,6.23683 l -3.30729,10.48876 c 0,0 8.03206,5.10238 19.27686,-4.34702 l 1.70067,-0.85008 3.40186,0.47233 1.79524,2.17351 c 0,0 -0.56704,3.68504 1.22834,3.68504 0,0 1.28012,0.34998 2.17455,-2.88819 1.97687,3.28107 3.11872,1.84764 3.68453,1.37614 0.18468,-0.1539 0.25804,-0.83161 0.2744,-1.67225 1.13267,2.37826 2.76252,2.42437 3.97754,2.05052 1.22842,-0.37798 0,-1.60662 0,-1.60662 l -2.83497,-5.66942 c 0,0 -0.22544,-0.64854 -0.58033,-1.49758 -0.11664,-1.1185 -1.21775,-5.55865 -2.12545,-6.34535 -1.07651,-0.933 -2.67874,-1.24141 -4.34392,-1.85829 -3.01902,-1.11842 -6.83246,-2.21146 -7.50239,-2.39416 -0.065,-0.0177 -0.13708,-0.028 -0.216,-0.0315 z"
       id="path5542-2-0"
       inkscape:connector-curvature="0"
       sodipodi:nodetypes="cscccccccccccccccsccc" />
    <path
       style="fill:none;stroke:#000000;stroke-width:0.26458332px;stroke-linecap:butt;stroke-linejoin:miter;stroke-opacity:1"
       d="m 139.4475,188.33182 c 0,0 7.02493,2.10698 9.57158,4.55668 1.4161,1.36219 2.73836,5.22009 2.73836,5.22009 l 2.83482,5.66965 c 0,0 1.22842,1.22842 0,1.6064 -1.22842,0.37797 -2.88207,0.33074 -4.016,-2.12612"
       id="path5548"
       inkscape:connector-curvature="0"
       sodipodi:nodetypes="cscccc" />
  </g>
  <g
     inkscape:groupmode="layer"
     id="layer11"
     inkscape:label="right sleeve"
     transform="translate(-55.877975,-44.18282)"
     sodipodi:insensitive="true">
    <path
       style="fill:#6694a6;fill-opacity:1;stroke:#000000;stroke-width:0.26458332px;stroke-linecap:butt;stroke-linejoin:miter;stroke-opacity:1"
       d="m 113.01489,204.72529 c 0,0 -25.648654,10.82143 -36.570344,5.18651 6.45082,-14.98935 4.442893,-29.04496 12.402458,-46.67775 8.170921,-18.10101 33.617286,-9.53555 33.617286,-9.53555"
       id="path4919-1"
       inkscape:connector-curvature="0"
       sodipodi:nodetypes="ccsc" />
  </g>
  <g
     inkscape:groupmode="layer"
     id="layer16"
     inkscape:label="mug"
     sodipodi:insensitive="true">
    <path
       style="fill:#e76f51;fill-opacity:1;stroke:#000000;stroke-width:0.19753386px;stroke-linecap:butt;stroke-linejoin:miter;stroke-opacity:1"
       d="m 34.952199,206.07727 c -3.374767,-0.33066 -9.168236,0.0759 -9.907363,6.56489 -0.765363,6.71927 10.723942,7.90957 10.723942,7.90957 l 0.269467,-2.28794 c -1.730077,-0.25303 -8.121068,-1.45542 -7.673357,-5.38596 0.532874,-4.6782 5.436137,-4.62386 7.854466,-4.30432 0.372805,0.0495 0.677182,0.10351 0.906728,0.14908 l 0.24467,-2.2346 c 0,0 -0.704474,-0.19216 -1.777918,-0.33617 -0.201277,-0.0269 -0.415631,-0.0524 -0.640552,-0.075 z"
       id="path5674"
       inkscape:connector-curvature="0" />
    <path
       style="opacity:1;fill:#e76f51;fill-opacity:1;stroke:#100701;stroke-width:0.15782785;stroke-miterlimit:4;stroke-dasharray:none;stroke-opacity:0.99516913"
       d="m 45.515926,199.3665 c -7.303516,1e-5 -13.224196,1.75637 -13.224284,3.92296 2.52e-4,0.003 5.15e-4,0.006 7.89e-4,0.009 -0.0058,6.9065 0.817579,13.81441 0.808284,20.72011 8.8e-5,2.16659 5.111695,3.92295 12.415211,3.92296 7.303585,2e-5 12.186785,-1.75857 12.28489,-3.92296 l 0.93957,-20.72868 c -9e-5,-2.16661 -5.920875,-3.92298 -13.22446,-3.92296 z"
       id="path5580"
       inkscape:connector-curvature="0"
       sodipodi:nodetypes="cccccsccc" />
    <path
       style="opacity:1;fill:#af3618;fill-opacity:1;stroke:none;stroke-width:0.08280039;stroke-miterlimit:4;stroke-dasharray:none;stroke-opacity:1"
       d="m 56.602798,202.96236 a 10.986762,2.4260118 0 0 1 -10.986762,2.42601 10.986762,2.4260118 0 0 1 -10.986762,-2.42601 10.986762,2.4260118 0 0 1 10.986762,-2.42601 10.986762,2.4260118 0 0 1 10.986762,2.42601 z"
       id="path5578"
       inkscape:connector-curvature="0" />
    <path
       style="opacity:1;fill:none;fill-opacity:1;stroke:#120000;stroke-width:0.2;stroke-miterlimit:4;stroke-dasharray:none;stroke-opacity:1"
       d="m 56.602798,202.96236 c -5e-6,1.33985 -4.918944,2.42601 -10.986762,2.42601 -6.067818,0 -10.986757,-1.08616 -10.986762,-2.42601"
       id="path5578-1"
       inkscape:connector-curvature="0"
       sodipodi:nodetypes="csc" />
    <path
       style="opacity:1;fill:#695a11;fill-opacity:1;stroke:none;stroke-width:0.08280039;stroke-miterlimit:4;stroke-dasharray:none;stroke-opacity:1"
       d="m 45.743042,202.13952 a 10.986762,2.4260118 0 0 0 -10.368876,1.63194 10.986762,2.4260118 0 0 0 10.368876,1.63246 10.986762,2.4260118 0 0 0 10.368876,-1.63194 10.986762,2.4260118 0 0 0 -10.368876,-1.63246 z"
       id="path5578-19"
       inkscape:connector-curvature="0" />
  </g>
  <g
     inkscape:groupmode="layer"
     id="layer19"
     inkscape:label="tea bag"
     sodipodi:insensitive="true">
    <path
       style="color:#000000;font-style:normal;font-variant:normal;font-weight:normal;font-stretch:normal;font-size:medium;line-height:normal;font-family:sans-serif;font-variant-ligatures:normal;font-variant-position:normal;font-variant-caps:normal;font-variant-numeric:normal;font-variant-alternates:normal;font-feature-settings:normal;text-indent:0;text-align:start;text-decoration:none;text-decoration-line:none;text-decoration-style:solid;text-decoration-color:#000000;letter-spacing:normal;word-spacing:normal;text-transform:none;writing-mode:lr-tb;direction:ltr;text-orientation:mixed;dominant-baseline:auto;baseline-shift:baseline;text-anchor:start;white-space:normal;shape-padding:0;clip-rule:nonzero;display:inline;overflow:visible;visibility:visible;opacity:1;isolation:auto;mix-blend-mode:normal;color-interpolation:sRGB;color-interpolation-filters:linearRGB;solid-color:#000000;solid-opacity:1;vector-effect:none;fill:#dddddd;fill-opacity:1;fill-rule:nonzero;stroke:none;stroke-width:0.26458332px;stroke-linecap:butt;stroke-linejoin:miter;stroke-miterlimit:4;stroke-dasharray:none;stroke-dashoffset:0;stroke-opacity:1;color-rendering:auto;image-rendering:auto;shape-rendering:auto;text-rendering:auto;enable-background:accumulate"
       d="m 49.56406,205.28177 c 0,0 1.415329,0.20299 2.160547,0.47604 0.37261,0.13653 0.736776,0.32504 0.990235,0.56836 0.253459,0.24332 0.398857,0.53013 0.367187,0.91016 v 0.006 l 0.105469,10.15625 0.324219,0.88672 0.248047,-0.0918 -0.308594,-0.84375 -0.103516,-10.10352 -0.002,0.0117 c 0.03849,-0.46186 -0.152613,-0.84018 -0.447265,-1.12304 -0.294653,-0.28287 -0.688747,-0.4809 -1.082032,-0.625 -0.376407,-0.13792 -0.765527,-0.18653 -1.048097,-0.28064 -1.203468,-0.22013 -1.206022,-0.0452 -1.2042,0.0525 z"
       id="path6785"
       inkscape:connector-curvature="0"
       sodipodi:nodetypes="ccscccccccccccc" />
    <path
       style="fill:#378f38;fill-opacity:1;stroke:none;stroke-width:0.35760435px;stroke-linecap:butt;stroke-linejoin:miter;stroke-opacity:1"
       d="m 50.907527,217.67744 0.619601,-1.12965 3.571711,-1.77005 0.548118,0.81048 -0.205763,2.94441 -0.385288,0.92182 -3.6865,1.65402 -0.538934,-0.56653 z"
       id="path6791"
       inkscape:connector-curvature="0"
       sodipodi:nodetypes="ccccccccc" />
  </g>
  <g
     inkscape:groupmode="layer"
     id="layer18"
     inkscape:label="steam"
     sodipodi:insensitive="true">
    <path
       style="fill:url(#linearGradient5834);fill-opacity:1;stroke:none;stroke-width:0.26458332px;stroke-linecap:butt;stroke-linejoin:miter;stroke-opacity:1"
       d="m 47.739257,180.07591 c 4.233333,-11.1125 19.04955,-12.12036 9.921875,-25.4 C 47.5799,140.00896 53.707763,134.90713 53.707763,134.90713 l -22.518072,-0.20727 c -5.688541,6.61458 -1.322916,15.08125 2.645834,19.84375 3.96875,4.7625 0.926041,17.59479 -6.614584,28.70729 -7.540625,11.1125 7.408334,19.71146 7.408334,19.71146 5e-6,1.33985 4.918944,2.42601 10.986762,2.42601 6.067818,0 10.986757,-1.08616 10.986761,-2.42601 0,0 -13.096875,-11.77395 -8.863541,-22.88645 z"
       id="path5793"
       inkscape:connector-curvature="0"
       sodipodi:nodetypes="ssccsscscs" />
  </g>
</svg>
