<svg xmlns="http://www.w3.org/2000/svg" xmlns:xlink="http://www.w3.org/1999/xlink" width="999.044" height="978.757" viewBox="0 0 264.33 258.963"><defs><linearGradient id="c"><stop offset="0" stop-color="#e3e3e3"/><stop offset="1" stop-color="#e3e3e3" stop-opacity="0"/></linearGradient><linearGradient id="b"><stop offset="0" stop-color="#d4d4d4"/><stop offset="1" stop-color="#d4d4d4" stop-opacity="0"/></linearGradient><linearGradient id="a"><stop offset="0" stop-color="#e9c46a"/><stop offset="1" stop-color="#e9c46a" stop-opacity="0"/></linearGradient><linearGradient xlink:href="#b" id="d" x1="63.5" y1="201.284" x2="196.321" y2="43.063" gradientUnits="userSpaceOnUse"/><linearGradient xlink:href="#c" id="f" x1="43.682" y1="301.628" x2="44.677" y2="146.097" gradientUnits="userSpaceOnUse"/><radialGradient xlink:href="#a" id="e" cx="188.043" cy="150.698" fx="188.043" fy="150.698" r="124.165" gradientTransform="matrix(1.0924 .1249 -.02311 .20215 -13.893 201.014)" gradientUnits="userSpaceOnUse"/></defs><ellipse cx="131.762" cy="127.2" rx="90.487" ry="84.667" fill="url(#d)"/><path d="M63.878 254.996h248.33s-113.77 90.336-248.33 0z" fill="url(#e)" transform="translate(-55.878 -44.183)"/><path d="M115.829 165.132l8.731 17.727 40.788 11.878s15.973 3.786 2.778 6.883c0 0 3.652 2.679-3.45 3.267-16.07 1.331-51.758-8.534-51.758-8.534z" fill="#d99e77"/><path d="M64.943 76.998s4.686 26.473-2.343 32.713l20.804 10.525 11.538-1.404 1.125-1.537s-3.314-14.708-3.314-22.129z" fill="#f6b285" stroke="#000" stroke-width=".249"/><path d="M64.103 78.177s2.835 15.686 10.205 20.41c7.37 4.725 23.246.19 23.246.19s4.724-12.095 3.401-20.6c0 0 6.804-21.923 3.97-37.042-2.836-15.119-39.877-7.748-39.877-7.748L54.653 56.82z" fill="#fca" stroke="#000" stroke-width=".265"/><path d="M107.054 54.662l-4.477-4.544-2.673 1.203s-6.852-7.163-7.824-3.379c0 0 .084 1.514-1.566 1.32-.77-.092-.746-.644-1.487-1.379-1.288-1.278-2.897-2.739-4.892-2.442-3.14.468-1.603 1.403-1.603 1.403s-4.143 2.673-7.216 2.138c-3.074-.534-7.633 1.775-6.698 10.728.936 8.954-.554 23.612 15.592 23.084 11.888-.389 2.07-1.353 2.07-1.353L82.33 87.47l-13.296-2.472-3.274-7.884-2.072-12.763-2.74-11.024 2.674-5.814 10.69-3.073 9.422-1.537 5.545-.067 18.175 1.537-1.136 8.553v.668" fill="#f6b285"/><path d="M93.357 69.502s2.611 4.076 1.403 4.744c-5.697 3.151-1.895-3.668-1.403-4.744zM93.136 83.821l-7.937.237-.85 6.661 7.937 2.032 7.181-.142 1.04-3.827.52-3.732z" fill="#f6b285"/><path d="M91.9 8.134c-10.363-.116-20.824 6.78-20.824 6.78-9.639-.332-6.426 4.96-6.426 4.96-18.946 1.512-16.016 10.158-16.016 10.158-15.78 9.355-5.859 16.915-5.859 16.915-2.457.709-1.226 4.923-1.226 4.923-2.646 2.934 2.448 4.997 3.919 5.515l.208.293c-3.7 3.594 9.191 7.186 9.191 7.186l7.506 1.568.724.125c-.334 4.692-1.156 23.547 6.513 30.391 8.788 7.843 23.813 4.63 27.876 3.874 4.063-.756 3.213-6.52 3.213-6.52 2.379-11.99.463-15.981-8.836-16.11-9.025.013-11.103 6.377-11.103 6.377s-7.956.024-10.51-2.517c-4.947-14.84-7.438-24.957-5.25-33.087 0 0 5.707-3.585 4.504-1.046 0 0 1.65-3.865 4.723-2.93 3.073.936 8.686 5.08 10.958-.934 0 0 2.272.4 4.276 2.672 2.005 2.272 2.54 1.203 2.54 1.203s-.134-5.48 8.686.534l4.276-1.202.372 8.257c11.211 1.233 14.907-10.054 11.004-22.321-2.127-6.331-5.34-1.654-5.34-1.654-.66-5.858-1.606-18.757-13.417-22.536-1.846-.591-3.762-.853-5.681-.874zm2.31 75.658c2.374 1.97 5.93 1.42 5.93 1.42l-1.102 4.277s-3.574 3.507-13.797-.435l.96-4.596s5.236 1.902 8.01-.666z" fill="#784421" stroke="#000" stroke-width=".265"/><path d="M64.65 19.874c-18.946 1.512-16.016 10.158-16.016 10.158-15.78 9.355-5.859 16.915-5.859 16.915-2.457.709-1.226 4.923-1.226 4.923-2.646 2.934 2.448 4.997 3.919 5.515l.208.293c-3.7 3.594 9.191 7.186 9.191 7.186 2.75.529 2.063.483 4.823.958l-1.078-3.516c2.742 2.368 5.593 4.847 4.768 8.314-.333 4.693-1.439 19.484 6.23 26.328 8.788 7.843 25.041 4.394 29.104 3.638 4.063-.756 2.977-7.181 2.977-7.181 1.433-11.609 1.903-15.094-9.828-15.214-9.025.014-11.103 6.378-11.103 6.378s-7.956.024-10.51-2.517c-1.683-6.972-9.465-19.295-13.26-25.036l-2.234-1.187c-9.894-4-5.32-15.887-.133-23.32-1.737-4.677 10.027-12.635 10.027-12.635zm29.56 63.918c2.374 1.97 5.93 1.42 5.93 1.42s-.824 6.06-2.845 6.807c-5.359 1.978-11.407-1.79-12.155-2.865l1.061-4.696s5.236 1.902 8.01-.666zM111.196 41.78s-.014.254-.025.652c.032-.21.041-.428.025-.653zm-.025.652c-.484 3.209-6.208 4.83-6.208 4.83l.372 8.257c4.572.503 7.895-1.077 9.961-3.957l-.025.006c-4.077.998-4.162-6.819-4.1-9.136z" fill="#552f17"/><path d="M91.9 8.134c-10.363-.116-20.824 6.78-20.824 6.78-9.639-.332-6.426 4.96-6.426 4.96-18.946 1.512-16.016 10.158-16.016 10.158-15.78 9.355-5.859 16.915-5.859 16.915-2.457.709-1.226 4.923-1.226 4.923-2.646 2.934 2.448 4.997 3.919 5.515l.208.293c-3.7 3.594 9.191 7.186 9.191 7.186l7.506 1.568.724.125c-.334 4.692-1.156 23.547 6.513 30.391 8.788 7.843 24.946 4.441 29.01 3.685 4.063-.756 3.07-7.228 3.07-7.228 1.57-14.752.2-14.593-9.827-15.214-9.025.014-11.103 6.378-11.103 6.378s-7.956.024-10.51-2.517c-4.947-14.84-7.438-24.957-5.25-33.087 0 0 5.707-3.585 4.504-1.046 0 0 1.65-3.865 4.723-2.93 3.073.936 8.686 5.08 10.958-.934 0 0 2.272.4 4.276 2.672 2.005 2.272 2.54 1.203 2.54 1.203s-.134-5.48 8.686.534l4.276-1.202.372 8.257c11.211 1.233 14.907-10.054 11.004-22.321-2.127-6.331-5.34-1.654-5.34-1.654-.66-5.858-1.606-18.757-13.417-22.536-1.846-.591-3.762-.853-5.681-.874zm2.31 75.658c2.374 1.97 5.93 1.42 5.93 1.42l-1.102 4.277s-3.574 3.507-13.797-.435l.96-4.596s5.236 1.902 8.01-.666z" fill="none" stroke="#000" stroke-width=".265"/><path d="M62.707 40.573C54.864 46.81 65 48.965 65 48.965s5.707-3.585 4.504-1.046c0 0 1.65-3.865 4.723-2.93 3.073.936 8.686 5.08 10.958-.934 0 0 2.272.4 4.276 2.672 2.005 2.272 2.54 1.203 2.54 1.203s-.086-3.587 4.555-1.768c-.516-3.479 1.019-6.817 1.019-6.817-18.993 4.82-13.607-6.047-13.607-6.047s-1.512-2.552-10.3.661c-6.204 3.235-8.408 3.984-10.007-.01-1.973 1.26-.58 5.823-.954 6.624z" fill="#552f17"/><path d="M89.283 86.31s3.147 1.125 5.75.375.348.281.348.281-4.207 1.155-5.448.125c-1.24-1.03-.65-.78-.65-.78z"/><path d="M54.718 69.592c.683 6.17 5.104 8.463 6.91 8.283 2.98-.296 3.048-5.263 2.388-8.537-2.12-10.52-9.867-6.733-9.298.254z" fill="#fca" stroke="#000" stroke-width=".238"/><path style="line-height:normal;font-variant-ligatures:normal;font-variant-position:normal;font-variant-caps:normal;font-variant-numeric:normal;font-variant-alternates:normal;font-feature-settings:normal;text-indent:0;text-align:start;text-decoration-line:none;text-decoration-style:solid;text-decoration-color:#000;text-transform:none;text-orientation:mixed;white-space:normal;shape-padding:0;isolation:auto;mix-blend-mode:normal;solid-color:#000;solid-opacity:1" d="M97.126 68.298c1.953 9.479.347 9.634-5.166 9.228-2.024 1.79 3.79 1.11 4.443.893 3.005-.341 1.791-7.822.221-12.594z" color="#000" font-weight="400" font-family="sans-serif" overflow="visible"/><path d="M56.37 66.35s3.068-6.233 5.901 4.852c0 0-1.732.516-.835 1.792-1.049-8.684-5.066-6.644-5.066-6.644z" fill="#f6b285"/><path d="M56.37 66.35s3.068-6.233 5.901 4.852c0 0-1.732.516-.835 1.792" fill="none" stroke="#000" stroke-width=".265"/><path d="M56.435 64.014c-1.421 1.845-2.007 2.78-1.772 5.667.683 6.17 5.104 8.464 6.91 8.284.619-.062.676.274 2.267-1.77-9.036.423-9.442-8.298-7.405-12.181z" fill="#f6b285"/><path d="M54.718 69.592c.683 6.17 5.104 8.463 6.91 8.283 2.98-.296 3.048-5.263 2.388-8.537-2.12-10.52-9.867-6.733-9.298.254z" fill="none" stroke="#000" stroke-width=".238"/><g transform="translate(-55.878 -44.183)"><ellipse cx="140.891" cy="110.609" rx="1.323" ry="1.795"/><ellipse cx="156.293" cy="110.515" rx="1.323" ry="1.795"/><path d="M137.473 109.12s1.32-3.652 4.958-2.707c0 0-1.223.406-2.506 1.087-1.505.798-2.452 1.62-2.452 1.62zM159.277 109.605s-.228-3.222-3.486-3.3c0 0 .922.605 1.829 1.443 1.064.984 1.657 1.857 1.657 1.857z"/></g><g><path d="M91.574 64.175s2.64-1.528 4.932.267l-.015.675s-1.188-1.704-4.987-.25z" stroke="#000" stroke-width=".242"/><path d="M62.767 63.81c-.728-.508.173-.466.044-.84-.271-.794 6.524-1.01 12.894-1.117l-.46 1.486s-6.732-.23-12.478.471z" stroke="#000" stroke-width=".202"/><path d="M90.597 66.528s-1.063 4.843-2.93 4.843c-1.866 0-9.401.212-10.724-1.134-1.323-1.347-.922-7.442-.922-7.442l1.607-1.606 3.803-.378h4.418s2.386-.024 2.622.142c.236.165 2.268 1.417 2.315 1.512.047.094.496 2.386.496 2.386z" fill="#b8fdfa" fill-opacity=".437"/><path d="M75.185 65.255s-.567-4.63 3.591-4.678c2.916-.033 9.696-.237 11.364.45 2.317.954 1.164 5.538 1.164 5.538s-.612.006-.704-.223c-.154-.38.791-3.78-1.052-4.63-1.842-.851-7.795-.615-10.866-.473-3.072.141-2.41 2.882-2.74 3.921-.332 1.04-.757.55-.757.095z" stroke="#000" stroke-width=".265"/><path d="M104.375 63.073s-.757-.16 5.27-.222l-.033.846-5.414-.042z" stroke="#000" stroke-width=".15"/><path d="M97.085 66.64s.922 4.086 2.54 4.086c1.62 0 8.156.179 9.303-.957 1.148-1.136.8-6.278.8-6.278l-1.394-1.355-3.299-.319h-3.832s-2.07-.02-2.274.12c-.205.14-1.967 1.196-2.008 1.275-.041.08-.43 2.013-.43 2.013z" fill="#b8fdfa" fill-opacity=".437"/><path d="M96.379 65.859s-.484-4.495 3.063-4.541c2.487-.032 8.27-.23 9.693.437 1.977.926 1.01 4.524 1.01 4.524s-.522.006-.6-.216c-.132-.369.658-2.819-.914-3.644-1.572-.826-6.65-.596-9.27-.459-2.62.138-2.055 2.798-2.338 3.807-.282 1.01-.644.533-.644.092z" stroke="#000" stroke-width=".241"/></g><g><path d="M39.183 114.24c7.124-9.656 27.403-4.724 27.403-4.724s16.384 8.466 25.939 6.992c2.627-.405 3.638-1.275 2.315-5.244 0 0 5.41 2.144 7.95 3.08 12.169 4.772 14.7 61.76 18.244 96.784-31.834-1.534-44.3.697-67.113-.744L40.74 166.33" fill="#264653" stroke="#000" stroke-width=".265"/></g><g transform="translate(-55.878 -44.183)"><path d="M212.38 258.353l-61.876-4.763v4.142l61.842 5.565 5.94-1.442-3.039-3.685z" fill="#020202" stroke="#000" stroke-width=".265"/><path d="M150.352 253.873l70.613-2.336-1.069 5.813-7.884 1.203z" fill="#262626" stroke="#000" stroke-width=".265"/><path d="M218.211 252.249s-42.28 1.338-41.813 1.338c.468 0 35.362 1.49 35.362 1.49l5.692-.752z" fill="#4c4c4c"/><path d="M213.203 263.165l21.786-71.342 70.366-3.361 1.572.54-23.755 65.742-68.486 9.032z" fill="#020202" stroke="#000" stroke-width=".265"/><path d="M214.778 263.764l21.787-71.342 70.366-3.362-22.183 66.283z" fill="#393939" stroke="#000" stroke-width=".265"/><path d="M246.677 196.962l-.551.386.394 1.027-2.457 1.89-.456-.895-1.092.877.461.94-2.717 2.22-.5-.947-1.737 1.395.328.684.374-.283 1.107 2.409 8.047-6.619z" fill="#6f6f6f"/><ellipse cx="240.673" cy="202.19" rx=".508" ry=".555" fill="#f33"/><path d="M212.38 258.353l-61.876-4.763v4.142l61.842 5.565 5.94-1.442-3.039-3.685z" fill="#020202" stroke="#000" stroke-width=".265"/><path d="M150.352 253.873l70.613-2.336-1.069 5.813-7.884 1.203z" fill="#262626" stroke="#000" stroke-width=".265"/><path d="M218.211 252.249s-42.28 1.338-41.813 1.338c.468 0 35.362 1.49 35.362 1.49l5.692-.752z" fill="#4c4c4c"/><path d="M213.203 263.165l21.786-71.342 70.366-3.361 1.572.54-23.755 65.742-68.486 9.032z" fill="#020202" stroke="#000" stroke-width=".265"/><path d="M214.778 263.764l21.787-71.342 70.366-3.362-22.183 66.283z" fill="#393939" stroke="#000" stroke-width=".265"/><path d="M246.677 196.962l-.551.386.394 1.027-2.457 1.89-.456-.895-1.092.877.461.94-2.717 2.22-.5-.947-1.737 1.395.328.684.374-.283 1.107 2.409 8.047-6.619z" fill="#6f6f6f"/><ellipse ry=".555" rx=".508" cy="202.19" cx="240.673" fill="#f33"/></g><g><path d="M63.83 192.682c-6.984-26.6-12.092-45.993-12.092-45.993s-14.136 1.518-16.91 7.13c-8.332 16.854 14.197 54.588 14.197 54.588s1.738 3.608 6.682 2.272c1.964-.531 9.784 1.69 21.687.803 18.065-1.347 42.088-5.792 42.088-5.792s7.296-11.978 2.51-11.102c-33.749 6.177-60.873-10.904-61.942 3.328" fill="#f6b285" stroke="#000" stroke-width=".265"/><path d="M122.353 200.221c1.338-3.025 2.146-6.092-.36-5.633-33.75 6.177-60.874-10.904-61.943 3.328 0 0 4.471 2.153 31.496 2.769 15.734.358 30.807-.464 30.807-.464z" fill="#fca"/><path d="M63.83 192.682c-6.984-26.6-12.092-45.993-12.092-45.993s-14.136 1.518-16.91 7.13c-8.332 16.854 14.197 54.588 14.197 54.588s1.738 3.608 6.682 2.272c1.964-.531 9.784 1.69 21.687.803 18.065-1.347 42.088-5.792 42.088-5.792s7.296-11.978 2.51-11.102c-33.749 6.177-60.873-10.904-61.942 3.328" fill="none" stroke="#000" stroke-width=".265"/></g><g><path d="M136.99 185.982c-1.185-.053-3.848 1.437-5.265 2.677-1.512 1.323-11.34 6.237-11.34 6.237l-3.307 10.489s8.032 5.102 19.277-4.347l1.7-.85 3.403.472 1.795 2.173s-.567 3.685 1.228 3.685c0 0 1.28.35 2.175-2.888 1.977 3.281 3.119 1.848 3.684 1.376.185-.154.258-.831.275-1.672 1.132 2.378 2.762 2.424 3.977 2.05 1.229-.377 0-1.606 0-1.606l-2.835-5.67s-.225-.648-.58-1.497c-.117-1.119-1.218-5.559-2.125-6.345-1.077-.933-2.68-1.242-4.344-1.859-3.02-1.118-6.833-2.211-7.503-2.394a.99.99 0 00-.216-.031z" fill="#f6b285"/><path d="M115.873 204.912s8.977 6 20.482-3.874l1.7-.85 3.403.472 1.795 2.173s-.567 3.686 1.228 3.686c0 0 1.701.472 2.552-4.63 0 0-1.418-3.686-3.213-5.67 0 0-6.142-1.134-7.37-1.796" fill="none" stroke="#000" stroke-width=".265"/><path d="M138.06 190.015s7.65 1.951 8.69 2.424c1.039.472 1.322 1.606 1.322 1.606l2.363 5.103s.472 5.386-.095 5.859c-.567.472-1.712 1.912-3.696-1.395" fill="none" stroke="#000" stroke-width=".265"/><path d="M120.051 194.963s10.162-4.98 11.674-6.304c1.512-1.323 4.44-2.93 5.48-2.646.67.183 4.484 1.276 7.503 2.394 1.665.617 3.267.926 4.344 1.859.96.831 2.136 5.752 2.136 6.508" fill="none" stroke="#000" stroke-width=".265"/><path d="M136.99 185.982c-1.185-.053-3.848 1.437-5.265 2.677-1.512 1.323-11.34 6.237-11.34 6.237l-1.932 5.547c4.845-.641 15.922-4.818 18.617-11.215.64-1.518 2.875-.53 2.875-.53l4.824 1.436 4.174 2.452 1.941 2.957c-.266-1.42-1.445-4.942-1.832-5.277-1.077-.933-2.68-1.242-4.344-1.859-3.02-1.118-6.833-2.211-7.503-2.394a.99.99 0 00-.216-.031z" fill="#fca"/><path d="M136.99 185.982c-1.185-.053-3.848 1.437-5.265 2.677-1.512 1.323-11.34 6.237-11.34 6.237l-3.307 10.489s8.032 5.102 19.277-4.347l1.7-.85 3.403.472 1.795 2.173s-.567 3.685 1.228 3.685c0 0 1.28.35 2.175-2.888 1.977 3.281 3.119 1.848 3.684 1.376.185-.154.258-.831.275-1.672 1.132 2.378 2.762 2.424 3.977 2.05 1.229-.377 0-1.606 0-1.606l-2.835-5.67s-.225-.648-.58-1.497c-.117-1.119-1.218-5.559-2.125-6.345-1.077-.933-2.68-1.242-4.344-1.859-3.02-1.118-6.833-2.211-7.503-2.394a.99.99 0 00-.216-.031z" fill="none"/><path d="M139.447 188.332s7.025 2.107 9.572 4.556c1.416 1.363 2.738 5.22 2.738 5.22l2.835 5.67s1.229 1.229 0 1.607c-1.228.378-2.882.33-4.016-2.126" fill="none" stroke="#000" stroke-width=".265"/></g><g><path d="M57.137 160.542s-25.649 10.822-36.57 5.187c6.45-14.99 4.442-29.045 12.402-46.678 8.17-18.1 33.617-9.535 33.617-9.535" fill="#264653" stroke="#000" stroke-width=".265"/></g><g><path d="M34.952 206.077c-3.375-.33-9.168.076-9.907 6.565-.766 6.72 10.724 7.91 10.724 7.91l.27-2.288c-1.73-.253-8.122-1.456-7.674-5.386.533-4.678 5.436-4.624 7.854-4.304.373.049.678.103.907.149l.245-2.235s-.705-.192-1.778-.336a19.736 19.736 0 00-.64-.075z" fill="#e76f51" stroke="#000" stroke-width=".198"/><path d="M45.516 199.367c-7.304 0-13.224 1.756-13.224 3.922v.01c-.005 6.906.818 13.814.809 20.72 0 2.166 5.111 3.923 12.415 3.923 7.304 0 12.187-1.759 12.285-3.923l.94-20.73c0-2.166-5.921-3.922-13.225-3.922z" fill="#e76f51" stroke="#100701" stroke-width=".158" stroke-opacity=".995"/><path d="M56.603 202.962a10.987 2.426 0 01-10.987 2.426 10.987 2.426 0 01-10.987-2.426 10.987 2.426 0 0110.987-2.426 10.987 2.426 0 0110.987 2.426z" fill="#af3618"/><path d="M56.603 202.962c0 1.34-4.92 2.426-10.987 2.426-6.068 0-10.987-1.086-10.987-2.426" fill="none" stroke="#120000" stroke-width=".2"/><path d="M45.743 202.14a10.987 2.426 0 00-10.369 1.631 10.987 2.426 0 0010.369 1.633 10.987 2.426 0 0010.369-1.632 10.987 2.426 0 00-10.369-1.632z" fill="#1e0905"/></g><g><path d="M47.74 180.076c4.233-11.113 19.049-12.12 9.921-25.4-10.081-14.667-3.953-19.769-3.953-19.769L31.19 134.7c-5.689 6.614-1.323 15.081 2.646 19.844 3.968 4.762.926 17.594-6.615 28.707-7.54 11.112 7.408 19.711 7.408 19.711 0 1.34 4.92 2.426 10.987 2.426 6.068 0 10.987-1.086 10.987-2.426 0 0-13.097-11.774-8.864-22.886z" fill="url(#f)"/></g></svg>