<svg xmlns="http://www.w3.org/2000/svg" width="886.18" height="903.611"><path d="M462.767 445.885l-2.241 1.28-1.599.32-2.24-.96v-.96-.96l1.6-3.2.32-.32 1.919-.64 2.24.96 1.28 1.6-1.28-.32-.32.32-.32.64-.319.32.32.64.64 1.28zm6.398-20.482l2.559.64 1.28.32.32.32.961 1.6v2.56l-.321.96-.32 3.521v.96l.641.96v1.6l-2.24.64-1.28-.96-.64-.96-1.6-2.24-1.6-1.28-.64-.64v-.64l-.32-4.8.64-1.6.641-.961h1.92zm139.815-88.65h-.321l-.32-.64-1.28-1.6-1.28-1.6-.32-.64-.958-.32-1.28-.96v-.32l.64-3.2h.319l1.28.32.64.64 1.28 2.24.64 1.6 1.28 3.521.318.32.641.32 3.839 1.6 2.24-.32 2.239.96 5.759 2.24h.322l.639-.64v-.96-.96h.319l.64 1.28.641 1.92 4.798 1.601-.319.32-1.28 1.92v1.28l-2.24 1.6v.96l-.959.64h-1.281l-1.28-.64h-1.918l-1.602-.64h-1.599l-1.599-.64-.64-1.28v-1.28l-1.6-1.28-2.559-3.52-.96-.96-1.92-.64-.64-.64-.319-.961v-.64zm-87.984 10.882l.96.96.319 2.88v.96l-.959.96-.32 1.28.32 1.601.32.96.959 1.6.32 4.16-.64 1.601-1.6 1.92-.959.32-.64.32-.64.32-.32 1.28-.64.64-1.919.32-5.439-1.6-.321-.32-.64-1.92.961-3.52.959-.96.32-.96v-1.28l-.32-1.28.64-3.201.32-.96.96-1.28.64-.32 1.28-1.6.64-2.56v-.32-1.6l-.32-.961v-.96l.32-.32 1.6.64.32.64.96.32h.959l1.92-.64h.32l.32.96-.64.64h-.32-.32l.32-.32v-.64h-.64l-.64.64v.96l.96.32.32.32zM221.531 29.842l-2.56.96h-1.92l-4.16 1.281-1.918.96-.64 1.28-3.52 1.6-.64 1.92-.32.96.96.96h1.6l3.839-.64.32.32-1.28 1.281-8.318 2.88-2.24.96-1.92.32-1.279.32-4.8 1.921-1.599.96-3.2.32-2.879-.96-.32-.32.32-.96-.96-1.6-2.879-.32-.32-.321h.32l.64-.32-1.6-1.92h-.64l-.32-.64.96-1.92 1.92-.64.64-.64v-1.28l.64-.64 3.519-2.56 7.998-4.16 7.04-2.882 2.559-1.28 4.798-2.24h.96l.32.32 1.28-.32 1.92-.96-.32-.32.32-.32 5.439-2.88h1.92l.64.32h.32l1.6-.96 1.599-.96v-1.28l.96-.64 1.92-.96 1.28-1.28 2.239-.961h.96l.96-.64.959-.64v-.64-.32l1.92-1.28 3.839-1.92 3.52-.96 2.879-1.6 1.92 1.28 2.239-.321.96-.96.96-.32 1.92-.64 1.279.32 2.24-.96.32 1.28-.32 1.6-.64.32-1.92.32-.96.64-.96.64-1.6 2.241-2.558 1.92-5.12 3.52-1.28 1.28v.96l.32.32v1.601l-.64.64-8.638 6.08-4.479 1.92-5.12 1.6-1.918.321-1.28.64zM59 212.902l2.24-1.28 2.88-1.92 1.6-.961h.32l1.919-.96.32.32 1.6.64 3.838-1.92 1.28-.32h.32l1.28-.32 7.04-2.56 6.078-.64 5.439-1.6 1.6-.64 3.2-2.241.958-1.28v-.32l1.28-.64.32-.32 1.28-.64 1.92-1.28 1.28-.96.64-.64.64-.64.639-.64.32-.321.96-1.28.64-.32 2.559-2.56 1.28-1.28.32-.32 1.28-.96 2.88-.96.96-.64h.319l1.6-.32h1.28l3.839-.96h4.479l.96.32 1.92.96.32.64.319.32h1.28l1.92-.64.96-.32 1.92-.32h.319l2.24-.32h.64l.96-.32.96-.32.32-.32 1.279.32.64.32 1.92.32H154.022l1.92-.64 4.159-1.601 2.56-.96.96-.64.959-.32.64-.32.96-.64 1.6-.64.32-.32h.319l.96-.32 2.56-1.28 1.92-.96v-.32h.319l2.56-2.241.32-.64 1.28-1.6 1.6-2.24 2.558-2.56 1.6-.96h.32l.64-.321v.64l.32.32.64.32 1.28.32h.64l.64-.32h1.6v-.32h.32l.959-.64.96-.64h.96l.64.96h2.24l.959-.32 1.28-.64 1.6-.64 1.28-1.6h.319l.96-1.6.64-1.28h.32l.96-2.24.32-.64.32-1.6.64-1.28.32-.64.959-1.281 1.6-.96 1.6-.96h.96l2.239-2.24.96-1.28 2.24-.96h1.28l.959-.641h.32l1.28-1.6 2.24-2.24 2.878-2.56 2.56-1.92 1.6-.64h1.6l.32-.32h.32l.32-.32h.32l.32-.32 1.28-.64 2.239-.321h.32l.96-.64 1.919-1.6 2.56-2.24 1.28-1.28h.32l.96-.96 1.599-1.6.64-.96.64-1.6.32-.32v-.32l.64-.961.32-.32 2.559-2.88 1.6-1.28 1.92-1.28.64-.32.959-.32h.32l1.6-.641 3.519-1.28 1.92-1.28.32-.32 1.28-.96 1.28-.32 3.198-.64h.32l.96-.64.64-.64.32-.64v-.32l.64-.32 2.56-.96h2.879l1.28-.32 5.119-.64h3.2v-.64l.96-.321h7.998l2.239.32h.96l1.6.32.32.32 7.679.64h1.279l4.16 1.92 2.239 1.601 1.28 1.28.32 4.48v.96h-.96l-1.92-.96h-.96l-.64.32-.64.64-3.199.64-1.6.96h-.96l-.639-.64-1.28-.64-.64-.32h-2.56l-5.439.64-1.6.32-.64 1.6-.319.64.32.96.64.961h.64l.96 1.28v.64l-.64.96h-.32-.96l-.96.32-1.92 1.28-2.879 1.92-3.52.96-.64.32-.96 1.281-2.558 3.52h-.96l-.96.64-1.6 1.92-2.88 3.2-2.879.961-.96-.32h-.96l-1.28 1.28h-.32v.32l-.64 1.28-.639 1.6v.64l-.32 1.92.32.961.32.32h.32v.32l-.64.96-.64.32h-.32v-.64l-.64-.32-.64-.32-.64.32-.96.64-.96.96v.64h.321v.64l-.32.96-.96 2.24-4.16 2.24h-.64l-.32.32-.319.96v1.6l-.32 1.601-.32.96-.96 2.88-.64.64v.32h-.32l-.96.96-1.92 2.561-.64.96h-.638l-1.28.32-.96.32-.64 3.2-.32.96v.32l-.32.96-.32.96-1.92 4.481-.32.64v2.56l-.32 1.92v.96l-.64 1.601v.96l.64 2.88.32.96.64 1.92h2.24l.64-.96 1.92-2.24 3.199-3.52v-.96-.32l.32-.32v-.32-.32l.32-.32.32-.32.32.32h1.6l.319-.32 1.6-1.6 2.24-2.24 1.28-.96 1.599-1.28.96-.64.96-.641.32-.32 1.28-1.28.959-.64 3.84-1.92 1.6-.64.959-.64 1.28-.641 1.28-.32v.32l.96.32-.32.32-1.28 1.92-.32.32-3.52 3.2.32.641.64 1.28h1.28l3.2-.32 2.559-.96 1.92-.32 1.6.32 1.919.96.96.32 2.56.64h2.879l1.6-.32 4.159.32h1.28l1.279 1.28.96.96 2.56 1.6.64-.32 1.28-.64h.96l.319.32 1.92.96.96.32.32.32.32.64-.32.32v.64l.96.641.959.32.32-.32.64-.32h.64l.32 1.92v1.92l.32.64v.32l.32.32 1.28.32h1.919l.64-.96v-.64-.32l.64-.32.64.96v2.24l.96.64.96.32v.32l.959-.32.64.32.64.96 1.28 1.921.64.32.96.96v.64l.319 1.28v2.24l.64 2.88v.32l.96 1.28 1.28 1.281.64.64.32.64 1.28.96.64.64.319.32v.32l-.32.96v.32l.64.96.96 2.24.32.961.96.64 1.919.96h.32l.32.64-.32.64.32 1.6 1.28 1.28.64.64 2.88.32.64.64h.319l1.6.32.32 1.921-1.28.96v.32l.96 1.92v.32l.32.64.32.32-.32.32-.96.32-.32.32v.96h-.32l.32.96.32.32.32.64.32.32 1.28 1.28v.321h.32l.96.64h.32l3.519 1.6 5.119.64 5.119-.32 2.879-.64 2.88.32 1.6.32.96-.32h.64l.959-.96 2.24-1.6 2.88-.64 1.599-.64 1.28-.96h.64l3.199.96.96 1.6v.96l.96 2.24.64.96v.96l-.32.32.32.64 1.599.96h2.24l1.6.96.32.96V247.786l.64.32.64.32 1.918.32h1.28l1.92-.32.64-1.6v-1.6l.64-.96 1.6-1.28 1.92-.32 1.599.32 1.28.32.64.64v.32l1.6 3.52.64.64h.64l1.279-2.24-.32-.96.32-1.28.32-3.52-1.28-.641-.32-1.28-.64-4.48 1.28-1.6 1.6-.64.32.64h.32l1.6-.32.32-.32 2.239 3.84-.32 2.24-.32 1.28-.32.64-.64.32-.32 1.28v.96l.96.96h.64l.64-.64.32-.96.64-.32h.32v3.2l.96.321.96.64 2.879-3.2 3.199-2.561 2.88-2.56.96-1.6.32-.96 1.279-.96h.96l1.28.32h.64l4.478-1.92 2.56-.96 1.28-.961 15.677-9.92 2.56-2.24 2.24-.321 1.6 2.24.639.32h1.28l2.56-.32 3.518-1.28 3.84-.64 3.84-.32 2.878-1.28 4.48-.64h1.28l2.24.32 4.158 1.28 3.2.32h.96l.64.32h2.88l4.157-.32h4.16l2.88.64h.64l4.48.32 2.878-.32 2.56-.64 10.878-4.16 7.358-4.161.321-.32 2.88-.96 1.918-.32 6.08-.96 10.237.96 2.56-.32 2.56-1.28 1.919-.32 2.24-.32.96.32.32.32-3.52 3.2-1.92 2.24-.959 2.24-.64 2.24-.32 1.6v1.28l-.64 7.042-.32 3.2.32 2.56.32 1.92v1.92h.32l.32.961-.32.64-1.6.64-.96.64-.32.96.32 1.6.32 1.28 1.6 2.24.64.64.96.64 2.56.32h1.92l1.28-.32.959-.959.96-.32v1.28l1.28 1.28.318.32h.322l.96.32h2.878l1.28-.64.96 1.6.64 1.6 1.28.64 2.88-.32 2.878-.96 4.48-2.24 3.199-1.92.96-.64 2.24.64 2.239-.32 1.28 1.92.32.96.64.96 1.28 1.6.959.96.96 1.6 1.92 1.28h.32l4.48-2.88.958-.32.32.32.961.96.64-.32.959-.96.64-1.6v-1.28l-.64-.64 1.6-2.88 2.559-1.92 1.6.32h.96l.32-.32 1.28-.96 2.879.32.64.32.64.32.64.32 1.6.64 1.28.32h1.598l.96-.32h.322l.958-.64 2.56-4.801 2.879-.64 1.6 1.6 1.28.32 1.28-.32.32-.32.96-.32.96.32.32 1.28.64.32.638 1.92-1.278 4.8-1.92 7.042.64 6.4 1.92 4.801 1.28 1.92-1.28.96.32 6.4 1.6 1.6-.961 2.241-.96.96h-.64l-.96.32-.96.96h-.319-.32v-.32-.32l-.64-.64h-1.6v-.32h-.639-.64l-2.88.64-1.28.96-1.6 2.56.32 1.92v1.601l-.32.64 1.28.64.64.64.96.32h.32l1.919-.32.64-.64 1.28-1.92.32.32h.32l1.92.32h2.56l.64.64.318.96.641 1.28.64.96.32.64h3.52l3.199 2.24-.641.961-.64-.32-1.278.96-.961.64-.64 1.28-.32 1.28v.32l.64.96 1.28.96.96.96 1.28 2.24 2.239 1.601 1.6 1.6 2.56.64.96-.32.639-.32.64.32.32 1.28.32.32.64.32 1.6.64.96 1.6 1.918.64.64.32.32-.32 2.24-4.16 1.28.32 1.28 2.88h.32l1.6.64h.319l1.92-.96.32-.96.64-.96v-1.92l-.96-2.88-2.24-.64-1.279-2.24-1.28-4.161.64-.64h.64l1.599.96 1.28.96.96.64 1.28-.32h2.88l.32-.32.32-.96 1.6-.32 4.158.32 2.24-.32h.96l.96.96 1.6.64 1.598.32.64.64.32 1.28v.64l.64.96 1.28.64.641 1.28.32 1.6.32 2.241.639 1.28 3.84 1.6h.639l.64.32.64 1.28v.32l-.64 1.92-.64.321-2.24 5.44-.639.96-.64.64-3.519.64-1.92-.32-4.8-2.24-2.558-1.6-2.88 1.28h-.96l-1.92.32-1.28-.64h-.96l-2.239.32-.32.64-1.6-.32-1.6-.64v-.64l-.639-.32-1.28.32-.64.32h-.64l-.639-1.6h-.321l-1.918-.96-1.282-.96-.319-.32-.32.32-2.24.32-1.278.96-.322-.32-2.558-.64-3.2-.32-.96.64-1.92.32-5.758-1.28h-.321l-.96.32-1.599-.64v-.64l-.32-.32h-.32l-2.56.64-2.88.96-.318.32-.32-.64-2.56.32h-3.2l-1.6 1.6h-.64-.64-1.279-3.52-1.28l-.959.96-.32.32-.96.64-.319.32-1.92.96-2.88-2.24-1.918-1.28-.641-1.92h-.32v-.32l-.32-.32-1.92.96-.96-.64-.96-.32v-.64-.64l-.32-.32h-.32l-1.92-.32-.64.64v1.92l-.958.64-.64-.32-.32-.32v-.96l.32-1.6v-1.92l-.96-1.92-.32-.64-1.6-1.28-1.92.319-.32.64h-2.239l-.32-.32-1.6-1.6-1.6-1.28-.96-.32v-.32l-.959.32-.96.64v.32l-.96 1.28-.64.96V309.871l.32 2.88.32 1.92V315.633h-.32-.64-.64l-1.918.64-.641.96-.96 1.92v.64l.64.96v.32l1.28.64.64.96v.64l-1.281.64-.64.641.32 1.28v.32l.642 2.24v.64l.639.96.64.96.639.96v.32l-.32.32h-.32-.319-.64-.32v.32l-.321.64v.641h-1.918l-.64-.32h-.32l-.321-.64-.96-.32-.64-.64-1.6-1.28-2.558-1.28-1.28-.32v-.32l-.64-1.281v-.64-.32-.32-.32l-.321-.64h-.958l-.64-.64-.96-.64-.32-.32-.32-.32-.32-.32-2.24-1.28-1.28-.96h-.32l-1.6-3.2v-.32l-3.519-4.161-1.6-1.6-1.28-.96-.96-.64-2.558-1.28-1.281-.641-2.559-.32-.64-.32-1.28-.64-.959-.64-.32-.32-1.28-.96-1.28-.32-.96-.32-3.52.64-.638.32-1.282-1.28-.639-.32v-.32l-.64-.32-1.28-.32-1.28-.32h-.318l-1.281-.32-1.28-.32-.638-.32-.322-.32-.64-.32-1.919-1.601-1.6-.64h-.32-.64-1.28l-.318.32-.641.32-1.28.64-.96-1.28-.32-.64-1.599-.64-1.6-.32-1.279.96v.64l-.64.64v.32l-.641-.64-2.24-.96h-.319l-1.6-.32h-.32l-.959.32-.64.32-.32.32-.64.32-.32.32-.32.32-.64.64-1.6 1.92-.64.64-2.88 2.881-.958.96-.322.64-.639 1.6-.32.96-2.88 3.2-.64 1.28-.96.96-2.558.64-.64.321-2.56-.64h-.64-1.28l-1.278-.64-1.282-.32-1.918-.96-1.92-.32h-.64l-.64.32-.64 1.28-.96.32-1.6-.32h-.318-.32l-1.6-.32-1.28.32-1.28.96-1.601 1.6-.32 1.28v.96l.96.64.641.64-.32.32h-.64v-.32l-1.6-.96-1.6-.96-3.52-1.92h-.319l-.32-.32h-.319l-4.8-1.6-1.6-.32h-.32l-1.92-.32h-.32-1.919l-.64.32-1.28.32-.96.64h-.319v.32h-.96l-.64-.32-.96-.32-1.92-.64h-.959-.32l-.96.32-.32.32-.64 1.28-.32.32h-.32-.96-.32l-.64-.32-1.6.64h-.639l-3.52 3.52-.318.32-.641.96v.96l-.32.96v1.601l-.32 2.88-.32.96v.32l-.64.96-.96.96v.32l-.64 3.84v.321l.32.64-.96.64-.32.64h-.64-.32-2.239v-.32l-.32-.64-1.6.32-.639.32-.32.64v.32h-.32v.32l.32.32v.32l-.64 1.28-.64.96-1.28.32h-.32-.32l-.64-.32-1.28.32-.64 1.28-.959-.32-.64-.64-1.28.321-.32.64-.32 1.28-.32 2.24-.96 1.28-.32.32h-.32l-2.879-.96-.96.32-.32.96v3.2l-.32 2.24h-.64l-1.919-.64-.64.321-.64.64-.32.64.96 5.12v1.92l-.64-.96-.96-.64-1.28.32-1.92-.96-1.918-1.6v-.96l-.64-.96-1.28-.32-.96-2.56v-1.28l.32-.96 1.28-.96 1.28.64 1.279-.64 1.28-1.28v-.96l-.32-.32-.32-1.281.96-1.28 1.28-.32 1.6-1.92v-2.24l.32-2.56h1.28l.639.32 1.28.64 1.28-.32.64-1.281-.32-.64v-.32l.32-.96.64-.32h.639l.64-.64.32-.64-.32-1.28.32-1.28.64-.32.32-.32.64-.32.96-1.92.32-.32-.32-2.561-.32-.96-.64-1.28-1.28-.64-1.28-.64h-1.28l-.32.32-.96 1.6-.959 1.28h-.96l-1.28.96-.64 1.28v2.24l-1.28 1.28-7.038-1.92-.64-.32-1.28-2.24-.96-.64h-.64l-1.28.64-.959.32-.32.96v3.2l.64.32v.96l.32 1.281-1.28 2.24-1.6 1.92-1.92 1.28-.32.64.32.64-.32.64-1.599 1.92v.96l-.32.961.32.96-3.2 1.6-.639-.32h-1.6l-.96.32-1.6 1.28-2.24.32-1.919 3.2-.32-.32v-1.28l-.32-.96-.96-.64-.32-1.6.32-1.92.32-.96.32-3.52-.32-1.6v-3.52l-.64-2.561-.959-2.24-.32-.96h-.32l-1.28-.96-.96.32-.64.32h-.32l-.32.64-.96.96-.32 1.28v.32h-.319v4.48l-.64 1.6v1.6l.64.32.32.32v.64l-.32.96-.64.64-.96 1.921.64.64.32.64v.32h-.64l-1.28.32-1.28.32-.32.32h-.32v.64l-.96 1.28h-.32l-1.599.32-1.6 1.28h-.32l-1.279.96-.96.32-.32.64-.96 1.28-.32.321v.32l-.32.32-.64.64-.96 1.92-.96 1.6-.64 1.28v.32h-.32l-.64 1.281h-.319l-1.6 2.56-1.28 2.24v.32l-1.92 4.481-.64 2.24h-.319l-1.6 3.52-1.28 1.28-1.599 2.56v1.28l.32.64.32.321v.64l-.96 1.28-1.28.96h-.32l-.64 1.28-.64 1.28-.64.64-1.28 1.28-.64.64h-.319v.961l-.64 1.92-1.28 1.28-1.28 2.24-.639.64-.64 1.6-.32 1.6-2.56 2.561-3.519 4.48-1.28 2.24-1.92 2.241-.64.32-1.28 1.6v.32l-1.278.96-.32.32h-.32l-.32.32-.64.96-.64.32v.32h-.32v.32l-.96 1.6-.32.64-.32.321v.32l-.64.96v.32l-.32 1.28v1.28l.32.32.32.32.32.96.96.96h.32l.32-.32v.32h-.64-.32l-1.92-.64-.64-.32-.64-.32h-.32v-.32h-.64-.96l-.64-.32h-.319-.32v-.32-.32h-.32v-.32l-.32-.32v-.32h-.32l-.32-.32-.32-1.28.32-.32v-.32l-.64-1.28h-.32l-.32-.32-.32-.32-.32-.32h-.64v-.32l-.64-.32-.319-.64-.64-.32-.32-.32-.32-.32v-.32l-.32-.32h-.64v-.32-.641l-.32-2.56v-.32l.32-.32.32-.32.64-.64h.32v-.64-.32-.32l.32-.64.32-.64h-.32v-.32h-.32v-.32h.32l.64-.96h.64v-.32-.32-.64l.32-.64v-.64-.321l.64-.96.32-.32v-.32-.64-.64l.64-.64.32-.32v-.32l.32-.64v-.32l.959-.96.32-.32.64-.96.32-.32h.32v-.32-.32-.32-.32l.32-.32h.32v-.321l.96-.96v-.64-.96l-.32-.32h-.32l-.32-.64.32-.32v-.32-.64l-.32-.32-1.28-.96-.32-.32v-.32-.32l-.64-.32-.32-.64h-.32-.32-.64v.32l-.64.32-.32.32-.959.64-1.6 1.6-.32.64v.32l-1.28.32v.32l-.32.32-.96.32-.64-.64h-.32l-.959.32-.32-.32-.32-.32h-.96l-.96.32h-.32l-.96-.32v.32h-.32l-.32-.32h-.319l-.32.32v.64h-.32l-.96.64h-.32v-.32l.32-.32v-.32l-.32-.32h-.64v-.32l-.32-.32h-.32v-.32-.32-.32h-.32v.64h-.32v.32l-.639.32h-.32-.32v-.32l-.32-.32h.32v-.32l.32-.64.64-.64.64-.64-.32-.64v-.32-.32h.32l.64-.32.64-.64.32-.64-.32-.321v-.32l.96-.32v-.32-.96l-.321-.32-.32-.32v-.32l-.32-.96v-.64-.64l.64-.96.64-.32.32-.64.96-.32v-.32h.32v-.32l.64-.32.64-.32.64-.32v-.32l.32-.32.32-.64v-.321-.32-.32l.959-.64v-.32-.64l.32-.32.32-.64v-.96h-.64l-.32-1.28v-1.28-.96-.32-.32-.32l-.32-.64-.64-.961-.32-.32-.64-.64-.64-.32v-.64-.64h.32l1.6.32.64.32.96.32h.32l.32-.32v-.32l.32-.96v-.64-.32-.32h.32l.32-.32.32-.32v-.64-.32l.32-.32-.32-.96v-.64-.64l-1.28-.321-.32-.32v-.64l-.64-.96-.64-1.28-.64-.64-.32-.32-.32-.32v-.64l.32-.64-.32-.32v-.32l.32-.32 1.6-.32h.32l.32-.32.32-.32h1.28l.32-.32v-.96l-.32-.32-.32-.64-1.28-.96h-.32l-.32-.64.32-.64v-.321l-.64-.64-1.92-.64h-.32l-.32-.32-.32-.32-.64-.32-.32-.64h-.319l-.64-1.6v-.64-.64l-.32-.32h-.32l-.32-.32v-.32l-.64-.321-.96.32h-.64-.32v-.64l-.319-.32h-.32l-.64.32h-.64l-.32-.32h-.32v-.32l-.64.32h-.64-.32-.32-.64-.32-.32-.32v-.32l-.32-.64-.32-.32h-.319l-.96-.32-.32-.32v-.32l.32-.32h.64l-.32-.96-.32-.96v-.32-.32h-.32-.32v-.32h-.32v.32h-.32l-.64.32h-.64l-.32-.32v.32h-.32-.319l-.32.32h-.32l-.32-.32h-.64v.64l-.32.32h-.64v.32h-.96-.96-.32l-.32-.32-.32-.32h-.319-.32-.32l-.32-.32-.64-.64h-.32l-.32-.96h.32v-.32l-.32-.32v-.32h-.32-.32-.32l-.96-.64v-.32h-.32l-.32-1.28v-.321h.32l.64-.64.32-.32v-.32h.32l.64-.64.32-.32.32-.32.96-.96.96-.96.32-.64.32-.32v-.32l.32.32h.32v-.32l.32-.64v-.64l-.96-.64h-1.28l-.32-.32-.32-.321v-1.6l-.32-.32v-.32l.32-.64v-.32l.32-.32.32-.32.32-.32v-.32l-.64-.64h-.32-.96-.32-.32-.32v-.32-.32l-1.28-.64-.64-.64-.32-.32-.639-.32h-.64l-.64-.32h-.32v-.64l-.32-.32-.96-.64-.32-.32h-.32-.32l-.32.64v.64h-.64-.319l-.32-.32-.64-.32h-.32-.32-.64l-.32-.32h-.32l-.32-.32v-.32-.32-.32-.64h-.32-.64l-.32.64h-.96l-1.279.32-.96.64h-.32v-.32l-.64-.64-.64-.321-.64-.32h-.32v.32l-.64.32v.32l-.319-.32v-.32-.64-.32l-.32-.32-1.92-1.6-.96-.64-.64-.64-.32-.32-.319-.32-.64.32v.32l-.32.64-.64.32h-.32l-.32-.32-.96.32-.32.32-.32.32-.32-.32-.32-.32.32-.32h-.32v-.32l-.96-.32v-.32l-.32-.32h-.319-.64l-.64-.64.32-.32v-.32h-.64l-.64-.32h-.32l-.32.32-.32.32h.32l-.32.32h-.32v.32h-.64l-.64-.32-.319-.32v-.32h-.32.32v-.32h-.32v-.32l-.32-.32v-1.28-.641h-.32v-.32h-.64-.64l-.32-.32h-.64-.32v.32l-.32.64h-.32-.96l-.32-.32h-.32-.639-.32l-.32.32v.32l-.96.32-.64.32h-.32v-.96-.32h-.32l-.32-.32h-.32-.32l-.32.64-.32 1.28v.64l-.319.96v.32h-.32-.64-.96l-.32.32-.96-.32-.64-.32h-.32-.319-.32v-.32-.32l-.32-.32-.32-.64v-.64l-.32-.96-.32-.32h-.32l-.96-.32-.64-.32h-.64-.32l-.32.64h-.64l-.32-.96.32-.32-.32-.32-.64-.32-.959-.32-.64.32-.64.32-.32.32h-.32l-.32-.32h-.32l-.32.32-.64.64h-.32l-.32-.32v-.64-.32l.64-.64v-.32l-.64-.32h-.64-.64l-.319.32.32.64v.32h-.32l-.96.32-.64-.32h.32l-.32-.32-.32-.32-.96-.32-.32-.32h-.32-.32l-.32-.32-.319-.64v-.32l-7.678-5.12-.96-.64-.64-.32-3.84-2.56-3.2-2.241-6.078-3.84-3.2-.96-3.199-1.28-.64-.321-1.28-.32-1.28-.32-.64-.32h-.319v-.32l-1.28-.32-5.439-1.92-9.278-3.2-4.48-1.601-1.92-.64-4.158-1.28-.64-.32-3.52-1.28-1.919-.64-4.16-1.28-3.519-1.28-1.28-.32-.64-.32-.96-.32-6.398-2.24h-.32v-.321h-.32l-1.92-.64-3.838-1.28-3.2-1.28-2.88-.96-.96-.32-2.559-.96-.96-.32-.96-.32-5.759-1.92-12.157-4.481.32-.32v-.32-.32-.32-.32h.319v-.32-.32-.64h-.32v-.32h-.32v-.32-.64l-.64-.32-.319-.32v-.32l.32-.96h-.32l-.32-.64-.32-.64-.32-.961v-.32l-.32-.32-.32-.96-.32-.64v-.32l.32-.64v-.32l-.32-.64v-.96l-.32-.64v-.32h-.64-.32v-1.28-.321-.32l-.32-.32-.64-.32-.32-.32v-.32-.32l.32-.32v-.32l-.32-.32-.64-.64-.32-.32-.64-1.6-.319-1.28v-.32l-.32-.32h-.32l-.64.32v-.32-.32-.32-.32l-.64.32-.64.32h-.32-.96-.32-.32v-.32l-.319-.32h-.32v-.32-.32l-.32-.32.32-.64v-.32l-.32-.32h-.32v.32l-.32.32h-.32l-.64-.32v.32h-.64-.32-.32-.64v.32l-.319-.32v-.64l.32-.32v-.321l.32-.32v-.32-.32-.32-.32-.32l-.64-.64h-.32-.32v-.32-.32l-.32-.64h-.64-.32l-.32.32-.32.64-.32.96v.32h-.32v-.32l-.32-.32h-.64-.64-.32l-1.28.64-.64.32-.32-.32v-.32-.96h-.32l-.319-.64-.32-.64-.64-.64v-.96-.32zm362.494 442.605l-.32-1.6-.32-.962v-.639l-.96-2.56v-.32l-1.92-4.16-.32-.961-.639-.96-.96-2.24-.64-1.92-.32-.32v-.32l-.64-3.201-.32-1.92v-.32-.96-.32-.32h.32v-1.28-.32-.32l.96-2.24 1.92-2.88 3.199-3.521.64-1.28 1.28-1.6v-.32l1.6-2.881v-.32h.319v-.32-.32l.64-1.6v-.32l.64-3.2v-.321-.32l.32-2.88-.32-2.24-.96-4.48v-.32-1.28l-.32-2.56-.64-2.881v-.96-.64l-.32-.961-.32-1.6v-.32l-.64-1.6-1.28-2.24-1.28-2.56-.319-.32v-.32l-.64-.96v-.32l-.32-.32-.32-1.92v-1.28l.64-1.28.96-.961.96-.96 1.6-.96 2.559-2.24h.32v-.32l1.6-1.601.96-1.28v-.32l1.92-3.2 1.6-3.2.64-1.28.319-.32 1.6-2.241.96-2.88.32-.96.64-1.92 1.599-1.601v-.319l1.28-2.56.64-1.6.96-1.6 3.198-5.122.322-1.6v-.32l1.599-5.76.319-2.56v-.96-.64-.321-.319l-.32-1.92v-.641-.96-.32l.32-.32v-.32-1.921l.64-.64.64-1.6v-.319l.64-2.24.96-4.162.32-2.559-.32-3.2v-.32-.321l-.32-.64-.32-.64v-.64l-.32-.32-.64-2.56-.64-1.28-.319-.641v-.64l-.321-1.28-.32-.64v-.32l.32-1.6v-1.28l.321-.64v-.32l.64-.64 1.598-.96v-.321l3.201-.96 2.559-.64 1.28-.96H459.246l1.28-.32 1.92-1.28v-.32l.32-.96.64-1.28.64-1.28v-1.281l.32-3.52.32-2.24.32-.32v-.32-1.28l-.64-4.161v-2.88l.32-1.28.32-1.6.959-.64 1.92-.64.64 1.28.96.64.959.32h1.92l.96-.64.961-1.28.64-1.92.318-.96.96-.64.96-1.6v-.321l.64-1.28v-.32l.64-.32h1.28l1.919.96.64.64.96 1.92.64.64h.32l1.6.32 1.6-.32 2.239-.64.321-.32.32-.32.32-.32 2.558-3.52v-.64l.32-2.561.64-1.92.96-.96 1.6-3.84.32-.64 2.88-1.28 1.6-1.6.32-.64.318-.321.961-1.28.32-1.6.32-1.6 1.92-3.84 2.24-3.201 1.279-2.24h.639v.64l.64.32h1.28l.641-.32 2.238-1.6.32-.96.96-1.28h.96l1.28 2.88-.32 1.6-.64.64-1.599.64-.96 1.28v.64h-.321-.319v-.32h-.32l-1.6.32-.96.64-.32.64-.96 1.28-.32.96.641 1.921.64 1.6 1.6 4.16.958.32.641 1.28v2.24l-.32.32-.32-.32-2.24.32-.32 2.24v.321l-.32.32v.32l-.319.32-.321.32-1.279 1.28.96.96.64.96v-.32l.32 2.56v6.401h-.32l-1.6.32-.64.32-1.28 4.162-.64.96v.318l-.319.961-.32 1.6v4.16l.64 1.921v.32l.32.64.319 2.24v.64l-.32 1.28V478.849l.32.32.32.32.32.32h.32l.64.32H510.438l.32-.32v-.32-.64l.319-.64v-.641l.96-3.2v-.32l.96-1.6 1.279-3.2 1.281-2.56.64-.641.639-.64.32-.96v-.96-.32l-2.24-.32-.64.64-.319-.96.96-1.28.32-.64.96-1.28.639-.96.64-1.6.96-3.201v-.32l-.32-.64.32-.96 2.56-2.24h1.92l.32 1.28.32 2.24v.96h-.64l-1.28.64-.32 2.24-.32 1.28v2.56l.32.961-.96 5.12-.32 1.28-.64.96-1.28.32-.64.641-.64.32v.32l-.64.32-1.6 1.92v.32l-.32.96-.319 1.92v.96l-.64 1.921-.32.64-.32.96-.319.32.32.32.32.32v.32l1.278.64h.32l1.6.32h.96v-.32h.32l1.6-1.92v-.32l.32-.32v-.32l.32-.32h-.32v-.96-.641l-.32-.32.96-2.24.64-.32 1.28-.64.639-.64.961-1.28.319-1.28.96-1.6.96-1.921.32-.32 1.28-2.56v-.64-.32l.319-.96.321-.32.32-.32.32-.64.639-.96.96-2.56.32-1.281.32-.96.96-5.76.319-1.28-.32-2.56v-.32l.32-3.521v-.32l.32-.96.96-1.92v-2.24-4.481l-.32-.64-.32-.64v-.32l-.32-1.92-.32-5.12-.64-1.282v-2.24-3.84l1.92-4.8 1.28-1.6 1.92-1.6h.32l.959-1.28.64-.64.96-.64 1.28-.64.64.319h1.28l.32-.32h.319l.64-.32.64-.64v-.32l.32-.64 1.6-.96 1.6-1.6.959-.96 1.28-.32h1.28l1.28-.64 2.56-.64 4.479.32 4.159.64.96.32h.96l.958-.64 2.241-.64h.32l1.28-.32h.959l1.28-.32h.32l1.6-.961 2.24-1.28h.319v-.32l.32-.96v-.32-.32-.64h-.32v-.32-.64l-.64-.64-4.799-.96h-.96l-.96.32v.32l.64.64h.64l-1.6-.32v-.32l-1.919-.64-1.919-.96h-.64l-.32-.64-.96-1.28-1.28-1.281h-.32l-1.6-2.56v-.32l-.64-1.92-.959-2.24-.32-1.6v-.321l-.64-2.24v-1.28l-.32-2.56v-.96l.64-1.28 1.92-2.24 1.279-2.24.32-.64v-.321l.32-.64 1.28-1.28 1.6-.64 2.56-.96h.318v-.32l.641-.32.64-.641.32-1.28 1.919-1.6.32-.32.32-.32 2.56-3.2v-.32l.32-1.28v-.96l-.96-1.28-.64-.32-.96-.64-1.28-.961-.64-.32h-.64-.64l-.96-.64-.32-.32.641-.32 1.28.32h5.439l1.28.64 1.278.96 4.16-.32h.64l.32.32.32.32 1.279.32h3.2l.96-.32.64-.64h.32l.64-1.28.32-.96-.32-.32-.64-.64-.32-.32v-.32l.96-.96h.32l.32-.32h.319l1.92.96.96-.32.64-.32H596.182v.64l.64.64.32 1.6 3.2 1.28v.64l.32.32 1.92.96 1.28.32 2.558 1.92.961.32.32.32.32.32h.32l2.24 1.28 1.919 1.28v.32l.64.64.959.641.64.64 1.28.64 1.28.96.64.32 1.28.96.32.32 1.278.96h.32v.32h.321l.96-.32h.96l.64-1.28.64-.64h1.28l1.28.64.32.32h.318l.32.32.96.32.32.32 2.88-.96 1.92-.32 2.24.96 1.28.64h.32l.64.32.96.64 4.158.96 1.28.64.96.96.96.64 1.28 2.241.32.32 1.28 1.6.639.96 1.919 1.6.32.32.64 1.28.321.64v1.6l-.32.321.32.32.32 2.24.638 1.28v.32l.641.64v.32l.32.32.96.64 1.6.96h.64l1.278.32h.322l1.599-.64.319-.32.64-.32h.32l.64.32h.96l.96.64 1.6-.32h4.16l.958.32 1.281.32.64.32 2.558 2.561 2.56 2.88.64.64.321.32.32.32h.32v.32l.639.32.96.64h.32l.64.64.64.32 1.919.32h1.28l1.28.64.64.32h1.919l1.28-.32 1.92 1.601.32.64h.32l.96.64.64.32.96.64 1.918 1.28.32.32h.321l.32.32 1.28.64 2.559 1.6.32.32 2.24.32.32.32 1.28-.32.64-.32.32-.32v-.32-.32h.639l1.92 1.28.639.32 1.6-1.6.64.32.64.96.64.96.959 1.28 1.6 2.24.64.64 1.28.961.64.96.32.64v.32l1.92 1.28h.319l.96.32.32.32.32.64-.64 1.92-.96.641-1.28.64v.96l.64 1.28v.32l.96 1.28.32.64.32.32.32.64v.32h.32l.32.32 1.28 2.881v1.28l.32.64.32.64h1.28v.64l.959 1.28 2.24.96-.32.32v1.28l.959 4.161.96 1.28.96 2.88v.64l.96 2.56h.32l.64.961.639 1.6-.64.32-1.6-.32-1.278-.96-3.84-.96-1.6-1.28-.959-1.6-.96-.32-1.6-.64h-.32-.32l-1.279.64h-.64l-.64.64-.32.32h-.32-.32l-.64.96-.32.96-.32.32-.32.96-.32.32.32.64.64 1.6.96.64.64.32-.32.64-.32.64h-.32l-.96 1.28v.96l.32 1.6v.961l.32.64v.96l.32.96.32.64.32 1.28h.32l.64.64.32.32h.32l1.279.64.64 1.92.32.321 4.16 2.24 3.199.96v3.52l.639 1.601.64.96.641.64v.96l.32.96.32 3.2v4.801l-.32.32v.32l.32.96.639 2.24v.32l.64.64v.32l.64.64.32.32v.96l-.32 1.6V491.33l-.64 2.88-.32.96v.64h-.32l-.32.96-1.28 2.24-.64 2.562V504.77l.32 3.2.32 1.92V511.814l-.64 2.88v4.479l-.96 5.121v2.24l.32.321V528.454l.32.64v.64l-.64 2.24-.318 2.24-.32 1.92.32 1.92v.96l-.32.641-.641.32-.96-.32h-1.279l-.64.64-.32.32-2.56 3.52-.64.641-.64.32-.32.959-.32.96-.319.96-.32.32-1.28.64-.32-.96h-.32l-1.28-.639h-.32l-1.6-.32-.64.32-1.28.319h-.32l-.639.32-1.6 1.6-.96 1.6v.321h-.319v.32l-.96 2.56-.32 2.24v1.92l-.96 3.201-.32 1.28v2.88l-.32 2.241.32.96-.32.64-.319 1.92-1.28 1.92v.32l-.32.96v1.28l.64 1.6-1.601.32-1.918-.32-2.88.64-1.6 1.28-1.28.962-.32.958h-.32v.322l-.32.64v.32l.96 3.52-1.6.32h-1.28-3.519l-.319.64h-.64l-.641.32h-.32-1.6-.96-1.918l-.96-.32h-.96l-1.92.96-.64.639-.32.642-.319.319-.96 1.28-.64.32-.961 1.6-.32 1.6v1.6l-1.598.64-.64 1.281-.32 1.279-.321 6.082v.96l-.32 3.2v1.92l-.32 3.2-.319 1.281v.32l-.32.64-.96.96-.32.64h-.96v1.28l.64 1.6.96 3.2.96 1.921 1.918 3.84 1.28 1.28 1.6.96.64.32 2.24 1.28h.32l3.52.32.64.32 2.879 1.28.96.321v-.96l.96.64.64.32h.32l.32.319 2.239.961 2.24 2.88h.32l2.878.96h.32l1.28-1.28 3.52-4.16 2.24-2.88.32-.32.64-1.28 1.28-1.28.959-1.601v-.32h.96l.32-1.28v-.64-.321l.32-.32.64-.64 1.6-1.28h.958v.32l.64.641 2.88-.64.96-1.282.32-.639v-.64l.32-.32.32-.64 1.28-1.92.64-.96v-.641l-.32-.64h-.32l.64-2.24 1.28-1.6.96-.32.64-.64v-.32l-.32-1.28.32-.96.319-.961.32-.32 1.28-.64v-.319-.64l3.2-1.6 2.558-3.201v-.96-.32-.32-.32l-.32-.64-.32-.32-.318-.64h-.641l-.32-.64.32-.32.64-.32h.32l1.92-.32.958-.64h.32l.321-.32.96-.96.96-.961.96-2.24.32-.32.64-1.6v-.641l1.28-.64h.64l.32-.32.96-.319h2.238l.96-.32h.32l1.28.32 2.56-.96h.64l.319-.32.64-.32h.32l.321-.32.64-.32.318-.321v-.32l1.282-.32h.319l2.56.32h.319l.96-.32.32-.32h.64l.96-1.28.64-1.28v-.32l.32-.64.32-.32.319-.96.64-.64h.96l.32-.32h1.28l.64-.32.639-.64.32-.32 1.28-1.281h.96l.32.32h.96l1.28-.64v-.32h.319l1.28-.32.96.96.32.32 1.28 1.6 1.6.64 2.24.64 1.919.32.32.32.96.321.32.32h.32l1.92.96.639 1.28.64.64h.64l.64.32h.32l1.92 1.28.64.64.318.32.96 2.24.322.64.319.32.96 2.24.32.321.639 1.28.32.64v.32l.64 1.601.96 3.2.32.32.32 1.28 1.92 1.6.32.64.64.64.32.32.32.64v.641l.32.64h-.32l-.32.32.32.64.32.32.32.319.319.321h.32v.96l.32 2.24.64 2.24v.96l.32.96.32 1.28V618.703l.64.96.319 3.2v1.28l.32 2.24.32 1.6V631.824l.32 1.92v.64l.321 3.521v.639l.32 1.602.32 1.28.318 1.92v.32l.641 2.88 1.6 3.84.64 1.601v.958l.32 1.602.64 1.6.32 1.28.639 1.28.64 2.24.32.96v.64l-.32.64.32.64v3.2l.32 3.521v2.56l.32.64.32 1.28.32 2.56v.64l-.32.642v1.599l.32 1.92v.64l.32 1.92V686.23l.64 3.84.32 1.28v.64l.32.32.64 1.6.64 3.84h.319v.96l.64 1.922.32.319v1.601l.32.958v.961l.32 2.24 1.599 1.922.322.64.96 2.24.318.958 1.6 2.882.32.64.64 1.28.32.96.32.32.32.96.64.32v.32l-.64.32v1.6l.32.32v.32l.32.32.64.64-.32.96v.641h-.32l-.96 1.92-.96.96-.32.64-.64.32v.32l-.64 1.28-.64 2.56-.319.96-.32.96v2.241l.32 2.56-.32.96v1.6l-.32.64-.32 1.28v.32l-.321.641v2.56l.322.64.639 1.601.64 2.24v.96l-.32.959-1.281 2.881v2.56l-.32.32-.638 1.6-.32.64-1.28 4.48v1.6l.32 1.921-.32.64-.321 1.6v.32l-.32.641v.32l-.32.64-2.56 2.24-.32.32-.32.96-1.599 1.28-.64.96-.32.32-.32 1.6-.639.32-1.6.321-.64-.32-.32-.32-.96-.32h-.96l-.64.32h-.32l-.64.64-.96.96h-.32v.32l-.32.64-1.278 1.92-.64.64v-1.6l.64-.96.96-.32.639-.96-.96-.96-.96-.64v-2.56l-.639-1.6-1.28.318-1.28-.64v-.96l.96-1.279 1.92-.32v-1.28l-.64-.961v-.32l1.919-1.28 1.6.32h.32l.32.32h.32l1.28-1.28v-.32l.64-.64v-.64l.32-.64v-.32l-.32-.96-.32-.64-.32-.32-.32-.32h-.641l-1.6-.32h-.32l-.32-.32-1.278-.96-.96-.32h-1.6l-.64.96h-1.92l-.96.64-.64.64-1.28.64-.32.64-.318.319-.322.96-.32.321-1.279.32-.64-.32h-.64-.32l-1.279 1.28-.32.64h-.32v.32l-.32.96V773.92l.96.96.64.32 1.598.64v2.88l.641 1.28v.96l-.319.32-.322-.64-.96-.32h-1.278-.32-.32-.32l-1.28.32-.32.32h-.32v.32l-.64.32v.32h-.32v.64l-.319.96-.64.96-.32.32-.64.961-.32.32v.64l-.32.32v.32l-.32 1.28-.32.64V794.4l.32.64.64.96.32.96-.32 1.601-.96 3.2-.32.96v1.28l-.64 1.282-.32.639h-.32l-.64.32-.64.64h-.32l-.32.64-.32.64v.32l-.64.96.64.96-.96.32-.639.321h-.32-.32l-.32.319-.32.32-.64.64-2.559.96h-.64l-1.92.32h-.96l-.64.32-1.599.64-.96.32-1.28.64-1.28.64v.321l-.32.32-1.28 1.6-.64.96v.32l-1.28 3.521-.32.64-.639 1.6-.64.96v.64l-.32 3.521v.64l-.32 3.84v.32l.64 3.2.64 1.92v.96l.32.32-1.28 5.122-2.56.64-.959 1.6h-.319l-1.6.96-.32.64h.32l.319 1.28-.32 2.24v.64l.32.32.32 1.28-.64 1.6-.32.32h-1.919v1.28l-.639 1.28-.64-.32-.64.32-1.6 1.6-.32.641-.64.96-.32.64v1.28l-.32.64-.96.96-.64-.32-.96-.32h-.64-.319-.64l-.32.32-.32.32h-.32v.32l-.32.32h-.32l-.64 1.28h-.32v.32l-.64 1.921v2.24l-.32.32-.32 1.28v.32l-.64.32-.32.32-.64.64-.32.32-.64.32-.32-.32-.32-.96-.639.32h-.32v.32l-.96 1.28-.32.64v.32h-.32l-1.28 3.201-.64.64-.639.64-.96.32h-.32v.32l-.32.32v.32l-.32.64V889.77l.32 1.28 1.28 2.881.32 1.28-.96.32-1.28.32h-.64v.32h-.32-.959-.32-.96-.32l-.96.32h-.32-.64-.32-.32-1.6-.959-1.92l-1.92.32h-1.92-.958-.96-.64-.32l-.96.32h-.96-.32-.32-.64-.32-1.92l-1.919.32h-1.28-.96-.64-.64-.32l-2.24.32h-1.919-1.92l-2.88.32h-4.158-.96l-2.24.32h-1.918l-5.76.32h-4.479-.96l-8.639.64h-2.24-.318-2.56l-6.08.32h-.96-.959-.96l-4.48.32-8.957.321h-3.52-.32l-4.159.32h-1.92-1.92-3.838-1.6l-4.48.32-9.917.32h-1.92-2.24-3.84-.32l-5.759.319v-.96-.64-1.6-1.92-.64-.64-2.24h-1.278-.64-3.52-7.359-.96-1.92-.319-.96-1.92l-2.879-.321h-1.92-.32-.96-.959-2.56-3.52-.32-5.12-.318-2.24-3.838l-3.84-.32-.32.32-1.92-.32h-.64-.96-.96-1.28-1.919-.64-.64-.64-1.28-2.878-1.92-.64-5.439-2.88-.319-.96l-8.319-.32h-1.6-.96-1.6-.319-.96-.32-6.08-.638-2.241-2.24-.319l-1.6-.32h-1.92-2.88-.96-2.558-.32-.32-.959-.96l-4.48-.319h-3.52-1.6-.319-.32-.32-.32l-3.84-.32h-2.239-4.798-1.6-.32l-5.12-.32h-.96-3.199-.64-.64-.32-.64-.319-.64-.64-.96-.64-3.2-.639-.64l-2.56-.32h-.96-.959-5.759-.96-3.2l-4.798-.32h-1.6-.64-2.88-.32-1.6-1.279l-3.84-.32h-1.919-2.88l-3.198-.32h-2.24-2.56-.32-.32l-2.879-.32h-2.24-.32-.64-.64-.639l1.92-1.28h.32v-.321l2.559-1.6 1.28-.96 1.6-1.281.96-.32.64-.639 1.599-1.28h.32l1.28-1.28.96-.641 1.6-1.6 2.879-2.88.64-.64.32-.32 2.239-2.56h.32l.32-.641.32-.32 1.6-2.56.96-1.28.96-1.92.319-.96 1.28-3.84.32-.96.96-1.922.96-2.24 1.28-2.56 1.28-2.239 1.279-2.24v-.641l.96-1.6 1.28-2.88.32-.96.32-.64.639-.96.64-.962.64-.319.32-.32 1.92-2.88 3.199-3.841.64-.64.32-.639 2.239-2.881v-.32l1.92-3.2.64-.64.32-.641v-.32l2.56-5.12 1.279-2.24.96-2.881 1.6-3.84.64-1.92.32-1.28v-.321l.32-.96v-.319-.64-.32l.96-1.6.319-.96.64-1.6.64-1.28v-.321-.32l.96-3.52.32-.96v-.32l.64-3.202v-1.6l.32-.64.32-2.56v-.32l.64-3.2.639-2.24.32-1.601v-.64-2.56l-.32-2.56v-.32h.32v-.32-.64l.32-.64.959-1.92v-.32l.322-.96v-.32-.64l.319-1.6.32-3.2v-.64-1.602-1.919-.32-1.92-.64-.96-1.281-.64-.64-1.6-.96-.96-1.92-.96-2.24-.32-.321-.96-1.92-.32l-.32-1.92v-.64-1.28-.64-.322-1.278l-.32-1.92v-2.88l-.321-2.882v-.32-.32l-.64-3.84-.639-2.24-.32-1.6v-.641l-.64-1.279v-1.28l-.32-.64v-1.6l-.32-.321v-.32l-.96-2.88-.32-1.28-.96-2.56-.96-2.562-.64-1.278-1.599-4.162-.64-.96-1.919-4.48-2.24-5.121-1.6-3.52-1.28-2.88-1.279-2.881v-.64l-.32-.32-1.28-4.16v-.64l-.64-2.24-.32-.32-.32-1.6-.32-.96v-.641l-.32-1.28v-.32l-.64-2.24-.32-1.6-.319-1.6z" fill="#264653"/></svg>