<svg xmlns="http://www.w3.org/2000/svg" width="143.281" height="123.715" viewBox="0 0 37.91 32.733"><path d="M10.667 8.73C7.292 8.399 1.5 8.805.76 15.294c-.766 6.72 10.724 7.91 10.724 7.91l.27-2.288c-1.73-.253-8.122-1.455-7.674-5.386.533-4.678 5.436-4.624 7.854-4.304.373.05.678.103.907.149l.245-2.235s-.705-.192-1.778-.336a19.734 19.734 0 00-.64-.075z" fill="#e76f51" stroke="#000" stroke-width=".198"/><path d="M21.23 2.019c-7.303 0-13.223 1.756-13.223 3.923v.009c-.006 6.906.818 13.814.809 20.72 0 2.166 5.111 3.923 12.415 3.923 7.304 0 12.187-1.759 12.285-3.923l.94-20.729c0-2.166-5.921-3.923-13.225-3.923z" fill="#e76f51" stroke="#100701" stroke-width=".158" stroke-opacity=".995"/><path d="M32.318 5.615A10.987 2.426 0 0121.33 8.04a10.987 2.426 0 01-10.987-2.426 10.987 2.426 0 0110.987-2.426 10.987 2.426 0 0110.987 2.426z" fill="#af3618"/><path d="M21.458 4.792a10.987 2.426 0 00-10.369 1.632 10.987 2.426 0 0010.369 1.632 10.987 2.426 0 0010.369-1.632 10.987 2.426 0 00-10.369-1.632z" fill="#695a11"/><path d="M32.318 5.615c0 1.34-4.92 2.426-10.987 2.426-6.068 0-10.987-1.087-10.987-2.426" fill="none" stroke="#120000" stroke-width=".2"/><path style="line-height:normal;font-variant-ligatures:normal;font-variant-position:normal;font-variant-caps:normal;font-variant-numeric:normal;font-variant-alternates:normal;font-feature-settings:normal;text-indent:0;text-align:start;text-decoration-line:none;text-decoration-style:solid;text-decoration-color:#000;text-transform:none;text-orientation:mixed;white-space:normal;shape-padding:0;isolation:auto;mix-blend-mode:normal;solid-color:#000;solid-opacity:1" d="M25.28 7.934s1.414.203 2.16.476c.372.137.736.325.99.568.253.244.399.53.367.91v.007l.106 10.156.324.887.248-.092-.309-.844-.103-10.103-.002.011c.038-.462-.153-.84-.448-1.123-.294-.283-.688-.48-1.082-.625-.376-.138-.765-.186-1.048-.28-1.203-.22-1.206-.046-1.204.052z" color="#000" font-weight="400" font-family="sans-serif" overflow="visible" fill="#ddd"/><path d="M26.623 20.33l.62-1.13 3.57-1.77.549.81-.206 2.945-.385.922-3.687 1.654-.539-.567z" fill="#378f38"/></svg>