<?xml version="1.0" encoding="UTF-8" standalone="no"?>
<!-- Created with Inkscape (http://www.inkscape.org/) -->

<svg
   xmlns:dc="http://purl.org/dc/elements/1.1/"
   xmlns:cc="http://creativecommons.org/ns#"
   xmlns:rdf="http://www.w3.org/1999/02/22-rdf-syntax-ns#"
   xmlns:svg="http://www.w3.org/2000/svg"
   xmlns="http://www.w3.org/2000/svg"
   xmlns:sodipodi="http://sodipodi.sourceforge.net/DTD/sodipodi-0.dtd"
   xmlns:inkscape="http://www.inkscape.org/namespaces/inkscape"
   width="37.909641mm"
   height="32.732857mm"
   viewBox="0 0 37.909641 32.732857"
   version="1.1"
   id="svg7152"
   sodipodi:docname="mug_light.svg"
   inkscape:version="0.92.5 (2060ec1f9f, 2020-04-08)">
  <defs
     id="defs7146" />
  <sodipodi:namedview
     id="base"
     pagecolor="#ffffff"
     bordercolor="#666666"
     borderopacity="1.0"
     inkscape:pageopacity="0.0"
     inkscape:pageshadow="2"
     inkscape:zoom="1.979899"
     inkscape:cx="24.563681"
     inkscape:cy="13.933473"
     inkscape:document-units="mm"
     inkscape:current-layer="layer1"
     showgrid="false"
     fit-margin-top="2"
     fit-margin-left="2"
     fit-margin-right="2"
     fit-margin-bottom="2"
     inkscape:window-width="1260"
     inkscape:window-height="1032"
     inkscape:window-x="2560"
     inkscape:window-y="28"
     inkscape:window-maximized="0" />
  <metadata
     id="metadata7149">
    <rdf:RDF>
      <cc:Work
         rdf:about="">
        <dc:format>image/svg+xml</dc:format>
        <dc:type
           rdf:resource="http://purl.org/dc/dcmitype/StillImage" />
        <dc:title></dc:title>
      </cc:Work>
    </rdf:RDF>
  </metadata>
  <g
     inkscape:label="Layer 1"
     inkscape:groupmode="layer"
     id="layer1"
     transform="translate(-66.467802,-105.25262)">
    <path
       style="fill:#e76f51;fill-opacity:1;stroke:#000000;stroke-width:0.19753386px;stroke-linecap:butt;stroke-linejoin:miter;stroke-opacity:1"
       d="m 77.997111,113.97166 c -3.374767,-0.33066 -9.168236,0.0759 -9.907363,6.56489 -0.765363,6.71927 10.723942,7.90957 10.723942,7.90957 l 0.269467,-2.28794 c -1.730077,-0.25303 -8.121068,-1.45542 -7.673357,-5.38596 0.532874,-4.6782 5.436137,-4.62386 7.854466,-4.30432 0.372805,0.0495 0.677182,0.10351 0.906728,0.14908 l 0.24467,-2.2346 c 0,0 -0.704474,-0.19216 -1.777918,-0.33617 -0.201277,-0.0269 -0.415631,-0.0524 -0.640552,-0.075 z"
       id="path5674"
       inkscape:connector-curvature="0" />
    <path
       style="opacity:1;fill:#e76f51;fill-opacity:1;stroke:#100701;stroke-width:0.15782785;stroke-miterlimit:4;stroke-dasharray:none;stroke-opacity:0.99516913"
       d="m 88.560838,107.26089 c -7.303516,1e-5 -13.224196,1.75637 -13.224284,3.92296 2.52e-4,0.003 5.03e-4,0.006 7.94e-4,0.009 -0.0058,6.9065 0.817579,13.81441 0.808284,20.72011 8.8e-5,2.16658 5.111695,3.92294 12.415211,3.92295 7.303585,2e-5 12.186787,-1.75857 12.284887,-3.92295 l 0.93957,-20.72868 c -9e-5,-2.16662 -5.920877,-3.92299 -13.224462,-3.92297 z"
       id="path5580"
       inkscape:connector-curvature="0"
       sodipodi:nodetypes="cccccsccc" />
    <path
       style="opacity:1;fill:#af3618;fill-opacity:1;stroke:none;stroke-width:0.08280039;stroke-miterlimit:4;stroke-dasharray:none;stroke-opacity:1"
       d="m 99.647711,110.85675 a 10.986762,2.4260118 0 0 1 -10.986763,2.42601 10.986762,2.4260118 0 0 1 -10.986762,-2.42601 10.986762,2.4260118 0 0 1 10.986762,-2.42601 10.986762,2.4260118 0 0 1 10.986763,2.42601 z"
       id="path5578"
       inkscape:connector-curvature="0" />
    <path
       style="opacity:1;fill:none;fill-opacity:1;stroke:#120000;stroke-width:0.2;stroke-miterlimit:4;stroke-dasharray:none;stroke-opacity:1"
       d="m 99.647711,110.85675 c -5e-6,1.33985 -4.918946,2.42601 -10.986763,2.42601 -6.067818,0 -10.986757,-1.08616 -10.986762,-2.42601"
       id="path5578-1"
       inkscape:connector-curvature="0"
       sodipodi:nodetypes="csc" />
    <path
       style="opacity:1;fill:#1e0905;fill-opacity:1;stroke:none;stroke-width:0.08280039;stroke-miterlimit:4;stroke-dasharray:none;stroke-opacity:1"
       d="m 88.787954,110.03391 a 10.986762,2.4260118 0 0 0 -10.368876,1.63194 10.986762,2.4260118 0 0 0 10.368876,1.63246 10.986762,2.4260118 0 0 0 10.368875,-1.63194 10.986762,2.4260118 0 0 0 -10.368875,-1.63246 z"
       id="path5578-19"
       inkscape:connector-curvature="0" />
  </g>
</svg>
