<svg version="1" xmlns="http://www.w3.org/2000/svg" width="400" height="400" viewBox="0 0 300.000000 300.000000"><path d="M151.9 33.4c-.2.2-4.2.6-8.9.9-9.5.7-20.8 2.2-28.5 3.7-2.7.6-5.9 1.2-7 1.4-4.1.8-11.1 2.7-14.5 4-1.9.8-3.7 1.4-4 1.4-2.9.3-14 5.7-18.7 9.1-6.7 4.8-7.5 7.3-7.4 22.2l.2 12.9h-3.3c-4.7 0-18.9 3.6-24.5 6.2-19.9 9.1-31.9 27.5-32.8 50.5-.7 13.9 2.6 22.8 11.6 32.4 9.6 10 22.4 17.2 42.4 23.8 6.3 2 11.7 3.9 11.9 4.2.3.2.7 8.6.9 18.6.5 19.9.8 20.8 7.7 26.7 8.5 7.1 33.3 15.1 53 17.2 3.6.3 6.7.8 7 .9 1.1.6 23.6 1.8 35 1.8 11.4.1 32.2-.9 37-1.7 1.4-.3 4.5-.7 7-1 4.4-.6 7.6-1.1 13.5-2.2 13.9-2.5 31.8-9.6 38.8-15.5 6.7-5.5 7.1-7.1 8.2-32.9.3-7.4.8-17.3 1-22 .2-4.7.7-14.1 1-21 .7-16.3 1.5-34.4 2-45 .2-4.7.7-14.8 1-22.5.3-7.7.8-16.7 1-20 .8-12.9.6-24.1-.3-26.6-4-10.2-32.5-21.1-66.7-25.4-2.2-.3-5.8-.7-8-1-4.9-.7-55-1.7-55.6-1.1zM64.6 125c.2 3 .5 9.3.8 14 1 16.8 1.8 36 1.5 36-2-.1-11.1-3.5-14.5-5.5-10.2-6-13.1-15.7-9.2-31 2.1-8.6 8.7-16.4 15.5-18.5 5-1.5 5.6-1 5.9 5z"/></svg>