<?xml version="1.0" standalone="no"?>
<!DOCTYPE svg PUBLIC "-//W3C//DTD SVG 20010904//EN"
 "http://www.w3.org/TR/2001/REC-SVG-20010904/DTD/svg10.dtd">
<svg version="1.0" xmlns="http://www.w3.org/2000/svg"
 width="700.000000pt" height="700.000000pt" viewBox="0 0 700.000000 700.000000"
 preserveAspectRatio="xMidYMid meet">
<metadata>
Created by potrace 1.11, written by Peter Selinger 2001-2013
</metadata>
<g transform="translate(0.000000,700.000000) scale(0.100000,-0.100000)"
fill="#000000" stroke="none">
<path d="M0 3500 l0 -3500 3500 0 3500 0 0 3500 0 3500 -3500 0 -3500 0 0
-3500z m3900 2475 c74 -37 146 -72 160 -77 l25 -11 -25 -7 c-23 -7 -22 -8 10
-9 19 -1 85 -10 145 -20 730 -126 1206 -457 1537 -1068 l49 -92 81 -41 c44
-22 108 -60 142 -84 74 -53 183 -164 224 -230 17 -27 53 -63 79 -81 68 -46
162 -150 190 -212 29 -62 44 -147 35 -192 l-7 -33 -35 44 c-53 66 -132 148
-143 148 -6 0 -7 -28 -3 -77 15 -185 23 -230 44 -271 35 -65 55 -159 48 -217
-6 -56 -24 -115 -34 -115 -4 1 -22 34 -41 76 -19 41 -37 71 -41 67 -3 -4 -19
-51 -34 -103 -43 -148 -110 -326 -208 -555 -50 -115 -95 -224 -99 -242 -5 -17
-18 -42 -29 -55 -17 -19 -16 -13 6 37 22 51 25 69 21 120 -7 64 -35 170 -44
162 -3 -3 -27 -61 -54 -128 -160 -399 -471 -756 -912 -1049 -274 -183 -550
-293 -862 -346 -166 -28 -462 -22 -577 12 -12 4 -18 0 -18 -12 0 -25 95 -114
163 -153 32 -18 54 -37 51 -43 -10 -16 -140 -3 -208 21 -33 11 -85 35 -115 53
-69 41 -191 161 -256 252 -45 63 -50 67 -62 50 -40 -54 -41 -170 -2 -282 12
-35 19 -66 16 -69 -11 -10 -96 38 -146 83 -62 56 -148 168 -204 266 l-43 76
-23 -44 c-52 -97 -171 -172 -288 -182 l-64 -5 23 39 c65 111 -4 268 -196 443
l-60 55 -8 -30 c-13 -49 -50 -77 -113 -82 l-54 -4 11 30 c17 43 -2 98 -60 174
-42 55 -203 198 -224 198 -4 0 -17 -18 -28 -40 -29 -57 -27 -125 7 -174 l26
-40 -31 22 c-54 39 -139 141 -171 206 -37 76 -71 201 -71 263 0 43 0 43 -56
68 -215 95 -324 124 -360 94 -21 -17 -14 -86 18 -166 l23 -58 55 -8 c64 -9 93
-26 121 -70 30 -48 22 -192 -16 -306 -38 -111 -227 -491 -244 -491 -14 0 -134
192 -191 307 -266 536 -297 1212 -85 1879 29 94 31 103 13 87 -18 -16 -20 -16
-17 -2 6 28 701 1499 708 1499 3 0 39 -50 80 -110 41 -61 77 -110 80 -110 3 1
33 25 65 54 l59 53 -22 139 c-11 76 -21 145 -21 153 0 12 125 -145 149 -188 6
-10 23 -2 72 35 35 26 65 48 66 49 1 0 -7 36 -18 79 -11 43 -18 80 -16 83 5 4
69 -11 102 -23 10 -4 15 9 20 50 4 31 10 56 14 56 4 0 22 -29 41 -64 l35 -64
65 35 c99 55 94 43 70 173 -12 62 -19 114 -17 116 2 3 39 -34 82 -81 42 -47
82 -85 88 -84 7 0 36 12 66 27 l54 27 33 110 c18 61 33 108 34 105 1 -3 10
-44 19 -91 l16 -86 95 35 c52 20 97 37 99 38 2 2 -22 49 -53 105 -31 56 -55
103 -54 105 2 1 67 -33 145 -77 l142 -80 63 16 c35 9 79 20 99 26 l36 9 6 71
c3 39 8 74 11 76 2 3 40 -22 83 -55 l78 -59 67 10 c66 10 68 11 74 43 l6 32
76 -35 c69 -31 82 -34 134 -28 32 4 58 10 58 13 0 6 -11 59 -25 119 -7 28 -6
28 175 -62z"/>
<path d="M4822 5000 c-75 -46 -93 -180 -38 -275 67 -114 217 -126 273 -23 25
48 24 151 -4 203 -54 102 -153 143 -231 95z"/>
<path d="M4502 4553 c-158 -56 -185 -260 -81 -629 31 -112 126 -364 137 -364
3 0 35 12 71 26 48 19 85 27 136 28 63 1 79 -3 157 -41 47 -23 120 -64 162
-92 l75 -51 10 53 c32 150 41 286 21 317 -7 11 9 33 65 91 76 77 125 160 125
210 0 58 -116 186 -261 288 -97 69 -239 137 -333 161 -94 24 -221 25 -284 3z"/>
<path d="M3089 4373 c-50 -8 -133 -66 -166 -116 -43 -64 -56 -117 -51 -202 10
-157 121 -265 271 -265 85 0 140 25 200 89 59 63 81 130 75 225 -10 150 -111
259 -250 270 -29 2 -65 2 -79 -1z"/>
<path d="M5169 3402 c5 -10 18 -25 27 -33 30 -24 44 -76 44 -158 0 -274 -280
-673 -679 -964 -83 -61 -65 -60 39 3 264 158 498 416 610 670 13 30 32 64 41
74 29 31 99 54 134 44 57 -17 285 -13 347 5 31 10 59 21 62 25 2 4 -40 5 -94
4 -115 -4 -193 12 -290 61 -61 30 -65 34 -72 75 -4 24 -16 58 -28 76 -22 37
-95 107 -129 126 -21 10 -22 10 -12 -8z"/>
</g>
</svg>
