<svg version="1.0" xmlns="http://www.w3.org/2000/svg" width="933.333" height="933.333" viewBox="0 0 700 700"><path d="M0 350v350h700V0H0v350zm390-247.5c7.4 3.7 14.6 7.2 16 7.7l2.5 1.1-2.5.7c-2.3.7-2.2.8 1 .9 1.9.1 8.5 1 14.5 2 73 12.6 120.6 45.7 153.7 106.8l4.9 9.2 8.1 4.1c4.4 2.2 10.8 6 14.2 8.4 7.4 5.3 18.3 16.4 22.4 23 1.7 2.7 5.3 6.3 7.9 8.1 6.8 4.6 16.2 15 19 21.2 2.9 6.2 4.4 14.7 3.5 19.2l-.7 3.3-3.5-4.4c-5.3-6.6-13.2-14.8-14.3-14.8-.6 0-.7 2.8-.3 7.7 1.5 18.5 2.3 23 4.4 27.1 3.5 6.5 5.5 15.9 4.8 21.7-.6 5.6-2.4 11.5-3.4 11.5-.4-.1-2.2-3.4-4.1-7.6-1.9-4.1-3.7-7.1-4.1-6.7-.3.4-1.9 5.1-3.4 10.3-4.3 14.8-11 32.6-20.8 55.5-5 11.5-9.5 22.4-9.9 24.2-.5 1.7-1.8 4.2-2.9 5.5-1.7 1.9-1.6 1.3.6-3.7 2.2-5.1 2.5-6.9 2.1-12-.7-6.4-3.5-17-4.4-16.2-.3.3-2.7 6.1-5.4 12.8-16 39.9-47.1 75.6-91.2 104.9-27.4 18.3-55 29.3-86.2 34.6-16.6 2.8-46.2 2.2-57.7-1.2-1.2-.4-1.8 0-1.8 1.2 0 2.5 9.5 11.4 16.3 15.3 3.2 1.8 5.4 3.7 5.1 4.3-1 1.6-14 .3-20.8-2.1-3.3-1.1-8.5-3.5-11.5-5.3-6.9-4.1-19.1-16.1-25.6-25.2-4.5-6.3-5-6.7-6.2-5-4 5.4-4.1 17-.2 28.2 1.2 3.5 1.9 6.6 1.6 6.9-1.1 1-9.6-3.8-14.6-8.3-6.2-5.6-14.8-16.8-20.4-26.6l-4.3-7.6-2.3 4.4c-5.2 9.7-17.1 17.2-28.8 18.2l-6.4.5 2.3-3.9c6.5-11.1-.4-26.8-19.6-44.3l-6-5.5-.8 3c-1.3 4.9-5 7.7-11.3 8.2l-5.4.4 1.1-3c1.7-4.3-.2-9.8-6-17.4-4.2-5.5-20.3-19.8-22.4-19.8-.4 0-1.7 1.8-2.8 4-2.9 5.7-2.7 12.5.7 17.4l2.6 4-3.1-2.2c-5.4-3.9-13.9-14.1-17.1-20.6-3.7-7.6-7.1-20.1-7.1-26.3 0-4.3 0-4.3-5.6-6.8-21.5-9.5-32.4-12.4-36-9.4-2.1 1.7-1.4 8.6 1.8 16.6l2.3 5.8 5.5.8c6.4.9 9.3 2.6 12.1 7 3 4.8 2.2 19.2-1.6 30.6C114.7 516 95.8 554 94.1 554c-1.4 0-13.4-19.2-19.1-30.7-26.6-53.6-29.7-121.2-8.5-187.9 2.9-9.4 3.1-10.3 1.3-8.7-1.8 1.6-2 1.6-1.7.2.6-2.8 70.1-149.9 70.8-149.9.3 0 3.9 5 8 11 4.1 6.1 7.7 11 8 11 .3-.1 3.3-2.5 6.5-5.4l5.9-5.3-2.2-13.9c-1.1-7.6-2.1-14.5-2.1-15.3 0-1.2 12.5 14.5 14.9 18.8.6 1 2.3.2 7.2-3.5 3.5-2.6 6.5-4.8 6.6-4.9.1 0-.7-3.6-1.8-7.9-1.1-4.3-1.8-8-1.6-8.3.5-.4 6.9 1.1 10.2 2.3 1 .4 1.5-.9 2-5 .4-3.1 1-5.6 1.4-5.6.4 0 2.2 2.9 4.1 6.4l3.5 6.4 6.5-3.5c9.9-5.5 9.4-4.3 7-17.3-1.2-6.2-1.9-11.4-1.7-11.6.2-.3 3.9 3.4 8.2 8.1 4.2 4.7 8.2 8.5 8.8 8.4.7 0 3.6-1.2 6.6-2.7l5.4-2.7 3.3-11c1.8-6.1 3.3-10.8 3.4-10.5.1.3 1 4.4 1.9 9.1l1.6 8.6 9.5-3.5c5.2-2 9.7-3.7 9.9-3.8.2-.2-2.2-4.9-5.3-10.5-3.1-5.6-5.5-10.3-5.4-10.5.2-.1 6.7 3.3 14.5 7.7l14.2 8 6.3-1.6c3.5-.9 7.9-2 9.9-2.6l3.6-.9.6-7.1c.3-3.9.8-7.4 1.1-7.6.2-.3 4 2.2 8.3 5.5l7.8 5.9 6.7-1c6.6-1 6.8-1.1 7.4-4.3l.6-3.2 7.6 3.5c6.9 3.1 8.2 3.4 13.4 2.8 3.2-.4 5.8-1 5.8-1.3 0-.6-1.1-5.9-2.5-11.9-.7-2.8-.6-2.8 17.5 6.2z"/><path d="M482.2 200c-7.5 4.6-9.3 18-3.8 27.5 6.7 11.4 21.7 12.6 27.3 2.3 2.5-4.8 2.4-15.1-.4-20.3-5.4-10.2-15.3-14.3-23.1-9.5zM450.2 244.7c-15.8 5.6-18.5 26-8.1 62.9 3.1 11.2 12.6 36.4 13.7 36.4.3 0 3.5-1.2 7.1-2.6 4.8-1.9 8.5-2.7 13.6-2.8 6.3-.1 7.9.3 15.7 4.1 4.7 2.3 12 6.4 16.2 9.2l7.5 5.1 1-5.3c3.2-15 4.1-28.6 2.1-31.7-.7-1.1.9-3.3 6.5-9.1 7.6-7.7 12.5-16 12.5-21 0-5.8-11.6-18.6-26.1-28.8-9.7-6.9-23.9-13.7-33.3-16.1-9.4-2.4-22.1-2.5-28.4-.3zM308.9 262.7c-5 .8-13.3 6.6-16.6 11.6-4.3 6.4-5.6 11.7-5.1 20.2 1 15.7 12.1 26.5 27.1 26.5 8.5 0 14-2.5 20-8.9 5.9-6.3 8.1-13 7.5-22.5-1-15-11.1-25.9-25-27-2.9-.2-6.5-.2-7.9.1zM516.9 359.8c.5 1 1.8 2.5 2.7 3.3 3 2.4 4.4 7.6 4.4 15.8 0 27.4-28 67.3-67.9 96.4-8.3 6.1-6.5 6 3.9-.3 26.4-15.8 49.8-41.6 61-67 1.3-3 3.2-6.4 4.1-7.4 2.9-3.1 9.9-5.4 13.4-4.4 5.7 1.7 28.5 1.3 34.7-.5 3.1-1 5.9-2.1 6.2-2.5.2-.4-4-.5-9.4-.4-11.5.4-19.3-1.2-29-6.1-6.1-3-6.5-3.4-7.2-7.5-.4-2.4-1.6-5.8-2.8-7.6-2.2-3.7-9.5-10.7-12.9-12.6-2.1-1-2.2-1-1.2.8z"/></svg>