<?xml version="1.0" encoding="UTF-8" standalone="no"?>
<svg
   xmlns:dc="http://purl.org/dc/elements/1.1/"
   xmlns:cc="http://creativecommons.org/ns#"
   xmlns:rdf="http://www.w3.org/1999/02/22-rdf-syntax-ns#"
   xmlns:svg="http://www.w3.org/2000/svg"
   xmlns="http://www.w3.org/2000/svg"
   width="159.40991mm"
   height="62.046604mm"
   viewBox="0 0 159.40991 62.046603"
   version="1.1"
   id="svg8">
  <defs
     id="defs2" />
  <metadata
     id="metadata5">
    <rdf:RDF>
      <cc:Work
         rdf:about="">
        <dc:format>image/svg+xml</dc:format>
        <dc:type
           rdf:resource="http://purl.org/dc/dcmitype/StillImage" />
        <dc:title></dc:title>
      </cc:Work>
    </rdf:RDF>
  </metadata>
  <g
     id="layer2"
     transform="translate(-10.063495,-122.46528)"
     style="display:inline;opacity:1">
    <path
       style="fill:#736d57;fill-opacity:0.54901963;stroke:none;stroke-width:0.264583px;stroke-linecap:butt;stroke-linejoin:miter;stroke-opacity:1"
       d="m 16.640012,134.71404 0.162832,-3.54074 1.511043,2.1892 0.723308,-0.35416 -0.506564,-3.1881 1.755107,2.39124 0.547346,-0.72792 -0.512341,-2.02561 1.532311,0.46159 -0.990291,2.97384 z"
       id="path2095" />
    <path
       style="fill:#c2c1bc;fill-opacity:1;stroke:none;stroke-width:0.264583px;stroke-linecap:butt;stroke-linejoin:miter;stroke-opacity:1"
       d="m 11.887593,141.78647 5.071216,-10.79191 1.511043,2.1892 0.723308,-0.35416 -0.506564,-3.1881 1.755107,2.39124 0.547346,-0.72792 -0.512341,-2.02561 1.532311,0.46159 -0.990291,2.97384 z"
       id="path2093" />
    <path
       id="path1079"
       style="fill:#726d58;fill-opacity:1;stroke:none;stroke-width:0.999999px;stroke-linecap:butt;stroke-linejoin:miter;stroke-opacity:1"
       d="m 88.316406,10.597656 0.767578,3.941406 c -1.181513,0.03093 -2.326152,0.10276 -3.458984,0.189454 l -3.716797,-1.78711 -0.138672,2.177735 c -1.099988,0.142057 -2.170383,0.301584 -3.21289,0.478515 l -4.716797,-3.578125 -0.40625,4.59375 C 71.74651,16.993163 70.243747,17.370644 68.773438,17.75 l -8.080079,-4.607422 3.292969,5.90625 c -1.881504,0.569085 -3.756221,1.215199 -5.617187,1.935547 l -0.88086,-4.988281 -1.765625,6.066406 c -1.040822,0.445422 -2.076168,0.91506 -3.105468,1.40625 l -4.466797,-4.798828 1.189453,6.447266 c -1.413141,0.750754 -2.810465,1.545785 -4.191406,2.380859 l -2.064454,-3.736328 -0.957031,5.642578 C 12.02963,49.31612 -8.2559146,89.235448 14.560547,134.00195 3.2829469,146.13526 18.021484,167.875 18.021484,167.875 c 26.282136,22.23201 178.781246,42.5332 178.781246,42.5332 96.48277,30.36106 200.33399,1.46289 200.33399,1.46289 59.14915,-23.24866 66.1607,1.50241 137.1914,-26.49414 9.90675,-16.81863 24.21367,-26.46297 24.25782,-31.96679 -8.7447,-34.1294 -28.36363,-79.05423 -63.01563,-85.611332 -79.43697,-10.820863 0.78822,32.724822 -2.92773,42.794922 l -35.95313,2.74219 -58.70703,-8.07032 c -15.86404,-1.14863 -14.30175,-0.57468 -28.51172,-0.80078 h -0.002 l -87.52344,-3.77929 C 264.14767,80.902026 206.75,67.935547 206.75,67.935547 c -15.62148,-18.569839 -33.10742,6.824219 -33.10742,6.824219 -1.81109,-18.974211 -27.95508,-27.75 -27.95508,-27.75 C 132.14941,34.093041 135.37724,31.174451 126.94922,25.671875 116.1457,18.618375 105.91102,15.639827 96.748047,14.789062 Z"
       transform="matrix(0.26458333,0,0,0.26458333,10.063495,122.46528)" />
    <path
       id="path1079-3"
       style="display:inline;opacity:1;fill:#444031;fill-opacity:1;stroke:none;stroke-width:0.999999px;stroke-linecap:butt;stroke-linejoin:miter;stroke-opacity:1"
       d="m 70.101505,17.712391 c 0,0 -61.9749542,15.098645 -66.3721261,76.416311 0.00529,18.187568 10.8316941,39.873048 10.8316931,39.873048 -13.1883587,7.9827 3.376428,34.79317 3.376428,34.79317 26.282109,22.23205 178.78125,42.53125 178.78125,42.53125 96.48276,30.36106 200.33398,1.46485 200.33398,1.46485 0.048,0.0389 0.0907,0.0685 0.13868,0.10742 -0.0113,-0.034 -0.0378,-0.0655 -0.0469,-0.0977 -0.27553,-0.88739 28.19542,-7.6981 58.29421,-6.29184 38.71295,-0.65073 64.31122,1.44794 85.27631,-31.30341 -10.75728,-0.59758 -4.77031,-50.03211 -6.71633,-56.57988 -0.24494,-2.85605 -20.29766,-16.01699 -25.12782,-17.29904 -2.41508,-0.64105 -18.53904,-5.17011 -21.1629,-5.72763 -2.62386,-0.55751 30.364,68.76446 -7.01464,63.55532 -2.67513,-0.37281 -5.33491,-0.63837 -7.90234,-0.73633 -2.5674,-0.0979 -5.04157,-0.034 -7.34375,0.24414 -2.30219,0.27817 -4.8878,0.9438 -7.66602,1.88672 -2.77822,0.94288 -5.7483,2.16396 -8.82227,3.55078 -6.14796,2.77372 -12.70769,6.21364 -18.95703,9.4375 -3.12465,1.61193 -6.17315,3.1694 -9.05273,4.5625 -2.87959,1.3931 -5.59069,2.6229 -8.04492,3.57617 -2.45424,0.95331 -4.6514,1.63126 -6.5,1.92383 -0.92429,0.14627 -1.76092,0.19486 -2.5,0.13477 -0.73913,-0.0605 -1.38075,-0.23093 -1.91211,-0.5254 -1.06269,-0.58911 -2.72096,-1.11793 -4.8418,-1.57812 -2.12088,-0.4602 -4.70347,-0.85116 -7.61719,-1.16406 -2.91367,-0.31295 -6.15842,-0.54818 -9.59961,-0.69532 -3.44118,-0.14702 -7.07987,-0.20696 -10.7832,-0.16992 -3.70333,0.0378 -7.46976,0.17234 -11.16992,0.41211 -3.70016,0.23962 -7.33397,0.5842 -10.76563,1.04492 -3.43162,0.46073 -6.66276,1.0361 -9.56054,1.73633 -2.89779,0.70023 -5.46197,1.52619 -7.56055,2.48438 -1.0493,0.47905 -2.35181,0.81734 -3.87305,1.02929 -1.52125,0.21204 -3.26093,0.29656 -5.18554,0.26368 -1.9246,-0.034 -4.03359,-0.18332 -6.29297,-0.43946 -2.25937,-0.25625 -4.66976,-0.61907 -7.19531,-1.07617 -5.05111,-0.91415 -10.56526,-2.20738 -16.26954,-3.79297 -5.70428,-1.58562 -11.59752,-3.46241 -17.40625,-5.54297 -5.80871,-2.08055 -11.53206,-4.36465 -16.89648,-6.76367 -5.36442,-2.39905 -10.3708,-4.91402 -14.74219,-7.45508 -2.1857,-1.27052 -4.21231,-2.5474 -6.04687,-3.82031 -1.83455,-1.27294 -3.47581,-2.54163 -4.89063,-3.79492 -1.41482,-1.25329 -2.6028,-2.49156 -3.5293,-3.70313 -0.92648,-1.21156 -1.59135,-2.39711 -1.96093,-3.54492 -0.36956,-1.1478 -0.87747,-2.15858 -1.50391,-3.04492 -0.62645,-0.8863 -1.37131,-1.64677 -2.21875,-2.29492 -0.84744,-0.64819 -1.79753,-1.18387 -2.83008,-1.61719 -1.03254,-0.43332 -2.1483,-0.76404 -3.33007,-1.00586 -1.18178,-0.24189 -2.4295,-0.39516 -3.72461,-0.46875 -1.29512,-0.0737 -2.63719,-0.0671 -4.00977,0.004 -2.74517,0.14249 -5.60949,0.55057 -8.44922,1.13281 -2.83973,0.5822 -5.6555,1.33855 -8.30273,2.17383 -2.64724,0.83531 -5.12723,1.75047 -7.29493,2.65234 -2.16769,0.90187 -4.02273,1.7904 -5.42382,2.57227 -1.40109,0.78187 -2.34788,1.45632 -2.69532,1.93164 -0.34745,0.47531 -1.78274,0.98813 -4.05664,1.51367 -2.27388,0.52554 -5.38583,1.06353 -9.08593,1.5918 -7.40019,1.05656 -17.15234,2.07104 -27.25586,2.85351 -10.10352,0.78244 -20.55841,1.33251 -29.36328,1.46094 -4.40243,0.0642 -8.39331,0.0228 -11.720708,-0.14648 -3.327401,-0.17046 -5.992019,-0.47101 -7.74414,-0.92383 -1.752121,-0.45283 -2.991885,-1.04574 -3.822266,-1.73633 -0.415188,-0.34545 -0.728773,-0.71453 -0.951172,-1.10352 -0.222387,-0.38902 -0.353502,-0.79657 -0.408203,-1.21875 -0.109417,-0.8443 0.09117,-1.74431 0.501953,-2.6582 0.326211,-1.61163 1.15019,-2.24082 3.53125,-1.79102 12.569655,1.94581 23.843706,-2.72507 32.908206,-9.09765 5.06863,0.9522 19.32677,1.72894 28.6582,-16.61524 11.51228,-22.631353 34.23242,-29.787105 34.23242,-29.787105 3.79011,-3.326891 20.36578,-3.534221 28.99024,-0.521484 8.62446,3.012699 4.15949,15.947379 -4.2793,28.527339 -8.43879,12.58001 3.99219,14.72657 3.99219,14.72657 -11.79839,-12.84934 19.0039,-16.70117 19.0039,-16.70117 3.67367,-13.05559 -25.48439,-47.151098 -36.67187,-49.132818 -11.18749,-1.981757 -10.51372,15.862114 -12.54688,17.619141 -1.09447,0.945822 -14.85045,13.519276 -22.59773,16.079647 -6.64463,2.19595 -7.51733,-5.50728 -7.51733,-5.50728 0,0 -5.63187,13.08113 -13.65861,18.07458 -18.35292,11.41738 -28.63894,8.59744 -28.63894,8.59744 -6.70946,6.36726 -11.508762,6.34164 -10.648637,5.5027 3.424697,-3.34033 -0.934555,-4.21666 -2.781981,-4.20075 -8.565459,0.0738 -15.645978,-1.19849 -24.462604,-3.4172 -1.088136,-0.27383 -3.745274,0.44195 -2.95554,5.75866 -7.831399,-3.23016 -6.560706,-10.09527 -8.102919,-10.51252 C 24.011126,106.55877 36.044706,57.098139 27.521919,83.722433 17.006216,47.645601 70.101505,17.712391 70.101505,17.712391 Z"
       transform="matrix(0.26458333,0,0,0.26458333,10.063495,122.46528)" />
    <path
       id="path1079-0"
       style="display:inline;opacity:1;fill:#908a6f;fill-opacity:1;stroke:none;stroke-width:0.264583px;stroke-linecap:butt;stroke-linejoin:miter;stroke-opacity:1"
       d="m 72.778433,142.73264 c 0.02304,1.23755 4.756762,2.61547 4.984889,3.74618 1.196013,2.5711 3.222076,2.97175 0.424564,6.1285 1.941368,-1.29608 10.831792,-1.88983 19.169224,-1.60545 4.42149,-0.0873 6.40725,-0.54653 13.81184,1.37412 7.10791,-1.89705 8.80364,4.94369 15.02448,2.10141 1.80552,-0.82655 8.41026,-0.59384 9.75963,-1.26657 2.23013,-1.11185 3.99901,-1.2333 4.45533,-1.48408 l -9.51256,0.72516 -10.93456,-1.95516 c -11.81947,-0.60747 -24.406064,-1.05389 -35.183904,-1.51928 -3.82902,-3.62951 -6.730295,-4.36582 -11.998933,-6.24483 z" />
    <path
       id="path1079-05"
       style="display:inline;opacity:1;fill:#444031;fill-opacity:1;stroke:none;stroke-width:0.264583px;stroke-linecap:butt;stroke-linejoin:miter;stroke-opacity:1"
       d="m 142.41484,162.12424 c 0.45491,-0.0261 4.29728,-2.30068 4.58726,-2.36507 0.28997,-0.0644 0.49126,-0.14809 0.59014,-0.25167 0.0989,-0.10357 0.17739,-0.2269 0.23616,-0.36845 0.0588,-0.14155 0.0977,-0.30165 0.11783,-0.47801 0.0403,-0.3527 0.005,-0.77198 -0.10026,-1.24488 -0.10509,-0.47291 -0.27984,-0.99908 -0.51831,-1.56683 -0.23848,-0.56775 -0.54038,-1.1766 -0.90021,-1.81385 -0.35982,-0.63724 -0.7773,-1.30299 -1.24643,-1.98437 -0.46914,-0.68138 -0.99008,-1.37877 -1.5565,-2.07894 -0.56641,-0.70017 -1.17872,-1.40343 -1.83038,-2.09703 -0.65165,-0.6936 -1.3427,-1.37747 -2.06757,-2.03915 -0.36243,-0.33084 -0.75069,-0.62691 -1.16014,-0.89091 -0.40944,-0.264 -0.84009,-0.49587 -1.28725,-0.69918 -0.44717,-0.20331 -0.91088,-0.3778 -1.38648,-0.52658 -0.47561,-0.14878 -0.96305,-0.27167 -1.4578,-0.37207 -0.9895,-0.20081 -2.00806,-0.3113 -3.01842,-0.35553 -1.01035,-0.0442 -2.01243,-0.0223 -2.96932,0.0408 -0.70307,0.0464 -1.3429,0.13114 -1.98231,0.21238 -1.62457,2.03055 7.17112,9.16605 8.49612,10.23194 2.79734,0.84857 6.17594,0.71163 7.45387,8.6474 z" />
    <path
       id="path1079-08"
       style="display:inline;opacity:1;fill:#444031;fill-opacity:1;stroke:none;stroke-width:0.264583px;stroke-linecap:butt;stroke-linejoin:miter;stroke-opacity:1"
       d="m 140.01459,151.75672 1.82315,1.72754 5.74745,14.54433 c 0,0 0.30439,-0.32162 0.7705,-0.90434 0.46611,-0.58271 1.09394,-1.4262 1.73943,-2.47116 0.32274,-0.52248 0.64994,-1.09555 0.96376,-1.71101 0.31383,-0.61545 0.61409,-1.27344 0.88315,-1.9668 0.26906,-0.69337 0.50659,-1.42194 0.69505,-2.17817 0.18846,-0.75622 0.32796,-1.54002 0.39997,-2.34404 0.036,-0.40201 0.0396,-0.79785 0.0145,-1.18701 -0.0251,-0.38915 -0.0787,-0.77187 -0.15865,-1.14773 -0.0799,-0.37586 -0.18623,-0.74479 -0.31471,-1.10691 -0.12848,-0.36212 -0.27937,-0.71711 -0.4501,-1.06505 -0.34148,-0.69588 -0.76128,-1.36335 -1.23404,-1.99988 -0.47275,-0.63653 -0.99862,-1.24226 -1.55235,-1.81591 -0.55374,-0.57365 -1.13539,-1.11487 -1.7198,-1.62212 -0.5844,-0.50725 -1.17156,-0.98067 -1.73632,-1.418 -1.12955,-0.87466 -2.16953,-1.6059 -2.91869,-2.17972 -0.18729,-0.14345 -0.39829,-0.27049 -0.62994,-0.38292 -0.23164,-0.11243 -0.48388,-0.21021 -0.7524,-0.29455 -0.53706,-0.16869 -1.14054,-0.28412 -1.78026,-0.35812 -0.63972,-0.074 -1.31573,-0.10671 -1.99832,-0.10955 -0.6826,-0.003 -1.37142,0.0239 -2.03709,0.0687 -1.33135,0.0896 -2.56934,0.25074 -3.47421,0.38965 -0.12852,0.0197 -0.0954,0.0176 -0.2098,0.0362 1.31174,2.94245 8.92258,7.84317 8.32352,9.4666 z" />
    <path
       id="path2090"
       style="display:inline;opacity:1;fill:#e6e5df;fill-opacity:1;stroke:none;stroke-width:0.272722px;stroke-linecap:butt;stroke-linejoin:miter;stroke-opacity:1"
       d="m 21.147573,130.28755 0.108661,0.0693 4.212817,-2.14289 2.649989,-0.9295 3.200226,-0.68127 4.606985,-0.21786 0.390441,-0.098 c -0.0681,-0.007 -0.14112,-0.0251 -0.208802,-0.0314 l -2.299497,-1.14308 0.209334,1.07491 c -0.322225,0.008 -0.634394,0.028 -0.943342,0.0516 l -1.013655,-0.48739 -0.03782,0.59393 c -0.299992,0.0388 -0.591911,0.0823 -0.876227,0.13049 l -1.286378,-0.97583 -0.110792,1.25282 c -0.460106,0.1036 -0.869945,0.20655 -1.270928,0.31001 l -2.20362,-1.25655 0.898067,1.61077 c -0.513127,0.15519 -1.024405,0.33141 -1.531934,0.52786 l -0.24023,-1.36042 -0.481527,1.65445 c -0.283855,0.12147 -0.566215,0.24956 -0.846928,0.38351 l -1.218197,-1.30874 0.32439,1.75831 c -0.385395,0.20474 -0.766476,0.42158 -1.143089,0.64932 l -0.563024,-1.01898 -0.261004,1.53886 c -0.02177,0.0144 -0.04219,0.0313 -0.06392,0.0458 z" />
  </g>
  <g
     id="layer3"
     style="display:inline"
     transform="translate(0.11217864,-0.01701313)">
    <path
       id="path1174"
       style="display:inline;opacity:1;fill:#f2f2f0;fill-opacity:0.722333;stroke:none;stroke-width:0.999999px;stroke-linecap:butt;stroke-linejoin:miter;stroke-opacity:1"
       d="m 85.294922,14.304688 c -1.196895,0.0043 -2.417623,0.02565 -3.66211,0.0625 -69.474319,10.252309 -95.061031,82.614891 -67.072265,119.634762 0,0 15.455628,-24.1733 2.304687,-23.39062 -4.420578,-9.73344 0.879917,-7.1318 10.06836,-3.08008 0,0 -0.392843,9.59774 7.595703,14.49805 0,0 -3.848564,-2.78933 -0.382813,-7.02735 0,0 10.125532,6.59931 7.476563,10.96485 0,0 4.505859,0.67869 4.505859,-3.19336 0,0 11.690095,8.58284 6.404297,14.58398 0,0 7.663366,0.45699 10.119141,-6.45508 0,0 4.686435,10.05226 10.726562,11.71094 0,0 -3.05371,-6.83475 -0.07227,-10.13281 0,0 6.870997,12.26825 17.175781,10.70508 0,0 -7.126638,-3.5923 -5.962891,-5.75196 0,0 25.030609,7.66229 51.982419,-19.37109 6.87207,-6.89285 10.98541,-14.47852 13.31641,-21.957031 0.74438,1.767705 1.70147,4.644621 1.33398,7.125001 1.19486,-2.94351 6.81509,-14.42655 9.10157,-24.283204 1.52946,2.568077 2.29101,4.724609 2.29101,4.724609 1.64935,-3.867801 0.71176,-7.513074 -1.35156,-10.701172 0.11064,-1.889959 -0.0118,-3.604204 -0.45313,-5.03125 0.0542,-1.16042 0.008,-2.257621 -0.10742,-3.306641 3.21851,2.649665 5.25781,5.675782 5.25781,5.675782 0.86291,-5.676178 -2.85123,-9.752492 -7.39257,-12.566406 C 154.29029,49.940779 145.6875,47.009766 145.6875,47.009766 136.9069,29.448546 122.39867,14.170375 85.294922,14.304688 Z m 65.857418,88.925782 c -0.7229,1.78084 -1.32031,2.82422 -1.32031,2.82422 0.77326,-0.77665 1.16303,-1.76271 1.32031,-2.82422 z"
       transform="matrix(0.26458333,0,0,0.26458333,-0.11217864,0.01701313)" />
    <ellipse
       style="fill:#000000;fill-opacity:0.811689;stroke:none;stroke-width:9.30856;stroke-miterlimit:4;stroke-dasharray:none;stroke-opacity:1"
       id="path1168"
       cx="19.478018"
       cy="16.758652"
       rx="2.0016582"
       ry="2.1311963" />
    <ellipse
       style="fill:#000000;fill-opacity:0.783265;stroke:none;stroke-width:5.84748;stroke-miterlimit:4;stroke-dasharray:none;stroke-opacity:1"
       id="ellipse1221"
       cx="26.870335"
       cy="20.994585"
       rx="1.1651444"
       ry="1.4447938"
       transform="rotate(-18.380099)" />
    <path
       style="fill:#000000;fill-opacity:0.740293;stroke:none;stroke-width:0.223509px;stroke-linecap:butt;stroke-linejoin:miter;stroke-opacity:0.437737"
       d="m 29.557171,20.553337 c 0,0 0.830465,-0.522605 1.728336,-0.459386 0.897869,0.06322 2.577491,1.348749 2.577491,1.348749 0,0 0.596253,-2.222169 0.184077,-2.812574 0,0 1.618374,-1.264178 1.390293,-2.183522 -0.228081,-0.919345 -3.852051,-3.962953 -6.324423,-3.059346 -2.472372,0.903609 0.444226,7.166079 0.444226,7.166079 z"
       id="path1166" />
    <path
       id="path1925"
       style="color:#000000;font-style:normal;font-variant:normal;font-weight:normal;font-stretch:normal;font-size:medium;line-height:normal;font-family:sans-serif;font-variant-ligatures:normal;font-variant-position:normal;font-variant-caps:normal;font-variant-numeric:normal;font-variant-alternates:normal;font-variant-east-asian:normal;font-feature-settings:normal;font-variation-settings:normal;text-indent:0;text-align:start;text-decoration:none;text-decoration-line:none;text-decoration-style:solid;text-decoration-color:#000000;letter-spacing:normal;word-spacing:normal;text-transform:none;writing-mode:lr-tb;direction:ltr;text-orientation:mixed;dominant-baseline:auto;baseline-shift:baseline;text-anchor:start;white-space:normal;shape-padding:0;shape-margin:0;inline-size:0;clip-rule:nonzero;display:inline;overflow:visible;visibility:visible;opacity:1;isolation:auto;mix-blend-mode:normal;color-interpolation:sRGB;color-interpolation-filters:linearRGB;solid-color:#000000;solid-opacity:1;vector-effect:none;fill:#32312e;fill-opacity:1;fill-rule:nonzero;stroke:none;stroke-width:0.600001;stroke-linecap:butt;stroke-linejoin:miter;stroke-miterlimit:4;stroke-dasharray:none;stroke-dashoffset:0;stroke-opacity:1;color-rendering:auto;image-rendering:auto;shape-rendering:auto;text-rendering:auto;enable-background:accumulate;stop-color:#000000;stop-opacity:1"
       d="m 33.862998,21.4427 0.06255,0.225491 c 0,0 0.777234,0.352576 0.470083,1.936164 -0.307156,1.583587 -1.943299,4.349624 -5.464979,6.726445 2.260113,-0.924182 4.666529,-3.373596 5.510806,-5.739136 0.249218,-0.309836 0.438253,-0.228847 0.792699,-0.424569 0.940926,0.253595 2.847078,0.250922 3.312436,-0.279263 0,0 -1.724561,0.465436 -3.354549,-0.61535 0.01059,-1.185324 -1.329046,-1.829782 -1.329046,-1.829782 z" />
  </g>
</svg>
