<?xml version="1.0" encoding="UTF-8"?>
<!DOCTYPE svg PUBLIC "-//W3C//DTD SVG 1.1//EN" "http://www.w3.org/Graphics/SVG/1.1/DTD/svg11.dtd">
<svg version="1.1" xmlns="http://www.w3.org/2000/svg" xmlns:xlink="http://www.w3.org/1999/xlink" x="0" y="0" width="522.051" height="370.801" viewBox="0, 0, 522.051, 370.801">
  <g id="Layer_1" transform="translate(0.001, 1)">
    <path d="M23.568,0 L204.485,0 L204.485,86.334 L23.568,86.334 z" fill="#FFBB50" fill-opacity="0.75"/>
    <path d="M210.151,0 L501.151,0 L501.151,86.334 L210.151,86.334 z" fill="#A3D5A1" fill-opacity="0.75"/>
    <g>
      <path d="M30.985,34.109 L194.485,34.109 L194.485,81.109 L30.985,81.109 z" fill="#FFFFFF"/>
      <path d="M31.485,34.609 L194.985,34.609 L194.985,81.609 L31.485,81.609 z" fill-opacity="0" stroke="#000000" stroke-width="3"/>
    </g>
    <path d="M19.818,24.5 L503.818,24.5 L503.818,91.5 L19.818,91.5 z" fill-opacity="0" stroke="#000000" stroke-width="1"/>
    <text transform="matrix(1, 0, 0, 1, 107.757, 11.5)">
      <tspan x="-17.731" y="6.5" font-family="monospace" font-size="20" fill="#000000">root</tspan>
    </text>
    <text transform="matrix(1, 0, 0, 1, 344.934, 11.5)">
      <tspan x="-13.283" y="6.5" font-family="monospace" font-size="20" fill="#000000">tail</tspan>
    </text>
    <g>
      <path d="M36.826,38 L75.826,38 L75.826,77 L36.826,77 z" fill="#FFFFFF"/>
      <path d="M37.326,38.5 L76.326,38.5 L76.326,77.5 L37.326,77.5 z" fill-opacity="0" stroke="#000000" stroke-width="1"/>
    </g>
    <path d="M55.826,62 C53.617,62 51.826,60.209 51.826,58 C51.826,55.791 53.617,54 55.826,54 C58.035,54 59.826,55.791 59.826,58 C59.826,60.209 58.035,62 55.826,62 z" fill="#000000"/>
    <g>
      <g>
        <path d="M25.559,163.979 L202.666,163.979 L202.666,195.569 L25.559,195.569 z" fill="#FFFFFF"/>
        <path d="M26.059,164.479 L203.166,164.479 L203.166,196.069 L26.059,196.069 z" fill-opacity="0" stroke="#000000" stroke-width="2.016"/>
      </g>
      <g>
        <path d="M30.264,166.667 L56.477,166.667 L56.477,192.881 L30.264,192.881 z" fill="#FFBB50" fill-opacity="0.75"/>
        <path d="M30.764,167.167 L56.977,167.167 L56.977,193.381 L30.764,193.381 z" fill-opacity="0" stroke="#000000" stroke-width="0.672"/>
      </g>
      <g>
        <path d="M60.51,166.667 L86.723,166.667 L86.723,192.881 L60.51,192.881 z" fill="#FFBB50" fill-opacity="0.75"/>
        <path d="M61.01,167.167 L87.223,167.167 L87.223,193.381 L61.01,193.381 z" fill-opacity="0" stroke="#000000" stroke-width="0.672"/>
      </g>
      <g>
        <path d="M90.756,166.667 L116.969,166.667 L116.969,192.881 L90.756,192.881 z" fill="#FFBB50" fill-opacity="0.75"/>
        <path d="M91.256,167.167 L117.469,167.167 L117.469,193.381 L91.256,193.381 z" fill-opacity="0" stroke="#000000" stroke-width="0.672"/>
      </g>
      <g>
        <path d="M173.204,166.667 L199.417,166.667 L199.417,192.881 L173.204,192.881 z" fill="#FFBB50" fill-opacity="0.75"/>
        <path d="M173.704,167.167 L199.917,167.167 L199.917,193.381 L173.704,193.381 z" fill-opacity="0" stroke="#000000" stroke-width="0.672"/>
      </g>
      <g>
        <path d="M144.975,166.667 L171.188,166.667 L171.188,192.881 L144.975,192.881 z" fill="#FFBB50" fill-opacity="0.75"/>
        <path d="M145.475,167.167 L171.688,167.167 L171.688,193.381 L145.475,193.381 z" fill-opacity="0" stroke="#000000" stroke-width="0.672"/>
      </g>
      <text transform="matrix(1, 0, 0, 1, 125.26, 182.068)">
        <tspan x="-6.102" y="4.5" font-family="monospace" font-size="13.443" fill="#000000">...</tspan>
      </text>
      <text transform="matrix(1, 0, 0, 1, 43.076, 179.38)">
        <tspan x="-4.238" y="4.5" font-family="monospace" font-size="13.443" fill="#000000">0</tspan>
      </text>
      <text transform="matrix(1, 0, 0, 1, 73.322, 179.38)">
        <tspan x="-4.238" y="4.5" font-family="monospace" font-size="13.443" fill="#000000">1</tspan>
      </text>
      <text transform="matrix(1, 0, 0, 1, 103.568, 178.708)">
        <tspan x="-4.238" y="4.5" font-family="monospace" font-size="13.443" fill="#000000">2</tspan>
      </text>
      <text transform="matrix(1, 0, 0, 1, 185.721, 179.38)">
        <tspan x="-7.976" y="4.5" font-family="monospace" font-size="13.443" fill="#000000">31</tspan>
      </text>
      <text transform="matrix(1, 0, 0, 1, 157.491, 179.38)">
        <tspan x="-7.976" y="4.5" font-family="monospace" font-size="13.443" fill="#000000">30</tspan>
      </text>
    </g>
    <g>
      <path d="M57.159,57.667 L36.826,163.979" fill="#000000"/>
      <path d="M57.659,58.167 L37.326,164.479" fill-opacity="0" stroke="#000000" stroke-width="1"/>
    </g>
    <path d="M31.682,276.801 L212.598,276.801 L212.598,363.135 L31.682,363.135 z" fill="#FFBB50" fill-opacity="0.75"/>
    <path d="M218.265,276.801 L509.265,276.801 L509.265,363.135 L218.265,363.135 z" fill="#A3D5A1" fill-opacity="0.75"/>
    <g>
      <path d="M39.098,310.91 L202.598,310.91 L202.598,357.91 L39.098,357.91 z" fill="#FFFFFF"/>
      <path d="M39.598,311.41 L203.098,311.41 L203.098,358.41 L39.598,358.41 z" fill-opacity="0" stroke="#000000" stroke-width="3"/>
    </g>
    <path d="M27.932,301.801 L511.932,301.801 L511.932,368.801 L27.932,368.801 z" fill-opacity="0" stroke="#000000" stroke-width="1"/>
    <text transform="matrix(1, 0, 0, 1, 115.871, 288.301)">
      <tspan x="-17.731" y="6.5" font-family="monospace" font-size="20" fill="#000000">root</tspan>
    </text>
    <text transform="matrix(1, 0, 0, 1, 353.048, 288.301)">
      <tspan x="-13.283" y="6.5" font-family="monospace" font-size="20" fill="#000000">tail</tspan>
    </text>
    <g>
      <path d="M44.939,315.301 L83.939,315.301 L83.939,354.301 L44.939,354.301 z" fill="#FFFFFF"/>
      <path d="M45.439,315.801 L84.439,315.801 L84.439,354.801 L45.439,354.801 z" fill-opacity="0" stroke="#000000" stroke-width="1"/>
    </g>
    <path d="M63.939,338.801 C61.73,338.801 59.939,337.01 59.939,334.801 C59.939,332.592 61.73,330.801 63.939,330.801 C66.148,330.801 67.939,332.592 67.939,334.801 C67.939,337.01 66.148,338.801 63.939,338.801 z" fill="#000000"/>
    <g>
      <path d="M65.272,334.468 L36.826,196.786" fill="#000000"/>
      <path d="M65.772,334.968 L37.326,197.286" fill-opacity="0" stroke="#000000" stroke-width="1"/>
    </g>
    <g>
      <path d="M224.212,309.41 L279.013,309.41 L279.013,359.193 L224.212,359.193 z" fill="#FFFFFF"/>
      <path d="M224.712,309.91 L279.513,309.91 L279.513,359.693 L224.712,359.693 z" fill-opacity="0" stroke="#000000" stroke-width="3.177"/>
    </g>
    <g>
      <path d="M90.106,315.301 L129.106,315.301 L129.106,354.301 L90.106,354.301 z" fill="#FFFFFF"/>
      <path d="M90.606,315.801 L129.606,315.801 L129.606,354.801 L90.606,354.801 z" fill-opacity="0" stroke="#000000" stroke-width="1"/>
    </g>
    <path d="M109.106,338.801 C106.897,338.801 105.106,337.01 105.106,334.801 C105.106,332.592 106.897,330.801 109.106,330.801 C111.315,330.801 113.106,332.592 113.106,334.801 C113.106,337.01 111.315,338.801 109.106,338.801 z" fill="#000000"/>
    <g>
      <path d="M110.439,334.468 L247.782,204.667" fill="#000000"/>
      <path d="M110.939,334.968 L248.282,205.167" fill-opacity="0" stroke="#000000" stroke-width="1"/>
    </g>
    <g>
      <path d="M237.444,154.883 L516.55,154.883 L516.55,204.667 L237.444,204.667 z" fill="#FFFFFF"/>
      <path d="M237.944,155.383 L517.05,155.383 L517.05,205.167 L237.944,205.167 z" fill-opacity="0" stroke="#000000" stroke-width="3.177"/>
    </g>
    <g>
      <g>
        <path d="M245.359,159.62 L286.669,159.62 L286.669,200.929 L245.359,200.929 z" fill="#A3D5A1" fill-opacity="0.75"/>
        <path d="M245.359,159.62 L286.669,159.62 L286.669,200.929 L245.359,200.929 z" fill-opacity="0" stroke="#000000" stroke-width="1"/>
      </g>
      <g>
        <path d="M245.359,159.62 L286.669,159.62 L286.669,200.929 L245.359,200.929 z" fill="#A3D5A1" fill-opacity="0.75"/>
        <path d="M245.359,159.62 L286.669,159.62 L286.669,200.929 L245.359,200.929 z" fill-opacity="0" stroke="#000000" stroke-width="1"/>
      </g>
    </g>
    <g>
      <g>
        <path d="M293.025,159.62 L334.334,159.62 L334.334,200.929 L293.025,200.929 z" fill="#A3D5A1" fill-opacity="0.75"/>
        <path d="M293.025,159.62 L334.334,159.62 L334.334,200.929 L293.025,200.929 z" fill-opacity="0" stroke="#000000" stroke-width="1"/>
      </g>
      <g>
        <path d="M293.025,159.62 L334.334,159.62 L334.334,200.929 L293.025,200.929 z" fill="#A3D5A1" fill-opacity="0.75"/>
        <path d="M293.025,159.62 L334.334,159.62 L334.334,200.929 L293.025,200.929 z" fill-opacity="0" stroke="#000000" stroke-width="1"/>
      </g>
    </g>
    <g>
      <g>
        <path d="M340.69,159.62 L381.999,159.62 L381.999,200.929 L340.69,200.929 z" fill="#A3D5A1" fill-opacity="0.75"/>
        <path d="M340.69,159.62 L381.999,159.62 L381.999,200.929 L340.69,200.929 z" fill-opacity="0" stroke="#000000" stroke-width="1"/>
      </g>
      <g>
        <path d="M340.69,159.62 L381.999,159.62 L381.999,200.929 L340.69,200.929 z" fill="#A3D5A1" fill-opacity="0.75"/>
        <path d="M340.69,159.62 L381.999,159.62 L381.999,200.929 L340.69,200.929 z" fill-opacity="0" stroke="#000000" stroke-width="1"/>
      </g>
    </g>
    <g>
      <g>
        <path d="M470.622,159.62 L511.932,159.62 L511.932,200.929 L470.622,200.929 z" fill="#A3D5A1" fill-opacity="0.75"/>
        <path d="M470.622,159.62 L511.932,159.62 L511.932,200.929 L470.622,200.929 z" fill-opacity="0" stroke="#000000" stroke-width="1"/>
      </g>
      <g>
        <path d="M470.622,159.62 L511.932,159.62 L511.932,200.929 L470.622,200.929 z" fill="#A3D5A1" fill-opacity="0.75"/>
        <path d="M470.622,159.62 L511.932,159.62 L511.932,200.929 L470.622,200.929 z" fill-opacity="0" stroke="#000000" stroke-width="1"/>
      </g>
    </g>
    <g>
      <g>
        <path d="M426.133,159.62 L467.443,159.62 L467.443,200.929 L426.133,200.929 z" fill="#A3D5A1" fill-opacity="0.75"/>
        <path d="M426.133,159.62 L467.443,159.62 L467.443,200.929 L426.133,200.929 z" fill-opacity="0" stroke="#000000" stroke-width="1"/>
      </g>
      <g>
        <path d="M426.133,159.62 L467.443,159.62 L467.443,200.929 L426.133,200.929 z" fill="#A3D5A1" fill-opacity="0.75"/>
        <path d="M426.133,159.62 L467.443,159.62 L467.443,200.929 L426.133,200.929 z" fill-opacity="0" stroke="#000000" stroke-width="1"/>
      </g>
    </g>
    <text transform="matrix(1, 0, 0, 1, 394.279, 183.071)">
      <tspan x="-9.329" y="7.5" font-family="monospace" font-size="21.185" fill="#000000">...</tspan>
    </text>
    <text transform="matrix(1, 0, 0, 1, 264.296, 178.835)">
      <tspan x="-12.282" y="7.5" font-family="monospace" font-size="21.185" fill="#000000">32</tspan>
    </text>
    <text transform="matrix(1, 0, 0, 1, 311.962, 178.835)">
      <tspan x="-12.282" y="7.5" font-family="monospace" font-size="21.185" fill="#000000">33</tspan>
    </text>
    <text transform="matrix(1, 0, 0, 1, 359.627, 177.776)">
      <tspan x="-12.282" y="7.5" font-family="monospace" font-size="21.185" fill="#000000">34</tspan>
    </text>
    <text transform="matrix(1, 0, 0, 1, 489.559, 178.835)">
      <tspan x="-12.282" y="7.5" font-family="monospace" font-size="21.185" fill="#000000">63</tspan>
    </text>
    <text transform="matrix(1, 0, 0, 1, 445.073, 178.835)">
      <tspan x="-12.282" y="7.5" font-family="monospace" font-size="21.185" fill="#000000">62</tspan>
    </text>
    <path d="M354.151,62 C351.942,62 350.151,60.209 350.151,58 C350.151,55.791 351.942,54 354.151,54 C356.36,54 358.151,55.791 358.151,58 C358.151,60.209 356.36,62 354.151,62 z" fill="#000000"/>
    <path d="M354.333,57.667 L248.282,155.383" fill-opacity="0" stroke="#000000" stroke-width="1"/>
    <g>
      <path d="M232.112,314.801 L271.112,314.801 L271.112,353.801 L232.112,353.801 z" fill="#30762E"/>
      <g>
        <path d="M232.612,315.301 L271.612,315.301 L271.612,354.301 L232.612,354.301 z" fill="#30762E"/>
        <path d="M232.612,315.301 L271.612,315.301 L271.612,354.301 L232.612,354.301 z" fill-opacity="0" stroke="#000000" stroke-width="1"/>
      </g>
    </g>
    <text transform="matrix(1, 0, 0, 1, 251.235, 333.301)">
      <tspan x="-11.623" y="6.5" font-family="monospace" font-size="20" fill="#FFFFFF">99</tspan>
    </text>
    <text transform="matrix(1, 0, 0, 1, 6.061, 57)">
      <tspan x="-6.062" y="6.5" font-family="monospace" font-size="20" fill="#000000">a</tspan>
    </text>
    <text transform="matrix(1, 0, 0, 1, 13.38, 333.301)">
      <tspan x="-6.062" y="6.5" font-family="monospace" font-size="20" fill="#000000">b</tspan>
    </text>
  </g>
</svg>
