<?xml version="1.0" encoding="UTF-8"?>
<!DOCTYPE svg PUBLIC "-//W3C//DTD SVG 1.1//EN" "http://www.w3.org/Graphics/SVG/1.1/DTD/svg11.dtd">
<svg version="1.1" xmlns="http://www.w3.org/2000/svg" xmlns:xlink="http://www.w3.org/1999/xlink" x="0" y="0" width="587.833" height="213" viewBox="0, 0, 587.833, 213">
  <g id="Layer_1" transform="translate(-101.167, -104.333)">
    <path d="M185.083,104.333 L457,104.333 L457,190.667 L185.083,190.667 z" fill="#FFBB50" fill-opacity="0.75"/>
    <path d="M460.667,104.333 L662.667,104.333 L662.667,190.667 L460.667,190.667 z" fill="#A3D5A1" fill-opacity="0.75"/>
    <path d="M181.333,128.833 L665.333,128.833 L665.333,195.833 L181.333,195.833 z" fill-opacity="0" stroke="#000000" stroke-width="1"/>
    <g>
      <path d="M464.333,137.833 L656.333,137.833 L656.333,184.833 L464.333,184.833 z" fill="#FFFFFF"/>
      <path d="M464.333,137.833 L656.333,137.833 L656.333,184.833 L464.333,184.833 z" fill-opacity="0" stroke="#000000" stroke-width="3"/>
    </g>
    <g>
      <path d="M469.333,141.833 L508.333,141.833 L508.333,180.833 L469.333,180.833 z" fill="#A3D5A1" fill-opacity="0.75"/>
      <path d="M469.333,141.833 L508.333,141.833 L508.333,180.833 L469.333,180.833 z" fill-opacity="0" stroke="#000000" stroke-width="1"/>
    </g>
    <g>
      <path d="M515.333,141.833 L554.333,141.833 L554.333,180.833 L515.333,180.833 z" fill="#A3D5A1" fill-opacity="0.75"/>
      <path d="M515.333,141.833 L554.333,141.833 L554.333,180.833 L515.333,180.833 z" fill-opacity="0" stroke="#000000" stroke-width="1"/>
    </g>
    <g>
      <path d="M562.333,141.833 L601.333,141.833 L601.333,180.833 L562.333,180.833 z" fill="#A3D5A1" fill-opacity="0.75"/>
      <path d="M562.333,141.833 L601.333,141.833 L601.333,180.833 L562.333,180.833 z" fill-opacity="0" stroke="#000000" stroke-width="1"/>
    </g>
    <g>
      <path d="M609.333,141.833 L648.333,141.833 L648.333,180.833 L609.333,180.833 z" fill="#A3D5A1" fill-opacity="0.75"/>
      <path d="M609.333,141.833 L648.333,141.833 L648.333,180.833 L609.333,180.833 z" fill-opacity="0" stroke="#000000" stroke-width="1"/>
    </g>
    <text transform="matrix(1, 0, 0, 1, 629.333, 165.833)">
      <tspan x="-18" y="-1" font-family="monospace" font-size="12" fill="#000000">10999</tspan>
    </text>
    <g>
      <path d="M189.333,137.833 L452.833,137.833 L452.833,184.833 L189.333,184.833 z" fill="#FFFFFF"/>
      <path d="M189.333,137.833 L452.833,137.833 L452.833,184.833 L189.333,184.833 z" fill-opacity="0" stroke="#000000" stroke-width="3"/>
    </g>
    <g>
      <path d="M196.333,141.833 L235.333,141.833 L235.333,180.833 L196.333,180.833 z" fill="#FFFFFF"/>
      <path d="M196.333,141.833 L235.333,141.833 L235.333,180.833 L196.333,180.833 z" fill-opacity="0" stroke="#000000" stroke-width="1"/>
    </g>
    <g>
      <path d="M241.333,141.833 L280.333,141.833 L280.333,180.833 L241.333,180.833 z" fill="#FFFFFF"/>
      <path d="M241.333,141.833 L280.333,141.833 L280.333,180.833 L241.333,180.833 z" fill-opacity="0" stroke="#000000" stroke-width="1"/>
    </g>
    <g>
      <path d="M286.333,141.833 L325.333,141.833 L325.333,180.833 L286.333,180.833 z" fill="#FFFFFF"/>
      <path d="M286.333,141.833 L325.333,141.833 L325.333,180.833 L286.333,180.833 z" fill-opacity="0" stroke="#000000" stroke-width="1"/>
    </g>
    <g>
      <path d="M409,141.833 L448,141.833 L448,180.833 L409,180.833 z" fill="#FFFFFF"/>
      <path d="M409,141.833 L448,141.833 L448,180.833 L409,180.833 z" fill-opacity="0" stroke="#000000" stroke-width="1"/>
    </g>
    <g>
      <path d="M367,141.833 L406,141.833 L406,180.833 L367,180.833 z" fill="#FFFFFF"/>
      <path d="M367,141.833 L406,141.833 L406,180.833 L367,180.833 z" fill-opacity="0" stroke="#000000" stroke-width="1"/>
    </g>
    <text transform="matrix(1, 0, 0, 1, 346.833, 165.833)">
      <tspan x="-18" y="6" font-family="monospace" font-size="20" fill="#000000">...</tspan>
    </text>
    <path d="M215.333,165.833 C213.124,165.833 211.333,164.042 211.333,161.833 C211.333,159.624 213.124,157.833 215.333,157.833 C217.542,157.833 219.333,159.624 219.333,161.833 C219.333,164.042 217.542,165.833 215.333,165.833 z" fill="#000000"/>
    <path d="M260.333,164.833 C258.124,164.833 256.333,163.042 256.333,160.833 C256.333,158.624 258.124,156.833 260.333,156.833 C262.542,156.833 264.333,158.624 264.333,160.833 C264.333,163.042 262.542,164.833 260.333,164.833 z" fill="#000000"/>
    <path d="M305.333,164.833 C303.124,164.833 301.333,163.042 301.333,160.833 C301.333,158.624 303.124,156.833 305.333,156.833 C307.542,156.833 309.333,158.624 309.333,160.833 C309.333,163.042 307.542,164.833 305.333,164.833 z" fill="#000000"/>
    <path d="M386,164.833 C383.791,164.833 382,163.042 382,160.833 C382,158.624 383.791,156.833 386,156.833 C388.209,156.833 390,158.624 390,160.833 C390,163.042 388.209,164.833 386,164.833 z" fill="#000000"/>
    <path d="M428,164.833 C425.791,164.833 424,163.042 424,160.833 C424,158.624 425.791,156.833 428,156.833 C430.209,156.833 432,158.624 432,160.833 C432,163.042 430.209,164.833 428,164.833 z" fill="#000000"/>
    <text transform="matrix(1, 0, 0, 1, 320.583, 116.333)">
      <tspan x="-24" y="6" font-family="monospace" font-size="20" fill="#000000">root</tspan>
    </text>
    <text transform="matrix(1, 0, 0, 1, 556, 116.333)">
      <tspan x="-24" y="6" font-family="monospace" font-size="20" fill="#000000">tail</tspan>
    </text>
    <text transform="matrix(1, 0, 0, 1, 581.333, 165.833)">
      <tspan x="-18" y="-1" font-family="monospace" font-size="12" fill="#000000">10998</tspan>
    </text>
    <text transform="matrix(1, 0, 0, 1, 534.333, 165.833)">
      <tspan x="-18" y="-1" font-family="monospace" font-size="12" fill="#000000">10997</tspan>
    </text>
    <text transform="matrix(1, 0, 0, 1, 488.333, 165.833)">
      <tspan x="-18" y="-1" font-family="monospace" font-size="12" fill="#000000">10996</tspan>
    </text>
    <g>
      <path d="M215.833,163.333 L192.5,210.833" fill="#FFFFFF"/>
      <path d="M215.833,163.333 L192.5,210.833" fill-opacity="0" stroke="#000000" stroke-width="1"/>
    </g>
    <g>
      <path d="M428.5,162.333 L459,209.833" fill="#FFFFFF"/>
      <path d="M428.5,162.333 L459,209.833" fill-opacity="0" stroke="#000000" stroke-width="1"/>
    </g>
    <g>
      <g>
        <path d="M108.052,281.243 L285.158,281.243 L285.158,312.833 L108.052,312.833 z" fill="#FFFFFF"/>
        <path d="M108.052,281.243 L285.158,281.243 L285.158,312.833 L108.052,312.833 z" fill-opacity="0" stroke="#000000" stroke-width="2.016"/>
      </g>
      <g>
        <path d="M112.757,283.932 L138.97,283.932 L138.97,310.145 L112.757,310.145 z" fill="#FFBB50" fill-opacity="0.75"/>
        <path d="M112.757,283.932 L138.97,283.932 L138.97,310.145 L112.757,310.145 z" fill-opacity="0" stroke="#000000" stroke-width="0.672"/>
      </g>
      <g>
        <path d="M143.003,283.932 L169.216,283.932 L169.216,310.145 L143.003,310.145 z" fill="#FFBB50" fill-opacity="0.75"/>
        <path d="M143.003,283.932 L169.216,283.932 L169.216,310.145 L143.003,310.145 z" fill-opacity="0" stroke="#000000" stroke-width="0.672"/>
      </g>
      <g>
        <path d="M173.249,283.932 L199.462,283.932 L199.462,310.145 L173.249,310.145 z" fill="#FFBB50" fill-opacity="0.75"/>
        <path d="M173.249,283.932 L199.462,283.932 L199.462,310.145 L173.249,310.145 z" fill-opacity="0" stroke="#000000" stroke-width="0.672"/>
      </g>
      <g>
        <path d="M255.697,283.932 L281.91,283.932 L281.91,310.145 L255.697,310.145 z" fill="#FFBB50" fill-opacity="0.75"/>
        <path d="M255.697,283.932 L281.91,283.932 L281.91,310.145 L255.697,310.145 z" fill-opacity="0" stroke="#000000" stroke-width="0.672"/>
      </g>
      <g>
        <path d="M227.467,283.932 L253.68,283.932 L253.68,310.145 L227.467,310.145 z" fill="#FFBB50" fill-opacity="0.75"/>
        <path d="M227.467,283.932 L253.68,283.932 L253.68,310.145 L227.467,310.145 z" fill-opacity="0" stroke="#000000" stroke-width="0.672"/>
      </g>
      <text transform="matrix(1, 0, 0, 1, 213.749, 299.899)">
        <tspan x="-12.098" y="3.934" font-family="monospace" font-size="13.443" fill="#000000">...</tspan>
      </text>
      <text transform="matrix(1, 0, 0, 1, 125.363, 297.21)">
        <tspan x="-4.033" y="3.934" font-family="monospace" font-size="13.443" fill="#000000">0</tspan>
      </text>
      <text transform="matrix(1, 0, 0, 1, 155.609, 297.21)">
        <tspan x="-4.033" y="3.934" font-family="monospace" font-size="13.443" fill="#000000">1</tspan>
      </text>
      <text transform="matrix(1, 0, 0, 1, 185.855, 296.538)">
        <tspan x="-4.033" y="3.934" font-family="monospace" font-size="13.443" fill="#000000">2</tspan>
      </text>
      <text transform="matrix(1, 0, 0, 1, 268.303, 297.21)">
        <tspan x="-8.066" y="3.934" font-family="monospace" font-size="13.443" fill="#000000">31</tspan>
      </text>
      <text transform="matrix(1, 0, 0, 1, 240.074, 297.21)">
        <tspan x="-8.066" y="3.934" font-family="monospace" font-size="13.443" fill="#000000">30</tspan>
      </text>
    </g>
    <g>
      <g>
        <path d="M303.469,281.243 L480.575,281.243 L480.575,312.833 L303.469,312.833 z" fill="#FFFFFF"/>
        <path d="M303.469,281.243 L480.575,281.243 L480.575,312.833 L303.469,312.833 z" fill-opacity="0" stroke="#000000" stroke-width="2.016"/>
      </g>
      <g>
        <path d="M308.173,283.932 L334.387,283.932 L334.387,310.145 L308.173,310.145 z" fill="#FFBB50" fill-opacity="0.75"/>
        <path d="M308.173,283.932 L334.387,283.932 L334.387,310.145 L308.173,310.145 z" fill-opacity="0" stroke="#000000" stroke-width="0.672"/>
      </g>
      <g>
        <path d="M338.419,283.932 L364.632,283.932 L364.632,310.145 L338.419,310.145 z" fill="#FFBB50" fill-opacity="0.75"/>
        <path d="M338.419,283.932 L364.632,283.932 L364.632,310.145 L338.419,310.145 z" fill-opacity="0" stroke="#000000" stroke-width="0.672"/>
      </g>
      <g>
        <path d="M368.665,283.932 L394.878,283.932 L394.878,310.145 L368.665,310.145 z" fill="#FFBB50" fill-opacity="0.75"/>
        <path d="M368.665,283.932 L394.878,283.932 L394.878,310.145 L368.665,310.145 z" fill-opacity="0" stroke="#000000" stroke-width="0.672"/>
      </g>
      <g>
        <path d="M451.113,283.932 L477.326,283.932 L477.326,310.145 L451.113,310.145 z" fill="#FFBB50" fill-opacity="0.75"/>
        <path d="M451.113,283.932 L477.326,283.932 L477.326,310.145 L451.113,310.145 z" fill-opacity="0" stroke="#000000" stroke-width="0.672"/>
      </g>
      <g>
        <path d="M422.884,283.932 L449.097,283.932 L449.097,310.145 L422.884,310.145 z" fill="#FFBB50" fill-opacity="0.75"/>
        <path d="M422.884,283.932 L449.097,283.932 L449.097,310.145 L422.884,310.145 z" fill-opacity="0" stroke="#000000" stroke-width="0.672"/>
      </g>
      <text transform="matrix(1, 0, 0, 1, 409.165, 299.899)">
        <tspan x="-12.098" y="3.934" font-family="monospace" font-size="13.443" fill="#000000">...</tspan>
      </text>
      <text transform="matrix(1, 0, 0, 1, 320.78, 297.21)">
        <tspan x="-8.066" y="3.934" font-family="monospace" font-size="13.443" fill="#000000">32</tspan>
      </text>
      <text transform="matrix(1, 0, 0, 1, 351.026, 297.21)">
        <tspan x="-8.066" y="3.934" font-family="monospace" font-size="13.443" fill="#000000">33</tspan>
      </text>
      <text transform="matrix(1, 0, 0, 1, 381.272, 296.538)">
        <tspan x="-8.066" y="3.934" font-family="monospace" font-size="13.443" fill="#000000">34</tspan>
      </text>
      <text transform="matrix(1, 0, 0, 1, 463.72, 297.21)">
        <tspan x="-8.066" y="3.934" font-family="monospace" font-size="13.443" fill="#000000">63</tspan>
      </text>
      <text transform="matrix(1, 0, 0, 1, 435.49, 297.21)">
        <tspan x="-8.066" y="3.934" font-family="monospace" font-size="13.443" fill="#000000">62</tspan>
      </text>
    </g>
    <g>
      <path d="M504.552,281.243 L681.658,281.243 L681.658,312.833 L504.552,312.833 z" fill="#FFFFFF"/>
      <path d="M504.552,281.243 L681.658,281.243 L681.658,312.833 L504.552,312.833 z" fill-opacity="0" stroke="#000000" stroke-width="2.016"/>
    </g>
    <g>
      <path d="M509.257,283.932 L535.47,283.932 L535.47,310.145 L509.257,310.145 z" fill="#FFBB50" fill-opacity="0.75"/>
      <path d="M509.257,283.932 L535.47,283.932 L535.47,310.145 L509.257,310.145 z" fill-opacity="0" stroke="#000000" stroke-width="0.672"/>
    </g>
    <g>
      <path d="M539.503,283.932 L565.716,283.932 L565.716,310.145 L539.503,310.145 z" fill="#FFBB50" fill-opacity="0.75"/>
      <path d="M539.503,283.932 L565.716,283.932 L565.716,310.145 L539.503,310.145 z" fill-opacity="0" stroke="#000000" stroke-width="0.672"/>
    </g>
    <g>
      <path d="M569.749,283.932 L595.962,283.932 L595.962,310.145 L569.749,310.145 z" fill="#FFBB50" fill-opacity="0.75"/>
      <path d="M569.749,283.932 L595.962,283.932 L595.962,310.145 L569.749,310.145 z" fill-opacity="0" stroke="#000000" stroke-width="0.672"/>
    </g>
    <g>
      <path d="M652.197,283.932 L678.41,283.932 L678.41,310.145 L652.197,310.145 z" fill="#FFBB50" fill-opacity="0.75"/>
      <path d="M652.197,283.932 L678.41,283.932 L678.41,310.145 L652.197,310.145 z" fill-opacity="0" stroke="#000000" stroke-width="0.672"/>
    </g>
    <g>
      <path d="M623.967,283.932 L650.18,283.932 L650.18,310.145 L623.967,310.145 z" fill="#FFBB50" fill-opacity="0.75"/>
      <path d="M623.967,283.932 L650.18,283.932 L650.18,310.145 L623.967,310.145 z" fill-opacity="0" stroke="#000000" stroke-width="0.672"/>
    </g>
    <text transform="matrix(1, 0, 0, 1, 610.249, 299.899)">
      <tspan x="-12.098" y="3.934" font-family="monospace" font-size="13.443" fill="#000000">...</tspan>
    </text>
    <text transform="matrix(1, 0, 0, 1, 664.803, 299.899)">
      <tspan x="-13.5" y="-0.066" font-family="monospace" font-size="9" fill="#000000">10995</tspan>
    </text>
    <g>
      <g>
        <path d="M148.227,210.833 L325.333,210.833 L325.333,242.423 L148.227,242.423 z" fill="#FFFFFF"/>
        <path d="M148.227,210.833 L325.333,210.833 L325.333,242.423 L148.227,242.423 z" fill-opacity="0" stroke="#000000" stroke-width="2.016"/>
      </g>
      <path d="M152.932,213.522 L179.145,213.522 L179.145,239.735 L152.932,239.735 z" fill-opacity="0" stroke="#000000" stroke-width="0.672"/>
      <path d="M183.178,213.522 L209.391,213.522 L209.391,239.735 L183.178,239.735 z" fill-opacity="0" stroke="#000000" stroke-width="0.672"/>
      <path d="M213.423,213.522 L239.637,213.522 L239.637,239.735 L213.423,239.735 z" fill-opacity="0" stroke="#000000" stroke-width="0.672"/>
      <path d="M295.872,213.522 L322.085,213.522 L322.085,239.735 L295.872,239.735 z" fill-opacity="0" stroke="#000000" stroke-width="0.672"/>
      <path d="M267.642,213.522 L293.855,213.522 L293.855,239.735 L267.642,239.735 z" fill-opacity="0" stroke="#000000" stroke-width="0.672"/>
      <text transform="matrix(1, 0, 0, 1, 253.923, 229.489)">
        <tspan x="-12.098" y="3.934" font-family="monospace" font-size="13.443" fill="#000000">...</tspan>
      </text>
      <path d="M165.538,230.128 C163.329,230.128 161.538,228.338 161.538,226.128 C161.538,223.919 163.329,222.128 165.538,222.128 C167.747,222.128 169.538,223.919 169.538,226.128 C169.538,228.338 167.747,230.128 165.538,230.128 z" fill="#000000"/>
      <path d="M195.784,230.128 C193.575,230.128 191.784,228.338 191.784,226.128 C191.784,223.919 193.575,222.128 195.784,222.128 C197.993,222.128 199.784,223.919 199.784,226.128 C199.784,228.338 197.993,230.128 195.784,230.128 z" fill="#000000"/>
      <path d="M226.03,230.128 C223.821,230.128 222.03,228.338 222.03,226.128 C222.03,223.919 223.821,222.128 226.03,222.128 C228.239,222.128 230.03,223.919 230.03,226.128 C230.03,228.338 228.239,230.128 226.03,230.128 z" fill="#000000"/>
      <path d="M280.249,230.128 C278.039,230.128 276.249,228.338 276.249,226.128 C276.249,223.919 278.039,222.128 280.249,222.128 C282.458,222.128 284.249,223.919 284.249,226.128 C284.249,228.338 282.458,230.128 280.249,230.128 z" fill="#000000"/>
      <path d="M308.478,230.128 C306.269,230.128 304.478,228.338 304.478,226.128 C304.478,223.919 306.269,222.128 308.478,222.128 C310.687,222.128 312.478,223.919 312.478,226.128 C312.478,228.338 310.687,230.128 308.478,230.128 z" fill="#000000"/>
    </g>
    <g>
      <path d="M165.5,226.167 L122.167,281.243" fill="#FFFFFF"/>
      <path d="M165.5,226.167 L122.167,281.243" fill-opacity="0" stroke="#000000" stroke-width="1"/>
    </g>
    <g>
      <path d="M196.333,226.167 L315.5,281.243" fill="#FFFFFF"/>
      <path d="M196.333,226.167 L315.5,281.243" fill-opacity="0" stroke="#000000" stroke-width="1"/>
    </g>
    <g>
      <g>
        <path d="M428.5,210.833 L605.607,210.833 L605.607,242.423 L428.5,242.423 z" fill="#FFFFFF"/>
        <path d="M428.5,210.833 L605.607,210.833 L605.607,242.423 L428.5,242.423 z" fill-opacity="0" stroke="#000000" stroke-width="2.016"/>
      </g>
      <path d="M433.205,213.522 L459.418,213.522 L459.418,239.735 L433.205,239.735 z" fill-opacity="0" stroke="#000000" stroke-width="0.672"/>
      <path d="M463.451,213.522 L489.664,213.522 L489.664,239.735 L463.451,239.735 z" fill-opacity="0" stroke="#000000" stroke-width="0.672"/>
      <path d="M493.697,213.522 L519.91,213.522 L519.91,239.735 L493.697,239.735 z" fill-opacity="0" stroke="#000000" stroke-width="0.672"/>
      <path d="M576.145,213.522 L602.358,213.522 L602.358,239.735 L576.145,239.735 z" fill-opacity="0" stroke="#000000" stroke-width="0.672"/>
      <path d="M547.915,213.522 L574.128,213.522 L574.128,239.735 L547.915,239.735 z" fill-opacity="0" stroke="#000000" stroke-width="0.672"/>
      <text transform="matrix(1, 0, 0, 1, 534.197, 229.489)">
        <tspan x="-12.098" y="3.934" font-family="monospace" font-size="13.443" fill="#000000">...</tspan>
      </text>
      <path d="M445.811,230.128 C443.602,230.128 441.811,228.338 441.811,226.128 C441.811,223.919 443.602,222.128 445.811,222.128 C448.021,222.128 449.811,223.919 449.811,226.128 C449.811,228.338 448.021,230.128 445.811,230.128 z" fill="#000000"/>
      <path d="M476.057,230.128 C473.848,230.128 472.057,228.338 472.057,226.128 C472.057,223.919 473.848,222.128 476.057,222.128 C478.267,222.128 480.057,223.919 480.057,226.128 C480.057,228.338 478.267,230.128 476.057,230.128 z" fill="#000000"/>
      <path d="M506.303,230.128 C504.094,230.128 502.303,228.338 502.303,226.128 C502.303,223.919 504.094,222.128 506.303,222.128 C508.512,222.128 510.303,223.919 510.303,226.128 C510.303,228.338 508.512,230.128 506.303,230.128 z" fill="#000000"/>
      <path d="M560.522,230.128 C558.313,230.128 556.522,228.338 556.522,226.128 C556.522,223.919 558.313,222.128 560.522,222.128 C562.731,222.128 564.522,223.919 564.522,226.128 C564.522,228.338 562.731,230.128 560.522,230.128 z" fill="#000000"/>
      <path d="M588.751,230.128 C586.542,230.128 584.751,228.338 584.751,226.128 C584.751,223.919 586.542,222.128 588.751,222.128 C590.961,222.128 592.751,223.919 592.751,226.128 C592.751,228.338 590.961,230.128 588.751,230.128 z" fill="#000000"/>
    </g>
    <g>
      <path d="M588.833,226.167 L548.716,283.932" fill="#FFFFFF"/>
      <path d="M588.833,226.167 L548.716,283.932" fill-opacity="0" stroke="#000000" stroke-width="1"/>
    </g>
    <text transform="matrix(1, 0, 0, 1, 636.574, 299.899)">
      <tspan x="-13.5" y="-0.066" font-family="monospace" font-size="9" fill="#000000">10994</tspan>
    </text>
    <text transform="matrix(1, 0, 0, 1, 582.355, 299.899)">
      <tspan x="-13.5" y="-0.066" font-family="monospace" font-size="9" fill="#000000">10966</tspan>
    </text>
    <text transform="matrix(1, 0, 0, 1, 552.109, 299.899)">
      <tspan x="-13.5" y="-0.066" font-family="monospace" font-size="9" fill="#000000">10965</tspan>
    </text>
    <text transform="matrix(1, 0, 0, 1, 521.863, 299.899)">
      <tspan x="-13.5" y="-0.066" font-family="monospace" font-size="9" fill="#000000">10964</tspan>
    </text>
  </g>
</svg>
