<?xml version="1.0" encoding="UTF-8" standalone="no"?>
<!-- Created with Inkscape (http://www.inkscape.org/) -->

<svg
   width="529.44mm"
   height="204.91405mm"
   version="1.1"
   viewBox="0 0 529.44 204.91405"
   id="svg2359"
   sodipodi:docname="fixedToIntegerDiagram.svg"
   inkscape:version="1.1.2 (0a00cf5339, 2022-02-04)"
   xmlns:inkscape="http://www.inkscape.org/namespaces/inkscape"
   xmlns:sodipodi="http://sodipodi.sourceforge.net/DTD/sodipodi-0.dtd"
   xmlns="http://www.w3.org/2000/svg"
   xmlns:svg="http://www.w3.org/2000/svg">
  <defs
     id="defs2363" />
  <sodipodi:namedview
     id="namedview2361"
     pagecolor="#505050"
     bordercolor="#eeeeee"
     borderopacity="1"
     inkscape:pageshadow="0"
     inkscape:pageopacity="0"
     inkscape:pagecheckerboard="0"
     inkscape:document-units="mm"
     showgrid="false"
     fit-margin-top="0"
     fit-margin-left="0"
     fit-margin-right="0"
     fit-margin-bottom="0"
     inkscape:zoom="0.77234369"
     inkscape:cx="965.24385"
     inkscape:cy="517.25677"
     inkscape:window-width="2540"
     inkscape:window-height="1391"
     inkscape:window-x="0"
     inkscape:window-y="29"
     inkscape:window-maximized="1"
     inkscape:current-layer="text11848-3" />
  <rect
     x="0"
     y="0"
     width="529.44"
     height="204.91405"
     fill="#e9ddaf"
     stop-color="#000000"
     stroke-width="6.61768"
     id="rect1887"
     sodipodi:insensitive="true" />
  <path
     id="rect1937"
     style="fill:#aad400;stroke:#ffffff;stroke-width:2;stop-color:#000000"
     d="m 85.388629,57.534655 h 26.796001 v 34.111 H 85.388629 Z" />
  <path
     id="rect1943"
     style="fill:#aad400;stroke:#ffffff;stroke-width:2;stop-color:#000000"
     d="m 112.18862,57.534655 h 26.796 v 34.111 h -26.796 z" />
  <path
     id="rect2039"
     style="fill:#c8ab37;stroke:#ffffff;stroke-width:2;stop-color:#000000"
     d="m 48.942183,57.534659 h 26.796 v 34.111 h -26.796 z" />
  <path
     id="rect2039-6"
     style="fill:#c8ab37;stroke:#ffffff;stroke-width:2;stop-color:#000000"
     d="m 22.14618,57.534659 h 26.795999 v 34.111 H 22.14618 Z" />
  <path
     id="circle2063"
     style="stroke-width:3.6535;stop-color:#000000"
     d="m 84.314376,87.674612 a 3.6022,3.6022 0 0 1 -3.6022,3.6022 3.6022,3.6022 0 0 1 -3.6022,-3.6022 3.6022,3.6022 0 0 1 3.6022,-3.6022 3.6022,3.6022 0 0 1 3.6022,3.6022 z" />
  <path
     d="M 76.012116,95.650746 V 106.1087 H 20.238026 V 95.650746"
     stop-color="#000000"
     stroke-width="0.660631"
     id="path2215"
     style="fill:none;stroke:#000000" />
  <path
     d="m 139.4577,126.8716 v 10.45795 H 20.238026 V 126.8716"
     stop-color="#000000"
     stroke-width="0.965865"
     id="path2215-0"
     style="fill:none;stroke:#000000" />
  <path
     d="M 140.06046,95.411753 V 105.86971 H 84.286366 V 95.411753"
     stop-color="#000000"
     stroke-width="0.660631"
     id="path2215-7"
     style="fill:none;stroke:#000000" />
  <g
     aria-label="h"
     id="text5650"
     style="font-size:16.9333px;line-height:1.25;stroke-width:0.264583"
     transform="translate(-0.72670496,6.2808819)">
    <path
       d="m 53.67702,112.1787 v 5.58931 h -1.521351 v -5.5397 q 0,-1.31465 -0.512629,-1.96783 -0.51263,-0.65319 -1.537888,-0.65319 -1.231964,0 -1.94303,0.78548 -0.711066,0.78548 -0.711066,2.14146 v 5.23378 h -1.52962 v -12.86534 h 1.52962 v 5.04361 q 0.545702,-0.83509 1.281573,-1.2485 0.744139,-0.41341 1.71152,-0.41341 1.595765,0 2.414318,0.99219 0.818553,0.98392 0.818553,2.90214 z"
       id="path50736" />
  </g>
  <g
     aria-label="hl"
     id="text5650-9"
     style="font-size:16.9333px;line-height:1.25;stroke-width:0.264583"
     transform="translate(-0.72670496,6.2808819)">
    <path
       d="m 82.452689,140.33377 v 5.58931 h -1.521351 v -5.5397 q 0,-1.31465 -0.512629,-1.96784 -0.512629,-0.65319 -1.537888,-0.65319 -1.231964,0 -1.94303,0.78548 -0.711066,0.78548 -0.711066,2.14147 v 5.23378 h -1.52962 v -12.86534 h 1.52962 v 5.04361 q 0.545702,-0.83509 1.281573,-1.2485 0.744139,-0.41341 1.71152,-0.41341 1.595765,0 2.414318,0.99219 0.818553,0.98391 0.818553,2.90214 z"
       id="path50731" />
    <path
       d="m 85.487123,133.05774 h 1.521352 v 12.86534 h -1.521352 z"
       id="path50733" />
  </g>
  <g
     aria-label="l"
     id="text5650-1"
     style="font-size:16.9333px;line-height:1.25;stroke-width:0.264583"
     transform="translate(-0.72670496,6.2808819)">
    <path
       d="m 111.29212,104.12776 h 1.52135 v 12.86534 h -1.52135 z"
       id="path50728" />
  </g>
  <g
     aria-label="0"
     id="text11848"
     style="font-size:22.5778px;line-height:1.25;stroke-width:0.264583"
     transform="translate(-0.72670496,6.2808819)">
    <path
       d="m 36.119554,61.049761 q -1.719793,0 -2.590714,1.697744 -0.859897,1.686721 -0.859897,5.08221 0,3.384466 0.859897,5.08221 0.870921,1.686721 2.590714,1.686721 1.730818,0 2.590715,-1.686721 0.870921,-1.697744 0.870921,-5.08221 0,-3.395489 -0.870921,-5.08221 -0.859897,-1.697744 -2.590715,-1.697744 z m 0,-1.763891 q 2.767104,0 4.222314,2.193839 1.466234,2.182815 1.466234,6.350006 0,4.156168 -1.466234,6.350007 -1.45521,2.182815 -4.222314,2.182815 -2.767103,0 -4.233337,-2.182815 -1.45521,-2.193839 -1.45521,-6.350007 0,-4.167191 1.45521,-6.350006 1.466234,-2.193839 4.233337,-2.193839 z"
       id="path50725" />
  </g>
  <g
     aria-label="0"
     id="text11848-3"
     style="font-size:22.5778px;line-height:1.25;stroke-width:0.264583"
     transform="translate(-0.72670496,6.2808819)">
    <path
       d="m 125.58895,61.151979 q -1.7198,0 -2.59072,1.697745 -0.85989,1.68672 -0.85989,5.08221 0,3.384465 0.85989,5.08221 0.87092,1.686721 2.59072,1.686721 1.73081,0 2.59071,-1.686721 0.87092,-1.697745 0.87092,-5.08221 0,-3.39549 -0.87092,-5.08221 -0.8599,-1.697745 -2.59071,-1.697745 z m 0,-1.76389 q 2.7671,0 4.22231,2.193839 1.46623,2.182814 1.46623,6.350006 0,4.156167 -1.46623,6.350007 -1.45521,2.182814 -4.22231,2.182814 -2.76711,0 -4.23334,-2.182814 -1.45521,-2.19384 -1.45521,-6.350007 0,-4.167192 1.45521,-6.350006 1.46623,-2.193839 4.23334,-2.193839 z"
       id="path50722" />
  </g>
  <g
     aria-label="A"
     id="text11848-7"
     style="font-size:22.5778px;line-height:1.25;stroke-width:0.264583"
     transform="translate(-0.72670496,6.2808819)">
    <path
       d="m 62.750625,61.488646 -3.020662,8.191068 h 6.05235 z m -1.256772,-2.193839 h 2.524569 l 6.272836,16.459305 h -2.315106 l -1.499308,-4.222313 h -7.419365 l -1.499307,4.222313 h -2.348179 z"
       id="path50719" />
  </g>
  <g
     aria-label="8"
     id="text11848-7-2"
     style="font-size:22.5778px;line-height:1.25;stroke-width:0.264583"
     transform="translate(-0.72670496,6.2808819)">
    <path
       d="m 99.324421,67.742109 q -1.587502,0 -2.50252,0.848872 -0.903994,0.848873 -0.903994,2.337156 0,1.488282 0.903994,2.337155 0.915018,0.848872 2.50252,0.848872 1.587499,0 2.502519,-0.848872 0.91502,-0.859897 0.91502,-2.337155 0,-1.488283 -0.91502,-2.337156 -0.90399,-0.848872 -2.502519,-0.848872 z m -2.226912,-0.948091 q -1.433161,-0.352778 -2.237936,-1.333943 -0.793751,-0.981164 -0.793751,-2.392276 0,-1.973353 1.400088,-3.119882 1.411113,-1.146529 3.858511,-1.146529 2.458419,0 3.858509,1.146529 1.40009,1.146529 1.40009,3.119882 0,1.411112 -0.80478,2.392276 -0.79375,0.981165 -2.21588,1.333943 1.60955,0.374827 2.50252,1.466234 0.90399,1.091407 0.90399,2.667885 0,2.392276 -1.46623,3.671097 -1.45521,1.278821 -4.178219,1.278821 -2.723006,0 -4.189241,-1.278821 -1.455209,-1.278821 -1.455209,-3.671097 0,-1.576478 0.903994,-2.667885 0.903994,-1.091407 2.513544,-1.466234 z m -0.8158,-3.516757 q 0,1.27882 0.793751,1.995401 0.804775,0.716581 2.248961,0.716581 1.433159,0 2.237939,-0.716581 0.8158,-0.716581 0.8158,-1.995401 0,-1.278821 -0.8158,-1.995402 -0.80478,-0.71658 -2.237939,-0.71658 -1.444186,0 -2.248961,0.71658 -0.793751,0.716581 -0.793751,1.995402 z"
       id="path50716" />
  </g>
  <path
     id="rect1937-6"
     style="fill:#aad400;stroke:#ffffff;stroke-width:2;stop-color:#000000"
     d="m 249.97324,56.96657 h 26.796 v 34.111 h -26.796 z" />
  <path
     id="rect1943-0"
     style="fill:#aad400;stroke:#ffffff;stroke-width:2;stop-color:#000000"
     d="m 276.77321,56.96657 h 26.796 v 34.111 h -26.796 z" />
  <path
     id="rect2039-62"
     style="fill:#c8ab37;stroke:#ffffff;stroke-width:2;stop-color:#000000"
     d="m 213.52678,56.966578 h 26.796 v 34.111 h -26.796 z" />
  <path
     id="rect2039-6-6"
     style="fill:#c8ab37;stroke:#ffffff;stroke-width:2;stop-color:#000000"
     d="m 186.73077,56.966578 h 26.796 v 34.111 h -26.796 z" />
  <path
     id="circle2063-1"
     style="stroke-width:3.6535;stop-color:#000000"
     d="m 248.89898,87.106527 a 3.6022,3.6022 0 0 1 -3.6022,3.6022 3.6022,3.6022 0 0 1 -3.6022,-3.6022 3.6022,3.6022 0 0 1 3.6022,-3.6022 3.6022,3.6022 0 0 1 3.6022,3.6022 z" />
  <path
     d="M 240.59671,95.082659 V 105.54062 H 184.82262 V 95.082659"
     stop-color="#000000"
     stroke-width="0.660631"
     id="path2215-8"
     style="fill:none;stroke:#000000" />
  <path
     d="m 304.04229,126.30352 v 10.45795 H 184.82262 v -10.45795"
     stop-color="#000000"
     stroke-width="0.965865"
     id="path2215-0-7"
     style="fill:none;stroke:#000000" />
  <path
     d="M 304.64505,94.843669 V 105.30163 H 248.87096 V 94.843669"
     stop-color="#000000"
     stroke-width="0.660631"
     id="path2215-7-9"
     style="fill:none;stroke:#000000" />
  <g
     aria-label="h"
     id="text5650-2"
     style="font-size:16.9333px;line-height:1.25;stroke-width:0.264583"
     transform="translate(-0.72670496,6.2808819)">
    <path
       d="m 218.26161,111.61062 v 5.58931 h -1.52135 v -5.5397 q 0,-1.31465 -0.51263,-1.96784 -0.51263,-0.65319 -1.53789,-0.65319 -1.23196,0 -1.94303,0.78548 -0.71106,0.78548 -0.71106,2.14147 v 5.23378 h -1.52962 v -12.86534 h 1.52962 v 5.04361 q 0.5457,-0.83509 1.28157,-1.2485 0.74414,-0.41341 1.71152,-0.41341 1.59576,0 2.41432,0.99218 0.81855,0.98392 0.81855,2.90215 z"
       id="path50708" />
  </g>
  <g
     aria-label="hl"
     id="text5650-9-2"
     style="font-size:16.9333px;line-height:1.25;stroke-width:0.264583"
     transform="translate(-0.72670496,6.2808819)">
    <path
       d="m 247.03729,139.76568 v 5.58932 h -1.52135 v -5.53971 q 0,-1.31464 -0.51263,-1.96783 -0.51263,-0.65319 -1.53789,-0.65319 -1.23196,0 -1.94303,0.78548 -0.71106,0.78548 -0.71106,2.14147 v 5.23378 h -1.52962 v -12.86534 h 1.52962 v 5.04361 q 0.5457,-0.83509 1.28157,-1.2485 0.74414,-0.41341 1.71152,-0.41341 1.59577,0 2.41432,0.99218 0.81855,0.98392 0.81855,2.90214 z"
       id="path50703" />
    <path
       d="m 250.07173,132.48966 h 1.52135 V 145.355 h -1.52135 z"
       id="path50705" />
  </g>
  <g
     aria-label="ld l, h"
     id="text5650-9-2-1"
     style="font-size:16.9333px;line-height:1.25;stroke-width:0.264583"
     transform="translate(-0.72670496,6.2808819)">
    <path
       d="m 223.85165,168.90294 h 1.52136 v 12.86534 h -1.52136 z"
       id="path50692" />
    <path
       d="m 234.64994,173.91348 v -5.01054 h 1.52135 v 12.86534 h -1.52135 v -1.38906 q -0.47956,0.82682 -1.21543,1.23196 -0.7276,0.39688 -1.75286,0.39688 -1.67844,0 -2.73678,-1.33945 -1.05006,-1.33945 -1.05006,-3.52226 0,-2.18281 1.05006,-3.52226 1.05834,-1.33945 2.73678,-1.33945 1.02526,0 1.75286,0.40514 0.73587,0.39688 1.21543,1.2237 z m -5.18417,3.23287 q 0,1.67845 0.68626,2.63756 0.69453,0.95084 1.90169,0.95084 1.20716,0 1.90169,-0.95084 0.69453,-0.95911 0.69453,-2.63756 0,-1.67845 -0.69453,-2.62929 -0.69453,-0.95912 -1.90169,-0.95912 -1.20716,0 -1.90169,0.95912 -0.68626,0.95084 -0.68626,2.62929 z"
       id="path50694" />
    <path
       d="m 244.68755,168.90294 h 1.52135 v 12.86534 h -1.52135 z"
       id="path50696" />
    <path
       d="m 249.78077,179.66815 h 1.74459 v 1.42214 l -1.35598,2.64582 h -1.0666 l 0.67799,-2.64582 z"
       id="path50698" />
    <path
       d="m 267.85508,176.17897 v 5.58931 h -1.52135 v -5.5397 q 0,-1.31465 -0.51263,-1.96784 -0.51263,-0.65319 -1.53789,-0.65319 -1.23196,0 -1.94303,0.78548 -0.71106,0.78548 -0.71106,2.14147 v 5.23378 h -1.52962 v -12.86534 h 1.52962 v 5.04361 q 0.5457,-0.83509 1.28157,-1.2485 0.74414,-0.41341 1.71152,-0.41341 1.59577,0 2.41432,0.99219 0.81855,0.98391 0.81855,2.90214 z"
       id="path50700" />
  </g>
  <g
     aria-label="l"
     id="text5650-1-7"
     style="font-size:16.9333px;line-height:1.25;stroke-width:0.264583"
     transform="translate(-0.72670496,6.2808819)">
    <path
       d="m 275.87671,103.55969 h 1.52135 v 12.86534 h -1.52135 z"
       id="path50689" />
  </g>
  <g
     aria-label="0"
     id="text11848-9"
     style="font-size:22.5778px;line-height:1.25;stroke-width:0.264583"
     transform="translate(-0.72670496,6.2808819)">
    <path
       d="m 264.10252,59.625429 q -1.71979,0 -2.59071,1.697745 -0.8599,1.68672 -0.8599,5.08221 0,3.384465 0.8599,5.08221 0.87092,1.68672 2.59071,1.68672 1.73082,0 2.59071,-1.68672 0.87093,-1.697745 0.87093,-5.08221 0,-3.39549 -0.87093,-5.08221 -0.85989,-1.697745 -2.59071,-1.697745 z m 0,-1.763891 q 2.7671,0 4.22231,2.193839 1.46624,2.182815 1.46624,6.350007 0,4.156167 -1.46624,6.350006 -1.45521,2.182815 -4.22231,2.182815 -2.7671,0 -4.23334,-2.182815 -1.45521,-2.193839 -1.45521,-6.350006 0,-4.167192 1.45521,-6.350007 1.46624,-2.193839 4.23334,-2.193839 z"
       id="path50686" />
  </g>
  <g
     aria-label="A"
     id="text11848-7-9"
     style="font-size:22.5778px;line-height:1.25;stroke-width:0.264583"
     transform="translate(-0.72670496,6.2808819)">
    <path
       d="m 290.73359,60.06433 -3.02066,8.191067 h 6.05235 z m -1.25677,-2.193839 h 2.52457 l 6.27284,16.459305 h -2.31511 l -1.49931,-4.222313 h -7.41936 l -1.49931,4.222313 h -2.34818 z"
       id="path50683" />
  </g>
  <path
     d="m 217.63161,51.843952 c 0,0 27.84637,-37.128183 54.07826,-1.70029"
     fill="none"
     stroke="#000000"
     stroke-width="3"
     id="path39318" />
  <path
     d="m 260.76242,54.484337 18.48925,-13.5247 -2.48243,16.006933 z"
     stop-color="#000000"
     stroke-width="3"
     id="path39320" />
  <path
     d="M 373.99557,35.575301 396.90286,35.413622 385.52995,46.94798 Z"
     stop-color="#000000"
     stroke-width="3"
     id="path39320-6" />
  <path
     id="rect1937-6-9"
     style="fill:#aad400;stroke:#ffffff;stroke-width:2;stop-color:#000000"
     d="m 421.98753,56.919088 h 26.796 v 34.111001 h -26.796 z" />
  <path
     id="rect1943-0-3"
     style="fill:#aad400;stroke:#ffffff;stroke-width:2;stop-color:#000000"
     d="m 448.78749,56.919088 h 26.796 v 34.111001 h -26.796 z" />
  <path
     id="rect2039-62-1"
     style="fill:#c8ab37;stroke:#ffffff;stroke-width:2;stop-color:#000000"
     d="m 385.54106,56.919104 h 26.796 v 34.111 h -26.796 z" />
  <path
     id="rect2039-6-6-9"
     style="fill:#c8ab37;stroke:#ffffff;stroke-width:2;stop-color:#000000"
     d="m 358.74507,56.919104 h 26.796 v 34.111 h -26.796 z" />
  <path
     id="circle2063-1-4"
     style="stroke-width:3.6535;stop-color:#000000"
     d="m 420.91328,87.05905 a 3.6022,3.6022 0 0 1 -3.6022,3.6022 3.6022,3.6022 0 0 1 -3.6022,-3.6022 3.6022,3.6022 0 0 1 3.6022,-3.6022 3.6022,3.6022 0 0 1 3.6022,3.6022 z" />
  <path
     d="M 412.611,95.035181 V 105.49314 H 356.83691 V 95.035181"
     stop-color="#000000"
     stroke-width="0.660631"
     id="path2215-8-7"
     style="fill:none;stroke:#000000" />
  <path
     d="M 476.05658,126.25605 V 136.714 H 356.83691 v -10.45795"
     stop-color="#000000"
     stroke-width="0.965865"
     id="path2215-0-7-8"
     style="fill:none;stroke:#000000" />
  <path
     d="M 476.65934,94.796191 V 105.25415 H 420.88525 V 94.796191"
     stop-color="#000000"
     stroke-width="0.660631"
     id="path2215-7-9-4"
     style="fill:none;stroke:#000000" />
  <g
     aria-label="h"
     id="text5650-2-5"
     style="font-size:16.9333px;line-height:1.25;stroke-width:0.264583"
     transform="translate(-0.72670496,6.2808819)">
    <path
       d="m 390.27589,111.56314 v 5.58931 h -1.52135 v -5.5397 q 0,-1.31465 -0.51263,-1.96784 -0.51263,-0.65319 -1.53788,-0.65319 -1.23197,0 -1.94303,0.78548 -0.71107,0.78548 -0.71107,2.14147 v 5.23378 h -1.52962 v -12.86534 h 1.52962 v 5.04361 q 0.5457,-0.83509 1.28157,-1.2485 0.74414,-0.41341 1.71152,-0.41341 1.59577,0 2.41432,0.99219 0.81855,0.98391 0.81855,2.90214 z"
       id="path50675" />
  </g>
  <g
     aria-label="hl"
     id="text5650-9-2-3"
     style="font-size:16.9333px;line-height:1.25;stroke-width:0.264583"
     transform="translate(-0.72670496,6.2808819)">
    <path
       d="m 419.05159,139.71821 v 5.58932 h -1.52135 v -5.53971 q 0,-1.31464 -0.51263,-1.96783 -0.51263,-0.65319 -1.53789,-0.65319 -1.23196,0 -1.94303,0.78548 -0.71107,0.78548 -0.71107,2.14147 v 5.23378 h -1.52961 v -12.86534 h 1.52961 v 5.04361 q 0.54571,-0.83509 1.28158,-1.2485 0.74414,-0.41341 1.71152,-0.41341 1.59576,0 2.41432,0.99218 0.81855,0.98392 0.81855,2.90214 z"
       id="path50670" />
    <path
       d="m 422.08602,132.44219 h 1.52135 v 12.86534 h -1.52135 z"
       id="path50672" />
  </g>
  <g
     aria-label="ld h, 0"
     id="text5650-9-2-1-1"
     style="font-size:16.9333px;line-height:1.25;stroke-width:0.264583"
     transform="translate(-0.72670496,6.2808819)">
    <path
       d="m 395.86594,168.85547 h 1.52135 v 12.86534 h -1.52135 z"
       id="path50659" />
    <path
       d="m 406.66422,173.86601 v -5.01054 h 1.52135 v 12.86534 h -1.52135 v -1.38906 q -0.47955,0.82682 -1.21542,1.23196 -0.72761,0.39688 -1.75287,0.39688 -1.67844,0 -2.73677,-1.33945 -1.05007,-1.33945 -1.05007,-3.52226 0,-2.18281 1.05007,-3.52226 1.05833,-1.33945 2.73677,-1.33945 1.02526,0 1.75287,0.40514 0.73587,0.39688 1.21542,1.2237 z m -5.18417,3.23287 q 0,1.67845 0.68627,2.63756 0.69453,0.95084 1.90168,0.95084 1.20716,0 1.90169,-0.95084 0.69453,-0.95911 0.69453,-2.63756 0,-1.67845 -0.69453,-2.62929 -0.69453,-0.95912 -1.90169,-0.95912 -1.20715,0 -1.90168,0.95912 -0.68627,0.95084 -0.68627,2.62929 z"
       id="path50661" />
    <path
       d="m 424.39954,176.1315 v 5.58931 h -1.52135 v -5.5397 q 0,-1.31465 -0.51263,-1.96784 -0.51263,-0.65319 -1.53789,-0.65319 -1.23196,0 -1.94303,0.78548 -0.71107,0.78548 -0.71107,2.14147 v 5.23378 h -1.52961 v -12.86534 h 1.52961 v 5.04361 q 0.54571,-0.83509 1.28158,-1.2485 0.74414,-0.41341 1.71152,-0.41341 1.59576,0 2.41432,0.99219 0.81855,0.98391 0.81855,2.90214 z"
       id="path50663" />
    <path
       d="m 427.82258,179.62068 h 1.74459 v 1.42214 l -1.35598,2.64582 h -1.0666 l 0.67799,-2.64582 z"
       id="path50665" />
    <path
       d="m 441.98603,170.47604 q -1.28984,0 -1.94303,1.27331 -0.64492,1.26503 -0.64492,3.81164 0,2.53834 0.64492,3.81165 0.65319,1.26503 1.94303,1.26503 1.29811,0 1.94303,-1.26503 0.65319,-1.27331 0.65319,-3.81165 0,-2.54661 -0.65319,-3.81164 -0.64492,-1.27331 -1.94303,-1.27331 z m 0,-1.32291 q 2.07532,0 3.16672,1.64537 1.09967,1.63711 1.09967,4.76249 0,3.11712 -1.09967,4.76249 -1.0914,1.63711 -3.16672,1.63711 -2.07532,0 -3.175,-1.63711 -1.0914,-1.64537 -1.0914,-4.76249 0,-3.12538 1.0914,-4.76249 1.09968,-1.64537 3.175,-1.64537 z"
       id="path50667" />
  </g>
  <g
     aria-label="l"
     id="text5650-1-7-6"
     style="font-size:16.9333px;line-height:1.25;stroke-width:0.264583"
     transform="translate(-0.72670496,6.2808819)">
    <path
       d="m 447.89099,103.51222 h 1.52135 v 12.86534 h -1.52135 z"
       id="path50656" />
  </g>
  <g
     aria-label="0"
     id="text11848-9-2"
     style="font-size:22.5778px;line-height:1.25;stroke-width:0.264583"
     transform="translate(-0.72670496,6.2808819)">
    <path
       d="m 436.1168,59.577959 q -1.71979,0 -2.59071,1.697745 -0.8599,1.68672 -0.8599,5.08221 0,3.384465 0.8599,5.08221 0.87092,1.68672 2.59071,1.68672 1.73082,0 2.59072,-1.68672 0.87092,-1.697745 0.87092,-5.08221 0,-3.39549 -0.87092,-5.08221 -0.8599,-1.697745 -2.59072,-1.697745 z m 0,-1.763891 q 2.76711,0 4.22232,2.193839 1.46623,2.182815 1.46623,6.350007 0,4.156167 -1.46623,6.350006 -1.45521,2.182815 -4.22232,2.182815 -2.7671,0 -4.23334,-2.182815 -1.45521,-2.193839 -1.45521,-6.350006 0,-4.167192 1.45521,-6.350007 1.46624,-2.193839 4.23334,-2.193839 z"
       id="path50653" />
  </g>
  <g
     aria-label="0"
     id="text11848-9-2-4"
     style="font-size:22.5778px;line-height:1.25;stroke-width:0.264583"
     transform="translate(-0.72670496,6.2808819)">
    <path
       d="m 373.69584,44.650903 q -1.71979,0 -2.59071,1.697745 -0.8599,1.686721 -0.8599,5.08221 0,3.384466 0.8599,5.08221 0.87092,1.686721 2.59071,1.686721 1.73082,0 2.59072,-1.686721 0.87092,-1.697744 0.87092,-5.08221 0,-3.395489 -0.87092,-5.08221 -0.8599,-1.697745 -2.59072,-1.697745 z m 0,-1.76389 q 2.76711,0 4.22232,2.193839 1.46623,2.182815 1.46623,6.350006 0,4.156168 -1.46623,6.350007 -1.45521,2.182814 -4.22232,2.182814 -2.7671,0 -4.23333,-2.182814 -1.45521,-2.193839 -1.45521,-6.350007 0,-4.167191 1.45521,-6.350006 1.46623,-2.193839 4.23333,-2.193839 z"
       id="path50650" />
  </g>
  <g
     aria-label="0"
     id="text11848-9-2-6"
     style="font-size:22.5778px;line-height:1.25;stroke-width:0.264583"
     transform="translate(-0.72670496,6.2808819)">
    <path
       d="m 400.49446,44.595041 q -1.7198,0 -2.59072,1.697745 -0.85989,1.68672 -0.85989,5.08221 0,3.384465 0.85989,5.08221 0.87092,1.68672 2.59072,1.68672 1.73081,0 2.59071,-1.68672 0.87092,-1.697745 0.87092,-5.08221 0,-3.39549 -0.87092,-5.08221 -0.8599,-1.697745 -2.59071,-1.697745 z m 0,-1.763891 q 2.7671,0 4.22231,2.193839 1.46623,2.182815 1.46623,6.350007 0,4.156167 -1.46623,6.350006 -1.45521,2.182815 -4.22231,2.182815 -2.76711,0 -4.23334,-2.182815 -1.45521,-2.193839 -1.45521,-6.350006 0,-4.167192 1.45521,-6.350007 1.46623,-2.193839 4.23334,-2.193839 z"
       id="path50647" />
  </g>
  <g
     aria-label="A"
     id="text11848-7-9-6"
     style="font-size:22.5778px;line-height:1.25;stroke-width:0.264583"
     transform="translate(-0.72670496,6.2808819)">
    <path
       d="m 462.74788,60.016852 -3.02067,8.191068 h 6.05235 z m -1.25678,-2.193839 h 2.52457 l 6.27284,16.459305 h -2.31511 l -1.49931,-4.222313 h -7.41936 l -1.49931,4.222313 h -2.34818 z"
       id="path50644" />
  </g>
  <path
     style="fill:none;stroke:#000000;stroke-width:3;stroke-linecap:butt;stroke-linejoin:miter;stroke-miterlimit:4;stroke-dasharray:none;stroke-opacity:1"
     d="M 385.52995,41.127143 V 21.204628"
     id="path46540" />
</svg>
