<?xml version="1.0" encoding="UTF-8"?>
<!-- Created with Inkscape (http://www.inkscape.org/) -->
<svg width="529.44mm" height="103.17mm" version="1.1" viewBox="0 0 529.44 103.17" xmlns="http://www.w3.org/2000/svg">
 <rect width="529.44" height="103.17" fill="#e9ddaf" stop-color="#000000" stroke-width="4.6956"/>
 <g transform="translate(-2.9369 -178.35)">
  <rect x="269.55" y="198.11" width="26.796" height="34.111" fill="#aad400" stop-color="#000000" stroke="#fff" stroke-width="2"/>
  <text x="274.76257" y="225.34927" fill="#000000" font-family="sans-serif" font-size="27.314px" stroke-width=".68284" style="line-height:1.25" xml:space="preserve"><tspan x="274.76257" y="225.34927" stroke-width=".68284">d</tspan></text>
  <rect x="296.35" y="198.11" width="26.796" height="34.111" fill="#aad400" stop-color="#000000" stroke="#fff" stroke-width="2"/>
  <text x="301.55899" y="225.34927" fill="#000000" font-family="sans-serif" font-size="27.314px" stroke-width=".68284" style="line-height:1.25" xml:space="preserve"><tspan x="301.55899" y="225.34927" stroke-width=".68284">d</tspan></text>
  <rect x="323.14" y="198.11" width="26.796" height="34.111" fill="#aad400" stop-color="#000000" stroke="#fff" stroke-width="2"/>
  <text x="328.35541" y="225.34927" fill="#000000" font-family="sans-serif" font-size="27.314px" stroke-width=".68284" style="line-height:1.25" xml:space="preserve"><tspan x="328.35541" y="225.34927" stroke-width=".68284">d</tspan></text>
  <rect x="349.94" y="198.11" width="26.796" height="34.111" fill="#aad400" stop-color="#000000" stroke="#fff" stroke-width="2"/>
  <text x="355.15182" y="225.34927" fill="#000000" font-family="sans-serif" font-size="27.314px" stroke-width=".68284" style="line-height:1.25" xml:space="preserve"><tspan x="355.15182" y="225.34927" stroke-width=".68284">d</tspan></text>
  <rect x="376.74" y="198.11" width="26.796" height="34.111" fill="#aad400" stop-color="#000000" stroke="#fff" stroke-width="2"/>
  <text x="381.94809" y="225.34927" fill="#000000" font-family="sans-serif" font-size="27.314px" stroke-width=".68284" style="line-height:1.25" xml:space="preserve"><tspan x="381.94809" y="225.34927" stroke-width=".68284">d</tspan></text>
  <rect x="403.53" y="198.11" width="26.796" height="34.111" fill="#aad400" stop-color="#000000" stroke="#fff" stroke-width="2"/>
  <text x="408.74451" y="225.34927" fill="#000000" font-family="sans-serif" font-size="27.314px" stroke-width=".68284" style="line-height:1.25" xml:space="preserve"><tspan x="408.74451" y="225.34927" stroke-width=".68284">d</tspan></text>
  <rect x="430.33" y="198.11" width="26.796" height="34.111" fill="#aad400" stop-color="#000000" stroke="#fff" stroke-width="2"/>
  <text x="435.54092" y="225.34927" fill="#000000" font-family="sans-serif" font-size="27.314px" stroke-width=".68284" style="line-height:1.25" xml:space="preserve"><tspan x="435.54092" y="225.34927" stroke-width=".68284">d</tspan></text>
  <rect x="457.12" y="198.11" width="26.796" height="34.111" fill="#aad400" stop-color="#000000" stroke="#fff" stroke-width="2"/>
  <text x="462.33734" y="225.34927" fill="#000000" font-family="sans-serif" font-size="27.314px" stroke-width=".68284" style="line-height:1.25" xml:space="preserve"><tspan x="462.33734" y="225.34927" stroke-width=".68284">d</tspan></text>
 </g>
 <g transform="translate(-2.9369 -182.71)">
  <rect x="125.92" y="202.47" width="26.796" height="34.111" fill="#c8ab37" stop-color="#000000" stroke="#fff" stroke-width="2"/>
  <text x="135.5143" y="229.90849" fill="#000000" font-family="sans-serif" font-size="27.314px" stroke-width=".68284" style="line-height:1.25" xml:space="preserve"><tspan x="135.5143" y="229.90849" stroke-width=".68284">i</tspan></text>
  <rect x="99.121" y="202.47" width="26.796" height="34.111" fill="#c8ab37" stop-color="#000000" stroke="#fff" stroke-width="2"/>
  <text x="108.71788" y="229.90849" fill="#000000" font-family="sans-serif" font-size="27.314px" stroke-width=".68284" style="line-height:1.25" xml:space="preserve"><tspan x="108.71788" y="229.90849" stroke-width=".68284">i</tspan></text>
  <rect x="72.324" y="202.47" width="26.796" height="34.111" fill="#c8ab37" stop-color="#000000" stroke="#fff" stroke-width="2"/>
  <text x="81.921463" y="229.90849" fill="#000000" font-family="sans-serif" font-size="27.314px" stroke-width=".68284" style="line-height:1.25" xml:space="preserve"><tspan x="81.921463" y="229.90849" stroke-width=".68284">i</tspan></text>
  <rect x="45.528" y="202.47" width="26.796" height="34.111" fill="#c8ab37" stop-color="#000000" stroke="#fff" stroke-width="2"/>
  <text x="55.125046" y="229.90849" fill="#000000" font-family="sans-serif" font-size="27.314px" stroke-width=".68284" style="line-height:1.25" xml:space="preserve"><tspan x="55.125046" y="229.90849" stroke-width=".68284">i</tspan></text>
  <circle cx="157.68" cy="232.61" r="3.6022" stop-color="#000000" stroke-width="3.6535"/>
  <rect x="233.1" y="202.47" width="26.796" height="34.111" fill="#c8ab37" stop-color="#000000" stroke="#fff" stroke-width="2"/>
  <text x="242.69997" y="229.90849" fill="#000000" font-family="sans-serif" font-size="27.314px" stroke-width=".68284" style="line-height:1.25" xml:space="preserve"><tspan x="242.69997" y="229.90849" stroke-width=".68284">i</tspan></text>
  <rect x="206.31" y="202.47" width="26.796" height="34.111" fill="#c8ab37" stop-color="#000000" stroke="#fff" stroke-width="2"/>
  <text x="215.90356" y="229.90849" fill="#000000" font-family="sans-serif" font-size="27.314px" stroke-width=".68284" style="line-height:1.25" xml:space="preserve"><tspan x="215.90356" y="229.90849" stroke-width=".68284">i</tspan></text>
  <rect x="179.51" y="202.47" width="26.796" height="34.111" fill="#c8ab37" stop-color="#000000" stroke="#fff" stroke-width="2"/>
  <text x="189.10713" y="229.90849" fill="#000000" font-family="sans-serif" font-size="27.314px" stroke-width=".68284" style="line-height:1.25" xml:space="preserve"><tspan x="189.10713" y="229.90849" stroke-width=".68284">i</tspan></text>
  <rect x="152.71" y="202.47" width="26.796" height="34.111" fill="#c8ab37" stop-color="#000000" stroke="#fff" stroke-width="2"/>
  <text x="162.31073" y="229.90849" fill="#000000" font-family="sans-serif" font-size="27.314px" stroke-width=".68284" style="line-height:1.25" xml:space="preserve"><tspan x="162.31073" y="229.90849" stroke-width=".68284">i</tspan></text>
 </g>
 <circle cx="261.93" cy="49.903" r="3.6022" stop-color="#000000" stroke-width="3.6535"/>
 <path d="m256.88 58.113v10.018h-214v-10.018" fill="none" stop-color="#000000" stroke="#000" stroke-width="1.2665"/>
 <path d="m480.93 58.113v10.018h-214v-10.018" fill="none" stop-color="#000000" stroke="#000" stroke-width="1.2665"/>
 <g stroke-width=".26458">
  <path d="m354.04 77.692v-4.1754h1.2678v10.721h-1.2678v-1.1576q-0.39963 0.68902-1.0129 1.0266-0.60634 0.33073-1.4607 0.33073-1.3987 0-2.2806-1.1162-0.87505-1.1162-0.87505-2.9352t0.87505-2.9352q0.88194-1.1162 2.2806-1.1162 0.85438 0 1.4607 0.33762 0.61323 0.33073 1.0129 1.0198zm-4.3202 2.6941q0 1.3987 0.57189 2.198 0.57877 0.79237 1.5847 0.79237t1.5847-0.79237q0.57878-0.79926 0.57878-2.198t-0.57878-2.1911q-0.57877-0.79926-1.5847-0.79926t-1.5847 0.79926q-0.57189 0.79237-0.57189 2.1911z"/>
  <path d="m364.52 80.062v0.62012h-5.8291q0.0827 1.3091 0.78548 1.9982 0.70969 0.68213 1.9706 0.68213 0.73036 0 1.4125-0.17914 0.68902-0.17915 1.3643-0.53744v1.1989q-0.68213 0.28939-1.3987 0.44098-0.71658 0.15158-1.4538 0.15158-1.8466 0-2.9283-1.0749-1.0749-1.0749-1.0749-2.9077 0-1.8948 1.0197-3.0041 1.0266-1.1162 2.763-1.1162 1.5572 0 2.4598 1.006 0.90951 0.99908 0.90951 2.7216zm-1.2678-0.37207q-0.0138-1.0404-0.58567-1.6605-0.565-0.62012-1.5021-0.62012-1.0611 0-1.7019 0.59945-0.63389 0.59944-0.73036 1.6881z"/>
  <path d="m372.15 76.822v1.1851q-0.53743-0.29628-1.0818-0.44097-0.53744-0.15159-1.0886-0.15159-1.2334 0-1.9155 0.78548-0.68212 0.77859-0.68212 2.1911t0.68212 2.198q0.68213 0.77859 1.9155 0.77859 0.55121 0 1.0886-0.14469 0.54432-0.15159 1.0818-0.44786v1.1713q-0.53054 0.24804-1.1024 0.37207-0.56499 0.12402-1.2058 0.12402-1.7432 0-2.7698-1.0955t-1.0266-2.9559q0-1.8879 1.0335-2.9697 1.0404-1.0818 2.8456-1.0818 0.58567 0 1.1438 0.12403 0.5581 0.11713 1.0818 0.35829z"/>
  <path d="m374.36 76.522h1.2678v7.717h-1.2678zm0-3.0041h1.2678v1.6054h-1.2678z"/>
  <path d="m384.29 78.002q0.47542-0.85439 1.1369-1.2609t1.5572-0.40652q1.2058 0 1.8604 0.8475 0.65457 0.8406 0.65457 2.3978v4.6578h-1.2747v-4.6164q0-1.1093-0.39274-1.6468-0.39274-0.53744-1.1989-0.53744-0.9853 0-1.5572 0.65457-0.57188 0.65457-0.57188 1.7846v4.3615h-1.2747v-4.6164q0-1.1162-0.39274-1.6468-0.39274-0.53744-1.2127-0.53744-0.97152 0-1.5434 0.66146-0.57189 0.65457-0.57189 1.7777v4.3615h-1.2747v-7.717h1.2747v1.1989q0.43408-0.70969 1.0404-1.0473t1.44-0.33762q0.8406 0 1.4263 0.42719 0.59255 0.4272 0.87505 1.2402z"/>
  <path d="m395.53 80.362q-1.5365 0-2.1291 0.3514-0.59256 0.3514-0.59256 1.1989 0 0.67524 0.44097 1.0749 0.44787 0.39274 1.2127 0.39274 1.0542 0 1.6881-0.74414 0.64079-0.75103 0.64079-1.9913v-0.2825zm2.5287-0.52365v4.4028h-1.2678v-1.1713q-0.43408 0.7028-1.0818 1.0404-0.64768 0.33073-1.5847 0.33073-1.1851 0-1.8879-0.66146-0.69591-0.66835-0.69591-1.7846 0-1.3022 0.86816-1.9637 0.87505-0.66146 2.6045-0.66146h1.7777v-0.12402q0-0.87505-0.57878-1.3505-0.57188-0.48231-1.6123-0.48231-0.66146 0-1.2885 0.15848-0.627 0.15847-1.2058 0.47542v-1.1713q0.69591-0.26872 1.3505-0.39963 0.65457-0.13781 1.2747-0.13781 1.6743 0 2.5011 0.86817 0.82682 0.86816 0.82682 2.632z"/>
  <path d="m400.67 73.512h1.2678v10.721h-1.2678z"/>
  <g transform="translate(54.201 -151.06)" aria-label="very big integers">
   <path d="m69.677 227.57h1.2678v7.717h-1.2678zm0-3.0041h1.2678v1.6054h-1.2678z"/>
   <path d="m80.014 230.63v4.6578h-1.2678v-4.6164q0-1.0955-0.42719-1.6399-0.42719-0.54433-1.2816-0.54433-1.0266 0-1.6192 0.65457-0.59255 0.65457-0.59255 1.7846v4.3615h-1.2747v-7.717h1.2747v1.1989q0.45475-0.69591 1.068-1.0404 0.62012-0.34451 1.4263-0.34451 1.3298 0 2.0119 0.82683 0.68211 0.81993 0.68211 2.4184z"/>
   <path d="m83.794 225.38v2.1911h2.6114v0.9853h-2.6114v4.1892q0 0.94395 0.25494 1.2127 0.26183 0.26872 1.0542 0.26872h1.3022v1.0611h-1.3022q-1.4676 0-2.0257-0.54433-0.55809-0.55121-0.55809-1.9982v-4.1892h-0.93018v-0.9853h0.93018v-2.1911z"/>
   <path d="m94.674 231.11v0.62012h-5.8291q0.0827 1.3091 0.78547 1.9982 0.70969 0.68212 1.9706 0.68212 0.73036 0 1.4125-0.17914 0.689-0.17915 1.3642-0.53744v1.1989q-0.68213 0.28938-1.3987 0.44097-0.71657 0.15158-1.4538 0.15158-1.8466 0-2.9283-1.0749-1.0749-1.0749-1.0749-2.9076 0-1.8948 1.0197-3.0041 1.0266-1.1162 2.763-1.1162 1.5572 0 2.4598 1.006 0.9095 0.99908 0.9095 2.7216zm-1.2678-0.37207q-0.0138-1.0404-0.58567-1.6605-0.565-0.62012-1.5021-0.62012-1.0611 0-1.7019 0.59945-0.63389 0.59945-0.73035 1.6881z"/>
   <path d="m101.83 231.34q0-1.378-0.57188-2.136-0.565-0.75792-1.5916-0.75792-1.0197 0-1.5916 0.75792-0.56499 0.75792-0.56499 2.136 0 1.3712 0.56499 2.1291 0.57189 0.75792 1.5916 0.75792 1.0266 0 1.5916-0.75792 0.57188-0.75792 0.57188-2.1291zm1.2678 2.9903q0 1.9706-0.87506 2.9283-0.87505 0.96463-2.6803 0.96463-0.66834 0-1.2609-0.10336-0.59256-0.0965-1.1507-0.30316v-1.2334q0.5581 0.30317 1.1024 0.44786 0.54432 0.1447 1.1093 0.1447 1.2471 0 1.8672-0.65457 0.62011-0.64768 0.62011-1.9637v-0.62701q-0.39274 0.68213-1.006 1.0198-0.61322 0.33762-1.4676 0.33762-1.4194 0-2.2876-1.0818-0.86815-1.0818-0.86815-2.8663 0-1.7914 0.86815-2.8732 0.86816-1.0818 2.2876-1.0818 0.85437 0 1.4676 0.33762 0.61323 0.33762 1.006 1.0198v-1.1713h1.2678z"/>
   <path d="m112.31 231.11v0.62012h-5.8291q0.0827 1.3091 0.78548 1.9982 0.70969 0.68212 1.9706 0.68212 0.73035 0 1.4125-0.17914 0.68902-0.17915 1.3643-0.53744v1.1989q-0.68213 0.28938-1.3987 0.44097-0.71658 0.15158-1.4538 0.15158-1.8466 0-2.9283-1.0749-1.0749-1.0749-1.0749-2.9076 0-1.8948 1.0197-3.0041 1.0266-1.1162 2.763-1.1162 1.5572 0 2.4598 1.006 0.90951 0.99908 0.90951 2.7216zm-1.2678-0.37207q-0.0138-1.0404-0.58566-1.6605-0.565-0.62012-1.5021-0.62012-1.0611 0-1.7019 0.59945-0.6339 0.59945-0.73036 1.6881z"/>
   <path d="m118.86 228.75q-0.21359-0.12402-0.46853-0.17914-0.24805-0.062-0.55121-0.062-1.0749 0-1.6536 0.7028-0.57188 0.69591-0.57188 2.005v4.0652h-1.2747v-7.717h1.2747v1.1989q0.39963-0.7028 1.0404-1.0404 0.64079-0.34451 1.5572-0.34451 0.13091 0 0.28938 0.0207 0.15848 0.0138 0.3514 0.0482z"/>
  </g>
 </g>
</svg>
