<?xml version="1.0" encoding="UTF-8"?>
<!DOCTYPE svg PUBLIC "-//W3C//DTD SVG 1.1//EN" "http://www.w3.org/Graphics/SVG/1.1/DTD/svg11.dtd">
<svg version="1.1" xmlns="http://www.w3.org/2000/svg" xmlns:xlink="http://www.w3.org/1999/xlink" x="0" y="0" width="486" height="92" viewBox="0, 0, 486, 92">
  <g id="Layer_1" transform="translate(-179.833, -104.333)">
    <path d="M185.083,104.333 L457,104.333 L457,190.667 L185.083,190.667 z" fill="#FFBB50" fill-opacity="0.75"/>
    <path d="M460.667,104.333 L662.667,104.333 L662.667,190.667 L460.667,190.667 z" fill="#A3D5A1" fill-opacity="0.75"/>
    <path d="M181.333,128.833 L665.333,128.833 L665.333,195.833 L181.333,195.833 z" fill-opacity="0" stroke="#000000" stroke-width="1"/>
    <g>
      <path d="M464.333,137.833 L656.333,137.833 L656.333,184.833 L464.333,184.833 z" fill="#FFFFFF"/>
      <path d="M464.333,137.833 L656.333,137.833 L656.333,184.833 L464.333,184.833 z" fill-opacity="0" stroke="#000000" stroke-width="3"/>
    </g>
    <g>
      <path d="M469.333,141.833 L508.333,141.833 L508.333,180.833 L469.333,180.833 z" fill="#A3D5A1" fill-opacity="0.75"/>
      <path d="M469.333,141.833 L508.333,141.833 L508.333,180.833 L469.333,180.833 z" fill-opacity="0" stroke="#000000" stroke-width="1"/>
    </g>
    <g>
      <path d="M515.333,141.833 L554.333,141.833 L554.333,180.833 L515.333,180.833 z" fill="#A3D5A1" fill-opacity="0.75"/>
      <path d="M515.333,141.833 L554.333,141.833 L554.333,180.833 L515.333,180.833 z" fill-opacity="0" stroke="#000000" stroke-width="1"/>
    </g>
    <g>
      <path d="M562.333,141.833 L601.333,141.833 L601.333,180.833 L562.333,180.833 z" fill="#A3D5A1" fill-opacity="0.75"/>
      <path d="M562.333,141.833 L601.333,141.833 L601.333,180.833 L562.333,180.833 z" fill-opacity="0" stroke="#000000" stroke-width="1"/>
    </g>
    <g>
      <path d="M609.333,141.833 L648.333,141.833 L648.333,180.833 L609.333,180.833 z" fill="#A3D5A1" fill-opacity="0.75"/>
      <path d="M609.333,141.833 L648.333,141.833 L648.333,180.833 L609.333,180.833 z" fill-opacity="0" stroke="#000000" stroke-width="1"/>
    </g>
    <text transform="matrix(1, 0, 0, 1, 629.333, 161.833)">
      <tspan x="-6" y="6" font-family="monospace" font-size="20" fill="#000000">2</tspan>
    </text>
    <text transform="matrix(1, 0, 0, 1, 581.333, 160.833)">
      <tspan x="-6" y="6" font-family="monospace" font-size="20" fill="#000000">3</tspan>
    </text>
    <text transform="matrix(1, 0, 0, 1, 534.333, 160.833)">
      <tspan x="-6" y="6" font-family="monospace" font-size="20" fill="#000000">4</tspan>
    </text>
    <text transform="matrix(1, 0, 0, 1, 488.333, 161.833)">
      <tspan x="-6" y="6" font-family="monospace" font-size="20" fill="#000000">5</tspan>
    </text>
    <text transform="matrix(1, 0, 0, 1, 320.583, 116.333)">
      <tspan x="-24" y="6" font-family="monospace" font-size="20" fill="#000000">root</tspan>
    </text>
    <text transform="matrix(1, 0, 0, 1, 556, 116.333)">
      <tspan x="-24" y="6" font-family="monospace" font-size="20" fill="#000000">tail</tspan>
    </text>
    <text transform="matrix(1, 0, 0, 1, 324.083, 172.333)">
      <tspan x="-42" y="-5.5" font-family="monospace" font-size="20" fill="#000000">(empty)</tspan>
    </text>
  </g>
</svg>
