<?xml version="1.0" encoding="iso-8859-1"?>
<!-- Generator: Adobe Illustrator 19.0.0, SVG Export Plug-In . SVG Version: 6.00 Build 0)  -->
<svg version="1.1" id="Layer_1" xmlns="http://www.w3.org/2000/svg" xmlns:xlink="http://www.w3.org/1999/xlink" x="0px" y="0px"
	 viewBox="0 0 512 512" style="enable-background:new 0 0 512 512;" xml:space="preserve">
<path style="fill:#B27214;" d="M260.364,186.336c-4.84,0-8.763-3.924-8.763-8.763v-50.075c0-34.017,27.412-61.692,61.108-61.692
	c4.84,0,8.763,3.924,8.763,8.763c0,4.84-3.924,8.763-8.763,8.763c-24.031,0-43.582,19.813-43.582,44.166v50.075
	C269.127,182.412,265.204,186.336,260.364,186.336z"/>
<path style="fill:#F7B239;" d="M359.656,281.74c27.645,27.154,45.954,65.174,45.954,107.272C405.61,471.561,338.332,512,255.796,512
	c-82.549,0-149.405-40.439-149.405-122.987c0-42.343,16.907-80.562,45.51-107.751c19.489-18.531,30.391-43.968,30.391-70.864v-0.432
	c0-41.292,34.737-74.603,76.368-73.119c39.644,1.402,71.016,35.193,71.016,74.872C329.674,238.182,340.774,263.197,359.656,281.74z"
	/>
<path style="fill:#E09B2D;" d="M212.377,281.261c-11.988,27.189-19.069,65.408-19.069,107.751
	c0,82.455,27.96,122.894,62.487,122.987c-82.549,0-149.405-40.439-149.405-122.987c0-42.343,16.907-80.562,45.51-107.751
	c19.489-18.531,30.39-43.968,30.39-70.864v-0.432c0-40.404,33.265-73.166,73.692-73.166c-16.942,0.012-30.87,32.774-30.87,73.166
	v0.432C225.113,237.294,220.544,262.73,212.377,281.261z"/>
<path style="fill:#9AD14B;" d="M262.467,108.663C202.446,108.663,153.793,60.01,153.793,0c30.005,0,57.182,12.163,76.847,31.828
	C250.304,51.492,262.467,78.658,262.467,108.663z"/>
<path style="fill:#90BC42;" d="M262.467,108.663L153.793,0c30.005,0,57.182,12.163,76.847,31.828
	C250.304,51.492,262.467,78.658,262.467,108.663z"/>
<g>
</g>
<g>
</g>
<g>
</g>
<g>
</g>
<g>
</g>
<g>
</g>
<g>
</g>
<g>
</g>
<g>
</g>
<g>
</g>
<g>
</g>
<g>
</g>
<g>
</g>
<g>
</g>
<g>
</g>
</svg>
