<?xml version="1.0" encoding="UTF-8"?>
<!DOCTYPE svg PUBLIC "-//W3C//DTD SVG 1.1//EN" "http://www.w3.org/Graphics/SVG/1.1/DTD/svg11.dtd">
<svg version="1.1" xmlns="http://www.w3.org/2000/svg" xmlns:xlink="http://www.w3.org/1999/xlink" x="0" y="0" width="253" height="253" viewBox="0, 0, 253, 253">
  <g id="Layer_1">
    <g>
      <path d="M1.5,1.5 L97.5,1.5 L97.5,156.5 L252.5,156.5 L252.5,252.5 L1.5,252.5 L1.5,1.5 z" fill="#E1D19D"/>
      <g>
        <path d="M1.5,1.5 L97.5,1.5 L97.5,156.5 L252.5,156.5 L252.5,252.5 L1.5,252.5 L1.5,1.5 z" fill="#E1D19D"/>
        <path d="M1.5,1.5 L97.5,1.5 L97.5,156.5 L252.5,156.5 L252.5,252.5 L1.5,252.5 L1.5,1.5 z" fill-opacity="0" stroke="#000000" stroke-width="2"/>
      </g>
    </g>
    <g>
      <g>
        <path d="M156,158.5 L192,158.5 L192,182.5 L156,182.5 L156,158.5 z" fill="#C5BBBB"/>
        <path d="M156,158.5 L192,158.5 L192,182.5 L156,182.5 L156,158.5 z" fill-opacity="0" stroke="#000000" stroke-width="1"/>
      </g>
      <g>
        <path d="M156,158.5 L192,158.5 L192,182.5 L156,182.5 L156,158.5 z" fill="#C5BBBB"/>
        <path d="M156,158.5 L192,158.5 L192,182.5 L156,182.5 L156,158.5 z" fill-opacity="0" stroke="#000000" stroke-width="1"/>
      </g>
    </g>
    <g>
      <path d="M141.667,216.167 L206.333,216.167 L206.333,235.167 L141.667,235.167 L141.667,216.167 z" fill="#E7E7E7"/>
      <g>
        <path d="M141.667,216.167 L206.333,216.167 L206.333,235.167 L141.667,235.167 L141.667,216.167 z" fill="#E7E7E7"/>
        <path d="M141.667,216.167 L206.333,216.167 L206.333,235.167 L141.667,235.167 L141.667,216.167 z" fill-opacity="0" stroke="#000000" stroke-width="0.674"/>
      </g>
    </g>
    <g>
      <path d="M121.5,171.5 L226.5,171.5 L226.5,178.5 L121.5,178.5 L121.5,171.5 z" fill="#E7E7E7"/>
      <g>
        <path d="M121.5,171.5 L226.5,171.5 L226.5,178.5 L121.5,178.5 L121.5,171.5 z" fill="#E7E7E7"/>
        <path d="M121.5,171.5 L226.5,171.5 L226.5,178.5 L121.5,178.5 L121.5,171.5 z" fill-opacity="0" stroke="#000000" stroke-width="1"/>
      </g>
    </g>
    <path d="M166.167,171.5 C166.167,167.174 169.674,163.667 174,163.667 C178.326,163.667 181.833,167.174 181.833,171.5 z" fill-opacity="0" stroke="#000000" stroke-width="1"/>
    <g>
      <path d="M36.917,33.917 L36.917,98.583 L17.917,98.583 L17.917,33.917 L36.917,33.917 z" fill="#E7E7E7"/>
      <g>
        <path d="M36.917,33.917 L36.917,98.583 L17.917,98.583 L17.917,33.917 L36.917,33.917 z" fill="#E7E7E7"/>
        <path d="M36.917,33.917 L36.917,98.583 L17.917,98.583 L17.917,33.917 L36.917,33.917 z" fill-opacity="0" stroke="#000000" stroke-width="0.674"/>
      </g>
    </g>
    <g>
      <g>
        <path d="M93.167,45.083 L93.167,81.083 L69.167,81.083 L69.167,45.083 L93.167,45.083 z" fill="#C5BBBB"/>
        <path d="M93.167,45.083 L93.167,81.083 L69.167,81.083 L69.167,45.083 L93.167,45.083 z" fill-opacity="0" stroke="#000000" stroke-width="1"/>
      </g>
      <g>
        <path d="M93.167,45.083 L93.167,81.083 L69.167,81.083 L69.167,45.083 L93.167,45.083 z" fill="#C5BBBB"/>
        <path d="M93.167,45.083 L93.167,81.083 L69.167,81.083 L69.167,45.083 L93.167,45.083 z" fill-opacity="0" stroke="#000000" stroke-width="1"/>
      </g>
    </g>
    <g>
      <path d="M80.167,10.583 L80.167,115.583 L73.167,115.583 L73.167,10.583 L80.167,10.583 z" fill="#E7E7E7"/>
      <g>
        <path d="M80.167,10.583 L80.167,115.583 L73.167,115.583 L73.167,10.583 L80.167,10.583 z" fill="#E7E7E7"/>
        <path d="M80.167,10.583 L80.167,115.583 L73.167,115.583 L73.167,10.583 L80.167,10.583 z" fill-opacity="0" stroke="#000000" stroke-width="1"/>
      </g>
    </g>
    <path d="M80.167,55.25 C84.493,55.25 88,58.757 88,63.083 C88,67.41 84.493,70.917 80.167,70.917 z" fill-opacity="0" stroke="#000000" stroke-width="1"/>
  </g>
</svg>
