<svg xmlns="http://www.w3.org/2000/svg" width="60mm" height="60mm" viewBox="0 0 60 60"><g transform="translate(-.791 -2.665)"><path d="M.791 2.665h60l-60 60z" fill="#444031"/><path d="M26.817 8.844c-.316.001-.64.007-.969.017C7.467 11.573.697 30.719 8.102 40.514c0 0 4.09-6.396.61-6.189-1.17-2.575.233-1.887 2.664-.815 0 0-.104 2.54 2.01 3.836 0 0-1.019-.738-.102-1.859 0 0 2.68 1.746 1.978 2.901 0 0 1.193.18 1.193-.845 0 0 3.093 2.271 1.694 3.859 0 0 2.028.12 2.677-1.708 0 0 1.24 2.66 2.838 3.099 0 0-.808-1.809-.019-2.681 0 0 1.818 3.246 4.545 2.832 0 0-1.886-.95-1.578-1.522 0 0 6.623 2.027 13.754-5.125a14.06 14.06 0 003.523-5.81c.197.468.45 1.23.353 1.885.316-.778 1.803-3.817 2.408-6.424.405.679.606 1.25.606 1.25.437-1.024.189-1.988-.357-2.832.029-.5-.003-.953-.12-1.33a5.583 5.583 0 00-.029-.876 7.947 7.947 0 011.392 1.502c.228-1.502-.755-2.58-1.956-3.325-1.114-2.064-3.39-2.84-3.39-2.84-2.323-4.646-6.162-8.688-15.979-8.653zm17.425 23.528c-.191.472-.35.748-.35.748.205-.206.308-.467.35-.748z" fill="#f2f2f0"/><ellipse cx="23.84" cy="21.801" rx="2.002" ry="2.131" fill-opacity=".812"/><ellipse cx="29.42" cy="27.155" rx="1.165" ry="1.445" transform="rotate(-18.38)" fill-opacity=".783"/><path d="M33.919 25.596s.83-.523 1.728-.46c.898.064 2.578 1.35 2.578 1.35s.596-2.223.184-2.813c0 0 1.618-1.265 1.39-2.184-.228-.92-3.852-3.963-6.324-3.06-2.473.904.444 7.167.444 7.167z" fill-opacity=".74"/><path style="line-height:normal;font-variant-ligatures:normal;font-variant-position:normal;font-variant-caps:normal;font-variant-numeric:normal;font-variant-alternates:normal;font-variant-east-asian:normal;font-feature-settings:normal;font-variation-settings:normal;text-indent:0;text-align:start;text-decoration-line:none;text-decoration-style:solid;text-decoration-color:#000;text-transform:none;text-orientation:mixed;white-space:normal;shape-padding:0;shape-margin:0;inline-size:0;isolation:auto;mix-blend-mode:normal;solid-color:#000;solid-opacity:1" d="M38.225 26.485l.062.226s.778.352.47 1.936c-.307 1.583-1.943 4.35-5.465 6.726 2.26-.924 4.667-3.373 5.511-5.739.25-.31.439-.229.793-.425.94.254 2.847.251 3.312-.279 0 0-1.724.466-3.354-.615.01-1.185-1.33-1.83-1.33-1.83z" color="#000" font-weight="400" font-family="sans-serif" overflow="visible" fill="#32312e"/></g><path d="M7.273 36.953l.065.691s6.08 3.741 17.956 1.319l-2.497-2.502-4.09-.495-11.35-10.18z" fill="#444031"/><path d="M5.282 21.716l5.072-10.792 1.51 2.19.724-.355-.507-3.188 1.755 2.391.548-.728-.513-2.025 1.533.461-.99 2.974z" fill="#c2c1bc"/><path d="M14.542 10.217l.109.07 4.213-2.143 2.65-.93 3.2-.681 4.607-.218.39-.098c-.068-.007-.14-.025-.208-.032l-2.3-1.143.21 1.075c-.323.008-.635.028-.944.052l-1.014-.487-.037.593c-.3.04-.592.083-.877.13l-1.286-.975-.11 1.253c-.46.104-.87.206-1.272.31L19.67 5.736l.898 1.611a21.44 21.44 0 00-1.532.528l-.24-1.36-.482 1.654c-.284.122-.566.25-.847.384l-1.218-1.31.324 1.76c-.385.204-.766.42-1.143.648l-.563-1.019-.26 1.54c-.023.014-.043.03-.065.045z" fill="#e6e5df"/><path d="M7.355 37.774c.035-.055.236-.37.54-.92a17.05 17.05 0 001.025-2.176c.147-.394.267-.785.336-1.15.07-.364.09-.702.037-.987a1.2 1.2 0 00-.137-.386.896.896 0 00-.263-.288 1.117 1.117 0 00-.406-.17 2.07 2.07 0 00-.567-.036 6.94 6.94 0 01-.321-.818 1.837 1.837 0 01-.098-.547c.003-.14.04-.24.107-.308.068-.066.167-.098.294-.102.254-.008.62.098 1.076.273.455.175.999.419 1.606.687 0 0-.006.159.017.417s.076.616.195 1.015c.12.398.305.837.592 1.258a3.965 3.965 0 001.206 1.146s-.063-.046-.145-.133a1.328 1.328 0 01-.25-.376 1.068 1.068 0 01-.077-.587c.033-.227.142-.483.37-.764 0 0 .67.437 1.252 1.018.291.29.561.617.714.943.076.163.123.326.13.484a.801.801 0 01-.117.457s.298.044.596-.039a.832.832 0 00.41-.242c.111-.127.186-.308.186-.564 0 0 .194.142.462.38.268.237.61.57.91.954.15.192.288.396.401.606.113.21.2.427.247.646.046.218.053.437.003.65a1.41 1.41 0 01-.328.622s.126.008.326-.009.475-.06.769-.158c.294-.1.608-.256.89-.502a2.33 2.33 0 00.39-.44c.118-.171.22-.37.302-.598 0 0 .31.665.82 1.385.254.36.56.733.9 1.044.17.156.35.296.537.41.187.115.381.204.581.26 0 0-.202-.452-.305-1.014a2.986 2.986 0 01-.044-.88 1.65 1.65 0 01.104-.422c.053-.133.127-.257.226-.366a7.665 7.665 0 001.25 1.571c.198.19.419.378.658.548.24.17.5.323.776.446.277.123.571.216.882.265.31.05.638.054.978.003 0 0-.471-.237-.904-.546a2.802 2.802 0 01-.557-.497.73.73 0 01-.137-.25.3.3 0 01.02-.229s.415.127 1.147.205c.366.04.811.067 1.325.06a12.681 12.681 0 001.732-.145c.636-.097 1.328-.25 2.064-.48a15.5 15.5 0 002.329-.947 18.01 18.01 0 002.519-1.544c.432-.314.868-.66 1.309-1.037.44-.379.884-.79 1.33-1.237.454-.456.863-.923 1.23-1.399a14.016 14.016 0 001.738-2.924c.217-.495.4-.99.554-1.485 0 .002-1.49 3.46-3.613 4.781-4.856 3.021-7.577 2.275-7.577 2.275-1.776 1.685-3.045 1.678-2.818 1.456.906-.884-.247-1.116-.736-1.111-2.266.02-4.14-.318-6.473-.905-.288-.072-.99.117-.782 1.524-2.072-.854-1.736-2.671-2.144-2.782-9.143-2.473-5.96-15.56-8.214-8.515C7.958 15.002 22.006 7.083 22.006 7.083S5.608 11.077 4.445 27.3c.001 4.411 2.382 9.545 2.784 10.38.039.032.086.062.126.094z" fill="#c2c1bc"/></svg>