<?xml version="1.0" encoding="UTF-8"?>
<svg width="51.082mm" height="43.588mm" version="1.1" viewBox="0 0 51.082 43.588" xmlns="http://www.w3.org/2000/svg">
 <rect width="51.082" height="43.588" fill="#298989"/>
 <g transform="rotate(15.011 28.502 21.01)">
  <path d="m26.026 6.179c-0.316 1e-3 -0.64 7e-3 -0.969 0.017-18.381 2.712-25.151 21.858-17.746 31.653 0 0 4.09-6.396 0.61-6.189-1.17-2.575 0.233-1.887 2.664-0.815 0 0-0.104 2.54 2.01 3.836 0 0-1.019-0.738-0.102-1.859 0 0 2.68 1.746 1.978 2.901 0 0 1.193 0.18 1.193-0.845 0 0 3.093 2.271 1.694 3.859 0 0 2.028 0.12 2.677-1.708 0 0 1.24 2.66 2.838 3.099 0 0-0.808-1.809-0.019-2.681 0 0 1.818 3.246 4.545 2.832 0 0-1.886-0.95-1.578-1.522 0 0 6.623 2.027 13.754-5.125a14.06 14.06 0 0 0 3.523-5.81c0.197 0.468 0.45 1.23 0.353 1.885 0.316-0.778 1.803-3.817 2.408-6.424 0.405 0.679 0.606 1.25 0.606 1.25 0.437-1.024 0.189-1.988-0.357-2.832 0.029-0.5-3e-3 -0.953-0.12-1.33a5.583 5.583 0 0 0-0.029-0.876 7.947 7.947 0 0 1 1.392 1.502c0.228-1.502-0.755-2.58-1.956-3.325-1.114-2.064-3.39-2.84-3.39-2.84-2.323-4.646-6.162-8.688-15.979-8.653zm17.425 23.528c-0.191 0.472-0.35 0.748-0.35 0.748 0.205-0.206 0.308-0.467 0.35-0.748z" fill="#f2f2f0"/>
  <ellipse cx="23.049" cy="19.136" rx="2.002" ry="2.131" fill-opacity=".812"/>
  <ellipse transform="rotate(-18.38)" cx="29.51" cy="24.377" rx="1.165" ry="1.445" fill-opacity=".783"/>
  <path d="m33.128 22.931s0.83-0.523 1.728-0.46c0.898 0.064 2.578 1.35 2.578 1.35s0.596-2.223 0.184-2.813c0 0 1.618-1.265 1.39-2.184-0.228-0.92-3.852-3.963-6.324-3.06-2.473 0.904 0.444 7.167 0.444 7.167z" fill-opacity=".74"/>
  <path d="m37.434 23.82 0.062 0.226s0.778 0.352 0.47 1.936c-0.307 1.583-1.943 4.35-5.465 6.726 2.26-0.924 4.667-3.373 5.511-5.739 0.25-0.31 0.439-0.229 0.793-0.425 0.94 0.254 2.847 0.251 3.312-0.279 0 0-1.724 0.466-3.354-0.615 0.01-1.185-1.33-1.83-1.33-1.83z" color="#000000" fill="#32312e" font-family="sans-serif" font-weight="400" overflow="visible" solid-color="#000000" style="font-feature-settings:normal;font-variant-alternates:normal;font-variant-caps:normal;font-variant-east-asian:normal;font-variant-ligatures:normal;font-variant-numeric:normal;font-variant-position:normal;font-variation-settings:normal;inline-size:0;isolation:auto;mix-blend-mode:normal;shape-margin:0;shape-padding:0;text-decoration-color:#000000;text-decoration-line:none;text-decoration-style:solid;text-indent:0;text-orientation:mixed;text-transform:none;white-space:normal"/>
  <path d="m7.273 36.953 0.065 0.691s6.08 3.741 17.956 1.319l-2.497-2.502-4.09-0.495-11.35-10.18z" fill="#444031"/>
  <path d="m5.282 21.716 5.072-10.792 1.51 2.19 0.724-0.355-0.507-3.188 1.755 2.391 0.548-0.728-0.513-2.025 1.533 0.461-0.99 2.974z" fill="#c2c1bc"/>
  <path d="m14.542 10.217 0.109 0.07 4.213-2.143 2.65-0.93 3.2-0.681 4.607-0.218 0.39-0.098c-0.068-7e-3 -0.14-0.025-0.208-0.032l-2.3-1.143 0.21 1.075c-0.323 8e-3 -0.635 0.028-0.944 0.052l-1.014-0.487-0.037 0.593c-0.3 0.04-0.592 0.083-0.877 0.13l-1.286-0.975-0.11 1.253c-0.46 0.104-0.87 0.206-1.272 0.31l-2.203-1.257 0.898 1.611a21.44 21.44 0 0 0-1.532 0.528l-0.24-1.36-0.482 1.654c-0.284 0.122-0.566 0.25-0.847 0.384l-1.218-1.31 0.324 1.76c-0.385 0.204-0.766 0.42-1.143 0.648l-0.563-1.019-0.26 1.54c-0.023 0.014-0.043 0.03-0.065 0.045z" fill="#e6e5df"/>
  <path d="m7.355 37.774c0.035-0.055 0.236-0.37 0.54-0.92a17.05 17.05 0 0 0 1.025-2.176c0.147-0.394 0.267-0.785 0.336-1.15 0.07-0.364 0.09-0.702 0.037-0.987a1.2 1.2 0 0 0-0.137-0.386 0.896 0.896 0 0 0-0.263-0.288 1.117 1.117 0 0 0-0.406-0.17 2.07 2.07 0 0 0-0.567-0.036 6.94 6.94 0 0 1-0.321-0.818 1.837 1.837 0 0 1-0.098-0.547c3e-3 -0.14 0.04-0.24 0.107-0.308 0.068-0.066 0.167-0.098 0.294-0.102 0.254-8e-3 0.62 0.098 1.076 0.273 0.455 0.175 0.999 0.419 1.606 0.687 0 0-6e-3 0.159 0.017 0.417s0.076 0.616 0.195 1.015c0.12 0.398 0.305 0.837 0.592 1.258a3.965 3.965 0 0 0 1.206 1.146s-0.063-0.046-0.145-0.133a1.328 1.328 0 0 1-0.25-0.376 1.068 1.068 0 0 1-0.077-0.587c0.033-0.227 0.142-0.483 0.37-0.764 0 0 0.67 0.437 1.252 1.018 0.291 0.29 0.561 0.617 0.714 0.943 0.076 0.163 0.123 0.326 0.13 0.484a0.801 0.801 0 0 1-0.117 0.457s0.298 0.044 0.596-0.039a0.832 0.832 0 0 0 0.41-0.242c0.111-0.127 0.186-0.308 0.186-0.564 0 0 0.194 0.142 0.462 0.38 0.268 0.237 0.61 0.57 0.91 0.954 0.15 0.192 0.288 0.396 0.401 0.606s0.2 0.427 0.247 0.646c0.046 0.218 0.053 0.437 3e-3 0.65a1.41 1.41 0 0 1-0.328 0.622s0.126 8e-3 0.326-9e-3 0.475-0.06 0.769-0.158c0.294-0.1 0.608-0.256 0.89-0.502a2.33 2.33 0 0 0 0.39-0.44c0.118-0.171 0.22-0.37 0.302-0.598 0 0 0.31 0.665 0.82 1.385 0.254 0.36 0.56 0.733 0.9 1.044 0.17 0.156 0.35 0.296 0.537 0.41 0.187 0.115 0.381 0.204 0.581 0.26 0 0-0.202-0.452-0.305-1.014a2.986 2.986 0 0 1-0.044-0.88 1.65 1.65 0 0 1 0.104-0.422c0.053-0.133 0.127-0.257 0.226-0.366a7.665 7.665 0 0 0 1.25 1.571c0.198 0.19 0.419 0.378 0.658 0.548 0.24 0.17 0.5 0.323 0.776 0.446 0.277 0.123 0.571 0.216 0.882 0.265 0.31 0.05 0.638 0.054 0.978 3e-3 0 0-0.471-0.237-0.904-0.546a2.802 2.802 0 0 1-0.557-0.497 0.73 0.73 0 0 1-0.137-0.25 0.3 0.3 0 0 1 0.02-0.229s0.415 0.127 1.147 0.205c0.366 0.04 0.811 0.067 1.325 0.06a12.681 12.681 0 0 0 1.732-0.145c0.636-0.097 1.328-0.25 2.064-0.48a15.5 15.5 0 0 0 2.329-0.947 18.01 18.01 0 0 0 2.519-1.544c0.432-0.314 0.868-0.66 1.309-1.037 0.44-0.379 0.884-0.79 1.33-1.237 0.454-0.456 0.863-0.923 1.23-1.399a14.016 14.016 0 0 0 1.738-2.924c0.217-0.495 0.4-0.99 0.554-1.485 0 2e-3 -1.49 3.46-3.613 4.781-4.856 3.021-7.577 2.275-7.577 2.275-1.776 1.685-3.045 1.678-2.818 1.456 0.906-0.884-0.247-1.116-0.736-1.111-2.266 0.02-4.14-0.318-6.473-0.905-0.288-0.072-0.99 0.117-0.782 1.524-2.072-0.854-1.736-2.671-2.144-2.782-9.143-2.473-5.96-15.56-8.214-8.515-2.782-9.546 11.266-17.465 11.266-17.465s-16.398 3.994-17.561 20.217c1e-3 4.411 2.382 9.545 2.784 10.38 0.039 0.032 0.086 0.062 0.126 0.094z" fill="#c2c1bc"/>
 </g>
</svg>
