<?xml version="1.0" encoding="UTF-8" standalone="no"?>
<svg
   xmlns:dc="http://purl.org/dc/elements/1.1/"
   xmlns:cc="http://creativecommons.org/ns#"
   xmlns:rdf="http://www.w3.org/1999/02/22-rdf-syntax-ns#"
   xmlns:svg="http://www.w3.org/2000/svg"
   xmlns="http://www.w3.org/2000/svg"
   xmlns:sodipodi="http://sodipodi.sourceforge.net/DTD/sodipodi-0.dtd"
   xmlns:inkscape="http://www.inkscape.org/namespaces/inkscape"
   width="82mm"
   height="82mm"
   viewBox="0 0 82 82"
   version="1.1"
   id="svg2823"
   inkscape:version="1.0.1 (1.0.1+r74)"
   sodipodi:docname="favicon_src.svg"
   inkscape:export-filename="/home/matt/dev/mattgreer.org/illustrations/favicon_src.png"
   inkscape:export-xdpi="92.93"
   inkscape:export-ydpi="92.93">
  <defs
     id="defs2817">
    <clipPath
       clipPathUnits="userSpaceOnUse"
       id="clipPath3425">
      <rect
         style="fill:#e76f51;fill-opacity:1;stroke-width:3"
         id="rect3427"
         width="82.13974"
         height="72.784035"
         x="68.303276"
         y="101.63878" />
    </clipPath>
    <clipPath
       clipPathUnits="userSpaceOnUse"
       id="clipPath3429">
      <rect
         style="fill:#e76f51;fill-opacity:1;stroke-width:3"
         id="rect3431"
         width="82.13974"
         height="72.784035"
         x="68.303276"
         y="101.63878" />
    </clipPath>
    <clipPath
       clipPathUnits="userSpaceOnUse"
       id="clipPath3433">
      <rect
         style="fill:#e76f51;fill-opacity:1;stroke-width:3"
         id="rect3435"
         width="82.13974"
         height="72.784035"
         x="68.303276"
         y="101.63878" />
    </clipPath>
    <clipPath
       clipPathUnits="userSpaceOnUse"
       id="clipPath3437">
      <rect
         style="fill:#e76f51;fill-opacity:1;stroke-width:3"
         id="rect3439"
         width="82.13974"
         height="72.784035"
         x="68.303276"
         y="101.63878" />
    </clipPath>
  </defs>
  <sodipodi:namedview
     id="base"
     pagecolor="#ffffff"
     bordercolor="#666666"
     borderopacity="1.0"
     inkscape:pageopacity="0.0"
     inkscape:pageshadow="2"
     inkscape:zoom="0.98994949"
     inkscape:cx="239.16993"
     inkscape:cy="332.51602"
     inkscape:document-units="mm"
     inkscape:current-layer="layer1"
     inkscape:document-rotation="0"
     showgrid="false"
     fit-margin-top="0"
     fit-margin-left="0"
     fit-margin-right="0"
     fit-margin-bottom="0"
     inkscape:window-width="1260"
     inkscape:window-height="1032"
     inkscape:window-x="1280"
     inkscape:window-y="28"
     inkscape:window-maximized="1" />
  <metadata
     id="metadata2820">
    <rdf:RDF>
      <cc:Work
         rdf:about="">
        <dc:format>image/svg+xml</dc:format>
        <dc:type
           rdf:resource="http://purl.org/dc/dcmitype/StillImage" />
        <dc:title></dc:title>
      </cc:Work>
    </rdf:RDF>
  </metadata>
  <g
     inkscape:label="Layer 1"
     inkscape:groupmode="layer"
     id="layer1"
     transform="translate(-68.303276,-104.01856)">
    <path
       style="fill:#e76f51;fill-opacity:1"
       d="m 93.1021,128.34626 c -7.696748,-0.75413 -20.909774,0.1731 -22.595483,14.97238 -1.745545,15.32448 24.457835,18.03917 24.457835,18.03917 l 1.300106,-8.76283 c -3.945746,-0.57706 -16.040039,0.48766 -15.018955,-8.47661 1.215313,-10.66948 9.906548,-7.44593 15.421973,-6.71716 0.850247,0.11289 0.868926,-3.12577 1.392446,-3.02184 l 0.558013,-5.0964 c 0,0 -1.606677,-0.43825 -4.054855,-0.76669 -0.459047,-0.0614 -0.947919,-0.11951 -1.460891,-0.17105 z"
       id="path5674-3"
       inkscape:connector-curvature="0"
       sodipodi:nodetypes="ccccscccccc" />
    <path
       style="opacity:1;fill:#e76f51;fill-opacity:1;"
       d="m 117.19455,113.04116 c -16.65696,3e-5 -30.160116,4.00571 -30.160317,8.94703 5.75e-4,0.007 0.0011,0.0137 0.0018,0.0205 -0.01323,15.75149 1.864633,31.5062 1.843434,47.25586 2.01e-4,4.94129 11.658123,8.94698 28.315083,8.947 16.65711,2e-5 27.7941,-4.01075 28.01786,-8.947 l 2.14286,-47.2754 c -2.3e-4,-4.94134 -13.50361,-8.94705 -30.16072,-8.947 z"
       id="path5580-9"
       inkscape:connector-curvature="0"
       sodipodi:nodetypes="cccccsccc" />
    <path
       style="opacity:1;fill:#af3618;fill-opacity:1;stroke:none;stroke-width:0.188841;stroke-miterlimit:4;stroke-dasharray:none;stroke-opacity:1"
       d="m 142.48013,121.24216 a 25.057245,5.5329469 0 0 1 -25.05727,5.53294 25.057245,5.5329469 0 0 1 -25.057248,-5.53294 25.057245,5.5329469 0 0 1 25.057248,-5.53295 25.057245,5.5329469 0 0 1 25.05727,5.53295 z"
       id="path5578-0"
       inkscape:connector-curvature="0" />
    <path
       style="opacity:1;fill:none;fill-opacity:1;stroke:#120000;stroke-width:0.456135;stroke-miterlimit:4;stroke-dasharray:none;stroke-opacity:1"
       d="m 142.48013,121.24216 c -3e-5,3.05576 -11.21854,5.53294 -25.05727,5.53294 -13.83872,0 -25.057236,-2.47718 -25.057248,-5.53294"
       id="path5578-1-8"
       inkscape:connector-curvature="0"
       sodipodi:nodetypes="csc" />
    <path
       style="opacity:1;fill:#1e0905;fill-opacity:1;stroke:none;stroke-width:0.188841;stroke-miterlimit:4;stroke-dasharray:none;stroke-opacity:1"
       d="m 117.37737,119.35088 a 25.057245,5.5329469 0 0 0 -23.648055,3.72193 25.057245,5.5329469 0 0 0 23.648055,3.72311 25.057245,5.5329469 0 0 0 23.64805,-3.72193 25.057245,5.5329469 0 0 0 -23.64805,-3.72311 z"
       id="path5578-19"
       inkscape:connector-curvature="0" />
  </g>
</svg>
