<svg xmlns="http://www.w3.org/2000/svg" width="82mm" height="82mm" viewBox="0 0 82 82"><path d="M24.799 24.328c-7.697-.754-20.91.173-22.596 14.972C.458 54.625 26.661 57.34 26.661 57.34l1.3-8.764c-3.945-.577-16.04.488-15.019-8.476 1.216-10.67 9.907-7.446 15.422-6.717.85.113.87-3.126 1.393-3.022l.558-5.097s-1.607-.438-4.055-.766c-.46-.062-.948-.12-1.461-.171z" fill="#e76f51"/><path d="M48.891 9.023c-16.657 0-30.16 4.005-30.16 8.947l.002.02c-.013 15.752 1.864 31.506 1.843 47.256 0 4.941 11.658 8.947 28.315 8.947 16.657 0 27.794-4.01 28.018-8.947l2.143-47.275c0-4.942-13.504-8.947-30.16-8.947z" fill="#e76f51"/><path d="M74.177 17.224a25.057 5.533 0 01-25.057 5.533 25.057 5.533 0 01-25.058-5.533A25.057 5.533 0 0149.12 11.69a25.057 5.533 0 0125.057 5.533z" fill="#af3618"/><path d="M74.177 17.224c0 3.055-11.219 5.533-25.057 5.533-13.84 0-25.058-2.478-25.058-5.533" fill="none" stroke="#120000" stroke-width=".456"/><path d="M49.074 15.332a25.057 5.533 0 00-23.648 3.722 25.057 5.533 0 0023.648 3.723 25.057 5.533 0 0023.648-3.722 25.057 5.533 0 00-23.648-3.723z" fill="#1e0905"/></svg>