<svg xmlns="http://www.w3.org/2000/svg" xmlns:xlink="http://www.w3.org/1999/xlink" width="721.905" height="466.787" viewBox="0 0 191.004 123.504"><defs><linearGradient id="a"><stop offset="0" stop-color="#ade2ec" stop-opacity=".479"/><stop offset=".297" stop-color="#f5f5f5" stop-opacity=".841"/><stop offset="1" stop-color="#fff" stop-opacity="0"/></linearGradient><linearGradient xlink:href="#a" id="d" x1="45.353" y1="76.584" x2="175.732" y2="3.89" gradientUnits="userSpaceOnUse"/><linearGradient gradientTransform="translate(-24.816 -133.558)" xlink:href="#b" id="c" x1="43.682" y1="301.628" x2="44.677" y2="146.097" gradientUnits="userSpaceOnUse"/><linearGradient id="b"><stop offset="0" stop-color="#e3e3e3"/><stop offset="1" stop-color="#e3e3e3" stop-opacity="0"/></linearGradient></defs><path d="M20.203 81.537c-3.375-.33-9.169.076-9.908 6.565-.765 6.72 10.724 7.91 10.724 7.91l.27-2.288c-1.73-.253-8.121-1.455-7.674-5.386.533-4.678 5.436-4.624 7.855-4.304.372.05.677.103.906.149l.245-2.235s-.704-.192-1.778-.336a19.736 19.736 0 00-.64-.075z" fill="#e76f51" stroke="#000" stroke-width=".198"/><path d="M30.766 74.827c-7.303 0-13.224 1.756-13.224 3.923v.009c-.005 6.906.818 13.814.809 20.72 0 2.166 5.112 3.923 12.415 3.923 7.304 0 12.187-1.759 12.285-3.923l.94-20.729c0-2.167-5.921-3.923-13.225-3.923z" fill="#e76f51" stroke="#100701" stroke-width=".158" stroke-opacity=".995"/><path d="M41.853 78.423a10.987 2.426 0 01-10.987 2.426 10.987 2.426 0 01-10.986-2.426 10.987 2.426 0 0110.986-2.427 10.987 2.426 0 0110.987 2.427z" fill="#af3618"/><path d="M41.853 78.423c0 1.34-4.919 2.426-10.987 2.426-6.067 0-10.986-1.087-10.986-2.426" fill="none" stroke="#120000" stroke-width=".2"/><path d="M22.923 46.518c4.234-11.113 19.05-12.12 9.922-25.4-10.081-14.667-3.953-19.77-3.953-19.77L6.374 1.143C.685 7.756 5.05 16.222 9.019 20.985c3.97 4.763.926 17.595-6.614 28.708-7.54 11.112 7.408 19.711 7.408 19.711 0 1.34 4.92 2.426 10.987 2.426 6.068 0 10.987-1.086 10.987-2.426 0 0-13.097-11.774-8.864-22.886z" fill="url(#c)" transform="translate(10.066 9.018)"/><path d="M30.846 77.593a10.987 2.426 0 00-10.368 1.632 10.987 2.426 0 0010.368 1.633 10.987 2.426 0 0010.37-1.632 10.987 2.426 0 00-10.37-1.633z" fill="#1e0905"/><g transform="translate(17.802 -131.265)" stroke="#000"><rect width="113.171" height="80.029" x="29.892" y="150.852" ry="1.407" fill="#393939" stroke-width=".283"/><path d="M12.148 243.635l2.94.796c47.611-.159 95.172.158 142.782 0l2.935-.816" fill="#0b0b0b" stroke-width=".265"/><path d="M10.052 240.291l152.85.06-.023 2.667s-.752.618-1.576.618H11.64c-.824 0-1.584-.96-1.584-.96z" fill="#555" stroke-width=".28"/><path d="M30.083 224.467S15.549 235.82 10.318 239.92c-.835.687.443 1.524 1.223 1.524 54.006.033 104.112-.006 149.873 0 .779 0 2.057-.837 1.222-1.524-5.23-4.1-19.764-15.453-19.764-15.453z" fill="#393939" stroke-width=".265"/></g><g transform="translate(10.066 9.018)"><path d="M43.507 85.398l-8.788 8.126h118.986l-8.787-8.126H88.127z" fill="#2a2a2a"/><path d="M153.706 93.524l-8.788-8.126H43.507l-8.788 8.126" fill="none" stroke="#cbcbcb" stroke-width=".5" stroke-opacity=".239"/><ellipse cx="94.212" cy="90.875" rx="1.284" ry=".627" fill="#e35858"/><ellipse cx="148.953" cy="85.721" rx="1.702" ry=".627" fill="#2a2a2a"/><ellipse cx="148.953" cy="85.721" rx=".357" ry=".176" fill="#a8ed94"/></g><path d="M89.226 102.985l-2.61 5.61h35.326l-2.61-5.61h-16.859z" fill="#575757" stroke="#000" stroke-width=".12"/><path d="M88.916 103.927h13.263m4.199 0h13.264" fill="#e35858" stroke="#e35858" stroke-width=".265"/><path fill="#fdf4db" stroke="#000" stroke-width=".267" d="M50.925 26.06h106.706v63.12H50.925z"/><path fill="#356ae3" d="M57.502 29.668h5.558v2.021h-5.558zm11.506 0h4.154v2.021h-4.154z"/><path fill="#6e6e6e" d="M63.702 29.668h4.604v2.021h-4.604z"/><path fill="#348f7a" d="M73.808 29.668h6.12v2.021h-6.12z"/><path fill="#356ae3" d="M57.502 32.278h5.558v2.021h-5.558zm18.386 0h4.154v2.021h-4.154z"/><path fill="#6e6e6e" d="M63.702 32.278h11.51v2.021h-11.51z"/><path fill="#348f7a" d="M80.686 32.278H91.97v2.021H80.686z"/><path fill="#356ae3" d="M57.502 34.888h5.558v2.021h-5.558zm16.365 0h4.154v2.021h-4.154z"/><path fill="#6e6e6e" d="M63.702 34.888h9.544v2.021h-9.544z"/><path fill="#348f7a" d="M78.653 34.888h16.112v2.021H78.653z"/><path fill="#356ae3" d="M57.502 37.498h5.558v2.021h-5.558zm14.116 0h4.154v2.021h-4.154z"/><path fill="#6e6e6e" d="M63.702 37.498h7.242v2.021h-7.242z"/><path fill="#348f7a" d="M76.49 37.498h15.27v2.021H76.49z"/><path fill="#356ae3" d="M57.502 54.82h7.523v2.02h-7.523z"/><path fill="#6e6e6e" d="M65.661 54.82h11.565v2.02H65.661z"/><path fill="#948d93" d="M77.862 54.82h3.818v2.02h-3.818zm4.453 0h6.905v2.02h-6.905zm7.542 0h4.997v2.02h-4.997z"/><path fill="#356ae3" d="M59.071 62.37h5.895v2.021h-5.895zm1.483 2.602h5.895v2.021h-5.895zm1.611 2.603h4.547v2.02h-4.547z"/><path fill="#348f7a" d="M67.354 67.575h9.712v2.02h-9.712z"/><path fill="#356ae3" d="M62.11 70.178h4.594v2.02H62.11z"/><path fill="#348f7a" d="M67.354 70.178h9.712v2.02h-9.712z"/><path fill="#356ae3" d="M62.162 72.78h8.253v2.02h-8.253z"/><path fill="#6e6e6e" d="M75.793 75.382h13.698v2.021H75.793z"/><path fill="#356ae3" d="M63.668 75.382H75.29v2.021H63.67zm-.015 4.321h3.818v2.021h-3.818zm4.417 0h7.915v2.021H68.07z"/><path fill="#348f7a" d="M76.583 79.703h8.982v2.021h-8.982zm9.58 0h4.772v2.021h-4.772zm5.37 0h4.772v2.021h-4.772zm5.37 0h8.982v2.021h-8.982z"/><path fill="#6e6e6e" d="M65.265 82.302h4.772v2.021h-4.772z"/><path fill="#948d93" d="M70.71 82.302h3.818v2.021H70.71z"/><path fill="#6e6e6e" d="M75.201 82.302h11.172v2.021H75.201z"/><path fill="#356ae3" d="M66.886 84.902h6.456v2.021h-6.456zm7.13 0h3.818v2.021h-3.818z"/><path fill="#b83aae" d="M78.507 84.902h5.67v2.021h-5.67z"/><path fill="#356ae3" d="M59.015 57.386h4.997v2.02h-4.997z"/><path fill="#6e6e6e" d="M64.63 57.386h11.732v2.02H64.63z"/><path fill="#356ae3" d="M76.98 57.386h4.48v2.02h-4.48zm5.098 0h5.851v2.02h-5.85zm6.469 0h8.45v2.02h-8.45z"/><path fill="url(#d)" stroke="#000" stroke-width=".267" d="M40.859 17.041h106.706v63.122H40.859z" transform="translate(10.066 9.018)"/></svg>