<svg xmlns="http://www.w3.org/2000/svg" xmlns:xlink="http://www.w3.org/1999/xlink" width="721.905" height="466.787" viewBox="0 0 191.004 123.504"><defs><linearGradient id="a"><stop offset="0" stop-color="#ade2ec" stop-opacity=".479"/><stop offset=".297" stop-color="#f5f5f5" stop-opacity=".841"/><stop offset="1" stop-color="#fff" stop-opacity="0"/></linearGradient><linearGradient xlink:href="#a" id="d" x1="45.353" y1="76.584" x2="175.732" y2="3.89" gradientUnits="userSpaceOnUse"/><linearGradient gradientTransform="translate(-24.816 -133.558)" xlink:href="#b" id="c" x1="43.682" y1="301.628" x2="44.677" y2="146.097" gradientUnits="userSpaceOnUse"/><linearGradient id="b"><stop offset="0" stop-color="#e3e3e3"/><stop offset="1" stop-color="#e3e3e3" stop-opacity="0"/></linearGradient></defs><path d="M20.203 81.537c-3.375-.33-9.169.076-9.908 6.565-.765 6.72 10.724 7.91 10.724 7.91l.27-2.288c-1.73-.253-8.121-1.455-7.674-5.386.533-4.678 5.436-4.624 7.855-4.304.372.05.677.103.906.149l.245-2.235s-.704-.192-1.778-.336a19.736 19.736 0 00-.64-.075z" fill="#5ac059" stroke="#000" stroke-width=".198"/><path d="M30.766 74.827c-7.303 0-13.224 1.756-13.224 3.923v.009c-.005 6.906.818 13.814.809 20.72 0 2.166 5.112 3.923 12.415 3.923 7.304 0 12.187-1.759 12.285-3.923l.94-20.729c0-2.167-5.921-3.923-13.225-3.923z" fill="#5ac059" stroke="#100701" stroke-width=".158" stroke-opacity=".995"/><path d="M41.853 78.423a10.987 2.426 0 01-10.987 2.426 10.987 2.426 0 01-10.986-2.426 10.987 2.426 0 0110.986-2.427 10.987 2.426 0 0110.987 2.427z" fill="#1d5e0d"/><path d="M41.853 78.423c0 1.34-4.919 2.426-10.987 2.426-6.067 0-10.986-1.087-10.986-2.426" fill="none" stroke="#120000" stroke-width=".2"/><path d="M22.923 46.518c4.234-11.113 19.05-12.12 9.922-25.4-10.081-14.667-3.953-19.77-3.953-19.77L6.374 1.143C.685 7.756 5.05 16.222 9.019 20.985c3.97 4.763.926 17.595-6.614 28.708-7.54 11.112 7.408 19.711 7.408 19.711 0 1.34 4.92 2.426 10.987 2.426 6.068 0 10.987-1.086 10.987-2.426 0 0-13.097-11.774-8.864-22.886z" fill="url(#c)" transform="translate(10.066 9.018)"/><path d="M30.846 77.593a10.987 2.426 0 00-10.368 1.632 10.987 2.426 0 0010.368 1.633 10.987 2.426 0 0010.37-1.632 10.987 2.426 0 00-10.37-1.633z" fill="#1e0905"/><g transform="translate(17.802 -131.265)" stroke="#000"><rect width="113.171" height="80.029" x="29.892" y="150.852" ry="1.407" fill="#393939" stroke-width=".283"/><path d="M12.148 243.635l2.94.796c47.611-.159 95.172.158 142.782 0l2.935-.816" fill="#0b0b0b" stroke-width=".265"/><path d="M10.052 240.291l152.85.06-.023 2.667s-.752.618-1.576.618H11.64c-.824 0-1.584-.96-1.584-.96z" fill="#555" stroke-width=".28"/><path d="M30.083 224.467S15.549 235.82 10.318 239.92c-.835.687.443 1.524 1.223 1.524 54.006.033 104.112-.006 149.873 0 .779 0 2.057-.837 1.222-1.524-5.23-4.1-19.764-15.453-19.764-15.453z" fill="#393939" stroke-width=".265"/></g><g transform="translate(10.066 9.018)"><path d="M43.507 85.398l-8.788 8.126h118.986l-8.787-8.126H88.127z" fill="#2a2a2a"/><path d="M153.706 93.524l-8.788-8.126H43.507l-8.788 8.126" fill="none" stroke="#cbcbcb" stroke-width=".5" stroke-opacity=".239"/><ellipse cx="94.212" cy="90.875" rx="1.284" ry=".627" fill="#e35858"/><ellipse cx="148.953" cy="85.721" rx="1.702" ry=".627" fill="#2a2a2a"/><ellipse cx="148.953" cy="85.721" rx=".357" ry=".176" fill="#a8ed94"/></g><path d="M89.226 102.985l-2.61 5.61h35.326l-2.61-5.61h-16.859z" fill="#575757" stroke="#000" stroke-width=".12"/><path d="M88.916 103.927h13.263m4.199 0h13.264" fill="#e35858" stroke="#e35858" stroke-width=".265"/><path fill="#fdf4db" stroke="#000" stroke-width=".267" d="M50.925 26.06h106.706v63.12H50.925z"/><path d="M67.498 34.888h4.154v2.021h-4.154zm-10.165 0h9.544v2.021h-9.544zm14.951 0h16.112v2.021H72.284zm-14.951 2.61h5.558v2.021h-5.558zm14.117 0h4.153v2.021H71.45zm-7.917 0h7.242v2.021h-7.242zm12.788 0h15.27v2.021h-15.27zM57.333 48.496h5.895v2.021h-5.895zm6.567 0h5.894v2.021H63.9zm6.565 0h4.547v2.021h-4.547zm5.189 0h9.712v2.021h-9.712zm10.383.001h4.595v2.02h-4.595zm5.245 0h9.712v2.02h-9.712zm-6.448 3.247h8.253v2.021h-8.253zm-14.789 0h13.698v2.021H70.045zm-12.712 0h11.621v2.021h-11.62zm0 3.288h3.818v2.02h-3.818zm4.417 0h7.915v2.02H61.75zm8.513 0h8.982v2.02h-8.982zm9.58 0h4.772v2.02h-4.772zm5.37 0h4.772v2.02h-4.772zm5.37 0h8.982v2.02h-8.982zm-33.249 3.094h4.772v2.02h-4.772zm5.445 0h3.818v2.02h-3.818zm4.491 0h11.172v2.02H67.27z" fill="#6e6e6e"/><g fill="#356ae3"><path d="M60.188 29.475h4.997v2.021h-4.997zm5.614 0h11.733v2.021H65.802zm12.35 0h4.481v2.021h-4.48zm5.099 0h5.851v2.021h-5.85z"/><path d="M58.502 30.326h-.383l-.11.386h.385zm-.197-.658l-.137.48h.384l.138-.48h.21l-.135.48h.41v.178h-.462l-.107.386h.418v.177h-.47l-.136.478h-.21l.135-.478h-.385l-.136.478h-.211l.136-.478h-.414v-.177h.463l.11-.386h-.423v-.178h.475l.134-.48z" aria-label="#" font-weight="400" font-size="10.583" font-family="sans-serif" letter-spacing="0" word-spacing="0"/></g><g fill="#356ae3"><path d="M62.057 43.355h7.523v2.021h-7.523zm8.159 0H81.78v2.021H70.216zm12.201 0h3.818v2.021h-3.818zm4.453 0h6.905v2.021H86.87zm7.542 0h4.997v2.021h-4.997z"/><path d="M58.502 44.146h-.383l-.11.385h.385zm-.197-.658l-.137.48h.384l.138-.48h.21l-.135.48h.41v.178h-.462l-.107.385h.418v.177h-.47l-.136.479h-.21l.135-.479h-.385l-.136.479h-.211l.136-.479h-.414v-.177h.463l.11-.385h-.423v-.178h.475l.134-.48zm2.311.627h-.382l-.11.386h.384zm-.197-.657l-.137.48h.384l.138-.48h.21l-.135.48h.41v.177h-.461l-.108.386h.418v.177h-.47l-.136.478h-.21l.135-.478h-.385l-.135.478h-.212l.137-.478h-.414v-.177h.462l.11-.386h-.422v-.178h.474l.134-.48z" aria-label="#" font-weight="400" font-size="10.583" font-family="sans-serif" letter-spacing="0" word-spacing="0"/></g><path fill="#e1c4c4" d="M57.333 63.186H98.85V81.75H57.333z"/><g fill="#356ae3"><path d="M62.469 85.147h6.456v2.02h-6.456zm7.13 0h3.818v2.02h-3.818zm4.491 0h5.67v2.02h-5.67z"/><path d="M58.502 85.872h-.383l-.11.386h.385zm-.197-.657l-.137.48h.384l.138-.48h.21l-.135.48h.41v.177h-.462l-.107.386h.418v.177h-.47l-.136.478h-.21l.135-.478h-.385l-.136.478h-.211l.136-.478h-.414v-.177h.463l.11-.386h-.423v-.178h.475l.134-.48z" style="line-height:1.25" font-weight="400" font-size="10.583" font-family="sans-serif" letter-spacing="0" word-spacing="0"/><path d="M60.616 85.842h-.382l-.11.386h.384zm-.197-.657l-.137.48h.384l.138-.48h.21l-.135.48h.41v.177h-.461l-.108.386h.418v.177h-.47l-.136.478h-.21l.135-.478h-.385l-.135.478h-.212l.137-.478h-.414v-.177h.462l.11-.386h-.422v-.178h.474l.134-.48z" aria-label="#" font-weight="400" font-size="10.583" font-family="sans-serif" letter-spacing="0" word-spacing="0"/></g><path fill="url(#d)" stroke="#000" stroke-width=".267" d="M40.859 17.041h106.706v63.122H40.859z" transform="translate(10.066 9.018)"/></svg>