<?xml version="1.0" encoding="UTF-8" standalone="no"?>
<svg
   xmlns:dc="http://purl.org/dc/elements/1.1/"
   xmlns:cc="http://creativecommons.org/ns#"
   xmlns:rdf="http://www.w3.org/1999/02/22-rdf-syntax-ns#"
   xmlns:svg="http://www.w3.org/2000/svg"
   xmlns="http://www.w3.org/2000/svg"
   xmlns:xlink="http://www.w3.org/1999/xlink"
   xmlns:sodipodi="http://sodipodi.sourceforge.net/DTD/sodipodi-0.dtd"
   xmlns:inkscape="http://www.inkscape.org/namespaces/inkscape"
   width="2000"
   height="1000"
   viewBox="0 0 529.16666 264.58333"
   version="1.1"
   id="svg2631"
   sodipodi:docname="meIndex_openGraph.svg"
   inkscape:version="1.0.1 (1.0.1+r74)">
  <metadata
     id="metadata2635">
    <rdf:RDF>
      <cc:Work
         rdf:about="">
        <dc:format>image/svg+xml</dc:format>
        <dc:type
           rdf:resource="http://purl.org/dc/dcmitype/StillImage" />
        <dc:title></dc:title>
      </cc:Work>
    </rdf:RDF>
  </metadata>
  <sodipodi:namedview
     pagecolor="#ffffff"
     bordercolor="#666666"
     borderopacity="1"
     objecttolerance="10"
     gridtolerance="10"
     guidetolerance="10"
     inkscape:pageopacity="0"
     inkscape:pageshadow="2"
     inkscape:window-width="3820"
     inkscape:window-height="1032"
     id="namedview2633"
     showgrid="false"
     inkscape:zoom="0.36621693"
     inkscape:cx="1598.3737"
     inkscape:cy="1047.5384"
     inkscape:window-x="0"
     inkscape:window-y="28"
     inkscape:window-maximized="1"
     inkscape:current-layer="svg2631"
     units="px" />
  <defs
     id="defs2495">
    <linearGradient
       id="b">
      <stop
         offset="0"
         stop-color="#e3e3e3"
         id="stop2477" />
      <stop
         offset="1"
         stop-color="#e3e3e3"
         stop-opacity="0"
         id="stop2479" />
    </linearGradient>
    <linearGradient
       id="a">
      <stop
         offset="0"
         stop-color="#d4d4d4"
         id="stop2482" />
      <stop
         offset="1"
         stop-color="#d4d4d4"
         stop-opacity="0"
         id="stop2484" />
    </linearGradient>
    <linearGradient
       id="c">
      <stop
         offset="0"
         stop-color="#e9c46a"
         id="stop2487" />
      <stop
         offset="1"
         stop-color="#e9c46a"
         stop-opacity="0"
         id="stop2489" />
    </linearGradient>
    <linearGradient
       xlink:href="#a"
       id="d"
       x1="63.5"
       y1="201.284"
       x2="196.321"
       y2="43.063"
       gradientUnits="userSpaceOnUse"
       gradientTransform="matrix(0.78367719,0,0,0.78367719,79.881095,42.788754)" />
    <linearGradient
       xlink:href="#b"
       id="f"
       x1="43.681999"
       y1="301.62799"
       x2="44.676998"
       y2="146.097"
       gradientUnits="userSpaceOnUse"
       gradientTransform="matrix(0.78367719,0,0,0.78367719,79.881095,42.788754)" />
    <radialGradient
       xlink:href="#c"
       id="e"
       cx="188.043"
       cy="150.698"
       fx="188.043"
       fy="150.698"
       r="124.165"
       gradientTransform="matrix(0.85609355,0.09787696,-0.01811136,0.15841536,25.202805,165.69378)"
       gradientUnits="userSpaceOnUse" />
  </defs>
  <ellipse
     cx="183.14023"
     cy="142.47249"
     rx="70.912727"
     ry="66.351265"
     fill="url(#d)"
     id="ellipse2497"
     style="fill:url(#d);stroke-width:0.363464" />
  <path
     fill="#ffffff"
     d="M 0,0 H 529.16666 V 264.58333 H 0 Z"
     id="path2499"
     style="stroke-width:0.375049" />
  <path
     d="M 86.150469,207.99833 H 280.76093 c 0,0 -89.1593,70.79425 -194.610461,0 z"
     fill="url(#e)"
     id="path2501"
     style="fill:url(#e);stroke-width:0.363464" />
  <path
     d="m 170.65344,172.19868 6.84255,13.89228 31.9644,9.30829 c 0,0 12.51767,2.96768 2.17678,5.39452 0,0 2.86263,2.099 -2.70417,2.56023 -12.59326,1.04314 -40.56029,-6.68808 -40.56029,-6.68808 z"
     fill="#d99e77"
     id="path2503"
     style="stroke-width:0.363464" />
  <path
     d="m 130.77537,103.13053 c 0,0 3.67243,20.74574 -1.83622,25.63613 l 16.3035,8.24843 9.0426,-1.1002 0.88103,-1.20488 c 0,0 -2.59694,-11.52614 -2.59694,-17.34155 z"
     fill="#f6b285"
     stroke="#000000"
     stroke-width="0.19518"
     id="path2505" />
  <path
     d="m 130.11677,104.05445 c 0,0 2.22185,12.29268 7.998,15.99528 5.77616,3.7026 18.21677,0.14829 18.21677,0.14829 0,0 3.7026,-9.47911 2.666,-16.14357 0,0 5.33201,-17.180172 3.11016,-29.028704 -2.22149,-11.848531 -31.25019,-6.072378 -31.25019,-6.072378 l -8.14593,18.365059 z"
     fill="#ffccaa"
     stroke="#000000"
     stroke-width="0.207174"
     id="path2507" />
  <path
     d="m 163.77672,85.626145 -3.50851,-3.560848 -2.09427,0.942459 c 0,0 -5.37017,-5.613686 -6.13162,-2.647463 0,0 0.0654,1.18598 -1.22742,1.033324 -0.60408,-0.07124 -0.58481,-0.504487 -1.1649,-1.079848 -1.0097,-1.001703 -2.27092,-2.146612 -3.83381,-1.913634 -2.46101,0.366372 -1.25685,1.099476 -1.25685,1.099476 0,0 -3.24645,2.094637 -5.65549,1.675565 -2.4083,-0.418709 -5.98114,1.39061 -5.24804,8.407263 0.73311,7.016654 -0.43434,18.503901 12.21854,18.090281 9.31628,-0.30458 1.62177,-1.06022 1.62177,-1.06022 l -3.0938,4.72393 -10.42048,-1.93726 -2.56569,-6.17887 -1.62323,-10.001412 -2.14697,-8.640244 2.09464,-4.555281 8.37782,-2.409035 7.38339,-1.204153 4.34629,-0.05234 14.24266,1.204154 -0.89012,6.702621 v 0.523387"
     fill="#f6b285"
     id="path2509"
     style="stroke-width:0.363464" />
  <path
     d="m 153.04293,97.25587 c 0,0 2.0463,3.19411 1.09948,3.7175 -4.46515,2.46973 -1.48512,-2.874265 -1.09948,-3.717863 z m -0.17301,11.22192 -6.22031,0.185 -0.66659,5.22042 6.22031,1.59234 5.62786,-0.11122 0.81489,-2.99857 0.40707,-2.92552 z"
     fill="#f6b285"
     id="path2511"
     style="stroke-width:0.363464" />
  <path
     d="m 151.90165,49.16317 c -8.12194,-0.09087 -16.32021,5.312739 -16.32021,5.312739 -7.55349,-0.259149 -5.03542,3.887963 -5.03542,3.887963 -14.84746,1.184889 -12.55183,7.960569 -12.55183,7.960569 -12.36683,7.331048 -4.59126,13.255495 -4.59126,13.255495 -1.92527,0.555371 -0.961,3.858161 -0.961,3.858161 -2.07355,2.299267 1.91835,3.915951 3.07126,4.32194 l 0.16356,0.229708 c -2.90007,2.816475 7.20238,5.631859 7.20238,5.631859 l 5.88229,1.228505 0.56736,0.09777 c -0.26169,3.677517 -0.90575,18.453021 5.10412,23.817011 6.88689,6.14616 18.66128,3.62845 21.84558,3.036 3.18393,-0.59244 2.51771,-5.10956 2.51771,-5.10956 1.86456,-9.39661 0.36346,-12.52421 -6.92398,-12.62598 -7.07299,0.0109 -8.7013,4.99834 -8.7013,4.99834 0,0 -6.23485,0.0182 -8.2368,-1.97251 -3.8767,-11.630455 -5.82886,-19.558311 -4.1144,-25.929455 0,0 4.47277,-2.809569 3.53031,-0.819609 0,0 1.29212,-3.028737 3.70115,-2.295633 2.40867,0.733106 6.80693,3.97992 8.58718,-0.733104 0,0 1.7806,0.314032 3.35112,2.094637 1.57126,1.780243 1.99033,0.942096 1.99033,0.942096 0,0 -0.10468,-4.293952 6.8073,0.419072 l 3.35113,-0.942459 0.29113,6.471095 c 8.78636,0.96645 11.68243,-7.879149 8.62353,-17.492748 -1.66612,-4.961271 -4.18346,-1.295745 -4.18346,-1.295745 -0.51867,-4.591265 -1.2594,-14.699174 -10.51608,-17.661397 -1.44622,-0.462689 -2.94768,-0.668044 -4.4517,-0.684763 z m 1.81005,59.29172 c 1.8602,1.54363 4.64724,1.11293 4.64724,1.11293 l -0.86395,3.35113 c 0,0 -2.80121,2.74887 -10.81303,-0.34057 l 0.7531,-3.60155 c 0,0 4.1035,1.49056 6.27664,-0.52194 z"
     fill="#784421"
     stroke="#000000"
     stroke-width="0.207174"
     id="path2513" />
  <path
     d="m 130.54602,58.363872 c -14.84746,1.184889 -12.55183,7.960569 -12.55183,7.960569 -12.36683,7.331048 -4.59126,13.255495 -4.59126,13.255495 -1.92527,0.555371 -0.961,3.858161 -0.961,3.858161 -2.07355,2.299267 1.91835,3.915951 3.07126,4.32194 l 0.16356,0.229708 c -2.90007,2.816475 7.20238,5.631859 7.20238,5.631859 2.15534,0.414347 1.61632,0.378001 3.77929,0.750188 l -0.84469,-2.755051 c 2.1488,1.855481 4.38337,3.798191 3.73713,6.515439 -0.2617,3.67752 -1.12783,15.26908 4.88204,20.63271 6.88689,6.14616 19.62409,3.44345 22.80839,2.851 3.18394,-0.59244 2.33234,-5.62822 2.33234,-5.62822 1.1231,-9.09712 1.49166,-11.82818 -7.70142,-11.92232 -7.07299,0.0109 -8.7013,4.99834 -8.7013,4.99834 0,0 -6.23485,0.0182 -8.2368,-1.97215 -1.31828,-5.46393 -7.41719,-15.121875 -10.39141,-19.620457 l -1.75044,-0.930464 c -7.75412,-3.133781 -4.16892,-12.449702 -0.10431,-18.274922 -1.36153,-3.665162 7.85807,-9.901825 7.85807,-9.901825 z m 23.16568,50.091018 c 1.8602,1.54363 4.64724,1.11293 4.64724,1.11293 0,0 -0.6466,4.74901 -2.23021,5.33382 -4.19909,1.55089 -8.93901,-1.40297 -9.52528,-2.24475 l 0.83161,-3.68006 c 0,0 4.1035,1.49056 6.27664,-0.52194 z m 13.31111,-32.924659 c 0,0 -0.0113,0.199905 -0.0196,0.511392 0.0247,-0.16501 0.0323,-0.335476 0.0192,-0.511392 z m -0.0196,0.511392 c -0.37982,2.514801 -4.86496,3.785105 -4.86496,3.785105 l 0.29078,6.471095 c 3.58374,0.393994 6.18759,-0.844323 7.80718,-3.101065 -0.007,0.0014 -0.0127,0.0036 -0.0196,0.0047 -3.19556,0.782173 -3.26208,-5.343633 -3.21337,-7.160222 z"
     fill="#552f17"
     id="path2515"
     style="stroke-width:0.363464" />
  <path
     d="m 151.90165,49.16317 c -8.12194,-0.09087 -16.32021,5.312739 -16.32021,5.312739 -7.55349,-0.259149 -5.03542,3.887963 -5.03542,3.887963 -14.84746,1.184889 -12.55183,7.960569 -12.55183,7.960569 -12.36683,7.331048 -4.59126,13.255495 -4.59126,13.255495 -1.92527,0.555371 -0.961,3.858161 -0.961,3.858161 -2.07355,2.299267 1.91835,3.915951 3.07126,4.32194 l 0.16356,0.229708 c -2.90007,2.816475 7.20238,5.631859 7.20238,5.631859 l 5.88229,1.228505 0.56736,0.09777 c -0.26169,3.677517 -0.90575,18.453021 5.10412,23.817011 6.88689,6.14616 19.54994,3.48015 22.73424,2.88807 3.18394,-0.59244 2.40649,-5.66529 2.40649,-5.66529 1.22996,-11.56031 0.15556,-11.43564 -7.70142,-11.92232 -7.07299,0.0109 -8.7013,4.99834 -8.7013,4.99834 0,0 -6.23485,0.0182 -8.2368,-1.97251 -3.8767,-11.630455 -5.82886,-19.558311 -4.1144,-25.929455 0,0 4.47277,-2.809569 3.53031,-0.819609 0,0 1.29212,-3.028737 3.70115,-2.295633 2.40867,0.733106 6.80693,3.97992 8.58718,-0.733104 0,0 1.7806,0.314032 3.35112,2.094637 1.57126,1.780243 1.99033,0.942096 1.99033,0.942096 0,0 -0.10468,-4.293952 6.8073,0.419072 l 3.35113,-0.942459 0.29113,6.471095 c 8.78636,0.96645 11.68243,-7.879149 8.62353,-17.492748 -1.66612,-4.961271 -4.18346,-1.295745 -4.18346,-1.295745 -0.51867,-4.591265 -1.2594,-14.699174 -10.51608,-17.661397 -1.44622,-0.462689 -2.94768,-0.668044 -4.4517,-0.684763 z m 1.81005,59.29172 c 1.8602,1.54363 4.64724,1.11293 4.64724,1.11293 l -0.86395,3.35113 c 0,0 -2.80121,2.74887 -10.81303,-0.34057 l 0.7531,-3.60155 c 0,0 4.1035,1.49056 6.27664,-0.52194 z"
     fill="none"
     stroke="#000000"
     stroke-width="0.207174"
     id="path2517" />
  <path
     d="m 129.02275,74.585227 c -6.14616,4.887489 1.79696,6.576501 1.79696,6.576501 0,0 4.47277,-2.809569 3.53031,-0.819609 0,0 1.29212,-3.028737 3.70115,-2.295633 2.40867,0.733106 6.80693,3.97992 8.58718,-0.733104 0,0 1.7806,0.314032 3.35112,2.094637 1.57126,1.780243 1.99033,0.942096 1.99033,0.942096 0,0 -0.0672,-2.810297 3.5703,-1.385157 -0.40454,-2.725975 0.79816,-5.342179 0.79816,-5.342179 -14.88454,3.776744 -10.66328,-4.739558 -10.66328,-4.739558 0,0 -1.18489,-1.999047 -8.07178,0.518661 -4.86241,2.534791 -6.58959,3.122147 -7.84281,-0.0084 -1.54544,0.987892 -0.45433,4.563642 -0.74728,5.191706 z"
     fill="#552f17"
     id="path2519"
     style="stroke-width:0.363464" />
  <path
     d="m 149.8499,110.42813 c 0,0 2.46683,0.88104 4.50659,0.29368 2.03975,-0.58735 0.27259,0.22026 0.27259,0.22026 0,0 -3.29661,0.90539 -4.26923,0.0981 -0.97263,-0.80762 -0.50995,-0.61208 -0.50995,-0.61208 z"
     id="path2521"
     style="stroke-width:0.363464" />
  <path
     d="m 122.76282,97.326383 c 0.5343,4.835517 3.99955,6.632107 5.41451,6.491447 2.33562,-0.23261 2.38868,-4.12458 1.87184,-6.690261 -1.66176,-8.245158 -7.73232,-5.276393 -7.28635,0.198814 z"
     fill="#ffccaa"
     stroke="#000000"
     stroke-width="0.186456"
     id="path2523" />
  <path
     style="line-height:normal;font-variant-ligatures:normal;font-variant-position:normal;font-variant-caps:normal;font-variant-numeric:normal;font-variant-alternates:normal;font-feature-settings:normal;text-indent:0;text-align:start;text-decoration:none;text-decoration-line:none;text-decoration-style:solid;text-decoration-color:#000000;text-transform:none;text-orientation:mixed;white-space:normal;shape-padding:0;isolation:auto;mix-blend-mode:normal;solid-color:#000000;solid-opacity:1;stroke-width:0.363464"
     d="m 155.99607,96.31232 c 1.53054,7.4281 0.27223,7.55022 -4.04789,7.23146 -1.58615,1.40297 2.96949,0.87086 3.48161,0.70003 2.35488,-0.26715 1.40406,-6.12944 0.17374,-9.86911 z"
     color="#000000"
     font-weight="400"
     font-family="sans-serif"
     overflow="visible"
     id="path2525" />
  <path
     d="m 124.05748,94.785777 c 0,0 2.40394,-4.884944 4.62434,3.80255 0,0 -1.3579,0.40417 -0.65423,1.404063 -0.82216,-6.805124 -3.97011,-5.206613 -3.97011,-5.206613 z"
     fill="#f6b285"
     id="path2527"
     style="stroke-width:0.363464" />
  <path
     d="m 124.05748,94.785777 c 0,0 2.40394,-4.884944 4.62434,3.80255 0,0 -1.3579,0.40417 -0.65423,1.404063"
     fill="none"
     stroke="#000000"
     stroke-width="0.207174"
     id="path2529" />
  <path
     d="m 124.108,92.955014 c -1.11401,1.446581 -1.57271,2.178233 -1.38843,4.441517 0.53465,4.835509 3.99991,6.632469 5.41451,6.491449 0.48522,-0.048 0.53066,0.21517 1.77661,-1.38734 -7.08135,0.33221 -7.39902,-6.502351 -5.80269,-9.545626 z"
     fill="#f6b285"
     id="path2531"
     style="stroke-width:0.363464" />
  <path
     d="m 122.76282,97.326383 c 0.5343,4.835517 3.99955,6.632107 5.41451,6.491447 2.33562,-0.23261 2.38868,-4.12458 1.87184,-6.690261 -1.66176,-8.245158 -7.73232,-5.276393 -7.28635,0.198814 z"
     fill="none"
     stroke="#000000"
     stroke-width="0.186456"
     id="path2533" />
  <g
     transform="matrix(0.36346304,0,0,0.36346304,27.540963,11.364831)"
     id="g2541">
    <ellipse
       cx="327.30301"
       cy="229.68201"
       rx="2.852"
       ry="3.8710001"
       id="ellipse2535" />
    <ellipse
       cx="360.513"
       cy="229.478"
       rx="2.852"
       ry="3.8710001"
       id="ellipse2537" />
    <path
       d="m 319.934,226.47 c 0,0 2.847,-7.874 10.69,-5.837 0,0 -2.636,0.877 -5.402,2.344 -3.247,1.722 -5.288,3.493 -5.288,3.493 z m 47.012,1.046 c 0,0 -0.491,-6.946 -7.516,-7.115 0,0 1.989,1.305 3.943,3.112 2.295,2.12 3.573,4.003 3.573,4.003 z"
       id="path2539" />
  </g>
  <path
     d="m 151.64578,93.081498 c 0,0 2.06883,-1.197975 3.86434,0.208992 l -0.0116,0.528839 c 0,0 -0.93047,-1.335002 -3.90723,-0.196271 z"
     stroke="#000000"
     stroke-width="0.189728"
     id="path2543" />
  <path
     d="m 129.07,92.795451 c -0.57064,-0.398353 0.13557,-0.364915 0.0349,-0.658957 -0.21263,-0.621522 5.11211,-0.79126 10.10427,-0.874856 l -0.35982,1.164899 c 0,0 -5.27604,-0.179912 -9.77934,0.368914 z"
     stroke="#000000"
     stroke-width="0.158833"
     id="path2545" />
  <path
     d="m 150.87996,94.924981 c 0,0 -0.83306,3.795283 -2.29563,3.795283 -1.46258,0 -7.36849,0.16683 -8.40509,-0.888667 -1.03659,-1.055134 -0.7222,-5.831402 -0.7222,-5.831402 l 1.25904,-1.259035 2.9804,-0.296222 h 3.46235 c 0,0 1.86965,-0.01817 2.05502,0.111219 0.185,0.129392 1.77733,1.110742 1.81404,1.184889 0.0371,0.07378 0.38891,1.869654 0.38891,1.869654 z"
     fill="#b8fdfa"
     fill-opacity="0.437"
     id="path2547"
     style="stroke-width:0.363464" />
  <path
     d="m 138.80208,93.927277 c 0,0 -0.44415,-3.628453 2.81394,-3.665525 2.28509,-0.0258 7.59819,-0.185731 8.90556,0.352558 1.81587,0.747644 0.9123,4.339751 0.9123,4.339751 0,0 -0.47977,0.0047 -0.55174,-0.174463 -0.1203,-0.297312 0.62007,-2.962589 -0.82397,-3.629179 -1.44404,-0.666592 -6.10945,-0.481224 -8.51594,-0.370368 -2.40685,0.111219 -1.88855,2.258922 -2.14806,3.073442 -0.25879,0.814158 -0.59209,0.429979 -0.59209,0.07378 z"
     stroke="#000000"
     stroke-width="0.207174"
     id="path2549" />
  <path
     d="m 161.67699,92.217911 c 0,0 -0.59281,-0.126121 4.13003,-0.174462 l -0.0254,0.663682 -4.2427,-0.03271 z"
     stroke="#000000"
     stroke-width="0.117399"
     id="path2551" />
  <path
     d="m 155.96408,95.013305 c 0,0 0.72257,3.20138 1.99142,3.20138 1.26848,0 6.39077,0.140661 7.28997,-0.74946 0.89921,-0.890484 0.62625,-4.919471 0.62625,-4.919471 l -1.09184,-1.062038 -2.58531,-0.250063 H 159.192 c 0,0 -1.62214,-0.01562 -1.78243,0.09377 -0.16065,0.109036 -1.54181,0.937005 -1.57379,0.999523 -0.032,0.06252 -0.33729,1.57743 -0.33729,1.57743 z"
     fill="#b8fdfa"
     fill-opacity="0.437"
     id="path2553"
     style="stroke-width:0.363464" />
  <path
     d="m 155.41089,94.400869 c 0,0 -0.37909,-3.522685 2.40031,-3.558303 1.94925,-0.02545 6.48164,-0.180641 7.59638,0.341655 1.54908,0.726199 0.79162,3.545582 0.79162,3.545582 0,0 -0.40926,0.0047 -0.47068,-0.169011 -0.1025,-0.288952 0.51575,-2.208764 -0.71603,-2.855727 -1.23214,-0.646966 -5.21133,-0.467416 -7.26453,-0.359465 -2.05284,0.107948 -1.61087,2.192408 -1.83186,2.983302 -0.22098,0.790897 -0.50521,0.417621 -0.50521,0.07197 z"
     stroke="#000000"
     stroke-width="0.188637"
     id="path2555" />
  <path
     d="m 110.58791,132.31624 c 5.58278,-7.5673 21.4752,-3.7026 21.4752,-3.7026 0,0 12.8397,6.63502 20.32777,5.47994 2.05829,-0.31767 2.851,-0.99953 1.81404,-4.11004 0,0 4.24016,1.68065 6.22976,2.41376 9.53727,3.74003 11.51996,48.39946 14.29827,75.84746 -24.94774,-1.20233 -34.7169,0.54665 -52.59492,-0.58263 l -10.32961,-34.52535"
     fill="#264653"
     stroke="#000000"
     stroke-width="0.207174"
     id="path2557" />
  <g
     transform="matrix(0.36346304,0,0,0.36346304,27.540963,11.364831)"
     id="g2587">
    <path
       d="M 481.442,548.237 348.03,537.967 v 8.932 l 133.34,11.998 12.807,-3.108 -6.551,-7.945 z"
       fill="#020202"
       stroke="#000000"
       stroke-width="0.57"
       id="path2559" />
    <path
       d="m 347.704,538.578 152.25,-5.036 -2.305,12.533 -17,2.594 z"
       fill="#262626"
       stroke="#000000"
       stroke-width="0.57"
       id="path2561" />
    <path
       d="m 494.017,535.076 c 0,0 -91.164,2.884 -90.155,2.884 1.008,0 76.245,3.212 76.245,3.212 l 12.273,-1.62 z"
       fill="#4c4c4c"
       id="path2563" />
    <path
       d="m 483.218,558.613 46.974,-153.823 151.72,-7.248 3.389,1.164 -51.22,141.75 -147.665,19.474 z"
       fill="#020202"
       stroke="#000000"
       stroke-width="0.57"
       id="path2565" />
    <path
       d="m 486.615,559.904 46.974,-153.823 151.72,-7.248 -47.83,142.915 z"
       fill="#393939"
       stroke="#000000"
       stroke-width="0.57"
       id="path2567" />
    <path
       d="m 555.392,415.87 -1.188,0.831 0.85,2.217 -5.297,4.074 -0.984,-1.93 -2.355,1.891 0.995,2.026 -5.857,4.788 -1.079,-2.043 -3.745,3.008 0.707,1.476 0.805,-0.612 2.388,5.195 17.35,-14.27 z"
       fill="#6f6f6f"
       id="path2569" />
    <ellipse
       cx="542.44702"
       cy="427.14301"
       rx="1.095"
       ry="1.197"
       fill="#ff3333"
       id="ellipse2571" />
    <path
       d="M 481.442,548.237 348.03,537.967 v 8.932 l 133.34,11.998 12.807,-3.108 -6.551,-7.945 z"
       fill="#020202"
       stroke="#000000"
       stroke-width="0.57"
       id="path2573" />
    <path
       d="m 347.704,538.578 152.25,-5.036 -2.305,12.533 -17,2.594 z"
       fill="#262626"
       stroke="#000000"
       stroke-width="0.57"
       id="path2575" />
    <path
       d="m 494.017,535.076 c 0,0 -91.164,2.884 -90.155,2.884 1.008,0 76.245,3.212 76.245,3.212 l 12.273,-1.62 z"
       fill="#4c4c4c"
       id="path2577" />
    <path
       d="m 483.218,558.613 46.974,-153.823 151.72,-7.248 3.389,1.164 -51.22,141.75 -147.665,19.474 z"
       fill="#020202"
       stroke="#000000"
       stroke-width="0.57"
       id="path2579" />
    <path
       d="m 486.615,559.904 46.974,-153.823 151.72,-7.248 -47.83,142.915 z"
       fill="#393939"
       stroke="#000000"
       stroke-width="0.57"
       id="path2581" />
    <path
       d="m 555.392,415.87 -1.188,0.831 0.85,2.217 -5.297,4.074 -0.984,-1.93 -2.355,1.891 0.995,2.026 -5.857,4.788 -1.079,-2.043 -3.745,3.008 0.707,1.476 0.805,-0.612 2.388,5.195 17.35,-14.27 z"
       fill="#6f6f6f"
       id="path2583" />
    <ellipse
       ry="1.197"
       rx="1.095"
       cy="427.14301"
       cx="542.44702"
       fill="#ff3333"
       id="ellipse2585" />
  </g>
  <path
     d="m 129.90269,193.78911 c -5.4723,-20.8457 -9.47548,-36.0439 -9.47548,-36.0439 0,0 -11.07835,1.18961 -13.25186,5.58751 -6.53034,13.20825 11.1256,42.7796 11.1256,42.7796 0,0 1.36153,2.82775 5.23641,1.78024 1.53927,-0.4158 7.66726,1.32555 16.9959,0.62988 14.15688,-1.05549 32.98281,-4.53965 32.98281,-4.53965 0,0 5.71764,-9.38679 1.96779,-8.70021 -26.44848,4.8406 -47.70488,-8.54465 -48.54267,2.60857"
     fill="#f6b285"
     stroke="#000000"
     stroke-width="0.207537"
     id="path2589" />
  <path
     d="m 175.76628,199.69756 c 1.04859,-2.37087 1.68137,-4.77445 -0.28242,-4.41498 -26.44848,4.84096 -47.70488,-8.54465 -48.54267,2.60857 0,0 3.50379,1.6872 24.68278,2.16988 12.33012,0.28059 24.14231,-0.36347 24.14231,-0.36347 z"
     fill="#ffccaa"
     id="path2591"
     style="stroke-width:0.363464" />
  <path
     d="m 129.90269,193.78911 c -5.4723,-20.8457 -9.47548,-36.0439 -9.47548,-36.0439 0,0 -11.07835,1.18961 -13.25186,5.58751 -6.53034,13.20825 11.1256,42.7796 11.1256,42.7796 0,0 1.36153,2.82775 5.23641,1.78024 1.53927,-0.4158 7.66726,1.32555 16.9959,0.62988 14.15688,-1.05549 32.98281,-4.53965 32.98281,-4.53965 0,0 5.71764,-9.38679 1.96779,-8.70021 -26.44848,4.8406 -47.70488,-8.54465 -48.54267,2.60857"
     fill="none"
     stroke="#000000"
     stroke-width="0.207537"
     id="path2593" />
  <path
     d="m 187.23644,188.53816 c -0.92792,-0.0411 -3.01493,1.12637 -4.12531,2.09827 -1.18488,1.0366 -8.88667,4.88749 -8.88667,4.88749 l -2.59185,8.22008 c 0,0 6.29445,3.99845 15.10698,-3.40674 l 1.33245,-0.66623 2.666,0.37001 1.40697,1.70355 c 0,0 -0.44452,2.88771 0.96281,2.88771 0,0 1.00316,0.27442 1.70392,-2.26328 1.54944,2.57114 2.44429,1.44803 2.88771,1.07839 0.14466,-0.12067 0.20209,-0.65169 0.21481,-1.31065 0.88757,1.86384 2.16515,1.90019 3.11706,1.60724 0.96281,-0.29622 0,-1.2594 0,-1.2594 l -2.22149,-4.44297 c 0,0 -0.17664,-0.50813 -0.45505,-1.17363 -0.0912,-0.8763 -0.95409,-4.3561 -1.66539,-4.97253 -0.8436,-0.73129 -2.09937,-0.973 -3.4042,-1.4564 -2.36614,-0.87631 -5.35453,-1.73299 -5.87974,-1.8762 a 0.77417626,0.77417626 0 0 0 -0.16901,-0.0247 z"
     fill="#f6b285"
     id="path2595"
     style="stroke-width:0.363464" />
  <path
     d="m 170.68833,203.37363 c 0,0 7.03483,4.70248 16.05089,-3.03601 l 1.33282,-0.66659 2.666,0.37037 1.40733,1.70282 c 0,0 -0.44415,2.88808 0.96281,2.88808 0,0 1.33282,0.37001 1.99905,-3.62881 0,0 -1.11038,-2.88808 -2.51734,-4.44298 0,0 -4.81371,-0.88866 -5.77616,-1.40696"
     fill="none"
     stroke="#000000"
     stroke-width="0.207174"
     id="path2597" />
  <path
     d="m 188.07604,191.69883 c 0,0 5.9946,1.52946 6.80912,1.89982 0.81415,0.37037 1.03659,1.25904 1.03659,1.25904 l 1.85148,3.99882 c 0,0 0.37001,4.2209 -0.0741,4.59127 -0.44452,0.37 -1.34154,1.49855 -2.8968,-1.0933"
     fill="none"
     stroke="#000000"
     stroke-width="0.207174"
     id="path2599" />
  <path
     d="m 173.96241,195.57626 c 0,0 7.96347,-3.90287 9.14836,-4.93947 1.18489,-1.03696 3.48052,-2.29599 4.29505,-2.07355 0.52484,0.1432 3.51359,0.99952 5.87937,1.87583 1.30483,0.4834 2.5606,0.72511 3.4042,1.4564 0.752,0.65169 1.67447,4.50839 1.67447,5.10047"
     fill="none"
     stroke="#000000"
     stroke-width="0.207174"
     id="path2601" />
  <path
     d="m 187.23644,188.53816 c -0.92792,-0.0411 -3.01493,1.12637 -4.12531,2.09827 -1.18488,1.0366 -8.88667,4.88749 -8.88667,4.88749 l -1.51418,4.34701 c 3.79673,-0.5023 12.47768,-3.77529 14.5894,-8.78853 0.50158,-1.18998 2.25275,-0.4158 2.25275,-0.4158 l 3.78074,1.12528 3.27117,1.92163 1.52145,2.3178 c -0.20935,-1.11365 -1.13328,-3.87306 -1.4364,-4.13584 -0.8436,-0.73129 -2.09937,-0.973 -3.4042,-1.4564 -2.36614,-0.87631 -5.35453,-1.73299 -5.87974,-1.8762 a 0.77417626,0.77417626 0 0 0 -0.16901,-0.0247 z"
     fill="#ffccaa"
     id="path2603"
     style="stroke-width:0.363464" />
  <path
     d="m 187.23644,188.53816 c -0.92792,-0.0411 -3.01493,1.12637 -4.12531,2.09827 -1.18488,1.0366 -8.88667,4.88749 -8.88667,4.88749 l -2.59185,8.22008 c 0,0 6.29445,3.99845 15.10698,-3.40674 l 1.33245,-0.66623 2.666,0.37001 1.40697,1.70355 c 0,0 -0.44452,2.88771 0.96281,2.88771 0,0 1.00316,0.27442 1.70392,-2.26328 1.54944,2.57114 2.44429,1.44803 2.88771,1.07839 0.14466,-0.12067 0.20209,-0.65169 0.21481,-1.31065 0.88757,1.86384 2.16515,1.90019 3.11706,1.60724 0.96281,-0.29622 0,-1.2594 0,-1.2594 l -2.22149,-4.44297 c 0,0 -0.17664,-0.50813 -0.45505,-1.17363 -0.0912,-0.8763 -0.95409,-4.3561 -1.66539,-4.97253 -0.8436,-0.73129 -2.09937,-0.973 -3.4042,-1.4564 -2.36614,-0.87631 -5.35453,-1.73299 -5.87974,-1.8762 a 0.77417626,0.77417626 0 0 0 -0.16901,-0.0247 z"
     fill="none"
     id="path2605"
     style="stroke-width:0.363464" />
  <path
     d="m 189.16279,190.38019 c 0,0 5.50538,1.65085 7.50116,3.57066 1.10965,1.06749 2.14588,4.09114 2.14588,4.09114 l 2.22149,4.44297 c 0,0 0.96281,0.96282 0,1.25904 -0.96245,0.29622 -2.25856,0.25915 -3.14723,-1.66612"
     fill="none"
     stroke="#000000"
     stroke-width="0.207174"
     id="path2607" />
  <path
     d="m 124.65792,168.60221 c 0,0 -20.10023,8.48032 -28.659058,4.06461 5.055048,-11.74713 3.481977,-22.76187 9.719368,-36.58038 6.40349,-14.18523 26.34488,-7.4728 26.34488,-7.4728"
     fill="#264653"
     stroke="#000000"
     stroke-width="0.207174"
     id="path2609" />
  <path
     d="m 107.2724,204.28665 c -2.64456,-0.25915 -7.18494,0.0596 -7.764301,5.14482 -0.599713,5.26585 8.404351,6.1985 8.404351,6.1985 l 0.21081,-1.79297 c -1.35571,-0.19845 -6.36423,-1.14055 -6.01313,-4.22089 0.41762,-3.66626 4.25979,-3.62373 6.15525,-3.37294 0.29222,0.0385 0.53065,0.081 0.71057,0.11631 l 0.19191,-1.7508 c 0,0 -0.55247,-0.15084 -1.39352,-0.26352 a 15.467896,15.467896 0 0 0 -0.50158,-0.0589 z"
     fill="#e76f51"
     stroke="#000000"
     stroke-width="0.154835"
     id="path2611" />
  <path
     d="m 115.55099,199.0277 c -5.72381,0 -10.36342,1.37644 -10.36378,3.07417 l 8.1e-4,0.007 c -0.004,5.41233 0.64078,10.82574 0.63352,16.23771 0,1.69773 4.00609,3.07417 9.7299,3.07417 5.72345,0 9.55035,-1.37789 9.62704,-3.07417 l 0.73638,-16.24462 c 0,-1.69773 -4.63997,-3.07417 -10.36378,-3.07417 z"
     fill="#e76f51"
     stroke="#100701"
     stroke-width="0.123577"
     stroke-opacity="0.995"
     id="path2613" />
  <path
     d="m 124.23957,201.84563 a 8.6100758,1.9009117 0 0 1 -8.61044,1.90091 8.6100758,1.9009117 0 0 1 -8.6097,-1.90091 8.6100758,1.9009117 0 0 1 8.61007,-1.90091 8.6100758,1.9009117 0 0 1 8.61007,1.90091 z"
     fill="#af3618"
     id="path2615"
     style="stroke-width:0.363464" />
  <path
     d="m 124.23957,201.84563 c 0,1.05005 -3.85489,1.90091 -8.61044,1.90091 -4.75481,0 -8.6097,-0.85086 -8.6097,-1.90091"
     fill="none"
     stroke="#120000"
     stroke-width="0.156653"
     id="path2617" />
  <path
     d="m 115.72909,201.20085 a 8.6100758,1.9009117 0 0 0 -8.12594,1.27866 8.6100758,1.9009117 0 0 0 8.12594,1.27939 8.6100758,1.9009117 0 0 0 8.12558,-1.27866 8.6100758,1.9009117 0 0 0 -8.12558,-1.27939 z"
     fill="#1e0905"
     id="path2619"
     style="stroke-width:0.363464" />
  <path
     d="m 117.29343,183.91018 c 3.31733,-8.70857 14.92852,-9.49838 7.77557,-19.90541 -7.9006,-11.49416 -3.09816,-15.49225 -3.09816,-15.49225 l -17.64686,-0.16247 c -4.458233,5.18371 -1.03695,11.81873 2.0732,15.55113 3.11015,3.73204 0.72583,13.78833 -5.18371,22.49691 -5.909186,8.70857 5.80596,15.44754 5.80596,15.44754 0,1.05005 3.85489,1.90091 8.61007,1.90091 4.75518,0 8.61007,-0.85086 8.61007,-1.90091 0,0 -10.26382,-9.22687 -6.94614,-17.93545 z"
     fill="url(#f)"
     id="path2621"
     style="fill:url(#f);stroke-width:0.363464" />
  <g
     font-weight="400"
     font-size="22.578px"
     font-family="sans-serif"
     letter-spacing="0"
     word-spacing="0"
     id="g2629"
     transform="matrix(0.36346304,0,0,0.36346304,55.118678,-2.2390173)">
    <path
       d="m 1013.0472,342.08391 h 8.993 v 10.826 h -8.993 z"
       style="line-height:1.25"
       fill="#e76f51"
       id="path2625" />
    <g
       aria-label="mattgreerdev"
       id="text2639"
       style="font-weight:bold;font-size:60.4342px;line-height:1.25;font-family:sans-serif;-inkscape-font-specification:'sans-serif Bold';letter-spacing:0px;word-spacing:0px;stroke-width:0.629522">
      <path
         d="m 733.08102,317.71801 h 5.13454 v 4.45584 q 3.03942,-3.89517 6.81655,-4.89848 1.71152,-0.47214 3.89518,-0.47214 5.13454,0 7.84936,2.83285 0.82625,0.85576 1.53446,2.00661 3.03942,-3.36401 6.25589,-4.27879 1.88857,-0.56067 4.42633,-0.56067 6.90508,0 9.17726,4.42633 0.94429,1.85906 0.94429,4.39683 v 23.75465 h -5.57718 v -21.80706 q 0,-4.07223 -3.03942,-5.60669 -1.44593,-0.73773 -3.42303,-0.73773 -3.48205,0 -5.90177,2.53777 -2.27219,2.39022 -2.27219,5.72472 v 19.88899 h -5.57718 v -21.80706 q 0,-4.42634 -3.42303,-5.81326 l -1.15085,-0.3541 q -0.88526,-0.17706 -1.88856,-0.17706 -3.48205,0 -5.93129,2.53777 -2.27219,2.39022 -2.27219,5.72472 v 19.88899 h -5.57717 z"
         style="font-style:normal;font-variant:normal;font-weight:normal;font-stretch:normal;font-family:Jamrul;-inkscape-font-specification:Jamrul;stroke-width:0.629522"
         id="path2641" />
      <path
         d="m 819.365,346.43015 v 3.80665 q -2.36071,0.53116 -3.80665,0.53116 -4.16075,0 -5.28209,-2.86236 -0.32459,-0.76723 -0.44263,-1.80004 -4.69191,3.89517 -9.53137,4.51486 -1.09183,0.14754 -2.30169,0.14754 -6.22638,0 -9.2953,-3.42303 -2.12464,-2.39022 -2.12464,-5.93129 0,-6.19686 6.07883,-8.46905 2.06562,-0.76723 5.51816,-1.23937 1.80004,-0.26558 5.66571,-0.70821 4.27878,-0.47215 5.3116,-1.80005 0.50165,-0.64919 0.50165,-1.682 v -1.3279 q 0,-3.27549 -4.04272,-4.3083 -1.59348,-0.41312 -3.74763,-0.41312 -5.9903,0 -7.58378,3.36401 l -0.38362,1.06232 q -0.14754,0.56067 -0.20656,1.18035 h -5.60669 q 0.17705,-3.77713 1.74102,-5.81325 0.3246,-0.38361 0.67871,-0.76723 3.00991,-3.06892 9.26579,-3.60008 1.09183,-0.0885 2.27218,-0.0885 9.9445,0 12.39374,5.13455 l 0.44263,1.18035 q 0.29509,1.06232 0.29509,2.33121 v 18.6201 q 0,2.09513 2.21316,2.41973 0.35411,0.059 0.76724,0.059 0.59017,0 1.20986,-0.11804 z m -9.70842,-7.02311 v -5.66571 q -1.88857,0.76723 -5.13455,1.23938 -1.3279,0.17705 -3.80665,0.50165 -6.10834,0.82625 -7.70182,3.24597 -0.6787,1.06232 -0.6787,2.56728 0,3.24598 3.15745,4.48535 1.56397,0.59018 3.68861,0.59018 4.80995,0 8.26249,-2.86237 1.82955,-1.53446 2.12464,-3.06892 0.0885,-0.47214 0.0885,-1.03281 z"
         style="font-style:normal;font-variant:normal;font-weight:normal;font-stretch:normal;font-family:Jamrul;-inkscape-font-specification:Jamrul;stroke-width:0.629522"
         id="path2643" />
      <path
         d="m 837.57198,317.71801 v 4.10173 h -5.72472 v 21.68903 q 0,2.00661 1.03281,2.53777 0.6492,0.3246 2.03612,0.3246 1.74102,0 2.65579,-0.26558 v 4.24928 q -2.59678,0.41312 -4.51485,0.41312 -5.07553,0 -6.34442,-3.03942 -0.38361,-0.88526 -0.38361,-1.97709 v -23.93171 h -4.69191 v -4.10173 h 4.69191 v -8.70512 h 5.51816 v 8.70512 z"
         style="font-style:normal;font-variant:normal;font-weight:normal;font-stretch:normal;font-family:Jamrul;-inkscape-font-specification:Jamrul;stroke-width:0.629522"
         id="path2645" />
      <path
         d="m 856.01504,317.71801 v 4.10173 h -5.72472 v 21.68903 q 0,2.00661 1.03281,2.53777 0.64919,0.3246 2.03611,0.3246 1.74102,0 2.6558,-0.26558 v 4.24928 q -2.59678,0.41312 -4.51486,0.41312 -5.07553,0 -6.34441,-3.03942 -0.38362,-0.88526 -0.38362,-1.97709 v -23.93171 h -4.69191 v -4.10173 h 4.69191 v -8.70512 h 5.51817 v 8.70512 z"
         style="font-style:normal;font-variant:normal;font-weight:normal;font-stretch:normal;font-family:Jamrul;-inkscape-font-specification:Jamrul;stroke-width:0.629522"
         id="path2647" />
      <path
         d="m 884.96326,317.71801 h 5.10503 v 26.46947 q 0,7.84936 -1.77053,11.56748 -0.73772,1.50496 -1.85906,2.74433 -2.62629,2.95089 -8.26249,3.77714 -1.77053,0.26558 -3.6591,0.26558 -7.87887,0 -11.50846,-4.01321 -2.06563,-2.27219 -2.39022,-5.51816 h 5.6657 q 0.38362,2.06562 1.44594,3.06892 0.29509,0.26558 0.6787,0.56067 2.36071,1.68201 6.3149,1.68201 4.51486,0 7.02312,-2.21317 0.38361,-0.35411 0.70821,-0.73772 1.88857,-2.39022 1.9771,-7.90839 0,-0.3541 0,-0.73772 v -1.62299 q -3.24598,4.13125 -6.90508,5.19357 -1.20987,0.3541 -2.59678,0.44263 -0.50166,0.0295 -1.06232,0.0295 -4.51486,0 -8.26249,-2.74433 -0.85576,-0.61968 -1.59348,-1.35741 -0.059,-0.059 -0.11804,-0.11803 -4.39682,-4.6624 -4.39682,-12.45275 0,-7.61329 3.9837,-12.36422 3.83615,-4.57388 10.00351,-4.89848 0.41312,-0.0295 0.85576,-0.0295 6.52146,0 10.6232,5.48865 z m -10.03302,3.74763 q -4.92799,0 -7.52477,4.0132 -2.09513,3.21647 -2.09513,8.32151 0,7.05262 3.74763,10.23958 2.39022,2.06563 5.96079,2.06563 5.01651,0 7.52477,-4.16076 1.88857,-3.09843 1.88857,-7.9674 0,-7.6428 -4.01321,-10.77074 -2.24268,-1.74102 -5.48865,-1.74102 z"
         style="font-style:normal;font-variant:normal;font-weight:normal;font-stretch:normal;font-family:Jamrul;-inkscape-font-specification:Jamrul;stroke-width:0.629522"
         id="path2649" />
      <path
         d="m 899.06851,317.71801 h 5.13454 v 5.72472 q 3.21647,-4.75093 6.3149,-6.01981 1.47545,-0.61969 3.18696,-0.61969 0.73773,0 2.12464,0.17705 v 5.13455 q -4.21977,0.059 -6.13784,0.97379 -0.56067,0.23608 -1.12134,0.61969 -3.92468,2.56727 -3.92468,9.23628 v 16.43645 h -5.57718 z"
         style="font-style:normal;font-variant:normal;font-weight:normal;font-stretch:normal;font-family:Jamrul;-inkscape-font-specification:Jamrul;stroke-width:0.629522"
         id="path2651" />
      <path
         d="m 950.70906,335.24629 h -25.67273 q 0.059,3.80664 1.29839,5.93128 0.26558,0.41313 0.56067,0.82625 2.44924,3.51156 6.9641,4.01321 0.6787,0.0885 1.38691,0.0885 6.81656,0 9.14776,-6.34441 h 5.57718 q -1.20987,6.04932 -6.2854,8.94119 -3.62959,2.06562 -8.61659,2.06562 -7.6428,0 -11.89208,-4.86897 -3.92468,-4.45584 -3.92468,-11.92159 0,-7.87887 4.42633,-12.57078 4.3083,-4.60339 11.50847,-4.60339 6.37391,0 10.6527,3.62959 0.76723,0.67871 1.44594,1.44594 1.23937,1.47544 2.03611,3.27549 1.35741,3.54106 1.38692,10.09204 z m -25.5547,-4.10174 h 19.5644 q 0.059,-0.14754 0.059,-0.38362 0,-3.95419 -2.83285,-6.63949 -2.77384,-2.6558 -6.81655,-2.6558 -4.83946,0 -7.6133,3.42303 -2.03611,2.50825 -2.36071,6.25588 z"
         style="font-style:normal;font-variant:normal;font-weight:normal;font-stretch:normal;font-family:Jamrul;-inkscape-font-specification:Jamrul;stroke-width:0.629522"
         id="path2653" />
      <path
         d="m 987.62468,335.24629 h -25.67273 q 0.059,3.80664 1.29839,5.93128 0.26558,0.41313 0.56067,0.82625 2.44923,3.51156 6.96409,4.01321 0.67871,0.0885 1.38692,0.0885 6.81655,0 9.14776,-6.34441 h 5.57718 q -1.20987,6.04932 -6.2854,8.94119 -3.62959,2.06562 -8.61659,2.06562 -7.6428,0 -11.89208,-4.86897 -3.92468,-4.45584 -3.92468,-11.92159 0,-7.87887 4.42633,-12.57078 4.3083,-4.60339 11.50846,-4.60339 6.37392,0 10.65271,3.62959 0.76723,0.67871 1.44594,1.44594 1.23937,1.47544 2.03611,3.27549 1.35741,3.54106 1.38692,10.09204 z m -25.5547,-4.10174 h 19.56439 q 0.059,-0.14754 0.059,-0.38362 0,-3.95419 -2.83285,-6.63949 -2.77384,-2.6558 -6.81655,-2.6558 -4.83946,0 -7.6133,3.42303 -2.03611,2.50825 -2.36071,6.25588 z"
         style="font-style:normal;font-variant:normal;font-weight:normal;font-stretch:normal;font-family:Jamrul;-inkscape-font-specification:Jamrul;stroke-width:0.629522"
         id="path2655" />
      <path
         d="m 995.00189,317.71801 h 5.13451 v 5.72472 q 3.2165,-4.75093 6.3149,-6.01981 1.4755,-0.61969 3.187,-0.61969 0.7377,0 2.1246,0.17705 v 5.13455 q -4.2197,0.059 -6.1378,0.97379 -0.5607,0.23608 -1.1214,0.61969 -3.9246,2.56727 -3.9246,9.23628 v 16.43645 h -5.57721 z"
         style="font-style:normal;font-variant:normal;font-weight:normal;font-stretch:normal;font-family:Jamrul;-inkscape-font-specification:Jamrul;stroke-width:0.629522"
         id="path2657" />
      <path
         d="m 1062.516,305.32427 v 44.05677 h -4.928 v -4.16075 q -3.187,4.19026 -7.4953,5.16405 -1.623,0.38362 -3.6001,0.38362 -7.3477,0 -11.4199,-5.01651 -3.7476,-4.57388 -3.7476,-12.2757 0,-7.6428 4.1902,-12.21668 4.1018,-4.45584 10.7708,-4.45584 7.0231,0 10.5642,4.72142 l 0.1475,0.17706 v -16.37744 z m -15.2856,16.20038 q -4.7215,0 -7.5248,3.6296 -2.5968,3.3345 -2.5968,8.6461 0,6.04932 3.3345,9.47235 2.7148,2.77384 6.8756,2.77384 4.6624,0 7.3182,-3.71812 2.3607,-3.27549 2.3607,-8.41003 0,-6.52147 -3.3935,-9.88548 -2.5378,-2.50826 -6.3739,-2.50826 z"
         style="font-style:normal;font-variant:normal;font-weight:normal;font-stretch:normal;font-family:Jamrul;-inkscape-font-specification:Jamrul;stroke-width:0.629522"
         id="path2659" />
      <path
         d="m 1100.6414,335.24629 h -25.6727 q 0.059,3.80664 1.2984,5.93128 0.2656,0.41313 0.5607,0.82625 2.4492,3.51156 6.9641,4.01321 0.6787,0.0885 1.3869,0.0885 6.8165,0 9.1477,-6.34441 h 5.5772 q -1.2098,6.04932 -6.2854,8.94119 -3.6296,2.06562 -8.6166,2.06562 -7.6428,0 -11.892,-4.86897 -3.9247,-4.45584 -3.9247,-11.92159 0,-7.87887 4.4263,-12.57078 4.3083,-4.60339 11.5085,-4.60339 6.3739,0 10.6527,3.62959 0.7672,0.67871 1.4459,1.44594 1.2394,1.47544 2.0361,3.27549 1.3574,3.54106 1.3869,10.09204 z m -25.5546,-4.10174 h 19.5643 q 0.059,-0.14754 0.059,-0.38362 0,-3.95419 -2.8329,-6.63949 -2.7738,-2.6558 -6.8165,-2.6558 -4.8395,0 -7.6133,3.42303 -2.0362,2.50825 -2.3607,6.25588 z"
         style="font-style:normal;font-variant:normal;font-weight:normal;font-stretch:normal;font-family:Jamrul;-inkscape-font-specification:Jamrul;stroke-width:0.629522"
         id="path2661" />
      <path
         d="m 1122.3895,349.38104 h -6.0493 l -12.2462,-31.66303 h 6.2559 l 9.3248,25.67273 9.8264,-25.67273 h 6.2264 z"
         style="font-style:normal;font-variant:normal;font-weight:normal;font-stretch:normal;font-family:Jamrul;-inkscape-font-specification:Jamrul;stroke-width:0.629522"
         id="path2663" />
    </g>
  </g>
</svg>
