<svg xmlns="http://www.w3.org/2000/svg" xmlns:xlink="http://www.w3.org/1999/xlink" width="2000" height="1000" viewBox="0 0 529.167 264.583"><defs><linearGradient id="b"><stop offset="0" stop-color="#e3e3e3"/><stop offset="1" stop-color="#e3e3e3" stop-opacity="0"/></linearGradient><linearGradient id="a"><stop offset="0" stop-color="#d4d4d4"/><stop offset="1" stop-color="#d4d4d4" stop-opacity="0"/></linearGradient><linearGradient id="c"><stop offset="0" stop-color="#e9c46a"/><stop offset="1" stop-color="#e9c46a" stop-opacity="0"/></linearGradient><linearGradient xlink:href="#a" id="d" x1="63.5" y1="201.284" x2="196.321" y2="43.063" gradientUnits="userSpaceOnUse" gradientTransform="translate(79.881 42.789) scale(.78368)"/><linearGradient xlink:href="#b" id="f" x1="43.682" y1="301.628" x2="44.677" y2="146.097" gradientUnits="userSpaceOnUse" gradientTransform="translate(79.881 42.789) scale(.78368)"/><radialGradient xlink:href="#c" id="e" cx="188.043" cy="150.698" fx="188.043" fy="150.698" r="124.165" gradientTransform="matrix(.8561 .09788 -.01811 .15842 25.203 165.694)" gradientUnits="userSpaceOnUse"/></defs><ellipse cx="183.14" cy="142.472" rx="70.913" ry="66.351" fill="url(#d)"/><path fill="#fff" d="M0 0h529.167v264.583H0z"/><path d="M86.15 207.998h194.61s-89.158 70.795-194.61 0z" fill="url(#e)"/><path d="M170.653 172.199l6.843 13.892 31.964 9.308s12.518 2.968 2.177 5.395c0 0 2.863 2.099-2.704 2.56-12.593 1.043-40.56-6.688-40.56-6.688z" fill="#d99e77"/><path d="M130.775 103.13s3.673 20.746-1.836 25.637l16.304 8.248 9.042-1.1.881-1.205s-2.597-11.526-2.597-17.342z" fill="#f6b285" stroke="#000" stroke-width=".195"/><path d="M130.117 104.054s2.222 12.293 7.998 15.996c5.776 3.702 18.217.148 18.217.148s3.702-9.48 2.666-16.144c0 0 5.332-17.18 3.11-29.028-2.222-11.849-31.25-6.073-31.25-6.073l-8.146 18.365z" fill="#fca" stroke="#000" stroke-width=".207"/><path d="M163.777 85.626l-3.509-3.56-2.094.942s-5.37-5.614-6.132-2.648c0 0 .066 1.186-1.227 1.034-.604-.072-.585-.505-1.165-1.08-1.01-1.002-2.27-2.147-3.834-1.914-2.46.367-1.257 1.1-1.257 1.1s-3.246 2.094-5.655 1.675c-2.408-.419-5.981 1.39-5.248 8.407.733 7.017-.435 18.504 12.218 18.09 9.317-.304 1.622-1.06 1.622-1.06l-3.094 4.724-10.42-1.937-2.566-6.179-1.623-10.001-2.147-8.64 2.095-4.556 8.377-2.409 7.384-1.204 4.346-.052 14.243 1.204-.89 6.703v.523" fill="#f6b285"/><path d="M153.043 97.256s2.046 3.194 1.1 3.717c-4.466 2.47-1.486-2.874-1.1-3.717zm-.173 11.222l-6.22.185-.667 5.22 6.22 1.593 5.628-.112.815-2.998.407-2.926z" fill="#f6b285"/><path d="M151.902 49.163c-8.122-.09-16.32 5.313-16.32 5.313-7.554-.26-5.036 3.888-5.036 3.888-14.847 1.185-12.552 7.96-12.552 7.96-12.367 7.331-4.591 13.256-4.591 13.256-1.925.555-.961 3.858-.961 3.858-2.074 2.3 1.918 3.916 3.071 4.322l.164.23c-2.9 2.816 7.202 5.632 7.202 5.632l5.882 1.228.568.098c-.262 3.677-.906 18.453 5.104 23.817 6.887 6.146 18.661 3.628 21.845 3.036 3.184-.593 2.518-5.11 2.518-5.11 1.865-9.396.364-12.524-6.924-12.626-7.073.011-8.701 4.999-8.701 4.999s-6.235.018-8.237-1.973c-3.877-11.63-5.829-19.558-4.114-25.93 0 0 4.472-2.809 3.53-.819 0 0 1.292-3.029 3.701-2.296 2.409.734 6.807 3.98 8.587-.733 0 0 1.781.314 3.351 2.095 1.572 1.78 1.99.942 1.99.942s-.104-4.294 6.808.42l3.351-.943.291 6.47c8.787.967 11.683-7.878 8.624-17.492-1.666-4.961-4.184-1.296-4.184-1.296-.518-4.59-1.259-14.699-10.516-17.661-1.446-.463-2.947-.668-4.451-.685zm1.81 59.292c1.86 1.544 4.647 1.113 4.647 1.113l-.864 3.351s-2.801 2.749-10.813-.34l.753-3.602s4.104 1.49 6.277-.522z" fill="#784421" stroke="#000" stroke-width=".207"/><path d="M130.546 58.364c-14.847 1.185-12.552 7.96-12.552 7.96-12.367 7.331-4.591 13.256-4.591 13.256-1.925.555-.961 3.858-.961 3.858-2.074 2.3 1.918 3.916 3.071 4.322l.164.23c-2.9 2.816 7.202 5.632 7.202 5.632 2.155.414 1.616.378 3.78.75l-.845-2.755c2.149 1.855 4.383 3.798 3.737 6.515-.262 3.678-1.128 15.27 4.882 20.633 6.887 6.146 19.624 3.443 22.808 2.85 3.184-.592 2.333-5.627 2.333-5.627 1.123-9.097 1.491-11.829-7.702-11.923-7.073.011-8.701 4.999-8.701 4.999s-6.235.018-8.237-1.972c-1.318-5.464-7.417-15.122-10.391-19.62l-1.75-.931c-7.755-3.134-4.17-12.45-.105-18.275-1.362-3.665 7.858-9.902 7.858-9.902zm23.166 50.09c1.86 1.545 4.647 1.114 4.647 1.114s-.647 4.749-2.23 5.334c-4.2 1.55-8.94-1.403-9.526-2.245l.832-3.68s4.104 1.49 6.277-.522zm13.31-32.924s-.01.2-.019.512c.025-.165.033-.336.02-.512zm-.019.512c-.38 2.514-4.865 3.785-4.865 3.785l.291 6.47c3.584.395 6.188-.843 7.807-3.1l-.02.004c-3.195.783-3.261-5.343-3.213-7.16z" fill="#552f17"/><path d="M151.902 49.163c-8.122-.09-16.32 5.313-16.32 5.313-7.554-.26-5.036 3.888-5.036 3.888-14.847 1.185-12.552 7.96-12.552 7.96-12.367 7.331-4.591 13.256-4.591 13.256-1.925.555-.961 3.858-.961 3.858-2.074 2.3 1.918 3.916 3.071 4.322l.164.23c-2.9 2.816 7.202 5.632 7.202 5.632l5.882 1.228.568.098c-.262 3.677-.906 18.453 5.104 23.817 6.887 6.146 19.55 3.48 22.734 2.888 3.184-.592 2.407-5.665 2.407-5.665 1.23-11.56.155-11.436-7.702-11.923-7.073.011-8.701 4.999-8.701 4.999s-6.235.018-8.237-1.973c-3.877-11.63-5.829-19.558-4.114-25.93 0 0 4.472-2.809 3.53-.819 0 0 1.292-3.029 3.701-2.296 2.409.734 6.807 3.98 8.587-.733 0 0 1.781.314 3.351 2.095 1.572 1.78 1.99.942 1.99.942s-.104-4.294 6.808.42l3.351-.943.291 6.47c8.787.967 11.683-7.878 8.624-17.492-1.666-4.961-4.184-1.296-4.184-1.296-.518-4.59-1.259-14.699-10.516-17.661-1.446-.463-2.947-.668-4.451-.685zm1.81 59.292c1.86 1.544 4.647 1.113 4.647 1.113l-.864 3.351s-2.801 2.749-10.813-.34l.753-3.602s4.104 1.49 6.277-.522z" fill="none" stroke="#000" stroke-width=".207"/><path d="M129.023 74.585c-6.146 4.888 1.797 6.577 1.797 6.577s4.472-2.81 3.53-.82c0 0 1.292-3.029 3.701-2.296 2.409.734 6.807 3.98 8.587-.733 0 0 1.781.314 3.351 2.095 1.572 1.78 1.99.942 1.99.942s-.066-2.81 3.571-1.385c-.404-2.726.798-5.342.798-5.342-14.884 3.777-10.663-4.74-10.663-4.74s-1.185-1.999-8.072.519c-4.862 2.535-6.59 3.122-7.843-.009-1.545.988-.454 4.564-.747 5.192z" fill="#552f17"/><path d="M149.85 110.428s2.467.881 4.506.294c2.04-.588.273.22.273.22s-3.297.905-4.27.098c-.972-.807-.51-.612-.51-.612z"/><path d="M122.763 97.326c.534 4.836 4 6.632 5.414 6.492 2.336-.233 2.389-4.125 1.872-6.69-1.662-8.246-7.732-5.277-7.286.198z" fill="#fca" stroke="#000" stroke-width=".186"/><path style="line-height:normal;font-variant-ligatures:normal;font-variant-position:normal;font-variant-caps:normal;font-variant-numeric:normal;font-variant-alternates:normal;font-feature-settings:normal;text-indent:0;text-align:start;text-decoration-line:none;text-decoration-style:solid;text-decoration-color:#000;text-transform:none;text-orientation:mixed;white-space:normal;shape-padding:0;isolation:auto;mix-blend-mode:normal;solid-color:#000;solid-opacity:1" d="M155.996 96.312c1.53 7.428.272 7.55-4.048 7.232-1.586 1.403 2.97.87 3.482.7 2.355-.267 1.404-6.13.174-9.87z" color="#000" font-weight="400" font-family="sans-serif" overflow="visible"/><path d="M124.057 94.786s2.404-4.885 4.625 3.802c0 0-1.358.404-.654 1.404-.823-6.805-3.97-5.206-3.97-5.206z" fill="#f6b285"/><path d="M124.057 94.786s2.404-4.885 4.625 3.802c0 0-1.358.404-.654 1.404" fill="none" stroke="#000" stroke-width=".207"/><path d="M124.108 92.955c-1.114 1.447-1.573 2.178-1.388 4.442.534 4.835 4 6.632 5.414 6.491.485-.048.53.215 1.777-1.387-7.082.332-7.4-6.503-5.803-9.546z" fill="#f6b285"/><path d="M122.763 97.326c.534 4.836 4 6.632 5.414 6.492 2.336-.233 2.389-4.125 1.872-6.69-1.662-8.246-7.732-5.277-7.286.198z" fill="none" stroke="#000" stroke-width=".186"/><g transform="translate(27.541 11.365) scale(.36346)"><ellipse cx="327.303" cy="229.682" rx="2.852" ry="3.871"/><ellipse cx="360.513" cy="229.478" rx="2.852" ry="3.871"/><path d="M319.934 226.47s2.847-7.874 10.69-5.837c0 0-2.636.877-5.402 2.344-3.247 1.722-5.288 3.493-5.288 3.493zm47.012 1.046s-.491-6.946-7.516-7.115c0 0 1.989 1.305 3.943 3.112 2.295 2.12 3.573 4.003 3.573 4.003z"/></g><path d="M151.646 93.081s2.069-1.197 3.864.21l-.011.528s-.93-1.335-3.908-.196z" stroke="#000" stroke-width=".19"/><path d="M129.07 92.795c-.57-.398.136-.364.035-.659-.213-.621 5.112-.79 10.104-.874l-.36 1.165s-5.276-.18-9.779.368z" stroke="#000" stroke-width=".159"/><path d="M150.88 94.925s-.833 3.795-2.296 3.795c-1.462 0-7.368.167-8.405-.888-1.036-1.056-.722-5.832-.722-5.832l1.26-1.259 2.98-.296h3.462s1.87-.018 2.055.111c.185.13 1.777 1.11 1.814 1.185.037.074.389 1.87.389 1.87z" fill="#b8fdfa" fill-opacity=".437"/><path d="M138.802 93.927s-.444-3.628 2.814-3.665c2.285-.026 7.598-.186 8.906.352 1.815.748.912 4.34.912 4.34s-.48.005-.552-.174c-.12-.298.62-2.963-.824-3.63-1.444-.666-6.11-.48-8.516-.37-2.407.111-1.888 2.259-2.148 3.073-.259.815-.592.43-.592.074z" stroke="#000" stroke-width=".207"/><path d="M161.677 92.218s-.593-.126 4.13-.175l-.025.664-4.243-.033z" stroke="#000" stroke-width=".117"/><path d="M155.964 95.013s.723 3.202 1.991 3.202c1.269 0 6.391.14 7.29-.75.9-.89.627-4.92.627-4.92l-1.092-1.061-2.585-.25h-3.003s-1.622-.016-1.782.093c-.161.11-1.542.937-1.574 1-.032.062-.338 1.577-.338 1.577z" fill="#b8fdfa" fill-opacity=".437"/><path d="M155.41 94.4s-.378-3.522 2.401-3.557c1.95-.026 6.482-.181 7.597.341 1.549.726.791 3.546.791 3.546s-.41.005-.47-.17c-.103-.288.515-2.208-.717-2.855-1.232-.647-5.21-.467-7.264-.36-2.053.109-1.61 2.193-1.832 2.984-.22.79-.505.418-.505.072z" stroke="#000" stroke-width=".189"/><path d="M110.588 132.316c5.583-7.567 21.475-3.702 21.475-3.702s12.84 6.635 20.328 5.48c2.058-.318 2.85-1 1.814-4.11 0 0 4.24 1.68 6.23 2.413 9.537 3.74 11.52 48.4 14.298 75.848-24.948-1.203-34.717.546-52.595-.583l-10.33-34.525" fill="#264653" stroke="#000" stroke-width=".207"/><g transform="translate(27.541 11.365) scale(.36346)"><path d="M481.442 548.237l-133.412-10.27v8.932l133.34 11.998 12.807-3.108-6.551-7.945z" fill="#020202" stroke="#000" stroke-width=".57"/><path d="M347.704 538.578l152.25-5.036-2.305 12.533-17 2.594z" fill="#262626" stroke="#000" stroke-width=".57"/><path d="M494.017 535.076s-91.164 2.884-90.155 2.884c1.008 0 76.245 3.212 76.245 3.212l12.273-1.62z" fill="#4c4c4c"/><path d="M483.218 558.613l46.974-153.823 151.72-7.248 3.389 1.164-51.22 141.75-147.665 19.474z" fill="#020202" stroke="#000" stroke-width=".57"/><path d="M486.615 559.904l46.974-153.823 151.72-7.248-47.83 142.915z" fill="#393939" stroke="#000" stroke-width=".57"/><path d="M555.392 415.87l-1.188.831.85 2.217-5.297 4.074-.984-1.93-2.355 1.891.995 2.026-5.857 4.788-1.079-2.043-3.745 3.008.707 1.476.805-.612 2.388 5.195 17.35-14.27z" fill="#6f6f6f"/><ellipse cx="542.447" cy="427.143" rx="1.095" ry="1.197" fill="#f33"/><path d="M481.442 548.237l-133.412-10.27v8.932l133.34 11.998 12.807-3.108-6.551-7.945z" fill="#020202" stroke="#000" stroke-width=".57"/><path d="M347.704 538.578l152.25-5.036-2.305 12.533-17 2.594z" fill="#262626" stroke="#000" stroke-width=".57"/><path d="M494.017 535.076s-91.164 2.884-90.155 2.884c1.008 0 76.245 3.212 76.245 3.212l12.273-1.62z" fill="#4c4c4c"/><path d="M483.218 558.613l46.974-153.823 151.72-7.248 3.389 1.164-51.22 141.75-147.665 19.474z" fill="#020202" stroke="#000" stroke-width=".57"/><path d="M486.615 559.904l46.974-153.823 151.72-7.248-47.83 142.915z" fill="#393939" stroke="#000" stroke-width=".57"/><path d="M555.392 415.87l-1.188.831.85 2.217-5.297 4.074-.984-1.93-2.355 1.891.995 2.026-5.857 4.788-1.079-2.043-3.745 3.008.707 1.476.805-.612 2.388 5.195 17.35-14.27z" fill="#6f6f6f"/><ellipse ry="1.197" rx="1.095" cy="427.143" cx="542.447" fill="#f33"/></g><path d="M129.903 193.79c-5.473-20.847-9.476-36.045-9.476-36.045s-11.078 1.19-13.252 5.588c-6.53 13.208 11.126 42.78 11.126 42.78s1.361 2.827 5.236 1.78c1.54-.416 7.668 1.325 16.996.63 14.157-1.056 32.983-4.54 32.983-4.54s5.718-9.387 1.968-8.7c-26.449 4.84-47.705-8.545-48.543 2.608" fill="#f6b285" stroke="#000" stroke-width=".208"/><path d="M175.766 199.698c1.049-2.371 1.682-4.775-.282-4.415-26.449 4.84-47.705-8.545-48.543 2.608 0 0 3.504 1.687 24.683 2.17 12.33.28 24.142-.363 24.142-.363z" fill="#fca"/><path d="M129.903 193.79c-5.473-20.847-9.476-36.045-9.476-36.045s-11.078 1.19-13.252 5.588c-6.53 13.208 11.126 42.78 11.126 42.78s1.361 2.827 5.236 1.78c1.54-.416 7.668 1.325 16.996.63 14.157-1.056 32.983-4.54 32.983-4.54s5.718-9.387 1.968-8.7c-26.449 4.84-47.705-8.545-48.543 2.608" fill="none" stroke="#000" stroke-width=".208"/><path d="M187.236 188.538c-.927-.04-3.014 1.127-4.125 2.098-1.185 1.037-8.887 4.888-8.887 4.888l-2.591 8.22s6.294 3.998 15.107-3.407l1.332-.666 2.666.37 1.407 1.704s-.445 2.887.963 2.887c0 0 1.003.275 1.704-2.263 1.55 2.571 2.444 1.448 2.887 1.078.145-.12.203-.651.215-1.31.888 1.864 2.165 1.9 3.117 1.607.963-.296 0-1.26 0-1.26l-2.221-4.442s-.177-.509-.455-1.174c-.091-.876-.954-4.356-1.666-4.973-.843-.73-2.099-.973-3.404-1.456-2.366-.876-5.354-1.733-5.88-1.876a.774.774 0 00-.169-.025z" fill="#f6b285"/><path d="M170.688 203.374s7.035 4.702 16.051-3.036l1.333-.667 2.666.37 1.407 1.703s-.444 2.888.963 2.888c0 0 1.333.37 2-3.629 0 0-1.111-2.888-2.518-4.442 0 0-4.814-.89-5.776-1.407" fill="none" stroke="#000" stroke-width=".207"/><path d="M188.076 191.699s5.995 1.53 6.81 1.9c.813.37 1.036 1.259 1.036 1.259l1.851 3.999s.37 4.22-.074 4.59c-.444.37-1.341 1.5-2.897-1.093" fill="none" stroke="#000" stroke-width=".207"/><path d="M173.962 195.576s7.964-3.903 9.149-4.94c1.185-1.036 3.48-2.295 4.295-2.073.525.143 3.513 1 5.88 1.876 1.304.483 2.56.725 3.403 1.456.752.652 1.675 4.509 1.675 5.1" fill="none" stroke="#000" stroke-width=".207"/><path d="M187.236 188.538c-.927-.04-3.014 1.127-4.125 2.098-1.185 1.037-8.887 4.888-8.887 4.888l-1.514 4.347c3.797-.502 12.478-3.775 14.59-8.789.501-1.19 2.252-.415 2.252-.415l3.781 1.125 3.271 1.922 1.522 2.317c-.21-1.113-1.133-3.873-1.437-4.136-.843-.73-2.099-.973-3.404-1.456-2.366-.876-5.354-1.733-5.88-1.876a.774.774 0 00-.169-.025z" fill="#fca"/><path d="M187.236 188.538c-.927-.04-3.014 1.127-4.125 2.098-1.185 1.037-8.887 4.888-8.887 4.888l-2.591 8.22s6.294 3.998 15.107-3.407l1.332-.666 2.666.37 1.407 1.704s-.445 2.887.963 2.887c0 0 1.003.275 1.704-2.263 1.55 2.571 2.444 1.448 2.887 1.078.145-.12.203-.651.215-1.31.888 1.864 2.165 1.9 3.117 1.607.963-.296 0-1.26 0-1.26l-2.221-4.442s-.177-.509-.455-1.174c-.091-.876-.954-4.356-1.666-4.973-.843-.73-2.099-.973-3.404-1.456-2.366-.876-5.354-1.733-5.88-1.876a.774.774 0 00-.169-.025z" fill="none"/><path d="M189.163 190.38s5.505 1.651 7.5 3.57c1.11 1.068 2.147 4.092 2.147 4.092l2.221 4.443s.963.963 0 1.259c-.962.296-2.258.26-3.147-1.666" fill="none" stroke="#000" stroke-width=".207"/><path d="M124.658 168.602s-20.1 8.48-28.66 4.065c5.056-11.747 3.483-22.762 9.72-36.58 6.404-14.186 26.345-7.473 26.345-7.473" fill="#264653" stroke="#000" stroke-width=".207"/><path d="M107.272 204.287c-2.644-.26-7.185.06-7.764 5.144-.6 5.266 8.404 6.199 8.404 6.199l.211-1.793c-1.355-.198-6.364-1.14-6.013-4.22.418-3.667 4.26-3.625 6.155-3.374.293.039.531.081.71.116l.193-1.75s-.553-.151-1.394-.264a15.468 15.468 0 00-.501-.059z" fill="#e76f51" stroke="#000" stroke-width=".155"/><path d="M115.551 199.028c-5.724 0-10.363 1.376-10.364 3.074l.001.007c-.004 5.412.64 10.826.634 16.238 0 1.697 4.006 3.074 9.73 3.074 5.723 0 9.55-1.378 9.626-3.074l.737-16.245c0-1.698-4.64-3.074-10.364-3.074z" fill="#e76f51" stroke="#100701" stroke-width=".124" stroke-opacity=".995"/><path d="M124.24 201.846a8.61 1.9 0 01-8.61 1.9 8.61 1.9 0 01-8.61-1.9 8.61 1.9 0 018.61-1.901 8.61 1.9 0 018.61 1.9z" fill="#af3618"/><path d="M124.24 201.846c0 1.05-3.855 1.9-8.61 1.9-4.756 0-8.61-.85-8.61-1.9" fill="none" stroke="#120000" stroke-width=".157"/><path d="M115.73 201.2a8.61 1.9 0 00-8.127 1.28 8.61 1.9 0 008.126 1.279 8.61 1.9 0 008.126-1.279 8.61 1.9 0 00-8.126-1.28z" fill="#1e0905"/><path d="M117.293 183.91c3.318-8.708 14.929-9.498 7.776-19.905-7.9-11.494-3.098-15.492-3.098-15.492l-17.647-.163c-4.458 5.184-1.037 11.819 2.073 15.551 3.11 3.732.726 13.789-5.184 22.497-5.909 8.709 5.806 15.448 5.806 15.448 0 1.05 3.855 1.9 8.61 1.9 4.756 0 8.61-.85 8.61-1.9 0 0-10.263-9.227-6.946-17.936z" fill="url(#f)"/><g font-weight="400" font-size="22.578" font-family="sans-serif" letter-spacing="0" word-spacing="0"><path d="M423.324 122.096h3.269v3.935h-3.27z" style="line-height:1.25" fill="#e76f51"/><g style="line-height:1.25;-inkscape-font-specification:'sans-serif Bold'"><path d="M321.567 113.24h1.866v1.62q1.104-1.416 2.477-1.781.622-.172 1.416-.172 1.866 0 2.853 1.03.3.31.558.73 1.104-1.223 2.274-1.556.686-.204 1.608-.204 2.51 0 3.336 1.61.343.675.343 1.597v8.634h-2.027v-7.926q0-1.48-1.105-2.038-.525-.268-1.244-.268-1.265 0-2.145.922-.826.87-.826 2.081v7.23h-2.027v-7.927q0-1.609-1.244-2.113l-.418-.129q-.322-.064-.687-.064-1.265 0-2.156.922-.825.87-.825 2.081v7.23h-2.027zm31.361 10.436v1.383q-.858.193-1.384.193-1.512 0-1.92-1.04-.118-.28-.16-.654-1.706 1.415-3.465 1.64-.397.054-.837.054-2.263 0-3.378-1.244-.772-.869-.772-2.156 0-2.252 2.21-3.078.75-.279 2.005-.45.654-.097 2.059-.258 1.555-.171 1.93-.654.183-.236.183-.611v-.483q0-1.19-1.47-1.566-.579-.15-1.362-.15-2.177 0-2.756 1.223l-.14.386q-.053.203-.075.429h-2.037q.064-1.373.632-2.113.118-.14.247-.28 1.094-1.115 3.368-1.308.397-.032.826-.032 3.614 0 4.504 1.866l.161.43q.108.386.108.847v6.768q0 .761.804.879.129.021.279.021.214 0 .44-.042zm-3.53-2.553v-2.06q-.686.28-1.865.451l-1.384.182q-2.22.3-2.8 1.18-.246.386-.246.933 0 1.18 1.148 1.63.568.215 1.34.215 1.749 0 3.004-1.04.664-.558.772-1.116.032-.171.032-.375zm10.147-7.883v1.49h-2.08v7.884q0 .73.375.922.236.118.74.118.633 0 .965-.096v1.544q-.944.15-1.64.15-1.846 0-2.307-1.105-.14-.321-.14-.718v-8.698h-1.705v-1.491h1.706v-3.164h2.005v3.164zm6.704 0v1.49h-2.081v7.884q0 .73.375.922.236.118.74.118.633 0 .966-.096v1.544q-.944.15-1.641.15-1.845 0-2.306-1.105-.14-.321-.14-.718v-8.698h-1.705v-1.491h1.705v-3.164h2.006v3.164zm10.521 0h1.856v9.62q0 2.853-.644 4.205-.268.547-.676.997-.954 1.073-3.003 1.373-.643.097-1.33.097-2.863 0-4.183-1.459-.75-.826-.868-2.006h2.059q.14.751.525 1.116.108.096.247.204.858.61 2.295.61 1.641 0 2.553-.804.14-.128.257-.268.687-.868.72-2.874v-.858q-1.18 1.501-2.51 1.888-.44.128-.945.16-.182.011-.386.011-1.64 0-3.003-.997-.31-.226-.579-.494l-.043-.043q-1.598-1.694-1.598-4.526 0-2.767 1.448-4.494 1.394-1.662 3.636-1.78.15-.01.311-.01 2.37 0 3.861 1.994zm-3.647 1.362q-1.79 0-2.734 1.459-.762 1.169-.762 3.024 0 2.563 1.362 3.722.869.75 2.167.75 1.823 0 2.735-1.512.686-1.126.686-2.896 0-2.777-1.459-3.914-.815-.633-1.995-.633zm8.774-1.362h1.866v2.08q1.17-1.726 2.295-2.188.537-.225 1.159-.225.268 0 .772.065v1.866q-1.534.021-2.231.354-.204.086-.408.225-1.426.933-1.426 3.357v5.974h-2.027zm18.769 6.37h-9.33q.02 1.384.471 2.156.097.15.204.3.89 1.277 2.531 1.46.247.032.504.032 2.478 0 3.325-2.306h2.027q-.44 2.198-2.284 3.25-1.32.75-3.132.75-2.778 0-4.323-1.77-1.426-1.62-1.426-4.333 0-2.863 1.609-4.569 1.566-1.673 4.183-1.673 2.316 0 3.872 1.32.278.246.525.525.45.536.74 1.19.494 1.288.504 3.669zm-9.288-1.49h7.111q.021-.054.021-.14 0-1.437-1.03-2.413-1.007-.965-2.477-.965-1.759 0-2.767 1.244-.74.912-.858 2.274zm22.706 1.49h-9.331q.021 1.384.472 2.156.096.15.203.3.89 1.277 2.532 1.46.246.032.504.032 2.477 0 3.325-2.306h2.027q-.44 2.198-2.285 3.25-1.32.75-3.132.75-2.778 0-4.322-1.77-1.427-1.62-1.427-4.333 0-2.863 1.61-4.569 1.565-1.673 4.182-1.673 2.317 0 3.872 1.32.279.246.526.525.45.536.74 1.19.493 1.288.504 3.669zm-9.288-1.49h7.11q.022-.054.022-.14 0-1.437-1.03-2.413-1.008-.965-2.477-.965-1.76 0-2.767 1.244-.74.912-.858 2.274zm11.969-4.88h1.866v2.08q1.17-1.726 2.296-2.188.536-.225 1.158-.225.268 0 .772.065v1.866q-1.534.021-2.23.354-.205.086-.408.225-1.427.933-1.427 3.357v5.974h-2.027zm24.539-4.505v16.013h-1.791v-1.512q-1.159 1.523-2.724 1.877-.59.14-1.309.14-2.67 0-4.15-1.824-1.363-1.663-1.363-4.462 0-2.778 1.523-4.44 1.491-1.62 3.915-1.62 2.553 0 3.84 1.716l.053.065v-5.953zm-5.556 5.888q-1.716 0-2.735 1.32-.944 1.212-.944 3.142 0 2.199 1.212 3.443.987 1.008 2.5 1.008 1.694 0 2.66-1.351.857-1.19.857-3.057 0-2.37-1.233-3.593-.922-.912-2.317-.912zm19.413 4.987h-9.33q.02 1.384.471 2.156.097.15.204.3.89 1.277 2.531 1.46.247.032.504.032 2.478 0 3.325-2.306h2.027q-.44 2.198-2.284 3.25-1.32.75-3.132.75-2.778 0-4.323-1.77-1.426-1.62-1.426-4.333 0-2.863 1.609-4.569 1.566-1.673 4.183-1.673 2.316 0 3.871 1.32.28.246.526.525.45.536.74 1.19.493 1.288.504 3.669zm-9.288-1.49h7.11q.022-.054.022-.14 0-1.437-1.03-2.413-1.007-.965-2.477-.965-1.759 0-2.767 1.244-.74.912-.858 2.274zm17.193 6.628h-2.199l-4.451-11.508h2.274l3.389 9.33 3.572-9.33h2.263z" style="-inkscape-font-specification:Jamrul" aria-label="mattgreerdev" font-size="60.434" font-family="Jamrul"/></g></g></svg>