<svg xmlns="http://www.w3.org/2000/svg" xmlns:xlink="http://www.w3.org/1999/xlink" width="1200mm" height="630mm" viewBox="0 0 1200 630"><defs><linearGradient id="b"><stop offset="0" stop-color="#e3e3e3"/><stop offset="1" stop-color="#e3e3e3" stop-opacity="0"/></linearGradient><linearGradient id="a"><stop offset="0" stop-color="#d4d4d4"/><stop offset="1" stop-color="#d4d4d4" stop-opacity="0"/></linearGradient><linearGradient id="c"><stop offset="0" stop-color="#e9c46a"/><stop offset="1" stop-color="#e9c46a" stop-opacity="0"/></linearGradient><linearGradient xlink:href="#a" id="d" x1="63.5" y1="201.284" x2="196.321" y2="43.063" gradientUnits="userSpaceOnUse" gradientTransform="translate(88.126 42.274) scale(2.15614)"/><linearGradient xlink:href="#b" id="f" x1="43.682" y1="301.628" x2="44.677" y2="146.097" gradientUnits="userSpaceOnUse" gradientTransform="translate(88.126 42.274) scale(2.15614)"/><radialGradient xlink:href="#c" id="e" cx="188.043" cy="150.698" fx="188.043" fy="150.698" r="124.165" gradientTransform="matrix(2.35538 .26929 -.04983 .43585 -6.433 424.607)" gradientUnits="userSpaceOnUse"/></defs><ellipse cx="372.224" cy="316.535" rx="195.103" ry="182.553" fill="url(#d)"/><path fill="#fff" d="M-32.354-68.823H1287.16V685.52H-32.354z"/><path d="M161.253 541h535.434s-245.305 194.777-535.434 0z" fill="url(#e)" transform="translate(-55.878 -44.183)"/><path d="M337.869 398.321l18.826 38.222 87.944 25.61s34.44 8.165 5.989 14.842c0 0 7.876 5.775-7.44 7.044-34.648 2.87-111.594-18.401-111.594-18.401z" fill="#d99e77"/><path d="M228.152 208.293s10.104 57.078-5.052 70.533l44.856 22.694 24.879-3.027 2.424-3.315s-7.145-31.712-7.145-47.712z" fill="#f6b285" stroke="#000" stroke-width=".537"/><path d="M226.34 210.835s6.113 33.821 22.005 44.008c15.892 10.187 50.12.408 50.12.408s10.187-26.08 7.335-44.416c0 0 14.67-47.268 8.557-79.867-6.112-32.599-85.979-16.707-85.979-16.707l-22.412 50.528z" fill="#fca" stroke="#000" stroke-width=".57"/><path d="M318.949 160.133l-9.653-9.797-5.762 2.593s-14.775-15.445-16.87-7.284c0 0 .18 3.263-3.377 2.843-1.662-.196-1.609-1.388-3.205-2.971-2.778-2.756-6.248-5.906-10.548-5.265-6.771 1.008-3.458 3.025-3.458 3.025s-8.932 5.763-15.56 4.61c-6.626-1.152-16.456 3.826-14.439 23.131 2.017 19.305-1.195 50.91 33.617 49.772 25.632-.838 4.462-2.917 4.462-2.917l-8.512 12.997-28.67-5.33-7.059-17-4.466-27.517-5.907-23.772 5.763-12.533 23.05-6.628 20.314-3.313 11.958-.144 39.186 3.313-2.449 18.441v1.44" fill="#f6b285"/><path d="M289.417 192.13s5.63 8.788 3.025 10.228c-12.285 6.795-4.086-7.908-3.025-10.229zm-.476 30.875l-17.114.509-1.834 14.363 17.114 4.381 15.484-.306 2.242-8.25 1.12-8.049z" fill="#f6b285"/><path d="M286.277 59.812c-22.346-.25-44.902 14.617-44.902 14.617-20.782-.713-13.854 10.697-13.854 10.697-40.85 3.26-34.534 21.902-34.534 21.902-34.025 20.17-12.632 36.47-12.632 36.47-5.297 1.528-2.644 10.615-2.644 10.615-5.705 6.326 5.278 10.774 8.45 11.891l.45.632c-7.979 7.749 19.816 15.495 19.816 15.495l16.184 3.38 1.561.269c-.72 10.118-2.492 50.77 14.043 65.528 18.948 16.91 51.343 9.983 60.104 8.353 8.76-1.63 6.927-14.058 6.927-14.058 5.13-25.853 1-34.458-19.05-34.738-19.46.03-23.94 13.752-23.94 13.752s-17.154.05-22.662-5.427c-10.666-31.999-16.037-53.811-11.32-71.34 0 0 12.306-7.73 9.713-2.255 0 0 3.555-8.333 10.183-6.316 6.627 2.017 18.728 10.95 23.626-2.017 0 0 4.899.864 9.22 5.763 4.323 4.898 5.476 2.592 5.476 2.592s-.288-11.814 18.729 1.153l9.22-2.593.801 17.804c24.174 2.659 32.142-21.678 23.726-48.128-4.584-13.65-11.51-3.565-11.51-3.565-1.427-12.632-3.465-40.442-28.933-48.592-3.979-1.273-8.11-1.838-12.248-1.884zm4.98 163.13c5.118 4.247 12.786 3.062 12.786 3.062l-2.377 9.22s-7.707 7.563-29.75-.937l2.072-9.909s11.29 4.101 17.269-1.436z" fill="#784421" stroke="#000" stroke-width=".57"/><path d="M227.521 85.126c-40.85 3.26-34.534 21.902-34.534 21.902-34.025 20.17-12.632 36.47-12.632 36.47-5.297 1.528-2.644 10.615-2.644 10.615-5.705 6.326 5.278 10.774 8.45 11.891l.45.632c-7.979 7.749 19.816 15.495 19.816 15.495 5.93 1.14 4.447 1.04 10.398 2.064l-2.324-7.58c5.912 5.105 12.06 10.45 10.282 17.926-.72 10.118-3.103 42.01 13.432 56.767 18.948 16.91 53.992 9.474 62.753 7.844 8.76-1.63 6.417-15.485 6.417-15.485 3.09-25.029 4.104-32.543-21.189-32.802-19.46.03-23.94 13.752-23.94 13.752s-17.154.05-22.662-5.426c-3.627-15.033-20.407-41.605-28.59-53.982l-4.816-2.56c-21.334-8.622-11.47-34.253-.287-50.28-3.746-10.084 21.62-27.243 21.62-27.243zm63.736 137.816c5.118 4.247 12.786 3.062 12.786 3.062s-1.779 13.066-6.136 14.675c-11.553 4.267-24.594-3.86-26.207-6.176l2.288-10.125s11.29 4.101 17.269-1.436zm36.623-90.586s-.031.55-.054 1.407c.068-.454.089-.923.053-1.407zm-.054 1.407c-1.045 6.919-13.385 10.414-13.385 10.414l.8 17.804c9.86 1.084 17.024-2.323 21.48-8.532-.02.004-.035.01-.054.013-8.792 2.152-8.975-14.702-8.841-19.7z" fill="#552f17"/><path d="M286.277 59.812c-22.346-.25-44.902 14.617-44.902 14.617-20.782-.713-13.854 10.697-13.854 10.697-40.85 3.26-34.534 21.902-34.534 21.902-34.025 20.17-12.632 36.47-12.632 36.47-5.297 1.528-2.644 10.615-2.644 10.615-5.705 6.326 5.278 10.774 8.45 11.891l.45.632c-7.979 7.749 19.816 15.495 19.816 15.495l16.184 3.38 1.561.269c-.72 10.118-2.492 50.77 14.043 65.528 18.948 16.91 53.788 9.575 62.549 7.946 8.76-1.63 6.621-15.587 6.621-15.587 3.384-31.806.428-31.463-21.189-32.802-19.46.03-23.94 13.752-23.94 13.752s-17.154.05-22.662-5.427c-10.666-31.999-16.037-53.811-11.32-71.34 0 0 12.306-7.73 9.713-2.255 0 0 3.555-8.333 10.183-6.316 6.627 2.017 18.728 10.95 23.626-2.017 0 0 4.899.864 9.22 5.763 4.323 4.898 5.476 2.592 5.476 2.592s-.288-11.814 18.729 1.153l9.22-2.593.801 17.804c24.174 2.659 32.142-21.678 23.726-48.128-4.584-13.65-11.51-3.565-11.51-3.565-1.427-12.632-3.465-40.442-28.933-48.592-3.979-1.273-8.11-1.838-12.248-1.884zm4.98 163.13c5.118 4.247 12.786 3.062 12.786 3.062l-2.377 9.22s-7.707 7.563-29.75-.937l2.072-9.909s11.29 4.101 17.269-1.436z" fill="none" stroke="#000" stroke-width=".57"/><path d="M223.33 129.756c-16.91 13.447 4.944 18.094 4.944 18.094s12.306-7.73 9.713-2.255c0 0 3.555-8.333 10.183-6.316 6.627 2.017 18.728 10.95 23.626-2.017 0 0 4.899.864 9.22 5.763 4.323 4.898 5.476 2.592 5.476 2.592s-.185-7.732 9.823-3.811c-1.113-7.5 2.196-14.698 2.196-14.698-40.952 10.391-29.338-13.04-29.338-13.04s-3.26-5.5-22.208 1.427c-13.378 6.974-18.13 8.59-21.578-.023-4.252 2.718-1.25 12.556-2.056 14.284z" fill="#552f17"/><path d="M280.632 228.371s6.787 2.424 12.399.808c5.612-1.616.75.606.75.606s-9.07 2.491-11.746.27c-2.676-2.222-1.403-1.684-1.403-1.684z"/><path d="M206.107 192.324c1.47 13.304 11.004 18.247 14.897 17.86 6.426-.64 6.572-11.348 5.15-18.407-4.572-22.685-21.274-14.517-20.047.547z" fill="#fca" stroke="#000" stroke-width=".513"/><path style="line-height:normal;font-variant-ligatures:normal;font-variant-position:normal;font-variant-caps:normal;font-variant-numeric:normal;font-variant-alternates:normal;font-feature-settings:normal;text-indent:0;text-align:start;text-decoration-line:none;text-decoration-style:solid;text-decoration-color:#000;text-transform:none;text-orientation:mixed;white-space:normal;shape-padding:0;isolation:auto;mix-blend-mode:normal;solid-color:#000;solid-opacity:1" d="M297.542 189.534c4.211 20.437.749 20.773-11.137 19.896-4.364 3.86 8.17 2.396 9.579 1.926 6.479-.735 3.863-16.864.478-27.153z" color="#000" font-weight="400" font-family="sans-serif" overflow="visible"/><path d="M209.669 185.334s6.614-13.44 12.723 10.462c0 0-3.736 1.112-1.8 3.863-2.262-18.723-10.923-14.325-10.923-14.325z" fill="#f6b285"/><path d="M209.669 185.334s6.614-13.44 12.723 10.462c0 0-3.736 1.112-1.8 3.863" fill="none" stroke="#000" stroke-width=".57"/><path d="M209.808 180.297c-3.065 3.98-4.327 5.993-3.82 12.22 1.471 13.304 11.005 18.248 14.897 17.86 1.335-.132 1.46.592 4.888-3.817-19.483.914-20.357-17.89-15.965-26.263z" fill="#f6b285"/><path d="M206.107 192.324c1.47 13.304 11.004 18.247 14.897 17.86 6.426-.64 6.572-11.348 5.15-18.407-4.572-22.685-21.274-14.517-20.047.547z" fill="none" stroke="#000" stroke-width=".513"/><g transform="translate(-55.878 -44.183)"><ellipse cx="327.303" cy="229.682" rx="2.852" ry="3.871"/><ellipse cx="360.513" cy="229.478" rx="2.852" ry="3.871"/><path d="M319.934 226.47s2.847-7.874 10.69-5.837c0 0-2.636.877-5.402 2.344-3.247 1.722-5.288 3.493-5.288 3.493zm47.012 1.046s-.491-6.946-7.516-7.115c0 0 1.989 1.305 3.943 3.112 2.295 2.12 3.573 4.003 3.573 4.003z"/></g><path d="M285.573 180.645s5.692-3.296 10.632.575l-.032 1.455s-2.56-3.673-10.75-.54z" stroke="#000" stroke-width=".522"/><path d="M223.46 179.858c-1.57-1.096.373-1.004.096-1.813-.585-1.71 14.065-2.177 27.8-2.407l-.99 3.205s-14.516-.495-26.906 1.015z" stroke="#000" stroke-width=".437"/><path d="M283.466 185.717s-2.292 10.442-6.316 10.442-20.273.459-23.125-2.445c-2.852-2.903-1.987-16.044-1.987-16.044l3.464-3.464 8.2-.815h9.526s5.144-.05 5.654.306c.509.356 4.89 3.056 4.991 3.26.102.203 1.07 5.144 1.07 5.144z" fill="#b8fdfa" fill-opacity=".437"/><path d="M250.236 182.972s-1.222-9.983 7.742-10.085c6.287-.071 20.905-.511 24.502.97 4.996 2.057 2.51 11.94 2.51 11.94s-1.32.013-1.518-.48c-.331-.818 1.706-8.151-2.267-9.985-3.973-1.834-16.809-1.324-23.43-1.019-6.622.306-5.196 6.215-5.91 8.456-.712 2.24-1.629 1.183-1.629.203z" stroke="#000" stroke-width=".57"/><path d="M313.172 178.269s-1.631-.347 11.363-.48l-.07 1.826-11.673-.09z" stroke="#000" stroke-width=".323"/><path d="M297.454 185.96s1.988 8.808 5.479 8.808c3.49 0 17.583.387 20.057-2.062 2.474-2.45 1.723-13.535 1.723-13.535l-3.004-2.922-7.113-.688h-8.261s-4.463-.043-4.904.258c-.442.3-4.242 2.578-4.33 2.75-.088.172-.928 4.34-.928 4.34z" fill="#b8fdfa" fill-opacity=".437"/><path d="M295.932 184.275s-1.043-9.692 6.604-9.79c5.363-.07 17.833-.497 20.9.94 4.262 1.998 2.178 9.755 2.178 9.755s-1.126.013-1.295-.465c-.282-.795 1.419-6.077-1.97-7.857-3.39-1.78-14.338-1.286-19.987-.989-5.648.297-4.432 6.032-5.04 8.208-.608 2.176-1.39 1.149-1.39.198z" stroke="#000" stroke-width=".519"/><path d="M172.61 288.592c15.36-20.82 59.085-10.187 59.085-10.187s35.326 18.255 55.928 15.077c5.663-.874 7.844-2.75 4.991-11.308 0 0 11.666 4.624 17.14 6.641 26.24 10.29 31.695 133.162 39.339 208.68-68.639-3.308-95.517 1.504-144.705-1.603l-28.42-94.99" fill="#264653" stroke="#000" stroke-width=".57"/><g transform="translate(-55.878 -44.183)"><path d="M481.442 548.237l-133.412-10.27v8.932l133.34 11.998 12.807-3.108-6.551-7.945z" fill="#020202" stroke="#000" stroke-width=".57"/><path d="M347.704 538.578l152.25-5.036-2.305 12.533-17 2.594z" fill="#262626" stroke="#000" stroke-width=".57"/><path d="M494.017 535.076s-91.164 2.884-90.155 2.884c1.008 0 76.245 3.212 76.245 3.212l12.273-1.62z" fill="#4c4c4c"/><path d="M483.218 558.613l46.974-153.823 151.72-7.248 3.389 1.164-51.22 141.75-147.665 19.474z" fill="#020202" stroke="#000" stroke-width=".57"/><path d="M486.615 559.904l46.974-153.823 151.72-7.248-47.83 142.915z" fill="#393939" stroke="#000" stroke-width=".57"/><path d="M555.392 415.87l-1.188.831.85 2.217-5.297 4.074-.984-1.93-2.355 1.891.995 2.026-5.857 4.788-1.079-2.043-3.745 3.008.707 1.476.805-.612 2.388 5.195 17.35-14.27z" fill="#6f6f6f"/><ellipse cx="542.447" cy="427.143" rx="1.095" ry="1.197" fill="#f33"/><path d="M481.442 548.237l-133.412-10.27v8.932l133.34 11.998 12.807-3.108-6.551-7.945z" fill="#020202" stroke="#000" stroke-width=".57"/><path d="M347.704 538.578l152.25-5.036-2.305 12.533-17 2.594z" fill="#262626" stroke="#000" stroke-width=".57"/><path d="M494.017 535.076s-91.164 2.884-90.155 2.884c1.008 0 76.245 3.212 76.245 3.212l12.273-1.62z" fill="#4c4c4c"/><path d="M483.218 558.613l46.974-153.823 151.72-7.248 3.389 1.164-51.22 141.75-147.665 19.474z" fill="#020202" stroke="#000" stroke-width=".57"/><path d="M486.615 559.904l46.974-153.823 151.72-7.248-47.83 142.915z" fill="#393939" stroke="#000" stroke-width=".57"/><path d="M555.392 415.87l-1.188.831.85 2.217-5.297 4.074-.984-1.93-2.355 1.891.995 2.026-5.857 4.788-1.079-2.043-3.745 3.008.707 1.476.805-.612 2.388 5.195 17.35-14.27z" fill="#6f6f6f"/><ellipse ry="1.197" rx="1.095" cy="427.143" cx="542.447" fill="#f33"/></g><path d="M225.751 457.723c-15.056-57.353-26.07-99.168-26.07-99.168s-30.48 3.273-36.46 15.373c-17.967 36.34 30.61 117.7 30.61 117.7s3.746 7.78 14.407 4.898c4.235-1.144 21.095 3.647 46.761 1.733 38.95-2.904 90.746-12.49 90.746-12.49s15.731-25.826 5.414-23.937c-72.768 13.318-131.251-23.509-133.556 7.177" fill="#f6b285" stroke="#000" stroke-width=".571"/><path d="M351.936 473.979c2.885-6.523 4.626-13.136-.777-12.147-72.768 13.319-131.251-23.509-133.556 7.177 0 0 9.64 4.642 67.91 5.97 33.924.772 66.423-1 66.423-1z" fill="#fca"/><path d="M225.751 457.723c-15.056-57.353-26.07-99.168-26.07-99.168s-30.48 3.273-36.46 15.373c-17.967 36.34 30.61 117.7 30.61 117.7s3.746 7.78 14.407 4.898c4.235-1.144 21.095 3.647 46.761 1.733 38.95-2.904 90.746-12.49 90.746-12.49s15.731-25.826 5.414-23.937c-72.768 13.318-131.251-23.509-133.556 7.177" fill="none" stroke="#000" stroke-width=".571"/><path d="M383.494 443.276c-2.553-.113-8.295 3.099-11.35 5.773-3.26 2.852-24.45 13.447-24.45 13.447l-7.131 22.616s17.318 11.001 41.564-9.373l3.666-1.833 7.335 1.018 3.871 4.687s-1.223 7.945 2.649 7.945c0 0 2.76.755 4.688-6.227 4.263 7.074 6.725 3.984 7.945 2.967.398-.332.556-1.793.591-3.606 2.442 5.128 5.957 5.228 8.576 4.422 2.649-.815 0-3.465 0-3.465l-6.112-12.224s-.486-1.398-1.252-3.229c-.251-2.411-2.625-11.985-4.582-13.681-2.321-2.012-5.776-2.677-9.366-4.007-6.51-2.411-14.732-4.768-16.177-5.162a2.13 2.13 0 00-.465-.068z" fill="#f6b285"/><path d="M337.965 484.093s19.355 12.938 44.161-8.353l3.667-1.834 7.335 1.019L397 479.61s-1.222 7.946 2.649 7.946c0 0 3.667 1.018 5.5-9.984 0 0-3.055-7.946-6.926-12.224 0 0-13.244-2.445-15.892-3.871" fill="none" stroke="#000" stroke-width=".57"/><path d="M385.804 451.972s16.493 4.208 18.734 5.227c2.24 1.019 2.852 3.464 2.852 3.464l5.094 11.002s1.018 11.613-.204 12.632c-1.223 1.018-3.691 4.123-7.97-3.008" fill="none" stroke="#000" stroke-width=".57"/><path d="M346.973 462.64s21.91-10.738 25.17-13.59c3.26-2.853 9.576-6.317 11.817-5.705 1.444.394 9.667 2.75 16.176 5.161 3.59 1.33 7.045 1.995 9.366 4.007 2.069 1.793 4.607 12.404 4.607 14.033" fill="none" stroke="#000" stroke-width=".57"/><path d="M383.494 443.276c-2.553-.113-8.295 3.099-11.35 5.773-3.26 2.852-24.45 13.447-24.45 13.447l-4.166 11.96c10.446-1.382 34.33-10.387 40.14-24.18 1.38-3.274 6.198-1.144 6.198-1.144l10.402 3.096 9 5.287 4.186 6.377c-.576-3.064-3.118-10.656-3.952-11.379-2.321-2.012-5.776-2.677-9.366-4.007-6.51-2.411-14.732-4.768-16.177-5.162a2.13 2.13 0 00-.465-.068z" fill="#fca"/><path d="M383.494 443.276c-2.553-.113-8.295 3.099-11.35 5.773-3.26 2.852-24.45 13.447-24.45 13.447l-7.131 22.616s17.318 11.001 41.564-9.373l3.666-1.833 7.335 1.018 3.871 4.687s-1.223 7.945 2.649 7.945c0 0 2.76.755 4.688-6.227 4.263 7.074 6.725 3.984 7.945 2.967.398-.332.556-1.793.591-3.606 2.442 5.128 5.957 5.228 8.576 4.422 2.649-.815 0-3.465 0-3.465l-6.112-12.224s-.486-1.398-1.252-3.229c-.251-2.411-2.625-11.985-4.582-13.681-2.321-2.012-5.776-2.677-9.366-4.007-6.51-2.411-14.732-4.768-16.177-5.162a2.13 2.13 0 00-.465-.068z" fill="none"/><path d="M388.794 448.344s15.147 4.542 20.638 9.824c3.053 2.937 5.904 11.256 5.904 11.256l6.112 12.224s2.649 2.649 0 3.464c-2.648.815-6.214.713-8.659-4.584" fill="none" stroke="#000" stroke-width=".57"/><path d="M211.321 388.426s-55.302 23.332-78.85 11.183c13.908-32.32 9.58-62.625 26.741-100.644 17.618-39.028 72.483-20.56 72.483-20.56" fill="#264653" stroke="#000" stroke-width=".57"/><path d="M163.488 486.605c-7.276-.713-19.768.164-21.362 14.155-1.65 14.488 23.123 17.054 23.123 17.054l.58-4.933c-3.73-.546-17.51-3.138-16.544-11.613 1.149-10.087 11.72-9.97 16.935-9.28.804.106 1.46.223 1.955.32l.528-4.817s-1.52-.415-3.834-.725a42.557 42.557 0 00-1.38-.162z" fill="#e76f51" stroke="#000" stroke-width=".426"/><path d="M186.265 472.136c-15.748 0-28.513 3.787-28.514 8.458l.002.02c-.012 14.891 1.763 29.785 1.743 44.675 0 4.671 11.022 8.458 26.77 8.458 15.747 0 26.276-3.791 26.487-8.458l2.026-44.694c0-4.671-12.766-8.458-28.514-8.458z" fill="#e76f51" stroke="#100701" stroke-width=".34" stroke-opacity=".995"/><path d="M210.17 479.889a23.689 5.23 0 01-23.69 5.23 23.689 5.23 0 01-23.688-5.23 23.689 5.23 0 0123.689-5.23 23.689 5.23 0 0123.689 5.23z" fill="#af3618"/><path d="M210.17 479.889c0 2.889-10.606 5.23-23.69 5.23-13.082 0-23.688-2.341-23.688-5.23" fill="none" stroke="#120000" stroke-width=".431"/><path d="M186.755 478.115a23.689 5.23 0 00-22.357 3.518 23.689 5.23 0 0022.357 3.52 23.689 5.23 0 0022.356-3.518 23.689 5.23 0 00-22.356-3.52z" fill="#1e0905"/><path d="M191.059 430.543c9.127-23.96 41.073-26.133 21.393-54.766-21.737-31.624-8.524-42.624-8.524-42.624l-48.552-.447c-12.266 14.262-2.853 32.517 5.704 42.786 8.557 10.268 1.997 37.936-14.262 61.896-16.258 23.96 15.974 42.501 15.974 42.501 0 2.889 10.606 5.23 23.689 5.23s23.689-2.341 23.689-5.23c0 0-28.239-25.386-19.111-49.346z" fill="url(#f)"/><g font-weight="400" font-size="22.578" font-family="sans-serif" letter-spacing="0" word-spacing="0"><path d="M769.073 257.203q1.842-3.31 4.405-4.886 2.563-1.575 6.033-1.575 4.672 0 7.208 3.284 2.537 3.257 2.537 9.29v18.047h-4.94v-17.887q0-4.298-1.521-6.38-1.522-2.082-4.645-2.082-3.818 0-6.034 2.536-2.215 2.536-2.215 6.914v16.9h-4.94v-17.888q0-4.324-1.521-6.38-1.522-2.082-4.699-2.082-3.764 0-5.98 2.562-2.215 2.537-2.215 6.888v16.9h-4.94v-29.901h4.94v4.645q1.681-2.75 4.03-4.058 2.35-1.308 5.58-1.308 3.257 0 5.526 1.655 2.296 1.656 3.391 4.806zm43.569 9.13q-5.954 0-8.25 1.362-2.295 1.361-2.295 4.645 0 2.616 1.708 4.164 1.736 1.522 4.699 1.522 4.084 0 6.54-2.883 2.483-2.91 2.483-7.715v-1.095zm9.797-2.029v17.06h-4.912v-4.54q-1.682 2.724-4.191 4.032-2.51 1.281-6.14 1.281-4.592 0-7.315-2.563-2.697-2.59-2.697-6.914 0-5.046 3.364-7.608 3.39-2.563 10.092-2.563h6.887v-.48q0-3.391-2.242-5.233-2.216-1.87-6.247-1.87-2.563 0-4.993.615-2.429.614-4.671 1.842v-4.539q2.696-1.04 5.232-1.548 2.536-.534 4.939-.534 6.487 0 9.69 3.364 3.204 3.364 3.204 10.198zm14.977-21.331v8.49h10.118v3.818h-10.118v16.231q0 3.658.988 4.699 1.015 1.04 4.085 1.04h5.045v4.112h-5.045q-5.687 0-7.85-2.109-2.162-2.136-2.162-7.742v-16.231h-3.604v-3.818h3.604v-8.49zm21.438 0v8.49h10.118v3.818h-10.118v16.231q0 3.658.987 4.699 1.015 1.04 4.085 1.04h5.046v4.112h-5.046q-5.686 0-7.849-2.109-2.162-2.136-2.162-7.742v-16.231h-3.604v-3.818h3.604v-8.49zm36.254 23.093q0-5.34-2.216-8.276-2.19-2.937-6.167-2.937-3.951 0-6.167 2.937-2.19 2.937-2.19 8.276 0 5.313 2.19 8.25 2.216 2.936 6.167 2.936 3.978 0 6.167-2.937 2.216-2.936 2.216-8.249zm4.912 11.586q0 7.636-3.39 11.346-3.391 3.738-10.386 3.738-2.59 0-4.885-.4-2.296-.374-4.458-1.175v-4.779q2.162 1.175 4.271 1.735 2.109.561 4.298.561 4.832 0 7.235-2.536 2.403-2.51 2.403-7.609v-2.43q-1.522 2.644-3.898 3.952-2.376 1.308-5.686 1.308-5.5 0-8.864-4.191-3.364-4.192-3.364-11.106 0-6.941 3.364-11.132 3.364-4.192 8.864-4.192 3.31 0 5.686 1.308t3.898 3.951v-4.538h4.912zm27.444-21.597q-.828-.48-1.815-.694-.962-.24-2.136-.24-4.165 0-6.407 2.723-2.216 2.696-2.216 7.768v15.751h-4.939v-29.9h4.939v4.645q1.548-2.723 4.031-4.031 2.483-1.335 6.033-1.335.508 0 1.122.08.614.054 1.361.187zm29.526 9.13v2.403h-22.585q.32 5.072 3.043 7.742 2.75 2.643 7.636 2.643 2.83 0 5.472-.694 2.67-.695 5.286-2.083v4.645q-2.643 1.122-5.419 1.709t-5.633.587q-7.155 0-11.346-4.164-4.165-4.165-4.165-11.266 0-7.342 3.951-11.64 3.978-4.325 10.706-4.325 6.033 0 9.53 3.898 3.524 3.87 3.524 10.545zm-4.912-1.442q-.053-4.03-2.269-6.433-2.19-2.403-5.82-2.403-4.111 0-6.594 2.322-2.456 2.323-2.83 6.541zm38.55 1.442v2.403h-22.585q.32 5.072 3.043 7.742 2.75 2.643 7.635 2.643 2.83 0 5.473-.694 2.67-.695 5.286-2.083v4.645q-2.643 1.122-5.42 1.709-2.776.587-5.632.587-7.155 0-11.346-4.164-4.165-4.165-4.165-11.266 0-7.342 3.951-11.64 3.978-4.325 10.705-4.325 6.034 0 9.531 3.898 3.524 3.87 3.524 10.545zm-4.912-1.442q-.053-4.03-2.27-6.433-2.188-2.403-5.82-2.403-4.11 0-6.593 2.322-2.456 2.323-2.83 6.541zm30.301-7.688q-.828-.48-1.816-.694-.96-.24-2.135-.24-4.165 0-6.408 2.723-2.216 2.696-2.216 7.768v15.751h-4.938v-29.9h4.938v4.645q1.549-2.723 4.032-4.031 2.482-1.335 6.033-1.335.507 0 1.121.08.614.054 1.362.187z" style="line-height:1.25" fill="#393939"/><path d="M1015.164 272.56h8.993v10.826h-8.993z" style="line-height:1.25" fill="#e76f51"/><path d="M1045.116 254.907q-3.951 0-6.247 3.097-2.296 3.07-2.296 8.436t2.27 8.463q2.295 3.07 6.273 3.07 3.924 0 6.22-3.097t2.296-8.436q0-5.313-2.296-8.41-2.296-3.123-6.22-3.123zm0-4.165q6.407 0 10.064 4.165 3.658 4.164 3.658 11.533 0 7.341-3.658 11.533-3.657 4.164-10.064 4.164-6.434 0-10.091-4.164-3.631-4.192-3.631-11.533 0-7.369 3.63-11.533 3.658-4.165 10.092-4.165zm39.19 5.313q-.827-.48-1.815-.694-.961-.24-2.136-.24-4.164 0-6.407 2.723-2.216 2.696-2.216 7.768v15.751h-4.939v-29.9h4.94v4.645q1.548-2.723 4.03-4.031 2.483-1.335 6.034-1.335.507 0 1.121.08.614.054 1.362.187zm23.867 10.011q0-5.34-2.216-8.276-2.189-2.937-6.167-2.937-3.95 0-6.166 2.937-2.19 2.937-2.19 8.276 0 5.313 2.19 8.25 2.215 2.936 6.166 2.936 3.978 0 6.167-2.937 2.216-2.936 2.216-8.249zm4.912 11.586q0 7.636-3.39 11.346-3.39 3.738-10.385 3.738-2.59 0-4.886-.4-2.296-.374-4.458-1.175v-4.779q2.162 1.175 4.272 1.735 2.109.561 4.298.561 4.832 0 7.234-2.536 2.403-2.51 2.403-7.609v-2.43q-1.522 2.644-3.898 3.952-2.376 1.308-5.686 1.308-5.5 0-8.863-4.191-3.364-4.192-3.364-11.106 0-6.941 3.364-11.132 3.364-4.192 8.863-4.192 3.31 0 5.686 1.308t3.898 3.951v-4.538h4.912z" style="line-height:1.25" fill="#393939"/></g></svg>