<svg xmlns="http://www.w3.org/2000/svg" width="143.281" height="123.715" viewBox="0 0 37.91 32.733"><path d="M11.53 8.719c-3.375-.33-9.169.076-9.908 6.565-.765 6.72 10.724 7.91 10.724 7.91l.27-2.288c-1.73-.253-8.122-1.456-7.674-5.386.533-4.679 5.436-4.624 7.854-4.305.373.05.678.104.907.15l.245-2.235s-.705-.192-1.778-.336a19.736 19.736 0 00-.64-.075z" fill="#e76f51" stroke="#000" stroke-width=".198"/><path d="M22.093 2.008c-7.303 0-13.224 1.757-13.224 3.923v.01c-.005 6.906.818 13.814.809 20.72 0 2.166 5.112 3.922 12.415 3.922 7.304 0 12.187-1.758 12.285-3.923l.94-20.728c0-2.167-5.921-3.923-13.225-3.923z" fill="#e76f51" stroke="#100701" stroke-width=".158" stroke-opacity=".995"/><path d="M33.18 5.604A10.987 2.426 0 0122.193 8.03a10.987 2.426 0 01-10.987-2.426 10.987 2.426 0 0110.987-2.426A10.987 2.426 0 0133.18 5.604z" fill="#af3618"/><path d="M33.18 5.604c0 1.34-4.919 2.426-10.987 2.426-6.068 0-10.987-1.086-10.987-2.426" fill="none" stroke="#120000" stroke-width=".2"/><path d="M22.32 4.781a10.987 2.426 0 00-10.369 1.632 10.987 2.426 0 0010.37 1.633 10.987 2.426 0 0010.368-1.632A10.987 2.426 0 0022.32 4.78z" fill="#1e0905"/></svg>