<?xml version="1.0" encoding="UTF-8" standalone="no"?>
<!-- Created with Inkscape (http://www.inkscape.org/) -->

<svg
   xmlns:dc="http://purl.org/dc/elements/1.1/"
   xmlns:cc="http://creativecommons.org/ns#"
   xmlns:rdf="http://www.w3.org/1999/02/22-rdf-syntax-ns#"
   xmlns:svg="http://www.w3.org/2000/svg"
   xmlns="http://www.w3.org/2000/svg"
   xmlns:sodipodi="http://sodipodi.sourceforge.net/DTD/sodipodi-0.dtd"
   xmlns:inkscape="http://www.inkscape.org/namespaces/inkscape"
   width="37.909641mm"
   height="32.732857mm"
   viewBox="0 0 37.909641 32.732857"
   version="1.1"
   id="svg7152"
   inkscape:version="0.92.5 (2060ec1f9f, 2020-04-08)"
   sodipodi:docname="mug_dark.svg">
  <defs
     id="defs7146" />
  <sodipodi:namedview
     id="base"
     pagecolor="#ffffff"
     bordercolor="#666666"
     borderopacity="1.0"
     inkscape:pageopacity="0.0"
     inkscape:pageshadow="2"
     inkscape:zoom="1.979899"
     inkscape:cx="18.502765"
     inkscape:cy="39.187286"
     inkscape:document-units="mm"
     inkscape:current-layer="layer1"
     showgrid="false"
     fit-margin-top="2"
     fit-margin-left="2"
     fit-margin-right="2"
     fit-margin-bottom="2"
     inkscape:window-width="1260"
     inkscape:window-height="1032"
     inkscape:window-x="2560"
     inkscape:window-y="28"
     inkscape:window-maximized="0" />
  <metadata
     id="metadata7149">
    <rdf:RDF>
      <cc:Work
         rdf:about="">
        <dc:format>image/svg+xml</dc:format>
        <dc:type
           rdf:resource="http://purl.org/dc/dcmitype/StillImage" />
        <dc:title></dc:title>
      </cc:Work>
    </rdf:RDF>
  </metadata>
  <g
     inkscape:label="Layer 1"
     inkscape:groupmode="layer"
     id="layer1"
     transform="translate(-66.467802,-105.25262)">
    <path
       style="display:inline;fill:#e76f51;fill-opacity:1;stroke:#000000;stroke-width:0.19753386px;stroke-linecap:butt;stroke-linejoin:miter;stroke-opacity:1"
       d="m 77.135003,113.98216 c -3.37477,-0.33066 -9.16824,0.0759 -9.90736,6.56489 -0.76537,6.71927 10.72394,7.90957 10.72394,7.90957 l 0.26947,-2.28794 c -1.73008,-0.25303 -8.12107,-1.45542 -7.67336,-5.38596 0.53287,-4.6782 5.43614,-4.62386 7.85446,-4.30432 0.37281,0.0495 0.67719,0.10351 0.90673,0.14908 l 0.24467,-2.2346 c 0,0 -0.70447,-0.19216 -1.77792,-0.33617 -0.20127,-0.0269 -0.41563,-0.0524 -0.64055,-0.075 z"
       id="path5674"
       inkscape:connector-curvature="0" />
    <path
       style="display:inline;opacity:1;fill:#e76f51;fill-opacity:1;stroke:#100701;stroke-width:0.15782785;stroke-miterlimit:4;stroke-dasharray:none;stroke-opacity:0.99516913"
       d="m 87.698733,107.27139 c -7.30352,1e-5 -13.2242,1.75637 -13.22429,3.92296 2.5e-4,0.003 5.1e-4,0.006 8e-4,0.009 -0.006,6.9065 0.81758,13.81441 0.80828,20.72011 9e-5,2.16658 5.1117,3.92294 12.41521,3.92295 7.30359,2e-5 12.186787,-1.75857 12.284897,-3.92295 l 0.93956,-20.72868 c -9e-5,-2.16662 -5.920877,-3.92299 -13.224457,-3.92297 z"
       id="path5580"
       inkscape:connector-curvature="0"
       sodipodi:nodetypes="cccccsccc" />
    <path
       style="display:inline;opacity:1;fill:#af3618;fill-opacity:1;stroke:none;stroke-width:0.08280039;stroke-miterlimit:4;stroke-dasharray:none;stroke-opacity:1"
       d="m 98.7856,110.86725 a 10.986762,2.4260118 0 0 1 -10.986757,2.42601 10.986762,2.4260118 0 0 1 -10.98677,-2.42601 10.986762,2.4260118 0 0 1 10.98677,-2.42601 10.986762,2.4260118 0 0 1 10.986757,2.42601 z"
       id="path5578"
       inkscape:connector-curvature="0" />
    <path
       style="display:inline;opacity:1;fill:#695a11;fill-opacity:1;stroke:none;stroke-width:0.08280039;stroke-miterlimit:4;stroke-dasharray:none;stroke-opacity:1"
       d="m 87.925843,110.04441 a 10.986762,2.4260118 0 0 0 -10.36887,1.63194 10.986762,2.4260118 0 0 0 10.36887,1.63246 10.986762,2.4260118 0 0 0 10.368877,-1.63194 10.986762,2.4260118 0 0 0 -10.368877,-1.63246 z"
       id="path5578-19"
       inkscape:connector-curvature="0" />
    <path
       style="display:inline;opacity:1;fill:none;fill-opacity:1;stroke:#120000;stroke-width:0.2;stroke-miterlimit:4;stroke-dasharray:none;stroke-opacity:1"
       d="m 98.7856,110.86725 c 0,1.33985 -4.918947,2.42601 -10.986757,2.42601 -6.06782,0 -10.98676,-1.08616 -10.98677,-2.42601"
       id="path5578-1"
       inkscape:connector-curvature="0"
       sodipodi:nodetypes="csc" />
    <path
       style="color:#000000;font-style:normal;font-variant:normal;font-weight:normal;font-stretch:normal;font-size:medium;line-height:normal;font-family:sans-serif;font-variant-ligatures:normal;font-variant-position:normal;font-variant-caps:normal;font-variant-numeric:normal;font-variant-alternates:normal;font-feature-settings:normal;text-indent:0;text-align:start;text-decoration:none;text-decoration-line:none;text-decoration-style:solid;text-decoration-color:#000000;letter-spacing:normal;word-spacing:normal;text-transform:none;writing-mode:lr-tb;direction:ltr;text-orientation:mixed;dominant-baseline:auto;baseline-shift:baseline;text-anchor:start;white-space:normal;shape-padding:0;clip-rule:nonzero;display:inline;overflow:visible;visibility:visible;opacity:1;isolation:auto;mix-blend-mode:normal;color-interpolation:sRGB;color-interpolation-filters:linearRGB;solid-color:#000000;solid-opacity:1;vector-effect:none;fill:#dddddd;fill-opacity:1;fill-rule:nonzero;stroke:none;stroke-width:0.26458332px;stroke-linecap:butt;stroke-linejoin:miter;stroke-miterlimit:4;stroke-dasharray:none;stroke-dashoffset:0;stroke-opacity:1;color-rendering:auto;image-rendering:auto;shape-rendering:auto;text-rendering:auto;enable-background:accumulate"
       d="m 91.746863,113.18666 c 0,0 1.41533,0.20299 2.16055,0.47604 0.37261,0.13653 0.73677,0.32504 0.99023,0.56836 0.25346,0.24332 0.39886,0.53013 0.36719,0.91016 v 0.006 l 0.10547,10.15625 0.324217,0.88672 0.24804,-0.0918 -0.308587,-0.84375 -0.10352,-10.10352 -0.002,0.0117 c 0.0385,-0.46186 -0.15261,-0.84018 -0.44726,-1.12304 -0.29465,-0.28287 -0.68875,-0.4809 -1.08203,-0.625 -0.37641,-0.13792 -0.76553,-0.18653 -1.0481,-0.28064 -1.20347,-0.22013 -1.20602,-0.0452 -1.2042,0.0525 z"
       id="path6785"
       inkscape:connector-curvature="0"
       sodipodi:nodetypes="ccscccccccccccc" />
    <path
       style="display:inline;fill:#378f38;fill-opacity:1;stroke:none;stroke-width:0.35760435px;stroke-linecap:butt;stroke-linejoin:miter;stroke-opacity:1"
       d="m 93.090333,125.58233 0.6196,-1.12965 3.571707,-1.77005 0.54812,0.81048 -0.20576,2.94441 -0.38529,0.92182 -3.686497,1.65402 -0.53894,-0.56653 z"
       id="path6791"
       inkscape:connector-curvature="0"
       sodipodi:nodetypes="ccccccccc" />
  </g>
</svg>
