<?xml version="1.0" encoding="UTF-8" standalone="no"?>
<svg
   xmlns:dc="http://purl.org/dc/elements/1.1/"
   xmlns:cc="http://creativecommons.org/ns#"
   xmlns:rdf="http://www.w3.org/1999/02/22-rdf-syntax-ns#"
   xmlns:svg="http://www.w3.org/2000/svg"
   xmlns="http://www.w3.org/2000/svg"
   xmlns:sodipodi="http://sodipodi.sourceforge.net/DTD/sodipodi-0.dtd"
   xmlns:inkscape="http://www.inkscape.org/namespaces/inkscape"
   width="143mm"
   height="143mm"
   viewBox="0 0 143 143"
   version="1.1"
   id="svg8"
   inkscape:version="1.0.1 (1.0.1+r74)"
   sodipodi:docname="reactinternals.svg"
   inkscape:export-filename="/home/matt/dev/mattgreer.org/pages/articles/react-internals-part-five-transactions/feature.png"
   inkscape:export-xdpi="108.21506"
   inkscape:export-ydpi="108.21506">
  <defs
     id="defs2">
	
	
	
	
</defs>
  <sodipodi:namedview
     id="base"
     pagecolor="#ffffff"
     bordercolor="#666666"
     borderopacity="1.0"
     inkscape:pageopacity="0.0"
     inkscape:pageshadow="2"
     inkscape:zoom="0.85042854"
     inkscape:cx="148.16227"
     inkscape:cy="300.56544"
     inkscape:document-units="mm"
     inkscape:current-layer="layer1"
     inkscape:document-rotation="0"
     showgrid="false"
     inkscape:window-width="2668"
     inkscape:window-height="1032"
     inkscape:window-x="0"
     inkscape:window-y="28"
     inkscape:window-maximized="1"
     inkscape:snap-global="true"
     fit-margin-top="4"
     fit-margin-left="4"
     fit-margin-right="4"
     fit-margin-bottom="4" />
  <metadata
     id="metadata5">
    <rdf:RDF>
      <cc:Work
         rdf:about="">
        <dc:format>image/svg+xml</dc:format>
        <dc:type
           rdf:resource="http://purl.org/dc/dcmitype/StillImage" />
        <dc:title></dc:title>
      </cc:Work>
    </rdf:RDF>
  </metadata>
  <g
     inkscape:label="Layer 1"
     inkscape:groupmode="layer"
     id="layer1"
     transform="translate(-29.861376,-80.194602)">
    <rect
       style="fill:#f2f2f2;fill-opacity:1;stroke:none;stroke-width:1.83646;stroke-miterlimit:4;stroke-dasharray:none;stroke-opacity:1"
       id="rect1059"
       width="143"
       height="143"
       x="29.861376"
       y="80.194603" />
    <g
       id="g1078"
       transform="translate(-1.2280672,0.60494136)">
      <path
         style="fill:#fbcf61;fill-opacity:1;stroke:#de9e05;stroke-width:0.264583px;stroke-linecap:butt;stroke-linejoin:miter;stroke-opacity:1"
         d="m 125.66828,154.48704 -1.31974,-4.37677 c 0,0 6.49398,-2.11617 6.49398,-3.01761 0,-0.90145 2.77561,-5.89636 4.37871,2.98421 1.60312,8.88056 -8.25608,12.52905 -8.25608,12.52905 z"
         id="path1056" />
      <path
         style="fill:#fbcf61;fill-opacity:1;stroke:#de9e05;stroke-width:0.273735px;stroke-linecap:butt;stroke-linejoin:miter;stroke-opacity:1"
         d="m 72.252515,140.22422 c 0,0 4.369685,-1.0638 2.857462,3.80413 -1.512233,4.86791 2.470218,4.66172 1.945748,-1.02143 -0.524501,-5.68314 1.751372,-2.7827 1.751372,-2.7827 l 0.564898,-10.45411 z"
         id="path1007"
         sodipodi:nodetypes="cscccc" />
      <path
         style="fill:#fbcf61;fill-opacity:1;stroke:#de9e05;stroke-width:0.264583px;stroke-linecap:butt;stroke-linejoin:miter;stroke-opacity:1"
         d="m 162.5869,136.16256 c 0,0 5.44033,15.44756 -0.25678,25.9103 -4.13201,7.58843 0.0587,6.51906 2.67106,3.92489 0.98949,-0.98261 1.74931,-4.41934 1.74931,-4.41934 0,0 -2.32724,-8.34431 -0.32422,-22.56805 0.72895,-5.17636 -3.83937,-2.8478 -3.83937,-2.8478 z"
         id="path1011"
         sodipodi:nodetypes="csscsc" />
      <path
         style="fill:#fbcf61;fill-opacity:1;stroke:#de9e05;stroke-width:0.265;stroke-linecap:butt;stroke-linejoin:miter;stroke-miterlimit:4;stroke-dasharray:none;stroke-opacity:1"
         d="m 39.011145,165.11926 c 0,0 5.699738,-12.47592 -0.593902,-24.77688 l 4.641124,-4.8231 0.752554,2.10096 c 0,0 -3.628908,16.34914 -0.611618,24.1177 3.0173,7.76857 -4.188158,3.38132 -4.188158,3.38132 z"
         id="path1009"
         sodipodi:nodetypes="ccccsc" />
      <path
         id="path967"
         style="fill:#fbcf61;fill-opacity:1;stroke:#de9e05;stroke-width:0.268446px;stroke-linecap:butt;stroke-linejoin:miter;stroke-opacity:1"
         d="m 90.783293,140.635 c 0,0 9.451127,4.32246 0,20.88431 h 6.92317 c 1.07737,-1.07498 2.2713,-2.53435 2.03618,-3.5409 -0.35165,-1.50552 1.902827,0.63496 1.497577,3.5409 h 4.41771 c -4.14467,-4.37947 1.63657,-19.08973 1.13592,-13.03666 -0.17478,2.1129 2.86982,10.70078 3.9413,13.03666 h 3.91785 c -10.25223,-18.26531 0,-20.88431 0,-20.88431 l -13.90384,-7.93861 c 1.64332,11.026 -3.743793,22.72317 -3.579807,19.34009 0.129028,-2.66189 -0.47066,-8.04568 -1.58376,-11.40148 z"
         sodipodi:nodetypes="cccccccccccscc" />
      <path
         style="fill:#fbcf61;fill-opacity:1;stroke:#de9e05;stroke-width:0.249807px;stroke-linecap:butt;stroke-linejoin:miter;stroke-opacity:1"
         d="m 72.726771,161.29547 c 0,0 1.825141,-4.92666 3.590372,-3.43019 1.765216,1.49647 2.390522,4.29889 1.600175,6.11509 -0.79033,1.8162 -5.190547,-2.6849 -5.190547,-2.6849 z"
         id="path1005" />
      <path
         id="path902"
         style="fill:#61dafb;fill-opacity:1;stroke-width:0.264583"
         d="m 122.19523,121.33898 c 3.75708,0.55563 7.38188,1.24366 10.84792,2.09032 -0.97895,3.41312 -2.19605,6.93209 -3.57188,10.45104 -1.08479,-2.11666 -2.2229,-4.23333 -3.46645,-6.35 -1.21708,-2.11666 -2.51313,-4.18052 -3.80959,-6.19136 z" />
      <path
         id="path1021"
         style="fill:#61dafb;fill-opacity:1;stroke-width:0.264583"
         d="m 82.930945,121.33898 c -1.296461,2.03731 -2.59302,4.12781 -3.810103,6.27094 -1.217084,2.11667 -2.354795,4.23333 -3.439584,6.35 -1.42875,-3.54542 -2.646039,-7.09103 -3.651456,-10.53062 3.466042,-0.82021 7.117601,-1.53469 10.901143,-2.09032 z" />
      <path
         id="path1019"
         style="fill:#61dafb;fill-opacity:1;stroke-width:0.264583"
         d="m 102.51012,105.75544 c 2.46064,2.54 4.92094,5.37105 7.35512,8.46667 -2.38125,-0.10583 -4.81543,-0.18552 -7.27605,-0.18552 -2.4871,0 -4.947412,0.0532 -7.35512,0.18552 2.38125,-3.09562 4.84187,-5.92667 7.27605,-8.46667 z" />
      <path
         id="path1017"
         style="fill:#61dafb;fill-opacity:1;stroke-width:0.264583"
         d="m 43.819876,159.57586 -0.555522,-1.17926 c 0,0 0.03235,-0.11852 0.05736,-0.28473 0.02501,-0.16622 0.04274,-0.37997 0.01395,-0.57051 -0.01439,-0.0953 -0.04058,-0.18467 -0.0832,-0.25942 -0.04262,-0.0747 -0.101721,-0.13508 -0.182417,-0.17157 -0.0807,-0.0365 -0.182986,-0.049 -0.311609,-0.0294 -0.128624,0.0195 -0.283854,0.0711 -0.470256,0.16433 -0.186401,0.0933 -0.34656,0.2333 -0.484725,0.40669 -0.138165,0.1734 -0.254346,0.38041 -0.3514,0.60772 -0.194107,0.45462 -0.313097,0.99088 -0.385506,1.50378 -0.07106,0.50338 -0.09564,0.97913 -0.103869,1.33842 h 2.598291 c 0,-0.49403 0.09212,-1.00458 0.258899,-1.526 z" />
      <path
         id="path1015"
         style="fill:#61dafb;fill-opacity:1;stroke-width:0.264583"
         d="m 126.6084,145.71062 -2.13527,2.60088 c 0,0 -0.52214,0.44836 -1.42937,1.17822 -0.46497,0.37406 -1.26784,0.97014 -1.91668,1.46968 1.91705,3.33263 3.6738,6.71026 5.27461,10.11514 -0.004,0.009 -0.009,0.0184 -0.0129,0.0274 0.004,0.009 0.009,0.0179 0.0129,0.0269 -1.66688,3.54541 -3.49218,7.06407 -5.50302,10.53011 -2.06375,3.54542 -4.20719,6.90563 -6.40323,10.05417 -3.91583,0.3175 -7.91104,0.50281 -11.90625,0.50281 -4.021685,0 -8.016674,-0.18521 -11.958974,-0.52917 -2.196041,-3.14854 -4.312605,-6.535 -6.376355,-10.10688 -1.96964,-3.44025 -3.808637,-6.95886 -5.439978,-10.47791 h -1.65313 l -0.242361,-0.40514 1.216461,-5.97638 -1.862934,1.42007 v 2.61689 c 0,0 -0.147428,0.16577 -0.473874,0.36535 -0.163224,0.0998 -0.371369,0.20815 -0.627866,0.30851 -0.256498,0.10036 -0.561777,0.19291 -0.919324,0.26097 -0.178774,0.034 -0.354674,0.12501 -0.526066,0.25838 -0.171397,0.13337 -0.33791,0.30899 -0.497644,0.51212 -0.144762,0.18406 -0.26806,0.41174 -0.392743,0.63923 h -0.58911 c -2.44978,5.51136 -4.427048,10.89118 -5.930387,16.06052 -2.566461,-0.82021 -5.053332,-1.69324 -7.328752,-2.67219 -9.36625,-3.96875 -15.425415,-9.23437 -15.425415,-13.38833 h -4.199227 c -0.08179,0.28016 -0.206272,0.56909 -0.257865,0.83768 -0.112386,0.58505 -0.159908,1.1335 -0.173633,1.60455 -0.02745,0.94209 0.08113,1.5751 0.08113,1.5751 l -0.375688,0.35243 c 2.931031,6.90586 12.59877,13.19972 26.22424,17.40566 -3.836461,16.77458 -2.16948,30.13593 5.265311,34.42218 1.74625,1.00541 3.75698,1.48157 5.97948,1.48157 v 0.0269 c 7.27605,0 16.801148,-5.13321 26.431994,-14.07614 9.63084,8.99584 19.15593,14.18156 26.43198,14.18156 v -0.0269 c 2.18567,-0.004 4.18706,-0.4797 5.8999,-1.48105 7.46125,-4.28625 9.15489,-17.67428 5.34489,-34.50177 16.51,-5.05355 27.27844,-13.20281 27.27844,-21.80177 h -0.89917 l -1.56114,3.60598 -2.435,1.21543 1.39165,-1.92701 -2.36988,-2.8944 c 0,4.15396 -6.05917,9.39312 -15.42542,13.38833 -2.32833,0.97895 -4.81532,1.87834 -7.43468,2.69854 -1.48168,-5.15938 -3.43989,-10.53031 -5.87406,-16.03364 0.008,-0.0178 0.0153,-0.0354 0.0233,-0.0532 -0.008,-0.0178 -0.0153,-0.0354 -0.0233,-0.0532 1.57863,-3.56911 2.93584,-7.07432 4.11395,-10.51046 -0.0339,-0.0533 -0.0376,-0.0645 -0.0713,-0.11731 -0.83513,-1.30742 -1.62505,-2.46978 -2.11563,-3.01584 -0.12265,-0.13651 -0.22622,-0.23472 -0.30748,-0.2868 -0.0813,-0.0521 -0.14014,-0.058 -0.17208,-0.0109 -0.0639,0.0942 -0.0213,0.40146 0.15968,0.98082 0.0905,0.28967 0.14553,0.59176 0.16898,0.90331 0.0234,0.31155 0.0158,0.63255 -0.0196,0.96066 -0.0354,0.3281 -0.0984,0.6632 -0.18448,1.00252 -0.0861,0.33931 -0.19539,0.68265 -0.32401,1.02785 -0.25724,0.6904 -0.59134,1.38717 -0.96945,2.06912 -0.37812,0.68195 -0.80055,1.34938 -1.23404,1.98024 -0.4335,0.63085 -0.87836,1.22558 -1.30173,1.76268 -0.42338,0.53711 -0.8253,1.01625 -1.17305,1.41697 -0.6955,0.80144 -1.17409,1.28778 -1.17409,1.28778 l 1.19166,-6.59495 -3.81682,-1.59576 z m -50.927142,22.50871 c 1.084789,2.11667 2.222503,4.23333 3.439584,6.35 1.217078,2.14313 2.513642,4.23363 3.810103,6.27093 -3.78355,-0.55563 -7.435104,-1.2701 -10.901143,-2.09031 1.005409,-3.43959 2.222706,-6.9852 3.651456,-10.53062 z m 53.790012,0.0796 c 1.37583,3.51895 2.59293,7.03791 3.57188,10.45104 -3.46604,0.84666 -7.09084,1.53468 -10.84792,2.09031 1.29646,-2.01084 2.59251,-4.07469 3.80959,-6.19135 1.24355,-2.11667 2.38166,-4.23334 3.46645,-6.35 z m -58.896676,16.16594 c 5.185828,1.29646 10.848332,2.27541 16.827912,2.91041 3.518958,4.89479 7.222821,9.31344 10.926982,13.20281 -8.625411,7.96396 -16.748119,12.32948 -22.225,12.32948 v -0.0263 c -1.21708,0 -2.248958,-0.21156 -3.042708,-0.68781 -3.57188,-2.0902 -5.106363,-9.94853 -3.862813,-20.05563 0.3175,-2.46061 0.767085,-5.02708 1.375627,-7.67291 z m 63.976476,0.0263 c 0.58208,2.67229 1.05823,5.29178 1.34927,7.77885 1.21708,10.10709 -0.34407,17.965 -3.9424,20.02875 -0.82021,0.44979 -1.79874,0.68833 -3.01583,0.68833 v 0.0258 c -5.5028,-0.0138 -13.58681,-4.40428 -22.19865,-12.40854 3.73062,-3.88938 7.43469,-8.33438 11.00657,-13.22917 5.95312,-0.635 11.6152,-1.61406 16.80104,-2.88406 z m -39.317,3.46594 c 2.407708,0.13232 4.86803,0.18551 7.35512,0.18551 2.46062,0 4.8948,-0.0797 7.27605,-0.18551 -2.43418,3.09562 -4.89448,5.92666 -7.35512,8.46666 -2.43417,-2.54 -4.8948,-5.37104 -7.27605,-8.46666 z" />
      <path
         id="path1044"
         style="fill:#61dafb;fill-opacity:1;stroke-width:0.264583"
         d="m 128.96846,83.265857 c -7.27605,0 -16.80114,5.185732 -26.43198,14.181563 C 92.90563,88.504498 83.38053,83.371276 76.104488,83.371276 v 0.02687 c -2.2225,0 -4.23323,0.476152 -5.97948,1.481564 -7.434791,4.286249 -9.101772,17.64761 -5.265311,34.42219 -16.457088,5.08 -27.172502,13.20291 -27.172502,21.77541 0,1.47499 0.339142,2.9346 0.948262,4.36976 l 0.375688,-0.35243 c 0,0 -0.108585,-0.633 -0.08113,-1.5751 0.01373,-0.47104 0.06125,-1.01949 0.173633,-1.60455 0.05159,-0.26858 0.17607,-0.55753 0.257865,-0.83768 h 1.600936 c 0.0082,-0.35929 0.03281,-0.83504 0.103869,-1.33842 0.07241,-0.5129 0.191399,-1.04916 0.385507,-1.50378 0.09705,-0.22731 0.213234,-0.43432 0.351399,-0.60772 0.138165,-0.17338 0.298324,-0.31343 0.484725,-0.40669 0.186402,-0.0932 0.341632,-0.14481 0.470256,-0.16433 0.128624,-0.0195 0.230912,-0.007 0.311609,0.0295 0.08069,0.0365 0.139797,0.0968 0.182418,0.17156 0.04262,0.0748 0.0688,0.16415 0.0832,0.25942 0.02879,0.19054 0.01105,0.40429 -0.01395,0.57051 -0.02501,0.16621 -0.05736,0.28473 -0.05736,0.28473 l 0.555522,1.17926 c 1.235531,-3.86289 6.914194,-8.36558 15.166516,-11.86233 2.275416,-0.97893 4.762293,-1.85197 7.328751,-2.67218 1.503336,5.16934 3.48061,10.54915 5.930387,16.06051 h 1.026295 c 0.163991,-0.28782 0.314118,-0.59637 0.500226,-0.83302 0.159737,-0.20312 0.32625,-0.37874 0.497644,-0.51211 0.171395,-0.13338 0.347293,-0.22436 0.526066,-0.25839 0.357548,-0.068 0.662826,-0.1606 0.919327,-0.26096 0.256495,-0.10036 0.464642,-0.20872 0.627869,-0.30851 0.326446,-0.19957 0.473872,-0.36535 0.473872,-0.36535 v -2.6169 l 1.862936,-1.42007 -1.216464,5.97639 0.358635,0.59892 h 0.992187 c 1.631342,-3.51905 3.470341,-7.03765 5.439979,-10.47791 2.06375,-3.57187 4.180313,-6.95834 6.376355,-10.10687 3.942289,-0.34397 7.937291,-0.52917 11.958965,-0.52917 3.99523,0 7.99043,0.18531 11.90626,0.50281 2.19604,3.14854 4.33948,6.50874 6.40323,10.05417 0.0797,0.13737 0.14929,0.27742 0.22841,0.41496 0.64884,-0.49954 1.45171,-1.09562 1.91668,-1.46968 0.90723,-0.72986 1.42937,-1.17822 1.42937,-1.17822 l 2.13527,-2.60088 -0.95395,6.59805 3.81682,1.59577 -1.19166,6.59494 c 0,0 0.47859,-0.48633 1.17409,-1.28777 0.34776,-0.40072 0.74968,-0.87986 1.17306,-1.41697 0.42337,-0.53711 0.86823,-1.13183 1.30173,-1.76268 0.43349,-0.63086 0.85591,-1.2983 1.23403,-1.98024 0.37812,-0.68195 0.71221,-1.37873 0.96945,-2.06913 0.12862,-0.3452 0.23789,-0.68853 0.32401,-1.02784 0.0861,-0.33932 0.14906,-0.67443 0.18449,-1.00252 0.0354,-0.32811 0.0431,-0.64912 0.0196,-0.96067 -0.0234,-0.31155 -0.0785,-0.61363 -0.16898,-0.90331 -0.18103,-0.57935 -0.22357,-0.88661 -0.15968,-0.98081 0.0319,-0.0471 0.0908,-0.0412 0.17208,0.0108 0.0813,0.0521 0.18483,0.1503 0.30747,0.28681 0.49058,0.54605 1.28051,1.70841 2.11564,3.01583 0.0337,0.0528 0.0374,0.064 0.0713,0.11731 0.63846,-1.86217 1.23934,-3.70984 1.7601,-5.52318 2.61937,0.8202 5.10636,1.7196 7.43469,2.69855 9.36625,3.9952 15.42541,9.23436 15.42541,13.38833 l 2.36988,2.89439 -1.39164,1.92702 2.43499,-1.21543 1.56115,-3.60598 h 0.89917 c 0,-8.59897 -10.76844,-16.74822 -27.27844,-21.80177 3.81,-16.82749 2.11636,-30.215526 -5.34489,-34.501776 -1.71285,-1.001355 -3.71423,-1.47721 -5.8999,-1.481046 z m -0.0264,5.900415 v 0.02584 c 1.21709,0 2.19563,0.238538 3.01584,0.68833 3.59832,2.063749 5.15947,9.921658 3.94239,20.028748 -0.29105,2.48707 -0.76719,5.10656 -1.34927,7.77886 -5.18584,-1.27 -10.84792,-2.24907 -16.80104,-2.88407 -3.57188,-4.89479 -7.27595,-9.33978 -11.00656,-13.22916 8.61183,-8.004258 16.69584,-12.39475 22.19864,-12.408546 z m -52.837619,0.105419 c 5.476875,0 13.599581,4.365516 22.225,12.329479 -3.70417,3.88937 -7.408024,8.30802 -10.926982,13.20281 -5.979583,0.635 -11.642082,1.61396 -16.827913,2.91042 -0.608544,-2.64583 -1.058127,-5.2123 -1.375627,-7.67292 -1.243541,-10.10709 0.290939,-17.965411 3.862814,-20.05562 0.79375,-0.47625 1.825625,-0.687813 3.042708,-0.687813 z" />
      <polygon
         fill="#61dafb"
         points=""
         id="polygon904"
         transform="matrix(0.26458333,0,0,0.26458333,301.62673,86.586863)" />
      <path
         id="circle906"
         style="fill:#61dafb;stroke-width:0.264583"
         d="m 98.928417,155.89708 c -0.200604,0.13334 -0.38722,0.29743 -0.560173,0.48783 -0.172953,0.1904 -0.332237,0.40721 -0.479557,0.64595 -0.294637,0.47747 -0.539951,1.04289 -0.744141,1.6614 -0.204187,0.6185 -0.367268,1.29046 -0.497128,1.98024 -0.02677,0.14222 -0.04672,0.28574 -0.06563,0.42943 h -6.110221 a 12.091458,12.091458 0 0 0 12.049403,12.09177 12.091458,12.091458 0 0 0 0.0419,0 12.091458,12.091458 0 0 0 12.09178,-12.09177 h -6.32055 c -0.0184,-0.048 -0.038,-0.0966 -0.0615,-0.14521 -0.17503,-0.36237 -0.39483,-0.72572 -0.63459,-1.07539 -0.47952,-0.69935 -1.03869,-1.34356 -1.47795,-1.8128 -0.43924,-0.46926 -0.75861,-0.76327 -0.75861,-0.76327 l -5.461698,3.79667 h -0.868204 c -0.105103,-0.088 -0.190955,-0.2123 -0.258382,-0.36845 -0.09619,-0.22275 -0.157496,-0.50546 -0.192235,-0.82217 -0.03474,-0.3167 -0.04317,-0.66755 -0.03462,-1.02578 0.01709,-0.71645 0.102759,-1.46345 0.183968,-2.0314 0.08121,-0.56795 0.15813,-0.95705 0.15813,-0.95705 z" />
      <path
         id="path1039"
         style="fill:#61dafb;stroke-width:0.264583"
         d="m 114.65461,141.07731 -2.2934,-1.43867 c -0.0958,0.10905 -0.17122,0.25438 -0.22996,0.4253 -0.0588,0.17092 -0.10035,0.36757 -0.12919,0.57878 -0.0185,0.13517 -0.005,0.29015 -0.0139,0.43459 z" />
      <path
         id="path1037"
         style="fill:#61dafb;stroke-width:0.264583"
         d="m 102.52097,128.98555 a 12.091458,12.091458 0 0 0 -12.0494,12.09176 h 6.046141 c 0.04462,-0.3042 0.0732,-0.6088 0.129707,-0.90898 0.12986,-0.68979 0.292941,-1.36174 0.497128,-1.98024 0.20419,-0.61851 0.449504,-1.18393 0.744141,-1.6614 0.14732,-0.23874 0.306604,-0.45556 0.479557,-0.64596 0.172953,-0.1904 0.359569,-0.35448 0.560173,-0.48782 0,0 -0.07692,0.38909 -0.15813,0.95704 -0.08121,0.56795 -0.166884,1.31495 -0.183968,2.0314 -0.0085,0.35823 -1.16e-4,0.70908 0.03462,1.02578 0.03474,0.31671 0.09605,0.59942 0.192235,0.82217 0.09619,0.22276 0.227275,0.3851 0.403077,0.46147 0.0879,0.0382 0.186963,0.0553 0.298172,0.047 0.111213,-0.008 0.234762,-0.0416 0.371555,-0.10284 l 5.515442,-3.83387 c 0,0 0.31937,0.29401 0.75861,0.76326 0.43925,0.46925 0.99843,1.11346 1.47795,1.81281 0.23976,0.34967 0.45956,0.71302 0.63459,1.07539 0.10231,0.21182 0.14673,0.4167 0.21342,0.62476 h 3.50211 c 0.009,-0.14444 -0.004,-0.29942 0.0139,-0.43459 0.0288,-0.21121 0.0704,-0.40786 0.12919,-0.57878 0.0587,-0.17092 0.13414,-0.31625 0.22996,-0.4253 l 2.2934,1.43867 a 12.091458,12.091458 0 0 0 -12.09178,-12.09176 12.091458,12.091458 0 0 0 -0.0419,0 z" />
      <polygon
         fill="#61dafb"
         points=""
         id="polygon908"
         transform="matrix(0.26458333,0,0,0.26458333,301.62673,86.586863)" />
    </g>
  </g>
</svg>
