<svg xmlns="http://www.w3.org/2000/svg" width="512mm" height="512mm" viewBox="0 0 512 512"><path fill="#1d843f" d="M0 0h512v512H0z"/><path style="line-height:normal;font-variant-ligatures:normal;font-variant-position:normal;font-variant-caps:normal;font-variant-numeric:normal;font-variant-alternates:normal;font-variant-east-asian:normal;font-feature-settings:normal;font-variation-settings:normal;text-indent:0;text-align:start;text-decoration-line:none;text-decoration-style:solid;text-decoration-color:#000;text-transform:none;text-orientation:mixed;white-space:normal;shape-padding:0;shape-margin:0;inline-size:0;isolation:auto;mix-blend-mode:normal;solid-color:#000;solid-opacity:1" d="M335.555 89.08c57.106 0 103.905 46.799 103.905 103.905v272.554h-47.305V192.985c0-31.54-25.059-56.6-56.6-56.6-31.54 0-56.602 25.06-56.602 56.6h-47.305c0-57.106 46.802-103.905 103.907-103.905z" color="#000" font-weight="400" font-family="sans-serif" overflow="visible" fill="#fefefe"/><path d="M220.768 187.82h67.292v35.84h-67.292zM377.428 389.28l-25.187 84.26h130.461l-25.186-84.26z" fill="#fefefe"/><g fill="#fefefe"><path d="M209.095 473.43l27.455-57.555h32.225l25.327 57.666z"/><ellipse cx="212.369" cy="408.132" rx="17.369" ry="16.706"/><ellipse cx="292.808" cy="408.132" rx="17.369" ry="16.706"/><ellipse cx="252.453" cy="399.399" rx="14.465" ry="13.912"/><path d="M212.099 402.133h73.443v15.994h-73.443z"/></g></svg>