<svg xmlns="http://www.w3.org/2000/svg" width="200mm" height="100mm" viewBox="0 0 200 100"><path fill="#40444b" d="M0 0h110v100H0z"/><path d="M89.661 90.71h.792v.953h-.792z" style="line-height:1.25" fill="#b04545" font-weight="400" font-size="22.578" font-family="sans-serif" letter-spacing="0" word-spacing="0"/><path d="M65.012 88.565h.452v.392q.267-.343.6-.431.15-.042.343-.042.452 0 .691.25.073.075.135.176.268-.296.551-.377.166-.05.39-.05.608 0 .808.39.083.164.083.388v2.091h-.491v-1.92q0-.358-.268-.493-.127-.065-.301-.065-.307 0-.52.223-.2.21-.2.504v1.752h-.491v-1.92q0-.39-.301-.513l-.102-.03q-.078-.016-.166-.016-.306 0-.522.223-.2.21-.2.504v1.752h-.491zm7.597 2.528v.335q-.208.046-.336.046-.366 0-.465-.252-.028-.067-.038-.158-.414.343-.84.397-.096.013-.203.013-.548 0-.818-.301-.187-.21-.187-.522 0-.546.536-.746.181-.067.485-.109.159-.023.499-.062.377-.042.468-.159.044-.057.044-.148v-.117q0-.288-.356-.38-.14-.035-.33-.035-.528 0-.668.296l-.034.093q-.013.05-.018.104h-.493q.015-.332.153-.512.028-.034.06-.067.265-.27.815-.317.097-.008.2-.008.876 0 1.092.452l.039.104q.026.094.026.205v1.64q0 .184.195.213.03.005.067.005.052 0 .107-.01zm-.855-.619v-.499q-.167.068-.452.11l-.335.044q-.538.072-.679.285-.06.094-.06.226 0 .286.279.395.137.052.324.052.424 0 .728-.252.16-.135.187-.27.008-.041.008-.09zm2.458-1.91v.362h-.504v1.91q0 .176.09.223.058.028.18.028.153 0 .234-.023v.374q-.23.036-.398.036-.447 0-.559-.267-.033-.078-.033-.174v-2.107h-.413v-.361h.413v-.767h.486v.767zm1.624 0v.362h-.505v1.91q0 .176.091.223.057.028.18.028.153 0 .234-.023v.374q-.23.036-.398.036-.447 0-.559-.267-.033-.078-.033-.174v-2.107h-.413v-.361h.413v-.767h.485v.767zm2.548 0h.45v2.33q0 .692-.156 1.02-.065.132-.164.241-.231.26-.727.333-.156.023-.323.023-.693 0-1.013-.353-.182-.2-.21-.486h.499q.034.182.127.27.026.023.06.05.207.147.556.147.397 0 .618-.194.034-.031.062-.065.167-.21.175-.697v-.207q-.286.363-.608.457-.107.031-.23.039-.043.002-.093.002-.397 0-.727-.241-.075-.055-.14-.12l-.01-.01q-.388-.41-.388-1.097 0-.67.35-1.088.338-.403.882-.431.036-.003.075-.003.574 0 .935.483zm-.883.33q-.434 0-.663.354-.184.283-.184.732 0 .621.33.902.21.182.525.182.441 0 .662-.366.166-.273.166-.702 0-.673-.353-.948-.197-.153-.483-.153zm2.125-.33h.452v.504q.284-.418.556-.53.13-.054.28-.054.066 0 .188.016v.452q-.372.005-.54.085-.05.021-.1.055-.345.226-.345.813v1.447h-.49zm4.547 1.544h-2.26q.004.335.114.522.023.036.05.073.215.309.612.353.06.008.122.008.6 0 .806-.559h.49q-.106.533-.552.788-.32.181-.76.181-.672 0-1.046-.428-.346-.393-.346-1.05 0-.693.39-1.107.38-.405 1.013-.405.561 0 .938.32.068.06.127.127.11.13.18.288.12.312.122.889zm-2.25-.361h1.722q.005-.013.005-.034 0-.348-.249-.585-.244-.233-.6-.233-.426 0-.67.3-.18.222-.208.552zm5.5.36h-2.26q.005.336.114.523.023.036.05.073.215.309.613.353.06.008.122.008.6 0 .805-.559h.491q-.106.533-.553.788-.32.181-.76.181-.672 0-1.046-.428-.346-.393-.346-1.05 0-.693.39-1.107.38-.405 1.013-.405.562 0 .938.32.068.06.128.127.109.13.179.288.12.312.122.889zm-2.25-.36h1.722q.006-.013.006-.034 0-.348-.25-.585-.244-.233-.6-.233-.426 0-.67.3-.18.222-.208.552zm2.9-1.182h.452v.503q.283-.418.556-.53.13-.054.28-.054.065 0 .187.016v.452q-.371.005-.54.085-.05.021-.099.055-.345.226-.345.813v1.447h-.491zm5.944-1.092v3.88h-.434v-.367q-.28.369-.66.455-.143.034-.317.034-.647 0-1.005-.442-.33-.403-.33-1.081 0-.673.368-1.076.362-.392.949-.392.618 0 .93.416l.013.015v-1.442zM92.67 88.9q-.416 0-.663.32-.228.293-.228.76 0 .533.293.835.24.244.606.244.41 0 .644-.328.208-.288.208-.74 0-.574-.299-.87-.223-.221-.561-.221zm4.703 1.208h-2.26q.004.335.114.522l.049.073q.216.309.613.353.06.008.122.008.6 0 .806-.559h.49q-.106.533-.553.788-.32.181-.758.181-.673 0-1.048-.428-.345-.393-.345-1.05 0-.693.39-1.107.38-.405 1.013-.405.561 0 .938.32.068.06.127.127.11.13.18.288.119.312.122.889zm-2.25-.361h1.722q.005-.013.005-.034 0-.348-.25-.585-.243-.233-.6-.233-.425 0-.67.3-.179.222-.207.552zm4.164 1.605h-.532l-1.078-2.787h.55l.821 2.26.866-2.26h.548z" style="line-height:1.25;-inkscape-font-specification:Jamrul" font-weight="400" font-size="60.434" font-family="Jamrul" letter-spacing="0" word-spacing="0" fill="#fff"/><g transform="matrix(.13466 0 0 .13466 26.842 84.184)"><rect width="50" height="50" x="201.03" y="16.199" ry="0" fill="#b04545"/><path d="M226.468 24.09c-.317.002-.64.007-.969.017-18.382 2.713-25.151 21.859-17.746 31.653 0 0 4.09-6.395.61-6.188-1.17-2.576.233-1.887 2.664-.815 0 0-.104 2.54 2.01 3.836 0 0-1.019-.738-.102-1.86 0 0 2.68 1.746 1.978 2.902 0 0 1.192.18 1.192-.845 0 0 3.093 2.27 1.695 3.858 0 0 2.027.121 2.677-1.708 0 0 1.24 2.66 2.838 3.099 0 0-.808-1.808-.019-2.681 0 0 1.818 3.246 4.545 2.832 0 0-1.886-.95-1.578-1.522 0 0 6.623 2.028 13.754-5.125a14.06 14.06 0 003.523-5.81c.197.468.45 1.23.353 1.886.316-.779 1.803-3.817 2.408-6.425.405.68.606 1.25.606 1.25.437-1.023.188-1.988-.357-2.831.029-.5-.003-.954-.12-1.332a5.602 5.602 0 00-.029-.874 7.948 7.948 0 011.391 1.501c.229-1.502-.754-2.58-1.956-3.325-1.113-2.064-3.389-2.84-3.389-2.84-2.323-4.646-6.162-8.688-15.979-8.652zm17.425 23.529c-.191.471-.35.747-.35.747.205-.205.308-.466.35-.747z" fill="#f2f2f0"/><ellipse cx="223.491" cy="37.047" rx="2.002" ry="2.131" fill-opacity=".812"/><ellipse cx="214.078" cy="104.578" rx="1.165" ry="1.445" transform="rotate(-18.38)" fill-opacity=".783"/><path d="M233.57 40.842s.83-.522 1.728-.46c.898.064 2.578 1.35 2.578 1.35s.596-2.223.184-2.813c0 0 1.618-1.264 1.39-2.184-.228-.919-3.852-3.963-6.324-3.059-2.473.904.444 7.166.444 7.166z" fill-opacity=".74"/><path style="line-height:normal;font-variant-ligatures:normal;font-variant-position:normal;font-variant-caps:normal;font-variant-numeric:normal;font-variant-alternates:normal;font-variant-east-asian:normal;font-feature-settings:normal;font-variation-settings:normal;text-indent:0;text-align:start;text-decoration-line:none;text-decoration-style:solid;text-decoration-color:#000;text-transform:none;text-orientation:mixed;white-space:normal;shape-padding:0;shape-margin:0;inline-size:0;isolation:auto;mix-blend-mode:normal;solid-color:#000;solid-opacity:1" d="M237.876 41.731l.062.226s.777.353.47 1.936c-.307 1.584-1.943 4.35-5.465 6.727 2.26-.925 4.667-3.374 5.511-5.74.25-.31.438-.228.793-.424.94.253 2.847.25 3.312-.28 0 0-1.724.466-3.354-.615.01-1.185-1.33-1.83-1.33-1.83z" color="#000" font-weight="400" font-family="sans-serif" overflow="visible" fill="#32312e"/></g></svg>