<?xml version="1.0" encoding="UTF-8" standalone="no"?>
<svg
   xmlns:dc="http://purl.org/dc/elements/1.1/"
   xmlns:cc="http://creativecommons.org/ns#"
   xmlns:rdf="http://www.w3.org/1999/02/22-rdf-syntax-ns#"
   xmlns:svg="http://www.w3.org/2000/svg"
   xmlns="http://www.w3.org/2000/svg"
   xmlns:sodipodi="http://sodipodi.sourceforge.net/DTD/sodipodi-0.dtd"
   xmlns:inkscape="http://www.inkscape.org/namespaces/inkscape"
   width="200mm"
   height="100mm"
   viewBox="0 0 200 100"
   version="1.1"
   id="svg2559"
   inkscape:version="1.0.1 (1.0.1+r74)"
   sodipodi:docname="twitterTemplate.svg">
  <defs
     id="defs2553" />
  <sodipodi:namedview
     id="base"
     pagecolor="#ffffff"
     bordercolor="#666666"
     borderopacity="1.0"
     inkscape:pageopacity="0.0"
     inkscape:pageshadow="2"
     inkscape:zoom="1.4"
     inkscape:cx="465.95608"
     inkscape:cy="182.06635"
     inkscape:document-units="mm"
     inkscape:current-layer="layer1"
     inkscape:document-rotation="0"
     showgrid="false"
     inkscape:window-width="3820"
     inkscape:window-height="1032"
     inkscape:window-x="0"
     inkscape:window-y="28"
     inkscape:window-maximized="1"
     showguides="false" />
  <metadata
     id="metadata2556">
    <rdf:RDF>
      <cc:Work
         rdf:about="">
        <dc:format>image/svg+xml</dc:format>
        <dc:type
           rdf:resource="http://purl.org/dc/dcmitype/StillImage" />
        <dc:title></dc:title>
      </cc:Work>
    </rdf:RDF>
  </metadata>
  <g
     inkscape:label="Layer 1"
     inkscape:groupmode="layer"
     id="layer1">
    <rect
       style="fill:#40444b;fill-opacity:1;stroke:none;stroke-width:1.50519"
       id="rect4249"
       width="110"
       height="100"
       x="0"
       y="0" />
    <path
       d="m 89.661369,90.709872 h 0.79188 v 0.95321 h -0.792122 z"
       style="font-weight:400;font-size:22.578px;line-height:1.25;font-family:sans-serif;letter-spacing:0;word-spacing:0;fill:#b04545;fill-opacity:1;stroke-width:0.242239"
       fill="#e76f51"
       id="path2922" />
    <path
       d="m 65.011856,88.564603 h 0.452018 v 0.392428 q 0.267432,-0.343011 0.600027,-0.431428 0.150672,-0.04167 0.34301,-0.04167 0.452018,0 0.691108,0.249506 0.07267,0.07509 0.13517,0.176834 0.267431,-0.296258 0.550851,-0.376923 0.166176,-0.04942 0.38952,-0.04942 0.60802,0 0.80811,0.390005 0.08309,0.163511 0.08309,0.386855 v 2.091491 h -0.491018 v -1.919986 q 0,-0.358513 -0.267674,-0.493683 -0.127176,-0.06492 -0.301345,-0.06492 -0.306433,0 -0.519603,0.223345 -0.200089,0.210748 -0.200089,0.504099 v 1.751388 h -0.491019 v -1.920229 q 0,-0.389762 -0.301345,-0.511851 l -0.101256,-0.03125 q -0.078,-0.0155 -0.166418,-0.0155 -0.306433,0 -0.522268,0.223344 -0.199848,0.210748 -0.199848,0.5041 v 1.751388 h -0.491018 z m 7.596858,2.528006 v 0.335017 q -0.207841,0.04675 -0.335259,0.04675 -0.366265,0 -0.465099,-0.251928 -0.02858,-0.06783 -0.03876,-0.158425 -0.41326,0.342768 -0.839358,0.397272 -0.09617,0.01308 -0.202754,0.01308 -0.548187,0 -0.818283,-0.301345 -0.187009,-0.210506 -0.187009,-0.522268 0,-0.545522 0.535348,-0.745611 0.181679,-0.06758 0.485689,-0.109008 0.158425,-0.0235 0.49877,-0.0625 0.376682,-0.04142 0.467522,-0.158424 0.04433,-0.05717 0.04433,-0.148008 V 89.31021 q 0,-0.288265 -0.356092,-0.379346 -0.140256,-0.03633 -0.329929,-0.03633 -0.527355,0 -0.667611,0.296258 l -0.03391,0.09351 q -0.01284,0.04917 -0.01817,0.10392 h -0.49344 q 0.0155,-0.332594 0.153095,-0.511851 0.02858,-0.03391 0.05983,-0.06783 0.26501,-0.270097 0.815862,-0.316848 0.09617,-0.0078 0.200089,-0.0078 0.875452,0 1.091044,0.452018 l 0.039,0.104163 q 0.02616,0.0935 0.02616,0.205176 v 1.639473 q 0,0.184344 0.194761,0.212928 0.03125,0.0051 0.06758,0.0051 0.05184,0 0.106585,-0.01018 z M 71.75361,90.474173 v -0.499012 q -0.166176,0.06783 -0.451775,0.10925 l -0.33526,0.04409 q -0.53777,0.07267 -0.678268,0.285842 -0.05959,0.0935 -0.05959,0.226009 0,0.285842 0.27809,0.39485 0.137592,0.05208 0.3246,0.05208 0.423676,0 0.727686,-0.251929 0.160847,-0.135169 0.187009,-0.270338 0.0078,-0.04142 0.0078,-0.09084 z m 2.457999,-1.90957 v 0.360936 h -0.503857 v 1.909812 q 0,0.176835 0.09084,0.223345 0.05717,0.02859 0.179257,0.02859 0.153337,0 0.23376,-0.02326 v 0.374017 q -0.228674,0.03634 -0.397272,0.03634 -0.447173,0 -0.558845,-0.267674 -0.03391,-0.07776 -0.03391,-0.173928 V 88.925789 H 72.808564 V 88.56461 h 0.41326 v -0.766444 h 0.485689 v 0.766444 z m 1.62397,0 v 0.360936 H 75.33148 v 1.909812 q 0,0.176835 0.09084,0.223345 0.05717,0.02859 0.179256,0.02859 0.153338,0 0.234003,-0.02326 v 0.374017 q -0.228673,0.03634 -0.397514,0.03634 -0.446931,0 -0.558603,-0.267674 -0.03391,-0.07776 -0.03391,-0.173928 v -2.106995 h -0.413018 v -0.361178 h 0.413018 v -0.766444 h 0.485931 v 0.766444 z m 2.548596,0 h 0.449596 v 2.330339 q 0,0.691108 -0.156002,1.018615 -0.06492,0.132505 -0.163753,0.241513 -0.231096,0.259922 -0.727444,0.332594 -0.15576,0.0235 -0.322178,0.0235 -0.69353,0 -1.013285,-0.353427 -0.18168,-0.200089 -0.210264,-0.485931 h 0.49877 q 0.03391,0.181921 0.127175,0.270338 0.02616,0.02326 0.05983,0.04942 0.207841,0.147766 0.555938,0.147766 0.397514,0 0.618436,-0.19476 0.03391,-0.03101 0.06226,-0.06492 0.166418,-0.210264 0.174412,-0.696195 v -0.207841 q -0.285842,0.363601 -0.60802,0.457347 -0.106585,0.03101 -0.228916,0.03876 -0.04409,0.0027 -0.0935,0.0027 -0.397272,0 -0.727444,-0.241512 -0.07509,-0.05475 -0.140256,-0.119666 l -0.01042,-0.01042 q -0.387098,-0.410353 -0.387098,-1.096374 0,-0.670275 0.350763,-1.088622 0.33768,-0.402601 0.88078,-0.431185 0.03634,-0.0024 0.07534,-0.0024 0.574106,0 0.935284,0.483024 z m -0.883445,0.32993 q -0.433608,0 -0.662281,0.353426 -0.184586,0.283178 -0.184586,0.732531 0,0.620859 0.329929,0.901614 0.210506,0.181679 0.524932,0.181679 0.441602,0 0.662524,-0.366266 0.166176,-0.272761 0.166176,-0.701523 0,-0.672698 -0.353427,-0.948124 -0.197425,-0.153337 -0.483267,-0.153337 z m 2.125405,-0.32993 h 0.452018 v 0.503858 q 0.283419,-0.418105 0.555938,-0.53002 0.130083,-0.0545 0.280755,-0.0545 0.06492,0 0.187009,0.01574 v 0.452018 q -0.371595,0.0051 -0.540435,0.08575 -0.04942,0.02083 -0.09883,0.0545 -0.345433,0.226009 -0.345433,0.813196 v 1.447136 h -0.491018 z m 4.546583,1.543063 h -2.260089 q 0.0048,0.335258 0.114094,0.522267 0.0235,0.03634 0.04942,0.07267 0.215593,0.309339 0.613107,0.353669 0.05983,0.0078 0.122088,0.0078 0.600268,0 0.805445,-0.558603 h 0.491018 q -0.106585,0.532441 -0.553273,0.787277 -0.319756,0.181679 -0.758693,0.181679 -0.67294,0 -1.047199,-0.428763 -0.345433,-0.392427 -0.345433,-1.049621 0,-0.693531 0.389763,-1.10679 0.379346,-0.405266 1.013285,-0.405266 0.561026,0 0.93795,0.319755 0.06734,0.05959 0.127175,0.127176 0.109008,0.12984 0.179257,0.288264 0.119666,0.312004 0.122088,0.888775 z M 81.922803,89.74673 h 1.722561 q 0.0051,-0.01308 0.0051,-0.03391 0,-0.348098 -0.249506,-0.584523 -0.243935,-0.233761 -0.600026,-0.233761 -0.426099,0 -0.670275,0.301346 -0.179257,0.220922 -0.207842,0.550851 z m 5.500278,0.360936 h -2.260332 q 0.0051,0.335258 0.114337,0.522267 0.02325,0.03634 0.04917,0.07267 0.215593,0.309339 0.61335,0.353669 0.05959,0.0078 0.122088,0.0078 0.600026,0 0.805445,-0.558603 h 0.491018 q -0.106585,0.532441 -0.553516,0.787277 -0.319756,0.181679 -0.758693,0.181679 -0.672939,0 -1.046956,-0.428763 -0.345676,-0.392427 -0.345676,-1.049621 0,-0.693531 0.390006,-1.10679 0.379103,-0.405266 1.013043,-0.405266 0.561267,0 0.937949,0.319755 0.06758,0.05959 0.127418,0.127176 0.109007,0.12984 0.179257,0.288264 0.119424,0.312004 0.122088,0.888775 z M 85.173165,89.74673 h 1.72232 q 0.0053,-0.01308 0.0053,-0.03391 0,-0.348098 -0.249507,-0.584523 -0.244176,-0.233761 -0.600026,-0.233761 -0.42634,0 -0.670275,0.301346 -0.179257,0.220922 -0.207841,0.550851 z m 2.899359,-1.182127 h 0.452018 v 0.503858 q 0.283419,-0.418105 0.55618,-0.53002 0.129841,-0.0545 0.280513,-0.0545 0.06492,0 0.187009,0.01574 v 0.452018 q -0.371595,0.0051 -0.540193,0.08575 -0.04966,0.02083 -0.09883,0.0545 -0.345675,0.226009 -0.345675,0.813196 v 1.447136 h -0.491018 z m 5.944302,-1.091286 v 3.878972 h -0.43385 v -0.366265 q -0.280755,0.36893 -0.659859,0.454683 -0.142921,0.03391 -0.317091,0.03391 -0.646778,0 -1.005291,-0.441844 -0.330172,-0.402843 -0.330172,-1.080871 0,-0.672939 0.36893,-1.075541 0.361178,-0.392426 0.948365,-0.392426 0.618437,0 0.930198,0.415681 l 0.01284,0.01575 v -1.442047 z m -1.34588,1.426303 q -0.415681,0 -0.662523,0.319755 -0.228674,0.293594 -0.228674,0.761115 0,0.532684 0.293594,0.834029 0.23909,0.244177 0.605598,0.244177 0.410352,0 0.644355,-0.327265 0.207599,-0.288264 0.207599,-0.740525 0,-0.574106 -0.298681,-0.870364 Q 93.00887,88.89962 92.670946,88.89962 Z m 4.702585,1.208046 h -2.260089 q 0.0048,0.335258 0.114095,0.522267 0.0235,0.03634 0.04942,0.07267 0.215589,0.309339 0.613105,0.353669 0.05983,0.0078 0.122089,0.0078 0.600268,0 0.805447,-0.558603 h 0.491015 q -0.106586,0.532441 -0.553273,0.787277 -0.319755,0.181679 -0.758692,0.181679 -0.672941,0 -1.0472,-0.428763 -0.345432,-0.392427 -0.345432,-1.049621 0,-0.693531 0.389762,-1.10679 0.379345,-0.405266 1.013286,-0.405266 0.561027,0 0.937707,0.319755 0.06783,0.05959 0.127417,0.127176 0.109008,0.12984 0.179255,0.288264 0.119428,0.312004 0.12209,0.888775 z M 95.123616,89.74673 h 1.72232 q 0.0053,-0.01308 0.0053,-0.03391 0,-0.348098 -0.249507,-0.584523 -0.243934,-0.233761 -0.600027,-0.233761 -0.426097,0 -0.670275,0.301346 -0.179255,0.220922 -0.20784,0.550851 z m 4.164815,1.605559 h -0.532683 l -1.078206,-2.787686 h 0.550852 l 0.820949,2.26009 0.865275,-2.26009 h 0.548192 z"
       style="font-weight:400;font-size:60.434px;line-height:1.25;font-family:Jamrul;-inkscape-font-specification:Jamrul;letter-spacing:0;word-spacing:0;fill:#ffffff;fill-opacity:1;stroke-width:0.15261"
       id="path2924" />
    <g
       id="g4223"
       transform="matrix(0.13465945,0,0,0.13465945,26.841671,84.184468)">
      <rect
         style="display:inline;fill:#b04545;fill-opacity:1;stroke:none;stroke-width:65.3434"
         id="rect2988"
         width="50"
         height="50"
         x="201.02975"
         y="16.199406"
         ry="0" />
      <path
         id="path1174"
         style="display:inline;opacity:1;fill:#f2f2f0;fill-opacity:1;stroke:none;stroke-width:0.264583px;stroke-linecap:butt;stroke-linejoin:miter;stroke-opacity:1"
         d="m 226.46808,24.090588 c -0.31668,0.0011 -0.63966,0.0068 -0.96893,0.01654 -18.38175,2.712591 -25.15157,21.858525 -17.74621,31.653365 0,0 4.08931,-6.395852 0.60979,-6.188768 -1.16961,-2.575306 0.23281,-1.886955 2.66392,-0.814938 0,0 -0.10394,2.539402 2.00969,3.835943 0,0 -1.01826,-0.738011 -0.10128,-1.85932 0,0 2.67904,1.746067 1.97817,2.901117 0,0 1.19218,0.17957 1.19218,-0.84491 0,0 3.093,2.270876 1.69447,3.858678 0,0 2.0276,0.120912 2.67735,-1.707907 0,0 1.23996,2.659661 2.83807,3.09852 0,0 -0.80796,-1.808361 -0.0191,-2.680973 0,0 1.81795,3.245975 4.54443,2.832386 0,0 -1.88559,-0.950463 -1.57768,-1.521873 0,0 6.62268,2.027314 13.75368,-5.125267 1.81823,-1.823734 2.90655,-3.830776 3.5233,-5.809465 0.19695,0.467704 0.45018,1.228889 0.35294,1.885157 0.31614,-0.778804 1.80316,-3.817025 2.40813,-6.424932 0.40467,0.67947 0.60616,1.250053 0.60616,1.250053 0.43639,-1.023356 0.18832,-1.987834 -0.3576,-2.831352 0.0293,-0.500052 -0.003,-0.953612 -0.11989,-1.331185 0.0143,-0.307028 0.002,-0.597329 -0.0284,-0.874882 0.85156,0.701057 1.39113,1.501717 1.39113,1.501717 0.22831,-1.501822 -0.75439,-2.580347 -1.95595,-3.324861 -1.11331,-2.064123 -3.38946,-2.83962 -3.38946,-2.83962 -2.3232,-4.646406 -6.16183,-8.688756 -15.97887,-8.653219 z m 17.42478,23.528281 c -0.19127,0.471178 -0.34933,0.747239 -0.34933,0.747239 0.20459,-0.205486 0.30771,-0.466381 0.34933,-0.747239 z"
         sodipodi:nodetypes="sccccccccccccccsccccccccccsccc" />
      <ellipse
         style="display:inline;fill:#000000;fill-opacity:0.811689;stroke:none;stroke-width:9.30857;stroke-miterlimit:4;stroke-dasharray:none;stroke-opacity:1"
         id="path1168"
         cx="223.49066"
         cy="37.047443"
         rx="2.0016582"
         ry="2.1311963" />
      <ellipse
         style="display:inline;fill:#000000;fill-opacity:0.783265;stroke:none;stroke-width:5.84748;stroke-miterlimit:4;stroke-dasharray:none;stroke-opacity:1"
         id="ellipse1221"
         cx="214.07794"
         cy="104.57751"
         rx="1.1651444"
         ry="1.4447938"
         transform="rotate(-18.380099)" />
      <path
         style="display:inline;fill:#000000;fill-opacity:0.740293;stroke:none;stroke-width:0.223509px;stroke-linecap:butt;stroke-linejoin:miter;stroke-opacity:0.437737"
         d="m 233.56982,40.84213 c 0,0 0.83046,-0.522605 1.72833,-0.459386 0.89787,0.06322 2.5775,1.348749 2.5775,1.348749 0,0 0.59625,-2.222169 0.18407,-2.812574 0,0 1.61838,-1.264178 1.39029,-2.183522 -0.22808,-0.919345 -3.85205,-3.962953 -6.32442,-3.059346 -2.47237,0.903609 0.44423,7.166079 0.44423,7.166079 z"
         id="path1166" />
      <path
         id="path1925"
         style="color:#000000;font-style:normal;font-variant:normal;font-weight:normal;font-stretch:normal;font-size:medium;line-height:normal;font-family:sans-serif;font-variant-ligatures:normal;font-variant-position:normal;font-variant-caps:normal;font-variant-numeric:normal;font-variant-alternates:normal;font-variant-east-asian:normal;font-feature-settings:normal;font-variation-settings:normal;text-indent:0;text-align:start;text-decoration:none;text-decoration-line:none;text-decoration-style:solid;text-decoration-color:#000000;letter-spacing:normal;word-spacing:normal;text-transform:none;writing-mode:lr-tb;direction:ltr;text-orientation:mixed;dominant-baseline:auto;baseline-shift:baseline;text-anchor:start;white-space:normal;shape-padding:0;shape-margin:0;inline-size:0;clip-rule:nonzero;display:inline;overflow:visible;visibility:visible;opacity:1;isolation:auto;mix-blend-mode:normal;color-interpolation:sRGB;color-interpolation-filters:linearRGB;solid-color:#000000;solid-opacity:1;vector-effect:none;fill:#32312e;fill-opacity:1;fill-rule:nonzero;stroke:none;stroke-width:0.600001;stroke-linecap:butt;stroke-linejoin:miter;stroke-miterlimit:4;stroke-dasharray:none;stroke-dashoffset:0;stroke-opacity:1;color-rendering:auto;image-rendering:auto;shape-rendering:auto;text-rendering:auto;enable-background:accumulate;stop-color:#000000;stop-opacity:1"
         d="m 237.87565,41.731493 0.0625,0.225491 c 0,0 0.77723,0.352576 0.47008,1.936165 -0.30716,1.583587 -1.9433,4.349623 -5.46498,6.726444 2.26011,-0.924181 4.66653,-3.373596 5.51081,-5.739135 0.24922,-0.309838 0.43825,-0.228849 0.7927,-0.424569 0.94092,0.253595 2.84707,0.25092 3.31243,-0.279265 0,0 -1.72456,0.465436 -3.35455,-0.615349 0.0106,-1.185324 -1.32904,-1.829782 -1.32904,-1.829782 z"
         sodipodi:nodetypes="ccscccccc" />
    </g>
  </g>
</svg>
