<svg xmlns="http://www.w3.org/2000/svg" width="200mm" height="100mm" viewBox="0 0 200 100"><path fill="#40444b" d="M0 0h110v100H0z"/><path d="M35.75 97.611h.791v.953h-.792z" style="line-height:1.25" fill="#b04545" font-weight="400" font-size="22.578" font-family="sans-serif" letter-spacing="0" word-spacing="0"/><path d="M11.1 95.466h.452v.392q.267-.343.6-.431.15-.042.343-.042.452 0 .69.25.073.075.136.176.267-.296.55-.376.167-.05.39-.05.608 0 .808.39.084.164.084.387v2.091h-.491v-1.92q0-.358-.268-.493-.127-.065-.302-.065-.306 0-.52.223-.2.21-.2.504v1.752h-.49v-1.92q0-.39-.302-.512l-.1-.032q-.079-.015-.167-.015-.307 0-.523.223-.2.21-.2.504v1.752h-.49zm7.596 2.528v.335q-.207.047-.335.047-.366 0-.465-.252-.028-.068-.039-.159-.413.343-.839.397-.096.014-.203.014-.548 0-.818-.302-.187-.21-.187-.522 0-.546.535-.746.182-.067.486-.109.158-.023.499-.062.376-.042.467-.159.045-.057.045-.148v-.117q0-.288-.356-.379-.14-.036-.33-.036-.528 0-.668.296l-.034.093q-.013.05-.018.104h-.494q.016-.332.154-.511.028-.034.06-.068.264-.27.815-.317.096-.008.2-.008.876 0 1.091.452l.04.104q.026.094.026.205v1.64q0 .184.194.213.032.005.068.005.052 0 .106-.01zm-.855-.619v-.499q-.166.068-.451.11l-.336.044q-.537.072-.678.286-.06.093-.06.226 0 .285.279.394.137.052.324.052.424 0 .728-.251.16-.136.187-.27.008-.042.008-.092zm2.458-1.91v.362h-.503v1.91q0 .176.09.223.058.028.18.028.153 0 .233-.023v.374q-.228.037-.397.037-.447 0-.559-.268-.034-.078-.034-.174v-2.107h-.413v-.361h.414v-.767h.485v.767zm1.624 0v.362h-.504v1.91q0 .176.091.223.057.028.18.028.153 0 .233-.023v.374q-.228.037-.397.037-.447 0-.559-.268-.034-.078-.034-.174v-2.107h-.413v-.361h.413v-.767h.486v.767zm2.549 0h.45v2.331q0 .691-.156 1.019-.065.132-.164.241-.231.26-.728.333-.155.023-.322.023-.693 0-1.013-.353-.182-.2-.21-.486h.498q.034.182.128.27.026.024.06.05.207.147.555.147.398 0 .619-.194.034-.031.062-.065.166-.21.174-.696v-.208q-.285.363-.608.457-.106.031-.228.039-.045.003-.094.003-.397 0-.727-.242-.076-.055-.14-.12l-.011-.01q-.387-.41-.387-1.096 0-.67.35-1.089.338-.403.881-.431.037-.003.076-.003.574 0 .935.483zm-.883.33q-.434 0-.663.354-.184.283-.184.733 0 .62.33.901.21.182.524.182.442 0 .663-.366.166-.273.166-.702 0-.673-.353-.948-.198-.153-.483-.153zm2.125-.33h.452v.505q.283-.418.556-.53.13-.055.28-.055.066 0 .188.016v.452q-.372.005-.54.086-.05.02-.1.054-.345.226-.345.813v1.447h-.491zm4.546 1.544H28q.005.335.114.522l.05.073q.216.31.613.353.06.008.122.008.6 0 .806-.558h.49q-.106.532-.553.787-.32.182-.758.182-.673 0-1.048-.43-.345-.392-.345-1.049 0-.693.39-1.107.38-.405 1.013-.405.561 0 .938.32.067.06.127.127.11.13.18.288.12.312.121.89zm-2.25-.361h1.723q.005-.013.005-.034 0-.348-.25-.585-.243-.233-.6-.233-.425 0-.67.301-.179.221-.207.55zm5.5.36h-2.26q.006.336.115.523l.049.073q.216.31.613.353.06.008.122.008.6 0 .806-.558h.49q-.106.532-.553.787-.32.182-.758.182-.673 0-1.047-.43-.346-.392-.346-1.049 0-.693.39-1.107.38-.405 1.013-.405.561 0 .938.32.068.06.128.127.109.13.179.288.12.312.122.89zm-2.25-.36h1.723q.006-.013.006-.034 0-.348-.25-.585-.244-.233-.6-.233-.426 0-.67.301-.18.221-.208.55zm2.9-1.182h.452v.504q.284-.418.556-.53.13-.055.281-.055.065 0 .187.016v.452q-.372.005-.54.086-.05.02-.099.054-.346.226-.346.813v1.447h-.49zm5.945-1.092v3.88h-.434v-.367q-.281.37-.66.455-.143.034-.317.034-.647 0-1.005-.442-.33-.403-.33-1.08 0-.674.368-1.076.361-.393.949-.393.618 0 .93.416l.013.016v-1.443zm-1.346 1.427q-.416 0-.663.32-.228.293-.228.76 0 .533.293.835.24.244.606.244.41 0 .644-.327.208-.289.208-.74 0-.575-.299-.871-.223-.221-.561-.221zm4.702 1.208h-2.26q.005.335.114.522l.05.073q.215.31.613.353.06.008.122.008.6 0 .805-.558h.491q-.106.532-.553.787-.32.182-.759.182-.673 0-1.047-.43-.345-.392-.345-1.049 0-.693.39-1.107.379-.405 1.013-.405.56 0 .938.32.067.06.127.127.109.13.18.288.119.312.121.89zm-2.25-.361h1.723q.005-.013.005-.034 0-.348-.25-.585-.243-.233-.6-.233-.426 0-.67.301-.18.221-.208.55zm4.165 1.605h-.532l-1.079-2.787h.551l.821 2.26.865-2.26h.549z" style="line-height:1.25;-inkscape-font-specification:Jamrul" font-weight="400" font-size="60.434" font-family="Jamrul" letter-spacing="0" word-spacing="0" fill="#fff"/><g transform="translate(-27.07 91.086) scale(.13466)"><rect width="50" height="50" x="201.03" y="16.199" ry="0" fill="#b04545"/><path d="M226.468 24.09c-.317.002-.64.007-.969.017-18.382 2.713-25.151 21.859-17.746 31.653 0 0 4.09-6.395.61-6.188-1.17-2.576.233-1.887 2.664-.815 0 0-.104 2.54 2.01 3.836 0 0-1.019-.738-.102-1.86 0 0 2.68 1.746 1.978 2.902 0 0 1.192.18 1.192-.845 0 0 3.093 2.27 1.695 3.858 0 0 2.027.121 2.677-1.708 0 0 1.24 2.66 2.838 3.099 0 0-.808-1.808-.019-2.681 0 0 1.818 3.246 4.545 2.832 0 0-1.886-.95-1.578-1.522 0 0 6.623 2.028 13.754-5.125a14.06 14.06 0 003.523-5.81c.197.468.45 1.23.353 1.886.316-.779 1.803-3.817 2.408-6.425.405.68.606 1.25.606 1.25.437-1.023.188-1.988-.357-2.831.029-.5-.003-.954-.12-1.332a5.602 5.602 0 00-.029-.874 7.948 7.948 0 011.391 1.501c.229-1.502-.754-2.58-1.956-3.325-1.113-2.064-3.389-2.84-3.389-2.84-2.323-4.646-6.162-8.688-15.979-8.652zm17.425 23.529c-.191.471-.35.747-.35.747.205-.205.308-.466.35-.747z" fill="#f2f2f0"/><ellipse cx="223.491" cy="37.047" rx="2.002" ry="2.131" fill-opacity=".812"/><ellipse cx="214.078" cy="104.578" rx="1.165" ry="1.445" transform="rotate(-18.38)" fill-opacity=".783"/><path d="M233.57 40.842s.83-.522 1.728-.46c.898.064 2.578 1.35 2.578 1.35s.596-2.223.184-2.813c0 0 1.618-1.264 1.39-2.184-.228-.919-3.852-3.963-6.324-3.059-2.473.904.444 7.166.444 7.166z" fill-opacity=".74"/><path style="line-height:normal;font-variant-ligatures:normal;font-variant-position:normal;font-variant-caps:normal;font-variant-numeric:normal;font-variant-alternates:normal;font-variant-east-asian:normal;font-feature-settings:normal;font-variation-settings:normal;text-indent:0;text-align:start;text-decoration-line:none;text-decoration-style:solid;text-decoration-color:#000;text-transform:none;text-orientation:mixed;white-space:normal;shape-padding:0;shape-margin:0;inline-size:0;isolation:auto;mix-blend-mode:normal;solid-color:#000;solid-opacity:1" d="M237.876 41.731l.062.226s.777.353.47 1.936c-.307 1.584-1.943 4.35-5.465 6.727 2.26-.925 4.667-3.374 5.511-5.74.25-.31.438-.228.793-.424.94.253 2.847.25 3.312-.28 0 0-1.724.466-3.354-.615.01-1.185-1.33-1.83-1.33-1.83z" color="#000" font-weight="400" font-family="sans-serif" overflow="visible" fill="#32312e"/></g></svg>