<?xml version="1.0" encoding="UTF-8" standalone="no"?>
<svg
   xmlns:dc="http://purl.org/dc/elements/1.1/"
   xmlns:cc="http://creativecommons.org/ns#"
   xmlns:rdf="http://www.w3.org/1999/02/22-rdf-syntax-ns#"
   xmlns:svg="http://www.w3.org/2000/svg"
   xmlns="http://www.w3.org/2000/svg"
   xmlns:sodipodi="http://sodipodi.sourceforge.net/DTD/sodipodi-0.dtd"
   xmlns:inkscape="http://www.inkscape.org/namespaces/inkscape"
   style="height: 512px; width: 512px;"
   viewBox="0 0 512 512"
   version="1.1"
   id="svg2050"
   sodipodi:docname="feature.svg"
   inkscape:export-filename="/home/matt/dev/mattgreer.org/pages/articles/waking-up-at-5am-to-code/feature.png"
   inkscape:export-xdpi="114.75"
   inkscape:export-ydpi="114.75"
   inkscape:version="1.0.1 (1.0.1+r74)">
  <metadata
     id="metadata2056">
    <rdf:RDF>
      <cc:Work
         rdf:about="">
        <dc:format>image/svg+xml</dc:format>
        <dc:type
           rdf:resource="http://purl.org/dc/dcmitype/StillImage" />
      </cc:Work>
    </rdf:RDF>
  </metadata>
  <defs
     id="defs2054" />
  <sodipodi:namedview
     pagecolor="#ffffff"
     bordercolor="#666666"
     borderopacity="1"
     objecttolerance="10"
     gridtolerance="10"
     guidetolerance="10"
     inkscape:pageopacity="0"
     inkscape:pageshadow="2"
     inkscape:window-width="3820"
     inkscape:window-height="1032"
     id="namedview2052"
     showgrid="false"
     inkscape:zoom="1.796875"
     inkscape:cx="47.582609"
     inkscape:cy="256"
     inkscape:window-x="0"
     inkscape:window-y="28"
     inkscape:window-maximized="0"
     inkscape:current-layer="svg2050" />
  <path
     d="M0 0h512v512H0z"
     fill="#000000"
     fill-opacity="1"
     id="path2044"
     style="fill:#ae5047;fill-opacity:1" />
  <g
     class=""
     style="touch-action: none;"
     transform="translate(0,0)"
     id="g2048">
    <path
       d="M247 62.107v9.94h-28.88v18H247v39.074c-84.367 4.682-151.514 74.737-151.514 160.26 0 41.037 15.468 78.508 40.873 106.91l-36.237 36.237 12.727 12.73 36.238-36.24C177.49 434.425 214.96 449.894 256 449.894c41.04 0 78.51-15.47 106.912-40.875l36.238 36.238 12.727-12.73-36.236-36.235c25.406-28.402 40.874-65.873 40.874-106.91 0-85.523-67.147-155.578-151.514-160.26V90.048h28.88v-18H265v-9.94h-18zm-104.906 26.58c-3.583-.03-7.267.125-11.014.465C111.1 90.97 89.15 98 73.637 113.514c-15.514 15.513-22.545 37.462-24.362 57.443-.908 9.99-.488 19.54 1.184 27.898 1.67 8.36 4.315 15.662 9.784 21.13l6.363 6.365 6.366-6.364 113.5-113.502-6.366-6.363c-5.47-5.468-12.77-8.112-21.128-9.784-4.18-.836-8.658-1.358-13.34-1.56-1.17-.05-2.352-.08-3.546-.088zm227.812 0c-1.194.01-2.376.04-3.547.09-4.682.2-9.16.723-13.34 1.56-8.357 1.67-15.658 4.315-21.127 9.784l-6.366 6.364 6.366 6.366 113.5 113.5 6.363-6.364c5.47-5.47 8.113-12.772 9.785-21.13 1.673-8.36 2.093-17.908 1.185-27.9-1.817-19.98-8.848-41.93-24.362-57.442C422.85 98 400.9 90.97 380.92 89.152c-3.747-.34-7.43-.494-11.014-.465zM256 146.865c78.815 0 142.514 63.7 142.514 142.514 0 78.814-63.7 142.513-142.514 142.513-78.815 0-142.514-63.7-142.514-142.514 0-78.816 63.7-142.515 142.514-142.515zm-88.332 41.453l-12.73 12.73 82.92 82.917a18.94 18.94 0 0 0-.797 5.414A18.94 18.94 0 0 0 256 308.317a18.94 18.94 0 0 0 16.66-9.94h59.096v-18h-59.11A18.94 18.94 0 0 0 256 270.44a18.94 18.94 0 0 0-5.408.804l-82.924-82.924z"
       fill="#fff"
       fill-opacity="1"
       id="path2046" />
  </g>
</svg>
