<?xml version="1.0" encoding="UTF-8"?>
<!-- Created with Inkscape (http://www.inkscape.org/) -->
<svg width="252.91mm" height="168.87mm" version="1.1" viewBox="0 0 252.91 168.87" xmlns="http://www.w3.org/2000/svg">
 <g transform="translate(25.393 -3.3658)">
  <path d="m57.634 87.786 78.054 33.999a83.903 83.903 0 0 0 7.2543-33.987 83.903 83.903 0 0 0 0-0.0124z" fill="#099d2e" stop-color="#000000" stroke="#000" stroke-width="1.0583"/>
  <path d="m59.04 3.8949a83.903 83.903 0 0 0-83.904 83.903 83.903 83.903 0 0 0 83.904 83.903 83.903 83.903 0 0 0 76.649-49.916l-78.054-33.999h85.308a83.903 83.903 0 0 0-83.903-83.892z" fill="#9d1e09" stop-color="#000000" stroke="#000" stroke-width="1.0583"/>
  <g transform="translate(317.68 -2.5545)" stroke="#000">
   <g stroke-width="1.0583">
    <rect x="-294.64" y="63.104" width="15.895" height="7.7786" stop-color="#000000"/>
    <rect x="-240.13" y="63.104" width="15.895" height="7.7786" stop-color="#000000"/>
    <rect x="-294.64" y="111.26" width="15.895" height="7.7786" stop-color="#000000"/>
    <rect x="-240.13" y="111.26" width="15.895" height="7.7786" stop-color="#000000"/>
   </g>
   <g stroke-width="1.55">
    <path d="m-300.18 66.586h60.961l21.237 4.0193v41.384l-21.237 3.7857h-60.961z" fill="#57ff83" stop-color="#000000"/>
    <rect x="-300.18" y="66.586" width="60.961" height="49.189" fill="#57ff83" stop-color="#000000"/>
    <path d="m-247.8 71.478 5.5765-1.4826v42.346l-5.5765-1.8704z" fill="#eee" stop-color="#000000"/>
   </g>
  </g>
  <g stroke="#000" stroke-width="1.0583">
   <path d="m57.634 87.873h111.57" fill="none"/>
   <circle cx="198.73" cy="149.26" r="6.3477" fill="#eaf11a" stop-color="#000000"/>
   <circle cx="59.04" cy="87.798" r="83.903" fill="none" stop-color="#000000"/>
   <path d="m57.634 87.786 101.57 44.243" fill="none"/>
  </g>
  <g stroke-width=".26458">
   <g aria-label="20 degrees">
    <path d="m119.52 104.03h3.6432v0.8785h-4.8989v-0.8785q0.59427-0.61495 1.6175-1.6485 1.0284-1.0387 1.2919-1.3384 0.50126-0.56327 0.69763-0.95084 0.20154-0.39274 0.20154-0.76998 0-0.61495-0.43408-1.0025-0.42892-0.38757-1.1214-0.38757-0.49092 0-1.0387 0.17053-0.5426 0.17053-1.1627 0.51676v-1.0542q0.63045-0.25321 1.1782-0.3824t1.0025-0.12919q1.1989 0 1.912 0.59944 0.71314 0.59944 0.71314 1.602 0 0.47542-0.18087 0.90434-0.1757 0.42375-0.64596 1.0025-0.12919 0.14986-0.82165 0.86816-0.69246 0.71313-1.9534 1.9999z"/>
    <path d="m127.59 97.883q-0.80615 0-1.2144 0.79581-0.40307 0.79065-0.40307 2.3823 0 1.5865 0.40307 2.3823 0.40824 0.79065 1.2144 0.79065 0.81132 0 1.2144-0.79065 0.40824-0.79581 0.40824-2.3823 0-1.5916-0.40824-2.3823-0.40308-0.79581-1.2144-0.79581zm0-0.82682q1.2971 0 1.9792 1.0284 0.68729 1.0232 0.68729 2.9766 0 1.9482-0.68729 2.9766-0.68213 1.0232-1.9792 1.0232-1.2971 0-1.9844-1.0232-0.68213-1.0284-0.68213-2.9766 0-1.9534 0.68213-2.9766 0.68729-1.0284 1.9844-1.0284z"/>
    <path d="m139.13 100v-3.1316h0.95085v8.0408h-0.95085v-0.86816q-0.29972 0.51676-0.75964 0.76997-0.45475 0.24805-1.0955 0.24805-1.049 0-1.7105-0.83716-0.65629-0.83715-0.65629-2.2014 0-1.3643 0.65629-2.2014 0.66146-0.83716 1.7105-0.83716 0.64078 0 1.0955 0.25321 0.45992 0.24805 0.75964 0.7648zm-3.2401 2.0206q0 1.049 0.42892 1.6485 0.43408 0.59428 1.1886 0.59428t1.1886-0.59428q0.43408-0.59945 0.43408-1.6485 0-1.049-0.43408-1.6433-0.43408-0.59944-1.1886-0.59944t-1.1886 0.59944q-0.42892 0.59428-0.42892 1.6433z"/>
    <path d="m146.99 101.78v0.46508h-4.3718q0.062 0.98185 0.58911 1.4986 0.53227 0.51159 1.4779 0.51159 0.54777 0 1.0594-0.13436 0.51676-0.13436 1.0232-0.40307v0.89916q-0.5116 0.21704-1.049 0.33073-0.53744 0.11369-1.0904 0.11369-1.3849 0-2.1962-0.80615-0.80615-0.80615-0.80615-2.1807 0-1.4211 0.76481-2.2531 0.76997-0.83716 2.0722-0.83716 1.1679 0 1.8448 0.75447 0.68212 0.7493 0.68212 2.0412zm-0.95084-0.27905q-0.0103-0.78032-0.43925-1.2454-0.42374-0.46509-1.1265-0.46509-0.79581 0-1.2764 0.44958-0.47543 0.44959-0.54777 1.2661z"/>
    <path d="m152.36 101.95q0-1.0335-0.42891-1.602-0.42375-0.56843-1.1937-0.56843-0.76481 0-1.1937 0.56843-0.42374 0.56844-0.42374 1.602 0 1.0284 0.42374 1.5968 0.42892 0.56843 1.1937 0.56843 0.76997 0 1.1937-0.56843 0.42891-0.56844 0.42891-1.5968zm0.95084 2.2428q0 1.4779-0.65629 2.1962-0.65628 0.72347-2.0102 0.72347-0.50126 0-0.94568-0.0775-0.44441-0.0723-0.86299-0.22737v-0.92501q0.41858 0.22738 0.82682 0.3359t0.83199 0.10852q0.93534 0 1.4004-0.49093 0.46509-0.48575 0.46509-1.4728v-0.47025q-0.29455 0.51159-0.75447 0.76481-0.45992 0.25321-1.1007 0.25321-1.0645 0-1.7156-0.81132t-0.65112-2.1497q0-1.3436 0.65112-2.1549 0.65112-0.81132 1.7156-0.81132 0.64079 0 1.1007 0.25321 0.45992 0.25321 0.75447 0.7648v-0.87849h0.95084z"/>
    <path d="m158.62 100.01q-0.16019-0.09302-0.3514-0.13436-0.18603-0.04651-0.41341-0.04651-0.80614 0-1.2402 0.5271-0.42891 0.52193-0.42891 1.5038v3.0489h-0.95601v-5.7877h0.95601v0.89916q0.29972-0.52709 0.78031-0.78031 0.48059-0.25838 1.1679-0.25838 0.0982 0 0.21704 0.0155 0.11885 0.01033 0.26355 0.03617z"/>
    <path d="m164.34 101.78v0.46508h-4.3718q0.062 0.98185 0.58911 1.4986 0.53226 0.51159 1.4779 0.51159 0.54777 0 1.0594-0.13436 0.51676-0.13436 1.0232-0.40307v0.89916q-0.51159 0.21704-1.049 0.33073-0.53743 0.11369-1.0904 0.11369-1.3849 0-2.1962-0.80615-0.80615-0.80615-0.80615-2.1807 0-1.4211 0.76481-2.2531 0.76998-0.83716 2.0722-0.83716 1.1679 0 1.8448 0.75447 0.68213 0.7493 0.68213 2.0412zm-0.95084-0.27905q-0.0103-0.78032-0.43925-1.2454-0.42375-0.46509-1.1266-0.46509-0.79581 0-1.2764 0.44958-0.47542 0.44959-0.54777 1.2661z"/>
    <path d="m170.85 101.78v0.46508h-4.3718q0.062 0.98185 0.58911 1.4986 0.53227 0.51159 1.478 0.51159 0.54776 0 1.0594-0.13436 0.51676-0.13436 1.0232-0.40307v0.89916q-0.5116 0.21704-1.049 0.33073t-1.0904 0.11369q-1.3849 0-2.1962-0.80615-0.80615-0.80615-0.80615-2.1807 0-1.4211 0.76481-2.2531 0.76998-0.83716 2.0722-0.83716 1.1679 0 1.8448 0.75447 0.68213 0.7493 0.68213 2.0412zm-0.95085-0.27905q-0.0103-0.78032-0.43924-1.2454-0.42375-0.46509-1.1266-0.46509-0.79581 0-1.2764 0.44958-0.47542 0.44959-0.54777 1.2661z"/>
    <path d="m176.1 99.294v0.89917q-0.40308-0.20671-0.83716-0.31006-0.43408-0.10335-0.89917-0.10335-0.70796 0-1.0645 0.21704-0.3514 0.21704-0.3514 0.65112 0 0.33072 0.25322 0.52193 0.25321 0.18603 1.018 0.35656l0.32556 0.0724q1.0129 0.21704 1.4366 0.61495 0.42891 0.39274 0.42891 1.1007 0 0.80615-0.64078 1.2764-0.63562 0.47025-1.7518 0.47025-0.46508 0-0.97151-0.093-0.50126-0.0879-1.0594-0.26871v-0.98185q0.52709 0.27388 1.0387 0.41341 0.51159 0.13436 1.0128 0.13436 0.6718 0 1.0335-0.22738 0.36173-0.23254 0.36173-0.65112 0-0.38757-0.26355-0.59428-0.25838-0.2067-1.142-0.39791l-0.33073-0.0775q-0.88366-0.18603-1.2764-0.56844-0.39274-0.38757-0.39274-1.0594 0-0.81649 0.57877-1.2609 0.57878-0.44442 1.6433-0.44442 0.52709 0 0.99218 0.07751 0.46509 0.07752 0.85783 0.23254z"/>
   </g>
   <g aria-label="340 degrees">
    <path d="m28.224 40.089q0.74931 0.1602 1.1679 0.66662 0.42375 0.50643 0.42375 1.2506 0 1.142-0.78548 1.7673-0.78548 0.62528-2.2324 0.62528-0.48576 0-1.0025-0.09819-0.5116-0.09302-1.0594-0.28422v-1.0077q0.43408 0.25321 0.95084 0.3824 0.51676 0.12919 1.08 0.12919 0.98185 0 1.4934-0.38757 0.51676-0.38757 0.51676-1.1265 0-0.68213-0.48059-1.0645-0.47542-0.38757-1.3281-0.38757h-0.89917v-0.85783h0.94051q0.76998 0 1.1782-0.30489 0.40824-0.31006 0.40824-0.88883 0-0.59428-0.42374-0.9095-0.41858-0.32039-1.2041-0.32039-0.42891 0-0.91984 0.09302t-1.08 0.28939v-0.93017q0.59428-0.16536 1.111-0.24805 0.52193-0.08268 0.98185-0.08268 1.1886 0 1.881 0.5426 0.69246 0.53743 0.69246 1.4573 0 0.64079-0.3669 1.0852-0.3669 0.43925-1.0439 0.60978z"/>
    <path d="m34.662 37.443-2.6355 4.1186h2.6355zm-0.27388-0.9095h1.3126v5.0281h1.1007v0.86816h-1.1007v1.819h-1.0387v-1.819h-3.483v-1.0077z"/>
    <path d="m40.76 37.221q-0.80615 0-1.2144 0.79581-0.40308 0.79065-0.40308 2.3823 0 1.5865 0.40308 2.3823 0.40824 0.79065 1.2144 0.79065 0.81132 0 1.2144-0.79065 0.40824-0.79581 0.40824-2.3823 0-1.5916-0.40824-2.3823-0.40308-0.79581-1.2144-0.79581zm0-0.82682q1.2971 0 1.9792 1.0284 0.68729 1.0232 0.68729 2.9766 0 1.9482-0.68729 2.9766-0.68213 1.0232-1.9792 1.0232t-1.9844-1.0232q-0.68213-1.0284-0.68213-2.9766 0-1.9534 0.68213-2.9766 0.6873-1.0284 1.9844-1.0284z"/>
    <path d="m52.3 39.339v-3.1316h0.95084v8.0408h-0.95084v-0.86816q-0.29972 0.51676-0.75964 0.76998-0.45475 0.24805-1.0955 0.24805-1.049 0-1.7105-0.83716-0.65629-0.83716-0.65629-2.2014t0.65629-2.2014q0.66146-0.83716 1.7105-0.83716 0.64078 0 1.0955 0.25321 0.45992 0.24805 0.75964 0.76481zm-3.2401 2.0205q0 1.049 0.42891 1.6485 0.43408 0.59428 1.1886 0.59428 0.75447 0 1.1886-0.59428 0.43408-0.59944 0.43408-1.6485t-0.43408-1.6433q-0.43408-0.59944-1.1886-0.59944-0.75447 0-1.1886 0.59944-0.42891 0.59428-0.42891 1.6433z"/>
    <path d="m60.159 41.117v0.46509h-4.3718q0.06201 0.98185 0.58911 1.4986 0.53227 0.5116 1.4779 0.5116 0.54777 0 1.0594-0.13436 0.51676-0.13436 1.0232-0.40307v0.89917q-0.5116 0.21704-1.049 0.33073-0.53743 0.11369-1.0904 0.11369-1.3849 0-2.1962-0.80615-0.80615-0.80615-0.80615-2.1807 0-1.4211 0.76481-2.2531 0.76998-0.83716 2.0722-0.83716 1.1679 0 1.8448 0.75447 0.68213 0.74931 0.68213 2.0412zm-0.95084-0.27905q-0.01033-0.78031-0.43925-1.2454-0.42374-0.46509-1.1265-0.46509-0.79582 0-1.2764 0.44958-0.47542 0.44958-0.54777 1.2661z"/>
    <path d="m65.529 41.287q0-1.0335-0.42891-1.602-0.42375-0.56844-1.1937-0.56844-0.76481 0-1.1937 0.56844-0.42374 0.56844-0.42374 1.602 0 1.0284 0.42374 1.5968 0.42891 0.56844 1.1937 0.56844 0.76998 0 1.1937-0.56844 0.42891-0.56844 0.42891-1.5968zm0.95084 2.2428q0 1.4779-0.65629 2.1962-0.65629 0.72347-2.0102 0.72347-0.50126 0-0.94568-0.07751-0.44442-0.07235-0.86299-0.22738v-0.925q0.41858 0.22738 0.82682 0.3359 0.40824 0.10852 0.83199 0.10852 0.93534 0 1.4004-0.49092 0.46509-0.48576 0.46509-1.4728v-0.47025q-0.29456 0.5116-0.75447 0.76481-0.45992 0.25321-1.1007 0.25321-1.0645 0-1.7157-0.81132t-0.65112-2.1497q0-1.3436 0.65112-2.1549 0.65112-0.81132 1.7157-0.81132 0.64078 0 1.1007 0.25321t0.75447 0.76481v-0.8785h0.95084z"/>
    <path d="m71.792 39.35q-0.1602-0.09302-0.3514-0.13436-0.18604-0.04651-0.41341-0.04651-0.80615 0-1.2402 0.5271-0.42891 0.52193-0.42891 1.5038v3.0489h-0.95601v-5.7877h0.95601v0.89917q0.29972-0.5271 0.78031-0.78031 0.48059-0.25838 1.1679-0.25838 0.09818 0 0.21704 0.0155 0.11886 0.01034 0.26355 0.03617z"/>
    <path d="m77.507 41.117v0.46509h-4.3718q0.06201 0.98185 0.58911 1.4986 0.53226 0.5116 1.4779 0.5116 0.54777 0 1.0594-0.13436 0.51676-0.13436 1.0232-0.40307v0.89917q-0.5116 0.21704-1.049 0.33073-0.53743 0.11369-1.0904 0.11369-1.3849 0-2.1962-0.80615-0.80615-0.80615-0.80615-2.1807 0-1.4211 0.76481-2.2531 0.76998-0.83716 2.0722-0.83716 1.1679 0 1.8448 0.75447 0.68213 0.74931 0.68213 2.0412zm-0.95084-0.27905q-0.01033-0.78031-0.43925-1.2454-0.42374-0.46509-1.1265-0.46509-0.79582 0-1.2764 0.44958-0.47542 0.44958-0.54777 1.2661z"/>
    <path d="m84.018 41.117v0.46509h-4.3718q0.06201 0.98185 0.58911 1.4986 0.53226 0.5116 1.4779 0.5116 0.54777 0 1.0594-0.13436 0.51676-0.13436 1.0232-0.40307v0.89917q-0.5116 0.21704-1.049 0.33073t-1.0904 0.11369q-1.3849 0-2.1962-0.80615-0.80615-0.80615-0.80615-2.1807 0-1.4211 0.76481-2.2531 0.76998-0.83716 2.0722-0.83716 1.1679 0 1.8448 0.75447 0.68213 0.74931 0.68213 2.0412zm-0.95084-0.27905q-0.01033-0.78031-0.43925-1.2454-0.42375-0.46509-1.1265-0.46509-0.79581 0-1.2764 0.44958-0.47542 0.44958-0.54777 1.2661z"/>
    <path d="m89.269 38.631v0.89917q-0.40308-0.2067-0.83716-0.31006-0.43408-0.10335-0.89917-0.10335-0.70796 0-1.0645 0.21704-0.3514 0.21704-0.3514 0.65112 0 0.33073 0.25321 0.52193 0.25321 0.18603 1.018 0.35657l0.32556 0.07235q1.0129 0.21704 1.4366 0.61495 0.42891 0.39274 0.42891 1.1007 0 0.80615-0.64078 1.2764-0.63562 0.47026-1.7518 0.47026-0.46509 0-0.97151-0.09302-0.50126-0.08785-1.0594-0.26872v-0.98185q0.5271 0.27388 1.0387 0.41341 0.5116 0.13436 1.0129 0.13436 0.67179 0 1.0335-0.22738 0.36173-0.23254 0.36173-0.65112 0-0.38757-0.26355-0.59428-0.25838-0.2067-1.142-0.39791l-0.33073-0.07751q-0.88366-0.18604-1.2764-0.56844-0.39274-0.38757-0.39274-1.0594 0-0.81648 0.57877-1.2609t1.6433-0.44442q0.5271 0 0.99218 0.07751 0.46509 0.07751 0.85783 0.23254z"/>
   </g>
   <g aria-label="waypoint">
    <path d="m179.82 163.62h0.95084l1.1886 4.5165 1.1834-4.5165h1.1214l1.1886 4.5165 1.1834-4.5165h0.95084l-1.5141 5.7877h-1.1214l-1.2454-4.7439-1.2506 4.7439h-1.1214z"/>
    <path d="m191.66 166.5q-1.1524 0-1.5968 0.26354-0.44441 0.26355-0.44441 0.89917 0 0.50643 0.33073 0.80615 0.33589 0.29456 0.9095 0.29456 0.79065 0 1.2661-0.55811 0.48059-0.56327 0.48059-1.4934v-0.21187zm1.8965-0.39274v3.3021h-0.95084v-0.8785q-0.32556 0.5271-0.81132 0.78031-0.48576 0.24805-1.1886 0.24805-0.88884 0-1.4159-0.49609-0.52193-0.50126-0.52193-1.3384 0-0.97668 0.65112-1.4728 0.65628-0.49609 1.9534-0.49609h1.3332v-0.093q0-0.65629-0.43408-1.0128-0.42892-0.36174-1.2092-0.36174-0.49609 0-0.96634 0.11886-0.47026 0.11885-0.90434 0.35656v-0.87849q0.52193-0.20154 1.0129-0.29973 0.49092-0.10335 0.95601-0.10335 1.2557 0 1.8758 0.65112 0.62012 0.65112 0.62012 1.974z"/>
    <path d="m197.92 169.95q-0.40307 1.0335-0.78547 1.3488-0.38241 0.31523-1.0232 0.31523h-0.75965v-0.79582h0.55811q0.39274 0 0.60978-0.18603 0.21704-0.18604 0.48059-0.8785l0.17053-0.43408-2.3409-5.6947h1.0077l1.8087 4.5268 1.8087-4.5268h1.0077z"/>
    <path d="m202.7 168.54v3.0696h-0.95601v-7.9892h0.95601v0.87849q0.29972-0.51676 0.75448-0.7648 0.45991-0.25322 1.0955-0.25322 1.0542 0 1.7105 0.83716 0.66145 0.83715 0.66145 2.2014 0 1.3642-0.66145 2.2014-0.65629 0.83716-1.7105 0.83716-0.63562 0-1.0955-0.24805-0.45476-0.25321-0.75448-0.76997zm3.2349-2.0205q0-1.049-0.43408-1.6433-0.42892-0.59944-1.1834-0.59944t-1.1886 0.59944q-0.42891 0.59428-0.42891 1.6433 0 1.049 0.42891 1.6485 0.43409 0.59428 1.1886 0.59428t1.1834-0.59428q0.43408-0.59945 0.43408-1.6485z"/>
    <path d="m210.74 164.29q-0.76481 0-1.2092 0.59945-0.44441 0.59427-0.44441 1.633 0 1.0387 0.43925 1.6381 0.44441 0.59428 1.2144 0.59428 0.75964 0 1.2041-0.59944 0.44441-0.59945 0.44441-1.633 0-1.0284-0.44441-1.6278-0.44442-0.60461-1.2041-0.60461zm0-0.80615q1.2402 0 1.9482 0.80615 0.70797 0.80615 0.70797 2.2324 0 1.4211-0.70797 2.2324-0.70796 0.80615-1.9482 0.80615-1.2454 0-1.9534-0.80615-0.7028-0.81132-0.7028-2.2324 0-1.4263 0.7028-2.2324 0.70796-0.80615 1.9534-0.80615z"/>
    <path d="m214.97 163.62h0.95085v5.7877h-0.95085zm0-2.2531h0.95085v1.2041h-0.95085z"/>
    <path d="m222.72 165.92v3.4933h-0.95084v-3.4623q0-0.82165-0.32039-1.2299-0.3204-0.40824-0.96118-0.40824-0.76998 0-1.2144 0.49093-0.44442 0.49092-0.44442 1.3384v3.2711h-0.95601v-5.7877h0.95601v0.89916q0.34106-0.52193 0.80098-0.78031 0.46509-0.25838 1.0697-0.25838 0.99735 0 1.509 0.62012 0.51159 0.61494 0.51159 1.8138z"/>
    <path d="m225.56 161.98v1.6433h1.9585v0.73897h-1.9585v3.1419q0 0.70796 0.1912 0.9095 0.19637 0.20153 0.79065 0.20153h0.97668v0.79582h-0.97668q-1.1007 0-1.5193-0.40824-0.41858-0.41341-0.41858-1.4986v-3.1419h-0.69763v-0.73897h0.69763v-1.6433z"/>
   </g>
  </g>
 </g>
</svg>
