<?xml version="1.0" encoding="UTF-8"?>
<!-- Created with Inkscape (http://www.inkscape.org/) -->
<svg width="256.67mm" height="111.59mm" version="1.1" viewBox="0 0 256.67 111.59" xmlns="http://www.w3.org/2000/svg">
 <g transform="translate(20.802 -51.013)">
  <g transform="translate(280.16 -11.562)" stroke="#000">
   <g stroke-width="1.0583">
    <rect x="-294.64" y="63.104" width="15.895" height="7.7786" stop-color="#000000"/>
    <rect x="-240.13" y="63.104" width="15.895" height="7.7786" stop-color="#000000"/>
    <rect x="-294.64" y="111.26" width="15.895" height="7.7786" stop-color="#000000"/>
    <rect x="-240.13" y="111.26" width="15.895" height="7.7786" stop-color="#000000"/>
   </g>
   <g stroke-width="1.55">
    <path d="m-300.18 66.586h60.961l21.237 4.0193v41.384l-21.237 3.7857h-60.961z" fill="#57ff83" stop-color="#000000"/>
    <rect x="-300.18" y="66.586" width="60.961" height="49.189" fill="#57ff83" stop-color="#000000"/>
    <path d="m-247.8 71.478 5.5765-1.4826v42.346l-5.5765-1.8704z" fill="#eee" stop-color="#000000"/>
   </g>
  </g>
  <path d="m20.113 78.866h111.57" fill="none" stroke="#000" stroke-width="1.0583"/>
  <circle cx="161.68" cy="140.51" r="6.3477" fill="#eaf11a" stop-color="#000000" stroke="#000" stroke-width="1.0583"/>
  <g fill="none" stroke="#000" stroke-width="1.0583">
   <path d="m20.113 78.779 104.15 16.246"/>
   <path d="m20.113 78.866 134.43 58.271"/>
   <path d="m20.113 78.779 104.15-16.246"/>
  </g>
  <g transform="translate(-37.521 -9.0073)" stroke-width=".26458" aria-label="waypoint">
   <path d="m179.82 163.62h0.95084l1.1886 4.5165 1.1834-4.5165h1.1214l1.1886 4.5165 1.1834-4.5165h0.95084l-1.5141 5.7877h-1.1214l-1.2454-4.7439-1.2506 4.7439h-1.1214z"/>
   <path d="m191.66 166.5q-1.1524 0-1.5968 0.26354-0.44441 0.26355-0.44441 0.89917 0 0.50643 0.33073 0.80615 0.33589 0.29456 0.9095 0.29456 0.79065 0 1.2661-0.55811 0.48059-0.56327 0.48059-1.4934v-0.21187zm1.8965-0.39274v3.3021h-0.95084v-0.8785q-0.32556 0.5271-0.81132 0.78031-0.48576 0.24805-1.1886 0.24805-0.88884 0-1.4159-0.49609-0.52193-0.50126-0.52193-1.3384 0-0.97668 0.65112-1.4728 0.65628-0.49609 1.9534-0.49609h1.3332v-0.093q0-0.65629-0.43408-1.0128-0.42892-0.36174-1.2092-0.36174-0.49609 0-0.96634 0.11886-0.47026 0.11885-0.90434 0.35656v-0.87849q0.52193-0.20154 1.0129-0.29973 0.49092-0.10335 0.95601-0.10335 1.2557 0 1.8758 0.65112 0.62012 0.65112 0.62012 1.974z"/>
   <path d="m197.92 169.95q-0.40307 1.0335-0.78547 1.3488-0.38241 0.31523-1.0232 0.31523h-0.75965v-0.79582h0.55811q0.39274 0 0.60978-0.18603 0.21704-0.18604 0.48059-0.8785l0.17053-0.43408-2.3409-5.6947h1.0077l1.8087 4.5268 1.8087-4.5268h1.0077z"/>
   <path d="m202.7 168.54v3.0696h-0.95601v-7.9892h0.95601v0.87849q0.29972-0.51676 0.75448-0.7648 0.45991-0.25322 1.0955-0.25322 1.0542 0 1.7105 0.83716 0.66145 0.83715 0.66145 2.2014 0 1.3642-0.66145 2.2014-0.65629 0.83716-1.7105 0.83716-0.63562 0-1.0955-0.24805-0.45476-0.25321-0.75448-0.76997zm3.2349-2.0205q0-1.049-0.43408-1.6433-0.42892-0.59944-1.1834-0.59944t-1.1886 0.59944q-0.42891 0.59428-0.42891 1.6433 0 1.049 0.42891 1.6485 0.43409 0.59428 1.1886 0.59428t1.1834-0.59428q0.43408-0.59945 0.43408-1.6485z"/>
   <path d="m210.74 164.29q-0.76481 0-1.2092 0.59945-0.44441 0.59427-0.44441 1.633 0 1.0387 0.43925 1.6381 0.44441 0.59428 1.2144 0.59428 0.75964 0 1.2041-0.59944 0.44441-0.59945 0.44441-1.633 0-1.0284-0.44441-1.6278-0.44442-0.60461-1.2041-0.60461zm0-0.80615q1.2402 0 1.9482 0.80615 0.70797 0.80615 0.70797 2.2324 0 1.4211-0.70797 2.2324-0.70796 0.80615-1.9482 0.80615-1.2454 0-1.9534-0.80615-0.7028-0.81132-0.7028-2.2324 0-1.4263 0.7028-2.2324 0.70796-0.80615 1.9534-0.80615z"/>
   <path d="m214.97 163.62h0.95085v5.7877h-0.95085zm0-2.2531h0.95085v1.2041h-0.95085z"/>
   <path d="m222.72 165.92v3.4933h-0.95084v-3.4623q0-0.82165-0.32039-1.2299-0.3204-0.40824-0.96118-0.40824-0.76998 0-1.2144 0.49093-0.44442 0.49092-0.44442 1.3384v3.2711h-0.95601v-5.7877h0.95601v0.89916q0.34106-0.52193 0.80098-0.78031 0.46509-0.25838 1.0697-0.25838 0.99735 0 1.509 0.62012 0.51159 0.61494 0.51159 1.8138z"/>
   <path d="m225.56 161.98v1.6433h1.9585v0.73897h-1.9585v3.1419q0 0.70796 0.1912 0.9095 0.19637 0.20153 0.79065 0.20153h0.97668v0.79582h-0.97668q-1.1007 0-1.5193-0.40824-0.41858-0.41341-0.41858-1.4986v-3.1419h-0.69763v-0.73897h0.69763v-1.6433z"/>
  </g>
  <g fill="#060600" stroke-width="1.0583">
   <path d="m127.07 73.169 8.3257 5.6973-8.7181 5.3049z" stop-color="#000000"/>
   <path d="m124.59 89.475 7.289 6.9748-9.4644 3.8173z" stop-color="#000000"/>
   <path d="m149.87 129.25 5.6378 8.3661-10.06 1.7159z" stop-color="#000000"/>
   <path d="m124.57 68.413 7.289-6.9748-9.4644-3.8173z" stop-color="#000000"/>
  </g>
  <g stroke-width=".26458">
   <text x="138.77699" y="64.582054" fill="#000000" font-family="sans-serif" font-size="10.583px" style="line-height:1.25" xml:space="preserve"><tspan x="138.77699" y="64.582054" stroke-width=".26458">turn left dot: 90</tspan></text>
   <text x="138.77699" y="96.991905" fill="#000000" font-family="sans-serif" font-size="10.583px" style="line-height:1.25" xml:space="preserve"><tspan x="138.77699" y="96.991905" stroke-width=".26458">turn right dot: 190</tspan></text>
   <g transform="translate(371.6 -63.506)" aria-label="straight dot: 150">
    <path d="m-227.92 137.95v0.89916q-0.40307-0.2067-0.83715-0.31005-0.43408-0.10336-0.89917-0.10336-0.70796 0-1.0645 0.21704-0.3514 0.21704-0.3514 0.65112 0 0.33073 0.25322 0.52193 0.25321 0.18604 1.018 0.35657l0.32556 0.0724q1.0128 0.21704 1.4366 0.61495 0.42891 0.39274 0.42891 1.1007 0 0.80615-0.64078 1.2764-0.63562 0.47026-1.7518 0.47026-0.46509 0-0.97151-0.093-0.50126-0.0879-1.0594-0.26872v-0.98185q0.5271 0.27389 1.0387 0.41342 0.51159 0.13435 1.0128 0.13435 0.67179 0 1.0335-0.22737 0.36173-0.23255 0.36173-0.65112 0-0.38758-0.26355-0.59428-0.25838-0.20671-1.142-0.39791l-0.33073-0.0775q-0.88367-0.18604-1.2764-0.56844-0.39274-0.38757-0.39274-1.0594 0-0.81649 0.57878-1.2609 0.57877-0.44441 1.6433-0.44441 0.5271 0 0.99219 0.0775 0.46508 0.0775 0.85782 0.23255z"/>
    <path d="m-225.16 136.13v1.6433h1.9585v0.73898h-1.9585v3.1419q0 0.70797 0.19121 0.9095 0.19637 0.20154 0.79064 0.20154h0.97669v0.79582h-0.97669q-1.1007 0-1.5193-0.40825-0.41858-0.41341-0.41858-1.4986v-3.1419h-0.69763v-0.73898h0.69763v-1.6433z"/>
    <path d="m-218.59 138.67q-0.1602-0.093-0.3514-0.13436-0.18603-0.0465-0.41341-0.0465-0.80615 0-1.2402 0.5271-0.42891 0.52193-0.42891 1.5038v3.0489h-0.95601v-5.7878h0.95601v0.89917q0.29972-0.5271 0.78031-0.78031 0.48059-0.25838 1.1679-0.25838 0.0982 0 0.21704 0.0155 0.11886 0.0103 0.26355 0.0362z"/>
    <path d="m-214.97 140.66q-1.1524 0-1.5968 0.26355-0.44442 0.26355-0.44442 0.89917 0 0.50643 0.33073 0.80615 0.3359 0.29455 0.9095 0.29455 0.79065 0 1.2661-0.5581 0.48059-0.56327 0.48059-1.4934v-0.21188zm1.8965-0.39274v3.3021h-0.95084v-0.8785q-0.32556 0.5271-0.81132 0.78031-0.48575 0.24805-1.1886 0.24805-0.88883 0-1.4159-0.49609-0.52193-0.50126-0.52193-1.3384 0-0.97668 0.65112-1.4728 0.65629-0.4961 1.9534-0.4961h1.3332v-0.093q0-0.65629-0.43408-1.0129-0.42891-0.36173-1.2092-0.36173-0.4961 0-0.96635 0.11885-0.47025 0.11886-0.90433 0.35657v-0.8785q0.52193-0.20153 1.0128-0.29972 0.49092-0.10335 0.95601-0.10335 1.2557 0 1.8758 0.65112 0.62011 0.65112 0.62011 1.974z"/>
    <path d="m-211.11 137.78h0.95085v5.7878h-0.95085zm0-2.2531h0.95085v1.2041h-0.95085z"/>
    <path d="m-204.36 140.6q0-1.0335-0.42892-1.602-0.42374-0.56844-1.1937-0.56844-0.76481 0-1.1937 0.56844-0.42375 0.56844-0.42375 1.602 0 1.0284 0.42375 1.5968 0.42891 0.56844 1.1937 0.56844 0.76998 0 1.1937-0.56844 0.42892-0.56844 0.42892-1.5968zm0.95084 2.2428q0 1.4779-0.65629 2.1962-0.65629 0.72347-2.0102 0.72347-0.50126 0-0.94567-0.0775-0.44442-0.0724-0.863-0.22737v-0.92501q0.41858 0.22738 0.82682 0.3359 0.40825 0.10852 0.83199 0.10852 0.93534 0 1.4004-0.49093 0.46509-0.48576 0.46509-1.4728v-0.47026q-0.29456 0.5116-0.75448 0.76481-0.45992 0.25322-1.1007 0.25322-1.0645 0-1.7156-0.81132-0.65113-0.81132-0.65113-2.1497 0-1.3436 0.65113-2.1549 0.65112-0.81132 1.7156-0.81132 0.64078 0 1.1007 0.25321 0.45992 0.25322 0.75448 0.76481v-0.8785h0.95084z"/>
    <path d="m-196.64 140.07v3.4933h-0.95084v-3.4623q0-0.82166-0.3204-1.2299-0.32039-0.40824-0.96118-0.40824-0.76997 0-1.2144 0.49092-0.44441 0.49093-0.44441 1.3384v3.2711h-0.95601v-8.0408h0.95601v3.1522q0.34106-0.52193 0.80098-0.78031 0.46508-0.25838 1.0697-0.25838 0.99735 0 1.5089 0.62011 0.5116 0.61495 0.5116 1.8138z"/>
    <path d="m-193.81 136.13v1.6433h1.9585v0.73898h-1.9585v3.1419q0 0.70797 0.1912 0.9095 0.19637 0.20154 0.79064 0.20154h0.97669v0.79582h-0.97669q-1.1007 0-1.5193-0.40825-0.41858-0.41341-0.41858-1.4986v-3.1419h-0.69762v-0.73898h0.69762v-1.6433z"/>
    <path d="m-183.42 138.66v-3.1316h0.95084v8.0408h-0.95084v-0.86816q-0.29972 0.51676-0.75964 0.76997-0.45475 0.24805-1.0955 0.24805-1.049 0-1.7105-0.83716-0.65629-0.83715-0.65629-2.2014 0-1.3642 0.65629-2.2014 0.66145-0.83715 1.7105-0.83715 0.64079 0 1.0955 0.25321 0.45992 0.24805 0.75964 0.76481zm-3.2401 2.0205q0 1.049 0.42891 1.6485 0.43408 0.59427 1.1886 0.59427 0.75448 0 1.1886-0.59427 0.43408-0.59945 0.43408-1.6485 0-1.049-0.43408-1.6433-0.43408-0.59945-1.1886-0.59945-0.75447 0-1.1886 0.59945-0.42891 0.59428-0.42891 1.6433z"/>
    <path d="m-178.27 138.44q-0.76481 0-1.2092 0.59944-0.44442 0.59428-0.44442 1.633 0 1.0387 0.43925 1.6381 0.44441 0.59428 1.2144 0.59428 0.75964 0 1.2041-0.59945 0.44441-0.59944 0.44441-1.633 0-1.0284-0.44441-1.6278-0.44442-0.60461-1.2041-0.60461zm0-0.80615q1.2402 0 1.9482 0.80615 0.70796 0.80615 0.70796 2.2324 0 1.4211-0.70796 2.2324-0.70797 0.80615-1.9482 0.80615-1.2454 0-1.9534-0.80615-0.7028-0.81132-0.7028-2.2324 0-1.4263 0.7028-2.2324 0.70796-0.80615 1.9534-0.80615z"/>
    <path d="m-173.1 136.13v1.6433h1.9585v0.73898h-1.9585v3.1419q0 0.70797 0.1912 0.9095 0.19637 0.20154 0.79064 0.20154h0.97669v0.79582h-0.97669q-1.1007 0-1.5193-0.40825-0.41858-0.41341-0.41858-1.4986v-3.1419h-0.69762v-0.73898h0.69762v-1.6433z"/>
    <path d="m-169.65 142.25h1.0904v1.3126h-1.0904zm0-4.1599h1.0904v1.3126h-1.0904z"/>
    <path d="m-162.64 142.69h1.7053v-5.8859l-1.8552 0.37207v-0.95084l1.8448-0.37207h1.0439v6.8368h1.7053v0.8785h-4.4442z"/>
    <path d="m-156.08 135.85h4.0979v0.8785h-3.1419v1.8914q0.22738-0.0775 0.45475-0.11369 0.22738-0.0413 0.45475-0.0413 1.2919 0 2.0464 0.70796 0.75448 0.70797 0.75448 1.9172 0 1.2454-0.77515 1.9379-0.77514 0.6873-2.1859 0.6873-0.48576 0-0.99219-0.0827-0.50126-0.0827-1.0387-0.24805v-1.049q0.46509 0.25322 0.96118 0.37724t1.049 0.12402q0.894 0 1.4159-0.47025 0.52193-0.47026 0.52193-1.2764t-0.52193-1.2764-1.4159-0.47025q-0.41858 0-0.83716 0.093-0.41341 0.093-0.84749 0.28939z"/>
    <path d="m-147.13 136.54q-0.80615 0-1.2144 0.79582-0.40308 0.79065-0.40308 2.3823 0 1.5865 0.40308 2.3823 0.40824 0.79065 1.2144 0.79065 0.81132 0 1.2144-0.79065 0.40825-0.79581 0.40825-2.3823 0-1.5916-0.40825-2.3823-0.40307-0.79582-1.2144-0.79582zm0-0.82682q1.2971 0 1.9792 1.0284 0.6873 1.0232 0.6873 2.9766 0 1.9482-0.6873 2.9766-0.68212 1.0232-1.9792 1.0232-1.2971 0-1.9844-1.0232-0.68212-1.0284-0.68212-2.9766 0-1.9534 0.68212-2.9766 0.6873-1.0284 1.9844-1.0284z"/>
   </g>
  </g>
 </g>
</svg>
