<?xml version="1.0" encoding="UTF-8"?>
<!-- Created with Inkscape (http://www.inkscape.org/) -->
<svg width="252.91mm" height="168.87mm" version="1.1" viewBox="0 0 252.91 168.87" xmlns="http://www.w3.org/2000/svg">
 <g transform="translate(343.07 -5.9203)" stroke="#000">
  <g stroke-width="1.0583">
   <rect x="-294.64" y="63.104" width="15.895" height="7.7786" stop-color="#000000"/>
   <rect x="-240.13" y="63.104" width="15.895" height="7.7786" stop-color="#000000"/>
   <rect x="-294.64" y="111.26" width="15.895" height="7.7786" stop-color="#000000"/>
   <rect x="-240.13" y="111.26" width="15.895" height="7.7786" stop-color="#000000"/>
  </g>
  <g stroke-width="1.55">
   <path d="m-300.18 66.586h60.961l21.237 4.0193v41.384l-21.237 3.7857h-60.961z" fill="#57ff83" stop-color="#000000"/>
   <rect x="-300.18" y="66.586" width="60.961" height="49.189" fill="#57ff83" stop-color="#000000"/>
   <path d="m-247.8 71.478 5.5765-1.4826v42.346l-5.5765-1.8704z" fill="#eee" stop-color="#000000"/>
  </g>
 </g>
 <g stroke-width="1.0583">
  <path d="m83.027 84.507h111.57" fill="none" stroke="#000"/>
  <path d="m192.62 78.81 8.3257 5.6973-8.7181 5.3049z" fill="#060600" stop-color="#000000"/>
  <circle cx="224.12" cy="145.89" r="6.3477" fill="#eaf11a" stop-color="#000000" stroke="#000"/>
  <path d="m83.027 84.42 101.57 44.243" fill="none" stroke="#000"/>
 </g>
 <g transform="translate(25.393,-3.3658)" stroke-width=".26458" aria-label="waypoint">
  <path d="m179.82 163.62h0.95084l1.1886 4.5165 1.1834-4.5165h1.1214l1.1886 4.5165 1.1834-4.5165h0.95084l-1.5141 5.7877h-1.1214l-1.2454-4.7439-1.2506 4.7439h-1.1214z"/>
  <path d="m191.66 166.5q-1.1524 0-1.5968 0.26354-0.44441 0.26355-0.44441 0.89917 0 0.50643 0.33073 0.80615 0.33589 0.29456 0.9095 0.29456 0.79065 0 1.2661-0.55811 0.48059-0.56327 0.48059-1.4934v-0.21187zm1.8965-0.39274v3.3021h-0.95084v-0.8785q-0.32556 0.5271-0.81132 0.78031-0.48576 0.24805-1.1886 0.24805-0.88884 0-1.4159-0.49609-0.52193-0.50126-0.52193-1.3384 0-0.97668 0.65112-1.4728 0.65628-0.49609 1.9534-0.49609h1.3332v-0.093q0-0.65629-0.43408-1.0128-0.42892-0.36174-1.2092-0.36174-0.49609 0-0.96634 0.11886-0.47026 0.11885-0.90434 0.35656v-0.87849q0.52193-0.20154 1.0129-0.29973 0.49092-0.10335 0.95601-0.10335 1.2557 0 1.8758 0.65112 0.62012 0.65112 0.62012 1.974z"/>
  <path d="m197.92 169.95q-0.40307 1.0335-0.78547 1.3488-0.38241 0.31523-1.0232 0.31523h-0.75965v-0.79582h0.55811q0.39274 0 0.60978-0.18603 0.21704-0.18604 0.48059-0.8785l0.17053-0.43408-2.3409-5.6947h1.0077l1.8087 4.5268 1.8087-4.5268h1.0077z"/>
  <path d="m202.7 168.54v3.0696h-0.95601v-7.9892h0.95601v0.87849q0.29972-0.51676 0.75448-0.7648 0.45991-0.25322 1.0955-0.25322 1.0542 0 1.7105 0.83716 0.66145 0.83715 0.66145 2.2014 0 1.3642-0.66145 2.2014-0.65629 0.83716-1.7105 0.83716-0.63562 0-1.0955-0.24805-0.45476-0.25321-0.75448-0.76997zm3.2349-2.0205q0-1.049-0.43408-1.6433-0.42892-0.59944-1.1834-0.59944t-1.1886 0.59944q-0.42891 0.59428-0.42891 1.6433 0 1.049 0.42891 1.6485 0.43409 0.59428 1.1886 0.59428t1.1834-0.59428q0.43408-0.59945 0.43408-1.6485z"/>
  <path d="m210.74 164.29q-0.76481 0-1.2092 0.59945-0.44441 0.59427-0.44441 1.633 0 1.0387 0.43925 1.6381 0.44441 0.59428 1.2144 0.59428 0.75964 0 1.2041-0.59944 0.44441-0.59945 0.44441-1.633 0-1.0284-0.44441-1.6278-0.44442-0.60461-1.2041-0.60461zm0-0.80615q1.2402 0 1.9482 0.80615 0.70797 0.80615 0.70797 2.2324 0 1.4211-0.70797 2.2324-0.70796 0.80615-1.9482 0.80615-1.2454 0-1.9534-0.80615-0.7028-0.81132-0.7028-2.2324 0-1.4263 0.7028-2.2324 0.70796-0.80615 1.9534-0.80615z"/>
  <path d="m214.97 163.62h0.95085v5.7877h-0.95085zm0-2.2531h0.95085v1.2041h-0.95085z"/>
  <path d="m222.72 165.92v3.4933h-0.95084v-3.4623q0-0.82165-0.32039-1.2299-0.3204-0.40824-0.96118-0.40824-0.76998 0-1.2144 0.49093-0.44442 0.49092-0.44442 1.3384v3.2711h-0.95601v-5.7877h0.95601v0.89916q0.34106-0.52193 0.80098-0.78031 0.46509-0.25838 1.0697-0.25838 0.99735 0 1.509 0.62012 0.51159 0.61494 0.51159 1.8138z"/>
  <path d="m225.56 161.98v1.6433h1.9585v0.73897h-1.9585v3.1419q0 0.70796 0.1912 0.9095 0.19637 0.20153 0.79065 0.20153h0.97668v0.79582h-0.97668q-1.1007 0-1.5193-0.40824-0.41858-0.41341-0.41858-1.4986v-3.1419h-0.69763v-0.73897h0.69763v-1.6433z"/>
 </g>
 <g stroke-width=".26458" aria-label="?">
  <path d="m174.24 109.3h2.8678v3.5883h-2.8678zm2.783-2.0767h-2.6983v-2.1756q0-1.4268 0.39556-2.3451 0.39556-0.91825 1.667-2.1332l1.2714-1.2573q0.80524-0.74873 1.1584-1.4127 0.36731-0.66397 0.36731-1.3562 0-1.2573-0.93239-2.0343-0.91826-0.77699-2.444-0.77699-1.116 0-2.3875 0.49445-1.2573 0.49445-2.6276 1.441v-2.6559q1.3279-0.80524 2.6841-1.2008 1.3703-0.39556 2.8254-0.39556 2.5994 0 4.1675 1.3703 1.5822 1.3703 1.5822 3.6165 0 1.0737-0.50858 2.0484-0.50857 0.96064-1.78 2.1756l-1.2432 1.2149q-0.66398 0.66398-0.94652 1.0454-0.26841 0.3673-0.38143 0.72048-0.0848 0.29666-0.12714 0.72048-0.0424 0.42381-0.0424 1.1584z"/>
 </g>
 <path d="m182.64 121.67 6.4542 7.7537-9.8351 2.7235z" fill="#060600" stop-color="#000000" stroke-width="1.0583"/>
</svg>
