<?xml version="1.0" encoding="UTF-8"?>
<!-- Created with Inkscape (http://www.inkscape.org/) -->
<svg width="252.91mm" height="168.87mm" version="1.1" viewBox="0 0 252.91 168.87" xmlns="http://www.w3.org/2000/svg">
 <g transform="matrix(-.048472 0 0 .048472 150.48 25.057)" stroke-width="7.278">
  <path d="m2222.7 1257.2-1.63 23.78-1.78 21.69-1.86 20.36-2.14 19.92-2.41 20.18-2.63 21.23-3.32 26.64-2 14.14-0.64 5.96-2.18 15.32-2.14 13.32-2.32 11.82-2.5 10.91-2.77 10.55-4.91 16.73-5.27 16.91-5.91 14.82-0.82 2.41-3.41 8.6-3.41 7.5-0.86 1.72-3.05 6.01-3.46 5.73-3.77 5.5-4.82 6.09-4.73 5.45-3.95 3.78-0.87 0.86-2.22 2.27-3.5 3.23-4.28 3.64-3.22 2.73-3.78 2.95-4.23 3.05-4.77 3.13-5.32 3.14-5.82 3.14-6.14 3.18-3.13 1.41c-0.05 0.05-6.32 3.68-6.32 3.68l-5.46 2.78-0.54 0.27-4.1 2-4.45 1.86-1.23 0.5-4.55 1.78-4.54 1.59-3.82 1.36-0.68 0.23c-0.14 0.04-4.87 1.82-4.87 1.82l-2.41 1-2.54 0.91-2.68 0.82-2.82 0.72-2.91 0.68-3 0.64-3 0.59-3.05 0.5-3.05 0.55-3 0.45-3 0.46-3 0.41-2.95 0.41-2.91 0.36-2.87 0.32-2.82 0.27-2.77 0.27-2.77 0.18-2.77 0.23-2.82 0.18-2.87 0.19-2.95 0.18-3.09 0.18-3.23 0.18-3.37 0.23-3.59 0.23-3.68 0.27-3.82 0.27-3.86 0.27-3.96 0.32-4 0.32-4.05 0.27 9.51-1.41 9.45-1.45 9.46-1.55 9.36-1.59 9.32-1.68 9.19-1.82 9.09-1.95 9-2.19 8.82-2.36 8.68-2.55 8.55-2.72 8.5-2.82 8.41-2.96 8.37-3 8.32-3.04 8.32-3.09 6.27-4.82 6.23-4.91 6.14-5.19 5.95-5.54 5.78-6.05 5.45-6.68 5.19-7.41 2.72-4.64 2.1-3.68 4.36-9.28 4-10.14 3.68-10.91 3.41-11.54 3.23-12.01 3.05-12.41 2.95-12.64 2.87-12.77 2.5-10.55 2.45-10.55 2.46-10.5 2.45-10.5 2.37-10.5 2.31-10.46 2.28-10.41 2.18-10.41 2.09-10.37 2-10.32 1.96-10.36 1.81-10.37 1.73-10.41 1.64-10.5 0.5-3.28c0.09-0.04 0.77-0.68 0.77-0.68l0.5-1.13 0.46-1.78 0.32-2.54 0.22-3.59 0.18-4.78 0.05-3.41c0-0.09 1.36-10.82 1.36-10.82l1.23-10.91 1.09-11 0.91-11.09 0.77-11.14 0.55-11.19 0.36-11.18 0.09-11.23-0.09-11.23-0.36-11.23-0.55-11.18-0.77-11.14-0.91-11.09-1.09-10.96-1.23-10.91-1.31-10.5v-0.59l-0.05-12.28-0.18-0.5-0.18-0.45-0.23-0.5-0.27-0.46-0.37-0.41-0.5-0.36-0.41-0.23-0.86-5.77-1.64-10.46-1.73-10.41-1.81-10.41-1.96-10.32-2-10.37-2.09-10.36-2.18-10.41-2.28-10.42-2.31-10.45-2.37-10.5-2.45-10.51-2.46-10.5-2.45-10.55-2.5-10.5-2.87-12.77-2.95-12.64-3.05-12.41-3.23-12.05-3.41-11.5-3.68-10.91-4-10.19-3.46-7.32-0.9-1.95-2.1-3.68-0.81-1.28-0.46-0.77-1.45-2.55-0.96-1.41-0.13-0.18-0.32-0.45-3.78-5.41-5.45-6.64-5.78-6.05-5.95-5.54-6.14-5.19-6.23-4.95-6.27-4.77-8.32-3.1-8.32-3.09-8.37-3-8.41-2.95-8.5-2.82-8.55-2.73-8.68-2.55-8.82-2.36-9-2.14-9.09-2-9.19-1.82-9.32-1.68-9.36-1.59-9.46-1.5-9.45-1.45-9.51-1.46 4.05 0.32 4 0.27 3.96 0.32 3.86 0.27 3.82 0.28 3.68 0.27 3.59 0.23 3.37 0.22 3.23 0.23 3.09 0.18 2.95 0.18 2.87 0.19 2.82 0.18 2.77 0.18 2.77 0.23 2.77 0.22 2.82 0.32 2.87 0.32 2.91 0.32 2.95 0.41 3 0.41 3 0.45 3 0.5 3.05 0.5 3.05 0.55 6 1.18 2.91 0.68 2.82 0.77 2.68 0.82 2.54 0.87 2.41 1 4.87 1.82 4.5 1.59 4.54 1.63 4.55 1.73 1.23 0.5 4.45 1.91 4.1 1.96 0.54 0.27 5.46 2.82 6.27 3.59c0.05 0.04 3.18 1.45 3.18 1.45l4.1 2.19c0.04 0 2.04 1 2.04 1l5.82 3.13 5.32 3.19 4.77 3.09 4.23 3.04 3.78 3 3.22 2.69 4.28 3.63 3.5 3.23 3.09 3.14 3.95 3.82 4.73 5.41 4.82 6.09 3.77 5.5 3.46 5.73 3.05 6.04 0.86 1.69 3.41 7.5 3.41 8.59 6.73 17.28 5.27 16.86 3.5 12.14 0.09 0.28 1.32 4.31 2.77 10.55 2.5 10.96 2.32 11.82 2.14 13.27 2.18 15.37 2.64 20.05 3.32 26.64 2.63 21.23 2.41 20.19 2.14 19.96 1.86 20.36 1.78 21.64 1.63 23.83 1.82 32.23-1.82 32.23" fill="#333"/>
  <path d="m2168.3 1493.3-2 6.01-2.09 5.81-2.14 5.55-2.23 5.23-2.36 4.82-2.5 4.32-2.64 3.82-2.82 3.27-2.96 2.82-3.09 2.36-3.27 1.96-3.36 1.59-3.55 1.18-3.64 0.91-3.77 0.59-3.91 0.36-4 0.1-4.09-0.05-4.14-0.23-4.23-0.32-4.23-0.36-4.22-0.45 3.09-9.96 3.13-10.09 3.19-10.19 3.18-10.36 3.23-10.69 3.27-11.04 3.36-11.42 3.46-11.91 3.59-12.5 3.55-12.96 3.54-13.41 3.37-13.82 3.23-14.14 2.91-14.41 2.54-14.64 2.09-14.77 1.64-14.92 1.18-15.04 0.77-15.1 0.5-15.14 0.28-15.23 0.13-15.27v-15.32l-0.04-15.28 0.04-15.32v-15.32l-0.13-15.23-0.28-15.23-0.5-15.19-0.77-15.09-1.18-15-1.64-14.92-2.09-14.82-2.54-14.64-2.91-14.41-3.23-14.14-3.37-13.82-3.54-13.41-3.55-12.96-3.59-12.45-3.46-11.91-3.36-11.46-3.27-11-3.23-10.69-3.18-10.41-3.19-10.18-3.13-10.05-3.09-10 4.22-0.41 4.23-0.41 4.23-0.32 4.14-0.22 4.09-0.05 4 0.14 3.91 0.31 3.77 0.6 3.64 0.91 3.55 1.22 3.36 1.55 3.27 1.95 3.09 2.37 2.96 2.82 2.82 3.31 2.64 3.78 2.5 4.36 2.36 4.78 2.23 5.22 2.14 5.55 2.09 5.82 2 6.05 2 6.13 1.91 6.23 2.5 10.5 2.45 10.55 2.46 10.5 2.45 10.51 2.37 10.5 2.31 10.45 2.28 10.42 2.18 10.41 2.09 10.36 2 10.37 1.96 10.32 1.81 10.41 1.73 10.41 1.64 10.46 0.86 5.77 0.41 0.23 0.5 0.36 0.37 0.41 0.27 0.46 0.23 0.5 0.18 0.45 0.18 0.5 0.05 12.28v0.59l1.31 10.5 1.23 10.91 1.09 10.96 0.91 11.09 0.77 11.14 0.55 11.18 0.36 11.23 0.09 11.23-0.09 11.23-0.36 11.18-0.55 11.19-0.77 11.14-0.91 11.09-1.09 11-1.23 10.91-1.36 10.73c0 0.09-0.05 3.5-0.05 3.5l-0.18 4.78-0.22 3.59-0.32 2.54-0.46 1.78-0.5 1.13-0.68 0.64c-0.09 0.04-0.59 3.32-0.59 3.32l-1.64 10.5-1.73 10.41-1.81 10.37-1.96 10.36-2 10.32-2.09 10.37-2.18 10.41-2.28 10.41-2.31 10.46-2.37 10.5-2.45 10.5-2.46 10.5-2.45 10.55-2.5 10.55-1.91 6.18-2 6.18" fill="#fcee21"/>
  <path d="m2098 1618.9-0.5-1.36-0.54-1.5-0.59-1.55-0.68-1.72-0.82-1.92-0.96-2.04-1.04-2.32-1.18-2.45-1.28-2.55-1.23-2.59-1.22-2.59-1.14-2.5-1-2.37-0.86-2.13-0.64-1.87-0.41-1.68-0.23-1.55-0.04-1.41 0.14-1.4 0.27-1.37 0.45-1.41 0.55-1.54 0.73-1.73 0.77-1.82 0.91-2 0.91-2.05 0.95-2.13 0.96-2.23 0.95-2.23 0.86-2.27 0.82-2.27 0.73-2.23 0.64-2.28 0.63-2.22 0.59-2.28 0.55-2.22 0.55-2.23 0.5-2.27 4.22 0.45 4.23 0.36 4.23 0.32 4.14 0.23 4.09 0.05 4-0.1 3.91-0.36 3.77-0.59 3.64-0.91 3.55-1.18 3.36-1.59 3.27-1.96 3.09-2.36 2.96-2.82 2.82-3.27 2.64-3.82 2.5-4.32 2.36-4.82 2.23-5.23 2.14-5.55 2.09-5.81 2-6.01 2-6.18 1.91-6.18-2.87 12.77-2.95 12.64-3.05 12.41-3.23 12.01-3.41 11.54-3.68 10.91-4 10.14-4.36 9.28-2.1 3.68-2.72 4.64-5.19 7.41-5.45 6.68-5.78 6.05-5.95 5.54-6.14 5.19-6.23 4.91-6.27 4.82-0.46-1.32-0.41-1.37" fill="#f00"/>
  <path d="m2168.3 956.68-2-6.05-2.09-5.82-2.14-5.55-2.23-5.22-2.36-4.78-2.5-4.36-2.64-3.78-2.82-3.31-2.96-2.82-3.09-2.37-3.27-1.95-3.36-1.55-3.55-1.22-3.64-0.91-3.77-0.6-3.91-0.31-4-0.14-4.09 0.05-4.14 0.22-4.23 0.32-4.23 0.41-4.22 0.41-0.5-2.23-0.55-2.27-0.55-2.23-0.59-2.23-0.63-2.27-0.64-2.23-0.73-2.27-0.82-2.27-0.86-2.23-0.95-2.28-0.96-2.18-0.95-2.13-0.91-2.1-0.91-1.95-0.77-1.86-0.73-1.69-0.55-1.54-0.45-1.46-0.27-1.36-0.14-1.36 0.04-1.46 0.23-1.5 0.41-1.68 0.64-1.91 0.86-2.14 1-2.36 1.14-2.5 1.22-2.55 1.23-2.59 1.28-2.59 1.18-2.46 1.04-2.27 0.96-2.09 0.82-1.86 0.68-1.73 0.59-1.59 0.54-1.46 0.5-1.41 0.41-1.32 0.46-1.31 6.27 4.77 6.23 4.95 6.14 5.19 5.95 5.54 5.78 6.05 5.45 6.64 3.78 5.41 0.32 0.45 0.13 0.18 2.41 3.96 0.46 0.77 0.81 1.28 2.91 5.68 2.23 4.64-2.14-4.69 3.46 7.32 4 10.19 3.68 10.91 3.41 11.5 3.23 12.05 3.05 12.41 2.95 12.64 2.87 12.77-1.91-6.23-2-6.13" fill="#f00"/>
  <path d="m2103.3 927.4 3.19 10.18 3.18 10.41 3.23 10.69 3.27 11 3.36 11.46 3.46 11.91 3.59 12.45 3.55 12.96 3.54 13.41 3.37 13.82 3.23 14.14 2.91 14.41 2.54 14.64 2.09 14.82 1.64 14.92 1.18 15 0.77 15.09 0.5 15.19 0.28 15.23 0.13 15.23v15.32l-0.04 15.32 0.04 15.28v15.32l-0.13 15.27-0.28 15.23-0.5 15.14-0.77 15.1-1.18 15.04-1.64 14.92-2.09 14.77-2.54 14.64-2.91 14.41-3.23 14.14-3.37 13.82-3.54 13.41-3.55 12.96-3.59 12.5-3.46 11.91-3.36 11.42-3.27 11.04-3.23 10.69-3.18 10.36-3.19 10.19-3.13 10.09-3.09 9.96-2.73-1.28-2.78-1.32-2.81-1.27-2.87-1.36-2.91-1.37-3.04-1.45-3.19-1.46-3.27-1.54-3.46-1.64-3.63-1.68-3.73-1.73-3.82-1.73-3.91-1.72-3.95-1.69-4.05-1.68-4.05-1.59-4.04-1.5-4.14-1.41-4.14-1.36-4.27-1.32-4.36-1.27-4.51-1.23-4.68-1.23-4.91-1.18-5.09-1.18-5.32-1.19-5.5-1.18-5.64-1.18-5.73-1.18-5.82-1.18-11.77-2.37 2.05-10.82 2-11.05 2-11.41 1.91-12 1.77-12.77 1.68-13.78 1.55-14.91 1.36-16.32 1.18-17.87 1-19.18 0.82-20.42 0.64-21.32 0.5-22.14 0.32-22.73 0.18-23.14 0.09-23.28-0.09-23.32-0.18-23.1-0.32-22.73-0.5-22.14-0.64-21.37-0.82-20.37-1-19.23-1.18-17.86-1.36-16.28-1.55-14.96-1.68-13.73-1.77-12.77-1.91-12.05-2-11.41-2-11.05-2.05-10.82 5.91-1.18 5.86-1.18 5.82-1.14 5.73-1.18 5.64-1.18 5.5-1.18 5.32-1.19 5.09-1.18 4.91-1.23 4.68-1.18 4.51-1.23 4.36-1.27 4.27-1.32 4.14-1.36 4.14-1.46 4.04-1.5 4.05-1.59 4.05-1.63 3.95-1.73 3.91-1.73 3.82-1.73 3.73-1.72 3.63-1.69 3.46-1.59 3.27-1.54 3.19-1.5 3.04-1.41 2.91-1.41 2.87-1.32 2.81-1.32 2.78-1.32 2.73-1.27 3.09 10 3.13 10.05" fill="#333"/>
  <path d="m1975.5 795.1 9.46 1.5 9.36 1.59 9.32 1.68 9.19 1.82 9.09 2 9 2.14 8.82 2.36 8.68 2.55 8.55 2.73 8.5 2.82 8.41 2.95 8.37 3 8.32 3.09 8.32 3.1-0.46 1.31-0.41 1.32-0.5 1.41-0.54 1.46-0.59 1.59-0.68 1.73-0.82 1.86-0.96 2.09-1.04 2.27-1.18 2.46-1.28 2.59-1.23 2.59-1.22 2.55-1.14 2.5-1 2.36-0.86 2.14-0.64 1.91-0.41 1.68-0.23 1.5-0.04 1.46 0.14 1.36 0.27 1.36 0.45 1.46 0.55 1.54 0.73 1.69 0.77 1.86 0.91 1.95 0.91 2.1 0.95 2.13 0.96 2.18 0.95 2.28 0.86 2.23 0.82 2.27 0.73 2.27 0.64 2.23 0.63 2.27 0.59 2.23 0.55 2.23 0.55 2.27 0.5 2.23-2.73 1.27-2.78 1.32-2.81 1.32-2.87 1.32-2.91 1.41-3.04 1.41-3.19 1.5-3.27 1.54-3.46 1.59-3.63 1.69-3.73 1.72-3.82 1.73-3.91 1.73-3.95 1.73-4.05 1.63-4.05 1.59-4.04 1.5-4.14 1.46-4.14 1.36-4.27 1.32-4.36 1.27-4.51 1.23-4.68 1.18-4.91 1.23-5.09 1.18-5.32 1.19-5.5 1.18-5.64 1.18-5.73 1.18-5.82 1.14-5.86 1.18-5.91 1.18-12.23-0.13-12.28-0.1-12.22-0.13-12.28-0.14-12.23-0.13-12.27-0.1-12.23-0.13-12.28-0.14-29.73 1.82-29.73 1.77-29.56 1.73-29.36 1.59-29.1 1.5-28.78 1.28-28.32 1.13-27.92 0.82-27.37 0.59-26.86 0.37-26.51 0.13-26.14-0.04-25.91-0.19-25.69-0.27-25.55-0.36-25.46-0.37-30.28-0.36-15.23-0.23-15.32-0.22-15.5-0.32-15.64-0.37-15.87-0.5-16.14-0.54-16.41-0.64-16.55-0.77-16.46-0.86-16.18-0.96-15.82-1.05-15.19-1.13-14.41-1.23-13.46-1.32-12.36-1.36-11.32-1.46-10.5-1.5-9.83-1.54-9.18-1.59-8.82-1.6-8.5-1.63-8.41-1.68-12.82-4-12.78-4.05-12.82-4.05-12.82-4.04-12.82-4-12.82-4.05-12.77-4.05-12.825-4-12.82-4.04-12.775-4-12.685-3.96-12.638-3.82-12.457-3.77-12.275-3.59-12.093-3.41-11.866-3.19-11.593-2.95-11.32-2.77-11.139-2.59-10.957-2.46-10.82-2.32-10.729-2.23-10.638-2.18-10.639-2.14-5.501 1.19-5.774 1.13-6.273 1.09-7.047 1.09-8.093 1.01-9.365 0.91-10.911 0.86-12.73 0.73-14.775 0.63-16.549 0.55-18.004 0.45-19.139 0.5-19.959 0.46-20.458 0.5-20.686 0.59-20.594 0.73-20.231 0.81-19.641 0.96-19.048 1.04-18.322 1.14-17.504 1.14-16.503 1.18-15.457 1.18-14.275 1.14-13.003 1.14-11.866 1.04-10.911 1.05-10.138 1-9.457 0.95-9.001 0.96-8.638 0.95-8.547 0.96 1.409-3.6 1.409-3.59 1.364-3.5 1.319-3.45 1.228-3.32 1.181-3.23 1.136-3.05 0.955-2.91 0.91-2.68 0.727-2.5 0.637-2.32 0.545-2.13 0.455-1.96 0.318-1.77 0.227-1.64 0.137-1.45v-1.32l-0.046-1.14-0.182-1.04-0.272-0.96-0.41-0.86-0.545-0.78-0.682-0.72-0.819-0.73-0.954-0.68-1.091-0.59-1.273-0.55-1.5-0.45-1.637-0.28-1.864-0.09-2.091 0.09-2.364 0.37-2.546 0.59-2.774 0.86-2.955 1.09-3.046 1.19-3.136 1.36-3.183 1.41-3.182 1.45-3.137 1.46-3.092 1.41-2.955 1.41-2.955 1.36-2.865 1.32-2.863 1.32-2.774 1.32-2.818 1.27-2.774 1.27 3.41-2.23 3.183-2.4 3.318-2.51 3.683-2.59 1.363-0.91 4.047-2.54 2-1.09 1.637-0.96 0.773-0.45 0.591-0.32 0.545-0.27 3.137-1.64 2.546-1.27 0.909-0.41 0.5-0.28 4.365-2.04 3.547-1.46 4.091-1.72 11.593-4.78 12.911-4.77 14.003-4.77 14.912-4.73 15.685-4.78 16.23-4.72 16.64-4.73 16.775-4.73 5.911-0.77 5.864-0.78 5.729-0.72 5.637-0.73 5.41-0.68 5.137-0.59 4.865-0.6 4.501-0.5 4.137-0.4 3.819-0.37 3.591-0.32 3.501-0.27 3.501-0.23 3.592-0.22 3.773-0.23 4.046-0.23 4.456-0.27 4.773-0.27 5.001-0.28 5.137-0.27 5.274-0.23 5.274-0.22 5.274-0.19 5.137-0.18 5.001-0.09 4.819-0.09h14.048l4.683 0.05 4.773 0.09 4.865 0.04 5.046 0.09 5.138 0.09 5.137 0.05 5.183 0.09 5.137 0.09 5.046 0.05 4.865 0.09 4.683 0.04 4.409 0.05 4.183 0.04 4.001 0.1 3.728 0.09 3.592 0.09 3.364 0.13 3.227 0.14 3.092 0.23 9.775 0.32 8.638 0.22 9.728 0.23 8.321 0.23 8.547 0.22 9.683 0.37 12.048 0.45 19.231 0.64c0.182 0 0.727-0.05 0.727-0.05l98.064 0.09c0.046 0-0.227 0.41-0.227 0.41l-1.728 2.41-1.5 2.14-1.273 1.96-1.001 1.5c-0.09 0.18-0.227 0.36-0.227 0.36l-1.09 1.32-0.319 0.36-0.636 0.64-3.365 3.41-1.909 2-1.318 1.5-1.501 1.68-0.636 0.77-2.137 2.78-1.046 1.59c-0.046 0-2.091 2.59-2.091 2.59l-2.273 2.95-4.183 3.37c-0.045 0-1.091 0.5-1.091 0.5-0.045 0-4.865 1.32-4.865 1.32l-3.364 0.54-1.364 0.55-0.182 0.82 1.047 1.13 2.363 1.46 3.683 1.77 5.182 2.18 6.365 2.46 7.502 2.73 8.365 2.91 9.092 3.13 9.593 3.28 10.002 3.36 10.138 3.36 12.912 4.32 12.911 4.28 12.867 4.27 12.82 4.27 12.775 4.23 12.73 4.23 12.64 4.23 12.59 4.18 12.46 4.14 12.32 4.04 12.14 3.96 11.82 3.82 11.46 3.59 11.09 3.32 10.64 3.04 10.13 2.73 9.55 2.32 9.23 2 9.32 1.68 9.64 1.41 10.32 1.18 11.23 0.91 12.55 0.78 14.09 0.59 15.96 0.5 17.32 0.41 18.09 0.22 18.37 0.1 18-0.05 17.14-0.23 15.73-0.41 13.78-0.59 11.23-0.77 8.91-1 6.91-1.36 5.05-1.78 3.45-2.18 2.09-2.73 0.96-3.32v-3.95l-0.64-4.68-1.23-5.28-1.82-5.73-2.18-6.04-2.63-6.23-2.87-6.32-3.14-6.18-3.27-6.01-3.32-5.63-4.09-5.23-5.68-4.82-7.91-4.36-10.96-3.87-14.64-3.36-19.14-2.73-24.37-2.14-30.28-1.5-35.5-0.91-39.92-0.45-43.69-0.05-46.6 0.32-48.87 0.55-50.329 0.68-51.1 0.77-2.046-0.64c-0.046 0-0.819-3.04-0.819-3.04l-0.318-1.32-0.682-2.05-0.909-3.59-0.546-1.54-1.045-5.09-0.909-4.96 0.454-3.64 1.046-2.63 1-2.82 1.365-3.5 0.635-1.91 1.273-3.37 0.682-2.22 32.688 0.04 56.1 0.14 57.65 0.13 61.87 0.19 68.84 0.18 14.68 0.04h3.68l14.87-0.04 63.24-0.18 55.05-0.1 38.19 0.91 44.69 1.09 54.01 1.41 14.73 0.37 19.37 0.45 34.05 0.73 36.42 0.77 25.68 0.55 10.46 0.23 35.19 0.68 36.23 0.68 4.82 0.09c0.41 0 9.14 0.05 9.14 0.05l38.19 0.27 9 0.09c0.09 0 0.5-0.09 0.5-0.09l4.18-0.64 4.32-0.54 4.41-0.55 4.5-0.5 0.82-0.09 6.55-0.77 3.91-0.5 3.27-0.46 3.28-0.45 3.22-0.41 3.28-0.32 3.32-0.27 3.41-0.27 3.41-0.23 3.45-0.23 3.5-0.23 3.55-0.22 3.59-0.19 3.68-0.18 3.78-0.13 3.95-0.14 4.05-0.09 4.22-0.05 4.37 0.05 4.54 0.09 4.64 0.09 4.69 0.18 4.63 0.14 4.59 0.23 4.5 0.18 4.32 0.18 4.14 0.18 4 0.18 3.91 0.19 3.91 0.18 3.96 0.18 4.04 0.23 4.23 0.22 4.5 0.23 4.78 0.27 5 0.28 5.27 0.27 5.46 0.32 5.59 0.36 5.68 0.32 5.77 0.36 5.82 0.32 9.51 1.46 9.45 1.45" fill="#efdb22"/>
  <path d="m1967 973.68 2 11.41 1.91 12.05 1.77 12.77 1.68 13.73 1.55 14.96 1.36 16.28 1.18 17.86 1 19.23 0.82 20.37 0.64 21.37 0.5 22.14 0.32 22.73 0.18 23.1 0.09 23.32-0.09 23.28-0.18 23.14-0.32 22.73-0.5 22.14-0.64 21.32-0.82 20.42-1 19.18-1.18 17.87-1.36 16.32-1.55 14.91-1.68 13.78-1.77 12.77-1.91 12-2 11.41-2 11.05-2.05 10.82-12.23 0.14-12.28 0.13-12.22 0.14-12.28 0.09-12.23 0.14-12.27 0.13-12.23 0.14-12.28 0.09-29.73-1.82-29.73-1.77-29.56-1.73-29.36-1.59-29.1-1.45-28.78-1.32-28.32-1.09-27.92-0.87-27.37-0.59-26.86-0.32-26.51-0.13h-26.14l-25.91 0.18-25.69 0.27-25.55 0.37-25.46 0.36-30.28 0.36-15.23 0.23-15.32 0.27-15.5 0.32-15.64 0.37-15.87 0.45-16.14 0.55-16.41 0.68-16.55 0.73-16.46 0.86-16.18 0.95-15.82 1.05-15.19 1.14-14.41 1.22-13.46 1.32-12.36 1.37-11.32 1.45-10.5 1.5-9.83 1.55-9.18 1.59-8.82 1.64-8.5 1.63-8.41 1.64-0.32-3.64-0.36-3.59-0.32-3.64-0.36-3.68-0.32-3.64-0.37-3.73-0.36-3.72-0.32-3.73-0.36-3.82-0.37-4.23-0.4-5-0.41-6.14-0.41-7.68-0.46-9.64-0.5-11.86-0.54-14.51-0.59-17.55-0.6-20.18-0.59-22.46-0.59-24.37-0.45-25.87-0.41-26.96-0.23-27.77-0.09-28.1 0.09-28.14 0.23-27.73 0.41-27.01 0.45-25.87 0.59-24.32 0.59-22.46 0.6-20.18 0.59-17.55 0.54-14.55 0.5-11.87 0.46-9.59 0.41-7.68 0.41-6.19 0.4-5 0.37-4.23 0.36-3.77 0.32-3.77 0.36-3.73 0.37-3.68 0.32-3.68 0.36-3.64 0.32-3.64 0.36-3.64 0.32-3.63 8.41 1.68 8.5 1.63 8.82 1.6 9.18 1.59 9.83 1.54 10.5 1.5 11.32 1.46 12.36 1.36 13.46 1.32 14.41 1.23 15.19 1.13 15.82 1.05 16.18 0.96 16.46 0.86 16.55 0.77 16.41 0.64 16.14 0.54 15.87 0.5 15.64 0.37 15.5 0.32 15.32 0.22 15.23 0.23 30.28 0.36 25.46 0.37 25.55 0.36 25.69 0.27 25.91 0.19 26.14 0.04 26.51-0.13 26.86-0.37 27.37-0.59 27.92-0.82 28.32-1.13 28.78-1.28 29.1-1.5 29.36-1.59 29.56-1.73 29.73-1.77 29.73-1.82 12.28 0.14 12.23 0.13 12.27 0.1 12.23 0.13 12.28 0.14 12.22 0.13 12.28 0.1 12.23 0.13 2.05 10.82 2 11.05" fill="#fcee21"/>
  <g fill="#333">
   <path d="m1792.9 836.06c15.77 1.04 31.7 1.71 47.34 4.16 7.54 1.19 16.88 2.39 19.71 10.72 2.35 6.91 0.32 15.13-1.41 21.97-1.87 7.33-4.15 14.56-6.98 21.58-2.81 6.98-6.13 14.5-12.83 18.54-6.78 4.09-15.36 5.36-23.06 6.52-7.35 1.1-14.8 1.76-22.21 2.3-33.19 2.44-66.54 2.65-99.81 2.72-32.6 0.07-65.19-0.37-97.77-0.97-31.58-0.58-63.2-1.28-94.74-3.04-8.01-0.44-16.03-0.87-23.99-1.86-7.91-0.99-16.34-1.99-23.24-6.31-6.29-3.94-10.52-10.81-14.12-17.12-4.05-7.11-7.47-14.55-10.85-21.98-3.05-6.71-6.51-13.5-8.96-20.44-1.35-3.8-2.22-7.6 0.06-11.13 1.99-3.08 5.12-5.03 8.56-6.36 6.53-2.54 355.92 0.22 364.3 0.7"/>
   <path d="m920.74 845.2-0.136-2.86-0.091-2.87-0.136-2.82-0.137-2.86-0.091-2.86-0.136-2.87 51.1-0.77 50.329-0.68 48.87-0.55 46.6-0.32 43.69 0.05 39.92 0.45 35.5 0.91 30.28 1.5 24.37 2.14 19.14 2.73 14.64 3.36 10.96 3.87 7.91 4.36 5.68 4.82 4.09 5.23 3.32 5.63 3.27 6.01 3.14 6.18 2.87 6.32 2.63 6.23 2.18 6.04 1.82 5.73 1.23 5.28 0.64 4.68v3.95l-0.96 3.32-2.09 2.73-3.45 2.18-5.05 1.78-6.91 1.36-8.91 1-11.23 0.77-13.78 0.59-15.73 0.41-17.14 0.23-18 0.05-18.37-0.1-18.09-0.22-17.32-0.41-15.96-0.5-14.09-0.59-12.55-0.78-11.23-0.91-10.32-1.18-9.64-1.41-9.32-1.68-9.23-2-9.55-2.32-10.13-2.73-10.64-3.04-11.09-3.32-11.46-3.59-11.82-3.82-12.14-3.96-12.32-4.04-12.46-4.14-12.59-4.18-12.64-4.23-12.73-4.23-12.775-4.23-12.82-4.27-12.867-4.27-12.911-4.28-12.912-4.32-0.136-2.81-0.091-2.87"/>
   <path d="m920.24 1616.2 0.137-2.81 0.136-2.87 0.091-2.86 0.136-2.82 0.091-2.86 0.091-1.55 0.045-1.32 12.912-4.27 1.773-0.59 11.138-3.73 12.867-4.27 12.82-4.23 12.775-4.28 12.73-4.22 12.64-4.19 12.59-4.18 12.46-4.14 12.32-4.09 12.14-3.95 11.82-3.78 11.46-3.59 11.09-3.36 10.64-3.05 10.13-2.73 9.55-2.32 9.23-2 9.32-1.68 9.64-1.41 10.32-1.13 11.23-0.96 12.55-0.77 14.09-0.59 15.96-0.5 17.32-0.37 18.09-0.22 18.37-0.09 18 0.04 17.14 0.23 15.73 0.41 13.78 0.54 11.23 0.78 8.91 1.04 6.91 1.36 5.05 1.73 3.45 2.18 2.09 2.73 0.96 3.32v3.96l-0.64 4.68-1.23 5.27-1.82 5.73-2.18 6.05-2.63 6.27-2.87 6.28-3.14 6.18-3.27 6-3.32 5.64-4.09 5.27-5.68 4.82-7.91 4.36-10.96 3.87-14.64 3.32-19.14 2.77-24.37 2.14-30.28 1.45-35.5 0.96-39.92 0.41-43.69 0.04-46.6-0.32-48.87-0.5-50.329-0.72-51.1-0.78 0.136-2.86 0.091-2.87"/>
   <path d="m1094.9 946.72-0.32 3.64-0.36 3.64-0.32 3.68-0.37 3.68-0.36 3.73-0.32 3.77-0.36 3.77-0.37 4.23-0.4 5-0.41 6.19-0.41 7.68-0.46 9.59-0.5 11.87-0.54 14.55-0.59 17.55-0.6 20.18-0.59 22.46-0.59 24.32-0.45 25.87-0.41 27.01-0.23 27.73-0.09 28.14 0.09 28.1 0.23 27.77 0.41 26.96 0.45 25.87 0.59 24.37 0.59 22.46 0.6 20.18 0.59 17.55 0.54 14.51 0.5 11.86 0.46 9.64 0.41 7.68 0.41 6.14 0.4 5 0.37 4.23 0.36 3.82 0.32 3.73 0.36 3.72 0.37 3.73 0.32 3.64 0.36 3.68 0.32 3.64 0.36 3.59 0.32 3.64-12.82 4.04-12.78 4.05-12.82 4-12.82 4.05-12.82 4.04-12.82 4-12.77 4.05-12.825 4.05-12.82 4-12.775 4-12.685 3.95-12.638 3.87c-0.046 0-12.457 3.73-12.457 3.73l-12.275 3.59-12.093 3.41-11.866 3.18-11.593 3-11.32 2.77-11.139 2.55-10.957 2.45-10.82 2.32-10.729 2.23-10.638 2.18-10.639 2.14-2.864-6.68-2.819-6.73-2.864-6.77-2.819-6.92-2.773-7-2.773-7.13-2.728-7.32-2.728-7.51-2.636-7.77-2.683-8.32-2.773-9.18-2.91-10.37-3.137-11.87-3.409-13.68-3.728-15.77-4.138-18.24-4.637-20.95-4.819-23.37-4.774-25.46-4.5-27.19-3.956-28.5-3.137-29.6-2.091-30.23-0.773-30.6 0.773-30.6 2.091-30.28 3.137-29.55 3.956-28.55 4.5-27.18 4.774-25.42 4.819-23.41 4.637-20.96 4.138-18.23 3.728-15.78 3.409-13.68 3.137-11.82 2.91-10.37 2.773-9.18 2.683-8.32 2.636-7.77 2.728-7.55 2.728-7.32 2.773-7.14 2.773-7 2.819-6.86 2.864-6.78 2.819-6.73 2.864-6.73 10.639 2.14 10.638 2.18 10.729 2.23 10.82 2.32 10.957 2.46 11.139 2.59 11.32 2.77 11.593 2.95 11.866 3.19 12.093 3.41 12.275 3.59 12.457 3.77 12.638 3.82 12.685 3.96 12.775 4 12.82 4.04 12.825 4 12.77 4.05 12.82 4.05 12.82 4 12.82 4.04 12.82 4.05 12.78 4.05 12.82 4-0.32 3.63-0.36 3.64"/>
  </g>
  <path d="m885 1661.5-1.5-2.19-1.273-1.95-1.228-1.86-0.136-0.19-1.182-1.54-1.909-2.05-2.001-2.09-3.364-3.77-1.273-1.46-2.728-3.59-2-2.73-0.182-0.22-3.41-4.05-1.818-2.09c-0.045-0.05-2.955-1.55-2.955-1.55l-2.364-0.95-4.001-0.73-2.501-0.27-1.364-0.59-0.182-0.82 1.047-1.14 2.363-1.45 3.683-1.78 5.182-2.13 6.365-2.46 7.502-2.73 8.365-2.95 9.092-3.14 9.593-3.27 10.002-3.32 10.138-3.41-0.045 1.32-0.091 1.55-0.091 2.86-0.136 2.82-0.091 2.86-0.136 2.87-0.137 2.81-0.091 2.87-0.136 2.86-2 0.91-0.955 4.5-1.273 5.82-1.001 6.69-0.272 6.95 1.546 6.46 0.045 0.22 1.045 3.46 1.592 5.18 0.636 2.19 0.364 1.31 0.273 1 0.591 2.28 0.545 2 0.637 2.77 0.591 2.5 0.818 3.5 0.41 1.86 0.09 0.32 0.182 0.78 0.5 1.81 1.091 3.96 0.591 2.14 1.228 4.91 0.955 3.86 1 4.14 0.409 1.54c-0.045 0 1.046 4.23 1.046 4.23l0.954 4 0.864 3.64 0.5 2.14 0.546 2.5 0.409 1.82 0.136 0.68c0.046 0.18 0.137 0.45 0.137 0.45l0.319 1 0.454 1.41 0.636 2.23 0.864 3.04 0.5 1.73 0.5 2.05 0.273 1.18 0.409 1.91 0.455 2.32 0.272 2.32 0.092 1.95-0.046 0.59-0.091 0.82-0.045 0.64-0.364 0.82-0.319 0.45-0.499 0.32-0.501 0.23c-0.136 0.18-0.409 0.54-0.409 0.54l-0.182 0.18-0.682 0.5-1 0.28-0.454-0.05-1.182-0.18-0.546-0.23-1.409-0.72c-0.046 0-1.546-1.14-1.546-1.14l-0.228-0.18-1.636-1.64-0.682-0.86-1.773-2.69-0.228-0.36-1.636-3-1.637-3.32-1.545-3.55-1.5-3.68-1.774-4.63-0.545-1.32c-0.046-0.14-0.546-1.23-0.546-1.23-0.091-0.14-2.228-4.41-2.228-4.41l-1.909-3.82-1.683-3.5-2-4.09-1.909-3.64-1.819-3.45-1.545-3.14c-0.046-0.09-0.683-1.32-0.683-1.32l-1.545-3.27-0.864-1.82-2.546-5.59-1.182-2.69-1.318-3-0.364-0.72-1.955-4.14-1.773-3.5c-0.045-0.05-1.363-2.23-1.363-2.23l-0.592-1-0.136-0.18-1.591-2.32-0.273-0.36-1.728-2.41" fill="#1a1a1a"/>
  <path d="m917.24 791.33-0.635 1.91-1.365 3.5-1 2.82-1.046 2.63-0.454 3.64 0.909 4.96 1.045 5.09 0.546 1.54 0.909 3.59 0.682 2.05 0.318 1.32 0.773 3.04c0.046 0 2.092 0.64 2.092 0.64l0.136 2.87 0.091 2.86 0.137 2.86 0.136 2.82 0.091 2.87 0.136 2.86 0.091 2.87 0.136 2.81-10.138-3.36-10.002-3.36-9.593-3.28-9.092-3.13-8.365-2.91-7.502-2.73-6.365-2.46-5.182-2.18-3.683-1.77-2.363-1.46-1.047-1.13 0.182-0.82 1.364-0.55 3.364-0.54 3.138-0.5 1.682-0.82c0.045 0 1.091-0.5 1.091-0.5 0.045 0 4.228-3.37 4.228-3.37l2.273-2.95 2.045-2.59c0.046 0 1.092-1.59 1.092-1.59l2.137-2.78 0.636-0.77 1.501-1.68 1.318-1.5 1.909-2 3.365-3.41 0.636-0.64 0.319-0.36 1.09-1.32 0.137-0.18c0.09-0.18 1.091-1.68 1.091-1.68l1.273-1.96 1.5-2.14 1.728-2.41 0.273-0.41 1.545-2.31 2.137-3.41 1.773-3.5 1.728-3.55 0.591-1.32 1.682-3.77 0.818-1.87 0.955-2.09c0.045 0 1.591-3.54 1.591-3.54l0.864-1.78 1.545-3.32 0.637-1.22c0.046-0.05 1.591-3.19 1.591-3.19l1.819-3.45 1.909-3.64 0.228-0.45 0.455-0.91 1.317-2.78 1.683-3.45 1.546-3.09 0.363-0.77 1.364-2.69 0.864-1.72 0.546-1.19 0.545-1.36 0.364-0.95 1.41-3.69 1.5-3.68 1.545-3.55 1.637-3.32 1.636-2.95 0.228-0.41 1.773-2.68 0.682-0.82 0.364-0.41 1.272-1.27 0.228-0.18 1.409-1.05c0.137-0.09 1.546-0.77 1.546-0.77l0.546-0.28 0.909-0.13c0.045 0 0.273-0.05 0.273-0.05l1.137 0.18 0.954 0.55c0.045 0.05 0.455 0.55 0.455 0.55 0.136 0.13 0.682 0.41 0.682 0.41l0.499 0.36 0.319 0.41 0.364 0.82 0.136 1.45 0.046 0.59-0.092 2-0.272 2.28-0.455 2.36-0.409 1.86-0.273 1.19-0.5 2.04-1.364 4.78-0.636 2.27-0.864 2.68-0.136 0.5-0.455 2.14-0.546 2.5-0.5 2.13-0.864 3.69-0.954 4-0.91 3.59-0.545 2.14-1 4.13-0.955 3.87-0.41 1.54-0.818 3.37-0.591 2.13-0.727 2.51-0.773 2.95-0.091 0.32-0.818 3.41-0.591 2.59-0.682 3-0.682 2.77-0.545 2-0.637 2.28-0.318 1.04-0.41 1.28-0.682 2.22-1.273 3.37" fill="#1a1a1a"/>
  <path d="m447.42 1649.5-16.23-4.73-15.685-4.73-14.912-4.77-14.003-4.73-12.911-4.77-8.138-3.41-0.637-0.23-2.818-1.18-4.091-1.68-3.547-1.5-4.365-2.05-0.5-0.27-0.909-0.41-2.546-1.23-3.137-1.64-0.545-0.31-0.591-0.32-0.773-0.41-1.637-0.96-2-1.09-4.047-2.59-1.363-0.86-3.683-2.59-3.318-2.5-3.183-2.41-3.41-2.28 2.774 1.28 2.818 1.31 2.774 1.28 2.863 1.32 2.865 1.36 2.955 1.36 2.955 1.37 3.092 1.41 3.137 1.45 3.182 1.46 3.183 1.45 3.136 1.32 3.046 1.23 2.955 1.04 2.774 0.87 2.546 0.63 2.364 0.32 2.091 0.14 1.864-0.14 1.637-0.27 1.5-0.41 1.273-0.55 1.091-0.63 0.954-0.68 0.819-0.69 0.682-0.77 0.545-0.77 0.41-0.87 0.272-0.91 0.182-1.04 0.046-1.18v-1.32l-0.137-1.46-0.227-1.59-0.318-1.82-0.455-1.95-0.545-2.09-0.637-2.32-0.727-2.5-0.91-2.73-0.955-2.86-1.136-3.1-1.181-3.18-1.228-3.36-1.319-3.46-1.364-3.5-1.409-3.54-1.409-3.6 8.547 0.96 8.638 0.91 9.001 0.95 9.457 1 10.138 1 10.911 1 11.866 1.1 13.003 1.09 14.275 1.13 15.457 1.19 16.503 1.18 17.504 1.18 18.322 1.09 19.048 1.05 19.641 0.95 20.231 0.86 20.594 0.69 20.686 0.59 20.458 0.5 19.959 0.5 19.139 0.45 18.004 0.5 16.549 0.5 14.775 0.64 12.73 0.77 10.911 0.82 9.365 0.95 8.093 1.01 7.047 1.04 6.273 1.14 5.774 1.13 5.501 1.14 10.639-2.14 10.638-2.18 10.729-2.23 10.82-2.32 10.957-2.45 11.139-2.55 11.32-2.77 11.593-3 11.866-3.18 12.093-3.41 12.275-3.59 12.411-3.73c0.046 0 12.684-3.87 12.684-3.87l12.685-3.95 12.775-4 12.82-4 12.825-4.05 12.77-4.05 12.82-4 12.82-4.04 12.82-4.05 12.82-4 12.78-4.05 12.82-4.04 8.41-1.64 8.5-1.63 8.82-1.64 9.18-1.59 9.83-1.55 10.5-1.5 11.32-1.45 12.36-1.37 13.46-1.32 14.41-1.22 15.19-1.14 15.82-1.05 16.18-0.95 16.46-0.86 16.55-0.73 16.41-0.68 16.14-0.55 15.87-0.45 15.64-0.37 15.5-0.32 15.32-0.27 15.23-0.23 30.28-0.36 25.46-0.36 25.55-0.37 25.69-0.27 25.91-0.18h26.14l26.51 0.13 26.86 0.32 27.37 0.59 27.92 0.87 28.32 1.09 28.78 1.32 29.1 1.45 29.36 1.59 29.56 1.73 29.73 1.77 29.73 1.82 12.28-0.09 12.23-0.14 12.27-0.13 12.23-0.14 12.28-0.09 12.22-0.14 12.28-0.13 12.23-0.14 5.91 1.19 5.86 1.18 5.82 1.18 5.73 1.18 5.64 1.18 5.5 1.18 5.32 1.19 5.09 1.18 4.91 1.18 4.68 1.23 4.51 1.23 4.36 1.27 4.27 1.32 4.14 1.36 4.14 1.41 4.04 1.5 4.05 1.59 4.05 1.68 3.95 1.69 3.91 1.72 3.82 1.73 3.73 1.73 3.63 1.68 3.46 1.64 3.27 1.54 3.19 1.46 3.04 1.45 2.91 1.37 2.87 1.36 2.81 1.27 2.78 1.32 2.73 1.28-0.5 2.27-0.55 2.23-0.55 2.22-0.59 2.28-0.63 2.22-0.64 2.28-0.73 2.23-0.82 2.27-0.86 2.27-0.95 2.23-0.96 2.23-0.95 2.13-0.91 2.05-0.91 2-0.77 1.82-0.73 1.73-0.55 1.54-0.45 1.41-0.27 1.37-0.14 1.4 0.04 1.41 0.23 1.55 0.41 1.68 0.64 1.87 0.86 2.13 1 2.37 1.14 2.5 1.22 2.59 1.23 2.59 1.28 2.55 1.18 2.45 1.04 2.32 0.96 2.04 0.82 1.92 0.68 1.72 0.59 1.55 0.54 1.5 0.5 1.36 0.41 1.37 0.46 1.32-8.32 3.09-8.32 3.04-8.37 3-8.41 2.96-8.5 2.82-8.55 2.72-8.68 2.55-8.82 2.36-9 2.19-9.09 1.95-9.19 1.82-9.32 1.68-9.36 1.59-9.46 1.55-9.45 1.45-9.51 1.41-5.82 0.37-5.77 0.31-5.68 0.37-5.59 0.32-5.46 0.31-5.27 0.32-5 0.28-4.78 0.27-4.5 0.23-4.23 0.22-4.04 0.19-3.96 0.18-7.82 0.36-4 0.18-4.14 0.19-4.32 0.22-4.5 0.18-4.59 0.18-4.63 0.19-4.69 0.13-4.64 0.14-4.54 0.05-4.37 0.04-4.22-0.04-4.05-0.05-3.95-0.14-3.78-0.18-3.68-0.18-3.59-0.18-3.55-0.23-3.5-0.23-3.45-0.22-6.82-0.46-3.32-0.32-3.28-0.32-3.22-0.4-3.28-0.46-3.27-0.41-3.91-0.54-6.5-0.73-0.87-0.09-4.5-0.55-4.41-0.5-4.32-0.59-4.18-0.59-0.41-0.09c0-0.05-9.09 0.05-9.09 0.05l-38.19 0.27-8.73 0.09c-0.36 0-5.23 0.09-5.23 0.09l-14.23 0.23-22 0.41-45.65 0.91c0 0.04-25.68 0.59-25.68 0.59l-36.42 0.77-34.05 0.73-18.28 0.41-1.63 0.04-2.28 0.05-11.91 0.31-15.77 0.37-38.24 1-40.73 0.95c0 0.05-3.96 0.14-3.96 0.14l-38.19 0.96-55.05-0.14-28.37-0.09-34.87-0.05-16.41-0.04-1.19-0.05h-0.95l-2.14 0.05h-12.54l-68.84 0.18-61.87 0.18-57.65 0.18-56.1 0.09-32.506 0.1-0.636-2.19-1.592-5.18-1.045-3.46-0.045-0.22-1.546-6.46 0.272-6.95 1.001-6.69 1.273-5.82 0.955-4.5 2-0.91 51.1 0.78 50.329 0.72 48.87 0.5 46.6 0.32 43.69-0.04 39.92-0.41 35.5-0.96 30.28-1.45 24.37-2.14 19.14-2.77 14.64-3.32 10.96-3.87 7.91-4.36 5.68-4.82 4.09-5.27 3.32-5.64 3.27-6 3.14-6.18 2.87-6.28 2.63-6.27 2.18-6.05 1.82-5.73 1.23-5.27 0.64-4.68v-3.96l-0.96-3.32-2.09-2.73-3.45-2.18-5.05-1.73-6.91-1.36-8.91-1.04-11.23-0.78-13.78-0.54-15.73-0.41-17.14-0.23-18-0.04-18.37 0.09-18.09 0.22-17.32 0.37-15.96 0.5-14.09 0.59-12.55 0.77-11.23 0.96-10.32 1.13-9.64 1.41-9.32 1.68-9.23 2-9.55 2.32-10.13 2.73-10.64 3.05-11.09 3.36-11.46 3.59-11.82 3.78-12.14 3.95-12.32 4.09-12.46 4.14-12.59 4.18-25.37 8.41-12.775 4.28-12.82 4.23-12.867 4.27-11.138 3.73-1.773 0.59-12.912 4.27-10.138 3.41-10.002 3.32-9.593 3.27-9.092 3.14-8.365 2.95-7.502 2.73-6.365 2.46-5.182 2.13-3.683 1.78-2.363 1.45-1.047 1.14 0.182 0.82 1.364 0.59 2.501 0.27 4.001 0.73 2.364 0.95 2.91 1.5c0.045 0.05 1.863 2.14 1.863 2.14l3.41 4.05 0.182 0.22 2 2.73 2.728 3.59 1.273 1.46 3.364 3.77 2.001 2.09 1.909 2.05 1.182 1.54 0.136 0.19 1.228 1.86 1.273 1.95 1.5 2.19 1.728 2.41 0.273 0.36-44.281 0.05-53.829 0.09-0.545-0.09-19.413 0.63-12.048 0.46-9.683 0.36-8.547 0.27-8.321 0.19-1.181 0.04-8.547 0.18-8.638 0.23-9.775 0.32-3.092 0.23-3.227 0.18-3.364 0.13-3.592 0.09-3.728 0.1-4.001 0.04-4.183 0.05-4.409 0.09-4.683 0.04-4.865 0.05-5.046 0.09-5.137 0.04-5.183 0.1-5.137 0.09-5.138 0.04-5.046 0.09-4.865 0.09-4.773 0.05-4.683 0.04-4.637 0.05h-4.683l-4.728-0.05-4.819-0.04-5.001-0.14-5.137-0.13-15.822-0.69-5.137-0.27-5.001-0.27-4.773-0.27-4.456-0.23-4.046-0.23-3.773-0.23-3.592-0.22-3.501-0.23-3.501-0.27-3.591-0.32-3.819-0.37-4.137-0.4-4.501-0.55-4.865-0.55-5.137-0.63-5.41-0.68-5.637-0.73-5.729-0.73-5.864-0.77-5.911-0.78-16.775-4.72-16.64-4.73" fill="#efdb22"/>
  <path d="m799.99 871.25-2.864 6.78-2.819 6.86-2.773 7-2.773 7.14-2.728 7.32-2.728 7.55-2.636 7.77-2.683 8.32-2.773 9.18-2.91 10.37-3.137 11.82-3.409 13.68-3.728 15.78-4.138 18.23-4.637 20.96-4.819 23.41-4.774 25.42-4.5 27.18-3.956 28.55-3.137 29.55-2.091 30.28-0.773 30.6 0.773 30.6 2.091 30.23 3.137 29.6 3.956 28.5 4.5 27.19 4.774 25.46 4.819 23.37 4.637 20.95 4.138 18.24 3.728 15.77 3.409 13.68 3.137 11.87 2.91 10.37 2.773 9.18 2.683 8.32 2.636 7.77 2.728 7.51 2.728 7.32 2.773 7.13 2.773 7 2.819 6.92 2.864 6.77 2.819 6.73 2.864 6.68-5.501-1.14-5.774-1.13-6.273-1.14-7.047-1.04-8.093-1.01-9.365-0.95-10.911-0.82-12.73-0.77-14.775-0.64-16.549-0.5-18.004-0.5-19.139-0.45-19.959-0.5-20.458-0.5-20.686-0.59-20.594-0.69-20.231-0.86-19.641-0.95-19.048-1.05-18.322-1.09-17.504-1.18-16.503-1.18-15.457-1.19-14.275-1.13-13.003-1.09-11.866-1.1-10.911-1-10.138-1-9.457-1-9.001-0.95-8.638-0.91-8.547-0.96-4.229-11.22-4.182-11.1-4.183-10.77-4.092-10.37-4-9.82-3.864-9.14-3.683-8.27-3.546-7.27-3.364-6.14-3.137-5.18-3.047-4.32-2.863-3.59-2.819-3.01-2.773-2.59-2.683-2.27-2.682-2.09-2.728-2.05-2.728-2-2.728-1.86-2.773-1.73-2.728-1.55-2.772-1.31-2.774-1.05-2.728-0.77-2.773-0.46-2.683-0.13-2.682 0.13-2.591 0.32-2.546 0.55-2.409 0.63-2.319 0.82-2.137 0.87-2.001 0.9-1.682 1.19-1.272 1.77-0.773 2.55-0.136 3.63 0.681 4.91 1.546 6.5 2.546 8.32 3.728 10.41 4.682 12.23 5.547 13.78 6.274 15.09 6.819 16.14 7.229 16.91 7.547 17.42 7.683 17.68-1.409-1.68-1.409-1.73-1.41-1.68-1.454-1.68-1.41-1.73-1.409-1.68-1.41-1.68-1.409-1.73-5.001-7.05-5.001-7.18-4.91-7.55-4.865-7.95-4.728-8.6-4.637-9.36-4.455-10.28-4.274-11.32-4.091-12.55-3.865-13.68-3.637-14.73-3.364-15.68-3.137-16.51-2.864-17.32-2.637-17.96-2.273-18.55-2.001-19.04-1.727-19.51-1.41-19.82-1.182-20.19-0.863-20.36-0.637-20.6-0.363-20.68-0.092-20.78 0.092-20.78 0.363-20.73 0.637-20.55 0.863-20.41 1.182-20.14 1.41-19.87 1.727-19.46 2.001-19.04 2.273-18.55 2.637-18.01 2.864-17.27 3.137-16.55 3.364-15.69 3.637-14.68 3.865-13.73 4.091-12.55 4.274-11.32 4.455-10.27 4.637-9.37 4.728-8.55 4.865-8 4.91-7.5 5.001-7.23 5.001-7.04 1.409-1.69 1.41-1.72 1.409-1.69 1.41-1.68 1.454-1.73 1.41-1.68 1.409-1.68 1.409-1.73-7.683 17.69-7.547 17.46-7.229 16.86-6.819 16.14-6.274 15.09-5.547 13.78-4.682 12.23-3.728 10.41-2.546 8.32-1.546 6.5-0.681 4.96 0.136 3.59 0.773 2.59 1.272 1.73 1.682 1.23 2.001 0.9 2.137 0.87 2.319 0.77 2.409 0.68 2.546 0.5 2.591 0.37 2.682 0.09 2.683-0.14 2.773-0.45 2.728-0.78 2.774-1.04 2.772-1.32 2.728-1.55 2.773-1.72 2.728-1.87 2.728-2 2.728-2.04 2.682-2.09 2.683-2.28 2.773-2.54 2.819-3.05 2.863-3.59 3.047-4.32 3.137-5.14 3.364-6.18 3.546-7.27 3.683-8.28 3.864-9.09 4-9.82 4.092-10.37 4.183-10.82 4.182-11.09 4.229-11.18 8.547-0.96 8.638-0.95 9.001-0.96 9.457-0.95 10.138-1 10.911-1.05 24.869-2.18 14.275-1.14 15.457-1.18 16.503-1.18 17.504-1.14 18.322-1.14 19.048-1.04 19.641-0.96 20.231-0.81 20.594-0.73 20.686-0.59 20.458-0.5 19.959-0.46 19.139-0.5 18.004-0.45 16.549-0.55 14.775-0.63 12.73-0.73 10.911-0.86 9.365-0.91 8.093-1.01 7.047-1.09 6.273-1.09 5.774-1.13 5.501-1.19-2.864 6.73-2.819 6.73" fill="#fcee21"/>
  <path d="m447.42 800.47-16.23 4.72-15.685 4.78-14.912 4.73-14.003 4.77-12.911 4.77-11.593 4.78-4.091 1.72-3.547 1.46-4.365 2.04-0.5 0.28-0.909 0.41-2.546 1.27-3.137 1.64-0.545 0.27-0.591 0.32-0.773 0.45-1.637 0.96-2 1.09-4.047 2.54-1.363 0.91-3.683 2.59-3.318 2.51-3.183 2.4-3.41 2.23-1.409 1.73-1.409 1.68-1.41 1.68-1.454 1.73-1.41 1.68-1.409 1.69-1.41 1.72-1.409 1.69-5.001 7.04-5.001 7.23-4.91 7.5-4.865 8-4.728 8.55-4.637 9.37-4.455 10.27-4.274 11.32-4.091 12.55-3.865 13.73-3.637 14.68-3.364 15.69-3.137 16.55-2.864 17.27-2.637 18.01-2.273 18.55-2.001 19.04-1.727 19.46-1.41 19.87-1.182 20.14-0.863 20.41-0.637 20.55-0.363 20.73-0.092 20.78 0.092 20.78 0.363 20.68 0.637 20.6 0.863 20.36 1.182 20.19 1.41 19.82 1.727 19.51 2.001 19.04 2.273 18.55 2.637 17.96 2.864 17.32 3.137 16.51 3.364 15.68 3.637 14.73 3.865 13.68 4.091 12.55 4.274 11.32 4.455 10.28 4.637 9.36 4.728 8.6 4.865 7.95 4.91 7.55 5.001 7.18 5.001 7.05 1.409 1.73 1.41 1.68 1.409 1.68 1.41 1.73 1.454 1.68 1.41 1.68 1.409 1.73 1.409 1.68 3.41 2.28 3.183 2.41 3.318 2.5 3.683 2.59 1.363 0.86 4.047 2.59 2 1.09 1.637 0.96 0.773 0.41 0.591 0.32 0.545 0.31 3.137 1.64 2.546 1.23 0.909 0.41 0.5 0.27 4.365 2.05 3.547 1.5 4.091 1.68 2.818 1.18 0.637 0.23 8.138 3.41 12.911 4.77 14.003 4.73 14.912 4.77 15.685 4.73 16.23 4.73 16.64 4.73 16.775 4.72-3.682-0.68-3.637-0.68-3.592-0.68-3.546-0.64-3.455-0.63-3.364-0.64-3.228-0.59-3.092-0.59-2.909-0.55-2.728-0.54-2.591-0.5-2.455-0.59-2.319-0.59-2.182-0.69-9.184-3.09-9.047-3.04-8.729-3.01-4.546-1.63-3.819-1.32-7.82-2.86-1.591-0.6c-0.046 0-2.046-0.68-2.046-0.68l-7.41-2.5-2.501-0.91-6.001-2.13-7.637-2.91-8.412-3.5-7.637-3.51-6.637-3.5-5.684-3.41-1.364-0.91-3.273-2.27-1.227-0.86-0.546-0.37c-0.091-0.04-3.274-2.04-3.274-2.04l-4.546-2.96-4.591-3.09-4.547-3.36-4.41-3.59-4.364-3.96-4.274-4.27-0.363-0.37-4.774-5.18-4.319-5.27-2.182-2.5-3.41-4.32-3.91-5.32-2.318-3.27-3.047-4.64-3.091-5.41-1-2-2.137-4.37-0.5-1.09-2.682-6.36-3.183-8.64-3.091-9.68-0.637-2.19-3.228-11.68-1.727-6.23-2.864-10.55-3.273-12.77-3.046-12.82-2.774-13.28-0.682-3.36-2.364-12.96-2.273-14-2.182-15.05-2.091-15.59-1.955-15.78-1.774-15.68-1.545-15.28-1.228-14.82-0.909-14.19-0.5-9.72-0.818-16.51-0.637-17.23-0.909-40.96 0.636-27.23 0.273-13.78 0.637-17.18 0.818-16.55 0.5-9.73 0.909-14.19 1.228-14.77 1.545-15.32 1.774-15.64 1.955-15.78 2.091-15.64 2.182-15 2.273-14.05 2.364-12.91 0.682-3.41 2.774-13.27 3.046-12.82 3.273-12.78 2.864-10.55 1.727-6.18 3.228-11.68 0.637-2.19 3.091-9.68 3.183-8.64 1.045-2.45 0.5-1.14 1.137-2.82 0.5-1.04 1.273-2.64 0.864-1.73 1-2.04 3.091-5.41 3.047-4.64 2.318-3.27 3.91-5.32 3.41-4.28 2.182-2.5 4.319-5.32 4.774-5.13 0.363-0.37 4.274-4.32 4.364-3.95 4.41-3.59 4.547-3.32 4.591-3.14 4.546-2.91 3.183-2.04c0.091-0.05 0.637-0.41 0.637-0.41l4.5-3.14 1.364-0.91 5.684-3.41 6.637-3.5 7.637-3.5 0.637-0.27 4.001-1.64 3.774-1.59 7.637-2.91 6.001-2.14 2.501-0.86 7.41-2.55 2.546-0.86 1.091-0.41 7.82-2.86 8.365-2.91 8.729-3 9.047-3.1 9.184-3.04 2.182-0.69 2.319-0.63 2.455-0.55 2.591-0.54 2.728-0.55 2.909-0.54 3.092-0.55 3.228-0.59 3.364-0.64 3.455-0.63 3.546-0.68 3.592-0.69 3.637-0.68 3.682-0.68-16.775 4.73-16.64 4.73" fill="#333"/>
  <path d="m358.86 909.12-4.183 10.82-4.092 10.37-4 9.82-3.864 9.09-3.683 8.28-3.546 7.27-3.364 6.18-3.137 5.14-3.047 4.32-2.863 3.59-2.819 3.05-2.773 2.54-2.683 2.28-2.682 2.09-2.728 2.04-2.728 2-2.728 1.87-2.773 1.72-2.728 1.55-2.772 1.32-2.774 1.04-2.728 0.78-2.773 0.45-2.683 0.14-2.682-0.09-2.591-0.37-2.546-0.5-2.409-0.68-2.319-0.77-2.137-0.87-2.001-0.9-1.682-1.23-1.272-1.73-0.773-2.59-0.136-3.59 0.681-4.96 1.546-6.5 2.546-8.32 3.728-10.41 4.682-12.23 5.547-13.78 6.274-15.09 6.819-16.14 7.229-16.86 7.547-17.46 7.683-17.69 2.774-1.27 2.818-1.27 2.774-1.32 2.863-1.32 2.865-1.32 2.955-1.36 2.955-1.41 3.092-1.41 3.137-1.46 3.182-1.45 3.183-1.41 3.136-1.36 3.046-1.19 2.955-1.09 2.774-0.86 2.546-0.59 2.364-0.37 2.091-0.09 1.864 0.09 1.637 0.28 1.5 0.45 1.273 0.55 1.091 0.59 0.954 0.68 0.819 0.73 0.682 0.72 0.545 0.78 0.41 0.86 0.272 0.96 0.182 1.04 0.046 1.14v1.32l-0.137 1.45-0.227 1.64-0.318 1.77-0.455 1.96-0.545 2.13-0.637 2.32-0.727 2.5-0.91 2.68-0.955 2.91-1.136 3.05-1.181 3.23-1.228 3.32-1.319 3.45-1.364 3.5-1.409 3.59-1.409 3.6-4.229 11.18-4.182 11.09" fill="#fff"/>
  <path d="m303.21 1560.7-7.229-16.91-6.819-16.14-6.274-15.09-5.547-13.78-4.682-12.23-3.728-10.41-2.546-8.32-1.546-6.5-0.681-4.91 0.136-3.63 0.773-2.55 1.272-1.77 1.682-1.19 2.001-0.9 2.137-0.87 2.319-0.82 2.409-0.63 2.546-0.55 2.591-0.32 2.682-0.13 2.683 0.13 2.773 0.46 2.728 0.77 2.774 1.05 2.772 1.31 2.728 1.55 2.773 1.73 2.728 1.86 2.728 2 2.728 2.05 2.682 2.09 2.683 2.27 2.773 2.59 2.819 3.01 2.863 3.59 3.047 4.32 3.137 5.18 3.364 6.14 3.546 7.27 3.683 8.27 3.864 9.14 4 9.82 4.092 10.37 4.183 10.77 4.182 11.1 4.229 11.22 1.409 3.6 1.409 3.54 1.364 3.5 1.319 3.46 1.228 3.36 1.181 3.18 1.136 3.1 0.955 2.86 0.91 2.73 0.727 2.5 0.637 2.32 0.545 2.09 0.455 1.95 0.318 1.82 0.227 1.59 0.137 1.46v1.32l-0.046 1.18-0.182 1.04-0.272 0.91-0.41 0.87-0.545 0.77-0.682 0.77-0.819 0.69-0.954 0.68-1.091 0.63-1.273 0.55-1.5 0.41-1.637 0.27-1.864 0.14-2.091-0.14-2.364-0.32-2.546-0.63-2.774-0.87-2.955-1.04-3.046-1.23-3.136-1.32-3.183-1.45-3.182-1.46-3.137-1.45-3.092-1.41-2.955-1.37-2.955-1.36-2.865-1.36-2.863-1.32-2.774-1.28-2.818-1.31-2.774-1.28-7.683-17.68-7.547-17.42" fill="#fff"/>
  <path d="m1422.8 1590.6c6.17-14.14 12.04-28.91 20.62-41.8 4.58-6.87 9.85-11.83 17.78-14.43 7.3-2.39 15.11-3.21 22.74-3.82 32.6-2.61 65.39-3.16 98.08-3.91 32.4-0.74 64.81-1.19 97.22-1.26 32.16-0.06 64.35 0.11 96.48 1.68 15.8 0.78 31.93 1.47 47.47 4.62 7.47 1.52 15.78 3.74 20.91 9.78 4.88 5.74 7.59 13.84 10.04 20.86 2.41 6.86 4.49 13.94 5.81 21.1 1.29 7.05 2.31 16.08-3.82 21.26-5.78 4.87-15.6 5.1-22.81 5.96-7.24 0.85-14.5 1.5-21.77 2.02-33.52 2.4-359.3 6.93-368.35 5.57-6.87-1.02-16.12-2.51-21.39-7.45-6.19-5.8-1.83-13.88 0.99-20.18" fill="#333"/>
 </g>
 <g stroke-width="1.0583">
  <path d="m83.027 84.507h111.57" fill="none" stroke="#000"/>
  <path d="m192.62 78.81 8.3257 5.6973-8.7181 5.3049z" fill="#060600" stop-color="#000000"/>
  <circle cx="224.12" cy="145.89" r="6.3477" fill="#eaf11a" stop-color="#000000" stroke="#000"/>
  <path d="m83.027 84.42 101.57 44.243" fill="none" stroke="#000"/>
 </g>
 <g transform="translate(25.393,-3.3658)" stroke-width=".26458" aria-label="waypoint">
  <path d="m179.82 163.62h0.95084l1.1886 4.5165 1.1834-4.5165h1.1214l1.1886 4.5165 1.1834-4.5165h0.95084l-1.5141 5.7877h-1.1214l-1.2454-4.7439-1.2506 4.7439h-1.1214z"/>
  <path d="m191.66 166.5q-1.1524 0-1.5968 0.26354-0.44441 0.26355-0.44441 0.89917 0 0.50643 0.33073 0.80615 0.33589 0.29456 0.9095 0.29456 0.79065 0 1.2661-0.55811 0.48059-0.56327 0.48059-1.4934v-0.21187zm1.8965-0.39274v3.3021h-0.95084v-0.8785q-0.32556 0.5271-0.81132 0.78031-0.48576 0.24805-1.1886 0.24805-0.88884 0-1.4159-0.49609-0.52193-0.50126-0.52193-1.3384 0-0.97668 0.65112-1.4728 0.65628-0.49609 1.9534-0.49609h1.3332v-0.093q0-0.65629-0.43408-1.0128-0.42892-0.36174-1.2092-0.36174-0.49609 0-0.96634 0.11886-0.47026 0.11885-0.90434 0.35656v-0.87849q0.52193-0.20154 1.0129-0.29973 0.49092-0.10335 0.95601-0.10335 1.2557 0 1.8758 0.65112 0.62012 0.65112 0.62012 1.974z"/>
  <path d="m197.92 169.95q-0.40307 1.0335-0.78547 1.3488-0.38241 0.31523-1.0232 0.31523h-0.75965v-0.79582h0.55811q0.39274 0 0.60978-0.18603 0.21704-0.18604 0.48059-0.8785l0.17053-0.43408-2.3409-5.6947h1.0077l1.8087 4.5268 1.8087-4.5268h1.0077z"/>
  <path d="m202.7 168.54v3.0696h-0.95601v-7.9892h0.95601v0.87849q0.29972-0.51676 0.75448-0.7648 0.45991-0.25322 1.0955-0.25322 1.0542 0 1.7105 0.83716 0.66145 0.83715 0.66145 2.2014 0 1.3642-0.66145 2.2014-0.65629 0.83716-1.7105 0.83716-0.63562 0-1.0955-0.24805-0.45476-0.25321-0.75448-0.76997zm3.2349-2.0205q0-1.049-0.43408-1.6433-0.42892-0.59944-1.1834-0.59944t-1.1886 0.59944q-0.42891 0.59428-0.42891 1.6433 0 1.049 0.42891 1.6485 0.43409 0.59428 1.1886 0.59428t1.1834-0.59428q0.43408-0.59945 0.43408-1.6485z"/>
  <path d="m210.74 164.29q-0.76481 0-1.2092 0.59945-0.44441 0.59427-0.44441 1.633 0 1.0387 0.43925 1.6381 0.44441 0.59428 1.2144 0.59428 0.75964 0 1.2041-0.59944 0.44441-0.59945 0.44441-1.633 0-1.0284-0.44441-1.6278-0.44442-0.60461-1.2041-0.60461zm0-0.80615q1.2402 0 1.9482 0.80615 0.70797 0.80615 0.70797 2.2324 0 1.4211-0.70797 2.2324-0.70796 0.80615-1.9482 0.80615-1.2454 0-1.9534-0.80615-0.7028-0.81132-0.7028-2.2324 0-1.4263 0.7028-2.2324 0.70796-0.80615 1.9534-0.80615z"/>
  <path d="m214.97 163.62h0.95085v5.7877h-0.95085zm0-2.2531h0.95085v1.2041h-0.95085z"/>
  <path d="m222.72 165.92v3.4933h-0.95084v-3.4623q0-0.82165-0.32039-1.2299-0.3204-0.40824-0.96118-0.40824-0.76998 0-1.2144 0.49093-0.44442 0.49092-0.44442 1.3384v3.2711h-0.95601v-5.7877h0.95601v0.89916q0.34106-0.52193 0.80098-0.78031 0.46509-0.25838 1.0697-0.25838 0.99735 0 1.509 0.62012 0.51159 0.61494 0.51159 1.8138z"/>
  <path d="m225.56 161.98v1.6433h1.9585v0.73897h-1.9585v3.1419q0 0.70796 0.1912 0.9095 0.19637 0.20153 0.79065 0.20153h0.97668v0.79582h-0.97668q-1.1007 0-1.5193-0.40824-0.41858-0.41341-0.41858-1.4986v-3.1419h-0.69763v-0.73897h0.69763v-1.6433z"/>
 </g>
 <g stroke-width=".26458" aria-label="?">
  <path d="m174.24 109.3h2.8678v3.5883h-2.8678zm2.783-2.0767h-2.6983v-2.1756q0-1.4268 0.39556-2.3451 0.39556-0.91825 1.667-2.1332l1.2714-1.2573q0.80524-0.74873 1.1584-1.4127 0.36731-0.66397 0.36731-1.3562 0-1.2573-0.93239-2.0343-0.91826-0.77699-2.444-0.77699-1.116 0-2.3875 0.49445-1.2573 0.49445-2.6276 1.441v-2.6559q1.3279-0.80524 2.6841-1.2008 1.3703-0.39556 2.8254-0.39556 2.5994 0 4.1675 1.3703 1.5822 1.3703 1.5822 3.6165 0 1.0737-0.50858 2.0484-0.50857 0.96064-1.78 2.1756l-1.2432 1.2149q-0.66398 0.66398-0.94652 1.0454-0.26841 0.3673-0.38143 0.72048-0.0848 0.29666-0.12714 0.72048-0.0424 0.42381-0.0424 1.1584z"/>
 </g>
 <path d="m182.64 121.67 6.4542 7.7537-9.8351 2.7235z" fill="#060600" stop-color="#000000" stroke-width="1.0583"/>
</svg>
