<?xml version="1.0" encoding="UTF-8" standalone="no"?>
<svg
   xmlns:dc="http://purl.org/dc/elements/1.1/"
   xmlns:cc="http://creativecommons.org/ns#"
   xmlns:rdf="http://www.w3.org/1999/02/22-rdf-syntax-ns#"
   xmlns:svg="http://www.w3.org/2000/svg"
   xmlns="http://www.w3.org/2000/svg"
   xmlns:sodipodi="http://sodipodi.sourceforge.net/DTD/sodipodi-0.dtd"
   xmlns:inkscape="http://www.inkscape.org/namespaces/inkscape"
   width="512mm"
   height="512mm"
   viewBox="0 0 512 512"
   version="1.1"
   id="svg8"
   sodipodi:docname="sink.svg"
   inkscape:version="1.0.1 (1.0.1+r74)">
  <defs
     id="defs2">
    <clipPath
       clipPathUnits="userSpaceOnUse"
       id="clipPath1086">
      <path
         style="color:#000000;font-style:normal;font-variant:normal;font-weight:normal;font-stretch:normal;font-size:medium;line-height:normal;font-family:sans-serif;font-variant-ligatures:normal;font-variant-position:normal;font-variant-caps:normal;font-variant-numeric:normal;font-variant-alternates:normal;font-variant-east-asian:normal;font-feature-settings:normal;font-variation-settings:normal;text-indent:0;text-align:start;text-decoration:none;text-decoration-line:none;text-decoration-style:solid;text-decoration-color:#000000;letter-spacing:normal;word-spacing:normal;text-transform:none;writing-mode:lr-tb;direction:ltr;text-orientation:mixed;dominant-baseline:auto;baseline-shift:baseline;text-anchor:start;white-space:normal;shape-padding:0;shape-margin:0;inline-size:0;clip-rule:nonzero;display:inline;overflow:visible;visibility:visible;isolation:auto;mix-blend-mode:normal;color-interpolation:sRGB;color-interpolation-filters:linearRGB;solid-color:#000000;solid-opacity:1;vector-effect:none;fill:#b68617;fill-opacity:1;fill-rule:nonzero;stroke:none;stroke-width:20;stroke-linecap:butt;stroke-linejoin:miter;stroke-miterlimit:4;stroke-dasharray:none;stroke-dashoffset:0;stroke-opacity:1;color-rendering:auto;image-rendering:auto;shape-rendering:auto;text-rendering:auto;enable-background:accumulate;stop-color:#000000"
         d="m -584.87298,21.145611 c 405.13196,-97.866901 202.56599,-48.933452 0,0 z m 53.91601,-12.7527841 h 350.61929 c 7.90075,0 16.41459,1.8652331 23.22854,4.8398641 6.81395,2.974605 11.67366,7.198783 13.26954,10.027338 l -6.29777,132.510581 c 7.1628,12.69527 7.17436,23.18994 3.47073,30.1113 -3.70367,6.92137 -11.66204,12.21486 -26.95118,12.21486 h -352.39261 c -15.28908,0 -23.24558,-5.29349 -26.94921,-12.21486 -3.70364,-6.92134 -3.6923,-17.41606 3.4707,-30.1113 L -567.45502,23.260029 c 1.596,-2.82874 13.26954,-10.027338 13.26954,-10.027338 6.81377,-2.974605 15.32719,-4.8398641 23.22851,-4.8398641 z"
         id="path1088"
         sodipodi:nodetypes="ccsssccssssccss" />
    </clipPath>
    <clipPath
       clipPathUnits="userSpaceOnUse"
       id="clipPath1090">
      <path
         style="color:#000000;font-style:normal;font-variant:normal;font-weight:normal;font-stretch:normal;font-size:medium;line-height:normal;font-family:sans-serif;font-variant-ligatures:normal;font-variant-position:normal;font-variant-caps:normal;font-variant-numeric:normal;font-variant-alternates:normal;font-variant-east-asian:normal;font-feature-settings:normal;font-variation-settings:normal;text-indent:0;text-align:start;text-decoration:none;text-decoration-line:none;text-decoration-style:solid;text-decoration-color:#000000;letter-spacing:normal;word-spacing:normal;text-transform:none;writing-mode:lr-tb;direction:ltr;text-orientation:mixed;dominant-baseline:auto;baseline-shift:baseline;text-anchor:start;white-space:normal;shape-padding:0;shape-margin:0;inline-size:0;clip-rule:nonzero;display:inline;overflow:visible;visibility:visible;isolation:auto;mix-blend-mode:normal;color-interpolation:sRGB;color-interpolation-filters:linearRGB;solid-color:#000000;solid-opacity:1;vector-effect:none;fill:#b68617;fill-opacity:1;fill-rule:nonzero;stroke:none;stroke-width:20;stroke-linecap:butt;stroke-linejoin:miter;stroke-miterlimit:4;stroke-dasharray:none;stroke-dashoffset:0;stroke-opacity:1;color-rendering:auto;image-rendering:auto;shape-rendering:auto;text-rendering:auto;enable-background:accumulate;stop-color:#000000"
         d="m -487.4474,81.098431 c 405.131965,-97.866901 202.56599,-48.933452 0,0 z m 53.91601,-12.752784 h 350.619293 c 7.900749,0 16.414591,1.865233 23.228538,4.839864 6.813947,2.974605 11.673655,7.198783 13.269542,10.027338 l -6.297771,132.510581 c 7.1628,12.69527 7.174362,23.18994 3.470724,30.1113 -3.703664,6.92137 -11.662039,12.21486 -26.951172,12.21486 H -428.58485 c -15.28908,0 -23.24558,-5.29349 -26.94921,-12.21486 -3.70364,-6.92134 -3.6923,-17.41606 3.4707,-30.1113 L -470.02944,83.212849 c 1.596,-2.82874 13.26954,-10.027338 13.26954,-10.027338 6.81377,-2.974605 15.32719,-4.839864 23.22851,-4.839864 z"
         id="path1092"
         sodipodi:nodetypes="ccsssccssssccss" />
    </clipPath>
    <clipPath
       clipPathUnits="userSpaceOnUse"
       id="clipPath1094">
      <path
         style="color:#000000;font-style:normal;font-variant:normal;font-weight:normal;font-stretch:normal;font-size:medium;line-height:normal;font-family:sans-serif;font-variant-ligatures:normal;font-variant-position:normal;font-variant-caps:normal;font-variant-numeric:normal;font-variant-alternates:normal;font-variant-east-asian:normal;font-feature-settings:normal;font-variation-settings:normal;text-indent:0;text-align:start;text-decoration:none;text-decoration-line:none;text-decoration-style:solid;text-decoration-color:#000000;letter-spacing:normal;word-spacing:normal;text-transform:none;writing-mode:lr-tb;direction:ltr;text-orientation:mixed;dominant-baseline:auto;baseline-shift:baseline;text-anchor:start;white-space:normal;shape-padding:0;shape-margin:0;inline-size:0;clip-rule:nonzero;display:inline;overflow:visible;visibility:visible;isolation:auto;mix-blend-mode:normal;color-interpolation:sRGB;color-interpolation-filters:linearRGB;solid-color:#000000;solid-opacity:1;vector-effect:none;fill:#b68617;fill-opacity:1;fill-rule:nonzero;stroke:none;stroke-width:20;stroke-linecap:butt;stroke-linejoin:miter;stroke-miterlimit:4;stroke-dasharray:none;stroke-dashoffset:0;stroke-opacity:1;color-rendering:auto;image-rendering:auto;shape-rendering:auto;text-rendering:auto;enable-background:accumulate;stop-color:#000000"
         d="m -390.16139,37.877731 c 405.131965,-97.866901 202.56599,-48.933452 0,0 z m 53.91601,-12.752784 H 14.373913 c 7.900749,0 16.414591,1.865233 23.228538,4.839864 6.813947,2.974605 11.673655,7.198783 13.269542,10.027338 L 44.574222,172.50273 c 7.1628,12.69527 7.174362,23.18994 3.470724,30.1113 -3.703664,6.92137 -11.662039,12.21486 -26.951172,12.21486 H -331.29884 c -15.28908,0 -23.24558,-5.29349 -26.94921,-12.21486 -3.70364,-6.92134 -3.6923,-17.41606 3.4707,-30.1113 L -372.74343,39.992149 c 1.596,-2.82874 13.26954,-10.027338 13.26954,-10.027338 6.81377,-2.974605 15.32719,-4.839864 23.22851,-4.839864 z"
         id="path1096"
         sodipodi:nodetypes="ccsssccssssccss" />
    </clipPath>
    <clipPath
       clipPathUnits="userSpaceOnUse"
       id="clipPath1098">
      <path
         style="color:#000000;font-style:normal;font-variant:normal;font-weight:normal;font-stretch:normal;font-size:medium;line-height:normal;font-family:sans-serif;font-variant-ligatures:normal;font-variant-position:normal;font-variant-caps:normal;font-variant-numeric:normal;font-variant-alternates:normal;font-variant-east-asian:normal;font-feature-settings:normal;font-variation-settings:normal;text-indent:0;text-align:start;text-decoration:none;text-decoration-line:none;text-decoration-style:solid;text-decoration-color:#000000;letter-spacing:normal;word-spacing:normal;text-transform:none;writing-mode:lr-tb;direction:ltr;text-orientation:mixed;dominant-baseline:auto;baseline-shift:baseline;text-anchor:start;white-space:normal;shape-padding:0;shape-margin:0;inline-size:0;clip-rule:nonzero;display:inline;overflow:visible;visibility:visible;isolation:auto;mix-blend-mode:normal;color-interpolation:sRGB;color-interpolation-filters:linearRGB;solid-color:#000000;solid-opacity:1;vector-effect:none;fill:#b68617;fill-opacity:1;fill-rule:nonzero;stroke:none;stroke-width:20;stroke-linecap:butt;stroke-linejoin:miter;stroke-miterlimit:4;stroke-dasharray:none;stroke-dashoffset:0;stroke-opacity:1;color-rendering:auto;image-rendering:auto;shape-rendering:auto;text-rendering:auto;enable-background:accumulate;stop-color:#000000"
         d="m -621.4442,97.886261 c 405.13196,-97.8669009 202.56599,-48.933452 0,0 z m 53.91601,-12.752784 h 350.61929 c 7.90075,0 16.41459,1.865233 23.22854,4.839864 6.81395,2.974605 11.67366,7.198783 13.26954,10.027339 l -6.29777,132.51058 c 7.1628,12.69527 7.17436,23.18994 3.47073,30.1113 -3.70367,6.92137 -11.66204,12.21486 -26.95118,12.21486 h -352.39261 c -15.28908,0 -23.24558,-5.29349 -26.94921,-12.21486 -3.70364,-6.92134 -3.6923,-17.41606 3.4707,-30.1113 l -17.96608,-132.51058 c 1.596,-2.828741 13.26954,-10.027339 13.26954,-10.027339 6.81377,-2.974605 15.32719,-4.839864 23.22851,-4.839864 z"
         id="path1100"
         sodipodi:nodetypes="ccsssccssssccss" />
    </clipPath>
  </defs>
  <sodipodi:namedview
     id="base"
     pagecolor="#ffffff"
     bordercolor="#666666"
     borderopacity="1.0"
     inkscape:pageopacity="0.0"
     inkscape:pageshadow="2"
     inkscape:zoom="0.35567251"
     inkscape:cx="-404.88332"
     inkscape:cy="808.1018"
     inkscape:document-units="mm"
     inkscape:current-layer="layer1"
     inkscape:document-rotation="0"
     showgrid="false"
     inkscape:window-width="3820"
     inkscape:window-height="1032"
     inkscape:window-x="0"
     inkscape:window-y="28"
     inkscape:window-maximized="0"
     inkscape:snap-global="false"
     showguides="true"
     inkscape:guide-bbox="true">
    <sodipodi:guide
       position="591.39726,96.162166"
       orientation="0,-1"
       id="guide3797" />
    <sodipodi:guide
       position="611.75411,28.067244"
       orientation="0,-1"
       id="guide3807" />
    <sodipodi:guide
       position="252.92461,173.52734"
       orientation="1,0"
       id="guide3809" />
  </sodipodi:namedview>
  <metadata
     id="metadata5">
    <rdf:RDF>
      <cc:Work
         rdf:about="">
        <dc:format>image/svg+xml</dc:format>
        <dc:type
           rdf:resource="http://purl.org/dc/dcmitype/StillImage" />
        <dc:title></dc:title>
      </cc:Work>
    </rdf:RDF>
  </metadata>
  <g
     inkscape:groupmode="layer"
     id="layer4"
     inkscape:label="bottom of sink" />
  <g
     inkscape:label="sink"
     inkscape:groupmode="layer"
     id="layer1">
    <rect
       style="fill:#1d843f;fill-opacity:1;stroke:none;stroke-width:14.229;stroke-miterlimit:4;stroke-dasharray:none;stroke-opacity:1"
       id="rect3795"
       width="512"
       height="512"
       x="0"
       y="0" />
    <g
       aria-label="*"
       id="text4165"
       style="font-weight:bold;font-size:523.562px;line-height:1.25;font-family:sans-serif;-inkscape-font-specification:'sans-serif Bold';letter-spacing:0px;word-spacing:0px;fill:#fefefe;fill-opacity:1;stroke-width:5.45377"
       transform="matrix(0.92232967,0,0,0.92232967,36.822973,36.728242)">
      <path
         d="m 474.09317,307.21523 -84.36302,44.22667 84.36302,44.48232 -19.42906,36.04602 -85.12996,-47.03878 v 87.94206 h -43.45973 v -87.94206 l -85.38561,47.03878 -19.42905,-36.04602 85.3856,-44.48232 -85.3856,-44.22667 19.42905,-36.04602 85.38561,46.52748 v -87.94206 h 43.45973 v 87.94206 l 85.12996,-46.52748 z"
         style="fill:#fefefe;fill-opacity:1;stroke-width:5.45377"
         id="path4167" />
    </g>
  </g>
  <g
     inkscape:groupmode="layer"
     id="layer5"
     inkscape:label="handles"
     style="display:inline" />
</svg>
